<svg width="590" height="478" viewBox="0 0 590 478" fill="none" xmlns="http://www.w3.org/2000/svg">
<path d="M25.5441 338.707L25.8759 337.712C25.8759 337.712 26.7882 337.214 26.7882 336.468C26.7882 335.721 26.954 333.565 27.037 332.901L27.2028 332.653C27.5346 332.57 28.281 332.238 28.5298 331.74C28.8615 331.16 29.0274 329.999 29.0274 329.999L32.4278 327.511C32.4278 327.511 32.9254 326.101 32.7595 325.686C32.5936 325.271 32.7595 324.608 32.7595 324.608L33.8376 323.613C33.8376 323.613 34.3353 322.369 33.0083 321.954C31.7643 321.456 30.6861 323.281 30.6861 323.281L28.9445 323.032L28.0322 323.861C28.0322 323.861 27.3687 324.857 27.5346 325.105C27.7005 325.354 28.1981 326.764 28.1981 326.764L27.5346 327.925L26.7052 329.335L25.7929 329.75C25.7929 329.75 25.2953 331.491 25.7929 331.906C26.1247 332.155 26.5394 332.404 26.7882 332.57V332.818C25.8759 333.067 22.9732 333.897 22.3926 333.897L21.9779 335.721L21.4803 336.053L21.0657 338.375L20.4851 338.873C20.4851 338.873 19.9875 341.029 21.3974 340.946C22.8073 340.946 24.1342 340.2 24.1342 340.2L24.8807 339.287L25.4612 338.79H25.5441V338.707Z" stroke="black" stroke-width="0.5" stroke-linecap="round" stroke-linejoin="round"/>
<path d="M25.5441 338.707L25.8759 337.712C25.8759 337.712 26.7882 337.214 26.7882 336.468C26.7882 335.721 26.954 333.565 27.037 332.901L27.2028 332.653C27.5346 332.57 28.281 332.238 28.5298 331.74C28.8615 331.16 29.0274 329.999 29.0274 329.999L32.4278 327.511C32.4278 327.511 32.9254 326.101 32.7595 325.686C32.5936 325.271 32.7595 324.608 32.7595 324.608L33.8376 323.613C33.8376 323.613 34.3353 322.369 33.0083 321.954C31.7643 321.456 30.6861 323.281 30.6861 323.281L28.9445 323.032L28.0322 323.861C28.0322 323.861 27.3687 324.857 27.5346 325.105C27.7005 325.354 28.1981 326.764 28.1981 326.764L27.5346 327.925L26.7052 329.335L25.7929 329.75C25.7929 329.75 25.2953 331.491 25.7929 331.906C26.1247 332.155 26.5394 332.404 26.7882 332.57V332.818C25.8759 333.067 22.9732 333.897 22.3926 333.897L21.9779 335.721L21.4803 336.053L21.0657 338.375L20.4851 338.873C20.4851 338.873 19.9875 341.029 21.3974 340.946C22.8073 340.946 24.1342 340.2 24.1342 340.2L24.8807 339.287L25.4612 338.79H25.5441V338.707Z" stroke="black" stroke-width="0.5" stroke-linecap="round" stroke-linejoin="round"/>
<path d="M37.4864 354.05C40.1403 354.216 39.5597 351.479 39.5597 351.479V350.318C39.5597 350.318 39.8915 348.493 37.8181 348.576C35.6618 348.576 35.9106 351.479 35.9106 351.479C35.9106 351.479 36.0765 353.718 37.4864 354.05Z" stroke="black" stroke-width="0.5" stroke-linecap="round" stroke-linejoin="round"/>
<path d="M37.4864 354.05C40.1403 354.216 39.5597 351.479 39.5597 351.479V350.318C39.5597 350.318 39.8915 348.493 37.8181 348.576C35.6618 348.576 35.9106 351.479 35.9106 351.479C35.9106 351.479 36.0765 353.718 37.4864 354.05Z" stroke="black" stroke-width="0.5" stroke-linecap="round" stroke-linejoin="round"/>
<path d="M11.8595 375.198C11.5277 376.027 12.1912 377.023 12.1912 377.023L13.6011 377.272L14.4305 374.535L13.1035 374.12C13.1035 374.12 12.1912 374.369 11.8595 375.198Z" stroke="black" stroke-width="0.5" stroke-linecap="round" stroke-linejoin="round"/>
<path d="M11.8595 375.198C11.5277 376.027 12.1912 377.023 12.1912 377.023L13.6011 377.272L14.4305 374.535L13.1035 374.12C13.1035 374.12 12.1912 374.369 11.8595 375.198Z" stroke="black" stroke-width="0.5" stroke-linecap="round" stroke-linejoin="round"/>
<path d="M1.40981 385.565C1.40981 385.565 1.90742 385.897 2.23916 386.063C2.5709 386.229 3.06851 385.399 3.06851 385.399L3.23438 384.321L3.48319 384.487C3.48319 384.487 4.47841 384.819 5.6395 384.487C6.80059 384.155 5.6395 383.16 5.6395 383.16V382.496C5.6395 382.496 5.47363 381.833 5.22482 381.335C5.05895 380.921 4.56134 381.335 4.56134 381.335H3.9808L3.15145 381.004C3.15145 381.004 2.65384 380.838 1.82449 381.004C0.995136 381.169 1.40981 382.413 1.40981 382.413L0.58046 383.16C0.58046 383.16 0.58046 383.989 0.24872 384.57C-8.50141e-05 385.15 1.24394 385.482 1.24394 385.482" stroke="black" stroke-width="0.5" stroke-linecap="round" stroke-linejoin="round"/>
<path d="M1.40981 385.565C1.40981 385.565 1.90742 385.897 2.23916 386.063C2.5709 386.229 3.06851 385.399 3.06851 385.399L3.23438 384.321L3.48319 384.487C3.48319 384.487 4.47841 384.819 5.6395 384.487C6.80059 384.155 5.6395 383.16 5.6395 383.16V382.496C5.6395 382.496 5.47363 381.833 5.22482 381.335C5.05895 380.921 4.56134 381.335 4.56134 381.335H3.9808L3.15145 381.004C3.15145 381.004 2.65384 380.838 1.82449 381.004C0.995136 381.169 1.40981 382.413 1.40981 382.413L0.58046 383.16C0.58046 383.16 0.58046 383.989 0.24872 384.57C-8.50141e-05 385.15 1.24394 385.482 1.24394 385.482H1.40981V385.565Z" stroke="black" stroke-width="0.5" stroke-linecap="round" stroke-linejoin="round"/>
<path d="M34.8326 403.064H34.5838L33.8374 404.557L34.335 404.391L34.0862 404.723L34.4179 405.055V405.552H34.0033V406.299H34.4179C34.4179 406.216 34.8326 406.879 34.8326 406.879H35.1644V406.216L35.4961 406.548L35.7449 406.382L36.4913 406.548L38.9794 404.225C38.9794 404.225 39.1452 404.391 39.3941 404.142C39.6429 403.894 39.3941 403.811 39.3941 403.811L40.3063 402.816V403.313L40.6381 403.562H41.0528L41.3016 403.064L41.8821 402.484V401.903L41.3016 401.323L41.965 400.41L42.6285 401.489V401.986L42.3797 402.401L42.9603 402.733L43.4579 401.489L43.9555 401.986C43.9555 401.986 44.2872 402.733 44.536 402.816C44.7848 402.981 45.5312 402.898 45.5312 402.898L46.2777 402.069L46.5265 401.903V402.484L46.3606 402.981L46.6923 403.313V403.479L46.8582 403.23L47.1899 402.816H47.5217L48.0193 402.401L48.5169 401.157V400.245L49.3463 398.918L49.1804 397.425C49.1804 397.425 48.5998 397.093 48.1852 397.176C47.7705 397.176 46.9411 397.756 46.9411 397.756L46.7753 398.254L46.6094 397.591L46.4435 397.176L45.5312 396.844L44.7848 397.093L44.2872 397.508L43.3749 397.839C43.3749 397.839 41.7992 398.42 41.7992 399C41.7992 398.918 42.048 397.508 42.048 397.508V395.766L40.9698 395.517C40.9698 395.517 38.15 395.103 37.4865 395.268C37.4865 395.268 36.4913 395.434 36.4913 395.683V396.347L36.6572 396.927L35.9937 397.674L35.4132 398.835L35.0814 399.332L34.335 400.245C34.335 400.245 33.9203 400.991 33.9203 401.24C33.9203 401.489 34.2521 402.235 34.2521 402.235C34.2521 402.235 33.9203 402.733 35.8278 402.898C35.8278 402.898 35.662 402.981 35.2473 403.064C34.9985 403.064 34.8326 402.815 34.4179 402.898" stroke="black" stroke-width="0.5" stroke-linecap="round" stroke-linejoin="round"/>
<path d="M34.8326 403.064H34.5838L33.8374 404.557L34.335 404.391L34.0862 404.723L34.4179 405.055V405.552H34.0033V406.299H34.4179C34.4179 406.216 34.8326 406.879 34.8326 406.879H35.1644V406.216L35.4961 406.548L35.7449 406.382L36.4913 406.548L38.9794 404.225C38.9794 404.225 39.1452 404.391 39.3941 404.142C39.6429 403.894 39.3941 403.811 39.3941 403.811L40.3063 402.816V403.313L40.6381 403.562H41.0528L41.3016 403.064L41.8821 402.484V401.903L41.3016 401.323L41.965 400.41L42.6285 401.489V401.986L42.3797 402.401L42.9603 402.733L43.4579 401.489L43.9555 401.986C43.9555 401.986 44.2872 402.733 44.536 402.816C44.7848 402.981 45.5312 402.898 45.5312 402.898L46.2777 402.069L46.5265 401.903V402.484L46.3606 402.981L46.6923 403.313V403.479L46.8582 403.23L47.1899 402.816H47.5217L48.0193 402.401L48.5169 401.157V400.245L49.3463 398.918L49.1804 397.425C49.1804 397.425 48.5998 397.093 48.1852 397.176C47.7705 397.176 46.9411 397.756 46.9411 397.756L46.7753 398.254L46.6094 397.591L46.4435 397.176L45.5312 396.844L44.7848 397.093L44.2872 397.508L43.3749 397.839C43.3749 397.839 41.7992 398.42 41.7992 399C41.7992 398.918 42.048 397.508 42.048 397.508V395.766L40.9698 395.517C40.9698 395.517 38.15 395.103 37.4865 395.268C37.4865 395.268 36.4913 395.434 36.4913 395.683V396.347L36.6572 396.927L35.9937 397.674L35.4132 398.835L35.0814 399.332L34.335 400.245C34.335 400.245 33.9203 400.991 33.9203 401.24C33.9203 401.489 34.2521 402.235 34.2521 402.235C34.2521 402.235 33.9203 402.733 35.8278 402.898C35.8278 402.898 35.662 402.981 35.2473 403.064C34.9985 403.064 34.8326 402.815 34.4179 402.898L34.7497 403.064H34.8326Z" stroke="black" stroke-width="0.5" stroke-linecap="round" stroke-linejoin="round"/>
<path d="M94.2139 391.039L94.9603 389.795L93.6334 387.058L93.0528 386.063H91.9747L94.6286 383.243C94.6286 383.243 95.7068 381.667 94.2969 381.418C92.887 381.087 89.3208 380.672 89.3208 380.672C89.3208 380.672 88.2426 381.17 87.3303 381.004C86.3351 380.921 85.174 379.76 85.174 379.76V378.184L85.0081 377.52L86.8327 377.354L88.4085 377.52L88.9061 377.189L89.1549 375.281V376.11L90.7307 376.276C90.7307 376.276 91.4771 375.447 91.6429 375.115C91.6429 374.784 92.5552 373.539 92.5552 373.539C92.5552 373.539 93.6334 372.295 93.3846 371.3C93.1358 370.388 92.9699 369.807 92.9699 369.807L92.7211 368.48C92.7211 368.48 88.989 365.412 88.0767 365.412C87.1644 365.412 85.6716 366.49 85.5887 366.905C85.5887 367.319 84.8423 368.563 84.3447 368.398C83.847 368.232 82.9348 367.734 82.9348 367.734L81.2761 366.905L80.1979 366.407L78.2904 365.661H77.3781C77.3781 365.661 74.8901 365.495 74.6413 364.665C74.4754 363.919 74.6413 362.758 74.6413 362.758L73.646 359.938L73.1484 358.777L73.5631 357.948L73.0655 356.455C73.0655 356.455 74.6413 355.128 74.6413 354.63C74.6413 354.133 74.973 353.303 73.646 353.386L71.8215 354.299L70.3286 353.386H69.1675L67.7576 354.63L69.0846 352.972L68.7529 351.976L65.8501 351.479C65.8501 351.479 65.1037 351.147 64.9379 353.055H60.5423C60.5423 353.055 59.1324 353.718 58.9665 353.967C58.8007 354.216 58.0542 355.791 58.0542 355.791L57.8054 356.787L56.3955 357.865L56.0638 358.777V359.275L55.5662 359.855V361.182L53.0781 360.85L52.2488 361.182L50.673 358.114C50.673 358.114 49.429 357.948 49.0973 358.528C48.7655 359.109 46.6092 358.528 46.6921 359.772C46.6921 361.016 47.6874 361.763 47.6874 361.763L46.3604 362.26L45.8628 363.504H43.3747L42.5454 363.753L42.8771 362.094C42.8771 362.094 42.4625 361.265 41.1355 361.099C39.7256 360.933 39.4768 361.431 39.4768 361.431L39.1451 362.509L38.8133 362.094L37.901 361.763C37.901 361.763 36.8229 361.763 36.9887 362.841C37.1546 363.67 38.0669 364.251 38.0669 364.251L38.5645 365.329L37.901 366.241L36.9887 366.988L37.8181 368.398L36.4082 366.573C36.2423 366.407 35.9935 364.997 35.1642 364.997C34.3348 364.997 33.8372 365.412 33.8372 365.412C33.8372 365.412 33.3396 364.002 32.2614 363.836C31.1833 363.67 30.1881 364.417 30.1051 364.748C30.1051 364.831 30.1051 365.08 29.9393 365.246C29.9393 365.08 27.2853 364.583 26.3731 364.5C26.3731 364.5 25.3778 365.744 25.129 366.075C24.9632 366.324 24.6314 367.734 25.129 368.066C25.6266 368.398 26.6219 368.315 26.8707 368.066C27.1195 367.817 27.5341 367.236 27.5341 367.236C27.5341 367.236 29.8563 365.412 29.8563 365.246V365.661L30.0222 366.324L30.6857 366.988L30.0222 367.9C30.0222 367.9 28.7782 369.061 28.7782 369.476C28.7782 369.89 29.1928 370.554 29.1928 370.554L30.6027 370.803C30.6027 370.803 31.1003 372.213 31.3492 372.627C31.598 373.042 33.4225 373.374 33.4225 373.374C33.4225 373.374 34.6666 374.12 34.6666 374.618V376.193C34.6666 376.193 34.9154 376.857 36.3253 377.106C37.1546 377.272 37.3205 378.184 37.3205 378.184V379.428L37.1546 382.082L38.0669 383.492L38.2328 384.404L35.2471 383.326L34.0031 382.496V381.087C34.0031 381.087 35.1642 380.506 35.0812 379.76C35.0812 379.013 34.2519 378.018 34.2519 378.018L33.6713 377.603L33.4225 376.276C33.4225 376.276 32.6761 374.535 31.7638 374.618C30.8515 374.618 30.6857 375.198 30.6857 375.198L30.5198 376.442L30.1881 376.608L29.7734 378.184L29.2758 378.433L29.027 380.174L29.3587 381.252C29.3587 381.252 30.271 383.575 30.8515 384.072C31.515 384.57 32.3444 384.819 32.3444 384.819L31.9297 386.56C31.9297 386.56 32.3444 387.97 32.9249 387.97C33.5055 387.97 33.9201 387.804 33.9201 387.804L31.7638 390.126C31.7638 390.126 31.4321 391.868 32.6761 391.868C33.9201 391.868 35.33 389.878 35.33 389.878C35.33 389.878 36.4911 388.053 36.8229 388.053C37.1546 388.053 38.2328 387.97 38.2328 387.97L38.8133 387.721L40.1403 387.97L41.1355 387.638L42.1307 388.136L43.3747 388.468L43.5406 388.882L41.1355 391.039L40.8038 391.868L41.1355 392.78V393.942C41.1355 393.942 40.9696 395.103 42.7113 394.688C43.6235 394.522 44.5358 394.107 44.5358 394.107H45.6969L46.4433 393.859C46.4433 393.859 47.7703 393.776 48.102 392.78C48.4338 391.868 48.5167 390.956 48.5167 390.956C48.5167 390.956 49.2631 390.624 49.3461 389.38C49.3461 388.136 49.0973 387.224 49.0973 387.224C49.0973 387.224 49.0973 386.394 48.0191 386.311C46.9409 386.229 46.6092 386.146 46.6092 386.146L45.9457 385.399L42.3795 385.067C42.3795 385.067 44.8676 383.658 44.8676 383.326C44.8676 382.994 44.7017 381.916 44.7017 381.916C44.7017 381.916 45.4481 380.838 45.614 380.423C45.7799 380.008 45.4481 379.345 45.4481 379.345L45.1164 378.847V377.437L45.3652 377.106C45.3652 377.106 48.185 375.032 48.4338 375.032C48.6826 375.032 50.4242 377.189 50.4242 377.189L51.917 379.843V382.579L51.2536 383.823V384.902L55.2345 390.292L54.571 392.615L51.5024 394.522C51.5024 394.522 48.8485 396.513 49.1802 397.425C49.5949 397.757 54.8198 396.678 54.8198 396.678L52.1659 399.166L51.4194 403.23L47.9362 406.133L44.1212 409.782L41.799 411.69L39.8085 410.529C39.8085 410.529 38.2328 411.026 38.1498 411.358C38.0669 411.69 37.6522 413.929 37.6522 413.929L37.984 414.509L37.7352 416.832L38.3157 418.076C38.3157 418.076 36.1594 420.647 36.0765 420.978C36.0765 421.31 35.7447 421.642 37.8181 424.545C38.3986 425.789 38.7304 427.613 38.7304 427.613L39.0621 429.604L35.9935 434.58L33.2567 434.414C33.2567 434.414 32.1785 434.082 32.7591 436.073C33.5055 436.985 33.5055 437.399 33.5055 437.399L33.7543 438.561L33.5884 439.97C33.5884 439.97 33.5884 441.049 34.9154 441.297C36.3253 441.546 40.2232 441.961 40.2232 441.961C40.2232 441.961 41.4672 444.615 41.799 445.029C42.1307 445.444 43.6235 445.942 44.7846 445.278C45.9457 444.615 46.1945 444.2 46.1945 444.2C46.1945 444.2 46.6921 443.785 46.6921 443.205C46.6921 442.624 46.6921 440.883 44.9505 440.717L44.37 440.219L44.6188 438.312L44.287 437.482V434.248L46.7751 430.765L47.7703 430.018L48.102 428.36C48.102 428.36 48.8485 427.033 50.4242 427.198C51.3365 427.447 53.7416 430.682 53.5757 430.931C53.4099 431.179 51.2536 433.17 51.2536 433.17L50.5072 432.838L48.9314 433.999L48.5996 436.736L51.0877 441.38L50.4242 443.205L49.6778 443.785L49.1802 444.698L48.6826 446.191L48.185 447.352C48.185 447.352 45.8628 448.347 45.614 448.596C45.4481 448.845 44.37 451.664 45.9457 451.581C47.5215 451.498 55.4833 448.43 55.815 448.015C56.0638 447.683 56.4785 446.439 56.4785 446.439H57.5566C57.5566 446.439 60.1276 444.698 60.3764 443.785C60.5423 442.707 58.9665 441.463 58.6348 441.463C58.303 441.463 58.6348 440.551 58.6348 440.551C58.6348 440.551 59.8788 439.39 60.7082 439.39C61.5375 439.39 62.201 439.556 62.201 439.556L65.6843 443.371C65.6843 443.371 67.1771 444.532 68.0065 443.039C68.5041 441.546 69.0846 440.053 69.0846 440.053L69.7481 437.648L72.3191 435.492L73.3972 433.667L74.3095 427.779L75.1389 426.95L75.7194 422.388L76.5488 420.895L78.6221 417.91L78.8709 416.583L79.3686 416.251L79.8662 414.924L80.1979 413.929L83.6812 410.694L84.0129 409.616L83.5153 408.87L84.9252 407.709L85.4228 405.055L91.3112 400.991C91.3112 400.991 91.8917 400.576 91.3112 399.581C90.7307 398.835 91.1453 398.752 91.1453 398.752L92.4723 398.586L93.2187 398.171L94.3798 398.669L94.7945 397.259L96.2873 395.932L96.5361 393.195L94.9603 392.449L94.2139 391.619V391.039Z" stroke="black" stroke-width="0.5" stroke-linecap="round" stroke-linejoin="round"/>
<path d="M94.2139 391.039L94.9603 389.795L93.6334 387.058L93.0528 386.063H91.9747L94.6286 383.243C94.6286 383.243 95.7068 381.667 94.2969 381.418C92.887 381.087 89.3208 380.672 89.3208 380.672C89.3208 380.672 88.2426 381.17 87.3303 381.004C86.3351 380.921 85.174 379.76 85.174 379.76V378.184L85.0081 377.52L86.8327 377.354L88.4085 377.52L88.9061 377.189L89.1549 375.281V376.11L90.7307 376.276C90.7307 376.276 91.4771 375.447 91.6429 375.115C91.6429 374.784 92.5552 373.539 92.5552 373.539C92.5552 373.539 93.6334 372.295 93.3846 371.3C93.1358 370.388 92.9699 369.807 92.9699 369.807L92.7211 368.48C92.7211 368.48 88.989 365.412 88.0767 365.412C87.1644 365.412 85.6716 366.49 85.5887 366.905C85.5887 367.319 84.8423 368.563 84.3447 368.398C83.847 368.232 82.9348 367.734 82.9348 367.734L81.2761 366.905L80.1979 366.407L78.2904 365.661H77.3781C77.3781 365.661 74.8901 365.495 74.6413 364.665C74.4754 363.919 74.6413 362.758 74.6413 362.758L73.646 359.938L73.1484 358.777L73.5631 357.948L73.0655 356.455C73.0655 356.455 74.6413 355.128 74.6413 354.63C74.6413 354.133 74.973 353.303 73.646 353.386L71.8215 354.299L70.3286 353.386H69.1675L67.7576 354.63L69.0846 352.972L68.7529 351.976L65.8501 351.479C65.8501 351.479 65.1037 351.147 64.9379 353.055H60.5423C60.5423 353.055 59.1324 353.718 58.9665 353.967C58.8007 354.216 58.0542 355.791 58.0542 355.791L57.8054 356.787L56.3955 357.865L56.0638 358.777V359.275L55.5662 359.855V361.182L53.0781 360.85L52.2488 361.182L50.673 358.114C50.673 358.114 49.429 357.948 49.0973 358.528C48.7655 359.109 46.6092 358.528 46.6921 359.772C46.6921 361.016 47.6874 361.763 47.6874 361.763L46.3604 362.26L45.8628 363.504H43.3747L42.5454 363.753L42.8771 362.094C42.8771 362.094 42.4625 361.265 41.1355 361.099C39.7256 360.933 39.4768 361.431 39.4768 361.431L39.1451 362.509L38.8133 362.094L37.901 361.763C37.901 361.763 36.8229 361.763 36.9887 362.841C37.1546 363.67 38.0669 364.251 38.0669 364.251L38.5645 365.329L37.901 366.241L36.9887 366.988L37.8181 368.398L36.4082 366.573C36.2423 366.407 35.9935 364.997 35.1642 364.997C34.3348 364.997 33.8372 365.412 33.8372 365.412C33.8372 365.412 33.3396 364.002 32.2614 363.836C31.1833 363.67 30.1881 364.417 30.1051 364.748C30.1051 364.831 30.1051 365.08 29.9393 365.246C29.9393 365.08 27.2853 364.583 26.3731 364.5C26.3731 364.5 25.3778 365.744 25.129 366.075C24.9632 366.324 24.6314 367.734 25.129 368.066C25.6266 368.398 26.6219 368.315 26.8707 368.066C27.1195 367.817 27.5341 367.236 27.5341 367.236C27.5341 367.236 29.8563 365.412 29.8563 365.246V365.661L30.0222 366.324L30.6857 366.988L30.0222 367.9C30.0222 367.9 28.7782 369.061 28.7782 369.476C28.7782 369.89 29.1928 370.554 29.1928 370.554L30.6027 370.803C30.6027 370.803 31.1003 372.213 31.3492 372.627C31.598 373.042 33.4225 373.374 33.4225 373.374C33.4225 373.374 34.6666 374.12 34.6666 374.618V376.193C34.6666 376.193 34.9154 376.857 36.3253 377.106C37.1546 377.272 37.3205 378.184 37.3205 378.184V379.428L37.1546 382.082L38.0669 383.492L38.2328 384.404L35.2471 383.326L34.0031 382.496V381.087C34.0031 381.087 35.1642 380.506 35.0812 379.76C35.0812 379.013 34.2519 378.018 34.2519 378.018L33.6713 377.603L33.4225 376.276C33.4225 376.276 32.6761 374.535 31.7638 374.618C30.8515 374.618 30.6857 375.198 30.6857 375.198L30.5198 376.442L30.1881 376.608L29.7734 378.184L29.2758 378.433L29.027 380.174L29.3587 381.252C29.3587 381.252 30.271 383.575 30.8515 384.072C31.515 384.57 32.3444 384.819 32.3444 384.819L31.9297 386.56C31.9297 386.56 32.3444 387.97 32.9249 387.97C33.5055 387.97 33.9201 387.804 33.9201 387.804L31.7638 390.126C31.7638 390.126 31.4321 391.868 32.6761 391.868C33.9201 391.868 35.33 389.878 35.33 389.878C35.33 389.878 36.4911 388.053 36.8229 388.053C37.1546 388.053 38.2328 387.97 38.2328 387.97L38.8133 387.721L40.1403 387.97L41.1355 387.638L42.1307 388.136L43.3747 388.468L43.5406 388.882L41.1355 391.039L40.8038 391.868L41.1355 392.78V393.942C41.1355 393.942 40.9696 395.103 42.7113 394.688C43.6235 394.522 44.5358 394.107 44.5358 394.107H45.6969L46.4433 393.859C46.4433 393.859 47.7703 393.776 48.102 392.78C48.4338 391.868 48.5167 390.956 48.5167 390.956C48.5167 390.956 49.2631 390.624 49.3461 389.38C49.3461 388.136 49.0973 387.224 49.0973 387.224C49.0973 387.224 49.0973 386.394 48.0191 386.311C46.9409 386.229 46.6092 386.146 46.6092 386.146L45.9457 385.399L42.3795 385.067C42.3795 385.067 44.8676 383.658 44.8676 383.326C44.8676 382.994 44.7017 381.916 44.7017 381.916C44.7017 381.916 45.4481 380.838 45.614 380.423C45.7799 380.008 45.4481 379.345 45.4481 379.345L45.1164 378.847V377.437L45.3652 377.106C45.3652 377.106 48.185 375.032 48.4338 375.032C48.6826 375.032 50.4242 377.189 50.4242 377.189L51.917 379.843V382.579L51.2536 383.823V384.902L55.2345 390.292L54.571 392.615L51.5024 394.522C51.5024 394.522 48.8485 396.513 49.1802 397.425C49.5949 397.757 54.8198 396.678 54.8198 396.678L52.1659 399.166L51.4194 403.23L47.9362 406.133L44.1212 409.782L41.799 411.69L39.8085 410.529C39.8085 410.529 38.2328 411.026 38.1498 411.358C38.0669 411.69 37.6522 413.929 37.6522 413.929L37.984 414.509L37.7352 416.832L38.3157 418.076C38.3157 418.076 36.1594 420.647 36.0765 420.978C36.0765 421.31 35.7447 421.642 37.8181 424.545C38.3986 425.789 38.7304 427.613 38.7304 427.613L39.0621 429.604L35.9935 434.58L33.2567 434.414C33.2567 434.414 32.1785 434.082 32.7591 436.073C33.5055 436.985 33.5055 437.399 33.5055 437.399L33.7543 438.561L33.5884 439.97C33.5884 439.97 33.5884 441.049 34.9154 441.297C36.3253 441.546 40.2232 441.961 40.2232 441.961C40.2232 441.961 41.4672 444.615 41.799 445.029C42.1307 445.444 43.6235 445.942 44.7846 445.278C45.9457 444.615 46.1945 444.2 46.1945 444.2C46.1945 444.2 46.6921 443.785 46.6921 443.205C46.6921 442.624 46.6921 440.883 44.9505 440.717L44.37 440.219L44.6188 438.312L44.287 437.482V434.248L46.7751 430.765L47.7703 430.018L48.102 428.36C48.102 428.36 48.8485 427.033 50.4242 427.198C51.3365 427.447 53.7416 430.682 53.5757 430.931C53.4099 431.179 51.2536 433.17 51.2536 433.17L50.5072 432.838L48.9314 433.999L48.5996 436.736L51.0877 441.38L50.4242 443.205L49.6778 443.785L49.1802 444.698L48.6826 446.191L48.185 447.352C48.185 447.352 45.8628 448.347 45.614 448.596C45.4481 448.845 44.37 451.664 45.9457 451.581C47.5215 451.498 55.4833 448.43 55.815 448.015C56.0638 447.683 56.4785 446.439 56.4785 446.439H57.5566C57.5566 446.439 60.1276 444.698 60.3764 443.785C60.5423 442.707 58.9665 441.463 58.6348 441.463C58.303 441.463 58.6348 440.551 58.6348 440.551C58.6348 440.551 59.8788 439.39 60.7082 439.39C61.5375 439.39 62.201 439.556 62.201 439.556L65.6843 443.371C65.6843 443.371 67.1771 444.532 68.0065 443.039C68.5041 441.546 69.0846 440.053 69.0846 440.053L69.7481 437.648L72.3191 435.492L73.3972 433.667L74.3095 427.779L75.1389 426.95L75.7194 422.388L76.5488 420.895L78.6221 417.91L78.8709 416.583L79.3686 416.251L79.8662 414.924L80.1979 413.929L83.6812 410.694L84.0129 409.616L83.5153 408.87L84.9252 407.709L85.4228 405.055L91.3112 400.991C91.3112 400.991 91.8917 400.576 91.3112 399.581C90.7307 398.835 91.1453 398.752 91.1453 398.752L92.4723 398.586L93.2187 398.171L94.3798 398.669L94.7945 397.259L96.2873 395.932L96.5361 393.195L94.9603 392.449L94.2139 391.619V391.039Z" stroke="black" stroke-width="0.5" stroke-linecap="round" stroke-linejoin="round"/>
<path d="M38.5648 469.744C38.5648 469.744 36.6573 468.334 36.2426 468.085C36.2426 468.085 33.0081 468.334 32.1788 469.412C31.6812 470.491 31.6812 471.983 31.6812 471.983L32.1788 474.306L33.9204 476.462L36.2426 476.959L37.8183 475.964L40.4723 474.471C40.4723 474.471 41.1357 472.564 40.8869 472.149C40.6381 471.652 38.5648 469.827 38.5648 469.827" stroke="black" stroke-width="0.5" stroke-linecap="round" stroke-linejoin="round"/>
<path d="M38.5648 469.744C38.5648 469.744 36.6573 468.334 36.2426 468.085C36.2426 468.085 33.0081 468.334 32.1788 469.412C31.6812 470.491 31.6812 471.983 31.6812 471.983L32.1788 474.306L33.9204 476.462L36.2426 476.959L37.8183 475.964L40.4723 474.471C40.4723 474.471 41.1357 472.564 40.8869 472.149C40.6381 471.652 38.5648 469.827 38.5648 469.827V469.744Z" stroke="black" stroke-width="0.5" stroke-linecap="round" stroke-linejoin="round"/>
<path d="M53.9078 459.958C52.2491 459.958 52.9126 461.036 52.9126 461.036L51.0051 462.612L50.0098 463.524L49.5122 465.349L49.0146 469.164L46.6095 470.573L46.1948 473.476C46.1948 473.476 46.8583 475.384 47.8535 475.301C48.8487 475.301 49.5122 474.14 49.5122 474.14L50.0098 471.818L51.5856 469.827L52.1661 468.832L52.8296 467.671L53.9078 466.676V465.183L54.8201 464.685L55.4006 461.119C55.4006 461.119 55.4006 460.041 53.8249 460.041" stroke="black" stroke-width="0.5" stroke-linecap="round" stroke-linejoin="round"/>
<path d="M53.9078 459.958C52.2491 459.958 52.9126 461.036 52.9126 461.036L51.0051 462.612L50.0098 463.524L49.5122 465.349L49.0146 469.164L46.6095 470.573L46.1948 473.476C46.1948 473.476 46.8583 475.384 47.8535 475.301C48.8487 475.301 49.5122 474.14 49.5122 474.14L50.0098 471.818L51.5856 469.827L52.1661 468.832L52.8296 467.671L53.9078 466.676V465.183L54.8201 464.685L55.4006 461.119C55.4006 461.119 55.4006 460.041 53.8249 460.041H53.9078V459.958Z" stroke="black" stroke-width="0.5" stroke-linecap="round" stroke-linejoin="round"/>
<path d="M178.891 372.71L176.569 369.559L177.564 367.651C177.564 367.651 178.476 366.573 179.057 365.661C179.554 364.748 177.564 364.002 177.564 364.002V363.173C177.564 363.007 177.066 362.675 176.569 362.426C176.071 362.26 175.325 362.758 175.325 362.758L173.5 362.426C173.5 362.426 172.837 363.007 172.588 362.426C172.339 361.846 169.188 359.938 169.188 359.938V357.782C169.188 356.87 167.944 356.206 167.612 356.206C167.28 356.206 166.202 356.87 166.202 356.87V355.957C166.202 355.957 165.621 355.708 164.958 355.543C164.377 355.377 163.465 356.04 163.133 356.04C162.802 356.04 161.309 355.211 161.309 355.211L159.069 354.547L156.913 355.708L155.006 356.787L154.093 357.201L151.439 358.777C151.439 358.777 150.693 358.611 150.278 358.611C149.864 358.611 149.698 359.855 149.698 359.855L149.034 361.099L147.873 363.504V364.914L145.551 366.158L144.39 365.578L143.063 365.246L142.234 364.583L139.248 364.417L138.502 364.583H137.589L136.677 364.997L135.599 365.246C135.599 365.246 134.355 365.661 134.023 365.495C133.691 365.329 133.691 363.919 133.691 363.919L133.443 363.173L132.779 361.929L131.867 361.265V360.187C131.867 360.187 131.701 358.943 131.12 358.197C130.623 357.533 129.545 357.616 129.13 357.533C128.632 357.533 129.13 359.026 129.13 359.026V360.104H126.891C126.891 360.104 125.647 360.519 125.232 360.519C124.817 360.519 123.656 361.846 123.656 361.846L122.993 362.924L122.412 364.583L121.915 366.158L121.085 367.734L119.841 370.056L118.846 371.134L117.104 371.798L115.777 372.544L114.119 372.959L112.128 373.705L109.474 375.032C109.474 375.032 108.894 374.701 108.064 375.53C107.235 376.442 108.064 377.52 108.064 377.52L109.308 377.686L110.884 378.184C110.221 378.184 109.806 379.677 109.64 380.091C109.474 380.506 110.304 381.087 110.138 381.418C110.055 381.75 110.138 382.662 110.138 382.662L113.041 383.409L113.206 384.819C113.206 384.819 113.87 385.814 113.87 385.98C113.87 386.146 110.884 388.468 110.801 388.634C110.718 388.8 110.967 389.712 110.967 389.712L110.387 390.209L110.138 392.946L111.299 395.103V396.347L112.543 396.761C112.543 396.761 112.709 397.591 113.372 397.674C114.036 397.839 115.197 397.259 115.28 397.259L116.192 398.835C116.192 398.835 115.694 399.083 115.114 399.001C114.616 399.001 113.704 400.659 113.455 401.157C113.206 401.654 114.202 402.567 114.45 402.65C114.699 402.65 115.529 402.318 115.694 402.235C115.86 402.235 116.938 403.479 116.938 403.479C116.938 403.479 117.353 404.06 118.514 404.474C119.675 404.889 120.339 403.894 120.339 403.894C120.339 403.894 121.251 404.225 122.246 404.225C123.242 404.225 123.407 402.898 123.407 402.898V402.567L123.573 402.152L124.983 401.074L125.647 397.01H127.388C127.388 397.01 127.969 396.678 128.383 396.513C128.715 396.347 130.208 394.024 130.208 394.024L131.452 392.697C131.452 392.697 132.862 392.697 133.194 392.532C133.525 392.532 133.36 391.619 133.36 391.453C133.36 391.288 134.604 390.458 134.604 390.458L134.852 387.39L134.604 386.643L136.014 385.482C136.014 385.482 136.428 386.063 136.926 386.146C137.423 386.146 137.589 384.902 137.589 384.902L139.58 384.404L140.492 384.155L141.404 383.741L142.731 383.575C142.731 383.575 143.892 383.575 144.307 383.326C144.805 383.16 144.722 382.165 144.722 382.165C144.722 382.165 145.385 382.828 145.8 382.994C146.215 383.16 147.127 382.165 147.127 382.165L149.117 382.662L149.947 382.248L150.776 382.745L151.688 383.658C151.688 383.658 152.849 384.57 153.181 384.736C153.513 384.902 155.669 386.726 155.669 386.726C155.669 386.726 159.733 394.273 160.479 394.356C161.226 394.522 162.387 392.366 162.387 392.366L162.884 391.951L163.216 390.458L163.714 389.214L164.626 388.053L165.207 386.477L166.036 386.063L166.202 384.819L167.778 383.409L168.441 382.828L171.012 381.17L173.583 380.257C173.583 380.257 176.901 379.096 178.808 378.516C180.716 377.935 178.808 376.193 178.808 376.193L177.481 375.779C177.481 375.779 178.974 375.032 179.72 374.203C180.467 373.374 179.389 372.461 179.389 372.461" stroke="black" stroke-width="0.5" stroke-linecap="round" stroke-linejoin="round"/>
<path d="M178.891 372.71L176.569 369.559L177.564 367.651C177.564 367.651 178.476 366.573 179.057 365.661C179.554 364.748 177.564 364.002 177.564 364.002V363.173C177.564 363.007 177.066 362.675 176.569 362.426C176.071 362.26 175.325 362.758 175.325 362.758L173.5 362.426C173.5 362.426 172.837 363.007 172.588 362.426C172.339 361.846 169.188 359.938 169.188 359.938V357.782C169.188 356.87 167.944 356.206 167.612 356.206C167.28 356.206 166.202 356.87 166.202 356.87V355.957C166.202 355.957 165.621 355.708 164.958 355.543C164.377 355.377 163.465 356.04 163.133 356.04C162.802 356.04 161.309 355.211 161.309 355.211L159.069 354.547L156.913 355.708L155.006 356.787L154.093 357.201L151.439 358.777C151.439 358.777 150.693 358.611 150.278 358.611C149.864 358.611 149.698 359.855 149.698 359.855L149.034 361.099L147.873 363.504V364.914L145.551 366.158L144.39 365.578L143.063 365.246L142.234 364.583L139.248 364.417L138.502 364.583H137.589L136.677 364.997L135.599 365.246C135.599 365.246 134.355 365.661 134.023 365.495C133.691 365.329 133.691 363.919 133.691 363.919L133.443 363.173L132.779 361.929L131.867 361.265V360.187C131.867 360.187 131.701 358.943 131.12 358.197C130.623 357.533 129.545 357.616 129.13 357.533C128.632 357.533 129.13 359.026 129.13 359.026V360.104H126.891C126.891 360.104 125.647 360.519 125.232 360.519C124.817 360.519 123.656 361.846 123.656 361.846L122.993 362.924L122.412 364.583L121.915 366.158L121.085 367.734L119.841 370.056L118.846 371.134L117.104 371.798L115.777 372.544L114.119 372.959L112.128 373.705L109.474 375.032C109.474 375.032 108.894 374.701 108.064 375.53C107.235 376.442 108.064 377.52 108.064 377.52L109.308 377.686L110.884 378.184C110.221 378.184 109.806 379.677 109.64 380.091C109.474 380.506 110.304 381.087 110.138 381.418C110.055 381.75 110.138 382.662 110.138 382.662L113.041 383.409L113.206 384.819C113.206 384.819 113.87 385.814 113.87 385.98C113.87 386.146 110.884 388.468 110.801 388.634C110.718 388.8 110.967 389.712 110.967 389.712L110.387 390.209L110.138 392.946L111.299 395.103V396.347L112.543 396.761C112.543 396.761 112.709 397.591 113.372 397.674C114.036 397.839 115.197 397.259 115.28 397.259L116.192 398.835C116.192 398.835 115.694 399.083 115.114 399.001C114.616 399.001 113.704 400.659 113.455 401.157C113.206 401.654 114.202 402.567 114.45 402.65C114.699 402.65 115.529 402.318 115.694 402.235C115.86 402.235 116.938 403.479 116.938 403.479C116.938 403.479 117.353 404.06 118.514 404.474C119.675 404.889 120.339 403.894 120.339 403.894C120.339 403.894 121.251 404.225 122.246 404.225C123.242 404.225 123.407 402.898 123.407 402.898V402.567L123.573 402.152L124.983 401.074L125.647 397.01H127.388C127.388 397.01 127.969 396.678 128.383 396.513C128.715 396.347 130.208 394.024 130.208 394.024L131.452 392.697C131.452 392.697 132.862 392.697 133.194 392.532C133.525 392.532 133.36 391.619 133.36 391.453C133.36 391.288 134.604 390.458 134.604 390.458L134.852 387.39L134.604 386.643L136.014 385.482C136.014 385.482 136.428 386.063 136.926 386.146C137.423 386.146 137.589 384.902 137.589 384.902L139.58 384.404L140.492 384.155L141.404 383.741L142.731 383.575C142.731 383.575 143.892 383.575 144.307 383.326C144.805 383.16 144.722 382.165 144.722 382.165C144.722 382.165 145.385 382.828 145.8 382.994C146.215 383.16 147.127 382.165 147.127 382.165L149.117 382.662L149.947 382.248L150.776 382.745L151.688 383.658C151.688 383.658 152.849 384.57 153.181 384.736C153.513 384.902 155.669 386.726 155.669 386.726C155.669 386.726 159.733 394.273 160.479 394.356C161.226 394.522 162.387 392.366 162.387 392.366L162.884 391.951L163.216 390.458L163.714 389.214L164.626 388.053L165.207 386.477L166.036 386.063L166.202 384.819L167.778 383.409L168.441 382.828L171.012 381.17L173.583 380.257C173.583 380.257 176.901 379.096 178.808 378.516C180.716 377.935 178.808 376.193 178.808 376.193L177.481 375.779C177.481 375.779 178.974 375.032 179.72 374.203C180.467 373.374 179.389 372.461 179.389 372.461L178.891 372.71Z" stroke="black" stroke-width="0.5" stroke-linecap="round" stroke-linejoin="round"/>
<path d="M169.436 354.382C169.768 354.464 170.432 354.299 170.432 354.299C170.598 354.464 170.68 355.211 171.344 355.294C172.007 355.377 172.422 354.879 172.422 354.879L172.671 353.303C172.671 353.303 173.086 352.972 173.169 352.142C173.334 351.396 173.003 350.898 173.003 350.898L170.763 350.401C170.763 350.401 170.1 350.401 169.022 350.732C167.778 351.313 168.109 352.972 168.109 352.972C168.109 352.972 169.105 354.133 169.436 354.216" stroke="black" stroke-width="0.5" stroke-linecap="round" stroke-linejoin="round"/>
<path d="M169.436 354.382C169.768 354.464 170.432 354.299 170.432 354.299C170.598 354.464 170.68 355.211 171.344 355.294C172.007 355.377 172.422 354.879 172.422 354.879L172.671 353.303C172.671 353.303 173.086 352.972 173.169 352.142C173.334 351.396 173.003 350.898 173.003 350.898L170.763 350.401C170.763 350.401 170.1 350.401 169.022 350.732C167.778 351.313 168.109 352.972 168.109 352.972C168.109 352.972 169.105 354.133 169.436 354.216V354.382Z" stroke="black" stroke-width="0.5" stroke-linecap="round" stroke-linejoin="round"/>
<path d="M142.317 290.77C142.897 291.019 144.39 291.185 144.39 291.185L145.219 289.692L146.546 289.36C146.546 289.36 147.293 287.95 147.293 287.37C147.293 286.789 145.966 283.97 144.639 283.97C143.312 283.97 141.819 285.462 141.736 285.794C141.736 286.126 141.073 287.536 141.239 287.868C141.404 288.199 141.653 290.439 142.234 290.604" stroke="black" stroke-width="0.5" stroke-linecap="round" stroke-linejoin="round"/>
<path d="M142.317 290.77C142.897 291.019 144.39 291.185 144.39 291.185L145.219 289.692L146.546 289.36C146.546 289.36 147.293 287.95 147.293 287.37C147.293 286.789 145.966 283.97 144.639 283.97C143.312 283.97 141.819 285.462 141.736 285.794C141.736 286.126 141.073 287.536 141.239 287.868C141.404 288.199 141.653 290.439 142.234 290.604V290.77H142.317Z" stroke="black" stroke-width="0.5" stroke-linecap="round" stroke-linejoin="round"/>
<path d="M134.437 297.405L134.852 296.078L136.428 297.405L139.414 297.322L138.17 294.751L137.506 293.424L138.584 290.604L137.257 291.848L134.852 293.507L133.276 294.585L131.618 297.405L133.276 298.898L134.437 297.405Z" stroke="black" stroke-width="0.5" stroke-linecap="round" stroke-linejoin="round"/>
<path d="M134.437 297.405L134.852 296.078L136.428 297.405L139.414 297.322L138.17 294.751L137.506 293.424L138.584 290.604L137.257 291.848L134.852 293.507L133.276 294.585L131.618 297.405L133.276 298.898L134.437 297.405Z" stroke="black" stroke-width="0.5" stroke-linecap="round" stroke-linejoin="round"/>
<path d="M140.575 295.912L139.414 298.898L142.482 297.322L143.063 294.751L142.482 293.424L139.414 292.761L140.077 294.751L140.575 295.912Z" stroke="black" stroke-width="0.5" stroke-linecap="round" stroke-linejoin="round"/>
<path d="M140.575 295.912L139.414 298.898L142.482 297.322L143.063 294.751L142.482 293.424L139.414 292.761L140.077 294.751L140.575 295.912Z" stroke="black" stroke-width="0.5" stroke-linecap="round" stroke-linejoin="round"/>
<path d="M137.506 300.059L134.852 298.898L133.774 300.059L135.516 302.298V301.552L137.672 302.713H139.414V301.718L140.492 300.059L138.584 301.054L137.506 300.059Z" stroke="black" stroke-width="0.5" stroke-linecap="round" stroke-linejoin="round"/>
<path d="M137.506 300.059L134.852 298.898L133.774 300.059L135.516 302.298V301.552L137.672 302.713H139.414V301.718L140.492 300.059L138.584 301.054L137.506 300.059Z" stroke="black" stroke-width="0.5" stroke-linecap="round" stroke-linejoin="round"/>
<path d="M111.05 350.898L110.801 351.064L111.05 350.898Z" stroke="black" stroke-width="0.5" stroke-linecap="round" stroke-linejoin="round"/>
<path d="M111.05 350.898L110.801 351.064L111.05 350.898Z" stroke="black" stroke-width="0.5" stroke-linecap="round" stroke-linejoin="round"/>
<path d="M118.265 358.031C120.007 357.533 120.007 355.957 120.007 355.957C120.007 355.957 118.929 354.05 118.514 354.05C118.1 354.05 117.104 354.464 117.104 355.294V356.704C117.104 356.704 116.607 358.528 118.348 358.031" stroke="black" stroke-width="0.5" stroke-linecap="round" stroke-linejoin="round"/>
<path d="M118.265 358.031C120.007 357.533 120.007 355.957 120.007 355.957C120.007 355.957 118.929 354.05 118.514 354.05C118.1 354.05 117.104 354.464 117.104 355.294V356.704C117.104 356.704 116.607 358.528 118.348 358.031H118.265Z" stroke="black" stroke-width="0.5" stroke-linecap="round" stroke-linejoin="round"/>
<path d="M134.437 355.294C134.935 354.299 135.101 353.303 134.437 353.303C133.774 353.303 132.447 353.303 132.115 354.05C132.115 354.05 131.286 355.874 131.784 355.874C132.281 355.874 133.94 356.372 134.437 355.377" stroke="black" stroke-width="0.5" stroke-linecap="round" stroke-linejoin="round"/>
<path d="M134.437 355.294C134.935 354.299 135.101 353.303 134.437 353.303C133.774 353.303 132.447 353.303 132.115 354.05C132.115 354.05 131.286 355.874 131.784 355.874C132.281 355.874 133.94 356.372 134.437 355.377V355.294Z" stroke="black" stroke-width="0.5" stroke-linecap="round" stroke-linejoin="round"/>
<path d="M110.304 363.09C110.304 363.09 111.05 363.256 111.05 362.426C111.05 361.597 110.055 360.021 109.142 359.938C108.23 359.938 107.567 360.933 107.567 360.933C107.567 360.933 106.654 363.919 108.064 363.836C109.474 363.67 110.386 363.09 110.386 363.09" stroke="black" stroke-width="0.5" stroke-linecap="round" stroke-linejoin="round"/>
<path d="M110.304 363.09C110.304 363.09 111.05 363.256 111.05 362.426C111.05 361.597 110.055 360.021 109.142 359.938C108.23 359.938 107.567 360.933 107.567 360.933C107.567 360.933 106.654 363.919 108.064 363.836C109.474 363.67 110.386 363.09 110.386 363.09H110.304Z" stroke="black" stroke-width="0.5" stroke-linecap="round" stroke-linejoin="round"/>
<path d="M191.912 353.469C191.912 353.137 191.165 352.723 190.502 352.889L180.716 359.855C180.716 359.855 180.135 361.016 180.052 361.68C179.969 362.343 180.052 363.173 180.301 363.173C180.55 363.173 181.296 363.504 181.462 363.173C181.628 362.841 181.13 364.417 181.13 364.417C181.13 364.417 181.296 365.661 181.877 365.578C182.457 365.578 183.452 365.246 183.452 365.246L187.931 363.919C187.931 363.919 188.429 363.256 188.511 362.841C188.511 362.426 188.18 361.514 188.18 361.514V360.187L187.931 359.938L187.682 358.196L189.258 357.118L189.424 356.289L191.663 354.381C191.663 354.381 191.912 353.635 191.912 353.303" stroke="black" stroke-width="0.5" stroke-linecap="round" stroke-linejoin="round"/>
<path d="M191.912 353.469C191.912 353.137 191.165 352.723 190.502 352.889L180.716 359.855C180.716 359.855 180.135 361.016 180.052 361.68C179.969 362.343 180.052 363.173 180.301 363.173C180.55 363.173 181.296 363.504 181.462 363.173C181.628 362.841 181.13 364.417 181.13 364.417C181.13 364.417 181.296 365.661 181.877 365.578C182.457 365.578 183.452 365.246 183.452 365.246L187.931 363.919C187.931 363.919 188.429 363.256 188.511 362.841C188.511 362.426 188.18 361.514 188.18 361.514V360.187L187.931 359.938L187.682 358.196L189.258 357.118L189.424 356.289L191.663 354.381C191.663 354.381 191.912 353.635 191.912 353.303V353.469Z" stroke="black" stroke-width="0.5" stroke-linecap="round" stroke-linejoin="round"/>
<path d="M298.152 256.021C299.976 255.772 300.557 255.855 300.888 255.606C301.22 255.44 305.865 252.703 305.865 252.703L306.03 251.044L306.86 249.635C306.86 249.635 307.44 248.556 307.44 248.225C307.44 247.893 305.948 246.898 304.703 246.732C303.459 246.649 304.621 244.99 304.621 244.99C304.621 244.99 305.367 243.995 305.45 243.663C305.45 243.331 305.699 242.585 305.699 242.585C305.699 242.585 306.777 241.341 306.611 239.765C306.611 239.185 305.284 239.185 304.621 239.765C304.621 239.765 299.893 244.078 299.313 244.741C298.815 245.488 298.317 248.308 298.317 248.722C298.317 249.137 299.976 249.966 300.225 250.215C300.474 250.464 300.142 251.127 300.142 251.127L297.488 253.698C297.488 253.698 296.327 256.269 298.152 255.938" stroke="black" stroke-width="0.5" stroke-linecap="round" stroke-linejoin="round"/>
<path d="M298.152 256.021C299.976 255.772 300.557 255.855 300.888 255.606C301.22 255.44 305.865 252.703 305.865 252.703L306.03 251.044L306.86 249.635C306.86 249.635 307.44 248.556 307.44 248.225C307.44 247.893 305.948 246.898 304.703 246.732C303.459 246.649 304.621 244.99 304.621 244.99C304.621 244.99 305.367 243.995 305.45 243.663C305.45 243.331 305.699 242.585 305.699 242.585C305.699 242.585 306.777 241.341 306.611 239.765C306.611 239.185 305.284 239.185 304.621 239.765C304.621 239.765 299.893 244.078 299.313 244.741C298.815 245.488 298.317 248.308 298.317 248.722C298.317 249.137 299.976 249.966 300.225 250.215C300.474 250.464 300.142 251.127 300.142 251.127L297.488 253.698C297.488 253.698 296.327 256.269 298.152 255.938V256.021Z" stroke="black" stroke-width="0.5" stroke-linecap="round" stroke-linejoin="round"/>
<path d="M502.669 84.4279L499.269 82.8521L500.513 81.0275L499.435 80.1152L496.366 71.3241L494.21 68.2555L495.288 61.7866L496.698 59.7962C496.698 59.7962 502.42 51.3368 502.586 50.0928C502.835 48.8487 502.171 47.4388 501.342 47.6047C500.513 47.7706 499.932 48.8487 499.932 48.8487L486.663 60.8743C486.663 60.8743 479.613 59.2156 477.54 58.718C475.466 58.2204 475.632 55.0689 475.135 54.3224C474.72 53.4931 473.725 53.4102 473.725 53.4102C473.725 53.4102 471.568 56.8105 470.905 56.4788C470.241 56.23 471.651 52.4149 471.651 52.4149L468.002 51.9173L467.09 54.2395L461.865 52.8296L459.377 48.1853L444.697 35.6621L436.653 24.3829L432.34 15.26L422.803 2.73686C422.803 2.73686 422.803 0.746414 421.89 0.746414C420.978 0.746414 417.246 5.05904 417.246 5.05904C417.246 5.05904 417.08 3.48327 414.924 3.48327C412.767 3.48327 410.777 11.6938 410.777 11.6938L413.68 21.3972L414.592 31.5982L413.182 33.0081V36.989L410.279 40.2235L408.869 50.0928L409.616 53.8248C409.616 53.8248 405.884 56.7276 403.893 57.5569C398.668 60.6255 400.493 62.9477 400.493 62.9477L401.571 75.1391L395.102 80.5299L390.624 76.7978L385.233 77.5443L381.252 72.4852C381.252 72.4852 377.686 70.4948 375.695 71.4071C373.705 72.3194 374.12 77.4613 374.12 77.4613L377.852 83.5156L370.885 91.0627L368.563 88.9064C368.563 88.9064 365.163 92.8872 362.26 93.0531C359.357 93.219 357.947 97.1999 357.947 97.1999L358.86 100.766C358.86 100.766 357.284 103.088 356.372 105.41C355.459 107.733 358.943 109.557 358.943 109.557V112.211L362.26 113.621L363.67 117.602L364.002 122.578C364.002 122.578 360.021 127.056 358.943 131.535C357.864 136.013 364.167 138.004 364.167 138.004L365.743 136.013L370.553 134.023L370.885 129.379L375.364 127.969L377.188 125.481L380.589 127.471L385.067 130.374L390.955 126.642L389.711 124.154L384.487 121.5L380.92 115.446L375.364 114.036L369.641 109.557V107.401L371.797 102.176L375.032 98.7756H380.257L385.233 105.245V107.401L389.214 108.645L399.083 101.844L404.806 100.268L411.772 102.922L424.461 113.289L436.984 120.09C436.984 120.09 442.873 127.969 444.863 127.803C446.854 127.637 447.02 118.265 447.02 118.265L446.273 116.109L451.083 108.064L464.021 95.707L472.812 92.6384C472.812 92.6384 477.706 96.1217 483.428 95.707L485.916 91.2285L486.994 93.3849L490.975 94.6289L495.288 88.7405H504.991L506.401 84.5937C506.401 84.5937 511.543 82.0228 510.714 80.8617C509.884 79.7006 502.503 84.5937 502.503 84.5937" stroke="black" stroke-width="0.5" stroke-linecap="round" stroke-linejoin="round"/>
<path d="M502.669 84.4279L499.269 82.8521L500.513 81.0275L499.435 80.1152L496.366 71.3241L494.21 68.2555L495.288 61.7866L496.698 59.7962C496.698 59.7962 502.42 51.3368 502.586 50.0928C502.835 48.8487 502.171 47.4388 501.342 47.6047C500.513 47.7706 499.932 48.8487 499.932 48.8487L486.663 60.8743C486.663 60.8743 479.613 59.2156 477.54 58.718C475.466 58.2204 475.632 55.0689 475.135 54.3224C474.72 53.4931 473.725 53.4102 473.725 53.4102C473.725 53.4102 471.568 56.8105 470.905 56.4788C470.241 56.23 471.651 52.4149 471.651 52.4149L468.002 51.9173L467.09 54.2395L461.865 52.8296L459.377 48.1853L444.697 35.6621L436.653 24.3829L432.34 15.26L422.803 2.73686C422.803 2.73686 422.803 0.746414 421.89 0.746414C420.978 0.746414 417.246 5.05904 417.246 5.05904C417.246 5.05904 417.08 3.48327 414.924 3.48327C412.767 3.48327 410.777 11.6938 410.777 11.6938L413.68 21.3972L414.592 31.5982L413.182 33.0081V36.989L410.279 40.2235L408.869 50.0928L409.616 53.8248C409.616 53.8248 405.884 56.7276 403.893 57.5569C398.668 60.6255 400.493 62.9477 400.493 62.9477L401.571 75.1391L395.102 80.5299L390.624 76.7978L385.233 77.5443L381.252 72.4852C381.252 72.4852 377.686 70.4948 375.695 71.4071C373.705 72.3194 374.12 77.4613 374.12 77.4613L377.852 83.5156L370.885 91.0627L368.563 88.9064C368.563 88.9064 365.163 92.8872 362.26 93.0531C359.357 93.219 357.947 97.1999 357.947 97.1999L358.86 100.766C358.86 100.766 357.284 103.088 356.372 105.41C355.459 107.733 358.943 109.557 358.943 109.557V112.211L362.26 113.621L363.67 117.602L364.002 122.578C364.002 122.578 360.021 127.056 358.943 131.535C357.864 136.013 364.167 138.004 364.167 138.004L365.743 136.013L370.553 134.023L370.885 129.379L375.364 127.969L377.188 125.481L380.589 127.471L385.067 130.374L390.955 126.642L389.711 124.154L384.487 121.5L380.92 115.446L375.364 114.036L369.641 109.557V107.401L371.797 102.176L375.032 98.7756H380.257L385.233 105.245V107.401L389.214 108.645L399.083 101.844L404.806 100.268L411.772 102.922L424.461 113.289L436.984 120.09C436.984 120.09 442.873 127.969 444.863 127.803C446.854 127.637 447.02 118.265 447.02 118.265L446.273 116.109L451.083 108.064L464.021 95.707L472.812 92.6384C472.812 92.6384 477.706 96.1217 483.428 95.707L485.916 91.2285L486.994 93.3849L490.975 94.6289L495.288 88.7405H504.991L506.401 84.5937C506.401 84.5937 511.543 82.0228 510.714 80.8617C509.884 79.7006 502.503 84.5937 502.503 84.5937L502.669 84.4279Z" stroke="black" stroke-width="0.5" stroke-linecap="round" stroke-linejoin="round"/>
<path d="M350.732 107.567H347.166V112.958C348.41 112.46 349.654 111.382 349.654 111.382L350.732 107.65V107.567Z" stroke="black" stroke-width="0.5" stroke-linecap="round" stroke-linejoin="round"/>
<path d="M350.732 107.567H347.166V112.958C348.41 112.46 349.654 111.382 349.654 111.382L350.732 107.65V107.567Z" stroke="black" stroke-width="0.5" stroke-linecap="round" stroke-linejoin="round"/>
<path d="M398.337 7.54709C399.084 7.79589 400.079 3.81501 400.079 3.81501L400.742 1.99044C400.742 1.99044 399.83 0.497608 398.835 0.414673C397.84 0.414673 396.927 1.74163 396.927 1.99044C396.927 1.99044 397.591 7.29828 398.337 7.54709Z" stroke="black" stroke-width="0.5" stroke-linecap="round" stroke-linejoin="round"/>
<path d="M398.337 7.54709C399.084 7.79589 400.079 3.81501 400.079 3.81501L400.742 1.99044C400.742 1.99044 399.83 0.497608 398.835 0.414673C397.84 0.414673 396.927 1.74163 396.927 1.99044C396.927 1.99044 397.591 7.29828 398.337 7.54709Z" stroke="black" stroke-width="0.5" stroke-linecap="round" stroke-linejoin="round"/>
<path d="M402.567 13.6843C403.396 13.6013 405.47 12.1085 405.635 11.445C405.801 10.7816 404.143 7.96176 403.23 7.87882C402.235 7.79589 401.323 8.5423 401.323 8.5423L400.825 11.7768C400.825 11.7768 401.82 13.7672 402.65 13.6843" stroke="black" stroke-width="0.5" stroke-linecap="round" stroke-linejoin="round"/>
<path d="M402.567 13.6843C403.396 13.6013 405.47 12.1085 405.635 11.445C405.801 10.7816 404.143 7.96176 403.23 7.87882C402.235 7.79589 401.323 8.5423 401.323 8.5423L400.825 11.7768C400.825 11.7768 401.82 13.7672 402.65 13.6843H402.567Z" stroke="black" stroke-width="0.5" stroke-linecap="round" stroke-linejoin="round"/>
<path d="M530.95 44.5361L526.886 45.6143L524.315 43.375C524.315 43.375 523.901 42.8774 522.408 42.5457C519.671 42.3798 517.515 48.3511 517.515 48.3511L512.953 53.9078L511.046 57.7228C511.046 57.7228 503.665 63.2795 502.918 63.86C502.172 64.4405 502.918 67.0115 502.918 67.0115C502.918 67.0115 502.669 69.0849 504.079 69.3337C505.738 69.7484 506.982 67.9238 506.982 67.9238L507.977 63.7771L509.47 63.5283L509.885 63.0306L511.129 62.7818L512.787 61.4549L513.285 59.7132L515.524 58.4692L516.188 55.4836L521.164 51.2539H525.062L528.794 47.9365C528.794 47.9365 529.955 48.2682 530.37 48.1853C533.438 44.7849 531.116 44.4532 531.116 44.4532" stroke="black" stroke-width="0.5" stroke-linecap="round" stroke-linejoin="round"/>
<path d="M530.95 44.5361L526.886 45.6143L524.315 43.375C524.315 43.375 523.901 42.8774 522.408 42.5457C519.671 42.3798 517.515 48.3511 517.515 48.3511L512.953 53.9078L511.046 57.7228C511.046 57.7228 503.665 63.2795 502.918 63.86C502.172 64.4405 502.918 67.0115 502.918 67.0115C502.918 67.0115 502.669 69.0849 504.079 69.3337C505.738 69.7484 506.982 67.9238 506.982 67.9238L507.977 63.7771L509.47 63.5283L509.885 63.0306L511.129 62.7818L512.787 61.4549L513.285 59.7132L515.524 58.4692L516.188 55.4836L521.164 51.2539H525.062L528.794 47.9365C528.794 47.9365 529.955 48.2682 530.37 48.1853C533.438 44.7849 531.116 44.4532 531.116 44.4532H530.95V44.5361Z" stroke="black" stroke-width="0.5" stroke-linecap="round" stroke-linejoin="round"/>
<path d="M539.078 64.9382C537.834 64.6894 536.922 64.9382 536.922 64.9382L535.346 66.2651L534.019 66.9286H532.194V68.5873L533.024 70.6607H534.102L539.99 67.1774C539.99 67.1774 540.322 65.187 539.078 65.0211" stroke="black" stroke-width="0.5" stroke-linecap="round" stroke-linejoin="round"/>
<path d="M539.078 64.9382C537.834 64.6894 536.922 64.9382 536.922 64.9382L535.346 66.2651L534.019 66.9286H532.194V68.5873L533.024 70.6607H534.102L539.99 67.1774C539.99 67.1774 540.322 65.187 539.078 65.0211V64.9382Z" stroke="black" stroke-width="0.5" stroke-linecap="round" stroke-linejoin="round"/>
<path d="M587.926 11.7768C587.926 11.7768 589.502 10.5327 589.502 9.86927C589.502 9.20579 588.59 8.95698 588.59 8.95698C588.59 8.95698 586.599 8.45937 585.19 8.2935C583.78 8.12763 582.121 9.86927 582.121 9.86927L574.823 17.4993L572.335 17.831C572.335 17.831 570.012 17.5822 569.266 17.831C568.768 17.3334 566.363 12.5232 565.451 12.6061C564.539 12.6061 563.626 14.9283 563.626 14.9283L563.958 16.5041L563.378 19.6556H562.134L560.143 20.8996L558.899 23.6365C558.899 23.6365 557.489 23.1389 556.743 23.0559C555.996 23.0559 555.25 23.7194 554.918 24.4658C554.669 25.2952 554.918 26.6221 554.918 26.6221L549.196 31.0177L548.532 33.0081L546.044 32.6764C546.044 32.6764 545.298 33.257 544.883 33.7546C544.551 34.2522 546.376 35.0815 546.376 35.0815C546.376 35.0815 547.122 35.745 547.205 36.4085C547.205 37.1549 545.298 38.6477 545.298 38.6477L543.224 38.2331L542.478 40.0576H541.068V41.7993C539.658 43.2092 539.078 45.3655 539.161 45.7801C539.161 46.1948 540.985 46.6095 541.649 46.4436C542.395 46.2778 544.883 42.2139 544.883 42.2139H546.791L550.606 37.5696L557.821 32.1788L558.567 29.5249C558.567 29.5249 559.231 27.2027 559.231 27.5344C559.231 27.8662 561.885 29.5249 562.548 29.6078C563.212 29.6078 565.036 28.5297 565.036 28.5297C565.036 28.5297 574.823 20.485 575.901 19.9044C576.896 19.3239 582.204 16.7529 582.204 16.7529L584.692 16.0894C584.692 16.0894 585.936 16.2553 587.097 16.3382C589.17 15.5918 588.424 13.9331 588.424 13.9331L587.512 11.9426L587.926 11.7768Z" stroke="black" stroke-width="0.5" stroke-linecap="round" stroke-linejoin="round"/>
<path d="M587.926 11.7768C587.926 11.7768 589.502 10.5327 589.502 9.86927C589.502 9.20579 588.59 8.95698 588.59 8.95698C588.59 8.95698 586.599 8.45937 585.19 8.2935C583.78 8.12763 582.121 9.86927 582.121 9.86927L574.823 17.4993L572.335 17.831C572.335 17.831 570.012 17.5822 569.266 17.831C568.768 17.3334 566.363 12.5232 565.451 12.6061C564.539 12.6061 563.626 14.9283 563.626 14.9283L563.958 16.5041L563.378 19.6556H562.134L560.143 20.8996L558.899 23.6365C558.899 23.6365 557.489 23.1389 556.743 23.0559C555.996 23.0559 555.25 23.7194 554.918 24.4658C554.669 25.2952 554.918 26.6221 554.918 26.6221L549.196 31.0177L548.532 33.0081L546.044 32.6764C546.044 32.6764 545.298 33.257 544.883 33.7546C544.551 34.2522 546.376 35.0815 546.376 35.0815C546.376 35.0815 547.122 35.745 547.205 36.4085C547.205 37.1549 545.298 38.6477 545.298 38.6477L543.224 38.2331L542.478 40.0576H541.068V41.7993C539.658 43.2092 539.078 45.3655 539.161 45.7801C539.161 46.1948 540.985 46.6095 541.649 46.4436C542.395 46.2778 544.883 42.2139 544.883 42.2139H546.791L550.606 37.5696L557.821 32.1788L558.567 29.5249C558.567 29.5249 559.231 27.2027 559.231 27.5344C559.231 27.8662 561.885 29.5249 562.548 29.6078C563.212 29.6078 565.036 28.5297 565.036 28.5297C565.036 28.5297 574.823 20.485 575.901 19.9044C576.896 19.3239 582.204 16.7529 582.204 16.7529L584.692 16.0894C584.692 16.0894 585.936 16.2553 587.097 16.3382C589.17 15.5918 588.424 13.9331 588.424 13.9331L587.512 11.9426L587.926 11.7768Z" stroke="black" stroke-width="0.5" stroke-linecap="round" stroke-linejoin="round"/>
<path d="M406.63 205.679C406.63 205.679 406.879 204.103 406.05 203.937C405.22 203.771 404.806 204.186 404.806 204.186L405.055 202.859L405.801 202.03L406.382 197.966L406.05 197.302L406.299 195.644L405.884 194.566L406.05 192.161L403.313 188.18C403.313 188.18 403.313 187.35 403.811 187.019C403.811 186.936 404.142 186.604 404.142 186.355C404.142 186.106 403.728 184.696 402.732 184.779C402.318 184.779 401.986 183.95 402.484 183.452C402.567 183.452 403.396 182.457 403.396 182.208C403.396 181.96 401.405 177.896 401.405 177.896L400.161 175.905C400.161 175.905 399.83 175.491 399.249 175.574C399.332 175.574 399.498 174.081 399.498 174.081L397.508 171.344L395.434 171.012L395.185 171.344L395.019 168.856L394.522 167.695L394.19 165.538V162.802C394.19 162.802 393.858 161.889 393.361 161.806C393.029 161.806 392.117 161.806 391.702 162.636C391.785 162.138 391.951 161.723 391.951 161.723L393.775 161.309L394.273 158.821C394.273 158.821 393.444 157.908 393.61 156.913C393.775 155.918 394.605 155.254 394.605 155.254L395.683 147.376L396.429 146.629L397.093 141.902C397.093 141.902 396.927 141.073 395.932 140.907C394.937 140.658 392.614 141.736 392.614 141.736L391.868 142.068L386.228 137.175L384.818 135.931L383.243 135.267C383.243 135.267 382.496 135.018 382.247 135.682L378.101 146.795L379.013 149.117L383.491 147.707L385.648 149.117L389.795 145.717L391.039 149.117L388.385 156.084C388.385 156.084 387.638 158.406 386.394 158.406C385.15 158.406 384.57 155.503 384.57 155.503L380.423 153.015L379.179 157.328L376.525 158.406L375.115 155.171V148.039C375.115 148.039 374.369 144.805 373.042 144.888C371.715 144.888 370.554 145.634 370.554 145.634L368.646 144.307H366.739C366.739 144.39 366.241 147.044 366.241 147.044L365.08 148.371L367.319 151.854L365.578 152.269L364.416 156.001L363.504 158.24L360.104 160.231L356.786 159.816C356.786 159.816 353.137 163.465 352.806 164.377C352.806 165.29 353.884 167.031 353.884 167.031L353.635 170.266L354.796 171.841L355.459 173.832V174.578L355.128 178.062L352.806 181.877L352.474 183.204L348.825 186.521C348.825 186.521 347.415 185.443 347.249 185.443C347.083 185.443 346.088 186.272 346.088 186.272V187.599L346.337 188.346V189.838C346.254 189.838 346.502 190.419 347.166 190.502C347.829 190.502 348.493 190.17 348.493 190.17H349.322C349.322 190.253 349.903 189.838 349.903 189.838L351.23 189.59L353.967 194.317L353.552 196.639L352.806 198.049L351.976 205.928C351.976 205.928 350.235 207.504 350.069 207.835C349.903 208.167 347.747 211.319 347.747 211.319L347.249 213.475L346.917 213.724L346.585 216.958H346.42L345.673 217.787L344.844 222.846C344.844 222.846 343.6 223.759 343.019 224.92C342.439 226.081 340.614 227.906 340.614 227.906L339.37 230.394L335.804 234.623L329.584 247.395L328.671 249.303L325.271 252.288H323.364L313.328 257.182L312.582 259.172L311.338 260.416L309.845 263.568L309.265 265.06L304.206 270.866L294.17 277.252L289.775 276.671L285.213 279.574L277.832 281.067L277.169 281.813H273.354L270.368 282.974L269.705 284.799L269.207 286.541L264.977 288.116L259.338 283.804L260.333 281.15L261.079 280.32L261.66 276.754C261.66 276.754 260.996 276.008 260.665 276.008C260.333 276.008 259.669 276.671 259.669 276.671C259.669 276.671 257.43 275.676 257.347 275.178C257.347 274.681 258.343 271.198 258.343 271.198L259.255 270.783L260.084 271.198L260.996 272.359L265.392 269.622H266.636C266.636 269.705 268.378 268.958 268.544 267.548C268.709 266.056 268.709 265.143 268.709 265.143L270.617 265.475C270.617 265.475 272.524 264.646 272.441 263.733C272.359 262.821 271.529 261.992 271.529 261.992L268.461 261.577L258.094 264.314H256.601C256.601 264.314 254.279 265.309 253.698 266.636C253.532 267.548 252.952 268.212 252.952 268.212L251.956 270.368L251.459 271.032L251.293 272.69L252.537 273.105L252.288 276.091L253.201 277.998L253.035 278.994L252.288 279.989L251.708 283.804L247.893 288.199L247.229 288.863L246.98 289.858L245.073 291.268L244.741 292.18L235.369 299.976L231.803 300.225L231.14 302.713L226.081 308.353L225.5 309.016V310.26L228.237 317.144L227.574 318.139L226.91 320.544L226.33 317.973L224.671 317.724L224.007 318.388L223.759 320.959L221.353 320.461C221.353 320.461 220.358 320.71 220.275 321.456C220.441 321.788 219.28 323.198 219.28 323.198V323.695H218.451L216.129 325.188L215.133 324.525L211.484 323.695L210.24 322.783C210.24 322.783 210.904 320.959 210.406 320.461C209.908 320.046 208.664 320.295 208.664 320.295L206.093 321.788L205.845 322.451L206.425 323.613L203.522 321.125L201.947 320.71L205.098 318.222C205.098 318.222 206.01 317.392 205.928 316.895C205.845 316.397 205.098 313.495 203.605 313.246C202.776 313.163 193.819 315.9 193.819 315.9C193.819 315.983 191.165 314.904 191.165 314.904L183.369 313.743L179.14 314.821L176.154 315.402L173.915 316.729L166.036 315.568L164.792 316.065L161.64 315.651L161.143 314.904L158.737 314.49L158.24 313.909L155.586 313.743L151.605 315.319L150.859 314.656H149.781C149.781 314.656 149.532 313.743 149.117 313.826C148.702 313.826 147.956 314.158 147.956 314.158L147.458 315.485L144.39 314.407L144.721 312.997L145.634 311.504C145.634 311.504 144.887 309.016 143.395 308.85C141.902 308.767 139.828 310.758 139.828 310.758L138.004 310.509L135.599 310.924L133.111 311.255L132.613 311.753L130.788 311.338C130.788 311.338 129.793 311.587 129.959 312.499C130.125 313.412 130.705 314.407 130.705 314.407L129.959 315.236L129.296 316.729L123.49 318.719L119.758 321.29C119.758 321.29 119.095 322.617 118.182 322.949C117.27 323.281 113.123 324.94 113.123 324.94L103.254 332.072H99.1901C99.1901 332.072 98.4437 332.901 98.3608 333.316C98.2778 333.731 95.458 333.316 95.458 333.316L90.3161 336.882L88.7403 338.375V339.702L86.0864 340.448L82.3543 339.951L81.1932 337.877L78.871 337.546C78.871 337.546 78.1246 336.468 77.4611 336.468C76.7977 336.468 75.4707 337.214 75.3048 338.624L77.0465 339.287H74.7243C74.7243 339.287 72.485 340.697 72.568 341.195C72.568 341.692 73.7291 344.346 73.7291 344.346C73.7291 344.346 71.6557 346.337 71.5728 347.415C71.5728 348.161 72.7338 349.82 72.7338 349.82L72.4021 351.811C72.4021 351.811 72.8168 352.64 73.1485 352.64C73.4803 352.64 75.9683 350.981 76.383 350.981C76.7977 350.981 78.7881 353.055 78.7881 353.055L79.0369 354.962L81.1103 355.294C81.1103 355.294 81.525 356.123 82.1884 356.04C82.8519 355.874 84.1789 355.377 84.1789 355.377L85.0912 354.299L85.8376 353.137V354.133L87.828 354.547L88.6574 354.133C88.6574 354.133 89.3209 355.46 90.2331 355.626C91.1454 355.791 96.2874 354.464 96.2874 354.464L98.029 356.787L99.0243 357.035L101.429 360.187L103.254 360.602L104.498 362.343L105.41 362.675L105.991 362.012L106.157 360.353L108.894 359.358L109.557 356.04L109.308 355.211L110.801 354.216L111.05 352.64L110.303 351.396L110.801 351.147L115.445 347.664L119.177 348.41L118.597 348.825L118.763 350.069C118.763 350.069 119.26 353.055 120.67 353.469C122.08 353.884 121.5 354.713 122.495 354.713C123.49 354.713 125.812 354.133 125.812 354.133C125.812 354.133 127.554 351.976 127.969 351.976L132.032 352.474L133.028 351.811L134.355 351.976L136.677 350.152L138.087 350.318L140.989 350.069L140.824 351.562C140.824 351.562 141.819 352.889 142.814 352.972C143.809 353.137 144.639 352.308 144.639 352.308L145.302 350.401L146.546 350.566C146.546 350.566 147.21 350.152 147.292 348.825C147.458 348.825 148.702 348.991 148.702 348.991C148.702 348.991 149.863 350.649 150.527 350.566C151.19 350.484 153.015 349.322 153.181 349.322C153.347 349.322 153.844 349.986 153.844 349.986L155.005 350.235C155.005 350.235 155.752 352.391 156.332 352.391C156.913 352.391 157.742 351.893 157.742 351.893L158.82 352.391C158.82 352.391 159.65 353.137 160.23 352.889C160.894 352.64 161.64 350.981 161.64 350.981C161.64 350.981 163.216 350.732 163.714 349.571C163.631 349.405 164.045 347.83 162.553 347.747C162.221 347.747 160.562 348.078 160.562 348.078L162.553 347.581L164.958 348.659L165.953 349.157C165.953 349.157 166.699 349.157 167.446 348.493C168.026 347.913 170.348 346.171 170.348 346.171C170.348 346.171 170.929 345.01 170.017 344.512C170.348 344.678 170.68 344.927 170.846 345.424L171.841 345.59C171.841 345.59 172.836 345.673 173.002 345.507C173.168 345.259 173.251 344.346 173.251 344.346C173.251 344.346 174.495 345.507 175.076 345.424C175.656 345.342 177.232 344.512 177.315 343.683C177.398 342.853 177.315 345.342 178.227 345.424C179.14 345.507 180.384 345.756 180.384 345.756C180.384 345.756 182.374 346.005 182.872 345.756C183.369 345.507 183.95 345.342 184.281 345.424C184.696 345.59 191.746 352.059 192.326 352.059C192.907 352.059 194.731 351.562 194.731 351.562H196.473C196.473 351.562 199.21 349.986 199.956 350.152C200.703 350.318 202.444 350.981 202.776 351.811C203.025 352.557 203.108 354.216 203.108 354.216L202.942 355.128L201.117 356.621L200.288 358.694L195.975 362.177L193.156 362.012L192.741 362.509V362.675C192.658 362.675 190.833 362.426 190.833 364.085C190.916 364.665 193.819 368.729 193.819 368.729L191.082 370.554C191.082 370.554 190.833 370.969 190.75 371.3C190.75 371.715 191.912 372.627 191.912 372.627C191.912 372.627 190.75 373.042 190.502 373.374C190.253 373.705 190.336 375.032 190.336 375.032C190.336 375.032 189.423 375.447 189.423 376.193C189.423 376.94 190.253 377.52 190.75 377.769L191.829 380.091L193.902 382.579L196.39 384.321C196.39 384.321 195.395 385.897 195.395 386.146C195.395 386.394 196.141 387.556 196.224 387.721C196.224 387.804 196.39 388.8 196.39 388.8C196.39 388.8 197.551 390.707 198.712 391.205C199.873 391.702 201.117 392.449 202.113 392.697C203.025 393.029 205.845 394.356 205.845 394.356C205.845 394.356 206.674 395.434 207.835 394.605C208.747 393.776 210.904 392.946 210.904 392.946L212.728 391.702L212.977 389.878L212.645 389.546L214.719 387.887L215.05 386.892L216.294 385.15L218.036 382.994C218.036 382.994 220.026 381.418 220.441 381.335C220.856 381.252 222.432 381.004 222.597 380.423C222.763 379.843 222.68 378.764 222.68 378.764C222.68 378.764 223.51 378.018 223.51 377.686C223.51 377.354 222.929 375.862 222.929 375.779C222.929 375.779 224.754 373.539 225.5 373.042C226.247 372.627 227.988 372.13 228.652 371.798C229.315 371.549 229.979 371.3 229.979 371.3L232.716 371.632L233.96 371.217L237.36 368.978L237.858 369.227L237.277 370.388C237.277 370.388 237.609 371.466 238.272 371.466C238.936 371.466 240.263 370.637 240.926 370.72C241.507 370.803 242.004 372.047 242.502 371.964C243 371.964 243.746 371.051 243.829 370.471C243.829 369.89 243.912 368.48 241.838 368.232L244.492 368.563C244.492 368.563 244.99 368.232 244.907 367.651C244.907 367.153 244.326 365.909 243.248 366.324L242.751 364.334L241.175 362.758L237.858 360.85L234.457 358.445L235.204 354.547L236.779 353.635L237.277 352.059C237.277 352.059 238.853 350.566 239.599 349.405C240.263 348.161 240.097 346.42 240.097 346.42L241.673 346.751L242.336 346.088H244.658L246.483 344.844L244.824 346.586L244.409 347.332L243.912 351.396L244.658 352.391L244.161 353.303L243.829 355.294C243.829 355.294 244.741 357.865 245.653 357.865C246.566 357.865 247.312 357.45 247.312 356.952C247.312 356.455 246.317 355.045 246.317 355.045L246.815 354.133L247.063 353.055L248.39 349.903L247.478 353.055C247.478 353.055 247.312 355.045 248.722 355.46C250.132 355.874 250.712 356.704 250.712 356.704L253.532 356.87L254.859 355.294C254.859 355.294 255.523 355.626 256.435 356.206C257.347 356.787 257.679 357.865 257.679 357.865V358.777L256.85 359.026L255.606 357.782L252.952 359.275C252.952 359.275 251.791 360.104 251.293 360.104C250.795 360.104 249.634 359.523 249.634 359.523C249.634 359.523 248.556 359.855 248.473 360.353C248.473 360.85 247.644 362.592 248.805 362.675C249.966 362.841 250.215 362.177 250.215 362.177L251.956 362.343L252.786 361.846L254.527 362.012L255.191 361.514L256.601 361.68L257.264 361.431H258.674L259.172 361.099L260.996 361.265C260.996 361.265 262.489 361.68 262.572 358.528C262.904 358.279 264.397 358.031 264.397 358.031C264.397 358.031 265.309 357.367 265.89 357.533C266.47 357.699 265.89 358.114 265.89 358.114L266.138 359.026C266.138 359.026 265.226 359.441 265.226 360.104C265.226 360.767 264.729 361.597 265.973 361.846C267.217 362.094 275.095 363.09 275.095 363.09L276.008 363.67L277.003 363.919L277.335 364.583L278.91 364.748L279.408 365.495L281.067 365.661C281.067 365.661 281.896 365.163 281.979 364.831C282.145 364.5 281.979 363.587 281.979 363.587L285.545 360.602L286.043 359.855L286.209 357.616L286.955 357.45C286.955 357.45 287.204 355.874 287.95 355.626C288.697 355.377 289.277 355.377 289.277 355.377L291.599 354.879C291.599 354.879 292.18 354.547 292.346 354.133C292.512 353.718 291.848 352.308 291.848 352.308L294.419 350.318H295.414L297.239 349.82H297.903L298.566 350.566L300.225 351.147L300.805 351.976L302.298 352.972L300.639 352.806L299.064 353.801L298.815 355.377L299.312 356.621L299.478 357.45L299.064 357.865L298.815 360.187L297.985 360.602L297.82 362.509L297.156 363.007V364.997C297.156 364.997 298.732 368.398 299.81 368.563C300.888 368.729 302.464 368.315 302.464 368.315L304.952 366.241L305.45 363.338L307.606 362.094L307.772 361.265L309.679 359.772L310.343 356.787L308.352 353.718L309.182 352.557L309.845 350.981C309.845 350.981 310.675 350.815 311.006 350.152C311.338 349.488 311.421 348.576 311.421 348.576L311.089 348.078L313.246 346.669L314.904 346.834L315.651 346.503H316.48L317.724 346.254L318.553 346.42L319.466 346.254L319.963 346.503L321.207 347L322.866 347.581L324.276 349.074L324.11 349.737L323.612 350.732C323.612 350.732 323.364 352.557 324.525 352.557C325.686 352.557 326.515 352.059 326.515 352.059L326.183 351.147L327.427 350.235C327.427 350.235 328.257 349.157 327.925 348.659C327.593 348.161 325.852 347.249 325.852 347.249L325.354 346.254L325.686 343.683L326.764 343.102C326.764 343.102 327.344 341.858 326.183 341.195C326.349 341.195 328.174 342.107 328.174 342.107C328.174 342.107 329.418 341.195 329.75 340.946C330.164 340.697 330.662 340.034 329.252 338.209H330.413C330.413 338.209 330.994 337.629 330.994 337.38C330.994 337.131 330.662 336.136 330.662 336.136L330.496 335.721L331.242 336.385L331.989 336.55L332.818 336.219C332.818 336.219 333.067 337.214 333.813 337.214C334.56 337.214 336.467 335.97 336.467 335.97L337.628 336.219C337.628 336.219 339.37 338.873 339.536 339.536C339.702 340.117 337.794 341.195 337.794 341.195L336.799 342.024L333.896 343.268C333.896 343.268 332.984 343.268 332.984 345.01C332.652 345.01 331.657 344.844 331.657 344.844L330.33 345.756C330.33 345.756 329.667 346.254 329.667 346.586C329.667 346.917 330.164 347.913 330.164 347.913C330.164 347.913 331.077 349.157 331.077 349.488C331.077 349.82 330.247 350.732 330.247 350.732L329.75 353.469V354.299L330.164 354.63L329.418 354.796L329.252 356.538L329.998 357.45L327.925 358.611V359.772C327.925 359.772 329.915 361.68 330.828 361.68C331.74 361.68 334.228 359.606 334.228 359.606L339.287 355.211L340.448 354.879L342.024 355.128L342.853 354.381H344.014L344.761 353.967L345.922 354.299C345.922 354.299 346.668 354.464 346.668 352.64C346.502 352.64 347.249 352.225 347.249 352.225L348.078 346.42L348.991 345.922L349.405 342.024L352.142 339.619L356.289 336.882L360.684 337.546C360.684 337.546 361.928 337.297 361.763 335.97C361.597 334.726 361.265 333.814 361.265 333.814L361.099 333.316L360.767 332.404C360.767 332.404 356.372 324.359 356.538 322.617C356.538 322.451 355.791 321.705 355.791 321.705L356.289 319.632L355.874 318.968L356.04 317.144L355.542 316.314L357.533 313.992L358.196 310.343L357.699 309.597L358.86 307.606L359.026 306.279L359.855 305.782L360.27 304.538L361.016 303.128L361.514 302.63L361.763 301.552L362.26 300.391L362.841 299.561L363.007 298.898L363.67 298.152V296.659L359.772 294.005C360.353 294.088 364.251 296.907 364.251 296.907L369.393 293.258L370.305 291.6L370.72 288.448L371.632 287.536L373.705 277.252L374.286 269.124L373.373 267.548L371.964 262.075L371.549 261.162L372.544 256.269L371.632 255.606L371.964 254.445L372.959 253.45L373.788 251.874L374.617 251.293L376.027 250.132V248.473H374.7L376.359 248.142L375.53 246.732C375.53 246.732 376.525 245.737 376.857 245.737H381.667L382.662 245.239L384.818 245.654L387.472 244.575C387.472 244.575 388.799 244.575 388.882 244.41C388.882 244.161 389.38 242.336 388.551 242.087C387.638 241.922 389.712 241.922 389.712 241.922C389.712 241.922 391.287 240.429 388.053 239.931C388.053 239.765 388.633 239.102 388.633 239.102L390.126 237.36L388.965 235.453L390.209 234.457L390.458 233.213L390.292 232.467L392.78 230.808V229.315C392.78 229.315 392.946 228.818 392.531 228.154C392.697 228.32 393.61 229.398 393.61 229.398C393.61 229.398 394.937 229.315 394.771 228.071C394.605 226.827 394.356 225.998 394.356 225.998H394.688C394.688 225.998 395.849 226.33 396.512 225.749C396.844 225.335 397.508 224.671 396.761 224.256C396.761 224.256 397.508 224.837 398.171 224.92C398.834 224.92 399.581 224.754 399.664 224.173C399.747 223.593 400.244 221.271 400.244 221.271L400.742 219.778L402.567 218.451V215.963C402.567 215.963 402.069 215.134 402.567 214.636C403.064 214.138 403.976 213.475 403.976 213.475V211.567L404.806 210.655L404.474 209.245L407.294 207.006L406.962 205.596H406.63V205.679ZM332.984 329.833L332.486 330.496L334.726 327.428L332.984 329.833Z" stroke="black" stroke-width="0.5" stroke-linecap="round" stroke-linejoin="round"/>
<path d="M406.63 205.679C406.63 205.679 406.879 204.103 406.05 203.937C405.22 203.771 404.806 204.186 404.806 204.186L405.055 202.859L405.801 202.03L406.382 197.966L406.05 197.302L406.299 195.644L405.884 194.566L406.05 192.161L403.313 188.18C403.313 188.18 403.313 187.35 403.811 187.019C403.811 186.936 404.142 186.604 404.142 186.355C404.142 186.106 403.728 184.696 402.732 184.779C402.318 184.779 401.986 183.95 402.484 183.452C402.567 183.452 403.396 182.457 403.396 182.208C403.396 181.96 401.405 177.896 401.405 177.896L400.161 175.905C400.161 175.905 399.83 175.491 399.249 175.574C399.332 175.574 399.498 174.081 399.498 174.081L397.508 171.344L395.434 171.012L395.185 171.344L395.019 168.856L394.522 167.695L394.19 165.538V162.802C394.19 162.802 393.858 161.889 393.361 161.806C393.029 161.806 392.117 161.806 391.702 162.636C391.785 162.138 391.951 161.723 391.951 161.723L393.775 161.309L394.273 158.821C394.273 158.821 393.444 157.908 393.61 156.913C393.775 155.918 394.605 155.254 394.605 155.254L395.683 147.376L396.429 146.629L397.093 141.902C397.093 141.902 396.927 141.073 395.932 140.907C394.937 140.658 392.614 141.736 392.614 141.736L391.868 142.068L386.228 137.175L384.818 135.931L383.243 135.267C383.243 135.267 382.496 135.018 382.247 135.682L378.101 146.795L379.013 149.117L383.491 147.707L385.648 149.117L389.795 145.717L391.039 149.117L388.385 156.084C388.385 156.084 387.638 158.406 386.394 158.406C385.15 158.406 384.57 155.503 384.57 155.503L380.423 153.015L379.179 157.328L376.525 158.406L375.115 155.171V148.039C375.115 148.039 374.369 144.805 373.042 144.888C371.715 144.888 370.554 145.634 370.554 145.634L368.646 144.307H366.739C366.739 144.39 366.241 147.044 366.241 147.044L365.08 148.371L367.319 151.854L365.578 152.269L364.416 156.001L363.504 158.24L360.104 160.231L356.786 159.816C356.786 159.816 353.137 163.465 352.806 164.377C352.806 165.29 353.884 167.031 353.884 167.031L353.635 170.266L354.796 171.841L355.459 173.832V174.578L355.128 178.062L352.806 181.877L352.474 183.204L348.825 186.521C348.825 186.521 347.415 185.443 347.249 185.443C347.083 185.443 346.088 186.272 346.088 186.272V187.599L346.337 188.346V189.838C346.254 189.838 346.502 190.419 347.166 190.502C347.829 190.502 348.493 190.17 348.493 190.17H349.322C349.322 190.253 349.903 189.838 349.903 189.838L351.23 189.59L353.967 194.317L353.552 196.639L352.806 198.049L351.976 205.928C351.976 205.928 350.235 207.504 350.069 207.835C349.903 208.167 347.747 211.319 347.747 211.319L347.249 213.475L346.917 213.724L346.585 216.958H346.42L345.673 217.787L344.844 222.846C344.844 222.846 343.6 223.759 343.019 224.92C342.439 226.081 340.614 227.906 340.614 227.906L339.37 230.394L335.804 234.623L329.584 247.395L328.671 249.303L325.271 252.288H323.364L313.328 257.182L312.582 259.172L311.338 260.416L309.845 263.568L309.265 265.06L304.206 270.866L294.17 277.252L289.775 276.671L285.213 279.574L277.832 281.067L277.169 281.813H273.354L270.368 282.974L269.705 284.799L269.207 286.541L264.977 288.116L259.338 283.804L260.333 281.15L261.079 280.32L261.66 276.754C261.66 276.754 260.996 276.008 260.665 276.008C260.333 276.008 259.669 276.671 259.669 276.671C259.669 276.671 257.43 275.676 257.347 275.178C257.347 274.681 258.343 271.198 258.343 271.198L259.255 270.783L260.084 271.198L260.996 272.359L265.392 269.622H266.636C266.636 269.705 268.378 268.958 268.544 267.548C268.709 266.056 268.709 265.143 268.709 265.143L270.617 265.475C270.617 265.475 272.524 264.646 272.441 263.733C272.359 262.821 271.529 261.992 271.529 261.992L268.461 261.577L258.094 264.314H256.601C256.601 264.314 254.279 265.309 253.698 266.636C253.532 267.548 252.952 268.212 252.952 268.212L251.956 270.368L251.459 271.032L251.293 272.69L252.537 273.105L252.288 276.091L253.201 277.998L253.035 278.994L252.288 279.989L251.708 283.804L247.893 288.199L247.229 288.863L246.98 289.858L245.073 291.268L244.741 292.18L235.369 299.976L231.803 300.225L231.14 302.713L226.081 308.353L225.5 309.016V310.26L228.237 317.144L227.574 318.139L226.91 320.544L226.33 317.973L224.671 317.724L224.007 318.388L223.759 320.959L221.353 320.461C221.353 320.461 220.358 320.71 220.275 321.456C220.441 321.788 219.28 323.198 219.28 323.198V323.695H218.451L216.129 325.188L215.133 324.525L211.484 323.695L210.24 322.783C210.24 322.783 210.904 320.959 210.406 320.461C209.908 320.046 208.664 320.295 208.664 320.295L206.093 321.788L205.845 322.451L206.425 323.613L203.522 321.125L201.947 320.71L205.098 318.222C205.098 318.222 206.01 317.392 205.928 316.895C205.845 316.397 205.098 313.495 203.605 313.246C202.776 313.163 193.819 315.9 193.819 315.9C193.819 315.983 191.165 314.904 191.165 314.904L183.369 313.743L179.14 314.821L176.154 315.402L173.915 316.729L166.036 315.568L164.792 316.065L161.64 315.651L161.143 314.904L158.737 314.49L158.24 313.909L155.586 313.743L151.605 315.319L150.859 314.656H149.781C149.781 314.656 149.532 313.743 149.117 313.826C148.702 313.826 147.956 314.158 147.956 314.158L147.458 315.485L144.39 314.407L144.721 312.997L145.634 311.504C145.634 311.504 144.887 309.016 143.395 308.85C141.902 308.767 139.828 310.758 139.828 310.758L138.004 310.509L135.599 310.924L133.111 311.255L132.613 311.753L130.788 311.338C130.788 311.338 129.793 311.587 129.959 312.499C130.125 313.412 130.705 314.407 130.705 314.407L129.959 315.236L129.296 316.729L123.49 318.719L119.758 321.29C119.758 321.29 119.095 322.617 118.182 322.949C117.27 323.281 113.123 324.94 113.123 324.94L103.254 332.072H99.1901C99.1901 332.072 98.4437 332.901 98.3608 333.316C98.2778 333.731 95.458 333.316 95.458 333.316L90.3161 336.882L88.7403 338.375V339.702L86.0864 340.448L82.3543 339.951L81.1932 337.877L78.871 337.546C78.871 337.546 78.1246 336.468 77.4611 336.468C76.7977 336.468 75.4707 337.214 75.3048 338.624L77.0465 339.287H74.7243C74.7243 339.287 72.485 340.697 72.568 341.195C72.568 341.692 73.7291 344.346 73.7291 344.346C73.7291 344.346 71.6557 346.337 71.5728 347.415C71.5728 348.161 72.7338 349.82 72.7338 349.82L72.4021 351.811C72.4021 351.811 72.8168 352.64 73.1485 352.64C73.4803 352.64 75.9683 350.981 76.383 350.981C76.7977 350.981 78.7881 353.055 78.7881 353.055L79.0369 354.962L81.1103 355.294C81.1103 355.294 81.525 356.123 82.1884 356.04C82.8519 355.874 84.1789 355.377 84.1789 355.377L85.0912 354.299L85.8376 353.137V354.133L87.828 354.547L88.6574 354.133C88.6574 354.133 89.3209 355.46 90.2331 355.626C91.1454 355.791 96.2874 354.464 96.2874 354.464L98.029 356.787L99.0243 357.035L101.429 360.187L103.254 360.602L104.498 362.343L105.41 362.675L105.991 362.012L106.157 360.353L108.894 359.358L109.557 356.04L109.308 355.211L110.801 354.216L111.05 352.64L110.303 351.396L110.801 351.147L115.445 347.664L119.177 348.41L118.597 348.825L118.763 350.069C118.763 350.069 119.26 353.055 120.67 353.469C122.08 353.884 121.5 354.713 122.495 354.713C123.49 354.713 125.812 354.133 125.812 354.133C125.812 354.133 127.554 351.976 127.969 351.976L132.032 352.474L133.028 351.811L134.355 351.976L136.677 350.152L138.087 350.318L140.989 350.069L140.824 351.562C140.824 351.562 141.819 352.889 142.814 352.972C143.809 353.137 144.639 352.308 144.639 352.308L145.302 350.401L146.546 350.566C146.546 350.566 147.21 350.152 147.292 348.825C147.458 348.825 148.702 348.991 148.702 348.991C148.702 348.991 149.863 350.649 150.527 350.566C151.19 350.484 153.015 349.322 153.181 349.322C153.347 349.322 153.844 349.986 153.844 349.986L155.005 350.235C155.005 350.235 155.752 352.391 156.332 352.391C156.913 352.391 157.742 351.893 157.742 351.893L158.82 352.391C158.82 352.391 159.65 353.137 160.23 352.889C160.894 352.64 161.64 350.981 161.64 350.981C161.64 350.981 163.216 350.732 163.714 349.571C163.631 349.405 164.045 347.83 162.553 347.747C162.221 347.747 160.562 348.078 160.562 348.078L162.553 347.581L164.958 348.659L165.953 349.157C165.953 349.157 166.699 349.157 167.446 348.493C168.026 347.913 170.348 346.171 170.348 346.171C170.348 346.171 170.929 345.01 170.017 344.512C170.348 344.678 170.68 344.927 170.846 345.424L171.841 345.59C171.841 345.59 172.836 345.673 173.002 345.507C173.168 345.259 173.251 344.346 173.251 344.346C173.251 344.346 174.495 345.507 175.076 345.424C175.656 345.342 177.232 344.512 177.315 343.683C177.398 342.853 177.315 345.342 178.227 345.424C179.14 345.507 180.384 345.756 180.384 345.756C180.384 345.756 182.374 346.005 182.872 345.756C183.369 345.507 183.95 345.342 184.281 345.424C184.696 345.59 191.746 352.059 192.326 352.059C192.907 352.059 194.731 351.562 194.731 351.562H196.473C196.473 351.562 199.21 349.986 199.956 350.152C200.703 350.318 202.444 350.981 202.776 351.811C203.025 352.557 203.108 354.216 203.108 354.216L202.942 355.128L201.117 356.621L200.288 358.694L195.975 362.177L193.156 362.012L192.741 362.509V362.675C192.658 362.675 190.833 362.426 190.833 364.085C190.916 364.665 193.819 368.729 193.819 368.729L191.082 370.554C191.082 370.554 190.833 370.969 190.75 371.3C190.75 371.715 191.912 372.627 191.912 372.627C191.912 372.627 190.75 373.042 190.502 373.374C190.253 373.705 190.336 375.032 190.336 375.032C190.336 375.032 189.423 375.447 189.423 376.193C189.423 376.94 190.253 377.52 190.75 377.769L191.829 380.091L193.902 382.579L196.39 384.321C196.39 384.321 195.395 385.897 195.395 386.146C195.395 386.394 196.141 387.556 196.224 387.721C196.224 387.804 196.39 388.8 196.39 388.8C196.39 388.8 197.551 390.707 198.712 391.205C199.873 391.702 201.117 392.449 202.113 392.697C203.025 393.029 205.845 394.356 205.845 394.356C205.845 394.356 206.674 395.434 207.835 394.605C208.747 393.776 210.904 392.946 210.904 392.946L212.728 391.702L212.977 389.878L212.645 389.546L214.719 387.887L215.05 386.892L216.294 385.15L218.036 382.994C218.036 382.994 220.026 381.418 220.441 381.335C220.856 381.252 222.432 381.004 222.597 380.423C222.763 379.843 222.68 378.764 222.68 378.764C222.68 378.764 223.51 378.018 223.51 377.686C223.51 377.354 222.929 375.862 222.929 375.779C222.929 375.779 224.754 373.539 225.5 373.042C226.247 372.627 227.988 372.13 228.652 371.798C229.315 371.549 229.979 371.3 229.979 371.3L232.716 371.632L233.96 371.217L237.36 368.978L237.858 369.227L237.277 370.388C237.277 370.388 237.609 371.466 238.272 371.466C238.936 371.466 240.263 370.637 240.926 370.72C241.507 370.803 242.004 372.047 242.502 371.964C243 371.964 243.746 371.051 243.829 370.471C243.829 369.89 243.912 368.48 241.838 368.232L244.492 368.563C244.492 368.563 244.99 368.232 244.907 367.651C244.907 367.153 244.326 365.909 243.248 366.324L242.751 364.334L241.175 362.758L237.858 360.85L234.457 358.445L235.204 354.547L236.779 353.635L237.277 352.059C237.277 352.059 238.853 350.566 239.599 349.405C240.263 348.161 240.097 346.42 240.097 346.42L241.673 346.751L242.336 346.088H244.658L246.483 344.844L244.824 346.586L244.409 347.332L243.912 351.396L244.658 352.391L244.161 353.303L243.829 355.294C243.829 355.294 244.741 357.865 245.653 357.865C246.566 357.865 247.312 357.45 247.312 356.952C247.312 356.455 246.317 355.045 246.317 355.045L246.815 354.133L247.063 353.055L248.39 349.903L247.478 353.055C247.478 353.055 247.312 355.045 248.722 355.46C250.132 355.874 250.712 356.704 250.712 356.704L253.532 356.87L254.859 355.294C254.859 355.294 255.523 355.626 256.435 356.206C257.347 356.787 257.679 357.865 257.679 357.865V358.777L256.85 359.026L255.606 357.782L252.952 359.275C252.952 359.275 251.791 360.104 251.293 360.104C250.795 360.104 249.634 359.523 249.634 359.523C249.634 359.523 248.556 359.855 248.473 360.353C248.473 360.85 247.644 362.592 248.805 362.675C249.966 362.841 250.215 362.177 250.215 362.177L251.956 362.343L252.786 361.846L254.527 362.012L255.191 361.514L256.601 361.68L257.264 361.431H258.674L259.172 361.099L260.996 361.265C260.996 361.265 262.489 361.68 262.572 358.528C262.904 358.279 264.397 358.031 264.397 358.031C264.397 358.031 265.309 357.367 265.89 357.533C266.47 357.699 265.89 358.114 265.89 358.114L266.138 359.026C266.138 359.026 265.226 359.441 265.226 360.104C265.226 360.767 264.729 361.597 265.973 361.846C267.217 362.094 275.095 363.09 275.095 363.09L276.008 363.67L277.003 363.919L277.335 364.583L278.91 364.748L279.408 365.495L281.067 365.661C281.067 365.661 281.896 365.163 281.979 364.831C282.145 364.5 281.979 363.587 281.979 363.587L285.545 360.602L286.043 359.855L286.209 357.616L286.955 357.45C286.955 357.45 287.204 355.874 287.95 355.626C288.697 355.377 289.277 355.377 289.277 355.377L291.599 354.879C291.599 354.879 292.18 354.547 292.346 354.133C292.512 353.718 291.848 352.308 291.848 352.308L294.419 350.318H295.414L297.239 349.82H297.903L298.566 350.566L300.225 351.147L300.805 351.976L302.298 352.972L300.639 352.806L299.064 353.801L298.815 355.377L299.312 356.621L299.478 357.45L299.064 357.865L298.815 360.187L297.985 360.602L297.82 362.509L297.156 363.007V364.997C297.156 364.997 298.732 368.398 299.81 368.563C300.888 368.729 302.464 368.315 302.464 368.315L304.952 366.241L305.45 363.338L307.606 362.094L307.772 361.265L309.679 359.772L310.343 356.787L308.352 353.718L309.182 352.557L309.845 350.981C309.845 350.981 310.675 350.815 311.006 350.152C311.338 349.488 311.421 348.576 311.421 348.576L311.089 348.078L313.246 346.669L314.904 346.834L315.651 346.503H316.48L317.724 346.254L318.553 346.42L319.466 346.254L319.963 346.503L321.207 347L322.866 347.581L324.276 349.074L324.11 349.737L323.612 350.732C323.612 350.732 323.364 352.557 324.525 352.557C325.686 352.557 326.515 352.059 326.515 352.059L326.183 351.147L327.427 350.235C327.427 350.235 328.257 349.157 327.925 348.659C327.593 348.161 325.852 347.249 325.852 347.249L325.354 346.254L325.686 343.683L326.764 343.102C326.764 343.102 327.344 341.858 326.183 341.195C326.349 341.195 328.174 342.107 328.174 342.107C328.174 342.107 329.418 341.195 329.75 340.946C330.164 340.697 330.662 340.034 329.252 338.209H330.413C330.413 338.209 330.994 337.629 330.994 337.38C330.994 337.131 330.662 336.136 330.662 336.136L330.496 335.721L331.242 336.385L331.989 336.55L332.818 336.219C332.818 336.219 333.067 337.214 333.813 337.214C334.56 337.214 336.467 335.97 336.467 335.97L337.628 336.219C337.628 336.219 339.37 338.873 339.536 339.536C339.702 340.117 337.794 341.195 337.794 341.195L336.799 342.024L333.896 343.268C333.896 343.268 332.984 343.268 332.984 345.01C332.652 345.01 331.657 344.844 331.657 344.844L330.33 345.756C330.33 345.756 329.667 346.254 329.667 346.586C329.667 346.917 330.164 347.913 330.164 347.913C330.164 347.913 331.077 349.157 331.077 349.488C331.077 349.82 330.247 350.732 330.247 350.732L329.75 353.469V354.299L330.164 354.63L329.418 354.796L329.252 356.538L329.998 357.45L327.925 358.611V359.772C327.925 359.772 329.915 361.68 330.828 361.68C331.74 361.68 334.228 359.606 334.228 359.606L339.287 355.211L340.448 354.879L342.024 355.128L342.853 354.381H344.014L344.761 353.967L345.922 354.299C345.922 354.299 346.668 354.464 346.668 352.64C346.502 352.64 347.249 352.225 347.249 352.225L348.078 346.42L348.991 345.922L349.405 342.024L352.142 339.619L356.289 336.882L360.684 337.546C360.684 337.546 361.928 337.297 361.763 335.97C361.597 334.726 361.265 333.814 361.265 333.814L361.099 333.316L360.767 332.404C360.767 332.404 356.372 324.359 356.538 322.617C356.538 322.451 355.791 321.705 355.791 321.705L356.289 319.632L355.874 318.968L356.04 317.144L355.542 316.314L357.533 313.992L358.196 310.343L357.699 309.597L358.86 307.606L359.026 306.279L359.855 305.782L360.27 304.538L361.016 303.128L361.514 302.63L361.763 301.552L362.26 300.391L362.841 299.561L363.007 298.898L363.67 298.152V296.659L359.772 294.005C360.353 294.088 364.251 296.907 364.251 296.907L369.393 293.258L370.305 291.6L370.72 288.448L371.632 287.536L373.705 277.252L374.286 269.124L373.373 267.548L371.964 262.075L371.549 261.162L372.544 256.269L371.632 255.606L371.964 254.445L372.959 253.45L373.788 251.874L374.617 251.293L376.027 250.132V248.473H374.7L376.359 248.142L375.53 246.732C375.53 246.732 376.525 245.737 376.857 245.737H381.667L382.662 245.239L384.818 245.654L387.472 244.575C387.472 244.575 388.799 244.575 388.882 244.41C388.882 244.161 389.38 242.336 388.551 242.087C387.638 241.922 389.712 241.922 389.712 241.922C389.712 241.922 391.287 240.429 388.053 239.931C388.053 239.765 388.633 239.102 388.633 239.102L390.126 237.36L388.965 235.453L390.209 234.457L390.458 233.213L390.292 232.467L392.78 230.808V229.315C392.78 229.315 392.946 228.818 392.531 228.154C392.697 228.32 393.61 229.398 393.61 229.398C393.61 229.398 394.937 229.315 394.771 228.071C394.605 226.827 394.356 225.998 394.356 225.998H394.688C394.688 225.998 395.849 226.33 396.512 225.749C396.844 225.335 397.508 224.671 396.761 224.256C396.761 224.256 397.508 224.837 398.171 224.92C398.834 224.92 399.581 224.754 399.664 224.173C399.747 223.593 400.244 221.271 400.244 221.271L400.742 219.778L402.567 218.451V215.963C402.567 215.963 402.069 215.134 402.567 214.636C403.064 214.138 403.976 213.475 403.976 213.475V211.567L404.806 210.655L404.474 209.245L407.294 207.006L406.962 205.596H406.63V205.679ZM332.984 329.833L332.486 330.496L334.726 327.428L332.984 329.833Z" stroke="black" stroke-width="0.5" stroke-linecap="round" stroke-linejoin="round"/>
<path d="M94.214 57.5569L94.0481 56.3958L93.0529 56.147L92.887 55.4836C92.887 55.4836 92.7212 54.903 91.9748 54.903C91.2283 54.903 91.0625 55.2348 91.0625 55.2348L90.8966 56.9764L89.3208 58.5522L87.828 59.7962L86.9157 60.045L86.584 61.1231L86.0864 61.289L85.34 61.6208L84.4277 62.2842L83.7642 63.5283L82.3543 63.9429C82.3543 63.4453 81.9396 62.3672 81.6908 61.8696C81.442 61.4549 80.4468 60.7914 80.4468 60.7914C80.4468 60.7914 79.7004 60.3767 79.5345 60.2938C79.3686 60.2938 78.3734 60.1279 78.3734 60.1279C78.3734 60.1279 77.5441 60.2938 77.3782 60.1279C77.2123 60.1279 76.6318 59.7133 76.6318 59.7133H75.9683L75.5536 60.8743L75.7195 61.7866L75.2219 62.7818C75.2219 62.7818 75.3877 63.7771 75.3877 64.0259C75.3877 64.2747 76.1342 65.6016 76.3 65.6846H77.3782L78.1246 65.8504C78.1246 65.8504 78.7051 66.3481 78.7881 66.5139C78.7881 66.6798 77.7929 67.4262 77.7929 67.4262L76.3 68.0068L75.3877 68.1726H74.3096L73.1485 68.7532L72.8997 69.5825L72.485 69.7484L70.9922 70.7436H70.3287C70.3287 70.7436 69.4994 71.0754 69.3335 70.9924C69.1676 70.9924 68.5871 70.3289 68.5871 70.3289H67.9236L67.2601 71.4071L67.5089 72.6511L67.8407 73.7293L68.0895 74.7245V75.8856C68.0895 75.8856 68.2553 76.632 68.2553 76.7979C68.2553 76.9637 67.7577 77.2125 67.7577 77.2125L66.3478 77.7102L64.9379 78.6224L64.5233 79.6177C64.5233 79.6177 63.8598 79.8665 63.4451 80.7788C63.0304 81.691 63.2792 83.1009 63.2792 83.1009L63.528 84.7596L63.1963 85.8378L63.3622 86.6671C63.3622 86.6671 64.1915 87.1648 64.5233 87.2477C64.855 87.3306 65.6843 86.916 65.6843 86.916L66.5966 86.7501L67.2601 86.1695L68.4212 85.4231H68.9188L70.2458 84.6767L71.4069 83.5156V82.7692C71.4069 82.4375 70.9922 81.8569 70.9922 81.8569H69.4994L69.914 81.1934L70.0799 80.447L70.4946 79.8665L71.3239 78.7883L71.4898 77.7931L72.568 77.6272L73.0656 77.1296L73.9778 78.1248C73.9778 78.1248 74.7243 78.7054 74.9731 78.7883C75.2219 78.7883 75.9683 78.4566 75.9683 78.4566L76.2171 77.2955L75.8024 76.632L75.056 75.9685L74.4755 75.5538L74.6413 74.3098L74.3925 73.8951L73.6461 72.9829C73.6461 72.9829 73.4802 72.5682 73.3144 72.2364C73.3144 71.9047 73.8949 71.573 74.3096 71.49C74.7243 71.4071 75.4707 71.9047 75.4707 71.9047L76.0512 72.4023C76.0512 72.4023 76.9635 72.5682 77.2952 72.6511C77.627 72.6511 77.5441 71.9876 77.5441 71.9876L77.8758 71.3242H78.2905C78.2905 71.3242 79.3686 70.9924 79.5345 70.9924C79.7004 70.9924 80.115 70.3289 80.115 70.3289V69.6655H80.7785H81.6079L82.2714 69.2508V68.5873L82.686 68.919H84.5106C84.6765 68.919 85.9205 68.4214 85.9205 68.4214C85.9205 68.4214 86.3352 67.675 86.4181 67.4262C86.4181 67.0945 86.2522 66.9286 86.2522 66.9286L86.501 66.6798L86.7498 65.6846L89.2379 66.0163C89.2379 66.0163 90.399 65.2699 90.8966 64.9382C91.3942 64.6064 92.887 62.7818 92.887 62.7818L93.4676 61.7037C93.4676 61.7037 94.214 61.372 94.4628 60.3767C94.7116 59.3815 94.4628 58.3863 94.4628 58.3863L94.2969 57.0593L94.1311 57.474L94.214 57.5569Z" stroke="black" stroke-width="0.5" stroke-linecap="round" stroke-linejoin="round"/>
<path d="M94.214 57.5569L94.0481 56.3958L93.0529 56.147L92.887 55.4836C92.887 55.4836 92.7212 54.903 91.9748 54.903C91.2283 54.903 91.0625 55.2348 91.0625 55.2348L90.8966 56.9764L89.3208 58.5522L87.828 59.7962L86.9157 60.045L86.584 61.1231L86.0864 61.289L85.34 61.6208L84.4277 62.2842L83.7642 63.5283L82.3543 63.9429C82.3543 63.4453 81.9396 62.3672 81.6908 61.8696C81.442 61.4549 80.4468 60.7914 80.4468 60.7914C80.4468 60.7914 79.7004 60.3767 79.5345 60.2938C79.3686 60.2938 78.3734 60.1279 78.3734 60.1279C78.3734 60.1279 77.5441 60.2938 77.3782 60.1279C77.2123 60.1279 76.6318 59.7133 76.6318 59.7133H75.9683L75.5536 60.8743L75.7195 61.7866L75.2219 62.7818C75.2219 62.7818 75.3877 63.7771 75.3877 64.0259C75.3877 64.2747 76.1342 65.6016 76.3 65.6846H77.3782L78.1246 65.8504C78.1246 65.8504 78.7051 66.3481 78.7881 66.5139C78.7881 66.6798 77.7929 67.4262 77.7929 67.4262L76.3 68.0068L75.3877 68.1726H74.3096L73.1485 68.7532L72.8997 69.5825L72.485 69.7484L70.9922 70.7436H70.3287C70.3287 70.7436 69.4994 71.0754 69.3335 70.9924C69.1676 70.9924 68.5871 70.3289 68.5871 70.3289H67.9236L67.2601 71.4071L67.5089 72.6511L67.8407 73.7293L68.0895 74.7245V75.8856C68.0895 75.8856 68.2553 76.632 68.2553 76.7979C68.2553 76.9637 67.7577 77.2125 67.7577 77.2125L66.3478 77.7102L64.9379 78.6224L64.5233 79.6177C64.5233 79.6177 63.8598 79.8665 63.4451 80.7788C63.0304 81.691 63.2792 83.1009 63.2792 83.1009L63.528 84.7596L63.1963 85.8378L63.3622 86.6671C63.3622 86.6671 64.1915 87.1648 64.5233 87.2477C64.855 87.3306 65.6843 86.916 65.6843 86.916L66.5966 86.7501L67.2601 86.1695L68.4212 85.4231H68.9188L70.2458 84.6767L71.4069 83.5156V82.7692C71.4069 82.4375 70.9922 81.8569 70.9922 81.8569H69.4994L69.914 81.1934L70.0799 80.447L70.4946 79.8665L71.3239 78.7883L71.4898 77.7931L72.568 77.6272L73.0656 77.1296L73.9778 78.1248C73.9778 78.1248 74.7243 78.7054 74.9731 78.7883C75.2219 78.7883 75.9683 78.4566 75.9683 78.4566L76.2171 77.2955L75.8024 76.632L75.056 75.9685L74.4755 75.5538L74.6413 74.3098L74.3925 73.8951L73.6461 72.9829C73.6461 72.9829 73.4802 72.5682 73.3144 72.2364C73.3144 71.9047 73.8949 71.573 74.3096 71.49C74.7243 71.4071 75.4707 71.9047 75.4707 71.9047L76.0512 72.4023C76.0512 72.4023 76.9635 72.5682 77.2952 72.6511C77.627 72.6511 77.5441 71.9876 77.5441 71.9876L77.8758 71.3242H78.2905C78.2905 71.3242 79.3686 70.9924 79.5345 70.9924C79.7004 70.9924 80.115 70.3289 80.115 70.3289V69.6655H80.7785H81.6079L82.2714 69.2508V68.5873L82.686 68.919H84.5106C84.6765 68.919 85.9205 68.4214 85.9205 68.4214C85.9205 68.4214 86.3352 67.675 86.4181 67.4262C86.4181 67.0945 86.2522 66.9286 86.2522 66.9286L86.501 66.6798L86.7498 65.6846L89.2379 66.0163C89.2379 66.0163 90.399 65.2699 90.8966 64.9382C91.3942 64.6064 92.887 62.7818 92.887 62.7818L93.4676 61.7037C93.4676 61.7037 94.214 61.372 94.4628 60.3767C94.7116 59.3815 94.4628 58.3863 94.4628 58.3863L94.2969 57.0593L94.1311 57.474L94.214 57.5569Z" stroke="black" stroke-width="0.5" stroke-linecap="round" stroke-linejoin="round"/>
<path d="M78.6224 74.3098L77.2125 75.2221L76.7148 75.7197C76.7148 76.0514 77.0466 76.3832 77.0466 76.3832H77.4613C77.4613 76.3832 78.0418 76.5491 78.2077 76.3832C78.3735 76.3832 79.037 75.8026 79.037 75.8026L79.2858 75.305V74.061H79.037L78.6224 74.3098Z" stroke="black" stroke-width="0.5" stroke-linecap="round" stroke-linejoin="round"/>
<path d="M78.6224 74.3098L77.2125 75.2221L76.7148 75.7197C76.7148 76.0514 77.0466 76.3832 77.0466 76.3832H77.4613C77.4613 76.3832 78.0418 76.5491 78.2077 76.3832C78.3735 76.3832 79.037 75.8026 79.037 75.8026L79.2858 75.305V74.061H79.037L78.6224 74.3098Z" stroke="black" stroke-width="0.5" stroke-linecap="round" stroke-linejoin="round"/>
<path d="M72.9826 60.6255C72.9826 60.6255 74.0608 60.6255 74.1437 60.6255C74.2267 60.6255 74.8072 60.3767 74.8902 59.962C74.8902 59.5474 74.5584 59.2156 74.4755 59.0498C74.4755 58.8839 73.7291 58.6351 73.2315 58.5521C72.7338 58.4692 72.3192 58.5521 72.3192 58.5521C72.0704 58.5521 71.6557 59.0498 71.5728 59.3815C71.5728 59.7962 71.8216 60.1279 71.8216 60.1279L72.8997 60.4597L72.9826 60.6255Z" stroke="black" stroke-width="0.5" stroke-linecap="round" stroke-linejoin="round"/>
<path d="M72.9826 60.6255C72.9826 60.6255 74.0608 60.6255 74.1437 60.6255C74.2267 60.6255 74.8072 60.3767 74.8902 59.962C74.8902 59.5474 74.5584 59.2156 74.4755 59.0498C74.4755 58.8839 73.7291 58.6351 73.2315 58.5521C72.7338 58.4692 72.3192 58.5521 72.3192 58.5521C72.0704 58.5521 71.6557 59.0498 71.5728 59.3815C71.5728 59.7962 71.8216 60.1279 71.8216 60.1279L72.8997 60.4597L72.9826 60.6255Z" stroke="black" stroke-width="0.5" stroke-linecap="round" stroke-linejoin="round"/>
<path d="M79.0367 52.0832C79.2025 52.0832 79.5343 52.6638 79.949 52.5808C80.3636 52.415 80.6954 51.9174 80.6954 51.9174C80.6954 51.9174 81.193 50.8392 81.193 50.7563C81.193 50.5904 80.8612 49.6781 80.7783 49.844C80.7783 49.844 79.3684 49.5952 79.1196 49.844C79.1196 49.844 78.5391 50.2587 78.5391 50.7563C78.5391 51.2539 78.9537 52.0832 79.1196 52.1662" stroke="black" stroke-width="0.5" stroke-linecap="round" stroke-linejoin="round"/>
<path d="M79.0367 52.0832C79.2025 52.0832 79.5343 52.6638 79.949 52.5808C80.3636 52.415 80.6954 51.9174 80.6954 51.9174C80.6954 51.9174 81.193 50.8392 81.193 50.7563C81.193 50.5904 80.8612 49.6781 80.7783 49.844C80.7783 49.844 79.3684 49.5952 79.1196 49.844C79.1196 49.844 78.5391 50.2587 78.5391 50.7563C78.5391 51.2539 78.9537 52.0832 79.1196 52.1662L79.0367 52.0832Z" stroke="black" stroke-width="0.5" stroke-linecap="round" stroke-linejoin="round"/>
<path d="M80.0322 48.4341L80.5298 47.9365L81.1104 47.0242L82.1885 47.19L82.852 46.029L83.9301 45.5313L84.4278 44.4532L84.7595 43.6238L83.4325 44.0385L80.5298 46.1119L79.4517 47.1071L79.7005 47.5218L80.0322 48.4341Z" stroke="black" stroke-width="0.5" stroke-linecap="round" stroke-linejoin="round"/>
<path d="M80.0322 48.4341L80.5298 47.9365L81.1104 47.0242L82.1885 47.19L82.852 46.029L83.9301 45.5313L84.4278 44.4532L84.7595 43.6238L83.4325 44.0385L80.5298 46.1119L79.4517 47.1071L79.7005 47.5218L80.0322 48.4341Z" stroke="black" stroke-width="0.5" stroke-linecap="round" stroke-linejoin="round"/>
<path d="M97.0337 45.6143L96.1214 44.6191L94.7944 44.3703L94.131 44.5361L93.4675 45.1167L93.1357 45.6143L93.7163 46.1948L94.7944 46.8583H96.1214L97.1996 46.5266L97.0337 46.1948V45.6143Z" stroke="black" stroke-width="0.5" stroke-linecap="round" stroke-linejoin="round"/>
<path d="M97.0337 45.6143L96.1214 44.6191L94.7944 44.3703L94.131 44.5361L93.4675 45.1167L93.1357 45.6143L93.7163 46.1948L94.7944 46.8583H96.1214L97.1996 46.5266L97.0337 46.1948V45.6143Z" stroke="black" stroke-width="0.5" stroke-linecap="round" stroke-linejoin="round"/>
<path d="M144.473 8.2935V133.608H10.3667" stroke="black" stroke-width="0.2" stroke-linecap="round" stroke-linejoin="round"/>
</svg>
