<?xml version="1.0" encoding="UTF-8"?>
<svg xmlns="http://www.w3.org/2000/svg" version="1.1" viewBox="0 0 711.4 575.5">
  <defs>
    <style>
      .cls-1 {
        fill: #231815;
      }

      .cls-2, .cls-3 {
        fill: #fff;
      }

      .cls-4 {
        fill: none;
        stroke: #fff;
        stroke-linecap: round;
        stroke-width: .5px;
      }

      .cls-4, .cls-5 {
        stroke-miterlimit: 10;
      }

      .cls-3, .cls-6 {
        display: none;
      }

      .cls-5 {
        fill: #b7282e;
        stroke: #b7282e;
      }
    </style>
  </defs>
  <!-- Generator: Adobe Illustrator 28.7.1, SVG Export Plug-In . SVG Version: 1.2.0 Build 142)  -->
  <g>
    <g id="_レイヤー_1" data-name="レイヤー_1">
      <g id="_レイヤー_1-2" data-name="_レイヤー_1">
        <g id="_レイヤー_1-2">
          <g>
            <g id="_レイヤー_2" class="cls-6">
              <rect class="cls-1" x="-154.2" y="-29.3" width="941" height="637"/>
            </g>
            <g id="_レイヤー_3">
              <path class="cls-2" d="M30.8,408.4l.4-1.2s1.1-.6,1.1-1.5.2-3.5.3-4.3l.2-.3c.4-.1,1.3-.5,1.6-1.1.4-.7.6-2.1.6-2.1l4.1-3s.6-1.7.4-2.2c-.2-.5,0-1.3,0-1.3l1.3-1.2s.6-1.5-1-2c-1.5-.6-2.8,1.6-2.8,1.6l-2.1-.3-1.1,1s-.8,1.2-.6,1.5.8,2,.8,2l-.8,1.4-1,1.7-1.1.5s-.6,2.1,0,2.6c.4.3.9.6,1.2.8v.3c-1.1.3-4.6,1.3-5.3,1.3l-.5,2.2-.6.4-.5,2.8-.7.6s-.6,2.6,1.1,2.5c1.7,0,3.3-.9,3.3-.9l.9-1.1.7-.6h.1Z"/>
              <path class="cls-2" d="M30.8,408.4l.4-1.2s1.1-.6,1.1-1.5.2-3.5.3-4.3l.2-.3c.4-.1,1.3-.5,1.6-1.1.4-.7.6-2.1.6-2.1l4.1-3s.6-1.7.4-2.2c-.2-.5,0-1.3,0-1.3l1.3-1.2s.6-1.5-1-2c-1.5-.6-2.8,1.6-2.8,1.6l-2.1-.3-1.1,1s-.8,1.2-.6,1.5.8,2,.8,2l-.8,1.4-1,1.7-1.1.5s-.6,2.1,0,2.6c.4.3.9.6,1.2.8v.3c-1.1.3-4.6,1.3-5.3,1.3l-.5,2.2-.6.4-.5,2.8-.7.6s-.6,2.6,1.1,2.5c1.7,0,3.3-.9,3.3-.9l.9-1.1.7-.6h.1Z"/>
              <path class="cls-2" d="M45.2,426.9c3.2.2,2.5-3.1,2.5-3.1v-1.4s.4-2.2-2.1-2.1c-2.6,0-2.3,3.5-2.3,3.5,0,0,.2,2.7,1.9,3.1"/>
              <path class="cls-2" d="M45.2,426.9c3.2.2,2.5-3.1,2.5-3.1v-1.4s.4-2.2-2.1-2.1c-2.6,0-2.3,3.5-2.3,3.5,0,0,.2,2.7,1.9,3.1Z"/>
              <path class="cls-2" d="M14.3,452.4c-.4,1,.4,2.2.4,2.2l1.7.3,1-3.3-1.6-.5s-1.1.3-1.5,1.3"/>
              <path class="cls-2" d="M14.3,452.4c-.4,1,.4,2.2.4,2.2l1.7.3,1-3.3-1.6-.5s-1.1.3-1.5,1.3Z"/>
              <path class="cls-2" d="M1.7,464.9s.6.4,1,.6c.4.2,1-.8,1-.8l.2-1.3.3.2s1.2.4,2.6,0,0-1.6,0-1.6v-.8s-.2-.8-.5-1.4c-.2-.5-.8,0-.8,0h-.7l-1-.4s-.6-.2-1.6,0-.5,1.7-.5,1.7l-1,.9s0,1-.4,1.7c-.3.7,1.2,1.1,1.2,1.1"/>
              <path class="cls-2" d="M1.7,464.9s.6.4,1,.6c.4.2,1-.8,1-.8l.2-1.3.3.2s1.2.4,2.6,0,0-1.6,0-1.6v-.8s-.2-.8-.5-1.4c-.2-.5-.8,0-.8,0h-.7l-1-.4s-.6-.2-1.6,0-.5,1.7-.5,1.7l-1,.9s0,1-.4,1.7c-.3.7,1.2,1.1,1.2,1.1h.2,0Z"/>
              <path class="cls-2" d="M42,486h-.3l-.9,1.8.6-.2-.3.4.4.4v.6h-.5v.9h.5c0-.1.5.7.5.7h.4v-.8l.4.4.3-.2.9.2,3-2.8s.2.2.5-.1c.3-.3,0-.4,0-.4l1.1-1.2v.6l.4.3h.5l.3-.6.7-.7v-.7l-.7-.7.8-1.1.8,1.3v.6l-.3.5.7.4.6-1.5.6.6s.4.9.7,1c.3.2,1.2.1,1.2.1l.9-1,.3-.2v.7l-.2.6.4.4v.2l.2-.3.4-.5h.4l.6-.5.6-1.5v-1.1l1-1.6-.2-1.8s-.7-.4-1.2-.3c-.5,0-1.5.7-1.5.7l-.2.6-.2-.8-.2-.5-1.1-.4-.9.3-.6.5-1.1.4s-1.9.7-1.9,1.4c0-.1.3-1.8.3-1.8v-2.1l-1.3-.3s-3.4-.5-4.2-.3c0,0-1.2.2-1.2.5v.8l.2.7-.8.9-.7,1.4-.4.6-.9,1.1s-.5.9-.5,1.2.4,1.2.4,1.2c0,0-.4.6,1.9.8,0,0-.2.1-.7.2-.3,0-.5-.3-1-.2"/>
              <path class="cls-2" d="M42,486h-.3l-.9,1.8.6-.2-.3.4.4.4v.6h-.5v.9h.5c0-.1.5.7.5.7h.4v-.8l.4.4.3-.2.9.2,3-2.8s.2.2.5-.1c.3-.3,0-.4,0-.4l1.1-1.2v.6l.4.3h.5l.3-.6.7-.7v-.7l-.7-.7.8-1.1.8,1.3v.6l-.3.5.7.4.6-1.5.6.6s.4.9.7,1c.3.2,1.2.1,1.2.1l.9-1,.3-.2v.7l-.2.6.4.4v.2l.2-.3.4-.5h.4l.6-.5.6-1.5v-1.1l1-1.6-.2-1.8s-.7-.4-1.2-.3c-.5,0-1.5.7-1.5.7l-.2.6-.2-.8-.2-.5-1.1-.4-.9.3-.6.5-1.1.4s-1.9.7-1.9,1.4c0-.1.3-1.8.3-1.8v-2.1l-1.3-.3s-3.4-.5-4.2-.3c0,0-1.2.2-1.2.5v.8l.2.7-.8.9-.7,1.4-.4.6-.9,1.1s-.5.9-.5,1.2.4,1.2.4,1.2c0,0-.4.6,1.9.8,0,0-.2.1-.7.2-.3,0-.5-.3-1-.2l.4.2h0Z"/>
              <path class="cls-2" d="M113.6,471.5l.9-1.5-1.6-3.3-.7-1.2h-1.3l3.2-3.4s1.3-1.9-.4-2.2c-1.7-.4-6-.9-6-.9,0,0-1.3.6-2.4.4-1.2-.1-2.6-1.5-2.6-1.5v-1.9l-.2-.8,2.2-.2,1.9.2.6-.4.3-2.3v1l1.9.2s.9-1,1.1-1.4c0-.4,1.1-1.9,1.1-1.9,0,0,1.3-1.5,1-2.7-.3-1.1-.5-1.8-.5-1.8l-.3-1.6s-4.5-3.7-5.6-3.7-2.9,1.3-3,1.8c0,.5-.9,2-1.5,1.8s-1.7-.8-1.7-.8l-2-1-1.3-.6-2.3-.9h-1.1s-3-.2-3.3-1.2c-.2-.9,0-2.3,0-2.3l-1.2-3.4-.6-1.4.5-1-.6-1.8s1.9-1.6,1.9-2.2.4-1.6-1.2-1.5l-2.2,1.1-1.8-1.1h-1.4l-1.7,1.5,1.6-2-.4-1.2-3.5-.6s-.9-.4-1.1,1.9h-5.3s-1.7.8-1.9,1.1c-.2.3-1.1,2.2-1.1,2.2l-.3,1.2-1.7,1.3-.4,1.1v.6l-.6.7v1.6l-3-.4-1,.4-1.9-3.7s-1.5-.2-1.9.5-3,0-2.9,1.5c0,1.5,1.2,2.4,1.2,2.4l-1.6.6-.6,1.5h-3l-1,.3.4-2s-.5-1-2.1-1.2c-1.7-.2-2,.4-2,.4l-.4,1.3-.4-.5-1.1-.4s-1.3,0-1.1,1.3c.2,1,1.3,1.7,1.3,1.7l.6,1.3-.8,1.1-1.1.9,1,1.7-1.7-2.2c-.2-.2-.5-1.9-1.5-1.9s-1.6.5-1.6.5c0,0-.6-1.7-1.9-1.9-1.3-.2-2.5.7-2.6,1.1,0,.1,0,.4-.2.6,0-.2-3.2-.8-4.3-.9,0,0-1.2,1.5-1.5,1.9-.2.3-.6,2,0,2.4s1.8.3,2.1,0,.8-1,.8-1c0,0,2.8-2.2,2.8-2.4v.5l.2.8.8.8-.8,1.1s-1.5,1.4-1.5,1.9.5,1.3.5,1.3l1.7.3s.6,1.7.9,2.2c.3.5,2.5.9,2.5.9,0,0,1.5.9,1.5,1.5v1.9s.3.8,2,1.1c1,.2,1.2,1.3,1.2,1.3v1.5l-.2,3.2,1.1,1.7.2,1.1-3.6-1.3-1.5-1v-1.7s1.4-.7,1.3-1.6c0-.9-1-2.1-1-2.1l-.7-.5-.3-1.6s-.9-2.1-2-2c-1.1,0-1.3.7-1.3.7l-.2,1.5-.4.2-.5,1.9-.6.3-.3,2.1.4,1.3s1.1,2.8,1.8,3.4c.8.6,1.8.9,1.8.9l-.5,2.1s.5,1.7,1.2,1.7,1.2-.2,1.2-.2l-2.6,2.8s-.4,2.1,1.1,2.1,3.2-2.4,3.2-2.4c0,0,1.4-2.2,1.8-2.2s1.7-.1,1.7-.1l.7-.3,1.6.3,1.2-.4,1.2.6,1.5.4.2.5-2.9,2.6-.4,1,.4,1.1v1.4s-.2,1.4,1.9.9c1.1-.2,2.2-.7,2.2-.7h1.4l.9-.3s1.6-.1,2-1.3c.4-1.1.5-2.2.5-2.2,0,0,.9-.4,1-1.9,0-1.5-.3-2.6-.3-2.6,0,0,0-1-1.3-1.1s-1.7-.2-1.7-.2l-.8-.9-4.3-.4s3-1.7,3-2.1-.2-1.7-.2-1.7c0,0,.9-1.3,1.1-1.8.2-.5-.2-1.3-.2-1.3l-.4-.6v-1.7l.3-.4s3.4-2.5,3.7-2.5,2.4,2.6,2.4,2.6l1.8,3.2v3.3l-.8,1.5v1.3l4.8,6.5-.8,2.8-3.7,2.3s-3.2,2.4-2.8,3.5c.5.4,6.8-.9,6.8-.9l-3.2,3-.9,4.9-4.2,3.5-4.6,4.4-2.8,2.3-2.4-1.4s-1.9.6-2,1-.6,3.1-.6,3.1l.4.7-.3,2.8.7,1.5s-2.6,3.1-2.7,3.5c0,.4-.4.8,2.1,4.3.7,1.5,1.1,3.7,1.1,3.7l.4,2.4-3.7,6-3.3-.2s-1.3-.4-.6,2c.9,1.1.9,1.6.9,1.6l.3,1.4-.2,1.7s0,1.3,1.6,1.6c1.7.3,6.4.8,6.4.8,0,0,1.5,3.2,1.9,3.7s2.2,1.1,3.6.3c1.4-.8,1.7-1.3,1.7-1.3,0,0,.6-.5.6-1.2s0-2.8-2.1-3l-.7-.6.3-2.3-.4-1v-3.9l3-4.2,1.2-.9.4-2s.9-1.6,2.8-1.4c1.1.3,4,4.2,3.8,4.5-.2.3-2.8,2.7-2.8,2.7l-.9-.4-1.9,1.4-.4,3.3,3,5.6-.8,2.2-.9.7-.6,1.1-.6,1.8-.6,1.4s-2.8,1.2-3.1,1.5c-.2.3-1.5,3.7.4,3.6s11.5-3.8,11.9-4.3c.3-.4.8-1.9.8-1.9h1.3s3.1-2.1,3.4-3.2c.2-1.3-1.7-2.8-2.1-2.8s0-1.1,0-1.1c0,0,1.5-1.4,2.5-1.4s1.8.2,1.8.2l4.2,4.6s1.8,1.4,2.8-.4c.6-1.8,1.3-3.6,1.3-3.6l.8-2.9,3.1-2.6,1.3-2.2,1.1-7.1,1-1,.7-5.5,1-1.8,2.5-3.6.3-1.6.6-.4.6-1.6.4-1.2,4.2-3.9.4-1.3-.6-.9,1.7-1.4.6-3.2,7.1-4.9s.7-.5,0-1.7c-.7-.9-.2-1-.2-1l1.6-.2.9-.5,1.4.6.5-1.7,1.8-1.6.3-3.3-1.9-.9-.9-1v-.7h0Z"/>
              <path class="cls-2" d="M113.6,471.5l.9-1.5-1.6-3.3-.7-1.2h-1.3l3.2-3.4s1.3-1.9-.4-2.2c-1.7-.4-6-.9-6-.9,0,0-1.3.6-2.4.4-1.2-.1-2.6-1.5-2.6-1.5v-1.9l-.2-.8,2.2-.2,1.9.2.6-.4.3-2.3v1l1.9.2s.9-1,1.1-1.4c0-.4,1.1-1.9,1.1-1.9,0,0,1.3-1.5,1-2.7-.3-1.1-.5-1.8-.5-1.8l-.3-1.6s-4.5-3.7-5.6-3.7-2.9,1.3-3,1.8c0,.5-.9,2-1.5,1.8s-1.7-.8-1.7-.8l-2-1-1.3-.6-2.3-.9h-1.1s-3-.2-3.3-1.2c-.2-.9,0-2.3,0-2.3l-1.2-3.4-.6-1.4.5-1-.6-1.8s1.9-1.6,1.9-2.2.4-1.6-1.2-1.5l-2.2,1.1-1.8-1.1h-1.4l-1.7,1.5,1.6-2-.4-1.2-3.5-.6s-.9-.4-1.1,1.9h-5.3s-1.7.8-1.9,1.1c-.2.3-1.1,2.2-1.1,2.2l-.3,1.2-1.7,1.3-.4,1.1v.6l-.6.7v1.6l-3-.4-1,.4-1.9-3.7s-1.5-.2-1.9.5-3,0-2.9,1.5c0,1.5,1.2,2.4,1.2,2.4l-1.6.6-.6,1.5h-3l-1,.3.4-2s-.5-1-2.1-1.2c-1.7-.2-2,.4-2,.4l-.4,1.3-.4-.5-1.1-.4s-1.3,0-1.1,1.3c.2,1,1.3,1.7,1.3,1.7l.6,1.3-.8,1.1-1.1.9,1,1.7-1.7-2.2c-.2-.2-.5-1.9-1.5-1.9s-1.6.5-1.6.5c0,0-.6-1.7-1.9-1.9-1.3-.2-2.5.7-2.6,1.1,0,.1,0,.4-.2.6,0-.2-3.2-.8-4.3-.9,0,0-1.2,1.5-1.5,1.9-.2.3-.6,2,0,2.4s1.8.3,2.1,0,.8-1,.8-1c0,0,2.8-2.2,2.8-2.4v.5l.2.8.8.8-.8,1.1s-1.5,1.4-1.5,1.9.5,1.3.5,1.3l1.7.3s.6,1.7.9,2.2c.3.5,2.5.9,2.5.9,0,0,1.5.9,1.5,1.5v1.9s.3.8,2,1.1c1,.2,1.2,1.3,1.2,1.3v1.5l-.2,3.2,1.1,1.7.2,1.1-3.6-1.3-1.5-1v-1.7s1.4-.7,1.3-1.6c0-.9-1-2.1-1-2.1l-.7-.5-.3-1.6s-.9-2.1-2-2c-1.1,0-1.3.7-1.3.7l-.2,1.5-.4.2-.5,1.9-.6.3-.3,2.1.4,1.3s1.1,2.8,1.8,3.4c.8.6,1.8.9,1.8.9l-.5,2.1s.5,1.7,1.2,1.7,1.2-.2,1.2-.2l-2.6,2.8s-.4,2.1,1.1,2.1,3.2-2.4,3.2-2.4c0,0,1.4-2.2,1.8-2.2s1.7-.1,1.7-.1l.7-.3,1.6.3,1.2-.4,1.2.6,1.5.4.2.5-2.9,2.6-.4,1,.4,1.1v1.4s-.2,1.4,1.9.9c1.1-.2,2.2-.7,2.2-.7h1.4l.9-.3s1.6-.1,2-1.3c.4-1.1.5-2.2.5-2.2,0,0,.9-.4,1-1.9,0-1.5-.3-2.6-.3-2.6,0,0,0-1-1.3-1.1s-1.7-.2-1.7-.2l-.8-.9-4.3-.4s3-1.7,3-2.1-.2-1.7-.2-1.7c0,0,.9-1.3,1.1-1.8.2-.5-.2-1.3-.2-1.3l-.4-.6v-1.7l.3-.4s3.4-2.5,3.7-2.5,2.4,2.6,2.4,2.6l1.8,3.2v3.3l-.8,1.5v1.3l4.8,6.5-.8,2.8-3.7,2.3s-3.2,2.4-2.8,3.5c.5.4,6.8-.9,6.8-.9l-3.2,3-.9,4.9-4.2,3.5-4.6,4.4-2.8,2.3-2.4-1.4s-1.9.6-2,1-.6,3.1-.6,3.1l.4.7-.3,2.8.7,1.5s-2.6,3.1-2.7,3.5c0,.4-.4.8,2.1,4.3.7,1.5,1.1,3.7,1.1,3.7l.4,2.4-3.7,6-3.3-.2s-1.3-.4-.6,2c.9,1.1.9,1.6.9,1.6l.3,1.4-.2,1.7s0,1.3,1.6,1.6c1.7.3,6.4.8,6.4.8,0,0,1.5,3.2,1.9,3.7s2.2,1.1,3.6.3c1.4-.8,1.7-1.3,1.7-1.3,0,0,.6-.5.6-1.2s0-2.8-2.1-3l-.7-.6.3-2.3-.4-1v-3.9l3-4.2,1.2-.9.4-2s.9-1.6,2.8-1.4c1.1.3,4,4.2,3.8,4.5-.2.3-2.8,2.7-2.8,2.7l-.9-.4-1.9,1.4-.4,3.3,3,5.6-.8,2.2-.9.7-.6,1.1-.6,1.8-.6,1.4s-2.8,1.2-3.1,1.5c-.2.3-1.5,3.7.4,3.6s11.5-3.8,11.9-4.3c.3-.4.8-1.9.8-1.9h1.3s3.1-2.1,3.4-3.2c.2-1.3-1.7-2.8-2.1-2.8s0-1.1,0-1.1c0,0,1.5-1.4,2.5-1.4s1.8.2,1.8.2l4.2,4.6s1.8,1.4,2.8-.4c.6-1.8,1.3-3.6,1.3-3.6l.8-2.9,3.1-2.6,1.3-2.2,1.1-7.1,1-1,.7-5.5,1-1.8,2.5-3.6.3-1.6.6-.4.6-1.6.4-1.2,4.2-3.9.4-1.3-.6-.9,1.7-1.4.6-3.2,7.1-4.9s.7-.5,0-1.7c-.7-.9-.2-1-.2-1l1.6-.2.9-.5,1.4.6.5-1.7,1.8-1.6.3-3.3-1.9-.9-.9-1v-.7h0Z"/>
              <path class="cls-2" d="M46.5,566.4s-2.3-1.7-2.8-2c0,0-3.9.3-4.9,1.6-.6,1.3-.6,3.1-.6,3.1l.6,2.8,2.1,2.6,2.8.6,1.9-1.2,3.2-1.8s.8-2.3.5-2.8c-.3-.6-2.8-2.8-2.8-2.8"/>
              <path class="cls-2" d="M46.5,566.4s-2.3-1.7-2.8-2c0,0-3.9.3-4.9,1.6-.6,1.3-.6,3.1-.6,3.1l.6,2.8,2.1,2.6,2.8.6,1.9-1.2,3.2-1.8s.8-2.3.5-2.8c-.3-.6-2.8-2.8-2.8-2.8h0Z"/>
              <path class="cls-2" d="M65,554.6c-2,0-1.2,1.3-1.2,1.3l-2.3,1.9-1.2,1.1-.6,2.2-.6,4.6-2.9,1.7-.5,3.5s.8,2.3,2,2.2c1.2,0,2-1.4,2-1.4l.6-2.8,1.9-2.4.7-1.2.8-1.4,1.3-1.2v-1.8l1.1-.6.7-4.3s0-1.3-1.9-1.3"/>
              <path class="cls-2" d="M65,554.6c-2,0-1.2,1.3-1.2,1.3l-2.3,1.9-1.2,1.1-.6,2.2-.6,4.6-2.9,1.7-.5,3.5s.8,2.3,2,2.2c1.2,0,2-1.4,2-1.4l.6-2.8,1.9-2.4.7-1.2.8-1.4,1.3-1.2v-1.8l1.1-.6.7-4.3s0-1.3-1.9-1.3h.1Z"/>
              <path class="cls-2" d="M215.7,449.4l-2.8-3.8,1.2-2.3s1.1-1.3,1.8-2.4c.6-1.1-1.8-2-1.8-2v-1c0-.2-.6-.6-1.2-.9-.6-.2-1.5.4-1.5.4l-2.2-.4s-.8.7-1.1,0-4.1-3-4.1-3v-2.6c0-1.1-1.5-1.9-1.9-1.9s-1.7.8-1.7.8v-1.1s-.7-.3-1.5-.5c-.7-.2-1.8.6-2.2.6s-2.2-1-2.2-1l-2.7-.8-2.6,1.4-2.3,1.3-1.1.5-3.2,1.9s-.9-.2-1.4-.2-.7,1.5-.7,1.5l-.8,1.5-1.4,2.9v1.7l-2.8,1.5-1.4-.7-1.6-.4-1-.8-3.6-.2-.9.2h-1.1l-1.1.5-1.3.3s-1.5.5-1.9.3-.4-1.9-.4-1.9l-.3-.9-.8-1.5-1.1-.8v-1.3s-.2-1.5-.9-2.4c-.6-.8-1.9-.7-2.4-.8-.6,0,0,1.8,0,1.8v1.3h-2.7s-1.5.5-2,.5-1.9,1.6-1.9,1.6l-.8,1.3-.7,2-.6,1.9-1,1.9-1.5,2.8-1.2,1.3-2.1.8-1.6.9-2,.5-2.4.9-3.2,1.6s-.7-.4-1.7.6c-1,1.1,0,2.4,0,2.4l1.5.2,1.9.6c-.8,0-1.3,1.8-1.5,2.3s.8,1.2.6,1.6c-.1.4,0,1.5,0,1.5l3.5.9.2,1.7s.8,1.2.8,1.4-3.6,3-3.7,3.2c-.1.2.2,1.3.2,1.3l-.7.6-.3,3.3,1.4,2.6v1.5l1.5.5s.2,1,1,1.1c.8.2,2.2-.5,2.3-.5h0l1.1,1.9s-.6.3-1.3.2c-.6,0-1.7,2-2,2.6s.9,1.7,1.2,1.8c.3,0,1.3-.4,1.5-.5.2,0,1.5,1.5,1.5,1.5,0,0,.5.7,1.9,1.2s2.2-.7,2.2-.7c0,0,1.1.4,2.3.4s1.4-1.6,1.4-1.6v-.4l.2-.5,1.7-1.3.8-4.9h2.1s.7-.4,1.2-.6c.4-.2,2.2-3,2.2-3l1.5-1.6s1.7,0,2.1-.2c.4,0,.2-1.1.2-1.3s1.5-1.2,1.5-1.2l.3-3.7-.3-.9,1.7-1.4s.5.7,1.1.8c.6,0,.8-1.5.8-1.5l2.4-.6,1.1-.3,1.1-.5,1.6-.2s1.4,0,1.9-.3c.6-.2.5-1.4.5-1.4,0,0,.8.8,1.3,1s1.6-1,1.6-1l2.4.6,1-.5,1,.6,1.1,1.1s1.4,1.1,1.8,1.3c.4.2,3,2.4,3,2.4,0,0,4.9,9.1,5.8,9.2.9.2,2.3-2.4,2.3-2.4l.6-.5.4-1.8.6-1.5,1.1-1.4.7-1.9,1-.5.2-1.5,1.9-1.7.8-.7,3.1-2,3.1-1.1s4-1.4,6.3-2.1,0-2.8,0-2.8l-1.6-.5s1.8-.9,2.7-1.9-.4-2.1-.4-2.1"/>
              <path class="cls-2" d="M215.7,449.4l-2.8-3.8,1.2-2.3s1.1-1.3,1.8-2.4c.6-1.1-1.8-2-1.8-2v-1c0-.2-.6-.6-1.2-.9-.6-.2-1.5.4-1.5.4l-2.2-.4s-.8.7-1.1,0-4.1-3-4.1-3v-2.6c0-1.1-1.5-1.9-1.9-1.9s-1.7.8-1.7.8v-1.1s-.7-.3-1.5-.5c-.7-.2-1.8.6-2.2.6s-2.2-1-2.2-1l-2.7-.8-2.6,1.4-2.3,1.3-1.1.5-3.2,1.9s-.9-.2-1.4-.2-.7,1.5-.7,1.5l-.8,1.5-1.4,2.9v1.7l-2.8,1.5-1.4-.7-1.6-.4-1-.8-3.6-.2-.9.2h-1.1l-1.1.5-1.3.3s-1.5.5-1.9.3-.4-1.9-.4-1.9l-.3-.9-.8-1.5-1.1-.8v-1.3s-.2-1.5-.9-2.4c-.6-.8-1.9-.7-2.4-.8-.6,0,0,1.8,0,1.8v1.3h-2.7s-1.5.5-2,.5-1.9,1.6-1.9,1.6l-.8,1.3-.7,2-.6,1.9-1,1.9-1.5,2.8-1.2,1.3-2.1.8-1.6.9-2,.5-2.4.9-3.2,1.6s-.7-.4-1.7.6c-1,1.1,0,2.4,0,2.4l1.5.2,1.9.6c-.8,0-1.3,1.8-1.5,2.3s.8,1.2.6,1.6c-.1.4,0,1.5,0,1.5l3.5.9.2,1.7s.8,1.2.8,1.4-3.6,3-3.7,3.2c-.1.2.2,1.3.2,1.3l-.7.6-.3,3.3,1.4,2.6v1.5l1.5.5s.2,1,1,1.1c.8.2,2.2-.5,2.3-.5h0l1.1,1.9s-.6.3-1.3.2c-.6,0-1.7,2-2,2.6s.9,1.7,1.2,1.8c.3,0,1.3-.4,1.5-.5.2,0,1.5,1.5,1.5,1.5,0,0,.5.7,1.9,1.2s2.2-.7,2.2-.7c0,0,1.1.4,2.3.4s1.4-1.6,1.4-1.6v-.4l.2-.5,1.7-1.3.8-4.9h2.1s.7-.4,1.2-.6c.4-.2,2.2-3,2.2-3l1.5-1.6s1.7,0,2.1-.2c.4,0,.2-1.1.2-1.3s1.5-1.2,1.5-1.2l.3-3.7-.3-.9,1.7-1.4s.5.7,1.1.8c.6,0,.8-1.5.8-1.5l2.4-.6,1.1-.3,1.1-.5,1.6-.2s1.4,0,1.9-.3c.6-.2.5-1.4.5-1.4,0,0,.8.8,1.3,1s1.6-1,1.6-1l2.4.6,1-.5,1,.6,1.1,1.1s1.4,1.1,1.8,1.3c.4.2,3,2.4,3,2.4,0,0,4.9,9.1,5.8,9.2.9.2,2.3-2.4,2.3-2.4l.6-.5.4-1.8.6-1.5,1.1-1.4.7-1.9,1-.5.2-1.5,1.9-1.7.8-.7,3.1-2,3.1-1.1s4-1.4,6.3-2.1,0-2.8,0-2.8l-1.6-.5s1.8-.9,2.7-1.9-.4-2.1-.4-2.1l-.6.3h0Z"/>
              <path class="cls-2" d="M204.3,427.3c.4.1,1.2-.1,1.2-.1.2.2.3,1.1,1.1,1.2s1.3-.5,1.3-.5l.3-1.9s.5-.4.6-1.4c.2-.9-.2-1.5-.2-1.5l-2.7-.6s-.8,0-2.1.4c-1.5.7-1.1,2.7-1.1,2.7,0,0,1.2,1.4,1.6,1.5"/>
              <path class="cls-2" d="M204.3,427.3c.4.1,1.2-.1,1.2-.1.2.2.3,1.1,1.1,1.2s1.3-.5,1.3-.5l.3-1.9s.5-.4.6-1.4c.2-.9-.2-1.5-.2-1.5l-2.7-.6s-.8,0-2.1.4c-1.5.7-1.1,2.7-1.1,2.7,0,0,1.2,1.4,1.6,1.5v.2h0Z"/>
              <path class="cls-2" d="M171.6,350.6c.7.3,2.5.5,2.5.5l1-1.8,1.6-.4s.9-1.7.9-2.4-1.6-4.1-3.2-4.1-3.4,1.8-3.5,2.2c0,.4-.8,2.1-.6,2.5s.5,3.1,1.2,3.3"/>
              <path class="cls-2" d="M171.6,350.6c.7.3,2.5.5,2.5.5l1-1.8,1.6-.4s.9-1.7.9-2.4-1.6-4.1-3.2-4.1-3.4,1.8-3.5,2.2c0,.4-.8,2.1-.6,2.5s.5,3.1,1.2,3.3v.2h.1Z"/>
              <polygon class="cls-2" points="162.1 358.6 162.6 357 164.5 358.6 168.1 358.5 166.6 355.4 165.8 353.8 167.1 350.4 165.5 351.9 162.6 353.9 160.7 355.2 158.7 358.6 160.7 360.4 162.1 358.6"/>
              <polygon class="cls-2" points="162.1 358.6 162.6 357 164.5 358.6 168.1 358.5 166.6 355.4 165.8 353.8 167.1 350.4 165.5 351.9 162.6 353.9 160.7 355.2 158.7 358.6 160.7 360.4 162.1 358.6"/>
              <polygon class="cls-2" points="169.5 356.8 168.1 360.4 171.8 358.5 172.5 355.4 171.8 353.8 168.1 353 168.9 355.4 169.5 356.8"/>
              <polygon class="cls-2" points="169.5 356.8 168.1 360.4 171.8 358.5 172.5 355.4 171.8 353.8 168.1 353 168.9 355.4 169.5 356.8"/>
              <polygon class="cls-2" points="165.8 361.8 162.6 360.4 161.3 361.8 163.4 364.5 163.4 363.6 166 365 168.1 365 168.1 363.8 169.4 361.8 167.1 363 165.8 361.8"/>
              <polygon class="cls-2" points="165.8 361.8 162.6 360.4 161.3 361.8 163.4 364.5 163.4 363.6 166 365 168.1 365 168.1 363.8 169.4 361.8 167.1 363 165.8 361.8"/>
              <polygon class="cls-2" points="133.9 423.1 133.9 423.1 133.6 423.3 133.9 423.1"/>
              <polygon class="cls-2" points="133.9 423.1 133.9 423.1 133.6 423.3 133.9 423.1"/>
              <path class="cls-2" d="M142.6,431.7c2.1-.6,2.1-2.5,2.1-2.5,0,0-1.3-2.3-1.8-2.3s-1.7.5-1.7,1.5v1.7s-.6,2.2,1.5,1.6"/>
              <path class="cls-2" d="M142.6,431.7c2.1-.6,2.1-2.5,2.1-2.5,0,0-1.3-2.3-1.8-2.3s-1.7.5-1.7,1.5v1.7s-.6,2.2,1.5,1.6h-.1Z"/>
              <path class="cls-2" d="M162.1,428.4c.6-1.2.8-2.4,0-2.4s-2.4,0-2.8.9c0,0-1,2.2-.4,2.2s2.6.6,3.2-.6"/>
              <path class="cls-2" d="M162.1,428.4c.6-1.2.8-2.4,0-2.4s-2.4,0-2.8.9c0,0-1,2.2-.4,2.2s2.6.6,3.2-.6h0Z"/>
              <path class="cls-2" d="M133,437.8s.9.2.9-.8-1.2-2.9-2.3-3c-1.1,0-1.9,1.2-1.9,1.2,0,0-1.1,3.6.6,3.5,1.7-.2,2.8-.9,2.8-.9"/>
              <path class="cls-2" d="M133,437.8s.9.2.9-.8-1.2-2.9-2.3-3c-1.1,0-1.9,1.2-1.9,1.2,0,0-1.1,3.6.6,3.5,1.7-.2,2.8-.9,2.8-.9h-.1Z"/>
              <path class="cls-2" d="M231.4,426.2c0-.4-.9-.9-1.7-.7l-11.8,8.4s-.7,1.4-.8,2.2c-.1.8,0,1.8.3,1.8s1.2.4,1.4,0-.4,1.5-.4,1.5c0,0,.2,1.5.9,1.4.7,0,1.9-.4,1.9-.4l5.4-1.6s.6-.8.7-1.3c0-.5-.4-1.6-.4-1.6v-1.6l-.3-.3-.3-2.1,1.9-1.3.2-1,2.7-2.3s.3-.9.3-1.3"/>
              <path class="cls-2" d="M231.4,426.2c0-.4-.9-.9-1.7-.7l-11.8,8.4s-.7,1.4-.8,2.2c-.1.8,0,1.8.3,1.8s1.2.4,1.4,0-.4,1.5-.4,1.5c0,0,.2,1.5.9,1.4.7,0,1.9-.4,1.9-.4l5.4-1.6s.6-.8.7-1.3c0-.5-.4-1.6-.4-1.6v-1.6l-.3-.3-.3-2.1,1.9-1.3.2-1,2.7-2.3s.3-.9.3-1.3v.2h0Z"/>
              <g id="_島">
                <path class="cls-2" d="M359.5,308.7c2.2-.3,2.9-.2,3.3-.5.4-.2,6-3.5,6-3.5l.2-2,1-1.7s.7-1.3.7-1.7-1.8-1.6-3.3-1.8c-1.5-.1-.1-2.1-.1-2.1,0,0,.9-1.2,1-1.6,0-.4.3-1.3.3-1.3,0,0,1.3-1.5,1.1-3.4,0-.7-1.6-.7-2.4,0,0,0-5.7,5.2-6.4,6-.6.9-1.2,4.3-1.2,4.8s2,1.5,2.3,1.8-.1,1.1-.1,1.1l-3.2,3.1s-1.4,3.1.8,2.7"/>
                <path class="cls-2" d="M359.5,308.7c2.2-.3,2.9-.2,3.3-.5.4-.2,6-3.5,6-3.5l.2-2,1-1.7s.7-1.3.7-1.7-1.8-1.6-3.3-1.8c-1.5-.1-.1-2.1-.1-2.1,0,0,.9-1.2,1-1.6,0-.4.3-1.3.3-1.3,0,0,1.3-1.5,1.1-3.4,0-.7-1.6-.7-2.4,0,0,0-5.7,5.2-6.4,6-.6.9-1.2,4.3-1.2,4.8s2,1.5,2.3,1.8-.1,1.1-.1,1.1l-3.2,3.1s-1.4,3.1.8,2.7h0Z"/>
              </g>
              <g id="_北海道">
                <path class="cls-2" d="M606.1,101.8l-4.1-1.9,1.5-2.2-1.3-1.1-3.7-10.6-2.6-3.7,1.3-7.8,1.7-2.4s6.9-10.2,7.1-11.7c.3-1.5-.5-3.2-1.5-3s-1.7,1.5-1.7,1.5l-16,14.5s-8.5-2-11-2.6-2.3-4.4-2.9-5.3c-.5-1-1.7-1.1-1.7-1.1,0,0-2.6,4.1-3.4,3.7-.8-.3.9-4.9.9-4.9l-4.4-.6-1.1,2.8-6.3-1.7-3-5.6-17.7-15.1-9.7-13.6-5.2-11-11.5-15.1s0-2.4-1.1-2.4-5.6,5.2-5.6,5.2c0,0-.2-1.9-2.8-1.9s-5,9.9-5,9.9l3.5,11.7,1.1,12.3-1.7,1.7v4.8l-3.5,3.9-1.7,11.9.9,4.5s-4.5,3.5-6.9,4.5c-6.3,3.7-4.1,6.5-4.1,6.5l1.3,14.7-7.8,6.5-5.4-4.5-6.5.9-4.8-6.1s-4.3-2.4-6.7-1.3c-2.4,1.1-1.9,7.3-1.9,7.3l4.5,7.3-8.4,9.1-2.8-2.6s-4.1,4.8-7.6,5-5.2,5-5.2,5l1.1,4.3s-1.9,2.8-3,5.6,3.1,5,3.1,5v3.2l4,1.7,1.7,4.8.4,6s-4.8,5.4-6.1,10.8c-1.3,5.4,6.3,7.8,6.3,7.8l1.9-2.4,5.8-2.4.4-5.6,5.4-1.7,2.2-3,4.1,2.4,5.4,3.5,7.1-4.5-1.5-3-6.3-3.2-4.3-7.3-6.7-1.7-6.9-5.4v-2.6l2.6-6.3,3.9-4.1h6.3l6,7.8v2.6l4.8,1.5,11.9-8.2,6.9-1.9,8.4,3.2,15.3,12.5,15.1,8.2s7.1,9.5,9.5,9.3,2.6-11.5,2.6-11.5l-.9-2.6,5.8-9.7,15.6-14.9,10.6-3.7s5.9,4.2,12.8,3.7l3-5.4,1.3,2.6,4.8,1.5,5.2-7.1h11.7l1.7-5s6.2-3.1,5.2-4.5-9.9,4.5-9.9,4.5"/>
                <path class="cls-2" d="M606.1,101.8l-4.1-1.9,1.5-2.2-1.3-1.1-3.7-10.6-2.6-3.7,1.3-7.8,1.7-2.4s6.9-10.2,7.1-11.7c.3-1.5-.5-3.2-1.5-3s-1.7,1.5-1.7,1.5l-16,14.5s-8.5-2-11-2.6-2.3-4.4-2.9-5.3c-.5-1-1.7-1.1-1.7-1.1,0,0-2.6,4.1-3.4,3.7-.8-.3.9-4.9.9-4.9l-4.4-.6-1.1,2.8-6.3-1.7-3-5.6-17.7-15.1-9.7-13.6-5.2-11-11.5-15.1s0-2.4-1.1-2.4-5.6,5.2-5.6,5.2c0,0-.2-1.9-2.8-1.9s-5,9.9-5,9.9l3.5,11.7,1.1,12.3-1.7,1.7v4.8l-3.5,3.9-1.7,11.9.9,4.5s-4.5,3.5-6.9,4.5c-6.3,3.7-4.1,6.5-4.1,6.5l1.3,14.7-7.8,6.5-5.4-4.5-6.5.9-4.8-6.1s-4.3-2.4-6.7-1.3c-2.4,1.1-1.9,7.3-1.9,7.3l4.5,7.3-8.4,9.1-2.8-2.6s-4.1,4.8-7.6,5-5.2,5-5.2,5l1.1,4.3s-1.9,2.8-3,5.6,3.1,5,3.1,5v3.2l4,1.7,1.7,4.8.4,6s-4.8,5.4-6.1,10.8c-1.3,5.4,6.3,7.8,6.3,7.8l1.9-2.4,5.8-2.4.4-5.6,5.4-1.7,2.2-3,4.1,2.4,5.4,3.5,7.1-4.5-1.5-3-6.3-3.2-4.3-7.3-6.7-1.7-6.9-5.4v-2.6l2.6-6.3,3.9-4.1h6.3l6,7.8v2.6l4.8,1.5,11.9-8.2,6.9-1.9,8.4,3.2,15.3,12.5,15.1,8.2s7.1,9.5,9.5,9.3,2.6-11.5,2.6-11.5l-.9-2.6,5.8-9.7,15.6-14.9,10.6-3.7s5.9,4.2,12.8,3.7l3-5.4,1.3,2.6,4.8,1.5,5.2-7.1h11.7l1.7-5s6.2-3.1,5.2-4.5-9.9,4.5-9.9,4.5l.2-.2h0Z"/>
                <path class="cls-2" d="M422.9,129.7h-4.3v6.5c1.5-.6,3-1.9,3-1.9l1.3-4.5h0Z"/>
                <path class="cls-2" d="M422.9,129.7h-4.3v6.5c1.5-.6,3-1.9,3-1.9l1.3-4.5h0Z"/>
                <path class="cls-2" d="M480.3,9.1c.9.3,2.1-4.5,2.1-4.5l.8-2.2s-1.1-1.8-2.3-1.9c-1.2,0-2.3,1.6-2.3,1.9,0,0,.8,6.4,1.7,6.7"/>
                <path class="cls-2" d="M480.3,9.1c.9.3,2.1-4.5,2.1-4.5l.8-2.2s-1.1-1.8-2.3-1.9c-1.2,0-2.3,1.6-2.3,1.9,0,0,.8,6.4,1.7,6.7h0Z"/>
                <path class="cls-2" d="M485.4,16.5c1-.1,3.5-1.9,3.7-2.7s-1.8-4.2-2.9-4.3c-1.2-.1-2.3.8-2.3.8l-.6,3.9s1.2,2.4,2.2,2.3"/>
                <path class="cls-2" d="M485.4,16.5c1-.1,3.5-1.9,3.7-2.7s-1.8-4.2-2.9-4.3c-1.2-.1-2.3.8-2.3.8l-.6,3.9s1.2,2.4,2.2,2.3h-.1Z"/>
                <path class="cls-2" d="M640.2,53.7l-4.9,1.3-3.1-2.7s-.5-.6-2.3-1c-3.3-.2-5.9,7-5.9,7l-5.5,6.7-2.3,4.6s-8.9,6.7-9.8,7.4c-.9.7,0,3.8,0,3.8,0,0-.3,2.5,1.4,2.8,2,.5,3.5-1.7,3.5-1.7l1.2-5,1.8-.3.5-.6,1.5-.3,2-1.6.6-2.1,2.7-1.5.8-3.6,6-5.1h4.7l4.5-4s1.4.4,1.9.3c3.7-4.1.9-4.5.9-4.5"/>
                <path class="cls-2" d="M640.2,53.7l-4.9,1.3-3.1-2.7s-.5-.6-2.3-1c-3.3-.2-5.9,7-5.9,7l-5.5,6.7-2.3,4.6s-8.9,6.7-9.8,7.4c-.9.7,0,3.8,0,3.8,0,0-.3,2.5,1.4,2.8,2,.5,3.5-1.7,3.5-1.7l1.2-5,1.8-.3.5-.6,1.5-.3,2-1.6.6-2.1,2.7-1.5.8-3.6,6-5.1h4.7l4.5-4s1.4.4,1.9.3c3.7-4.1.9-4.5.9-4.5h-.2Z"/>
                <path class="cls-2" d="M650,78.3c-1.5-.3-2.6,0-2.6,0l-1.9,1.6-1.6.8h-2.2v2l1,2.5h1.3l7.1-4.2s.4-2.4-1.1-2.6"/>
                <path class="cls-2" d="M650,78.3c-1.5-.3-2.6,0-2.6,0l-1.9,1.6-1.6.8h-2.2v2l1,2.5h1.3l7.1-4.2s.4-2.4-1.1-2.6h0Z"/>
                <path class="cls-2" d="M708.9,14.2s1.9-1.5,1.9-2.3-1.1-1.1-1.1-1.1c0,0-2.4-.6-4.1-.8-1.7-.2-3.7,1.9-3.7,1.9l-8.8,9.2-3,.4s-2.8-.3-3.7,0c-.6-.6-3.5-6.4-4.6-6.3-1.1,0-2.2,2.8-2.2,2.8l.4,1.9-.7,3.8h-1.5l-2.4,1.5-1.5,3.3s-1.7-.6-2.6-.7c-.9,0-1.8.8-2.2,1.7-.3,1,0,2.6,0,2.6l-6.9,5.3-.8,2.4-3-.4s-.9.7-1.4,1.3c-.4.6,1.8,1.6,1.8,1.6,0,0,.9.8,1,1.6,0,.9-2.3,2.7-2.3,2.7l-2.5-.5-.9,2.2h-1.7v2.1c-1.7,1.7-2.4,4.3-2.3,4.8,0,.5,2.2,1,3,.8.9-.2,3.9-5.1,3.9-5.1h2.3l4.6-5.6,8.7-6.5.9-3.2s.8-2.8.8-2.4,3.2,2.4,4,2.5c.8,0,3-1.3,3-1.3,0,0,11.8-9.7,13.1-10.4,1.2-.7,7.6-3.8,7.6-3.8l3-.8s1.5.2,2.9.3c2.5-.9,1.6-2.9,1.6-2.9l-1.1-2.4s.5-.2.5-.2Z"/>
                <path class="cls-2" d="M708.9,14.2s1.9-1.5,1.9-2.3-1.1-1.1-1.1-1.1c0,0-2.4-.6-4.1-.8-1.7-.2-3.7,1.9-3.7,1.9l-8.8,9.2-3,.4s-2.8-.3-3.7,0c-.6-.6-3.5-6.4-4.6-6.3-1.1,0-2.2,2.8-2.2,2.8l.4,1.9-.7,3.8h-1.5l-2.4,1.5-1.5,3.3s-1.7-.6-2.6-.7c-.9,0-1.8.8-2.2,1.7-.3,1,0,2.6,0,2.6l-6.9,5.3-.8,2.4-3-.4s-.9.7-1.4,1.3c-.4.6,1.8,1.6,1.8,1.6,0,0,.9.8,1,1.6,0,.9-2.3,2.7-2.3,2.7l-2.5-.5-.9,2.2h-1.7v2.1c-1.7,1.7-2.4,4.3-2.3,4.8,0,.5,2.2,1,3,.8.9-.2,3.9-5.1,3.9-5.1h2.3l4.6-5.6,8.7-6.5.9-3.2s.8-2.8.8-2.4,3.2,2.4,4,2.5c.8,0,3-1.3,3-1.3,0,0,11.8-9.7,13.1-10.4,1.2-.7,7.6-3.8,7.6-3.8l3-.8s1.5.2,2.9.3c2.5-.9,1.6-2.9,1.6-2.9l-1.1-2.4s.5-.2.5-.2Z"/>
              </g>
              <path class="cls-3" d="M490.3,248s.3-1.9-.7-2.1c-1-.2-1.5.3-1.5.3l.3-1.6.9-1,.7-4.9-.4-.8.3-2-.5-1.3.2-2.9-3.3-4.8s0-1,.6-1.4c0-.1.4-.5.4-.8s-.5-2-1.7-1.9c-.5,0-.9-1-.3-1.6.1,0,1.1-1.2,1.1-1.5s-2.4-5.2-2.4-5.2l-1.5-2.4s-.4-.5-1.1-.4c.1,0,.3-1.8.3-1.8l-2.4-3.3-2.5-.4-.3.4-.2-3-.6-1.4-.4-2.6v-3.3s-.4-1.1-1-1.2c-.4,0-1.5,0-2,1,.1-.6.3-1.1.3-1.1l2.2-.5.6-3s-1-1.1-.8-2.3,1.2-2,1.2-2l1.3-9.5.9-.9.8-5.7s-.2-1-1.4-1.2c-1.2-.3-4,1-4,1l-.9.4-6.8-5.9-1.7-1.5-1.9-.8s-.9-.3-1.2.5l-5,13.4,1.1,2.8,5.4-1.7,2.6,1.7,5-4.1,1.5,4.1-3.2,8.4s-.9,2.8-2.4,2.8-2.2-3.5-2.2-3.5l-5-3-1.5,5.2-3.2,1.3-1.7-3.9v-8.6s-.9-3.9-2.5-3.8c-1.6,0-3,.9-3,.9l-2.3-1.6h-2.3c0,.1-.6,3.3-.6,3.3l-1.4,1.6,2.7,4.2-2.1.5-1.4,4.5-1.1,2.7-4.1,2.4-4-.5s-4.4,4.4-4.8,5.5c0,1.1,1.3,3.2,1.3,3.2l-.3,3.9,1.4,1.9.8,2.4v.9l-.4,4.2-2.8,4.6-.4,1.6-4.4,4s-1.7-1.3-1.9-1.3-1.4,1-1.4,1v1.6l.3.9v1.8c-.1,0,.2.7,1,.8.8,0,1.6-.4,1.6-.4h1c0,.1.7-.4.7-.4l1.6-.3,3.3,5.7-.5,2.8-.9,1.7-1,9.5s-2.1,1.9-2.3,2.3c-.2.4-2.8,4.2-2.8,4.2l-.6,2.6-.4.3-.4,3.9h-.2l-.9,1-1,6.1s-1.5,1.1-2.2,2.5-2.9,3.6-2.9,3.6l-1.5,3-4.3,5.1-7.5,15.4-1.1,2.3-4.1,3.6h-2.3l-12.1,5.9-.9,2.4-1.5,1.5-1.8,3.8-.7,1.8-6.1,7-12.1,7.7-5.3-.7-5.5,3.5-8.9,1.8-.8.9h-4.6l-3.6,1.4-.8,2.2-.6,2.1-5.1,1.9-6.8-5.2,1.2-3.2.9-1,.7-4.3s-.8-.9-1.2-.9-1.2.8-1.2.8c0,0-2.7-1.2-2.8-1.8,0-.6,1.2-4.8,1.2-4.8l1.1-.5,1,.5,1.1,1.4,5.3-3.3h1.5c0,.1,2.1-.8,2.3-2.5.2-1.8.2-2.9.2-2.9l2.3.4s2.3-1,2.2-2.1c-.1-1.1-1.1-2.1-1.1-2.1l-3.7-.5-12.5,3.3h-1.8s-2.8,1.2-3.5,2.8c-.2,1.1-.9,1.9-.9,1.9l-1.2,2.6-.6.8-.2,2,1.5.5-.3,3.6,1.1,2.3-.2,1.2-.9,1.2-.7,4.6-4.6,5.3-.8.8-.3,1.2-2.3,1.7-.4,1.1-11.3,9.4-4.3.3-.8,3-6.1,6.8-.7.8v1.5l3.3,8.3-.8,1.2-.8,2.9-.7-3.1-2-.3-.8.8-.3,3.1-2.9-.6s-1.2.3-1.3,1.2c.2.4-1.2,2.1-1.2,2.1v.6h-1l-2.8,1.8-1.2-.8-4.4-1-1.5-1.1s.8-2.2.2-2.8c-.6-.5-2.1-.2-2.1-.2l-3.1,1.8-.3.8.7,1.4-3.5-3-1.9-.5,3.8-3s1.1-1,1-1.6-1-4.1-2.8-4.4c-1-.1-11.8,3.2-11.8,3.2h0c0,.1-3.2-1.2-3.2-1.2l-9.4-1.4-5.1,1.3-3.6.7-2.7,1.6-9.5-1.4-1.5.6-3.8-.5-.6-.9-2.9-.5-.6-.7-3.2-.2-4.8,1.9-.9-.8h-1.3s-.3-1.1-.8-1c-.5,0-1.4.4-1.4.4l-.6,1.6-3.7-1.3.4-1.7,1.1-1.8s-.9-3-2.7-3.2c-1.8-.1-4.3,2.3-4.3,2.3l-2.2-.3-2.9.5-3,.4-.6.6-2.2-.5s-1.2.3-1,1.4.9,2.3.9,2.3l-.9,1-.8,1.8-7,2.4-4.5,3.1s-.8,1.6-1.9,2c-1.1.4-6.1,2.4-6.1,2.4l-11.9,8.6h-4.9s-.9,1-1,1.5-3.5,0-3.5,0l-6.2,4.3-1.9,1.8v1.6l-3.2.9-4.5-.6-1.4-2.5-2.8-.4s-.9-1.3-1.7-1.3-2.4.9-2.6,2.6l2.1.8h-2.8s-2.7,1.7-2.6,2.3c0,.6,1.4,3.8,1.4,3.8,0,0-2.5,2.4-2.6,3.7,0,.9,1.4,2.9,1.4,2.9l-.4,2.4s.5,1,.9,1,3.4-2,3.9-2,2.9,2.5,2.9,2.5l.3,2.3,2.5.4s.5,1,1.3.9c.8-.2,2.4-.8,2.4-.8l1.1-1.3.9-1.4v1.2l2.4.5,1-.5s.8,1.6,1.9,1.8c1.1.2,7.3-1.4,7.3-1.4l2.1,2.8,1.2.3,2.9,3.8,2.2.5,1.5,2.1,1.1.4.7-.8.2-2,3.3-1.2.8-4-.3-1,1.8-1.2.3-1.9-.9-1.5.6-.3,5.6-4.2,4.5.9-.7.5.2,1.5s.6,3.6,2.3,4.1,1,1.5,2.2,1.5,4-.7,4-.7c0,0,2.1-2.6,2.6-2.6l4.9.6,1.2-.8,1.6.2,2.8-2.2,1.7.2,3.5-.3-.2,1.8s1.2,1.6,2.4,1.7c1.2.2,2.2-.8,2.2-.8l.8-2.3,1.5.2s.8-.5.9-2.1c.2,0,1.7.2,1.7.2,0,0,1.4,2,2.2,1.9s3-1.5,3.2-1.5.8.8.8.8l1.4.3s.9,2.6,1.6,2.6,1.7-.6,1.7-.6l1.3.6s1,.9,1.7.6c.8-.3,1.7-2.3,1.7-2.3,0,0,1.9-.3,2.5-1.7-.1-.2.4-2.1-1.4-2.2-.4,0-2.4.4-2.4.4l2.4-.6,2.9,1.3,1.2.6s.9,0,1.8-.8c.7-.7,3.5-2.8,3.5-2.8,0,0,.7-1.4-.4-2,.4.2.8.5,1,1.1l1.2.2s1.2.1,1.4-.1c.2-.3.3-1.4.3-1.4,0,0,1.5,1.4,2.2,1.3s2.6-1.1,2.7-2.1c.1-1,0,2,1.1,2.1s2.6.4,2.6.4c0,0,2.4.3,3,0s1.3-.5,1.7-.4c.5.2,9,8,9.7,8s2.9-.6,2.9-.6h2.1s3.3-1.9,4.2-1.7c.9.2,3,1,3.4,2,.3.9.4,2.9.4,2.9l-.2,1.1-2.2,1.8-1,2.5-5.2,4.2-3.4-.2-.5.6v.2c-.1,0-2.3-.3-2.3,1.7.1.7,3.6,5.6,3.6,5.6l-3.3,2.2s-.3.5-.4.9c0,.5,1.4,1.6,1.4,1.6,0,0-1.4.5-1.7.9s-.2,2-.2,2c0,0-1.1.5-1.1,1.4s1,1.6,1.6,1.9l1.3,2.8,2.5,3,3,2.1s-1.2,1.9-1.2,2.2.9,1.7,1,1.9c0,.1.2,1.3.2,1.3,0,0,1.4,2.3,2.8,2.9,1.4.6,2.9,1.5,4.1,1.8,1.1.4,4.5,2,4.5,2,0,0,1,1.3,2.4.3,1.1-1,3.7-2,3.7-2l2.2-1.5.3-2.2-.4-.4,2.5-2,.4-1.2,1.5-2.1,2.1-2.6s2.4-1.9,2.9-2,2.4-.4,2.6-1.1.1-2,.1-2c0,0,1-.9,1-1.3s-.7-2.2-.7-2.3c0,0,2.2-2.7,3.1-3.3.9-.5,3-1.1,3.8-1.5.8-.3,1.6-.6,1.6-.6l3.3.4,1.5-.5,4.1-2.7.6.3-.7,1.4s.4,1.3,1.2,1.3,2.4-1,3.2-.9c.7.1,1.3,1.6,1.9,1.5.6,0,1.5-1.1,1.6-1.8,0-.7.1-2.4-2.4-2.7l3.2.4s.6-.4.5-1.1c0-.6-.7-2.1-2-1.6l-.6-2.4-1.9-1.9-4-2.3-4.1-2.9.9-4.7,1.9-1.1.6-1.9s1.9-1.8,2.8-3.2c.8-1.5.6-3.6.6-3.6l1.9.4.8-.8h2.8l2.2-1.5-2,2.1-.5.9-.6,4.9.9,1.2-.6,1.1-.4,2.4s1.1,3.1,2.2,3.1,2-.5,2-1.1-1.2-2.3-1.2-2.3l.6-1.1.3-1.3,1.6-3.8-1.1,3.8s-.2,2.4,1.5,2.9,2.4,1.5,2.4,1.5l3.4.2,1.6-1.9s.8.4,1.9,1.1,1.5,2,1.5,2v1.1l-1,.3-1.5-1.5-3.2,1.8s-1.4,1-2,1-2-.7-2-.7c0,0-1.3.4-1.4,1,0,.6-1,2.7.4,2.8,1.4.2,1.7-.6,1.7-.6l2.1.2,1-.6,2.1.2.8-.6,1.7.2.8-.3h1.7l.6-.4,2.2.2s1.8.5,1.9-3.3c.4-.3,2.2-.6,2.2-.6,0,0,1.1-.8,1.8-.6.7.2,0,.7,0,.7l.3,1.1s-1.1.5-1.1,1.3-.6,1.8.9,2.1c1.5.3,11,1.5,11,1.5l1.1.7,1.2.3.4.8,1.9.2.6.9,2,.2s1-.6,1.1-1c.2-.4,0-1.5,0-1.5l4.3-3.6.6-.9.2-2.7.9-.2s.3-1.9,1.2-2.2c.9-.3,1.6-.3,1.6-.3l2.8-.6s.7-.4.9-.9c.2-.5-.6-2.2-.6-2.2l3.1-2.4h1.2l2.2-.6h.8l.8.9,2,.7.7,1,1.8,1.2-2-.2-1.9,1.2-.3,1.9.6,1.5.2,1-.5.5-.3,2.8-1,.5-.2,2.3-.8.6v2.4s1.9,4.1,3.2,4.3c1.3.2,3.2-.3,3.2-.3l3-2.5.6-3.5,2.6-1.5.2-1,2.3-1.8.8-3.6-2.4-3.7,1-1.4.8-1.9s1-.2,1.4-1,.5-1.9.5-1.9l-.4-.6,2.6-1.7,2,.2.9-.4h1l1.5-.3,1,.2,1.1-.2.6.3,1.5.6,2,.7,1.7,1.8-.2.8-.6,1.2s-.3,2.2,1.1,2.2,2.4-.6,2.4-.6l-.4-1.1,1.5-1.1s1-1.3.6-1.9-2.5-1.7-2.5-1.7l-.6-1.2.4-3.1,1.3-.7s.7-1.5-.7-2.3c.2,0,2.4,1.1,2.4,1.1,0,0,1.5-1.1,1.9-1.4.5-.3,1.1-1.1-.6-3.3h1.4s.7-.7.7-1-.4-1.5-.4-1.5l-.2-.5.9.8.9.2,1-.4s.3,1.2,1.2,1.2,3.2-1.5,3.2-1.5l1.4.3s2.1,3.2,2.3,4c.2.7-2.1,2-2.1,2l-1.2,1-3.5,1.5s-1.1,0-1.1,2.1c-.4,0-1.6-.2-1.6-.2l-1.6,1.1s-.8.6-.8,1,.6,1.6.6,1.6c0,0,1.1,1.5,1.1,1.9s-1,1.5-1,1.5l-.6,3.3v1l.5.4-.9.2-.2,2.1.9,1.1-2.5,1.4v1.4s2.4,2.3,3.5,2.3,4.1-2.5,4.1-2.5l6.1-5.3,1.4-.4,1.9.3,1-.9h1.4l.9-.5,1.4.4s.9.2.9-2c-.2,0,.7-.5.7-.5l1-7,1.1-.6.5-4.7,3.3-2.9,5-3.3,5.3.8s1.5-.3,1.3-1.9c-.2-1.5-.6-2.6-.6-2.6l-.2-.6-.4-1.1s-5.3-9.7-5.1-11.8c0-.2-.9-1.1-.9-1.1l.6-2.5-.5-.8.2-2.2-.6-1,2.4-2.8.8-4.4-.6-.9,1.4-2.4.2-1.6,1-.6.5-1.5.9-1.7.6-.6.3-1.3.6-1.4.7-1,.2-.8.8-.9v-1.8l-4.7-3.2c.7.1,5.4,3.5,5.4,3.5l6.2-4.4,1.1-2,.5-3.8,1.1-1.1,2.5-12.4.7-9.8-1.1-1.9-1.7-6.6-.5-1.1,1.2-5.9-1.1-.8.4-1.4,1.2-1.2,1-1.9,1-.7,1.7-1.4v-2h-1.6l2-.4-1-1.7s1.2-1.2,1.6-1.2h5.8l1.2-.6,2.6.5,3.2-1.3s1.6,0,1.7-.2c0-.3.6-2.5-.4-2.8-1.1-.2,1.4-.2,1.4-.2,0,0,1.9-1.8-2-2.4,0-.2.7-1,.7-1l1.8-2.1-1.4-2.3,1.5-1.2.3-1.5-.2-.9,3-2v-1.8s.2-.6-.3-1.4c.2.2,1.3,1.5,1.3,1.5,0,0,1.6-.1,1.4-1.6s-.5-2.5-.5-2.5h.4s1.4.4,2.2-.3c.4-.5,1.2-1.3.3-1.8,0,0,.9.7,1.7.8.8,0,1.7-.2,1.8-.9.1-.7.7-3.5.7-3.5l.6-1.8,2.2-1.6v-3s-.6-1,0-1.6,1.7-1.4,1.7-1.4v-2.3l1-1.1-.4-1.7,3.4-2.7-.4-1.7h-.4ZM401.5,397.7l-.6.8,2.7-3.7-2.1,2.9h0Z"/>
              <path class="cls-2" d="M490.3,248s.3-1.9-.7-2.1c-1-.2-1.5.3-1.5.3l.3-1.6.9-1,.7-4.9-.4-.8.3-2-.5-1.3.2-2.9-3.3-4.8s0-1,.6-1.4c0-.1.4-.5.4-.8s-.5-2-1.7-1.9c-.5,0-.9-1-.3-1.6.1,0,1.1-1.2,1.1-1.5s-2.4-5.2-2.4-5.2l-1.5-2.4s-.4-.5-1.1-.4c.1,0,.3-1.8.3-1.8l-2.4-3.3-2.5-.4-.3.4-.2-3-.6-1.4-.4-2.6v-3.3s-.4-1.1-1-1.2c-.4,0-1.5,0-2,1,.1-.6.3-1.1.3-1.1l2.2-.5.6-3s-1-1.1-.8-2.3,1.2-2,1.2-2l1.3-9.5.9-.9.8-5.7s-.2-1-1.4-1.2c-1.2-.3-4,1-4,1l-.9.4-6.8-5.9-1.7-1.5-1.9-.8s-.9-.3-1.2.5l-5,13.4,1.1,2.8,5.4-1.7,2.6,1.7,5-4.1,1.5,4.1-3.2,8.4s-.9,2.8-2.4,2.8-2.2-3.5-2.2-3.5l-5-3-1.5,5.2-3.2,1.3-1.7-3.9v-8.6s-.9-3.9-2.5-3.8c-1.6,0-3,.9-3,.9l-2.3-1.6h-2.3c0,.1-.6,3.3-.6,3.3l-1.4,1.6,2.7,4.2-2.1.5-1.4,4.5-1.1,2.7-4.1,2.4-4-.5s-4.4,4.4-4.8,5.5c0,1.1,1.3,3.2,1.3,3.2l-.3,3.9,1.4,1.9.8,2.4v.9l-.4,4.2-2.8,4.6-.4,1.6-4.4,4s-1.7-1.3-1.9-1.3-1.4,1-1.4,1v1.6l.3.9v1.8c-.1,0,.2.7,1,.8.8,0,1.6-.4,1.6-.4h1c0,.1.7-.4.7-.4l1.6-.3,3.3,5.7-.5,2.8-.9,1.7-1,9.5s-2.1,1.9-2.3,2.3c-.2.4-2.8,4.2-2.8,4.2l-.6,2.6-.4.3-.4,3.9h-.2l-.9,1-1,6.1s-1.5,1.1-2.2,2.5-2.9,3.6-2.9,3.6l-1.5,3-4.3,5.1-7.5,15.4-1.1,2.3-4.1,3.6h-2.3l-12.1,5.9-.9,2.4-1.5,1.5-1.8,3.8-.7,1.8-6.1,7-12.1,7.7-5.3-.7-5.5,3.5-8.9,1.8-.8.9h-4.6l-3.6,1.4-.8,2.2-.6,2.1-5.1,1.9-6.8-5.2,1.2-3.2.9-1,.7-4.3s-.8-.9-1.2-.9-1.2.8-1.2.8c0,0-2.7-1.2-2.8-1.8,0-.6,1.2-4.8,1.2-4.8l1.1-.5,1,.5,1.1,1.4,5.3-3.3h1.5c0,.1,2.1-.8,2.3-2.5.2-1.8.2-2.9.2-2.9l2.3.4s2.3-1,2.2-2.1c-.1-1.1-1.1-2.1-1.1-2.1l-3.7-.5-12.5,3.3h-1.8s-2.8,1.2-3.5,2.8c-.2,1.1-.9,1.9-.9,1.9l-1.2,2.6-.6.8-.2,2,1.5.5-.3,3.6,1.1,2.3-.2,1.2-.9,1.2-.7,4.6-4.6,5.3-.8.8-.3,1.2-2.3,1.7-.4,1.1-11.3,9.4-4.3.3-.8,3-6.1,6.8-.7.8v1.5l3.3,8.3-.8,1.2-.8,2.9-.7-3.1-2-.3-.8.8-.3,3.1-2.9-.6s-1.2.3-1.3,1.2c.2.4-1.2,2.1-1.2,2.1v.6h-1l-2.8,1.8-1.2-.8-4.4-1-1.5-1.1s.8-2.2.2-2.8c-.6-.5-2.1-.2-2.1-.2l-3.1,1.8-.3.8.7,1.4-3.5-3-1.9-.5,3.8-3s1.1-1,1-1.6-1-4.1-2.8-4.4c-1-.1-11.8,3.2-11.8,3.2h0c0,.1-3.2-1.2-3.2-1.2l-9.4-1.4-5.1,1.3-3.6.7-2.7,1.6-9.5-1.4-1.5.6-3.8-.5-.6-.9-2.9-.5-.6-.7-3.2-.2-4.8,1.9-.9-.8h-1.3s-.3-1.1-.8-1c-.5,0-1.4.4-1.4.4l-.6,1.6-3.7-1.3.4-1.7,1.1-1.8s-.9-3-2.7-3.2c-1.8-.1-4.3,2.3-4.3,2.3l-2.2-.3-2.9.5-3,.4-.6.6-2.2-.5s-1.2.3-1,1.4.9,2.3.9,2.3l-.9,1-.8,1.8-7,2.4-4.5,3.1s-.8,1.6-1.9,2c-1.1.4-6.1,2.4-6.1,2.4l-11.9,8.6h-4.9s-.9,1-1,1.5-3.5,0-3.5,0l-6.2,4.3-1.9,1.8v1.6l-3.2.9-4.5-.6-1.4-2.5-2.8-.4s-.9-1.3-1.7-1.3-2.4.9-2.6,2.6l2.1.8h-2.8s-2.7,1.7-2.6,2.3c0,.6,1.4,3.8,1.4,3.8,0,0-2.5,2.4-2.6,3.7,0,.9,1.4,2.9,1.4,2.9l-.4,2.4s.5,1,.9,1,3.4-2,3.9-2,2.9,2.5,2.9,2.5l.3,2.3,2.5.4s.5,1,1.3.9c.8-.2,2.4-.8,2.4-.8l1.1-1.3.9-1.4v1.2l2.4.5,1-.5s.8,1.6,1.9,1.8c1.1.2,7.3-1.4,7.3-1.4l2.1,2.8,1.2.3,2.9,3.8,2.2.5,1.5,2.1,1.1.4.7-.8.2-2,3.3-1.2.8-4-.3-1,1.8-1.2.3-1.9-.9-1.5.6-.3,5.6-4.2,4.5.9-.7.5.2,1.5s.6,3.6,2.3,4.1,1,1.5,2.2,1.5,4-.7,4-.7c0,0,2.1-2.6,2.6-2.6l4.9.6,1.2-.8,1.6.2,2.8-2.2,1.7.2,3.5-.3-.2,1.8s1.2,1.6,2.4,1.7c1.2.2,2.2-.8,2.2-.8l.8-2.3,1.5.2s.8-.5.9-2.1c.2,0,1.7.2,1.7.2,0,0,1.4,2,2.2,1.9s3-1.5,3.2-1.5.8.8.8.8l1.4.3s.9,2.6,1.6,2.6,1.7-.6,1.7-.6l1.3.6s1,.9,1.7.6c.8-.3,1.7-2.3,1.7-2.3,0,0,1.9-.3,2.5-1.7-.1-.2.4-2.1-1.4-2.2-.4,0-2.4.4-2.4.4l2.4-.6,2.9,1.3,1.2.6s.9,0,1.8-.8c.7-.7,3.5-2.8,3.5-2.8,0,0,.7-1.4-.4-2,.4.2.8.5,1,1.1l1.2.2s1.2.1,1.4-.1c.2-.3.3-1.4.3-1.4,0,0,1.5,1.4,2.2,1.3s2.6-1.1,2.7-2.1c.1-1,0,2,1.1,2.1s2.6.4,2.6.4c0,0,2.4.3,3,0s1.3-.5,1.7-.4c.5.2,9,8,9.7,8s2.9-.6,2.9-.6h2.1s3.3-1.9,4.2-1.7c.9.2,3,1,3.4,2,.3.9.4,2.9.4,2.9l-.2,1.1-2.2,1.8-1,2.5-5.2,4.2-3.4-.2-.5.6v.2c-.1,0-2.3-.3-2.3,1.7.1.7,3.6,5.6,3.6,5.6l-3.3,2.2s-.3.5-.4.9c0,.5,1.4,1.6,1.4,1.6,0,0-1.4.5-1.7.9s-.2,2-.2,2c0,0-1.1.5-1.1,1.4s1,1.6,1.6,1.9l1.3,2.8,2.5,3,3,2.1s-1.2,1.9-1.2,2.2.9,1.7,1,1.9c0,.1.2,1.3.2,1.3,0,0,1.4,2.3,2.8,2.9,1.4.6,2.9,1.5,4.1,1.8,1.1.4,4.5,2,4.5,2,0,0,1,1.3,2.4.3,1.1-1,3.7-2,3.7-2l2.2-1.5.3-2.2-.4-.4,2.5-2,.4-1.2,1.5-2.1,2.1-2.6s2.4-1.9,2.9-2,2.4-.4,2.6-1.1.1-2,.1-2c0,0,1-.9,1-1.3s-.7-2.2-.7-2.3c0,0,2.2-2.7,3.1-3.3.9-.5,3-1.1,3.8-1.5.8-.3,1.6-.6,1.6-.6l3.3.4,1.5-.5,4.1-2.7.6.3-.7,1.4s.4,1.3,1.2,1.3,2.4-1,3.2-.9c.7.1,1.3,1.6,1.9,1.5.6,0,1.5-1.1,1.6-1.8,0-.7.1-2.4-2.4-2.7l3.2.4s.6-.4.5-1.1c0-.6-.7-2.1-2-1.6l-.6-2.4-1.9-1.9-4-2.3-4.1-2.9.9-4.7,1.9-1.1.6-1.9s1.9-1.8,2.8-3.2c.8-1.5.6-3.6.6-3.6l1.9.4.8-.8h2.8l2.2-1.5-2,2.1-.5.9-.6,4.9.9,1.2-.6,1.1-.4,2.4s1.1,3.1,2.2,3.1,2-.5,2-1.1-1.2-2.3-1.2-2.3l.6-1.1.3-1.3,1.6-3.8-1.1,3.8s-.2,2.4,1.5,2.9,2.4,1.5,2.4,1.5l3.4.2,1.6-1.9s.8.4,1.9,1.1,1.5,2,1.5,2v1.1l-1,.3-1.5-1.5-3.2,1.8s-1.4,1-2,1-2-.7-2-.7c0,0-1.3.4-1.4,1,0,.6-1,2.7.4,2.8,1.4.2,1.7-.6,1.7-.6l2.1.2,1-.6,2.1.2.8-.6,1.7.2.8-.3h1.7l.6-.4,2.2.2s1.8.5,1.9-3.3c.4-.3,2.2-.6,2.2-.6,0,0,1.1-.8,1.8-.6.7.2,0,.7,0,.7l.3,1.1s-1.1.5-1.1,1.3-.6,1.8.9,2.1c1.5.3,11,1.5,11,1.5l1.1.7,1.2.3.4.8,1.9.2.6.9,2,.2s1-.6,1.1-1c.2-.4,0-1.5,0-1.5l4.3-3.6.6-.9.2-2.7.9-.2s.3-1.9,1.2-2.2c.9-.3,1.6-.3,1.6-.3l2.8-.6s.7-.4.9-.9c.2-.5-.6-2.2-.6-2.2l3.1-2.4h1.2l2.2-.6h.8l.8.9,2,.7.7,1,1.8,1.2-2-.2-1.9,1.2-.3,1.9.6,1.5.2,1-.5.5-.3,2.8-1,.5-.2,2.3-.8.6v2.4s1.9,4.1,3.2,4.3c1.3.2,3.2-.3,3.2-.3l3-2.5.6-3.5,2.6-1.5.2-1,2.3-1.8.8-3.6-2.4-3.7,1-1.4.8-1.9s1-.2,1.4-1,.5-1.9.5-1.9l-.4-.6,2.6-1.7,2,.2.9-.4h1l1.5-.3,1,.2,1.1-.2.6.3,1.5.6,2,.7,1.7,1.8-.2.8-.6,1.2s-.3,2.2,1.1,2.2,2.4-.6,2.4-.6l-.4-1.1,1.5-1.1s1-1.3.6-1.9-2.5-1.7-2.5-1.7l-.6-1.2.4-3.1,1.3-.7s.7-1.5-.7-2.3c.2,0,2.4,1.1,2.4,1.1,0,0,1.5-1.1,1.9-1.4.5-.3,1.1-1.1-.6-3.3h1.4s.7-.7.7-1-.4-1.5-.4-1.5l-.2-.5.9.8.9.2,1-.4s.3,1.2,1.2,1.2,3.2-1.5,3.2-1.5l1.4.3s2.1,3.2,2.3,4c.2.7-2.1,2-2.1,2l-1.2,1-3.5,1.5s-1.1,0-1.1,2.1c-.4,0-1.6-.2-1.6-.2l-1.6,1.1s-.8.6-.8,1,.6,1.6.6,1.6c0,0,1.1,1.5,1.1,1.9s-1,1.5-1,1.5l-.6,3.3v1l.5.4-.9.2-.2,2.1.9,1.1-2.5,1.4v1.4s2.4,2.3,3.5,2.3,4.1-2.5,4.1-2.5l6.1-5.3,1.4-.4,1.9.3,1-.9h1.4l.9-.5,1.4.4s.9.2.9-2c-.2,0,.7-.5.7-.5l1-7,1.1-.6.5-4.7,3.3-2.9,5-3.3,5.3.8s1.5-.3,1.3-1.9c-.2-1.5-.6-2.6-.6-2.6l-.2-.6-.4-1.1s-5.3-9.7-5.1-11.8c0-.2-.9-1.1-.9-1.1l.6-2.5-.5-.8.2-2.2-.6-1,2.4-2.8.8-4.4-.6-.9,1.4-2.4.2-1.6,1-.6.5-1.5.9-1.7.6-.6.3-1.3.6-1.4.7-1,.2-.8.8-.9v-1.8l-4.7-3.2c.7.1,5.4,3.5,5.4,3.5l6.2-4.4,1.1-2,.5-3.8,1.1-1.1,2.5-12.4.7-9.8-1.1-1.9-1.7-6.6-.5-1.1,1.2-5.9-1.1-.8.4-1.4,1.2-1.2,1-1.9,1-.7,1.7-1.4v-2h-1.6l2-.4-1-1.7s1.2-1.2,1.6-1.2h5.8l1.2-.6,2.6.5,3.2-1.3s1.6,0,1.7-.2c0-.3.6-2.5-.4-2.8-1.1-.2,1.4-.2,1.4-.2,0,0,1.9-1.8-2-2.4,0-.2.7-1,.7-1l1.8-2.1-1.4-2.3,1.5-1.2.3-1.5-.2-.9,3-2v-1.8s.2-.6-.3-1.4c.2.2,1.3,1.5,1.3,1.5,0,0,1.6-.1,1.4-1.6s-.5-2.5-.5-2.5h.4s1.4.4,2.2-.3c.4-.5,1.2-1.3.3-1.8,0,0,.9.7,1.7.8.8,0,1.7-.2,1.8-.9.1-.7.7-3.5.7-3.5l.6-1.8,2.2-1.6v-3s-.6-1,0-1.6,1.7-1.4,1.7-1.4v-2.3l1-1.1-.4-1.7,3.4-2.7-.4-1.7h-.4ZM401.5,397.7l-.6.8,2.7-3.7-2.1,2.9h0Z"/>
              <g id="_沖縄">
                <path class="cls-2" d="M640,475.7l-.2-1.4-1.2-.3-.2-.8s-.2-.7-1.1-.7-1.1.4-1.1.4l-.2,2.1-1.9,1.9-1.8,1.5-1.1.3-.4,1.3-.6.2-.9.4-1.1.8-.8,1.5-1.7.5c0-.6-.5-1.9-.8-2.5-.3-.5-1.5-1.3-1.5-1.3,0,0-.9-.5-1.1-.6-.2,0-1.4-.2-1.4-.2,0,0-1,.2-1.2,0-.2,0-.9-.5-.9-.5h-.8l-.5,1.4.2,1.1-.6,1.2s.2,1.2.2,1.5.9,1.9,1.1,2h1.3l.9.2s.7.6.8.8c0,.2-1.2,1.1-1.2,1.1l-1.8.7-1.1.2h-1.3l-1.4.7-.3,1-.5.2-1.8,1.2h-.8c0,0-1,.4-1.2.3-.2,0-.9-.8-.9-.8h-.8l-.8,1.3.3,1.5.4,1.3.3,1.2v1.4s.2.9.2,1.1-.6.5-.6.5l-1.7.6-1.7,1.1-.5,1.2s-.8.3-1.3,1.4-.2,2.8-.2,2.8l.3,2-.4,1.3.2,1s1,.6,1.4.7,1.4-.4,1.4-.4l1.1-.2.8-.7,1.4-.9h.6l1.6-.9,1.4-1.4v-.9c0-.4-.5-1.1-.5-1.1h-1.8l.5-.8.2-.9.5-.7,1-1.3.2-1.2,1.3-.2.6-.6,1.1,1.2s.9.7,1.2.8c.3,0,1.2-.4,1.2-.4l.3-1.4-.5-.8-.9-.8-.7-.5.2-1.5-.3-.5-.9-1.1s-.2-.5-.4-.9c0-.4.7-.8,1.2-.9s1.4.5,1.4.5l.7.6s1.1.2,1.5.3c.4,0,.3-.8.3-.8l.4-.8h.5s1.3-.4,1.5-.4.7-.8.7-.8v-.8h.8c0,0,1,0,1,0l.8-.5v-.8l.5.4h2.2c.2,0,1.7-.6,1.7-.6,0,0,.5-.9.6-1.2,0-.4-.2-.6-.2-.6l.3-.3.3-1.2,3,.4s1.4-.9,2-1.3,2.4-2.6,2.4-2.6l.7-1.3s.9-.4,1.2-1.6,0-2.4,0-2.4l-.2-1.6-.2.5h0Z"/>
                <path class="cls-2" d="M640,475.7l-.2-1.4-1.2-.3-.2-.8s-.2-.7-1.1-.7-1.1.4-1.1.4l-.2,2.1-1.9,1.9-1.8,1.5-1.1.3-.4,1.3-.6.2-.9.4-1.1.8-.8,1.5-1.7.5c0-.6-.5-1.9-.8-2.5-.3-.5-1.5-1.3-1.5-1.3,0,0-.9-.5-1.1-.6-.2,0-1.4-.2-1.4-.2,0,0-1,.2-1.2,0-.2,0-.9-.5-.9-.5h-.8l-.5,1.4.2,1.1-.6,1.2s.2,1.2.2,1.5.9,1.9,1.1,2h1.3l.9.2s.7.6.8.8c0,.2-1.2,1.1-1.2,1.1l-1.8.7-1.1.2h-1.3l-1.4.7-.3,1-.5.2-1.8,1.2h-.8c0,0-1,.4-1.2.3-.2,0-.9-.8-.9-.8h-.8l-.8,1.3.3,1.5.4,1.3.3,1.2v1.4s.2.9.2,1.1-.6.5-.6.5l-1.7.6-1.7,1.1-.5,1.2s-.8.3-1.3,1.4-.2,2.8-.2,2.8l.3,2-.4,1.3.2,1s1,.6,1.4.7,1.4-.4,1.4-.4l1.1-.2.8-.7,1.4-.9h.6l1.6-.9,1.4-1.4v-.9c0-.4-.5-1.1-.5-1.1h-1.8l.5-.8.2-.9.5-.7,1-1.3.2-1.2,1.3-.2.6-.6,1.1,1.2s.9.7,1.2.8c.3,0,1.2-.4,1.2-.4l.3-1.4-.5-.8-.9-.8-.7-.5.2-1.5-.3-.5-.9-1.1s-.2-.5-.4-.9c0-.4.7-.8,1.2-.9s1.4.5,1.4.5l.7.6s1.1.2,1.5.3c.4,0,.3-.8.3-.8l.4-.8h.5s1.3-.4,1.5-.4.7-.8.7-.8v-.8h.8c0,0,1,0,1,0l.8-.5v-.8l.5.4h2.2c.2,0,1.7-.6,1.7-.6,0,0,.5-.9.6-1.2,0-.4-.2-.6-.2-.6l.3-.3.3-1.2,3,.4s1.4-.9,2-1.3,2.4-2.6,2.4-2.6l.7-1.3s.9-.4,1.2-1.6,0-2.4,0-2.4l-.2-1.6-.2.5h0Z"/>
                <path class="cls-2" d="M621.2,495.9l-1.7,1.1-.6.6c0,.4.4.8.4.8h.5c0,0,.7.2.9,0,.2,0,1-.7,1-.7l.3-.6v-1.5h-.3l-.5.3h0Z"/>
                <path class="cls-2" d="M621.2,495.9l-1.7,1.1-.6.6c0,.4.4.8.4.8h.5c0,0,.7.2.9,0,.2,0,1-.7,1-.7l.3-.6v-1.5h-.3l-.5.3h0Z"/>
                <path class="cls-2" d="M614.4,479.4s1.3,0,1.4,0,.8-.3.9-.8c0-.5-.4-.9-.5-1.1,0-.2-.9-.5-1.5-.6s-1.1,0-1.1,0c-.3,0-.8.6-.9,1,0,.5.3.9.3.9l1.3.4h0Z"/>
                <path class="cls-2" d="M614.4,479.4s1.3,0,1.4,0,.8-.3.9-.8c0-.5-.4-.9-.5-1.1,0-.2-.9-.5-1.5-.6s-1.1,0-1.1,0c-.3,0-.8.6-.9,1,0,.5.3.9.3.9l1.3.4h0Z"/>
                <path class="cls-2" d="M621.7,469.1c.2,0,.6.7,1.1.6.5-.2.9-.8.9-.8,0,0,.6-1.3.6-1.4,0-.2-.4-1.3-.5-1.1,0,0-1.7-.3-2,0,0,0-.7.5-.7,1.1s.5,1.6.7,1.7"/>
                <path class="cls-2" d="M621.7,469.1c.2,0,.6.7,1.1.6.5-.2.9-.8.9-.8,0,0,.6-1.3.6-1.4,0-.2-.4-1.3-.5-1.1,0,0-1.7-.3-2,0,0,0-.7.5-.7,1.1s.5,1.6.7,1.7h0Z"/>
                <polygon class="cls-2" points="622.9 464.7 623.5 464.1 624.2 463 625.5 463.2 626.3 461.8 627.6 461.2 628.2 459.9 628.6 458.9 627 459.4 623.5 461.9 622.2 463.1 622.5 463.6 622.9 464.7"/>
                <polygon class="cls-2" points="622.9 464.7 623.5 464.1 624.2 463 625.5 463.2 626.3 461.8 627.6 461.2 628.2 459.9 628.6 458.9 627 459.4 623.5 461.9 622.2 463.1 622.5 463.6 622.9 464.7"/>
                <polygon class="cls-2" points="643.4 461.3 642.3 460.1 640.7 459.8 639.9 460 639.1 460.7 638.7 461.3 639.4 462 640.7 462.8 642.3 462.8 643.6 462.4 643.4 462 643.4 461.3"/>
                <polygon class="cls-2" points="643.4 461.3 642.3 460.1 640.7 459.8 639.9 460 639.1 460.7 638.7 461.3 639.4 462 640.7 462.8 642.3 462.8 643.6 462.4 643.4 462 643.4 461.3"/>
              </g>
            </g>
            <g id="_レイヤー_1-2-2" data-name="_レイヤー_1-2">
              <g id="_九州" class="cls-6">
                <path class="cls-5" d="M55.1,438.1l6.7,1,3.6,4.9,1.1-.5h2.3s1.3.1,1.1,1.3c-.2,1.2-1.2,2.7-1.2,2.7l-1,.8-3.5,1.6s-1.3.6-1.6,1.6c0,.7-.5,1.9-.5,1.9,0,0-.4.7-1.4.8l1.8,3.2v3.3l2.1.2h.9l-.4-.5v-1.1l3.1-2.5,3,.4.6-1.2s1-1.1,2.2,0c1.1,1.1,3.5,3,3.5,3l.8-1.7.9-.7-.9-2.1.2-1.3.7-.6-.2-1,.5-2.6s1.8-2.6,3.9-3.6c2.1-.9,3.2-1.5,4.1-1.5s2.8.3,2.8.3c0,0,.9.8,1.1.8s.7-.8.7-.8l.4-2.3.4-.6.2-.7s-3-.2-3.3-1.1c-.2-.9,0-2.3,0-2.3l-1.2-3.4-.6-1.4.5-1-.6-1.8s1.9-1.6,1.9-2.2.4-1.6-1.2-1.5l-2.2,1.1-1.8-1.1h-1.4l-1.7,1.5,1.6-2-.4-1.2-3.5-.6s-.9-.4-1.1,1.9h-5.3s-1.7.8-1.9,1.1c-.2.3-1.1,2.2-1.1,2.2l-.3,1.2-1.7,1.3-.4,1.1v.6l-.6.7v1.6l-3-.4-1,.4-1.9-3.7s-1.5-.2-1.9.5-3,0-2.9,1.5c0,1.5,1.2,2.4,1.2,2.4l-1.6.6-.6,1.5"/>
                <path class="cls-5" d="M55.1,438.1l6.7,1,3.6,4.9,1.1-.5h2.3s1.3.1,1.1,1.3c-.2,1.2-1.2,2.7-1.2,2.7l-1,.8-3.5,1.6s-1.3.6-1.6,1.6c0,.7-.5,1.9-.5,1.9,0,0-.4.7-1.4.8,0,0-2.2-2.6-2.4-2.6s-3.7,2.5-3.7,2.5l-.3.4v1.7l.4.6s.4.9.2,1.3c-.2.5-1.1,1.8-1.1,1.8l-.9-.3-1.3-.8-1.3-.6-3.5-4.7v-1.2l.5-.7s0-1.2-.4-1.5c-.4-.2-1.6-.8-1.6-.8l-1.4-.4s-1.4-2.1-1.5-2.7c0-.5.2-1.7.2-1.7l-.2-.6,1.1-2.3,1.7,2.2-1-1.7,1.1-.9.8-1.1-.6-1.3s-1.1-.7-1.3-1.7c-.2-1.3,1.1-1.3,1.1-1.3l1.1.4.4.5.4-1.3s.4-.6,2-.4c1.7.2,2.1,1.2,2.1,1.2l-.4,2,1-.3h3"/>
                <path class="cls-5" d="M43.6,441.8c-.2-.2-.5-1.9-1.5-1.9s-1.6.5-1.6.5c0,0-.6-1.7-1.9-1.9-1.3-.2-2.5.7-2.6,1.1,0,.3-.2,1.1-.2,1.1l.2.8.8.8-.8,1.1s-1.5,1.4-1.5,1.9.5,1.3.5,1.3l1.7.3s.6,1.7.9,2.2c.3.5,2.5.8,2.5.8,0,0,1.5.9,1.5,1.5v1.9s.3.8,2,1.1c1,.2,1.2,1.3,1.2,1.3v1.5l-.2,3.2,1.1,1.7.2,1.1-3.6-1.3-1.5-1v-1.7s1.4-.7,1.3-1.6c0-.9-1-2.1-1-2.1l-.7-.5-.3-1.6s-.9-2.1-2-2c-1.1,0-1.3.7-1.3.7l-.2,1.5-.4.2-.5,1.9-.6.3-.3,2.1.4,1.3s1.1,2.8,1.8,3.4c.8.6,1.8.9,1.8.9l-.5,2.1s.5,1.7,1.2,1.7,1.2-.2,1.2-.2l-2.6,2.8s-.4,2.1,1.1,2.1,3.2-2.4,3.2-2.4c0,0,1.4-2.2,1.8-2.2s1.7-.1,1.7-.1l.7-.3,1.6.3,1.2-.4,1.2.6,1.5.4.2.5-2.9,2.6-.4,1,.4,1.1v1.4s-.2,1.4,1.9.9c1.1-.2,2.2-.7,2.2-.7h1.4l.9-.3s1.6-.1,2-1.3c.4-1.1.5-2.2.5-2.2,0,0,.9-.4,1-1.9,0-1.5-.3-2.6-.3-2.6,0,0,0-1-1.3-1.1s-1.7-.2-1.7-.2l-.8-.9-4.3-.4s3-1.7,3-2.1-.2-1.7-.2-1.7l-.9-.3-1.3-.8-1.3-.6-3.5-4.7v-1.2l.5-.7s0-1.2-.4-1.5c-.4-.2-1.6-.8-1.6-.8l-1.4-.4s-1.4-2.1-1.5-2.7c0-.5.2-1.7.2-1.7l-.2-.6,1.1-2.3"/>
                <path class="cls-5" d="M32.8,401c.4-.1,1.3-.5,1.6-1.1.4-.7.6-2.1.6-2.1l4.1-3s.6-1.7.4-2.2c-.2-.5,0-1.3,0-1.3l1.3-1.2s.6-1.5-1-2c-1.5-.6-2.8,1.6-2.8,1.6l-2.1-.3-1.1,1s-.8,1.2-.6,1.5.8,2,.8,2l-.8,1.4-.9,1.7-1.1.5s-.6,2.1,0,2.6c.4.3.9.6,1.2.8v.3c-1.1.3-4.6,1.3-5.3,1.3l-.5,2.2-.6.4-.5,2.8-.7.6s-.6,2.6,1.1,2.5c1.7,0,3.3-.9,3.3-.9l.9-1.1.7-.6.4-1.2s1.1-.6,1.1-1.5.2-3.5.3-4.3l.2-.3h0Z"/>
                <path class="cls-5" d="M43.2,423.6s-.3-3.5,2.3-3.5,2.1,2.1,2.1,2.1v1.4s.6,3.3-2.5,3.1c-1.7-.4-1.9-3.1-1.9-3.1"/>
                <path class="cls-5" d="M31.6,439.1s-1.2,1.5-1.5,1.9c-.2.3-.6,2,0,2.4s1.8.3,2.1,0c.3-.3.8-1,.8-1,0,0,2.8-2.2,2.8-2.4s-3.2-.8-4.3-.9"/>
                <path class="cls-5" d="M17.3,451.4l-1,3.3-1.7-.3s-.8-1.2-.4-2.2c.4-1,1.5-1.3,1.5-1.3l1.6.5Z"/>
                <path class="cls-5" d="M1.8,461.1s-.5-1.5.5-1.7,1.6,0,1.6,0l1,.4h.7s.5-.5.8,0c.2.5.5,1.4.5,1.4v.8s1.4,1.1,0,1.6c-1.4.4-2.6,0-2.6,0l-.3-.2-.2,1.3s-.6,1-1,.8c-.4-.2-1-.6-1-.6,0,0-1.5-.4-1.2-1.1.3-.7.4-1.7.4-1.7l1-.9h-.2,0Z"/>
                <path class="cls-5" d="M77.5,459.1s-2.4-1.9-3.5-3c-1.2-1.1-2.2,0-2.2,0l-.6,1.2-3-.4-3,2.5v1.1l.3.5h-.9l-2.3-.2-.7,1.5v1.3l4.8,6.5-.8,2.8-3.7,2.3s-3.2,2.4-2.8,3.5c.5.4,6.8-.9,6.8-.9l-3.2,3-.9,4.9-4.2,3.5-4.6,4.4,2.8,3.2,1.6-.4s3.6-1.2,4-1,2.3,1.9,2.3,1.9l1.1,2.5,3.6.5,1.2-.4,6,.8,1.9-.5s1-.4,1-.8-.9-2.8-.7-3.2c0-.3,1.9-1.7,1.9-1.7l.4-.9s.6-.8.5-1c0-.2-2.5-4.1-2.5-4.1l.5-4.7,1.2-.7h1.3l8.3-8.7,1.4-.3v-1.5l-.8-1.5.2-1.4s.7-1.1.8-1.5v-1.6l-3.4-8.2-3-.4s-.7,0-.9.2c-.2.3-.4,1.3-.4,1.3v1.1l.3,1-.9.8-.7.9-5-4.3"/>
                <path class="cls-5" d="M45.5,476.6s-1.2.2-1.2.5v.8l.2.7-.8.9-.7,1.4-.4.6-.9,1.1s-.5.9-.5,1.2.4,1.2.4,1.2c0,0-.4.6,1.9.8,0,0-.3.1-.7.2-.3,0-.5-.3-1-.2h-.3l-.9,1.8.6-.2-.3.4.4.4v.6h-.5v.9h.5c0-.1.5.7.5.7h.4v-.8l.4.4.3-.2.9.2,3-2.8s.2.2.5-.1c.3-.3,0-.4,0-.4l1.1-1.2v.6l.4.3h.5l.3-.6.7-.7v-.7l-.7-.7.8-1.1.8,1.4v.6l-.3.5.7.4.6-1.5.6.6s.4.9.7,1c.3.2,1.2.1,1.2.1l.9-1,.3-.2v.7l-.2.6.4.4v.2l.2-.3.4-.5h.4l.6-.5.6-1.5v-1.1l1-1.6-.2-1.8s-.7-.4-1.2-.3c-.5,0-1.5.7-1.5.7l-.2.6-.2-.8-.2-.5-1.1-.4-.9.3-.6.5-1.1.4s-1.9.7-1.9,1.4c0-.1.3-1.8.3-1.8v-2.1l-1.3-.3s-3.4-.5-4.2-.3"/>
                <path class="cls-5" d="M77.5,459.1l.8-1.7.9-.7-.9-2.1.2-1.3.7-.6-.2-1,.5-2.6s1.8-2.6,3.9-3.6c2.1-.9,3.2-1.5,4.1-1.5s2.8.3,2.8.3c0,0,.9.8,1.1.8s.7-.8.7-.8l.4-2.3.4-.6.2-.7h1.1l2.3.9,1.3.6,2,1s1,.6,1.7.8c.6.2,1.4-1.3,1.5-1.8,0-.5,1.9-1.9,3-1.8,1.1,0,5.6,3.7,5.6,3.7l.3,1.6s.2.6.5,1.8c.3,1.1-1,2.7-1,2.7,0,0-1,1.5-1.1,1.9s-1.1,1.4-1.1,1.4l-1.8-.2v-1l-.4,2.3-.6.4-1.9-.2-2.2.2.2.8v1.9s1.5,1.4,2.7,1.5,2.4-.4,2.4-.4c0,0,4.3.5,6,.9s.4,2.2.4,2.2l-3.2,3.3h1.3l.7,1.3,1.6,3.3-.9,1.5.9,1,1.9.9-.3,3.3-1.8,1.6-.5,1.7-1.4-.6-.9.5-1.6.2v-1.3c0-.5-.6-1.1-.6-1.1,0,0-.8-.4-1.1-.4s-1,.2-1,.2l-2.9,2.2-4.1-.6-2.8-3.4s-.8-.5-1.1-.6c-.3-.1-1.4.2-1.4.2,0,0-.8.1-1.1.1s-1.1-.5-1.1-.5l-1.7-.5v-1.5l-.8-1.5.2-1.4s.7-1.1.8-1.5v-1.6l-3.4-8.2-3-.4s-.7,0-.9.2c-.2.3-.4,1.3-.4,1.3v1.1l.3,1-.9.8-.7.9-5-4.3"/>
                <path class="cls-5" d="M74.6,529.2l4.2,4.6s1.8,1.4,2.8-.4c.6-1.8,1.3-3.6,1.3-3.6l.8-2.9,3.1-2.6,1.3-2.2,1.1-7.1,1-1,.7-5.5,1-1.8,2.5-3.6.3-1.6.6-.4.6-1.6.4-1.2,4.2-3.9.4-1.3-.6-.9,1.7-1.4.6-3.2,7.1-4.9s.7-.5,0-1.7c-.7-.9-.2-1-.2-1v-1.3c0-.5-.6-1.1-.6-1.1,0,0-.8-.4-1.1-.4s-1,.2-1,.2l-2.9,2.2-4.1-.6-2.8-3.4s-.8-.5-1.1-.6c-.3-.1-1.4.2-1.4.2,0,0-.8.1-1.1.1s-1.1-.5-1.1-.5l-1.7-.5-1.4.3-8.3,8.7h-1.3l-1.2.7-.5,4.7s2.4,3.9,2.5,4.1c0,.2-.5,1-.5,1l-.4.8s-1.8,1.4-1.9,1.7c0,.3.8,2.8.7,3.2,0,.4-1,.8-1,.8l-1.9.5-6-.9-1.2.4-3.6-.5-.5.9.6,1.4.7,1.9,3.8,4.9-.3,3-.4.8.4.5,1.1.5s1.3.6,1.4,1.2.2,2.5.2,2.5l.4,1.7,1,1.7,2.6.5s1,1,1,1.4-.5,4.7-.5,4.7l-2.1,1.7h.6Z"/>
                <path class="cls-5" d="M65,499.7l-.5.9.6,1.4.7,1.9,3.8,4.9-.3,3-.4.8.4.5,1.1.5s1.3.6,1.4,1.2c0,.5.2,2.5.2,2.5l.4,1.7,1,1.7,2.6.5s1,1,1,1.4-.5,4.7-.5,4.7l-2.1,1.7s-.8-.2-1.8-.2-2.5,1.4-2.5,1.4c0,0-.4,1.1,0,1.1s2.3,1.5,2.1,2.8c-.3,1.1-3.4,3.3-3.4,3.3h-1.3s-.4,1.5-.8,1.9-10,4.1-11.9,4.3c-1.9,0-.6-3.3-.4-3.6.2-.3,3.1-1.5,3.1-1.5l.6-1.4.6-1.8.6-1.1.9-.7.8-2.2-3-5.6.4-3.3,1.9-1.4.9.4s2.6-2.4,2.8-2.7c.2-.3-2.7-4.1-3.8-4.5-1.9-.2-2.8,1.4-2.8,1.4l-.4,2-1.2.9-3,4.2v3.9l.4,1-.3,2.3s.9.7.7.6c2,.2,2,2.4,2.1,3,0,.6-.6,1.2-.6,1.2,0,0-.2.5-1.7,1.3-1.4.8-3.2.2-3.6-.3-.4-.5-1.9-3.7-1.9-3.7,0,0-4.8-.6-6.4-.9-1.7-.3-1.6-1.6-1.6-1.6l.2-1.7-.3-1.4s0-.6-.9-1.6c-.7-2.4.6-2,.6-2l3.3.2,3.7-6-.4-2.4s-.4-2.2-1.1-3.7c-2.6-3.6-2.1-3.9-2.1-4.3s2.7-3.5,2.7-3.5l-.7-1.5.3-2.8-.4-.7s.5-2.7.6-3.1,2-1,2-1l2.4,1.4,2.8-2.3,2.8,3.2,1.6-.4s3.6-1.2,4-1,2.3,1.9,2.3,1.9l1.1,2.5"/>
                <path class="cls-5" d="M43.7,564.2s-3.9.3-4.9,1.6c-.6,1.3-.6,3.1-.6,3.1l.6,2.8,2.1,2.6,2.8.6,1.9-1.2,3.2-1.8s.8-2.3.5-2.8c-.3-.6-2.8-2.8-2.8-2.8,0,0-2.3-1.7-2.8-2"/>
                <path class="cls-5" d="M63.7,555.7l-2.3,1.9-1.2,1.1-.6,2.2-.6,4.6-2.9,1.7-.5,3.5s.8,2.3,2,2.2c1.2,0,2-1.4,2-1.4l.6-2.8,1.9-2.4.7-1.2.8-1.4,1.3-1.2v-1.8l1.1-.6.7-4.3s0-1.3-1.9-1.3-1.2,1.3-1.2,1.3"/>
              </g>
              <g id="_沖縄-2" class="cls-6">
                <path class="cls-5" d="M99.3,77.2l1.7-.5.8-1.5,1.1-.8.9-.4.6-.2.4-1.3,1.1-.3,1.8-1.5,1.9-1.9.2-2.1s0-.5,1.1-.4c.9,0,1.1.7,1.1.7l.2.8,1.2.3.2,1.4.2,1.6s.3,1.2,0,2.4-1.2,1.6-1.2,1.6l-.7,1.3s-1.8,2.2-2.4,2.6-2,1.3-2,1.3l-3-.4-.3,1.2-.3.3s.3.2.2.6c0,.4-.6,1.2-.6,1.2,0,0-1.6.6-1.7.6h-2.2l-.5-.4v.8l-.8.5h-1c0,0-.8,0-.8,0v.8s-.5.8-.7.8-1.5.4-1.5.4h-.5l-.4.8s0,.8-.3.8-1.5-.3-1.5-.3l-.7-.6s-.9-.6-1.4-.5c-.5,0-1.3.5-1.2.9s.4.9.4.9l.9,1.1.3.5-.2,1.5.7.5.9.8.5.8-.3,1.4s-.9.4-1.2.4-1.2-.8-1.2-.8l-1.1-1.2-.6.6-1.3.2-.2,1.2-1,1.3-.5.7-.2.9-.5.8h1.8s.5.7.5,1.1v.9l-1.4,1.4-1.6.9h-.6l-1.4.9-.8.7-1.1.2s-1,.6-1.4.4c-.4,0-1.4-.7-1.4-.7l-.2-1,.4-1.3-.3-2s-.3-1.7.2-2.8,1.3-1.4,1.3-1.4l.5-1.2,1.7-1.1,1.7-.6s.6-.3.6-.5-.2-1.1-.2-1.1v-1.4l-.4-1.2-.4-1.3-.3-1.5.8-1.3h.8s.7.8.9.8,1.2-.4,1.2-.4h.8c0,0,1.8-1.1,1.8-1.1l.5-.2.3-1,1.4-.7h1.3l1.1-.2,1.8-.7s1.2-.9,1.2-1.1-.8-.8-.8-.8l-.9-.2s-1.1.2-1.3,0c-.2,0-1.1-1.6-1.1-2s-.2-1.5-.2-1.5l.6-1.2-.2-1.1s.4-1.5.5-1.4h.8s.7.5.9.5,1.2,0,1.2,0c0,0,1.2,0,1.3.2.2,0,1.1.6,1.1.6,0,0,1.2.8,1.5,1.3s.9,1.8.8,2.5"/>
                <path class="cls-5" d="M92.5,91.4l.6-.6,1.7-1.1.5-.3h.5v1.6l-.4.6s-.8.6-1,.7h-1.4c0,0-.4-.5-.4-.9"/>
                <path class="cls-5" d="M87.3,70.7s.5,0,1.1,0,1.4.4,1.5.6c0,.2.6.6.5,1.1s-.8.8-.9.8-1.4,0-1.4,0l-1.3-.4s-.4-.5-.3-.9c0-.5.6-1,.9-1"/>
                <path class="cls-5" d="M95.3,60s-.7.5-.7,1.1.5,1.6.7,1.7c.2,0,.6.7,1.1.6s.9-.8.9-.8c0,0,.6-1.3.6-1.4,0-.2-.4-1.3-.5-1.1,0,0-1.7-.3-2,0"/>
                <polygon class="cls-5" points="100.6 53.1 97.1 55.6 95.8 56.8 96.1 57.3 96.5 58.4 97.1 57.8 97.8 56.7 99.1 56.9 99.9 55.5 101.2 54.9 101.8 53.6 102.2 52.6 100.6 53.1"/>
                <polygon class="cls-5" points="113 55.7 112.3 55 112.7 54.4 113.5 53.7 114.3 53.5 115.9 53.8 117 55 117 55.7 117.2 56.1 115.9 56.5 114.3 56.5 113 55.7"/>
              </g>
              <g id="_四国">
                <path class="cls-5" d="M199.8,464.2c-1.2,0-1.5-1-1.5-1l-2.2-.6-1.1-2.3.2-.6s.5-1.1.5-1.9-.9-1.2-.9-1.2l-2.6-.5.2-3.4-.4-.8-1.1-.9h-.6c0,.1-1.8.3-1.8.3l-.3.3h-.8l-6.5-4.6-1.4-.5.4-1.2.7-1.3.4-2,3-2s3.8-1.7,4.2-1.7,1.9.8,2.1.9c.2,0,2.1,1.5,2.3,1.6.3.1,2.1-1.5,2.1-1.5l1-.2,2.9-2.2,3.1.6.8.4,3.4.9.3.7h1.1l.5-.7.4-1v-.9c.2.7,1.1,0,1.1,0l2.2.4s.9-.6,1.5-.4,1.2.6,1.2.9v1s2.4,1,1.8,2c-.6,1.1-1.8,2.4-1.8,2.4l-1.2,2.3,2.8,3.8s1.3,1.1.4,2.1c-.9,1-2.7,1.9-2.7,1.9l1.6.5s2.4,2.1,0,2.8c-2.3.7-6.3,2.1-6.3,2.1l-3.1,1.1-3.1,2-.8.7-1.9,1.7"/>
                <path class="cls-5" d="M181,442.1l-1.2-.7-.8-.6-.5-.7v-1.7l1.4-2.9.8-1.5s.2-1.5.7-1.5,1.4.2,1.4.2l3.2-1.9,1.1-.5,2.3-1.3,2.6-1.4,2.7.8s1.8,1,2.2,1,1.5-.8,2.2-.6c.7.2,1.5.5,1.5.5v1.1s1.2-.8,1.7-.8,1.9.8,1.9,1.9v2.6s3.9,2.3,4.1,3v.9l-.4,1-.5.7h-1.1l-.3-.7-3.4-.9-.8-.4-3.1-.6-2.9,2.2-1,.2s-1.8,1.6-2.1,1.5-2.2-1.6-2.3-1.6c-.2,0-1.7-.9-2.1-.9s-4.2,1.7-4.2,1.7l-3,2"/>
                <path class="cls-5" d="M205.4,427s-.8.2-1.2.1-1.6-1.5-1.6-1.5c0,0-.4-2,1.1-2.7,1.3-.5,2.1-.4,2.1-.4l2.7.6s.4.5.2,1.5c-.2.9-.6,1.3-.6,1.3l-.3,1.9s-.5.6-1.3.5-.8-1-1.1-1.2"/>
                <path class="cls-5" d="M181,442.1l-1.2-.7-.8-.6-.5-.7-2.8,1.5-1.4-.7-1.6-.4-1-.8-3.6-.2-.9.2h-1.1l-1.1.5-1.3.3s-1.5.5-1.9.3-.4-1.9-.4-1.9l-.3-.9-.8-1.5-1.1-.8v-1.3s-.2-1.5-.9-2.4c-.6-.8-1.9-.7-2.4-.8-.6,0,0,1.8,0,1.8v1.3h-2.7s-1.5.5-2,.5-1.9,1.6-1.9,1.6l-.8,1.3-.7,2-.6,1.9-1,1.9-1.5,2.8-1.2,1.3-2.1.8-1.6.9-2,.5-2.4.9-3.2,1.6s-.7-.4-1.7.6c-1,1.1,0,2.4,0,2.4l1.5.2,1.9.6c-.8,0-1.3,1.8-1.5,2.3s.8,1.2.6,1.6c-.1.4,0,1.5,0,1.5l3.5.9.2,1.7s.8,1.2.8,1.4-3.6,3-3.7,3.2c-.1.2.2,1.3.2,1.3l-.7.6-.3,3.3,1.4,2.6v1.5l1.5.5s.2,1,1,1.1c.8.2,2.3-.5,2.3-.5h0l.7-1.6-.2-1-.2-2.8v-2.5c-.1,0-.2-1-.2-1l.4-.7s1.2,0,1.2.1c.9,1.2,1.7.2,1.7.2l4.3-3.9,2.8-1.5s-1-3.8-1.1-5.1c.6-1.7,2.4-1.2,2.4-1.2l4.4.3,1.3-1.2s.6-2.4.6-3.2,2.9-3.6,4.1-4.9c1.2-1.2,3.4-2.4,4.3-2.8.9-.4,3.6,0,3.6,0h3.5l4.8-.3,2.8.3.4-1.2.7-1.3.4-2"/>
                <path class="cls-5" d="M199.8,464.2l-.2,1.5-1,.5-.7,1.9-1.1,1.4-.6,1.5-.4,1.8-.6.5s-1.4,2.5-2.3,2.4c-.9-.2-5.8-9.2-5.8-9.2,0,0-2.6-2.1-3-2.3-.4-.2-1.8-1.3-1.8-1.3l-1.1-1.1-1-.6-1,.5-2.4-.6s-1.1,1.1-1.6,1c-.5-.2-1.3-1-1.3-1,0,0,0,1.1-.5,1.4-.6.2-1.9.3-1.9.3l-1.6.2-1.1.5-1.1.3-2.4.6s-.2,1.5-.8,1.5-1.1-.8-1.1-.8l-1.7,1.4.3.9-.3,3.7s-1.5,1-1.5,1.2.2,1.2-.2,1.3c-.4,0-2.1.2-2.1.2l-1.5,1.6s-1.8,2.8-2.2,3-1.2.6-1.2.6h-2.1l-.8,4.9-1.7,1.3-.3.5v.4s0,1.6-1.3,1.6-2.3-.4-2.3-.4c0,0-.8,1.2-2.2.7s-1.9-1.2-1.9-1.2c0,0-1.3-1.6-1.5-1.5-.2,0-1.2.6-1.5.5-.3,0-1.5-1.2-1.2-1.8.3-.6,1.3-2.7,2-2.6.6,0,1.3-.2,1.3-.2l-1.1-1.9h0l.7-1.6-.2-1-.2-2.8v-2.5c-.1,0-.2-1-.2-1l.4-.7s1.2,0,1.2.1c.9,1.2,1.7.2,1.7.2l4.3-3.9,2.8-1.5s-1-3.8-1.1-5.1c.6-1.7,2.4-1.2,2.4-1.2l4.4.3,1.3-1.2s.6-2.4.6-3.2,2.9-3.6,4.1-4.9c1.2-1.2,3.4-2.3,4.3-2.8.9-.4,3.6,0,3.6,0h3.5l4.8-.3,2.8.3,1.4.5,6.5,4.6h.8l.3-.3,1.8-.2h.6c0-.1,1.1.7,1.1.7l.4.8-.2,3.4,2.6.5s1,.4.9,1.2c0,.8-.5,1.9-.5,1.9l-.2.6,1.1,2.3,2.2.6s.3,1,1.5,1"/>
              </g>
              <g id="_中国" class="cls-6">
                <path class="cls-5" d="M216.1,379.4l-3.6.7-2.7,1.6-9.5-1.4-1.5.6-3.8-.5-.6-.9-2.9-.5-.6-.7-3.2-.2-4.8,1.9-.9-.8h-1.3s-.3-1.1-.8-1c-.5,0-1.4.4-1.4.4l-.6,1.6.2.5,1.3.4.7.6-.2,2.1-.9,2.9s-.7,1.2-1.1,1.4-2.5.2-2.5.2l-1,.2-1.3.3.6.4.4.6v.8l-1,1.1-.8.6-.7,1.6.3.5,2.1.4,1.9,1.3s.6-.9.9-1c.3,0,1-.2,1-.2h1.7c0-.1,1.3-.2,1.3-.2,0,0,.6-.3.6-.5v-1.6l.4-.3,2.9.3.9-.3.4-.6-.2-1.4,2.1-1.5.4-1.2s.6-.7,1-.7,1.1.4,1.1.4l1.6.3,2.6,3.9s.4.4.7.4,1.2-.2,1.2-.2l3.3-1.7s.4-.3,1-.2c.6,0,1.1.4,1.1.4l1.4,1.3,1.5.7.2,1.1v1.9s.4.9.6,1c.2.2.5.7.9.6.4,0,1.7-.3,1.7-.3l5.5-1,1.2-.9,1.1-.4h1.7l.8-.6.6-3.2-.4-1.5-.8-1.1v-1.6l-.4-2-.8-1.7v-1.1l-.2-1.6-.8-.7"/>
                <path class="cls-5" d="M177.9,380.2l-3.7-1.3.4-1.7,1.1-1.8s-.9-3-2.7-3.2c-1.8-.1-4.3,2.4-4.3,2.4l-2.2-.3-2.9.5-3,.4-.6.6-2.2-.5s-1.2.3-1,1.4.9,2.3.9,2.3l-.9,1-.9,1.8-7,2.4-4.5,3.1s-.8,1.6-1.9,2c-1.1.4-6.1,2.4-6.1,2.4l-11.9,8.6h-4.9s-.9,1-1,1.5l.6,1.2v1.3l.4,1.2-2.1,1.8s-1.4,1.3-.4,2.7c.6,1.2,1.1,1.6,1.1,1.6l2.6.4s-.6.2-.7.5-.9,1.4-.9,2.1.3,2.1.7,2.5c.3.5,1.1,1,2.4.6.3-.1,1-.4,1-.4,0,0,.8-.1.9,0,0,0,.6.7,1.1.7s1.2-.2,1.3-.3c0-.1,1.3-1.4,1.3-1.4l1.9-1.1.4-2.9-.8-.5.2-2,3-2.7,1-1.1.8-1.8-.3-1.3.5-.8,3.2-2.2,2,.2,1,.4.5.4,1.6.4.7.4s1.5-1.5,2.2-1.5,1.7.9,1.7.9l1.1.6,1.9-.2h1.6c0-.1.5-.4.5-.4l1-.2s-1.3-2.4-1.1-2.9c.1-.5.9-.9.9-.9h1.1l7.5-5.1s.7-.2,1.8,0,1.9.6,1.9.6l3.3.6,1,.5.7.4h1.1c0,.1.7-1.5.7-1.5l.8-.6,1-1.1v-.8l-.4-.6-.6-.4,1.3-.3,1-.2s2.1,0,2.5-.2,1.1-1.4,1.1-1.4l.9-2.9.2-2.1-.7-.6-1.3-.4-.2-.5"/>
                <path class="cls-5" d="M174.5,342.4c-1.6,0-3.4,1.8-3.5,2.2,0,.4-.8,2.1-.6,2.5s.5,3.1,1.2,3.3c.7.3,2.5.5,2.5.5l1-1.8,1.6-.4s.9-1.7.9-2.4-1.6-4.1-3.2-4.1"/>
                <polygon class="cls-5" points="165.4 351.8 162.6 353.8 160.6 355.1 158.7 358.5 160.6 360.3 162.1 358.5 162.6 356.9 164.5 358.5 168.1 358.3 166.6 355.2 165.8 353.6 167.1 350.2 165.4 351.8"/>
                <polygon class="cls-5" points="168.1 352.8 168.8 355.2 169.5 356.7 168.1 360.3 171.8 358.3 172.4 355.2 171.8 353.6 168.1 352.8"/>
                <polygon class="cls-5" points="162.6 360.3 165.8 361.7 167.1 362.9 169.3 361.7 168.1 363.7 168.1 364.9 165.9 364.9 163.4 363.5 163.4 364.3 161.2 361.7 162.6 360.3"/>
                <path class="cls-5" d="M214,395.8v1.7l-.5.9-5.3,4.3-.5,1.1.4,1.3-.2,2.8-1.3,1.4-.3.8,2.8,4.6s-.2,1.1-.3,1.4c-.2.3-1.4.1-1.4.1,0,0-1.1-.2-1.2-.2-.2-1.1-1.6-1.3-1.6-1.3,2,.4,1.1,2.3,1.1,2.3,0,0-2.8,2.1-3.5,2.8-1,.9-1.8.8-1.8.8l-1.2-.6-2.9-1.3-2.3.6s1.9-.5,2.4-.4c1.8.1,1.3,1.9,1.4,2.2-.6,1.4-2.5,1.7-2.5,1.7,0,0-1,2.1-1.7,2.3-.8.3-1.7-.6-1.7-.6l-1.3-.6s-1,.7-1.7.6c-.7,0-1.6-2.6-1.6-2.6l-1.4-.3s-.5-.8-.8-.8-2.5,1.4-3.2,1.5c-.8.1-2.2-1.9-2.2-1.9,0,0-1.5-.2-1.7-.2l-.4-2.3v-2l-.4-1.1-.2-2v-1.8l-.2-1.3.7-1.4.3-2.4-2-3.1.4-.7.6-1.8.9-1.4-.2-1.3-.9-1.3s.6-.9.9-1c.3,0,1-.2,1-.2h1.7c0-.1,1.3-.2,1.3-.2,0,0,.6-.3.6-.5v-1.6l.4-.3,2.9.3.9-.3.4-.6-.2-1.4,2.1-1.5.4-1.2s.6-.7,1-.7,1.1.4,1.1.4l1.6.3,2.6,3.9s.4.4.7.4,1.2-.2,1.2-.2l3.3-1.7s.4-.3,1-.2c.6,0,1.1.4,1.1.4l1.4,1.3,1.5.7.2,1.1v1.9s.4.9.6,1c.2.2.5.7.9.6.4,0,1.7-.3,1.7-.3l5.5-1"/>
                <path class="cls-5" d="M176.1,396.3l.9,1.3.2,1.3-.9,1.4-.6,1.8-.4.7,2,3.1-.3,2.4-.7,1.4.2,1.3v1.8l.2,2,.4,1.1v2l.5,2.3c0,1.6-.9,2.1-.9,2.1l-1.5-.2-.8,2.3s-1,.9-2.2.8c-1.2-.2-2.4-1.7-2.4-1.7l.2-1.8-3.5.3-1.7-.2-2.8,2.2-1.6-.2-1.2.8-4.9-.6c-.5,0-2.6,2.6-2.6,2.6,0,0-2.9.6-4,.7-1.1,0-.4-1-2.2-1.5-1.7-.5-2.3-4.1-2.3-4.1l-.2-1.5.7-.5-4.5-.9-5.9,4.4.3-.2-.6.3s-2,0-2.1-.3c0-.2-.2-.9-.2-.9l-.4-1,.2-2.7-1-1.8.2-1.4.4-2.9-.8-.5.2-2,3-2.7,1-1.1.8-1.8-.3-1.3.5-.8,3.2-2.2,2,.2,1,.4.5.4,1.6.4.7.4s1.5-1.5,2.2-1.5,1.7.9,1.7.9l1.1.6,1.9-.2h1.6c0-.1.5-.4.5-.4l1-.2s-1.3-2.4-1.1-2.9c.1-.5.9-.9.9-.9h1.1l7.5-5.1s.7-.2,1.8,0,1.9.6,1.9.6l3.3.6,1,.5.7.4h1.1c0,.1.3.6.3.6l2.1.4,1.9,1.3"/>
                <path class="cls-5" d="M141.1,428.3v1.7s-.6,2.2,1.5,1.6,2.1-2.5,2.1-2.5c0,0-1.3-2.3-1.8-2.3s-1.7.5-1.7,1.5"/>
                <path class="cls-5" d="M159.3,426.7s-1,2.2-.4,2.2,2.6.6,3.2-.6c.6-1.2.8-2.4,0-2.4s-2.4,0-2.8.9"/>
                <path class="cls-5" d="M133.3,423.2l.9,1.5-.3,1.9-1.8,1.2.3,1-.8,4-3.3,1.2-.2,2-.7.8-1.1-.4-1.5-2.1-2.2-.5-2.9-3.8-1.2-.3-2.1-2.8s-6.3,1.6-7.3,1.4c-1.1-.2-1.9-1.8-1.9-1.8l-1,.5-2.3-.5v-1.2l-1,1.4-1.1,1.3s-1.6.6-2.4.8c-.8.2-1.3-.9-1.3-.9l-2.5-.4-.3-2.3s-2.3-2.5-2.9-2.5-3.5,2-3.9,2-.9-1-.9-1l.4-2.4s-1.4-1.9-1.4-2.9c.2-1.3,2.6-3.7,2.6-3.7,0,0-1.3-3.2-1.4-3.8,0-.6,2.6-2.3,2.6-2.3h2.8s-2-.9-2.1-.8c.2-1.7,1.8-2.6,2.6-2.6s1.7,1.3,1.7,1.3l2.8.4,1.4,2.5,4.5.6,3.2-.9v-1.6l1.9-1.8,6.2-4.3s3.4.5,3.5,0l.6,1.2v1.3l.4,1.2-2.1,1.8s-1.4,1.3-.4,2.7c.6,1.2,1.1,1.6,1.1,1.6l2.6.4s-.6.2-.7.5-.9,1.4-.9,2.1.3,2.1.7,2.5c.3.5,1.1,1,2.4.6.3-.1,1-.4,1-.4,0,0,.8-.1.9,0,0,0,.6.7,1.1.7s1.2-.2,1.3-.3c0-.1,1.3-1.4,1.3-1.4l1.9-1.1-.2,1.4,1,1.8-.2,2.7.4,1s.2.8.2.9c0,.2,2.1.3,2.1.3"/>
                <path class="cls-5" d="M129.6,435.1s-1.1,3.6.6,3.5c1.7-.2,2.8-.9,2.8-.9,0,0,.9.2.9-.8s-1.2-2.9-2.3-3c-1.1,0-1.9,1.2-1.9,1.2"/>
              </g>
              <g id="_近畿" class="cls-6">
                <path class="cls-5" d="M292.6,417.2l-.8.8-1.9-.4s.2,2.2-.6,3.6c-.8,1.5-2.8,3.2-2.8,3.2l-.6,1.9-1.9,1.1-.9,4.7,4.1,2.9,4,2.3,1.9,1.9.6,2.4c1.3-.5,2,1,2,1.6s-.5,1.1-.5,1.1l-3.2-.4c2.6.3,2.5,2,2.4,2.7,0,.7-1,1.7-1.6,1.8-.6,0-1.1-1.4-1.9-1.5-.7-.1-2.4.9-3.2.9s-1.2-1.3-1.2-1.3l.7-1.4-.6-.3-4.1,2.7-1.5.5-3.3-.4s-.8.3-1.6.6c-.8.3-2.9.9-3.8,1.5-.9.5-3,3.2-3.1,3.3,0,0,.7,1.9.7,2.3s-1,1.3-1,1.3c0,0,0,1.3-.1,2-.2.7-2.1,1.1-2.6,1.1s-2.9,2-2.9,2l-2.1,2.6-1.5,2.1-.8-.6s-1.2-.9-1.7-1.5c-.5-.5-1.2-1.9-1.2-1.9l-.5-1.3v-1.3l.3-1.2,1-.8h1l.9-.4.9-.4,1.1-.4.3-1.7,1.1-.7h2.1l.5-1s.5-.6.7-1.2-.3-1.6-.3-1.6v-.9l.2-1.8.3-.5.9-1,.4-.8s-.3-.6-.6-1.5.2-1.4.2-1.4h1l-.6-1s-.4-.7-.7-1.5c-.3-.8.4-1.3.4-1.3l1.1-.8,1.8-1,.9-.8.9-.5-.6-.5-1.4-1.1-1.1-.9-1.2-.6-.4-.7v-1.1l.6-.6.2-1.5.5-1.2-.8-.9v-2.5l1.1-1h1.5l.2-1.2s.2-.9.3-1.1c.1-.2,1.7.2,1.7.2l.6.3s.5.6.6.8c0,.2,1.9.4,1.9.4l1.6-.7,1-.7,1.5.3.5-.4.3-1,.3-.4s.4-1,.6-1.2,0-.6,0-.6l.8-.6.4-.5.2-.5.4-1,.3-.6.7-1.7v-1.7l-.3-.6.3-2.9s1.6-.6,2.3-.4c.7.3,2,1.3,2,1.3l1.4,2.1.9,2.1.6,1.7.9,1.1.9,1.6"/>
                <path class="cls-5" d="M281,388.5l-.3,2.5.6,1,.4.7,1.3.4v1.5l.4.8.3,1.1.5,1.1v1.4l.2.6-.4.9-.8,1.8-.7.9-.6,1-.4.6s-.4.5-.4.7.1,1.3,1,1.8c.9.4,1.3.3,1.3.3l-.3,2.9.3.6v1.7l-.7,1.7-.3.6-.4,1-.2.5-.4.5-.8.6s.2.5,0,.6-.6,1.2-.6,1.2l-.3.4-.3,1-.5.4-1.5-.3-1,.7-1.6.7s-1.8-.3-1.9-.4c0-.2-.6-.8-.6-.8l-.6-.3s-1.6-.4-1.7-.2c-.1.2-.3,1.1-.3,1.1l-.2,1.2h-1.5l-1.1,1-.7-.2-.3-.6-1.8-3.8-2.1-.5-1.1-1.4-.4-1.1v-2.4l-.3-1.6-.2-1.5.5-1.4.3-1.5.6-1.4.8-2.8s.5-.6.6-1.1,0-.9,0-.9l-1.3-1.9-1.1-1.1c.5-.2,3.1-1.9,3.3-2.7,0,0,.6.8,1.3.8s1.4-1,1.4-1l1.3-2.4s.4-.5.7-.4c.2,0,.7.5.7.5,0,0,.3.4,1,.5.6,0,2.6-.7,2.6-.7,0,0,1.2-.1,1.8-1.3,0,0,.2-.9.2-1.2,0,0,0,1.1,1.5.5.2-.3.5-.9.6-1.7.1-.8-.2-2.7-.2-2.7l1.1.2,1.3.8,1.8.9"/>
                <polygon class="cls-5" points="272.4 396.2 272 398.4 272.4 398.9 272 401.9 267.1 405.6 266.2 406.5 263.8 412 263.8 413 266.2 408.2 268.1 407.8 270.1 407.6 270.2 406.1 277.1 402.3 278 400.1 276.6 397.6 275.6 395.5 273.8 395 272.4 396.2"/>
                <path class="cls-5" d="M233.7,380.7l-.3,1.5-.6.7,2.4,3.9.5-.3s.6-.2,1.4-.1c.7.1,1.8.5,1.8,1.3s-.5,3.6-.5,3.6c0,0-.1.8-1.3.6-1.2-.1-2.8-.2-2.8-.2l-.5,2.1-.4.9,3.1,3.5s.5.7.9.8c.4,0,1.5-.7,2.4-.6.9,0,1.3.6,1.4,1.2,0,.6.1,2,.1,2,0,0-.1,1.7,1.9,2,.5,0,1.1.5,1.1.5l2.3.3s1.1.6,1.1,1.5-.4,1.7-.4,1.7l-.5,1,.6.6,2.9,3.8.7.6,2.5.6.4.5,1.5.5s1,1.2,1.4,3.9c.2,2,.1,3.3.1,3.3l2.5,2.9s.4.4,1.1.5c.7,0,2.3-1.2,2.6-1.2s1.2,1.2,1.4,1.3c.2,0,.5.3.9.3s1.7-.3,1.7-.3v-2.6l-.7-.2-.3-.6-1.8-3.8-2.1-.5-1.1-1.4-.4-1.1v-2.4l-.3-1.6-.2-1.5.5-1.4.3-1.5.6-1.4.8-2.8s.5-.6.6-1.1,0-.9,0-.9l-1.3-1.9-1.1-1.1c-.5.2-4.4-1.2-4.4-1.2,0,0-2-.3-3-1.1-.9-.7-2.1-4.1-2.1-4.4s.5-1.2.6-1.7c0-.5,1.6-1.1,1.6-1.1,0,0,.8-2.2.2-2.8-.6-.5-2.1-.2-2.1-.2l-3.1,1.8-.3.8.7,1.4-3.5-3-1.9-.5,3.8-3s1.1-1,1-1.6-1-4.1-2.8-4.4c-1-.1-11.8,3.2-11.8,3.2"/>
                <path class="cls-5" d="M233.1,436.3l3.4.2,5.2-4.2,1-2.5,2.2-1.8.2-1.1s0-2.1-.4-2.9v-.2s2.1-.9,2.4-1c.3-.1.6-2.9.6-2.9l-.4-.9-.3-.7.2-2.3-.2-.6s.7-.3.8-.9c0-.6-1.1-1.3-1.1-1.3l-1.8-1.9s.2-1.6.4-1.9c.2-.4,1.4-.5,1.4-.5l.6.6,2.9,3.8.7.6,2.5.6.4.5,1.5.5s1,1.2,1.4,3.9c.2,2,.1,3.3.1,3.3l-1.4.9-.6,1.6-.7,1.3-1.2,1.7-.3.7.3,1.5v1.4l.3,1.1-.2,1.7-.6,1.2-.8,1.9h-1.8l-3.6.2h-3l-1.1.3h-2.1l-1,.3h-1.9l-.6.4-3.1-.2-1.2-1.8.5-.6h.4Z"/>
                <path class="cls-5" d="M244.7,424c-.4-1-2.5-1.8-3.4-2s-4.2,1.6-4.2,1.6h-2.1s-2.3.6-2.9.6-9.2-7.8-9.7-8-1.1,0-1.7.4-3,0-3,0c0,0-1.5-.3-2.6-.4s-.9-3.1-1.1-2.1c-.1,1-2,1.9-2.7,2.1-.7.1-2.2-1.3-2.2-1.3l-2.9-4.6.3-.8,1.3-1.3.2-2.8-.4-1.3.5-1.1,5.3-4.3.5-.9v-1.7l1.2-.9,1.1-.4h1.7l.8-.6.6-3.2-.4-1.5-.8-1.1v-1.6l-.4-2-.8-1.7v-1.1l-.2-1.6-.8-.7,5.1-1.3,9.4,1.4,3.2,1.3-.3,1.5-.6.7,2.4,3.9.5-.3s.6-.2,1.4-.1c.7.1,1.8.5,1.8,1.3s-.5,3.6-.5,3.6c0,0-.1.8-1.3.6-1.2-.1-2.8-.2-2.8-.2l-.5,2.1-.4.9,3.1,3.5s.5.7.9.8c.4,0,1.5-.7,2.4-.6.9,0,1.3.6,1.4,1.2,0,.6.1,2,.1,2,0,0-.1,1.7,1.9,2,.5,0,1.1.5,1.1.5l2.3.3s1.1.6,1.1,1.5-.4,1.7-.4,1.7l-.5,1s-1.2,0-1.4.5c-.2.4-.4,1.9-.4,1.9l1.8,1.9s1.1.7,1.1,1.3-.8.9-.8.9l.2.6-.2,2.3.3.7.4.9s-.3,2.8-.6,2.9-2.4,1-2.4,1v.2"/>
                <path class="cls-5" d="M229.6,425.4l-11.8,8.4s-.7,1.4-.8,2.2c-.1.8,0,1.8.3,1.8s1.2.4,1.4,0-.4,1.5-.4,1.5c0,0,.2,1.5.9,1.4.7,0,1.9-.4,1.9-.4l5.4-1.6s.6-.8.7-1.3-.4-1.6-.4-1.6v-1.6l-.3-.3-.3-2.1,1.9-1.3.2-1,2.7-2.3s.3-.9.3-1.3-.9-.9-1.7-.7"/>
                <path class="cls-5" d="M267.1,426.2l.8.9-.5,1.2-.2,1.5-.6.6v1.1l.4.7,1.2.6,1.1.9,1.4,1.1.6.5-.9.5-.9.8-1.8,1-1.1.8s-.6.5-.4,1.3c.3.8.7,1.5.7,1.5l.6,1h-1s-.5.5-.2,1.4.6,1.5.6,1.5l-.4.8-.9,1-.3.5-.2,1.8v.9s.5,1,.3,1.6-.7,1.2-.7,1.2l-.5,1h-2.1l-1.1.7-.3,1.7-1.1.4-.9.4-.9.4h-1l-1,.8-.3,1.2-1.7-.4-1.1-.6-2.2-.4-2.3-.7-1.1-.6.4-1.1.6-1,.4-.9v-1.4l-1.7-3.1s-.4-1-.4-1.3.4-.7.4-.7l4.6-3.5,1,.3.8-.4.3-.5-.3-.8-.2-.7-.2-.6-.3-.9-.3-1.2v-1l-.3-.8.8-1.9.6-1.2.2-1.7-.2-1.1v-1.4l-.3-1.5.3-.7,1.2-1.7.7-1.3.6-1.6,1.4-.9,2.5,2.9s.4.4,1.1.5c.7,0,2.3-1.2,2.6-1.2s1.2,1.2,1.4,1.3c.2,0,.5.3.9.3s1.7-.4,1.7-.4"/>
                <path class="cls-5" d="M259.7,466.3l-.8-.6s-1.2-.9-1.7-1.5c-.5-.5-1.2-1.9-1.2-1.9l-.5-1.3v-1.3l-1.7-.4-1.1-.6-2.2-.4-2.3-.7-1.1-.6.4-1.1.6-1,.4-.9v-1.4l-1.7-3.1s-.4-1-.4-1.3.4-.7.4-.7l4.6-3.5,1,.3.8-.4.3-.5-.3-.8-.2-.7-.2-.6-.3-.9-.3-1.2v-1l-.3-.8h-1.8l-3.6.2h-3l-1.1.3h-2.1l-1,.3h-1.9l-.6.4-3.1-.2-1.2-1.8v.2c-.1,0-2.3-.3-2.3,1.7.1.7,3.6,5.6,3.6,5.6l-3.3,2.2s-.3.5-.4.9c0,.5,1.4,1.6,1.4,1.6,0,0-1.4.5-1.7.9s-.2,2-.2,2c0,0-1.1.5-1.1,1.4s1,1.6,1.6,1.9l1.3,2.8,2.5,3,3,2.1s-1.2,1.9-1.2,2.2.9,1.7,1,1.9c0,.1.2,1.3.2,1.3,0,0,1.4,2.3,2.8,2.9,1.4.6,2.9,1.5,4.1,1.8,1.1.4,4.5,2,4.5,2,0,0,1,1.3,2.4.3,1.1-1,3.7-2,3.7-2l2.2-1.5.3-2.2-.4-.4,2.5-2,.4-1.2.3.3h0Z"/>
              </g>
              <g id="_中部" class="cls-6">
                <path class="cls-5" d="M334.3,339.8l-.2.8,1.6,2.6-.2,1.9.4,1.1.4,2.3-.2,2.2s.2,1.5,1.4,1.1l.8-2.4,3.7-3.8s.6-.9,1.5-.7c.8.2,1.4.7,1.4.7v2.1s.9,2.3,1.7,2.3,5.1-1.7,5.1-1.7c0,0,1.1-.2,1.3.2.2.4,1.2,1.1,1.5,1.1s1.4-.7,1.4-1,.4-2.8.4-2.8c0,0,.9-2,2.6-2.3s3.5-.6,3.5-.6l1.9.2.4.8-.3,2.5,2.8,3.7-.2,1.8.9,1.1,1.9.7,2.6.3,1.7-.6,2.4-.5s.9-2,.9-2.4,1.8-.3,1.8-.3l.4-1.5s-.4-.6-.4-1.1.8-.9.8-.9l1.3-.4,1.5-1,2,2.5h.8l2,1.9.9-6.4-.3-1.1-.9-.6-.5-1.1.6-.5.8-1v-1l-1.8-2.6v-.5l2.6-3.1v-.9l-.8-1.7.6-1.3.5-.4h1.2c0-.1,3-.1,3-.1l1.4-.2.7-.5,1-1s3.4.5,4,.5.9-1.3.9-1.3v-3.6l-.2-.8.2-.7,6.2-4.8v-1.3c-2.1-2.1-2.8-4.8-2.8-4.8l2.2-3.8s1.1-5.9,1-5.9c1.6-1,2.2-.5,3.9-1,1.8-.5,2.6-1.7,3-2.5s-.5-1.5-.5-1.5l-4.5-4.8.4-3.9s-1.6-1.8-5.5-2.5l-7.5,15.4-1.1,2.3-4.1,3.6h-2.3l-12.1,5.9-.9,2.4-1.5,1.5-1.8,3.8-.7,1.8-6.1,7-12.1,7.7-5.3-.7-5.5,3.5-8.9,1.8-.8.9"/>
                <path class="cls-5" d="M367.3,289s-5.7,5.2-6.4,6.1c-.6.9-1.2,4.3-1.2,4.8s2,1.5,2.3,1.8c.2.3-.1,1.1-.1,1.1l-3.2,3.1s-1.4,3.1.8,2.7c2.2-.3,2.9-.2,3.3-.5.4-.2,6-3.5,6-3.5l.2-2,1-1.7s.7-1.3.7-1.7-1.8-1.6-3.3-1.8c-1.5-.1-.1-2.1-.1-2.1,0,0,.9-1.2,1-1.6,0-.4.3-1.3.3-1.3,0,0,1.3-1.5,1.1-3.4,0-.7-1.6-.7-2.4,0"/>
                <path class="cls-5" d="M313.9,339l-2.3-.2-1.4.2s-1.1.3-1.2.4c0,.2-.6,1.1-.6,1.1l-.5,1.5-.7,3.2s-2.1,1.5-2.1,1.7.5,1.3.5,1.3c0,0,.2.9.1,1.1,0,.2-1.3,1.9-1.3,1.9v2.6l-.9,2.7-.5,1.5s-.5,1-.5,1.4.2,1.5.2,1.5l-.2,2.1,1.7-.9s1-.7,1.5-.6,1.7.9,1.7.9c0,0,.9,1.1.9,1.3v1.3l2-1.2s2.6-3.8,4-4c1.1-.2,1.9,0,2.1.2s.6.9.8.9,1.1-.9,2-.7c.9.2,1.7.9,1.7.9,0,0,.9-.6,1.7-.5.8,0,2.6.5,2.6.5l.8.8,2.5,1.1,1.8.7,1.1-.6,2.9-2.8.6-1-.2-1.2.8-.5.6-.4.7-.6.9-4.7c-1.2.4-1.4-1.1-1.4-1.1l.2-2.2-.4-2.3-.4-1.1.2-1.9-1.6-2.6.2-.8h-4.6l-3.6,1.4-.8,2.2-.6,2.1-5.1,1.9-6.8-5.2,1.2-3.2"/>
                <path class="cls-5" d="M313.9,339l.9-1,.7-4.3s-.8-.9-1.2-.9-1.2.8-1.2.8c0,0-2.7-1.2-2.8-1.8,0-.6,1.2-4.8,1.2-4.8l1.1-.5,1,.5,1.1,1.4,5.3-3.3h1.5c0,.1,2.1-.8,2.3-2.5.2-1.8.2-2.9.2-2.9l2.3.4s2.3-1,2.2-2.1c-.1-1.1-1.1-2.1-1.1-2.1l-3.7-.5-12.5,3.3h-1.8s-2.8,1.2-3.5,2.8c-.2,1.1-.9,1.9-.9,1.9l-1.2,2.6-.6.8-.2,2,1.5.5-.3,3.6,1.1,2.3-.2,1.2-.9,1.2-.7,4.6-4.6,5.3-.8.8-.3,1.2-2.3,1.7-.4,1.1-11.3,9.4,3.5,5.8,4.3,1.1,2.6.8s2.2,3.4,2.4,3.4,1.7-.7,1.7-.7l1.9-1.5,1.7-2.9s.8-.7.8-.9-1.6-2.4-1.5-2.5c0-.1,1.3-1.4,1.3-1.4l.2-2.1s-.2-1.1-.2-1.5.5-1.4.5-1.4l.5-1.5.9-2.7v-2.6s1.2-1.7,1.3-1.9c0-.2-.1-1.1-.1-1.1,0,0-.5-1.1-.5-1.3s2.1-1.7,2.1-1.7l.7-3.2.5-1.5s.6-.9.6-1.1,1.2-.4,1.2-.4l1.4-.2,2.3.2"/>
                <path class="cls-5" d="M283.6,361.7l-4.3.3-.8,3-6.1,6.8-.7.8v1.5l3.3,8.3-.8,1.2-.8,2.9-.7-3.1-2-.3-.8.8-.3,3.1-2.9-.6s-1.2.3-1.3,1.2c.2.4-1.2,2.1-1.2,2.1v.6h-1l-2.8,1.8-1.2-.8-4.4-1-1.5-1.1s-1.5.6-1.6,1.1c0,.5-.6,1.5-.6,1.7s1.2,3.6,2.1,4.4c.9.7,3,1.1,3,1.1,0,0,3.8,1.4,4.4,1.2.5-.2,3.1-1.9,3.3-2.7,0,0,.6.8,1.3.8s1.4-1,1.4-1l1.3-2.4s.4-.5.7-.4c.2,0,.7.5.7.5,0,0,.3.4,1,.5s2.6-.7,2.6-.7c0,0,1.2-.1,1.8-1.3,0,0,.2-.9.2-1.2,0,0,0,1.1,1.5.5.2-.3.5-.9.6-1.7.1-.8-.2-2.7-.2-2.7l1.1.2,1.3.9,1.8.9,1.5-2,2.2-2.4s.4-.6.6-.6.9.4.9.4l1.1,1s.7.5,1.2.6c.5,0,1-.3,1-.3l.3-.7,4.6.6,1.1-.5,2.4.4s1.9-.4,3-2.4c.3-1.5-3-5.8-3-5.8l.8-1.8s1-1,1-1.3-1.1-1.5-1.4-1.5c0,0-1.5.7-1.7.7s-2.4-3.4-2.4-3.4l-2.6-.8-4.3-1.1-3.5-5.8"/>
                <path class="cls-5" d="M371,392.4l-2.5-1-3.5-1.6-1.8,1.3h-1.4l-1.4-1.8-1.7-.5-1.5.3-1.4.5s-2.4-2.9-2.9-2.9-5.5,4-5.5,4c0,0-.7.7,0,1.3.4.5.7,1.2.7,1.5s-1.3,1-1.3,1c0,0-.8.4-.5,1.1s.4,2.1.4,2.1l-.2,1.5.5,2.1.4,1.2-.4,2.8-.4,3.4-.8.6s-.6,1.1.2,1.5c.8.3,1.9.4,1.9.4,0,0,.9.8,1.1,1.8s.8,2.8.8,2.8l.9,2.1,2.8-.7v-1l-.3-.6.4-2.9,2.5-3.6s.8-1.1,1.4-.9,3,3,3,3h2.2c0-.1,2.1-.4,2.1-.4h6s2.3-3.1,3.3-4.6c0-.2,1.5-5.7,1.5-5.7,0,0-2.8-2.3-3.3-3.1-.5-.9-.7-2.4-.7-2.4,0,0-1-2-.7-2.5"/>
                <path class="cls-5" d="M337.5,351.7l.8-2.4,3.7-3.8s.6-.9,1.5-.7c.8.2,1.4.7,1.4.7v2.1s.9,2.3,1.7,2.3,5.1-1.7,5.1-1.7c0,0,1.1-.2,1.3.2.2.4,1.2,1.1,1.5,1.1s1.4-.7,1.4-1,.4-2.8.4-2.8c0,0,.9-2,2.6-2.3s3.5-.6,3.5-.6l1.9.2.4.8-.3,2.5,2.8,3.7-.2,1.8.9,1.1-.4,1.7-1.7.3-2.1.5-1.9.7v.7l-3.7,2.9-.4,2.6s-.5.3-.5.9,1.8,4.1,1.8,4.1l4.6.8s1.1.6,1.2,2.1c0,1-.3,2-.3,2,0,0-1.8,1.2-1.8,1.7s.4,1.7.4,1.7v1.7l-.6.7h-1l.8,1.1.3,1-.4,3.3,1.3,1.5,1.3.4v.7c.1,0,.3,1,.3,1l-.2,2.8-1.8,1.3h-1.4l-1.4-1.8-1.7-.5-1.5.3-1.4.5s-2.4-2.9-2.9-2.9-5.5,4-5.5,4c0,0-.7.7,0,1.3.4.5.7,1.2.7,1.5s-1.3,1-1.3,1c0,0-.8.4-.5,1.1s.4,2.1.4,2.1l-.2,1.5.2,1s-.5-1.4-1.6-1.4-2.3,1.4-2.3,1.4c0,0-1.3,8.1-1.4,8.3-.1.2-4,2.1-4,2.1l-4.7,2-2.5,1.7s-1.7-.8-2.8-1.3c-1.5-.8-2.2-.4-3.1,0-1.4.6-2,.4-2.4-.5-.4-.8-.5-2.2-.5-2.2l1.1-.4,1.7-1.6s.2-.5.2-.8-.4-1.1-.4-1.4.8-1.6.8-1.6l-.2-1.1v-.6c.1,0,.7-.7,1.2-1.2.6-.9.1-1.7.1-1.7l-2.9-4.2s1.1-1,1.2-1.3-.4-1.2-.4-1.2l-2.6-4.8-1.6-1.1s-.5-.4-1.1-1c-.3-.8.4-1.5.4-1.5l3,.3.9-.4.6-1,4.2-3.6.8-1.6v-1.3c.1,0-1.2-2.5-1.2-2.7s.5-.7.5-.7l3.4-4.6.3-1.2-1.6-4.5,1.1-.6,2.9-2.8.6-1-.2-1.2.8-.5.6-.4.7-.6.9-4.7"/>
                <path class="cls-5" d="M302.3,362.9l1.7-.9s1-.7,1.5-.6,1.7.9,1.7.9c0,0,.9,1.1.9,1.3v1.3l2-1.2s2.6-3.8,4-4c1.1-.2,1.9,0,2.1.2s.6.9.8.9,1.1-.9,2-.7c.9.2,1.7.9,1.7.9,0,0,.9-.6,1.7-.5.8,0,2.6.5,2.6.5l.8.8,2.5,1.1,1.8.7,1.6,4.5-.3,1.2-3.4,4.6s-.5.5-.5.7,1.4,2.7,1.4,2.7v1.3c-.1,0-.9,1.6-.9,1.6l-4.2,3.6-.6,1-.9.4-3-.3s-.7.6-.4,1.5c.5.6,1.1,1,1.1,1l1.6,1.1,2.6,4.8s.5.9.4,1.2c-.1.4-1.2,1.3-1.2,1.3l2.9,4.2s.5.8-.1,1.7c-.5.5-1.1,1.2-1.1,1.2v.6c-.1,0,0,1.1,0,1.1,0,0-.8,1.3-.8,1.6s.4,1.1.4,1.4-.2.8-.2.8l-1.7,1.6-1.1.4h-1l-1.1.5-1,.8h-1.6c-.4,0-.9-.5-.9-.5l-1.1-1s-.8-1.1-1.6-1.2c-.9,0-1.4.2-1.4.2,0,0-2.2.3-3,.2-.8-.1-1-.3-1.8-.5-.8-.3-1.9-1.6-2.2-1.9-.3-.3-.9-1.9-.9-1.9l-.9-1.5-.9-1.4h-.5c0-.1-.8,0-.8,0h-1.4c0-.1-1.3.2-1.3.2h-1l-.7.4h-1c0,.1-.2.9-.2.9l-1,.9-1.1,1.7-1,1.2-.6,3.2h-2.3l-1.4-2.1s-1.3-1.1-2-1.4-2.3.4-2.3.4c0,0-.4.1-1.3-.3-.9-.5-1-1.7-1-1.8s.4-.7.4-.7l.4-.6.6-1,.7-.9.8-1.8.4-.9-.2-.6v-1.4l-.5-1.1-.3-1.1-.4-.8v-1.5l-1.3-.4-.4-.7-.6-1,.3-2.5,1.5-2,2.2-2.4s.4-.6.6-.6.9.4.9.4l1.1,1s.7.5,1.2.6c.5,0,1-.3,1-.3l.3-.7,4.6.6,1.1-.5,2.4.4s1.9-.4,3-2.4c.3-1.5-3-5.8-3-5.8l.8-1.8s1-1,1-1.4-1.1-1.5-1.4-1.5l1.9-1.5,1.7-2.9s.8-.7.8-.9-1.6-2.4-1.5-2.5c0-.1,1.3-1.4,1.3-1.4"/>
                <path class="cls-5" d="M373.8,423l-.8,1.9-1,1.4,2.3,3.7-.8,3.6-2.3,1.8-.2,1-2.6,1.5-.6,3.5-3,2.5s-1.9.5-3.2.3c-1.3-.2-3.2-4.3-3.2-4.3v-2.4l.9-.6.2-2.3,1-.5.3-2.8.5-.5-.2-1-.6-1.5.3-1.9,1.9-1.2,2,.2-1.8-1.2-.7-1-2-.7-.8-.8h-.8l-2.2.6h-1.2l-3.1,2.4s.8,1.7.6,2.2c-.2.5-.9.9-.9.9l-2.8.6s-.6,0-1.6.3c-.9.3-1.2,2.2-1.2,2.2l-.9.2-.2,2.7-.6.9-4.3,3.6s.2,1.1,0,1.5-1.1,1-1.1,1l-2-.2-.6-.9-1.9-.2-.4-.8-1.2-.3-1.1-.7s-9.5-1.2-11-1.5-.9-1.3-.9-2.1,1.1-1.3,1.1-1.3l-.3-1.1s.8-.5,0-.7c-.7-.2-1.8.6-1.8.6,0,0-1.8.3-2.2.6-.6-1.4,0-2.8.1-3.3.2-.5,5.4-2.1,5.4-2.1l8-12.3,2.5-1.7,4.7-2s3.9-1.9,4-2.1,1.4-8.3,1.4-8.3c0,0,1.1-1.4,2.3-1.4s1.6,1.4,1.6,1.4l-.2-1,.5,2.1.4,1.2-.4,2.8-.4,3.3-.8.6s-.6,1.1.2,1.5c.8.3,1.9.4,1.9.4,0,0,.9.8,1.1,1.8s.8,2.8.8,2.8l.9,2.1,2.8-.7v-1l-.3-.6.4-2.9,2.5-3.6s.8-1.1,1.4-.9,3,3,3,3h2.2c0-.1,2.1-.4,2.1-.4h6v1l-.8,7.3,3.6,3.7v.2"/>
                <path class="cls-5" d="M330.4,414.4s-1.7-.8-2.8-1.3c-1.5-.8-2.2-.4-3.1,0-1.4.6-2,.4-2.4-.5-.4-.8-.5-2.2-.5-2.2h-1l-1.1.5-1,.8h-1.6c-.4,0-.9-.5-.9-.5l-1.1-1s-.8-1.1-1.6-1.2c-.9,0-1.4.2-1.4.2,0,0-2.2.3-3,.2-.8-.1-1-.3-1.8-.5-.8-.3-1.9-1.6-2.2-1.9-.3-.3-.9-1.9-.9-1.9l-.9-1.5-.9-1.3h-.5c0-.1-.8,0-.8,0h-1.4c0-.1-1.3.2-1.3.2h-1l-.7.4h-1c0,.1-.2.9-.2.9l-1,.9-1.1,1.7-1,1.2-.6,3.2h-2.3l.9,2.1.6,1.7.9,1.1.9,1.6h2.8l2.2-1.5-2,2.1-.5.9-.6,4.9.9,1.2-.6,1.1-.4,2.3s1.1,3.1,2.2,3.1,2-.5,2-1.1-1.2-2.4-1.2-2.4l.6-1.1.3-1.3,1.6-3.8-1.1,3.8s-.2,2.4,1.5,2.9c1.7.6,2.4,1.5,2.4,1.5l3.4.2,1.6-1.9s.8.4,1.9,1.1,1.5,2,1.5,2v1.1l-1,.3-1.5-1.5-3.2,1.8s-1.4,1-2,1-2-.7-2-.7c0,0-1.3.4-1.4,1,0,.6-1,2.7.4,2.8,1.4.2,1.7-.6,1.7-.6l2.1.2,1-.6,2.1.2.8-.6,1.7.2.8-.3h1.7l.6-.4,2.2.2s1.8.5,1.9-3.3c-.6-1.4,0-2.8.1-3.3.2-.5,5.4-2.1,5.4-2.1l8-12.3"/>
              </g>
              <g id="_関東" class="cls-6">
                <path class="cls-5" d="M435.2,402.4l-8.5-7s-.2-.9-1.8,0c-.5.3-2.7.9-2.7.9h-2.9l-2.8.2-3.1.3s0,.3-1.1,0-4.8-2.3-5.6-3.3c-.8-1-2.6-3.6-2.6-3.6h-2l-1-4.1s-1.2.5-1.5.4-1.3-1.4-1.2-1.6c0-.3-.3-1.8.2-4.3l4.4-1.7.3-1.6s.9-.7,1.2-.7h1.6s2.4-2.6,2.8-2.7h2.2l.9-.5,3,.3s1.9-1.2,2.6-3c.1-1.5.2-3.4.2-3.4l-.2-3.2-.2-.8,2.1-1.9-.4-1.6,1.2-6.8,1.1.3s4.8,5.5,5.4,5.5,4.4-2.9,4.4-2.9c0,0,.5-1.2.8-1.3.2,0,.8-.2,1.4,0l4.8,3.2v1.8l-.9.9-.2.8-.7,1-.6,1.4-.3,1.3-.6.6-.9,1.7-.5,1.5-1,.6-.2,1.6-1.4,2.4.6.9-.8,4.4-2.4,2.8.6,1-.2,2.2.5.8-.6,2.5s.9.8.9,1.1c-.2,2.1,5.1,11.8,5.1,11.8l.4,1.1.2.6h0Z"/>
                <path class="cls-5" d="M398.6,380.4l-1.3-.6s-.2-1.2-.3-1.7c-.2-.5-1.5-.9-2.9-.5-2,.4-3-.5-3.4-.6-.4-.2-2.2-3.9-2.3-4.9,0-1,1.1-2,1.1-2,0,0,2.9-4.7,3.5-5.6s-1.8-1.4-1.8-1.4l-2-.9-.7-1.1.9-3.5.8-2.4,1.6-1.5-1-1.7v-1.5h.3l1.9.2,8.4-3.8,1.1-.3,6.8-3.3,2.3.3,2.1.9,3.1,1.1s1.8.9,2.9,2.5c.7,1,.9,1.8.9,1.8v2.8c-.1,0-1.3,6.8-1.3,6.8l.4,1.6-2.1,1.9.2.8.2,3.2s-.1,1.9-.2,3.4c-.7,1.8-2.6,3-2.6,3l-3-.3-.9.5h-2.2c-.4,0-2.8,2.7-2.8,2.7h-1.6c-.3,0-1.2.7-1.2.7l-.3,1.6s-4.4,1.6-4.4,1.7"/>
                <polygon class="cls-5" points="415.1 386.4 414 386.8 414.5 387.7 415.1 389.2 416.2 389.2 417.3 390 419 390.8 420.5 390.8 421.2 391.9 420.5 392.6 421.6 392.6 422.1 392.3 423 393.6 423.5 392.4 422.9 390.8 421.4 388.6 420.5 386.4 419.3 387.8 417.6 388.1 416.1 387.6 415.1 386.4"/>
                <polygon class="cls-5" points="420.5 385.6 420 384.7 418.8 384.2 418.2 384.5 416.7 384.2 417.5 384.9 417.8 385.6 419.5 386.4 420.5 385.6"/>
                <path class="cls-5" d="M397.3,379.8s-.2-1.2-.3-1.7c-.2-.5-1.5-.9-2.9-.5-2,.4-3-.5-3.4-.6-.4-.2-2.2-3.9-2.3-4.9,0-1,1.1-2,1.1-2,0,0,2.9-4.7,3.5-5.6s-1.8-1.4-1.8-1.4l-2-.9-.7-1.1.9-3.5.8-2.4,1.6-1.5-1-1.7v-1.5l-1.6-.4-1.4-.6-2-1.9h-.8l-2-2.5-1.5,1-1.3.4s-.8.4-.8.9.4,1.1.4,1.1l-.4,1.5s-1.8-.2-1.8.3-.9,2.4-.9,2.4l-2.4.5-1.7.6-2.6-.3-1.9-.7-.4,1.7-1.7.3-2.1.5-1.9.7v.7l-3.7,2.9-.4,2.6s-.5.3-.5.9,1.8,4.1,1.8,4.1l4.6.8s1.1.6,1.2,2.1c0,1-.3,2-.3,2,0,0-1.8,1.2-1.8,1.7s.4,1.7.4,1.7v1.7l-.6.7h-1l.8,1.1.3,1-.4,3.3,1.3,1.5,1.3.4,6.9-2.5s2.8-1,3.9-1.8,1.6-2,1.6-2c0,0,2.1-3.4,2.5-3.4s7.9,1.6,7.9,1.6c0,0,3.2,3.4,3.6,3.4s1.2-.2,1.2-.2h2.5s2.1-.3,2.3-.6"/>
                <path class="cls-5" d="M398.6,380.4c-.5,2.5-.2,4-.2,4.3s.9,1.5,1.2,1.6c.3.1,1.5-.4,1.5-.4l1,4.1,1.4,4.7-2.7,3.7s-.7-.4-1.2-.5c-.4-.1-1.8.8-2.4.7-.6,0-1-.7-1.6-.8-.5,0-1.3.3-1.3.3,0,0-1.2.4-2.2.5-1,0-1-1-1-1v-.9c-.1,0-2,.6-2,.6h-1.6c0,.1-.7.5-.9.5-.3,0-.6-.3-.6-.3l-2.7-2.8-1.3-.6-2.3-.7-.3-.4-2-.5-.7-.4-1.9-.9-.9-.3-3,1.6-2.5-1-3.5-1.6.2-2.8-.2-1v-.7c-.1,0,6.8-2.5,6.8-2.5,0,0,2.8-1,3.9-1.8s1.6-2,1.6-2c0,0,2.1-3.4,2.5-3.4s7.9,1.6,7.9,1.6c0,0,3.2,3.4,3.6,3.4s1.2-.2,1.2-.2h2.5s2.1-.3,2.3-.6l1.3.6h.1Z"/>
                <path class="cls-5" d="M400.8,398.4l.2.6,1.5,1.1v2.3l-.6.7-.4,1.9h-.4s.3,1.2,1.2,1.2,3.2-1.5,3.2-1.5l1.4.3s2.1,3.2,2.3,4c.2.7-2.1,2-2.1,2l-1.2,1-3.5,1.5s-1.1,0-1.1,2.1c-.4,0-1.6-.2-1.6-.2l-1.6,1.1s-.8.6-.8,1,.6,1.6.6,1.6c0,0,1.1,1.5,1.1,1.9s-1,1.5-1,1.5l-.6,3.3v1l.5.4-.9.2-.2,2.1.9,1.1-2.5,1.4v1.4s2.3,2.4,3.5,2.4,4.1-2.5,4.1-2.5l6.1-5.3,1.4-.4,1.9.3,1-.9h1.4l.9-.5,1.4.4s.9.2.9-2c-.2,0,.7-.5.7-.5l1-7,1.1-.6.5-4.7,3.3-2.9,5-3.3,5.3.8s1.5-.3,1.3-1.9c-.2-1.5-.6-2.6-.6-2.6l-8.5-7s-.2-.9-1.8,0c-.5.3-2.7.9-2.7.9h-2.9l-2.8.2-3.1.3s0,.3-1.1,0c-1-.2-4.8-2.3-5.6-3.3-.8-1-2.6-3.6-2.6-3.6h-2l1.4,4.7-2.1,2.9-.6.8-.2.3h0Z"/>
                <path class="cls-5" d="M400.8,398.4l.2.6,1.5,1.1v2.3l-.6.7-.4,1.9h-.4l-1,.4-.9-.2-.9-.8.2.5s.4,1.2.4,1.5-.7,1-.7,1h-2.1l-5.1-3.5s-2.2-.6-2.6-.3c-.4.4-.4,1.3-.3,1.5.2.2.3.9.3.9l-.6.7-.3,1.4s-2.2-3.2-2.6-3.5c-.4-.2-2.9-1.7-3.1-1.7-.3,0-3.6-2.1-3.6-2.1l-2.5-.4s-2.8-2.3-3.3-3.1c-.5-.9-.7-2.4-.7-2.4,0,0-1-2-.7-2.5l3-1.6.9.3,1.9.9.7.4,2,.5.3.4,2.3.7,1.3.6,2.7,2.8s.3.3.6.3.9-.4.9-.4h1.6c0-.1,1.8-.8,1.8-.8v.9c.1,0,.1,1.1,1.1,1,1,0,2.2-.5,2.2-.5,0,0,.7-.3,1.3-.3s1,.7,1.6.8c.6,0,1.9-.9,2.4-.7.4.1,1.2.5,1.2.5"/>
                <path class="cls-5" d="M396.2,407.4l-5.1-3.5s-2.2-.6-2.6-.3c-.4.4-.4,1.3-.3,1.5.2.2.3.9.3.9l-.6.7-.3,1.4s-2.2-3.2-2.6-3.5-2.9-1.7-3.1-1.7c-.3,0-3.6-2.1-3.6-2.1l-2.5-.4s-1.5,5.5-1.5,5.7c-1,1.5-3.3,4.5-3.3,4.5v1.1l-.8,7.3,3.6,3.7v.2s1.1-.2,1.5-1,.5-1.9.5-1.9l-.4-.6,2.6-1.7,2,.2.9-.4h1l1.5-.3,1,.2,1.1-.2.6.3,1.5.6,2,.7,1.7,1.8-.2.8-.6,1.2s-.3,2.2,1.1,2.2,2.4-.6,2.4-.6l-.4-1.1,1.5-1.1s1-1.3.6-1.9-2.5-1.7-2.5-1.7l-.6-1.2.4-3.1,1.3-.7s.7-1.5-.7-2.3c.2,0,2.4,1.1,2.4,1.1,0,0,1.5-1.1,1.9-1.4.5-.3,1.1-1.1-.6-3.3h-1.1,0Z"/>
              </g>
              <g id="_東北" class="cls-6">
                <path class="cls-5" d="M481.3,211.6l-4.8,2.9s-1.7-1.3-2.6-1.4c-.8-.1-2.3,1.1-2.7,1.1s-1.5-1.6-1.9-1.6-9.3,5.1-9.3,5.1l-2-.6.5-1.8s.6-3.5.7-4.7c0-1.1-.6-1.1-.6-1.1l-2.4-.3s-.9-2-1.6-2.2c-.6-.2-4.6,2.1-5.2,2.2-.6,0-1.6-1.1-1.9-1.2-.4-.1-2.1.6-2.4.6s-3.2-3.2-3.7-3.3c-.5,0-3.5,1.4-3.5,1.4l-1.1-1-5.2-1.3-3.9,2.6-1.4-1.9.3-3.9s-1.4-2.1-1.3-3.2c.3-1.1,4.8-5.5,4.8-5.5l4,.5,4.1-2.4,1.1-2.7,1.3-4.5,2.1-.5-2.7-4.2,1.4-1.6.6-3.2h2.3c0-.1,2.3,1.5,2.3,1.5,0,0,1.4-.9,3-.9s2.5,3.8,2.5,3.8v8.6l1.7,3.9,3.2-1.3,1.5-5.2,5,3s.6,3.5,2.2,3.5,2.4-2.8,2.4-2.8l3.2-8.4-1.5-4.1-5,4.1-2.6-1.7-5.4,1.7-1.1-2.8,5-13.4c.3-.9,1.2-.5,1.2-.5l1.9.8,1.7,1.5,6.8,5.9.9-.4s2.8-1.2,4-1c1.2.3,1.4,1.2,1.4,1.2l-.8,5.7-.9.9-1.3,9.5s-1,.8-1.2,2,.8,2.3.8,2.3l-.6,3-2.2.5s-.1.6-.3,1.1c.6-1,1.6-1.1,2-1,.5.1.9,1.2.9,1.2v3.4l.4,2.6.6,1.4.2,3,.3-.4,2.5.4,2.4,3.3s-.2,1.8-.3,1.8"/>
                <path class="cls-5" d="M458,217.1l-2.7,2.4-.3,2.2-.4,4.6s.1,3.3,0,4.5-1.2,1.7-1.2,1.7h-1.9s1.1,2.4,1.1,2.9-2.3,2.4-2.3,2.4c0,0,.8,1.6,1,2.6-.5,2-3.1,3.9-3.1,3.9l-1.9,4.3-.9,3.2s3.7,8.2,3.8,9c.1.8-2.1,2.3-2.1,2.3l1.4,2.8s-.7,3.1-1.1,4.3l6.2,4.3s3.7-.6,4,0,0,2.3,0,2.3l2.7,2.7s3.6-2,4-2,2.8,2,2.8,2l.6-2.3.8-1.3.7-3.7s.2-1.5,2.2-1.1c1.1.3,4.4,1.5,4.4,1.5,0,0,1.4.3,2.2-.4.4-.5,1.2-1.3.3-1.8,0,0,.9.7,1.7.8.8,0,1.7-.2,1.8-.9.1-.7.7-3.5.7-3.5l.6-1.8,2.2-1.6v-3s-.6-1,0-1.6,1.7-1.4,1.7-1.4v-2.3l1-1.1-.4-1.7,3.4-2.7-.4-1.7s.3-1.9-.7-2.1c-1-.2-1.5.3-1.5.3l.3-1.6.9-1,.7-4.9-.4-.8.3-2-.5-1.3.2-2.9-3.3-4.8s0-1,.6-1.4c0-.1.4-.5.4-.8s-.5-2-1.7-1.9c-.5,0-.9-1-.3-1.6.1,0,1.1-1.2,1.1-1.5s-2.4-5.2-2.4-5.2l-1.5-2.4s-.4-.5-1.1-.4l-4.8,2.9s-1.7-1.3-2.6-1.4c-.8-.1-2.3,1.1-2.7,1.1s-1.5-1.6-1.9-1.6l-9.3,5.1-2-.6"/>
                <path class="cls-5" d="M440.4,273.5s1.8,3.5,1.8,4.3-1,2-1,2c0,0-.3,1.3-.5,1.9s-.9.9-.9.9h-1.4c0-.1-.2,0-.3.5,0,.5.7,2.9.7,2.9,0,0,.6,2.6.7,3.9-.4,1.5-3.7,4.8-3.7,4.8,0,0-1.9,2.5-2,2.8s.2,1.7.2,3.1c-.3,1.7-1.3,2.5-1.8,3.7-.9,1.6-3.8,1.5-4.5,1.5s-.7.4-.9.8c-.2.4,1.1,2.9,1.1,2.8l3.2.6,2.3,2.6s3.8.6,4.7.7c.8,0,1.3,1.3,1.3,1.3l-.2,1.7s.2.8.4,1.2c.1.4,2.2,1.2,2.4,1.3.2,0,.8-.6.8-.6l1.3-.2s.4-2.1.5-2.9c.1-.7,1.1-.7,1.1-.7l1.9.2,1.2-5.9-1.1-.8.4-1.4,1.2-1.2,1-1.9,1-.7,1.7-1.4v-2h-1.6l2-.4-1-1.7s1.2-1.2,1.6-1.2h5.8l1.2-.6,2.6.5,3.2-1.3s1.6,0,1.7-.2c0-.3.6-2.5-.4-2.8-1.1-.2,1.4-.2,1.4-.2,0,0,1.9-1.8-2-2.4,0-.2.7-1,.7-1l1.8-2.1-1.4-2.3,1.5-1.2.3-1.5-.2-.9,3-2v-1.8s.2-.6-.3-1.4c.2.2,1.3,1.5,1.3,1.5,0,0,1.6-.1,1.4-1.6s-.5-2.5-.5-2.5h.4s-3.2-1.1-4.4-1.5c-2-.3-2.2,1.1-2.2,1.1l-.7,3.7-.8,1.3-.6,2.3s-2.4-2-2.8-2-4,2-4,2l-2.7-2.7s.3-1.7,0-2.3c-.3-.6-4,0-4,0l-6.2-4.3c-.9,1.2-6.8,3.4-6.8,3.4"/>
                <path class="cls-5" d="M427.6,207.1l.8,2.4v.9l-.4,4.2-2.8,4.6-.4,1.6-4.4,4s-1.7-1.3-1.9-1.3-1.4,1-1.4,1v1.6l.3.9v1.8c-.1,0,.2.7,1,.8.8,0,1.6-.4,1.6-.4h1c0,.1.7-.4.7-.4l1.6-.3,3.3,5.7-.5,2.8-.9,1.7-1,9.5s-2.1,1.9-2.3,2.3c-.2.4-2.8,4.2-2.8,4.2l-.6,2.6-.4.3-.4,3.9,1.6-.2,4.5.2,2.5,3.2,2.4,1,2.4.6.3.4,1.6.7,1.6.3s1,3.3,2.5,4.3c.3.3,2.2,1.6,2.2,1.6h1s5.9-2.2,6.8-3.4c.4-1.2,1.1-4.3,1.1-4.3l-1.4-2.8s2.2-1.5,2.1-2.3-3.8-9-3.8-9l.9-3.2,1.9-4.3s2.6-1.9,3.1-3.9c-.2-1-1-2.6-1-2.6,0,0,2.3-1.9,2.3-2.4s-1.1-2.9-1.1-2.9h1.9s1.1-.5,1.2-1.7,0-4.5,0-4.5l.4-4.6.3-2.2,2.7-2.4.5-1.8s.6-3.5.7-4.7c0-1.1-.6-1.1-.6-1.1l-2.4-.3s-.9-2-1.6-2.2c-.6-.2-4.6,2.1-5.2,2.2-.6,0-1.6-1.1-1.9-1.2-.4-.1-2.1.6-2.3.6s-3.2-3.2-3.7-3.3c-.5,0-3.5,1.4-3.5,1.4l-1.1-1-5.2-1.3-3.9,2.6"/>
                <path class="cls-5" d="M440.4,273.5s1.8,3.5,1.8,4.3-1,2-1,2c0,0-.3,1.3-.5,1.9s-.9.9-.9.9h-1.4c0-.1-.2,0-.3.5,0,.5.7,2.9.7,2.9,0,0,.6,2.6.7,3.9-.4,1.5-3.7,4.8-3.7,4.8,0,0-1.9,2.5-2,2.8s.2,1.7.2,3.1c-.3,1.7-1.3,2.5-1.8,3.7-.9,1.6-3.8,1.5-4.5,1.5s-.7.4-.9.8c-.2.4,1.1,2.9,1.1,2.8-1.6-.1-1.9,1.1-1.9,1.1l-1,4.1s.6,1.3.6,1.5-.6,1-1.4,1.5-3,.6-4,.6-1.6-1.1-1.6-1.1c0,0-2.8-.4-3.2-.7-.4-.3-1.1-2.1-1.1-2.1l-1.3-.2h-1s-1.1.3-1.4.3-1.6-.8-1.6-.8h-1.4c-2.1-2.1-2.8-4.8-2.8-4.8l2.2-3.8s1.1-5.9,1-5.9c1.6-1,2.2-.5,3.9-1,1.8-.5,2.6-1.7,3-2.5s-.5-1.5-.5-1.5l-4.5-4.8.4-3.9s-1.6-1.8-5.5-2.5l4.3-5.1,1.5-3s2.2-2.2,2.9-3.6c.7-1.4,2.2-2.5,2.2-2.5l1-6.1.9-1h.2l1.6-.3,4.5.2,2.5,3.2,2.4,1,2.4.6.3.4,1.6.7,1.6.3s1,3.4,2.5,4.3c.3.3,2.2,1.6,2.2,1.6h1"/>
                <path class="cls-5" d="M407.6,313.6v1.3l-6.2,4.8-.2.7.2.8v3.6s-.3,1.2-.9,1.3c-.6,0-4-.5-4-.5l-1,1-.7.5-1.4.2h-4.1c0,.1-.5.6-.5.6l-.6,1.3.8,1.7v.9l-2.5,3.1v.5l1.8,2.6v1l-.8,1-.6.5.5,1.1.9.6.3,1.1-.9,6.4,1.4.6,1.9.4h1.9c0,.1,8.4-3.7,8.4-3.7l1.1-.3,6.8-3.3,2.3.3,2.1.9,3.1,1.1s1.8.9,2.9,2.5c.7,1,.9,1.8.9,1.8v2.8c-.1,0,.9.3.9.3,0,0,4.8,5.5,5.4,5.5s4.4-2.9,4.4-2.9c0,0,.5-1.2.8-1.3.2,0,.8-.2,1.4,0,.7.1,5.4,3.5,5.4,3.5l6.2-4.4,1.1-2,.5-3.8,1.1-1.1,2.5-12.4.7-9.8-1.1-1.9-1.7-6.6-.5-1.1-1.9-.2s-1,0-1.1.7-.5,2.9-.5,2.9l-1.3.2s-.6.7-.9.6c-.2,0-2.3-.9-2.4-1.3s-.4-1.2-.4-1.2l.2-1.7s-.4-1.3-1.3-1.3-4.7-.7-4.7-.7l-2.3-2.6-3.2-.6c-1.6-.1-1.9,1.1-1.9,1.1l-1,4.1s.6,1.3.6,1.5-.6,1-1.4,1.5-3,.6-4,.6-1.6-1.1-1.6-1.1c0,0-2.8-.4-3.2-.7-.4-.3-1.1-2.1-1.1-2.1l-1.4-.2h-1s-1.1.3-1.4.3-1.6-.8-1.6-.8h-1.4"/>
              </g>
              <g id="_北海道-2" class="cls-6">
                <path class="cls-5" d="M508.8,1.7c1.1,0,1.1,2.4,1.1,2.4l11.5,15.1,5.2,11,9.7,13.6,17.7,15.1,3,5.6,6.3,1.7,1.1-2.8,4.4.6s-1.7,4.6-.9,4.9c.8.3,3.4-3.7,3.4-3.7,0,0,1.2,0,1.7,1.1s.4,4.8,2.9,5.3c2.5.6,11,2.6,11,2.6l16-14.5s.8-1.4,1.7-1.5c1-.2,1.8,1.6,1.5,3-.3,1.5-7.1,11.7-7.1,11.7l-1.7,2.4-1.3,7.8,2.6,3.7,3.7,10.6,1.3,1.1-1.5,2.2,4.1,1.9s9-5.9,9.9-4.5c1,1.4-5.2,4.5-5.2,4.5l-1.7,5h-11.7l-5.2,7.1-4.8-1.5-1.3-2.6-3,5.4c-6.9.5-12.8-3.7-12.8-3.7l-10.6,3.7-15.6,14.9-5.8,9.7.9,2.6s-.2,11.2-2.6,11.5-9.5-9.3-9.5-9.3l-15.1-8.2-15.3-12.5-8.4-3.2-6.9,1.9-11.9,8.2-4.8-1.5v-2.6l-6.1-7.8h-6.3l-3.9,4.1-2.6,6.3v2.6l6.9,5.4,6.7,1.7,4.3,7.3,6.3,3.2,1.5,3-7.1,4.5-5.4-3.5-4.1-2.4-2.2,3-5.4,1.7-.4,5.6-5.8,2.4-1.9,2.4s-7.6-2.4-6.3-7.8c1.3-5.4,6.1-10.8,6.1-10.8l-.4-6-1.7-4.8-4-1.7v-3.2s-4.2-2.2-3.1-5,3-5.6,3-5.6l-1.1-4.3s1.7-4.8,5.2-5,7.6-5,7.6-5l2.8,2.6,8.4-9.1-4.5-7.3s-.4-6.3,1.9-7.3c2.4-1.1,6.7,1.3,6.7,1.3l4.8,6.1,6.5-.9,5.4,4.5,7.8-6.5-1.3-14.7s-2.2-2.8,4.1-6.5c2.4-1.1,6.9-4.5,6.9-4.5l-.9-4.5,1.7-11.9,3.5-3.9v-4.8l1.7-1.7-1.1-12.3-3.5-11.7s2.4-9.9,5-9.9,2.8,1.9,2.8,1.9c0,0,4.5-5.2,5.6-5.2"/>
                <path class="cls-5" d="M418.5,137v-6.5h4.3l-1.3,4.5s-1.5,1.3-3,1.9"/>
                <path class="cls-5" d="M478.6,3.3s.8,6.4,1.7,6.7c.9.3,2.1-4.5,2.1-4.5l.8-2.2s-1.1-1.8-2.3-1.9c-1.2,0-2.3,1.6-2.3,1.9"/>
                <path class="cls-5" d="M483.7,11.2l-.6,3.9s1.2,2.4,2.2,2.3,3.5-1.9,3.7-2.7-1.8-4.2-2.9-4.3c-1.2-.1-2.4.8-2.4.8"/>
                <path class="cls-5" d="M606.3,77.9c.9-.7,9.8-7.4,9.8-7.4l2.3-4.6,5.5-6.7s2.6-7.1,5.9-7c1.8.3,2.3,1,2.3,1l3.1,2.7,4.9-1.3s2.9.4-.9,4.5c-.5,0-1.9-.3-1.9-.3l-4.5,3.9h-4.7l-6,5.2-.8,3.6-2.7,1.5-.6,2.1-2,1.6-1.5.3-.5.6-1.8.3-1.2,5s-1.5,2.2-3.5,1.7c-1.7-.3-1.4-2.8-1.4-2.8,0,0-.9-3.2,0-3.8"/>
                <path class="cls-5" d="M641.5,81.6v1.9l1,2.5h1.3l7.1-4.2s.4-2.4-1.1-2.6c-1.5-.3-2.6,0-2.6,0l-1.9,1.6-1.6.8s-2.2,0-2.2,0Z"/>
                <path class="cls-5" d="M652.9,51.1v-2.1h1.7l.9-2.2,2.5.5s2.4-1.8,2.3-2.7c0-.9-1-1.6-1-1.6,0,0-2.3-1-1.8-1.6.4-.6,1.4-1.3,1.4-1.3l3,.4.8-2.4,6.9-5.3s-.3-1.6,0-2.6,1.3-1.8,2.2-1.7c.9,0,2.6.7,2.6.7l1.5-3.3,2.4-1.5h1.5l.7-3.8-.4-1.9s1-2.7,2.2-2.8c1.1,0,3.9,5.7,4.6,6.3.9-.3,3.7,0,3.7,0l3-.4,8.8-9.2s2.1-2.1,3.7-1.9c1.7.2,4.1.8,4.1.8,0,0,1.1.3,1.1,1.1s-1.9,2.3-1.9,2.3l1.1,2.4s.9,2-1.6,2.9c-1.5-.1-2.9-.3-2.9-.3l-3,.8s-6.3,3.1-7.6,3.8c-1.2.7-13.1,10.4-13.1,10.4,0,0-2.2,1.4-3,1.3-.8,0-4-2.1-4-2.5s-.8,2.4-.8,2.4l-.9,3.2-8.7,6.5-4.6,5.6h-2.3s-3.1,4.9-3.9,5.1c-.9.2-3-.3-3-.8s.6-3.1,2.3-4.8"/>
              </g>
            </g>
          </g>
          <polyline class="cls-4" points="538.9 567.4 538.9 416.3 700.6 416.3"/>
        </g>
      </g>
    </g>
  </g>
</svg>