<svg width="199" height="196" viewBox="0 0 199 196" fill="none" xmlns="http://www.w3.org/2000/svg">
<g clip-path="url(#clip0_449_203)">
<path d="M35.5901 10.84C34.8801 11.12 35.0301 11.58 35.1601 12.06C35.7001 11.79 35.9701 11.46 35.5901 10.84Z" fill="white"/>
<path d="M41.36 1.44001C41.52 1.24001 41.6799 1.05001 41.9599 0.700012C41.5999 0.730012 41.45 0.750012 41.31 0.760012C41.27 0.960012 41.24 1.16001 41.2 1.36001C41.25 1.39001 41.31 1.41001 41.36 1.44001Z" fill="white"/>
<path d="M41.81 0.180003C41.68 0.110003 41.51 -0.0299973 41.46 2.72039e-06C41.18 0.180003 41.08 0.430003 41.32 0.730003C41.47 0.560003 41.63 0.390003 41.81 0.180003Z" fill="white"/>
<path d="M41.28 0.75999C41.28 0.75999 41.3 0.75999 41.31 0.75999V0.73999C41.31 0.73999 41.29 0.75999 41.29 0.76999" fill="white"/>
<path d="M39.6199 4.82999C38.8299 5.11999 38.2899 5.27999 38.1099 5.98999C37.9799 6.52999 37.6599 7.01999 37.4199 7.52999C37.4899 7.56999 37.5599 7.59999 37.6299 7.63999C38.2499 6.75999 38.8699 5.88999 39.6099 4.83999" fill="white"/>
<path d="M2.37001 78.46C3.50001 81.77 1.63001 84.84 0.300013 88.81C-1.02999 95.71 2.53001 102.98 2.21001 109.88C2.11001 111.98 2.45001 114.08 3.04001 116.09C7.49001 131.05 15.76 148.7 27.02 161.57C38.71 178.69 96.11 205.29 102.21 192.46C106.12 190.22 116.76 191.75 107.21 192.46C105.02 196.7 108.54 195.85 111.7 195.31C112.78 195.13 113.47 193.92 113.06 192.85C112.32 190.95 113.24 189.43 115.98 191.46C116.24 199.76 127.89 184.04 134.15 189.13C133.42 182.75 130.2 186.74 126.64 185.81C127.37 177.08 139.12 176.41 134.13 183.15C119.37 177.05 144.97 192.54 142.89 188.18C145.9 187.85 140.79 182.98 139.8 184.49C137.57 178.13 154.71 191.54 153.58 181.84C157.09 182.75 161.41 181.91 159.22 177.2C182.16 177.18 155.59 171.46 172.76 154.02C187.3 157.7 162.03 163.02 171.12 166.58C164.79 167.35 170.97 173.11 171.17 167.95C178.28 166.42 182.04 169.02 176.14 163.91C185.09 160.15 176.62 152.22 183.65 153.97C200.78 132.93 179.87 151.26 181.15 137.38C185.73 139.49 183.41 133.24 183.66 129.43C186.3 129.39 192.73 120.21 191.32 125.11C192.83 126.54 178.84 132.27 190.55 130.75C199.14 133.04 199.29 95.14 197.59 86.8C192.56 73.45 194.29 58.09 183.24 47.71C181.65 46.22 180.94 44.08 180.65 41.86C180.55 41.1 179.77 40.35 178.76 39.7C176.34 38.15 174.49 35.83 173.48 33.03C171.75 28.27 165.05 27.28 161.72 21.6C121.89 -10.64 44.43 -6.52 8.96001 50.16C8.07001 51.58 7.97001 53.32 8.35001 54.98C8.74001 56.7 7.05001 59.26 5.77001 61.38C4.97001 62.7 5.14001 64.4 6.09001 65.59C7.50001 67.36 5.63001 69.47 5.10001 70C4.20001 70.92 3.85001 72.24 4.46001 73.39C4.93001 74.27 4.71001 74.89 3.86001 75.11C2.52001 75.45 1.90001 77.08 2.37001 78.45M180.91 146.66C186.84 145.25 182.52 150.55 179.89 151.33C178.02 149.08 175.02 144.12 180.91 146.66ZM167.37 137.13C168.17 134.17 170.55 131.93 174.25 131.43C172.71 134.51 167.57 145.8 167.37 137.13ZM155.14 151.33C154.76 154.55 161.93 157.86 156.16 158.57C154.2 153.82 149.78 156.34 155.14 151.33ZM144.29 176.65C146.77 176.98 151.49 174.79 147.94 172.56C151.56 172.1 163.87 175.14 156.08 177.86C159.34 169.75 140.54 184.76 144.29 176.66" fill="#0F2350"/>
<path d="M185.54 136.06C182.57 142.43 192.1 138.98 189.91 135.41C188.93 136.96 186.94 136.64 185.54 136.06Z" fill="#16244B"/>
<path d="M166.72 91.26C165.79 89.27 165.02 87.19 163.46 85.37C161.87 83.52 160.31 81.6 158.04 80.89C157.73 80.79 157.38 80.48 157.08 80.22C156.27 79.54 155.45 78.86 154.68 78.14C153.09 76.66 151.34 76.16 149.64 75.48C148.73 75.11 147.88 74.77 147.01 74.12C145.87 73.26 144.67 72.52 143.5 71.73C142.04 70.74 140.52 69.85 139.15 68.71C138.1 67.83 137.14 67.12 135.99 66.94C134.41 66.69 132.95 66.65 132.07 67.78C131.56 68.43 131.03 69.06 130.46 69.64C130.25 69.85 129.93 70.06 129.61 70.01C128.5 69.81 128.2 70.37 128.14 71.34C128.08 72.19 127.98 73.04 127.72 73.77C127.44 74.55 127.18 75.38 126.04 75.33C125.27 75.29 124.53 75.51 123.94 75.84C123.45 76.11 122.95 76.36 122.42 76.58C121.69 76.89 120.88 77.05 120.09 77.24C118.45 77.64 117.23 78.73 115.44 78.9C115.13 78.93 114.95 79.26 114.7 79.45C114.46 79.63 114.24 79.86 113.95 79.97C113.64 80.08 113.14 79.93 112.91 80.12C112.02 80.86 110.45 80.65 109.92 81.89C109.82 82.12 109.42 82.16 109.13 82.2C108.14 82.35 107.46 82.88 106.88 83.53V51.43C107.06 51.05 107.34 50.72 107.8 50.47C107.04 49.37 107.04 48.25 107.71 47.23C107.84 47.03 107.93 46.79 108.01 46.56C108.62 44.82 109.01 43.05 109.19 41.21C109.3 40.12 109.44 39.09 109.16 38C108.92 37.06 108.79 36.09 108.67 35.13C108.41 33.14 107.98 31.2 106.74 29.56C105.8 28.31 104.55 27.27 104.26 25.6C104.22 25.38 103.98 25.17 103.8 24.99C103.04 24.23 102.27 23.49 101.52 22.72C100.98 22.17 100.39 21.96 99.59 22.01C98.79 22.06 97.9601 21.89 97.1601 21.77C95.8001 21.57 94.4601 21.09 93.0701 21.71C92.7701 21.84 92.3601 21.76 92.0101 21.71C91.1101 21.55 90.2101 21.33 89.3101 21.14C89.0201 21.08 88.6601 21.1 88.4301 20.94C87.3401 20.2 86.3001 19.4 85.2201 18.65C83.8501 17.7 81.4501 17.56 80.3101 19.48C79.8401 20.27 79.2201 20.98 78.6001 21.67C77.7001 22.67 77.2201 23.84 77.2001 25.17C77.1601 27.53 77.1601 29.89 77.1601 32.25C77.1601 32.6 77.2001 32.99 77.3301 33.31C78.3201 35.68 77.8101 38.07 77.4601 40.45C77.3701 41.04 77.2201 41.74 76.8401 42.15C75.9401 43.15 75.1401 44.17 74.4101 45.32C73.7501 46.36 73.0901 47.38 72.5401 48.49C72.2801 48.48 72.0001 48.47 71.6901 48.45C71.3701 49.82 70.7601 50.89 69.6801 51.76C69.1401 52.19 68.5201 52.83 69.0001 53.77C69.1001 53.96 68.8901 54.35 68.7501 54.61C67.7801 56.35 66.7801 58.08 65.8001 59.82C65.4701 60.41 64.8901 60.94 65.2101 61.75C66.4001 61.47 66.5201 61.51 66.7101 60.83C66.9801 59.86 67.6601 59.38 68.4701 58.8C67.6801 60.41 66.9201 61.91 66.2101 63.43C65.7001 64.54 65.3901 65.7 64.4401 66.63C63.6201 67.43 63.1201 68.56 62.5201 69.57C62.0301 70.39 61.7801 71.42 61.1301 72.06C60.2101 72.96 59.8801 74.09 59.3801 75.17C58.6701 76.74 57.9501 78.31 57.2201 79.87C57.1601 80 56.9801 80.08 56.9101 80.21C56.7001 80.6 56.5001 81 56.3401 81.41C56.1101 81.98 56.0301 82.63 55.7001 83.13C55.0201 84.14 54.4501 85.18 53.9901 86.3C53.6401 87.14 53.2101 87.96 52.8201 88.78C52.0201 90.48 51.1801 92.17 50.4301 93.9C50.1501 94.56 50.0001 95.22 49.4101 95.75C49.0601 96.07 49.0001 96.73 48.8301 97.24C48.7201 97.57 48.6701 97.93 48.5401 98.25C48.2201 99.06 47.8001 99.83 47.5401 100.66C47.1501 101.88 46.0301 102.82 46.1501 104.24C45.2301 104.65 45.4501 105.53 45.2901 106.26C45.2101 106.6 45.0401 106.92 44.8901 107.24C44.4201 108.26 43.7101 109.25 43.5501 110.32C43.4301 111.09 43.1601 111.58 42.7401 112.01C42.2601 111.73 41.7901 111.46 41.2901 111.18C40.7301 111.56 40.0001 111.78 39.7901 112.25C39.0701 113.82 38.5901 115.5 37.9201 117.1C37.1301 119 36.2801 120.87 35.3701 122.72C35.1601 123.14 34.6001 123.39 34.1001 123.8C34.5401 125.41 33.1501 125.65 32.1401 126.04C31.9301 126.8 31.6701 127.43 31.6001 128.08C31.4501 129.59 31.1501 131.13 31.8101 132.59C32.0401 133.09 32.5701 133.44 32.8201 133.94C33.2701 134.83 33.6101 135.77 34.0001 136.69C35.2401 136.5 36.1101 136.75 36.4701 137.9C36.9201 139.33 37.9601 140.13 39.3401 140.57C39.5801 140.65 39.9301 140.75 39.9901 140.93C40.4201 142.07 41.5101 142.18 42.1801 142.52C42.9501 142.32 43.5401 141.99 44.0901 142.05C45.2201 142.17 46.0801 141.89 46.6401 140.92C48.2101 141.61 49.0801 141.21 49.9201 139.72C50.4901 138.71 51.2701 137.82 51.9401 136.87C52.3201 136.34 52.6501 135.78 53.0101 135.23C53.3701 134.68 53.7201 134.14 54.0801 133.6C54.2201 133.39 54.3801 133.2 54.4801 132.98C55.6801 130.37 56.5401 127.63 57.6901 125C58.7001 122.69 59.4601 120.28 60.4401 117.95C60.7101 117.3 61.1601 116.7 61.3301 116.03C61.7101 114.57 62.1201 114.16 63.6201 114.14C64.3201 114.14 65.0201 114.14 66.0101 114.14C66.0301 114.15 66.2901 114.4 66.6001 114.58C67.8601 115.31 69.1401 115.7 70.4701 114.72C71.4901 113.96 72.5401 113.23 73.5301 112.43C74.4201 111.71 75.3001 111.05 76.5401 111.12C78.6901 111.24 80.8501 111.21 82.9801 111.45C84.1301 111.58 85.2601 112.07 86.3401 112.53C86.5901 112.64 86.8301 112.8 87.0501 112.99V121.48H106.88V99.01C107.48 99.01 108.17 99.1 108.5 98.8C108.9 98.44 109.32 98.24 109.84 98.09C110.39 97.93 110.81 97.53 111.35 97.33C111.97 97.1 112.22 96.22 113.3 96.73C113.51 95.79 113.77 94.93 114.91 94.81C115.39 94.76 115.59 94.06 115.96 93.71C116.34 93.35 116.48 92.78 117.24 92.73C118.02 92.67 118.46 91.79 119.23 91.7C119.84 91.63 120.1 90.77 121.08 91.39C120.88 92.37 120.73 93.32 120.49 94.22C119.62 97.39 119.2 100.8 118.79 104.21C118.77 104.39 118.71 104.63 118.81 104.77C119.53 105.83 119.13 106.55 119.12 107.34C118.77 107.45 118.47 107.54 118.18 107.63C118.21 107.7 118.24 107.76 118.27 107.83C118.51 107.88 118.76 107.93 119.07 107.99C119.07 108.28 119.17 108.71 119.07 108.72C117.89 108.88 118.13 110.08 118.04 111.02C117.79 113.57 117.58 116.15 117.37 118.59C117.7 119.02 117.94 119.34 118.08 119.52C117.85 119.91 117.45 120.41 117.52 120.48C118.48 121.55 117.42 121.41 117.24 121.79C117.15 121.98 117.04 122.16 116.93 122.35C117.36 122.62 117.66 122.82 118.03 123.05C117.91 123.36 117.85 123.56 117.76 123.75C117.33 124.72 116.49 125.5 117.53 127.16C117.7 127.43 117.59 127.84 117.57 128.17C117.54 128.64 117.44 129.09 117.44 129.57C117.44 130.08 117.64 130.68 116.95 130.77C116.79 130.79 116.09 131.41 117.18 132.06C117.26 132.11 117.34 132.38 117.33 132.51C117.27 133.41 117.28 134.35 117.09 135.17C116.92 135.88 117.13 136.8 116.25 137.15C115.8 137.32 115.97 138.49 115.87 139.21C115.87 139.24 115.94 139.3 115.97 139.35C116.12 139.31 116.26 139.28 116.48 139.22C116.87 140.68 115.74 140.91 115.27 141.78C115.57 141.83 115.79 141.86 116.05 141.9C116.1 142.19 116.15 142.48 116.2 142.77C115.07 142.34 115.36 143.35 115.02 143.75C115.38 143.99 115.61 144.14 115.91 144.33C115.77 144.76 115.67 145.2 115.47 145.57C115.37 145.76 115.13 145.88 114.9 145.9C114.33 145.94 114.31 145.91 114.07 146.58C114.21 146.7 114.33 146.8 114.47 146.93C113.94 147.23 113.53 147.45 113.01 147.74C113.55 148.02 113.82 148.17 114.32 148.43C113.94 148.61 113.5 148.8 113.52 148.82C114.37 150.24 112.87 149.36 112.72 149.86C112.86 149.98 113.01 150.11 113.27 150.34C112.91 150.76 112.67 151.44 112.16 151.5C111.66 151.56 111.56 151.94 111.47 152.19C110.98 153.72 109.72 154.44 108.64 155.34C107.79 156.06 106.8 156.62 105.9 157.27C105.02 157.9 104.16 158.73 102.74 158.46C102.74 158.8 102.76 159.06 102.76 159.3C100.86 158.733 99.6567 158.733 99.1501 159.3C99.3101 159.64 99.4601 159.97 99.7401 160.56C97.9301 160.4 96.2501 160.26 94.4101 160.1C94.7501 160.57 95.0001 160.92 95.3301 161.38C94.3501 161.21 93.5301 161.13 92.6701 160.26C92.4201 160.01 91.9401 159.87 91.6201 159.86C91.2801 159.86 89.8201 159.93 89.4901 159.81C87.8401 159.22 86.1901 158.6 84.5401 158.05C83.9001 157.83 83.4301 157.58 83.0301 156.83C82.7801 156.36 82.2501 155.72 81.8401 155.56C80.0001 154.83 79.6401 153.25 79.4301 152C78.8301 148.45 79.8001 145.72 81.3801 143.4C82.0701 142.39 82.8101 141.42 83.5001 140.4C84.4701 138.94 85.2901 137.32 87.1401 136.8C87.4101 136.73 87.6201 136.48 87.7501 136.23C88.2701 135.26 89.4401 135.07 90.1001 134.29C90.8101 133.46 91.6401 132.84 92.8401 132.68C93.1501 132.64 93.2701 132.21 93.5201 132.01C93.7301 131.84 94.0101 131.57 94.2601 131.66C95.0101 131.92 95.1201 131.35 95.5001 131.1C96.5901 130.36 97.7301 129.68 98.9501 129.11C99.9101 128.66 101.08 128.51 102.04 128.06C103.79 127.23 105.46 126.27 107.15 125.36C106.97 125.34 106.7 125.24 106.51 125.29C105.26 125.6 104.03 125.92 102.8 126.26C102.4 126.37 102.04 126.55 101.66 126.7C100.84 127.01 100.05 127.4 98.8901 126.7C98.9301 126.94 99.0401 127.29 98.9501 127.32C97.9901 127.68 97.0101 128 96.0201 128.31C95.6501 128.43 95.2601 128.34 94.8801 127.89C95.1201 127.22 95.6201 126.96 96.3501 127.18C96.6001 126.72 96.8301 126.3 97.1701 125.69C96.5201 125.85 96.0601 126.01 95.5701 126.08C95.1201 126.14 94.6201 126.11 94.1501 126.12C93.8001 126.12 93.4101 126.05 93.1201 126.14C91.2901 126.73 89.4801 127.36 87.6601 127.97C87.5101 128.02 87.2401 128.01 87.2101 128.13C87.0101 129.32 85.3901 128.47 84.9401 129.32C84.8101 129.56 84.3901 129.53 84.1701 129.71C83.6601 130.12 83.2601 130.67 82.7001 131C82.1201 131.34 81.3001 131.37 81.3401 132.38C81.3401 132.52 81.0901 132.72 81.0101 132.67C79.9901 132.07 79.9801 132.99 79.5801 133.31C79.2701 133.56 78.9201 133.78 78.6401 134.06C78.2801 134.42 77.9101 134.8 77.6401 135.25C77.2001 135.99 76.9801 136.95 75.8301 136.91C75.6401 136.91 75.4801 137.11 75.3801 137.29C74.9001 138.17 74.5101 139.12 73.9701 139.94C73.5401 140.6 73.0901 141.4 72.3601 141.59C71.4901 141.82 71.0401 142.33 70.7101 143.15C69.3101 142.27 69.2401 143.98 68.1401 143.74C68.0301 143.29 67.9501 142.93 67.8001 142.33C67.5801 142.63 67.4701 142.74 67.4101 142.89C66.7301 144.55 65.8201 146.02 64.7001 147.31C64.5401 147.49 64.4101 147.84 64.1901 147.8C63.4301 147.67 63.2301 148.24 62.9101 148.63C62.6401 148.96 62.3801 149.22 61.8101 149.04C61.2001 148.85 60.8601 149.1 60.6201 149.54C60.3001 150.11 59.9001 150.61 59.5501 151.17C59.3601 151.48 59.0001 151.81 59.1001 152.16C59.4501 153.44 59.8301 154.76 60.4601 156.01C61.2201 157.52 62.2301 158.97 63.1501 160.44C64.3901 162.42 65.8301 164.21 67.7401 165.61C68.6601 166.28 69.5401 167.07 70.3701 167.89C71.6301 169.14 72.8401 170.46 74.0601 171.75C74.4901 172.2 74.8901 172.44 75.4501 172.53C76.0901 172.63 76.8101 172.95 77.4801 173.29C78.9801 174.05 80.4601 174.9 81.9601 175.69C82.7401 176.1 83.5401 176.54 84.3201 176.83C84.8301 177.02 85.3401 176.9 85.8601 177.02C86.8301 177.25 87.8401 177.69 88.7701 177.8C89.5101 177.89 90.1001 177.81 90.8701 178.59C91.1301 178.85 91.7001 178.77 92.1201 178.8C92.3501 178.82 92.5501 178.73 92.7701 178.75C93.9501 178.86 95.1401 178.99 96.3201 179.09C96.8301 179.13 97.4701 179.29 97.8001 179.07C98.2801 178.75 98.9001 178.86 99.4601 178.92C100.55 179.04 101.87 179.81 102.47 178.72C102.49 178.68 102.66 178.77 102.75 178.77C103.85 178.8 104.95 178.83 106.06 178.86C106.29 178.56 106.46 177.96 106.89 177.89C107.73 177.76 108.34 177.42 108.57 176.68C109.15 177.08 109.61 177.39 110.07 177.71C110.1 177.64 110.13 177.58 110.16 177.51C109.89 177.25 109.63 176.99 109.18 176.55C109.63 176.52 109.92 176.5 110.21 176.49C110.41 176.49 110.72 176.59 110.79 176.49C111.23 175.77 112.02 175.92 112.9 176.23C112.98 176.26 113.06 176.19 113.15 176.17C113.13 175.93 113.11 175.69 113.09 175.46C113.14 175.42 113.16 175.38 113.2 175.38C114.26 175.36 115.52 175.73 116.15 174.83C116.33 174.58 116.37 174.07 116.63 174.04C117.88 173.88 118.44 172.85 119.37 172.3C120.08 171.88 120.79 171.46 121.47 171.01C121.97 170.67 121.86 169.66 122.76 169.75C123.37 168.54 124.2 167.53 125.03 166.52C126.03 165.31 126.33 163.51 127.49 162.44C127.6 162.34 127.63 162.13 127.68 161.96C128.06 160.6 128.43 159.24 128.8 157.88C129.02 157.07 129.34 156.31 129.47 155.46C129.86 152.97 130.26 150.47 130.51 147.91C130.66 146.32 130.97 144.8 130.97 143.12C130.97 141.38 131.1 139.63 131.59 138.17C132.13 136.55 132.64 134.94 132.83 133.11C132.95 131.91 133.25 130.78 133.34 129.57C133.49 127.6 134.34 126.06 134.61 124.16C134.78 122.98 134.96 121.78 135.38 120.76C136.11 118.97 136.92 117.24 137.88 115.63C139.13 113.54 140.43 111.47 141.13 108.98C141.93 106.14 144.36 104.87 145.77 102.63C145.79 102.6 145.85 102.6 145.89 102.59C146.93 102.27 147.59 101.52 148.31 100.79C148.86 100.23 149.58 99.77 150.38 99.57C152.72 98.99 155.22 98.7 157.51 98.03C158.87 97.63 160.37 97.38 161.43 96.47C161.63 96.29 161.93 96.17 162.24 96.17C163.91 96.2 164.96 95.28 166.05 94.45C166.93 93.79 167.27 92.59 166.64 91.27M41.2501 116.07C39.7201 116.47 40.0401 117.79 39.8501 118.86C39.8101 119.06 39.7501 119.37 39.6301 119.41C38.6701 119.72 38.9201 120.86 38.1901 121.43C37.5201 120.85 38.0301 120.4 38.2001 119.99C38.9301 118.2 39.7201 116.43 40.4701 114.65C40.8301 113.78 41.1901 112.94 42.2401 112.7C42.5901 114.03 41.6901 114.98 41.2601 116.07M87.0601 108.73C85.3801 108.84 83.6901 108.92 82.0201 109.07C80.9501 109.16 79.9201 109.14 78.8501 109.04C77.7301 108.93 76.9601 108.35 76.1001 107.83C75.6101 107.53 75.1701 107.14 74.6901 106.79C75.2301 105.32 82.5301 102.08 87.0601 101.71V108.72V108.73ZM87.0601 85.54C86.9401 85.85 86.8901 86.16 87.0601 86.51V92.29C85.5801 93 83.9401 93.02 82.3901 93.41C81.1601 93.72 79.9401 94.1 78.7201 94.47C78.3801 94.57 78.0601 94.9 77.7401 94.88C75.3901 94.8 73.7701 96.68 71.6201 97.15C71.1301 97.26 70.7301 97.75 70.0101 98.27C70.1301 97.76 70.1201 97.5 70.2301 97.43C71.7301 96.44 72.1301 94.7 72.9901 93.28C73.2701 92.81 73.4301 92.32 73.9001 91.93C74.3901 91.52 74.6601 90.85 75.0501 90.32C75.6501 89.51 76.2101 88.67 76.8901 87.95C78.1501 86.63 79.2301 85.2 80.1801 83.65C80.7001 82.8 81.3901 82.06 82.0101 81.27C82.1201 81.34 82.2301 81.41 82.3401 81.48C81.6501 82.71 80.9101 83.91 80.3001 85.18C79.7101 86.4 78.7701 87.46 78.5601 88.87C80.8501 85.16 83.3101 81.57 85.7401 77.97C86.4601 78.31 86.8501 78.75 87.0701 79.24V85.54H87.0601ZM94.8801 127.88C95.1201 128.44 95.0301 128.8 94.5601 128.93C94.0801 127.99 94.0801 127.98 94.8801 127.88ZM95.7201 177.46C95.6701 177.37 95.6301 177.28 95.5801 177.19C95.8501 177.12 96.1201 177.06 96.3801 176.99C96.4401 177.1 96.4901 177.21 96.5501 177.32C96.2701 177.37 95.9901 177.41 95.7201 177.46Z" fill="white"/>
<path d="M100.16 129.76C98.66 129.75 97.33 129.99 96.3 131.08C96.88 131.39 97.35 131.64 97.82 131.89C97.88 131.54 97.93 131.19 97.98 130.92C98.74 130.52 99.45 130.14 100.16 129.77" fill="white"/>
<path d="M97.8101 131.93C97.8101 131.93 97.8401 131.94 97.8501 131.95C97.8501 131.93 97.8501 131.92 97.8501 131.9C97.8501 131.9 97.8301 131.9 97.8201 131.89C97.8201 131.9 97.8201 131.92 97.8201 131.93H97.8101Z" fill="white"/>
<path d="M107.64 155.56C107.64 155.49 107.48 155.37 107.3 155.17C107.2 155.39 107.14 155.52 107.08 155.65C107.2 155.71 107.35 155.83 107.45 155.81C107.55 155.79 107.65 155.66 107.65 155.56" fill="white"/>
<path d="M44.6401 102.92C44.5401 102.88 44.4501 102.85 44.3501 102.81C44.1701 103.16 44.0401 103.55 43.8001 103.85C43.5101 104.21 43.1101 104.46 42.8001 104.81C42.2601 105.44 42.4301 106.01 43.2901 106.82C43.7901 105.36 44.2101 104.13 44.6301 102.91" fill="white"/>
<path d="M60.5799 71.26C59.5299 71.64 58.8199 71.85 58.5899 72.8C58.4099 73.51 57.9899 74.16 57.6799 74.84C57.7699 74.89 57.8699 74.93 57.9599 74.98C58.7799 73.82 59.5999 72.66 60.5799 71.27" fill="white"/>
<path d="M48.6101 93.47C47.8901 94.21 47.4801 95.19 46.6101 96.22C48.4101 95.88 47.9501 94.29 48.6101 93.47Z" fill="white"/>
<path d="M53.8401 82.11C53.3301 83.11 52.9701 83.81 52.5801 84.56C53.6201 84.26 53.8101 83.92 53.8401 82.11Z" fill="white"/>
<path d="M55.25 79.23C54.31 79.6 54.51 80.21 54.68 80.85C55.4 80.5 55.76 80.06 55.25 79.23Z" fill="white"/>
<path d="M43.0299 108.51C42.9099 108.34 42.7999 108.17 42.6199 107.91C42.1899 108.27 41.8799 108.63 41.9599 109.55C42.2399 109.15 42.3299 108.96 42.4699 108.83C42.6199 108.7 42.8299 108.62 43.0199 108.51" fill="white"/>
<path d="M45.05 98.9C44.89 99.03 44.86 99.31 44.74 99.6H46.24C45.89 98.95 45.7 98.38 45.05 98.9Z" fill="white"/>
<path d="M44.9499 101.87C45.1099 101.52 45.2699 101.17 45.4399 100.82C45.3599 100.74 45.2799 100.67 45.1999 100.59C44.9499 100.76 44.6399 100.88 44.4899 101.11C44.3999 101.24 44.5799 101.55 44.6599 101.77C44.6799 101.82 44.8099 101.82 44.9499 101.86" fill="white"/>
<path d="M46.5599 97.3C46.4499 97.21 46.3399 97.12 46.2299 97.02C46.0299 97.46 45.3999 97.55 45.6399 98.36C45.9499 98 46.2499 97.65 46.5599 97.3Z" fill="white"/>
<path d="M62.8899 66.77C63.0999 66.51 63.3099 66.25 63.6899 65.8C63.2099 65.85 63.0099 65.86 62.8199 65.88C62.7699 66.14 62.7299 66.41 62.6799 66.67C62.7499 66.7 62.8199 66.74 62.8899 66.77Z" fill="white"/>
<path d="M62.79 65.88C62.79 65.88 62.81 65.88 62.83 65.88C62.83 65.87 62.83 65.86 62.83 65.85C62.82 65.86 62.81 65.88 62.8 65.89" fill="white"/>
<path d="M50.9901 88.69C50.3368 88.8833 50.0434 89.2167 50.1101 89.69C50.3401 89.43 50.5601 89.18 50.9901 88.69Z" fill="white"/>
<path d="M63.48 65.11C63.31 65.02 63.08 64.83 63.01 64.88C62.64 65.12 62.5 65.45 62.82 65.84C63.02 65.61 63.23 65.39 63.47 65.11" fill="white"/>
</g>
<defs>
<clipPath id="clip0_449_203">
<rect width="198.44" height="195.85" fill="white"/>
</clipPath>
</defs>
</svg>
