<svg width="41" height="10" viewBox="0 0 41 10" fill="none" xmlns="http://www.w3.org/2000/svg">
<g clip-path="url(#clip0_344_146)">
<path d="M5.54961 1.61664C4.04961 1.61664 1.94961 1.61664 0.349609 1.61664V9.41664H2.54961V3.51664C2.54961 3.51664 4.54961 3.41664 5.24961 3.51664C5.94961 3.61664 6.14961 4.01664 6.14961 4.81664C6.14961 5.81664 6.14961 6.31664 6.14961 9.41664H8.34961C8.34961 9.41664 8.34961 5.91664 8.34961 4.61664C8.24961 2.51664 7.54961 1.61664 5.54961 1.61664Z" fill="#2B2B2B"/>
<path d="M15.6495 1.51666C13.4495 1.51666 11.7495 3.31666 11.7495 5.51666C11.7495 7.71666 13.5495 9.51666 15.6495 9.51666C17.7495 9.51666 19.5495 7.71666 19.5495 5.51666C19.5495 3.31666 17.8495 1.51666 15.6495 1.51666ZM15.6495 7.61666C14.5495 7.61666 13.5495 6.71666 13.5495 5.51666C13.5495 4.31666 14.4495 3.41666 15.6495 3.41666C16.8495 3.41666 17.7495 4.31666 17.7495 5.51666C17.7495 6.61666 16.8495 7.61666 15.6495 7.61666Z" fill="#2B2B2B"/>
<path d="M40.3498 5.51666C40.3498 3.31666 38.5498 1.51666 36.4498 1.51666C34.2498 1.51666 32.5498 3.31666 32.5498 5.51666C32.5498 6.81666 33.1498 7.91666 34.0498 8.61666C34.6498 9.11666 35.5498 9.51666 36.7498 9.51666C37.3498 9.51666 38.8498 9.31666 39.9498 8.11666L39.0498 6.91666C38.6498 7.21666 37.7498 7.71666 36.9498 7.71666C35.9498 7.71666 35.4498 7.51666 34.9498 7.11666C34.6498 6.91666 34.5498 6.51666 34.4498 6.11666H40.3498C40.3498 5.91666 40.3498 5.71666 40.3498 5.51666ZM34.4498 4.81666C34.6498 3.91666 35.3498 3.21666 36.4498 3.21666C37.6498 3.21666 38.2498 3.91666 38.4498 4.81666H34.4498Z" fill="#2B2B2B"/>
<path d="M27.0496 0.81665H24.9496V3.01665H22.8496V4.91665H24.9496V7.21665H27.0496V4.91665H29.1496V3.01665H27.0496V0.81665Z" fill="#2B2B2B"/>
</g>
<defs>
<clipPath id="clip0_344_146">
<rect width="40" height="8.7" fill="white" transform="translate(0.349609 0.81665)"/>
</clipPath>
</defs>
</svg>
