<svg width="16" height="15" viewBox="0 0 16 15" fill="none" xmlns="http://www.w3.org/2000/svg">
<g clip-path="url(#clip0_364_14167)">
<path d="M2.59976 -3.05176e-05C1.49976 -3.05176e-05 0.499756 0.999969 0.499756 2.09997V12.8C0.499756 14 1.49976 15 2.59976 15H5.89976V10.1H4.19976V7.49997H5.99976V6.39997C5.99976 3.49997 7.29976 2.09997 10.1998 2.09997C10.6998 2.09997 11.6998 2.19997 12.0998 2.29997V4.69997C11.8998 4.69997 11.4998 4.69997 11.0998 4.69997C9.69976 4.69997 9.19976 5.19997 9.19976 6.59997V7.49997H11.9998L11.4998 10.1H8.99976V15H13.2998C14.4998 15 15.3998 14 15.3998 12.9V2.09997C15.4998 0.999969 14.4998 -3.05176e-05 13.3998 -3.05176e-05H2.59976Z" fill="white"/>
</g>
<defs>
<clipPath id="clip0_364_14167">
<rect width="15" height="15" fill="white" transform="translate(0.499756 -3.05176e-05)"/>
</clipPath>
</defs>
</svg>
