<svg width="16" height="16" viewBox="0 0 16 16" fill="none" xmlns="http://www.w3.org/2000/svg">
<g clip-path="url(#clip0_344_142)">
<path d="M2.94961 0.666626C1.84961 0.666626 0.849609 1.66663 0.849609 2.76663V13.4666C0.849609 14.6666 1.84961 15.6666 2.94961 15.6666H6.24961V10.7666H4.54961V8.16663H6.34961V7.06663C6.34961 4.16663 7.64961 2.76663 10.5496 2.76663C11.0496 2.76663 12.0496 2.86663 12.4496 2.96663V5.36663C12.2496 5.36663 11.8496 5.36663 11.4496 5.36663C10.0496 5.36663 9.54961 5.86663 9.54961 7.26663V8.16663H12.3496L11.8496 10.7666H9.34961V15.6666H13.6496C14.8496 15.6666 15.7496 14.6666 15.7496 13.5666V2.76663C15.8496 1.66663 14.8496 0.666626 13.7496 0.666626H2.94961Z" fill="#2B2B2B"/>
</g>
<defs>
<clipPath id="clip0_344_142">
<rect width="15" height="15" fill="white" transform="translate(0.849609 0.666626)"/>
</clipPath>
</defs>
</svg>
