<svg width="40" height="9" viewBox="0 0 40 9" fill="none" xmlns="http://www.w3.org/2000/svg">
<g clip-path="url(#clip0_364_14156)">
<path d="M5.19976 0.949982C3.69976 0.949982 1.59976 0.949982 -0.000244141 0.949982V8.74998H2.19976V2.84998C2.19976 2.84998 4.19976 2.74998 4.89976 2.84998C5.59976 2.94998 5.79976 3.34998 5.79976 4.14998C5.79976 5.14998 5.79976 5.64998 5.79976 8.74998H7.99976C7.99976 8.74998 7.99976 5.24998 7.99976 3.94998C7.89976 1.84998 7.19976 0.949982 5.19976 0.949982Z" fill="white"/>
<path d="M15.2997 0.850006C13.0997 0.850006 11.3997 2.65001 11.3997 4.85001C11.3997 7.05001 13.1997 8.85001 15.2997 8.85001C17.3997 8.85001 19.1997 7.05001 19.1997 4.85001C19.1997 2.65001 17.4997 0.850006 15.2997 0.850006ZM15.2997 6.95001C14.1997 6.95001 13.1997 6.05001 13.1997 4.85001C13.1997 3.65001 14.0997 2.75001 15.2997 2.75001C16.4997 2.75001 17.3997 3.65001 17.3997 4.85001C17.3997 5.95001 16.4997 6.95001 15.2997 6.95001Z" fill="white"/>
<path d="M39.9997 4.85001C39.9997 2.65001 38.1997 0.850006 36.0997 0.850006C33.8997 0.850006 32.1997 2.65001 32.1997 4.85001C32.1997 6.15001 32.7997 7.25001 33.6997 7.95001C34.2997 8.45001 35.1997 8.85001 36.3997 8.85001C36.9997 8.85001 38.4997 8.65001 39.5997 7.45001L38.6997 6.25001C38.2997 6.55001 37.3997 7.05001 36.5997 7.05001C35.5997 7.05001 35.0997 6.85001 34.5997 6.45001C34.2997 6.25001 34.1997 5.85001 34.0997 5.45001H39.9997C39.9997 5.25001 39.9997 5.05001 39.9997 4.85001ZM34.0997 4.15001C34.2997 3.25001 34.9997 2.55001 36.0997 2.55001C37.2997 2.55001 37.8997 3.25001 38.0997 4.15001H34.0997Z" fill="white"/>
<path d="M26.6998 0.149994H24.5998V2.34999H22.4998V4.24999H24.5998V6.54999H26.6998V4.24999H28.7998V2.34999H26.6998V0.149994Z" fill="white"/>
</g>
<defs>
<clipPath id="clip0_364_14156">
<rect width="40" height="8.7" fill="white" transform="translate(-0.000244141 0.149994)"/>
</clipPath>
</defs>
</svg>
