<svg width="16" height="16" viewBox="0 0 16 16" fill="none" xmlns="http://www.w3.org/2000/svg">
<g clip-path="url(#clip0_344_144)">
<path d="M8.34951 4.36665C6.24951 4.36665 4.54951 6.06665 4.54951 8.16665C4.54951 10.2667 6.24951 11.9667 8.34951 11.9667C10.4495 11.9667 12.1495 10.2667 12.1495 8.16665C12.1495 6.06665 10.4495 4.36665 8.34951 4.36665ZM8.34951 10.6667C6.94951 10.6667 5.84951 9.56665 5.84951 8.16665C5.84951 6.76665 6.94951 5.66665 8.34951 5.66665C9.74951 5.66665 10.8495 6.76665 10.8495 8.16665C10.8495 9.56665 9.74951 10.6667 8.34951 10.6667ZM13.2495 4.16665C13.2495 4.66665 12.8495 5.06665 12.3495 5.06665C11.8495 5.06665 11.4495 4.66665 11.4495 4.16665C11.4495 3.66665 11.8495 3.26665 12.3495 3.26665C12.8495 3.26665 13.2495 3.66665 13.2495 4.16665ZM15.7495 5.06665C15.6495 3.86665 15.4495 2.76665 14.5495 1.96665C13.6495 1.06665 12.6495 0.76665 11.4495 0.76665C10.2495 0.66665 6.44951 0.66665 5.24951 0.76665C4.04951 0.76665 2.94951 1.06665 2.14951 1.96665C1.34951 2.86665 0.949512 3.86665 0.949512 5.06665C0.849512 6.26665 0.849512 10.0667 0.949512 11.2667C1.04951 12.4667 1.24951 13.5667 2.14951 14.3667C3.04951 15.1667 4.04951 15.5667 5.24951 15.5667C6.44951 15.6667 10.1495 15.6667 11.4495 15.5667C12.6495 15.4667 13.7495 15.2667 14.5495 14.3667C15.4495 13.4667 15.7495 12.4667 15.7495 11.2667C15.8495 10.0667 15.8495 6.26665 15.7495 5.06665ZM14.1495 12.5667C13.8495 13.2667 13.3495 13.7667 12.7495 13.9667C11.7495 14.3667 9.44951 14.2667 8.34951 14.2667C7.24951 14.2667 4.94951 14.3667 3.94951 13.9667C3.24951 13.6667 2.74951 13.1667 2.54951 12.5667C2.14951 11.5667 2.24951 9.26665 2.24951 8.16665C2.24951 7.06665 2.14951 4.76665 2.54951 3.76665C2.84951 3.06665 3.34951 2.56665 3.94951 2.36665C4.94951 1.96665 7.24951 2.06665 8.34951 2.06665C9.44951 2.06665 11.7495 1.96665 12.7495 2.36665C13.4495 2.66665 13.9495 3.16665 14.1495 3.76665C14.5495 4.76665 14.4495 7.06665 14.4495 8.16665C14.4495 9.26665 14.5495 11.5667 14.1495 12.5667Z" fill="#2B2B2B"/>
</g>
<defs>
<clipPath id="clip0_344_144">
<rect width="15" height="15" fill="white" transform="translate(0.849609 0.666626)"/>
</clipPath>
</defs>
</svg>
