<svg width="16" height="15" viewBox="0 0 16 15" fill="none" xmlns="http://www.w3.org/2000/svg">
<g clip-path="url(#clip0_364_14154)">
<path d="M7.99966 3.69996C5.89966 3.69996 4.19966 5.39996 4.19966 7.49996C4.19966 9.59996 5.89966 11.3 7.99966 11.3C10.0997 11.3 11.7997 9.59996 11.7997 7.49996C11.7997 5.39996 10.0997 3.69996 7.99966 3.69996ZM7.99966 9.99996C6.59966 9.99996 5.49966 8.89996 5.49966 7.49996C5.49966 6.09996 6.59966 4.99996 7.99966 4.99996C9.39966 4.99996 10.4997 6.09996 10.4997 7.49996C10.4997 8.89996 9.39966 9.99996 7.99966 9.99996ZM12.8997 3.49996C12.8997 3.99996 12.4997 4.39996 11.9997 4.39996C11.4997 4.39996 11.0997 3.99996 11.0997 3.49996C11.0997 2.99996 11.4997 2.59996 11.9997 2.59996C12.4997 2.59996 12.8997 2.99996 12.8997 3.49996ZM15.3997 4.39996C15.2997 3.19996 15.0997 2.09996 14.1997 1.29996C13.2997 0.399963 12.2997 0.0999634 11.0997 0.0999634C9.89966 -3.66196e-05 6.09966 -3.66196e-05 4.89966 0.0999634C3.69966 0.0999634 2.59966 0.399963 1.79966 1.29996C0.999658 2.19996 0.599658 3.19996 0.599658 4.39996C0.499658 5.59996 0.499658 9.39996 0.599658 10.6C0.699658 11.8 0.899658 12.9 1.79966 13.7C2.69966 14.5 3.69966 14.9 4.89966 14.9C6.09966 15 9.79966 15 11.0997 14.9C12.2997 14.8 13.3997 14.6 14.1997 13.7C15.0997 12.8 15.3997 11.8 15.3997 10.6C15.4997 9.39996 15.4997 5.59996 15.3997 4.39996ZM13.7997 11.9C13.4997 12.6 12.9997 13.1 12.3997 13.3C11.3997 13.7 9.09966 13.6 7.99966 13.6C6.89966 13.6 4.59966 13.7 3.59966 13.3C2.89966 13 2.39966 12.5 2.19966 11.9C1.79966 10.9 1.89966 8.59996 1.89966 7.49996C1.89966 6.39996 1.79966 4.09996 2.19966 3.09996C2.49966 2.39996 2.99966 1.89996 3.59966 1.69996C4.59966 1.29996 6.89966 1.39996 7.99966 1.39996C9.09966 1.39996 11.3997 1.29996 12.3997 1.69996C13.0997 1.99996 13.5997 2.49996 13.7997 3.09996C14.1997 4.09996 14.0997 6.39996 14.0997 7.49996C14.0997 8.59996 14.1997 10.9 13.7997 11.9Z" fill="white"/>
</g>
<defs>
<clipPath id="clip0_364_14154">
<rect width="15" height="15" fill="white" transform="translate(0.499756 -3.05176e-05)"/>
</clipPath>
</defs>
</svg>
