<svg width="352" height="50" viewBox="0 0 352 50" fill="none" xmlns="http://www.w3.org/2000/svg">
<g clip-path="url(#clip0_182_3206)">
<path d="M243.59 36.4286C243.768 36.6071 244.125 36.7857 244.304 36.9643C244.661 37.3214 245.018 37.6786 245.375 38.0357C245.375 38.0357 245.554 38.2143 245.732 38.2143C245.732 38.2143 246.09 38.2143 246.268 38.3929C246.625 38.5714 247.161 38.75 247.518 39.1071C247.697 39.1071 247.875 39.2857 248.232 39.4643H248.59C248.768 39.4643 249.125 39.6429 249.304 39.6429C249.482 39.6429 249.661 39.6429 249.84 39.8214C249.84 39.8214 250.018 39.8214 250.197 39.8214C250.197 39.8214 250.197 39.8214 250.375 39.8214C250.732 39.8214 251.09 39.8214 251.268 39.8214H251.625C251.625 39.8214 251.982 39.8214 252.161 39.8214C252.518 39.8214 252.875 40 253.054 39.8214C253.411 39.8214 253.59 39.8214 253.947 39.8214C253.947 39.8214 253.947 39.6429 254.125 39.6429C254.304 39.6429 254.482 39.6429 254.661 39.2857C254.661 39.2857 255.018 39.4643 255.018 39.6429C255.018 39.6429 255.018 39.6429 254.661 39.4643C254.661 39.4643 254.839 39.4643 255.018 39.4643C255.018 39.2857 255.375 39.4643 255.554 39.4643C255.554 39.4643 255.554 39.4643 255.554 39.2857C255.911 39.2857 256.268 39.2857 256.447 39.2857V39.1071C256.804 39.1071 256.982 38.75 257.161 38.5714C257.34 38.5714 257.518 38.3929 257.697 38.2143C257.697 38.2143 257.697 37.8571 258.054 37.8571C258.054 37.5 258.411 37.3214 258.589 36.9643C258.947 36.6071 258.947 36.0714 259.304 35.8929C259.304 35.5357 259.482 35.1786 259.661 34.8214C259.661 34.6429 259.661 34.4643 259.84 34.1071C259.84 33.3929 260.018 32.6786 260.197 31.9643C260.197 31.6071 260.197 31.0714 260.197 30.7143C260.197 30.1786 260.197 29.8214 260.197 29.2857C260.197 28.9286 260.554 28.3929 260.554 27.8571C260.554 27.5 260.554 27.1429 260.554 26.9643C260.554 26.4286 260.911 26.0714 260.911 25.5357C260.911 25.1786 260.911 24.8214 261.09 24.6429C261.268 24.1071 261.447 23.75 261.804 23.2143C262.161 22.6786 262.518 22.1429 262.697 21.4286C262.875 20.7143 263.589 20.3571 263.947 19.6429C264.304 19.6429 264.482 19.2857 264.661 19.1071C264.661 19.1071 265.018 18.75 265.197 18.75C265.911 18.75 266.447 18.5714 267.161 18.3929C267.518 18.3929 267.875 18.3929 268.232 18.0357C268.232 18.0357 268.232 18.0357 268.411 18.0357C268.947 18.0357 269.125 17.8571 269.482 17.5C269.661 17.3214 269.84 16.9643 269.482 16.6071C269.304 16.0714 268.947 15.5357 268.59 15C268.232 14.4643 267.697 13.9286 267.161 13.75C267.161 13.75 266.982 13.75 266.982 13.5714C266.804 13.3929 266.625 13.2143 266.268 13.0357C265.911 12.6786 265.375 12.5 264.839 12.3214C264.661 12.3214 264.304 12.1429 264.125 11.9643C263.768 11.7857 263.411 11.6071 263.232 11.25C262.875 10.8929 262.34 10.7143 261.982 10.3571C261.625 10.1786 261.447 10 261.09 9.82143C260.732 9.82143 260.197 9.82143 260.018 10C260.018 10 259.661 10.3571 259.661 10.5357C259.661 10.5357 259.661 10.5357 259.482 10.5357C259.125 10.5357 259.125 10.5357 259.125 10.8929C259.125 11.0714 259.125 11.4286 259.125 11.6071C259.125 11.7857 259.125 11.9643 258.589 11.9643C258.411 11.9643 258.232 11.9643 258.054 11.9643C258.054 11.9643 257.697 11.9643 257.697 12.1429C257.518 12.1429 257.34 12.1429 256.982 12.3214C256.447 12.3214 256.268 12.6786 255.732 12.8571C255.732 12.8571 255.732 12.8571 255.554 12.8571C255.554 12.8571 255.554 12.8571 255.375 12.8571C255.375 12.8571 255.197 12.8571 255.018 12.8571C254.839 13.0357 254.304 12.8571 254.125 13.3929C254.125 13.3929 254.125 13.3929 253.947 13.3929C253.59 13.3929 253.411 13.75 253.232 13.9286C253.232 13.9286 253.232 14.1071 252.875 14.1071C252.697 14.1071 252.518 14.1071 252.518 14.4643C252.518 14.4643 252.518 14.8214 252.161 14.8214C252.161 14.8214 252.161 14.8214 251.982 15.1786C251.982 15.1786 251.982 15.3571 251.804 15.5357C251.804 15.8929 251.625 16.0714 251.447 16.4286C251.447 16.6071 251.447 16.7857 251.447 16.9643V17.3214C251.804 17.5 251.982 17.8571 252.339 18.0357C252.697 18.0357 252.875 18.2143 253.232 18.0357C253.232 18.0357 253.589 18.0357 253.768 18.0357C253.768 18.0357 253.947 18.0357 254.125 17.8571C254.125 17.8571 254.304 17.8571 254.482 17.6786C254.482 17.6786 254.661 17.3214 255.018 17.6786C255.018 17.5 255.018 17.1429 255.375 17.1429C255.375 17.1429 255.554 16.9643 255.732 16.7857C255.732 16.7857 255.732 16.6071 256.09 16.4286C256.268 16.4286 256.447 16.25 256.625 16.0714C256.625 16.0714 256.804 15.8929 257.161 16.0714C257.161 16.25 257.161 16.6071 257.161 16.7857C256.982 17.6786 256.804 18.5714 256.625 19.4643C256.804 19.8214 256.625 20 256.625 20.1786C256.625 20.1786 256.625 20.1786 256.447 20.1786C256.447 20.1786 256.447 20.1786 256.625 20.1786V20.3571C256.268 20.3571 256.447 20.7143 256.268 21.0714C256.268 21.7857 256.268 22.5 256.09 23.2143C256.09 23.2143 256.09 23.3929 256.268 23.3929V23.5714C256.447 23.9286 256.268 23.75 256.268 23.9286C256.268 23.9286 256.447 23.9286 256.625 24.1071C256.625 24.1071 256.625 24.1071 256.625 24.2857C256.625 24.4643 256.268 24.8214 256.625 25.1786C256.625 25.1786 256.625 25.3571 256.625 25.5357C256.625 25.5357 256.625 25.7143 256.625 25.8929V26.25C256.625 26.25 256.447 26.25 256.625 26.6071C256.625 26.7857 256.625 27.1429 256.625 27.3214C256.625 27.5 256.625 27.8571 256.447 27.8571C256.447 27.8571 256.447 28.2143 256.447 28.3929C256.447 28.75 256.268 28.9286 256.09 29.1071C256.09 29.1071 256.09 29.1071 256.268 29.1071C256.268 29.1071 256.268 29.1071 256.268 29.2857C255.911 29.2857 256.089 29.2857 255.911 29.6429C255.911 29.6429 255.911 29.6429 256.09 29.6429C256.09 29.6429 256.09 29.8214 256.09 30C256.09 30 256.089 30 255.911 30.1786C255.911 30.1786 255.732 30.1786 255.554 30.3571C255.554 30.3571 255.732 30.3571 255.911 30.5357H255.732C255.911 30.8929 255.732 30.5357 255.554 30.8929C255.554 30.8929 255.554 31.25 255.197 31.25C255.197 31.25 255.197 31.25 255.018 31.4286C255.018 31.7857 254.482 31.9643 254.304 32.3214C254.125 32.5 253.768 32.6786 253.59 32.8571C253.411 32.8571 253.054 33.2143 252.697 33.2143C252.697 33.2143 252.697 33.2143 252.697 33.3929C252.22 33.2738 251.863 33.2738 251.625 33.3929C251.625 33.3929 251.625 33.5714 251.625 33.75C251.09 33.75 250.732 33.75 250.197 33.75C250.197 33.75 250.197 33.9286 250.375 34.1071C250.018 34.1071 249.839 34.1071 249.661 33.75C249.661 33.75 249.482 33.75 249.304 33.75H248.768C248.232 33.75 247.875 33.3929 247.34 33.2143C247.34 33.2143 246.982 33.2143 246.982 32.8571C246.982 32.8571 246.804 32.5 246.625 32.5C246.089 32.3214 246.09 31.7857 245.911 31.6071C245.911 30.7143 245.911 29.8214 246.447 29.2857C246.625 28.9286 246.804 28.75 246.982 28.3929C247.161 28.0357 247.518 27.5 248.054 27.3214C248.054 27.1429 248.589 26.9643 248.768 26.7857C248.947 26.6071 249.125 26.4286 249.482 26.4286C249.482 26.4286 249.482 26.4286 249.661 26.25C249.661 26.25 249.661 26.25 249.84 26.25C250.018 26.25 250.018 26.25 250.197 26.25C250.554 26.0714 250.732 25.8929 251.089 25.7143C251.268 25.7143 251.625 25.7143 251.982 25.3571C252.518 25.1786 252.875 24.8214 253.411 24.6429C253.054 24.6429 252.697 24.6429 252.339 24.8214C252.339 24.8214 252.161 24.8214 251.982 24.8214C251.804 24.8214 251.625 25 251.268 24.8214C251.09 24.8214 250.732 25 250.554 25.1786C250.554 25.1786 250.375 25.1786 250.197 25.1786C250.197 25 250.375 25 250.554 25C250.554 25 250.554 24.8214 250.732 24.6429C250.554 24.6429 250.375 24.6429 250.375 24.6429C250.375 24.6429 250.197 24.6429 250.018 24.6429C250.018 24.6429 249.839 24.6429 249.661 24.6429C249.125 24.6429 248.59 25 248.232 25.1786C248.232 25.5357 247.697 25.1786 247.697 25.5357C247.697 25.5357 247.697 25.5357 247.518 25.5357C247.518 25.5357 247.34 25.7143 247.161 25.8929C247.161 25.8929 246.804 25.8929 246.804 26.25C246.447 26.25 246.447 26.25 246.447 26.25C246.447 26.25 246.268 26.25 246.268 26.4286C246.268 26.4286 246.09 26.6071 245.911 26.7857C245.911 26.9643 245.732 27.3214 245.375 27.3214C245.375 27.5 245.197 27.8571 245.018 28.0357C245.018 28.2143 244.84 28.3929 244.661 28.5714C244.482 28.5714 244.304 28.75 244.125 28.9286C243.768 28.75 243.768 29.1071 243.411 28.9286C243.411 28.9286 243.411 28.75 243.411 28.5714C243.232 29.1071 243.054 29.4643 242.697 29.8214C242.518 29.8214 242.518 29.8214 242.34 30C242.34 30 242.34 30 241.982 30C241.982 30 241.804 30 241.625 30C241.625 30 241.447 30.3571 241.268 30.3571C241.268 30.3571 241.268 30.3571 241.268 30.7143C241.268 31.0714 241.447 31.4286 241.625 31.7857C241.804 32.1429 242.161 32.6786 242.34 33.0357C242.697 33.5714 243.054 34.1071 243.59 34.4643M250.911 26.0714C250.911 26.0714 250.911 26.25 250.911 26.4286C250.911 26.25 250.911 26.25 250.911 26.0714Z" fill="#0F2350"/>
<path d="M252.339 26.6071C251.982 26.6071 251.625 26.6071 251.268 26.9643C251.268 26.9643 251.625 26.9643 251.625 27.1429V26.9643C251.804 26.9643 251.982 26.7857 252.161 26.6071" fill="#0F2350"/>
<path d="M276.447 25.3571L278.59 20.3571C278.59 21.4286 278.947 23.3929 279.125 23.5714C279.125 23.5714 279.125 23.9286 279.304 23.9286C279.304 23.9286 279.482 24.2857 279.304 24.2857C279.304 24.2857 279.304 24.2857 279.304 24.4643C279.304 25.3571 279.304 26.0714 279.304 26.9643C279.304 27.5 279.304 28.2143 279.304 28.9286V29.2857C279.125 29.4643 278.768 29.6429 278.59 29.8214C278.232 30 277.697 30.3571 277.34 30.5357C277.161 30.5357 276.982 30.7143 276.625 30.7143C276.268 30.7143 275.732 30.7143 275.375 30.7143C275.018 30.7143 274.482 30.7143 274.304 31.25C273.947 31.25 273.947 31.6071 273.768 31.7857C273.768 31.9643 273.947 32.1429 273.947 32.3214C273.947 32.5 274.125 32.6786 274.304 32.8571C277.161 31.6071 280.197 30.5357 283.411 29.8214C283.59 29.8214 283.768 29.4643 283.768 29.1071C283.768 29.1071 283.59 29.1071 283.411 29.1071C283.411 28.75 283.411 28.3929 283.59 28.3929C283.59 28.3929 283.59 28.5714 283.59 28.75C283.59 28.3929 283.59 28.2143 283.947 28.0357C284.304 27.8571 284.482 27.6786 284.84 27.5C285.018 27.5 285.197 27.1429 285.375 26.9643C285.554 26.9643 285.732 26.9643 285.911 26.7857C285.911 26.7857 285.911 26.7857 285.554 26.7857C285.554 26.7857 285.554 26.4286 285.554 26.25C285.554 26.25 285.911 26.4286 285.911 26.25C285.911 26.25 285.911 26.0714 285.911 25.8929C285.197 26.0714 284.304 26.4286 283.59 26.6071C283.59 26.6071 283.59 26.4286 283.59 26.25C283.59 25.5357 283.59 25 283.59 24.2857C283.59 24.1071 283.59 23.75 283.59 23.5714C283.59 23.2143 283.59 23.0357 283.59 22.6786C283.59 21.6071 283.59 20.7143 283.59 19.6429C283.59 19.4643 283.59 19.1071 283.59 18.9286C283.59 18.3929 283.947 18.0357 283.947 17.5C283.947 17.5 283.947 17.5 283.947 17.3214C284.125 16.9643 284.304 16.6071 284.482 16.25C284.482 15.8929 284.661 15.3571 284.482 15V14.6429C284.482 14.2857 284.482 13.9286 284.482 13.75C284.482 13.2143 284.482 12.8571 283.947 12.5C283.947 12.5 283.768 12.3214 283.59 12.1429C283.59 11.9643 283.232 11.7857 283.054 11.9643H282.697C282.518 11.9643 282.34 11.7857 282.161 11.6071C281.982 11.6071 281.804 11.6071 281.447 11.6071C281.268 11.6071 281.09 11.6071 280.911 11.7857C280.911 11.7857 280.554 11.7857 280.375 11.7857C280.018 11.7857 279.84 11.7857 279.482 11.7857C278.768 11.7857 278.232 11.7857 277.518 11.9643C277.34 11.9643 276.09 12.1429 275.911 12.3214L270.197 25.3571L266.625 33.3929L264.482 38.2143C266.804 36.4286 269.482 35 272.161 33.5714L276.09 24.8214L276.447 25.3571Z" fill="#0F2350"/>
<path d="M303.768 29.1071C304.304 28.75 304.482 28.3929 304.661 27.8571C304.661 27.5 305.018 27.1429 305.554 26.7857C305.554 26.7857 305.911 26.6071 305.911 26.4286C306.268 26.0714 306.447 25.7143 306.625 25.3571C306.625 25.3571 306.625 25.3571 306.982 25.3571V25C306.982 25 306.982 24.8214 307.161 24.8214C307.518 24.8214 307.696 24.4643 307.696 24.2857C307.875 23.3929 308.054 22.5 308.232 21.6071C308.232 21.6071 308.232 21.6071 308.232 21.4286C308.232 21.4286 308.232 21.7857 308.232 21.9643V21.6071C308.232 21.25 308.411 20.7143 308.589 20.3571C308.589 20 308.589 19.4643 308.589 19.1071C308.589 18.75 308.232 18.3929 308.232 18.0357C308.054 17.3214 307.697 16.7857 307.161 16.25C306.982 16.0714 306.804 15.7143 306.625 15.5357C306.447 15.1786 306.089 14.8214 305.554 14.6429C305.554 14.6429 305.375 14.6429 305.197 14.6429C304.661 14.4643 304.125 14.1071 303.589 13.9286C303.411 13.9286 303.232 13.9286 303.054 13.9286C302.697 13.9286 302.339 13.75 301.982 13.9286C301.447 13.9286 300.732 14.1071 300.197 13.9286H299.839C299.304 14.1071 298.768 14.1071 298.232 13.9286C297.875 13.9286 297.518 13.9286 297.339 13.9286C297.161 13.9286 296.982 13.9286 296.982 13.9286C296.804 13.5714 295.732 13.75 295.196 13.75H294.839H290.018C290.018 13.9286 290.018 14.1071 289.839 14.2857V15.3571C289.839 15.3571 289.839 15.5357 289.839 15.7143V30C292.161 29.6429 294.482 29.4643 296.982 29.4643C299.482 29.4643 301.982 29.4643 304.482 30M294.661 23.2143C294.661 23.2143 294.661 23.2143 294.661 23.0357C294.661 23.0357 294.839 22.6786 294.839 22.5C294.839 22.3214 294.839 21.9643 295.375 21.7857C295.375 21.7857 295.375 21.7857 295.375 21.6071C295.375 21.6071 295.375 21.25 295.554 21.0714C295.911 20.8929 295.911 20.5357 295.911 20.1786C295.911 19.8214 296.089 19.6429 296.268 19.2857C296.268 19.1071 296.268 18.9286 296.268 18.5714V18.2143C296.447 17.8571 296.625 17.3214 296.982 16.9643C297.339 16.6071 297.697 16.25 298.232 16.0714C298.589 16.0714 298.768 15.7143 299.125 16.0714C299.125 16.0714 299.482 16.0714 299.482 16.25C299.839 16.6071 300.018 16.9643 300.018 17.3214C300.018 17.8571 300.018 18.3929 300.018 19.1071C300.018 19.8214 299.661 20.3571 299.304 20.8929C299.125 21.25 298.947 21.6071 298.589 21.9643C298.411 22.3214 298.054 22.6786 297.697 22.8571C297.339 23.0357 296.982 23.2143 296.804 23.5714C296.804 23.5714 296.625 23.5714 296.268 23.75C296.447 23.75 296.625 23.75 296.804 23.75C296.447 24.1071 296.089 24.2857 295.554 24.6429C295.018 25 294.304 25.1786 293.768 25.5357V23.3929L294.661 23.2143Z" fill="#0F2350"/>
<path d="M316.09 31.25C316.09 31.6071 315.733 31.7857 315.554 32.1429H315.911C315.911 32.1429 316.09 31.7857 316.268 31.6071C316.268 31.4286 316.625 31.25 316.804 31.0714C316.804 31.0714 316.804 31.0714 316.983 31.0714C316.983 30.7143 317.161 30.5357 317.697 30.3571C317.697 30.3571 317.875 30.3571 318.054 30.3571C318.411 30.3571 318.59 30 318.947 30C319.483 30 320.018 30 320.197 29.4643C320.554 29.8214 320.911 30 320.733 30.3571C320.733 30.3571 320.733 30.5357 320.733 30.7143C320.911 31.0714 321.09 31.6071 321.09 32.1429C319.84 32.3214 318.768 32.5 317.518 32.6786C317.875 32.6786 318.233 32.6786 318.59 32.6786C319.483 32.6786 320.197 32.6786 321.09 33.0357C321.447 33.0357 321.804 33.3929 321.804 33.5714C321.804 33.9286 321.983 34.2857 322.161 34.6429C322.161 34.6429 322.161 35 322.34 35C324.661 36.25 326.804 37.6786 328.947 39.2857H329.84L321.625 13.9286C321.625 13.3929 321.625 12.8571 321.447 12.3214C321.447 12.1429 321.268 11.9643 320.911 11.9643C320.911 11.6071 320.375 11.4286 320.733 11.0714C320.733 11.0714 320.733 11.0714 320.733 10.8929C320.554 10.3571 320.018 10 319.483 9.82142C319.125 9.82142 318.947 9.46428 318.768 9.28571C318.233 8.75 317.697 8.39285 316.804 8.39285C316.625 8.21428 316.268 8.03571 316.625 7.67857C316.625 7.67857 316.625 7.32142 316.625 7.14285C316.387 7.38095 316.268 7.67857 316.268 8.03571C315.554 8.03571 315.911 8.57142 315.911 8.92857C315.911 8.92857 315.554 8.92857 315.375 8.92857C315.375 8.92857 315.375 9.28571 315.018 9.28571C314.661 9.28571 314.304 9.28571 313.947 9.46428C313.59 9.46428 313.59 9.64285 313.59 9.82142C313.233 9.82142 313.233 9.82142 313.233 10C313.233 10.1786 313.233 10.3571 313.233 10.5357C313.233 11.25 313.054 11.9643 313.59 12.5C314.125 12.5 314.84 12.3214 315.375 12.1429C315.375 12.1429 315.554 12.1429 315.733 12.1429C315.733 12.1429 315.733 12.5 315.911 12.6786C315.911 12.6786 315.911 12.8571 315.911 13.0357C315.911 13.2143 315.554 13.3929 315.375 13.5714C315.018 13.5714 314.84 13.9286 314.661 14.2857C314.661 14.6429 314.304 15 314.661 15.3571C314.661 15.3571 314.661 15.7143 314.661 15.8929C314.661 16.0714 314.304 16.4286 314.125 16.6071C313.768 17.1429 313.411 17.6786 313.054 18.3929C312.697 19.1071 312.161 19.6429 311.804 20.3571C311.447 20.8929 311.268 21.25 311.09 21.7857C310.911 22.1429 310.733 22.6786 310.554 23.0357C310.375 23.3929 310.197 23.9286 310.018 24.2857C309.661 24.6429 309.661 25.1786 309.483 25.5357C309.304 26.4286 309.125 27.1429 308.768 28.0357C308.768 28.3929 308.59 28.75 308.411 28.9286C310.733 29.4643 312.875 30.1786 315.018 30.8929C315.375 30.7143 315.733 30.3571 315.911 30.1786M314.483 28.3929C314.125 28.3929 313.947 28.5714 313.411 28.75C313.768 28.0357 313.947 27.5 314.304 26.7857C314.661 26.0714 315.197 25.5357 315.911 25.1786C316.268 24.8214 316.804 24.4643 317.161 24.1071C317.518 23.75 317.875 23.5714 318.054 23.2143C318.054 23.0357 318.411 23.0357 318.411 23.2143C318.411 23.5714 318.59 23.9286 318.768 24.2857C318.947 25 319.125 25.5357 319.304 26.25C318.947 26.25 318.411 26.6071 318.054 26.6071C317.518 26.6071 317.161 26.7857 316.804 27.1429C316.804 27.1429 316.447 27.1429 316.447 27.3214C316.09 27.3214 315.554 27.6786 315.197 27.8571H314.84C314.84 27.8571 314.661 28.0357 314.483 28.2143" fill="#0F2350"/>
<path d="M315.375 32.5C315.732 32.5 315.911 32.5 315.911 32.5H315.554C315.554 32.5 315.554 32.8571 315.375 32.8571" fill="#0F2350"/>
<path d="M351.089 16.9643C351.089 16.9643 351.089 16.7857 351.089 16.6071C351.089 15.8929 350.732 15.3571 350.375 14.6429C350.196 14.1071 349.839 13.75 349.661 13.2143C349.304 12.6786 348.946 12.1429 348.411 11.6071C348.054 11.25 347.696 10.8929 347.339 10.5357C346.982 10.1786 346.625 9.82143 346.268 9.64286C345.732 9.28572 344.839 9.64286 344.839 10.1786C344.839 10.5357 344.839 10.8929 344.839 11.25C344.839 11.9643 344.839 11.9643 345.554 11.7857C345.732 12.5 345.554 13.2143 345.554 13.9286C345.554 14.8214 345.196 15.7143 345.018 16.6071C345.018 17.5 344.661 18.3929 344.482 19.1071C344.482 19.2857 344.482 19.4643 344.482 19.8214C344.125 20.7143 343.946 21.6071 343.768 22.6786C343.589 23.75 343.411 24.8214 343.232 26.0714C343.232 27.1429 342.875 28.3929 343.054 29.4643C343.054 30 343.054 30.5357 342.518 31.0714C342.518 31.0714 342.161 31.0714 342.161 30.8929C342.161 30.5357 341.982 30.1786 341.804 29.8214C341.804 29.4643 341.804 29.2857 341.804 28.9286C341.625 28.0357 341.268 27.1429 341.089 26.0714C341.089 25.3571 340.732 24.6429 340.732 23.9286C340.732 23.75 340.732 23.3929 340.732 23.2143C340.732 22.1429 340.732 20.8929 341.804 20C341.804 20 341.804 19.8214 341.804 19.6429C341.804 19.2857 341.804 18.75 341.982 18.3929C341.982 18.2143 341.982 18.0357 341.982 17.8571C341.982 17.5 341.625 17.1429 341.625 16.7857C341.625 16.7857 341.625 16.6071 341.446 16.4286C341.268 16.25 341.089 16.0714 340.732 15.7143C340.732 15.7143 340.375 15.3571 340.196 15.1786C340.196 15.1786 339.839 15 339.839 14.8214C339.304 14.4643 338.946 13.9286 338.411 13.5714C337.696 13.2143 337.161 12.8571 336.625 12.3214C336.625 12.3214 336.625 12.3214 336.446 12.3214C336.446 12.3214 336.089 11.9643 335.911 11.7857C335.554 11.4286 335.375 11.4286 335.018 11.7857C334.661 11.7857 334.482 12.1429 334.304 12.3214C334.304 12.5 334.125 12.6786 333.946 13.0357C333.946 13.2143 333.768 13.3929 333.411 13.5714C333.054 13.5714 332.875 13.9286 332.696 14.2857C332.339 15 331.804 15.8929 331.625 16.7857V39.6429H336.625V27.6786C336.625 27.8571 336.625 28.0357 336.804 28.3929C336.804 28.9286 337.161 29.4643 337.339 30C337.696 30.8929 337.875 31.7857 338.232 32.5C338.232 32.6786 338.232 33.0357 338.411 33.2143C338.589 33.75 338.946 34.2857 339.304 34.8214C339.661 35.7143 340.196 36.4286 340.732 37.1429C341.089 37.6786 341.625 38.2143 341.982 38.75C342.518 39.4643 343.232 39.6429 343.946 40C343.946 40 344.125 40 344.304 40C344.661 39.8214 345.018 40 345.196 40.3571C345.375 40.3571 345.732 40.3571 345.911 40C346.268 39.6429 346.446 39.4643 346.625 39.1071C346.804 38.75 346.982 38.3929 346.625 38.2143C346.804 38.0357 347.161 37.8571 347.339 37.6786C347.339 37.3214 347.339 36.9643 347.339 36.7857C347.339 36.4286 347.339 36.25 347.339 36.0714V35.8929C346.982 35.8929 347.161 35.5357 347.161 35.3571C347.161 35.1786 347.161 34.8214 347.518 34.6429C347.339 34.6429 347.161 34.2857 347.339 33.9286C347.339 33.9286 347.339 33.75 347.339 33.5714C347.339 33.2143 347.339 32.8571 347.339 32.6786C347.696 32.1429 347.339 31.6071 347.339 31.25C346.982 30.5357 347.339 30 347.339 29.2857C347.518 28.5714 347.875 27.6786 347.696 26.9643C348.054 26.6071 347.696 26.0714 347.875 25.7143C347.518 25.5357 347.875 25.3571 347.875 25.1786C347.875 25.1786 347.875 25.1786 347.875 25C347.875 24.4643 348.054 23.9286 348.232 23.2143C348.232 22.3214 348.411 21.25 348.946 20.3571C349.304 19.8214 349.482 19.1071 350.018 18.75C350.554 18.2143 350.732 17.6786 350.375 16.9643" fill="#0F2350"/>
<path d="M157.875 35.5357C157.994 35.2976 157.935 35.0595 157.697 34.8214C157.697 34.8214 157.697 34.8214 157.518 34.8214C157.518 34.6429 157.161 34.4643 156.982 34.2857C156.982 34.2857 156.625 34.1071 156.447 33.9286C155.911 33.9286 155.554 33.5714 155.018 33.3929C154.304 33.2143 153.768 33.0357 153.232 32.5C152.875 32.1429 152.339 31.7857 151.804 31.4286C151.447 31.4286 151.268 31.25 151.089 30.8929C150.911 30.5357 150.554 30.3571 150.197 30.1786C150.197 30.3571 150.197 30.7143 150.197 30.8929C150.732 31.4286 151.089 31.7857 151.447 32.3214C151.804 32.6786 152.161 33.2143 152.518 33.75C151.089 33.75 149.839 33.75 148.411 33.9286C148.232 33.9286 148.054 33.9286 147.697 33.9286H144.304C144.304 33.75 144.125 33.3929 144.304 33.2143C144.304 32.8571 144.304 32.3214 144.304 31.9643C144.304 31.6071 144.304 31.4286 144.482 31.25C144.661 31.25 144.839 30.8929 145.018 30.8929C145.375 30.8929 145.732 30.7143 146.268 30.5357C146.625 30.1786 146.982 30 147.518 29.8214C148.232 29.4643 148.768 28.9286 149.482 28.9286C150.018 28.75 150.375 28.2143 150.911 28.0357C150.911 28.0357 150.911 28.0357 151.089 28.0357C151.447 27.6786 151.804 27.5 152.161 27.5H152.518C152.697 27.1429 153.054 26.7857 153.232 26.25C153.232 25.5357 153.232 25.1786 152.518 25C151.625 24.6429 150.911 24.4643 150.018 24.1071C149.125 23.5714 148.054 23.75 147.161 24.1071C146.625 24.2857 146.089 24.6429 145.554 24.4643C145.554 24.4643 145.554 24.4643 145.375 24.4643C144.839 24.6429 144.839 25 144.661 25.5357C144.304 25.5357 144.304 25.5357 144.304 25.1786C144.304 24.8214 144.304 24.4643 144.125 24.1071C144.125 24.1071 144.125 24.1071 144.125 23.9286C144.482 24.1071 145.018 23.9286 145.375 23.9286H145.554C145.911 23.5714 146.268 23.2143 146.625 22.8571C146.982 22.5 147.339 22.1429 147.697 21.9643C148.411 21.6071 149.304 21.0714 150.197 21.0714C150.732 21.0714 151.089 20.5357 151.447 20.7143C152.339 20.3571 153.054 20.3571 153.947 20.1786C154.661 20.1786 155.197 19.8214 155.732 19.2857C155.732 19.2857 155.911 18.9286 155.732 18.75C155.732 18.5714 155.375 18.3929 155.197 18.2143C155.197 18.0357 154.839 17.8571 154.839 17.6786C154.839 17.6786 154.839 17.5 154.839 17.3214C154.839 17.3214 154.661 16.9643 154.839 16.7857C154.839 16.6071 154.839 16.4286 154.482 16.25C154.482 16.25 154.304 16.25 154.125 16.25C154.125 16.25 153.768 16.25 153.589 16.0714C153.232 15.8929 152.875 15.7143 152.697 15.5357C152.339 15.5357 152.161 15.3571 151.804 15.1786C151.447 15.1786 151.089 14.8214 150.554 14.6429C150.197 14.6429 149.661 14.6429 149.304 14.6429C148.768 14.6429 148.411 14.6429 147.875 14.8214C146.982 15 146.268 15.1786 145.375 15.3571C144.839 15.3571 144.482 15.5357 143.947 15.7143H143.589C143.411 15.5357 143.054 15.3571 142.875 15.1786C142.518 14.8214 142.339 14.8214 142.161 15.1786C142.161 15.1786 141.982 15.1786 141.804 15.1786C141.447 15.1786 141.089 15.3571 140.911 15.5357C140.911 15.5357 140.554 15.7143 140.554 15.8929C140.197 16.7857 140.554 17.8571 140.732 18.75C140.732 19.1071 141.089 19.6429 141.268 20C141.625 20.7143 141.447 21.6071 141.268 22.3214C141.268 22.8571 141.089 23.5714 140.911 24.1071C140.911 24.8214 140.911 25.7143 140.732 26.4286C140.732 26.7857 140.732 26.7857 140.375 26.7857C139.661 26.7857 138.947 26.6071 138.232 26.4286C138.054 26.4286 137.875 26.4286 137.518 26.4286C136.982 26.4286 136.625 26.9643 136.268 27.1429C136.268 27.1429 136.268 27.5 136.447 27.6786C136.447 27.8571 136.447 28.0357 136.804 28.2143C137.161 28.5714 137.339 28.75 137.518 29.2857C137.518 29.8214 137.697 30.1786 137.875 30.7143C137.875 30.8929 137.875 31.0714 138.232 31.25C138.768 31.6071 139.304 32.1429 140.018 32.1429C140.018 32.1429 140.197 32.1429 140.375 32.1429C140.375 32.1429 140.732 32.1429 140.732 32.3214C140.732 32.6786 140.732 33.2143 140.732 33.5714C140.732 33.9286 140.732 34.2857 140.732 34.4643C140.732 34.8214 140.732 35.1786 140.554 35.3571C140.554 35.7143 140.375 35.8929 140.554 36.25C140.554 36.6071 140.554 36.9643 140.554 37.3214C140.554 37.6786 140.554 38.0357 140.554 38.2143C140.554 38.75 140.911 39.1071 141.447 39.4643C141.625 39.6429 141.982 39.8214 142.161 39.8214H158.232V36.4286C158.054 36.25 157.875 36.0714 157.518 35.8929" fill="#0F2350"/>
<path d="M79.3037 15C79.3037 14.8214 79.3037 14.4643 79.3037 14.2857C79.3037 13.75 79.1251 13.2143 78.768 12.6786C78.5894 12.3214 78.2323 11.9643 78.0537 11.6071C77.8751 11.4286 77.6966 11.25 77.518 11.0714C77.518 11.0714 77.1609 10.8929 76.9823 10.8929C76.8037 10.8929 76.6251 10.8929 76.268 10.8929C75.9109 10.8929 75.5537 10.7143 75.1966 10.8929C75.1966 10.8929 75.018 10.8929 74.8394 10.8929C74.6609 10.8929 74.3037 10.8929 74.1251 10.8929C74.1251 10.8929 74.1251 10.8929 73.9466 10.8929C73.5894 10.7143 73.4109 10.5357 73.0537 10.1786C72.6966 10 71.9823 9.82143 71.6251 10.3571C71.6251 10.5357 71.268 10.7143 71.0894 10.8929C70.9109 11.25 70.7323 11.4286 70.7323 11.7857C70.7323 12.5 70.7323 13.0357 70.7323 13.75C70.7323 13.75 70.7323 13.9286 70.7323 14.1071C71.0894 14.8214 70.7323 15.3571 70.7323 16.0714C70.7323 16.0714 70.7323 16.4286 70.7323 16.6071C70.5537 16.9643 70.1966 17.1429 70.018 17.5C69.8394 17.8571 69.6609 18.0357 69.4823 18.3929C69.4823 18.3929 69.4823 18.3929 69.3037 18.3929C69.3037 18.75 69.1251 19.1071 68.768 19.2857C68.768 19.2857 68.4109 19.6429 68.5894 19.8214C68.5894 19.8214 68.5894 19.8214 68.5894 20C68.4109 20.5357 68.0537 20.8929 67.6966 21.4286C67.6966 21.4286 67.518 21.7857 67.6966 21.9643C68.0537 21.9643 68.0537 21.9643 68.0537 21.7857C68.0537 21.6071 68.2323 21.4286 68.5894 21.25C68.4109 21.6071 68.2323 22.1429 68.0537 22.5C68.0537 22.8571 67.8751 23.0357 67.518 23.3929C67.3394 23.5714 67.1609 23.9286 66.9823 24.1071C66.9823 24.2857 66.8037 24.6429 66.6251 24.8214C66.4466 25 66.268 25.3571 66.0894 25.7143C65.9109 26.0714 65.7323 26.6071 65.5537 26.9643C65.5537 26.9643 65.5537 27.1429 65.5537 27.3214C65.5537 27.3214 65.5537 27.6786 65.5537 27.8571C65.3751 28.2143 65.1966 28.3929 65.018 28.75C65.018 28.9286 64.8394 29.2857 64.6609 29.4643C64.4823 30 64.1251 30.3571 63.9466 30.8929C63.9466 31.0714 63.9466 31.25 63.5894 31.4286C63.5894 31.4286 63.5894 31.6071 63.5894 31.7857C63.5894 31.7857 63.5894 31.9643 63.5894 32.1429C63.5894 32.3214 63.4109 32.5 63.2323 32.8571C63.2323 33.2143 62.8751 33.3929 62.8751 33.75C62.6966 33.75 62.6966 34.1071 62.6966 34.2857V34.4643C62.6966 34.8214 62.3394 35 62.3394 35.3571C62.3394 35.5357 62.3394 35.7143 62.1609 35.8929C62.1609 35.8929 61.9823 35.8929 61.8037 35.7143C61.8037 35.7143 61.4466 35.7143 61.4466 36.0714C61.268 36.4286 61.0894 36.9643 60.9109 37.3214C60.7323 37.8571 60.3751 38.3929 60.1966 38.9286C60.1966 38.9286 60.018 39.1071 59.8394 39.2857C59.8394 39.6429 59.6609 39.8214 59.3037 39.8214C59.3037 40 59.3037 40.1786 59.3037 40.3571C59.3037 40.7143 59.3037 41.25 59.3037 41.6071C59.3037 41.6071 59.4823 41.7857 59.6609 41.9643C59.6609 42.1429 59.8394 42.5 60.018 42.6786C60.3751 42.6786 60.5537 42.6786 60.7323 43.0357C60.7323 43.3929 61.0894 43.5714 61.4466 43.75C61.4466 43.75 61.4466 43.75 61.6251 43.75C61.6251 44.1071 61.9823 44.1071 62.1609 44.1071C62.3394 44.1071 62.518 44.1071 62.6966 44.1071C63.0537 44.1071 63.2323 44.1071 63.4109 43.75C63.768 43.9286 64.1251 43.75 64.3037 43.3929C64.3037 43.0357 64.6609 42.8571 64.8394 42.6786C64.8394 42.6786 65.018 42.3214 65.1966 42.1429C65.1966 42.1429 65.3751 41.7857 65.5537 41.7857C65.9109 41.0714 66.0894 40.3571 66.4466 39.6429C66.8037 38.9286 66.9823 38.3929 67.1609 37.6786C67.1609 37.6786 67.3394 37.3214 67.3394 37.1429C67.3394 36.7857 67.518 36.6071 68.0537 36.6071C68.2323 36.6071 68.4109 36.6071 68.768 36.6071C69.1251 36.7857 69.4823 36.9643 69.8394 36.6071C70.1966 36.4286 70.3751 36.25 70.7323 35.8929C70.9109 35.7143 71.268 35.5357 71.6251 35.5357C72.1609 35.5357 72.8751 35.5357 73.4109 35.5357C73.768 35.5357 73.9466 35.5357 74.3037 35.8929C74.3037 35.8929 74.3037 35.8929 74.4823 35.8929V41.6071H79.8394V19.1071C79.8394 19.1071 79.8394 18.9286 80.018 18.9286C79.8394 18.5714 79.8394 18.3929 80.018 18.0357C80.018 18.0357 80.018 18.0357 80.018 17.8571C80.018 17.3214 80.3751 16.9643 80.3751 16.4286C80.3751 16.0714 80.3751 15.8929 80.3751 15.5357M60.7323 36.25C60.3751 36.25 60.3751 36.7857 60.3751 36.9643C60.1966 36.9643 60.1966 37.3214 60.018 37.5C59.8394 37.5 60.018 37.1429 60.018 37.1429C60.1966 36.6071 60.3751 36.25 60.5537 35.7143C60.5537 35.5357 60.7323 35.1786 61.0894 35.1786C61.0894 35.5357 61.0894 35.7143 60.9109 36.0714M68.9466 31.0714C68.9466 31.0714 68.768 31.0714 68.5894 31.4286V31.25C68.9466 30.8929 69.1251 30.5357 69.3037 30.1786C69.3037 30.1786 69.3037 30 69.4823 29.8214C69.4823 29.8214 69.6609 29.4643 69.8394 29.4643C69.8394 29.2857 70.1966 28.9286 70.3751 28.75C70.7323 28.3929 71.0894 28.0357 71.268 27.5C71.268 27.3214 71.6251 27.1429 71.8037 26.7857C71.6251 27.1429 71.4466 27.5 71.268 27.8571C71.268 28.2143 70.9109 28.3929 70.7323 28.9286C71.4466 27.8571 71.9823 26.9643 72.6966 25.8929C72.8751 25.8929 73.0537 26.0714 73.0537 26.25V28.0357C73.0537 28.0357 73.0537 28.0357 73.0537 28.2143V29.8214C72.6966 30 72.1609 30 71.8037 30.1786C71.4466 30.1786 71.0894 30.3571 70.7323 30.5357C70.7323 30.5357 70.5537 30.5357 70.3751 30.5357C69.6609 30.5357 69.3037 31.0714 68.768 31.0714M71.8037 34.2857C71.4466 34.2857 71.268 34.2857 70.9109 34.2857C70.5537 34.2857 70.3751 34.1071 70.1966 33.9286C70.1966 33.9286 70.018 33.75 69.8394 33.5714C69.8394 33.2143 71.9823 32.3214 73.2323 32.1429V34.1071C72.6966 34.1071 72.3394 34.1071 71.8037 34.1071" fill="#0F2350"/>
<path d="M61.6252 32.6786C61.6252 32.6786 61.6252 32.8571 61.6252 33.0357C61.6252 33.0357 61.4466 33.0357 61.2681 33.2143C61.2681 33.2143 61.2681 33.5714 61.2681 33.75C61.2681 33.3929 61.4466 33.0357 61.6252 32.6786Z" fill="#0F2350"/>
<path d="M65.9111 24.1071C65.5539 24.1071 65.3754 24.1071 65.3754 24.4643C65.3754 24.6429 65.3753 24.8214 65.1968 25C65.3753 24.6429 65.7325 24.2857 65.9111 23.9286" fill="#0F2350"/>
<path d="M62.6968 30.1786C62.5183 30.3571 62.3397 30.7143 62.1611 30.8929C62.6968 30.8929 62.5183 30.3571 62.6968 30.1786Z" fill="#0F2350"/>
<path d="M64.1252 26.9643C64.1252 27.3214 63.9466 27.5 63.7681 27.6786C64.1252 27.6786 64.1252 27.6786 64.1252 26.9643Z" fill="#0F2350"/>
<path d="M64.4826 26.25C64.304 26.25 64.304 26.4286 64.4826 26.6071C64.6611 26.6071 64.8397 26.4286 64.4826 26.25Z" fill="#0F2350"/>
<path d="M61.0897 34.2857C61.0897 34.2857 60.9111 34.4643 60.9111 34.8214C60.9111 34.8214 60.9111 34.8214 60.9111 34.6429" fill="#0F2350"/>
<path d="M61.8037 31.6071C61.8037 31.6071 61.8037 31.6071 61.8037 31.7857H62.1609C62.1609 31.6071 62.1609 31.4286 61.8037 31.6071Z" fill="#0F2350"/>
<path d="M61.8041 32.3214C61.8041 32.3214 61.8041 32.1429 61.8041 31.9643C61.8041 31.9643 61.8041 31.9643 61.6255 31.9643C61.6255 31.9643 61.6255 31.9643 61.6255 32.1429" fill="#0F2350"/>
<path d="M62.1609 31.0714C62.1609 31.0714 61.9823 31.0714 62.1609 31.4286C62.1609 31.4286 62.1609 31.25 62.3395 31.0714" fill="#0F2350"/>
<path d="M66.6255 22.8571C66.6255 22.8571 66.6255 22.8571 66.8041 22.6786H66.6255C66.6255 22.6786 66.6255 22.6786 66.6255 22.8571Z" fill="#0F2350"/>
<path d="M63.4109 28.75C63.1728 28.75 63.1133 28.869 63.2324 29.1071C63.2324 29.1071 63.2324 29.1071 63.4109 28.75Z" fill="#0F2350"/>
<path d="M66.8037 22.3214C66.8037 22.3214 66.8037 22.3214 66.8037 22.5C66.8037 22.5 66.8037 22.5 66.9823 22.3214" fill="#0F2350"/>
<path d="M128.232 7.14285C128.054 7.14285 127.697 7.14285 127.518 7.14285C126.804 7.14285 126.804 7.14285 126.268 7.14285C126.268 7.14285 126.268 7.14285 126.09 7.14285C125.911 7.14285 125.554 7.14285 125.554 7.14285C125.375 7.14285 125.197 7.14285 125.018 7.14285C125.018 7.14285 124.661 7.14285 124.482 7.14285C123.947 7.14285 123.411 7.14285 122.875 7.32142C122.518 7.32142 122.161 7.67857 121.804 7.32142C121.447 7.32142 121.09 7.32142 120.732 7.32142C119.84 7.32142 119.125 7.67857 118.232 7.67857C117.875 7.67857 117.518 7.67857 117.161 7.67857C115.732 7.67857 114.304 8.03571 113.054 8.21428C112.161 8.21428 111.268 8.57142 110.375 8.57142C110.375 8.57142 110.375 8.57142 110.197 8.57142C109.84 8.75 109.304 8.75 108.947 8.92857C108.232 9.10714 107.518 9.28571 106.804 9.46428C106.268 9.46428 105.732 9.46428 105.375 9.64285C104.84 9.64285 104.482 9.64285 104.125 9.64285C103.768 9.46428 103.411 9.82142 103.054 9.64285C103.054 9.64285 103.054 9.64285 102.697 9.64285C102.697 9.64285 102.518 9.64285 102.34 9.64285C102.34 9.64285 101.982 9.64285 101.804 9.64285C101.268 9.64285 100.911 9.64285 100.554 10C100.197 10.3571 100.018 10.5357 99.661 10.8929C99.8396 11.25 99.661 11.6071 99.4824 11.9643C99.4824 11.9643 99.4824 12.1429 99.4824 12.3214C99.4824 12.8571 99.4824 13.3929 99.4824 13.9286C99.4824 13.9286 99.4824 14.2857 99.4824 14.4643C99.4824 14.6429 99.4824 14.8214 99.4824 15C99.8396 15.8929 100.554 16.25 101.268 16.6071C101.447 16.7857 101.625 17.1429 101.804 17.1429C102.34 17.1429 102.697 17.6786 103.054 18.0357C103.411 18.3929 103.768 18.75 104.125 19.1071C104.125 19.1071 104.482 19.2857 104.661 19.2857C105.018 19.2857 105.375 19.2857 105.732 19.2857C105.732 19.2857 105.911 19.2857 106.09 19.2857C106.268 18.9286 106.625 18.75 106.625 18.2143C106.625 18.0357 106.625 17.6786 106.982 17.5C107.34 16.9643 107.875 16.6071 108.411 16.0714V39.1071H113.768V14.1071H114.125C114.482 13.9286 114.661 13.75 115.018 13.5714C115.018 13.5714 115.018 13.5714 115.197 13.5714C115.197 13.5714 115.554 13.5714 115.732 13.5714C115.911 13.5714 116.268 13.5714 116.447 13.3929C116.982 13.2143 117.34 12.6786 118.054 12.6786C118.232 12.6786 118.411 12.5 118.59 12.3214H117.875C117.875 12.1429 118.054 11.9643 118.232 11.7857C118.768 11.7857 118.947 11.7857 119.304 11.4286C119.304 11.4286 119.482 11.0714 119.661 11.25C119.661 11.25 119.84 11.4286 120.018 11.6071C120.018 11.6071 120.375 11.25 120.375 11.0714C120.375 11.0714 120.375 11.0714 120.375 11.25C120.554 11.0714 120.732 11.25 120.911 11.25C121.09 11.25 121.447 11.25 121.625 11.25C121.982 10.8929 122.34 10.8929 122.518 10.7143C122.875 10.7143 123.054 10.7143 123.411 10.7143C123.411 10.7143 123.768 10.7143 123.947 10.7143C124.125 10.7143 124.304 10.5357 124.661 10.5357C124.84 10.5357 125.018 10.5357 125.197 10.3571C125.197 10.1786 125.554 10.1786 125.732 10V10.3571C125.732 10.3571 125.911 10.3571 126.09 10.3571C126.09 10.3571 126.447 10.3571 126.625 10.1786C126.982 10 127.34 10 127.875 9.82142C127.875 9.82142 127.875 9.82142 128.232 10C128.054 10.1786 127.875 10.3571 127.697 10.5357C126.804 11.25 125.911 11.6071 124.84 12.1429C124.304 12.3214 123.768 12.6786 123.232 13.0357C123.768 13.0357 124.125 13.0357 124.661 12.6786C125.018 12.6786 125.375 12.5 125.732 12.3214C126.268 12.1429 126.804 11.7857 127.518 11.7857C127.518 11.7857 127.518 11.7857 127.697 11.7857C128.411 11.6071 128.947 11.0714 129.482 10.5357C129.84 10.1786 129.84 9.82142 129.84 9.28571C129.84 8.57142 129.304 8.03571 128.768 8.03571" fill="#0F2350"/>
<path d="M137.518 18.75C137.518 18.2143 137.161 17.8571 136.982 17.3214C136.982 17.1429 136.982 16.9643 136.982 16.7857C136.982 16.25 136.982 15.8929 136.982 15.3571C136.982 15.3571 136.982 15.3571 136.982 15.1786C136.804 14.8214 136.446 14.4643 136.268 14.2857C136.089 14.2857 135.732 14.2857 135.732 14.2857C135.196 13.9286 134.482 13.9286 133.946 13.5714C133.768 13.5714 133.411 13.3929 133.232 13.2143C131.982 12.8571 130.554 12.8571 129.304 13.2143C128.411 13.3929 128.054 14.1071 128.589 14.8214C128.946 15.1786 128.768 15.3571 128.411 15.7143C128.411 15.7143 128.232 15.7143 128.232 15.8929C128.232 16.25 128.232 16.6071 128.411 16.9643C128.768 17.5 129.304 17.8571 129.304 18.5714C129.304 18.5714 129.304 18.5714 129.304 18.75C129.304 18.9286 129.304 19.1071 129.304 19.2857C129.304 19.6429 129.125 20 129.125 20.1786C129.125 20.5357 129.125 22.6786 129.125 24.1071H122.518C122.518 23.3929 122.518 22.5 122.518 21.7857C122.518 21.7857 122.518 21.6071 122.518 21.4286C122.518 21.0714 122.518 20.8929 122.339 20.5357C122.339 20 122.339 19.6429 122.339 19.1071C122.339 18.9286 122.339 18.5714 122.161 18.3929C122.161 18.0357 122.161 17.6786 122.161 17.3214C122.696 16.6071 122.161 15.7143 121.089 15.5357C120.911 15.5357 120.732 15.5357 120.554 15.5357C120.196 15.8929 119.839 16.25 119.661 16.6071C119.304 16.9643 119.304 17.5 118.946 17.8571C118.411 18.3929 118.411 19.1071 118.232 19.6429C118.054 20.3571 117.875 21.0714 117.696 21.7857C117.696 21.7857 117.696 21.9643 117.696 22.1429C117.696 22.6786 117.696 23.2143 117.696 23.75C117.696 24.4643 117.696 25 117.696 25.7143C117.696 26.25 117.696 26.9643 117.696 27.5C117.696 28.2143 117.518 29.1071 117.339 29.8214C117.339 30.7143 117.339 31.4286 117.339 32.3214C117.339 33.0357 117.696 33.75 117.875 34.6429C117.875 34.6429 117.875 35 118.054 35.1786C118.232 35.7143 118.768 36.0714 118.946 36.6071C118.946 36.7857 119.304 37.1429 119.839 37.3214C120.196 37.3214 120.732 37.6786 121.268 37.6786C121.982 37.6786 122.518 37.6786 123.232 37.6786C123.232 37.6786 123.411 37.6786 123.589 37.6786C123.946 37.3214 124.125 37.1429 124.125 36.7857V36.4286C124.482 36.0714 124.125 35.7143 124.125 35.3571C124.125 35 123.946 34.6429 123.768 34.2857C123.768 34.2857 123.589 32.3214 123.232 30.7143H129.482C129.482 32.1429 129.482 33.5714 129.661 35C129.661 35.7143 129.661 36.6071 129.661 37.3214C129.661 39.2857 129.661 41.25 129.125 43.2143C129.125 43.3929 129.125 43.5714 129.125 43.75C129.125 43.9286 129.304 44.1071 129.125 44.4643V44.8214C129.304 44.2857 129.661 43.9286 129.839 43.3929C129.839 43.75 129.839 43.9286 129.839 44.2857L130.375 42.8571C130.375 43.75 130.018 44.4643 129.839 45.1786C130.018 45 130.375 44.8214 130.375 44.4643C130.375 43.9286 130.554 43.5714 130.911 43.0357C131.089 42.6786 131.446 42.5 131.982 42.5V43.0357C131.982 42.8571 131.982 42.6786 132.518 42.5C132.518 42.3214 132.518 42.1429 132.339 41.9643C132.339 41.9643 132.161 41.6071 131.982 41.4286C131.982 41.4286 132.161 41.4286 132.339 41.4286C132.339 41.4286 132.339 41.6071 132.339 41.9643C132.339 41.6071 132.518 41.4286 132.696 41.0714C132.935 41.1905 132.935 41.4286 132.696 41.7857C133.054 41.7857 133.054 41.7857 133.054 41.6071C133.054 41.25 133.054 40.8929 133.054 40.5357C133.054 40.1786 133.054 40 132.696 39.8214C133.054 39.4643 132.339 39.2857 132.696 38.9286C133.054 38.5714 132.696 38.3929 132.696 38.0357C132.696 37.6786 132.696 37.5 132.875 37.1429C132.875 37.5 133.054 37.8571 133.054 38.2143C133.054 38.5714 133.054 38.9286 133.054 39.2857C133.054 39.1071 133.411 38.75 133.232 38.5714C133.232 37.8571 133.232 37.1429 133.232 36.25C133.232 36.25 133.054 36.25 132.875 36.25C132.875 35.8929 132.875 35.5357 132.875 35.1786C132.875 35.1786 132.875 35.1786 132.875 35C132.875 34.6429 133.054 34.2857 133.232 33.75C133.232 33.5714 133.232 33.2143 133.232 33.0357C133.232 32.6786 133.232 32.5 133.232 32.1429C133.232 32.1429 133.232 31.9643 133.232 31.7857C133.232 31.7857 133.232 31.7857 133.232 31.6071C133.232 31.25 133.232 30.7143 133.232 30.3571C133.232 30.1786 133.232 29.8214 133.589 29.6429C133.232 29.6429 133.232 29.6429 133.411 29.2857C133.411 29.2857 133.411 28.9286 133.411 28.75C133.411 28.2143 133.589 27.6786 133.768 27.1429C134.304 27.1429 133.768 27.5 133.946 27.6786C133.946 27.6786 133.946 28.0357 133.946 28.2143C133.946 28.3929 133.946 28.5714 133.946 28.75V28.3929C133.946 27.5 133.946 26.6071 134.304 25.5357C134.304 25.5357 134.304 25.1786 134.661 25C135.018 24.6429 135.554 24.2857 135.911 23.9286C135.911 23.9286 135.911 23.9286 136.089 23.5714C135.554 23.75 135.018 23.9286 134.482 24.1071V23.75C134.839 22.8571 134.839 21.9643 135.196 21.0714C135.375 20.7143 135.732 20.5357 136.089 20.3571C136.625 20.1786 136.982 19.8214 136.804 19.4643M132.339 32.8571C132.696 33.5714 132.518 34.1071 132.696 34.8214H132.339C132.339 34.2857 132.161 33.5714 132.339 33.0357M132.696 36.0714C133.054 36.0714 132.696 36.4286 132.696 36.6071C132.696 36.7857 132.696 36.7857 132.696 36.9643C132.696 36.9643 132.161 37.3214 132.518 37.5C132.518 37.5 132.518 37.5 132.696 37.5C132.696 37.8571 132.696 38.2143 132.696 38.75C132.696 38.75 132.518 38.75 132.339 38.75C132.339 39.1071 131.804 39.4643 132.161 40C132.161 40 132.161 40.3571 131.982 40.5357C131.982 40.1786 131.982 40 131.982 39.6429C131.982 39.1071 131.982 38.5714 131.982 38.2143C131.982 37.8571 131.982 37.3214 131.982 36.9643V36.6071C131.982 36.0714 131.982 35.5357 131.982 35.1786C131.982 35.1786 132.339 35.1786 132.518 35.1786C132.518 35.3571 132.518 35.7143 132.518 35.8929H132.161C132.161 35.8929 132.161 35.8929 132.161 36.0714" fill="#0F2350"/>
<path d="M212.161 32.6786C212.161 32.6786 211.982 32.6786 211.804 32.6786C210.375 33.75 208.768 34.4643 206.982 35V18.9286C207.518 18.75 207.875 18.2143 208.232 17.8571C208.232 17.8571 208.59 17.6786 208.59 17.5C209.125 17.1429 209.304 16.6071 208.768 16.25C208.232 15.7143 207.875 15 207.518 14.4643C207.518 14.4643 207.518 14.2857 207.34 14.1071C206.09 13.3929 205.018 12.6786 203.768 11.9643C203.054 11.6071 202.34 11.25 201.447 11.4286C201.268 11.4286 200.911 11.4286 200.732 11.4286C199.84 11.6071 199.482 12.3214 199.84 13.2143C199.84 13.3929 200.018 13.5714 200.197 13.75C200.197 13.9286 200.554 14.2857 200.554 14.4643C200.732 15.3571 200.911 16.4286 201.09 17.3214C201.09 17.5 201.09 17.8571 201.09 18.0357V22.6786C201.09 23.9286 200.732 25 200.732 26.25C200.732 27.3214 200.375 28.2143 200.375 29.2857C200.375 30.1786 200.375 30.8929 200.018 31.7857C200.018 32.1429 200.018 32.5 199.84 32.8571C199.125 32.8571 198.59 33.0357 198.232 33.2143C198.232 33.3929 198.232 33.75 198.054 33.75C197.697 33.9286 197.518 34.2857 197.518 34.6429C197.518 34.6429 197.34 34.8214 197.161 35C197.161 34.8214 197.161 34.6429 197.161 34.4643C196.804 34.2857 196.447 34.4643 196.447 34.6429C196.447 34.8214 196.447 35.1786 196.625 35.5357C196.625 35.7143 196.982 36.0714 197.161 36.25C197.161 37.1429 197.161 38.2143 197.161 39.1071C197.161 40.1786 198.054 40.7143 198.411 41.6071C198.947 41.7857 199.304 41.6071 199.84 41.25C200.197 40.8929 200.375 40.5357 200.911 40.5357C200.911 40 201.625 40 201.625 39.6429C201.625 39.6429 201.804 39.6429 201.982 39.6429C201.804 40 201.625 40.1786 201.982 40.5357C202.161 40.1786 202.518 39.8214 202.697 39.6429C202.875 39.6429 203.232 39.6429 203.411 39.6429C204.304 39.6429 205.197 39.2857 205.911 39.1071C206.447 39.1071 206.804 38.75 206.982 38.2143C207.161 37.6786 207.34 36.9643 207.875 36.6071C209.125 35.7143 210.375 34.6429 211.447 33.75C211.625 33.75 211.804 33.3929 211.983 33.2143" fill="#0F2350"/>
<path d="M205.911 39.2857C206.09 39.2857 206.447 39.2857 206.625 39.2857C206.447 39.2857 206.09 39.2857 205.911 39.4643" fill="#0F2350"/>
<path d="M197.518 13.2143H179.839V18.5714H185.911C185.732 19.6429 185.732 21.25 185.375 21.9643C185.375 22.3214 185.375 22.5 185.375 22.8572C185.375 23.0357 185.375 23.3929 185.375 23.5714C185.375 23.9286 185.375 24.1072 185.375 24.4643C185.375 25.1786 185.375 25.8929 185.196 26.6072C185.196 27.5 185.018 28.5714 184.839 29.4643C184.839 29.4643 184.839 29.6429 184.839 29.8214C184.839 29.8214 184.839 30.1786 184.839 30.3572C184.839 31.0714 184.839 31.7857 184.482 32.5C184.482 33.2143 184.304 33.9286 184.125 34.4643C184.125 35 183.768 35.5357 183.768 36.0714C183.768 36.4286 183.589 36.6072 183.589 36.9643C183.589 37.8572 183.589 38.9286 183.946 39.8214C183.946 40.1786 184.304 40.3572 184.661 40.3572C184.839 40.3572 185.018 40.3572 185.196 40.3572C185.375 40.3572 185.732 40.3572 185.911 40.3572C186.268 40.3572 186.446 40.1786 186.625 39.8214C186.625 39.4643 186.982 39.2857 186.982 38.9286C186.982 38.5714 187.339 38.3929 187.339 38.0357C187.339 37.6786 187.696 37.5 187.339 37.1429C187.339 36.9643 187.875 36.7857 187.518 36.4286C187.875 36.0714 187.875 35.7143 188.054 35.1786C188.054 34.8214 188.054 34.4643 188.411 34.1072C188.768 33.2143 188.946 32.1429 189.125 31.25C189.304 30.1786 189.661 28.9286 190.018 27.8572C190.196 27.3214 190.554 26.7857 190.732 26.25C191.089 25.1786 191.268 24.1072 191.089 23.2143C191.089 22.6786 190.911 22.1429 190.911 21.6072C190.911 21.4286 190.911 21.0714 190.911 20.8929C190.732 20.3572 190.732 20 190.911 19.4643C190.911 19.2857 190.911 19.1072 190.911 18.9286H197.875V13.5714L197.518 13.2143Z" fill="#0F2350"/>
<path d="M173.411 30C173.411 30 173.59 30 173.59 29.8214V29.6429C173.768 29.6429 173.768 29.2857 173.59 29.1071C173.59 29.1071 173.59 29.1071 173.59 28.9286C173.768 28.5714 173.59 28.0357 173.947 27.6786C173.947 27.6786 173.947 27.6786 173.947 27.5C173.59 27.6786 173.232 29.1071 173.232 30" fill="#0F2350"/>
<path d="M174.661 25C174.304 25.7143 174.304 26.4286 174.125 26.9643H174.304C174.304 26.6071 174.661 26.25 174.304 25.8929C174.483 25.7143 174.304 25.3571 174.304 25.1786" fill="#0F2350"/>
<path d="M173.232 31.0714C173.232 30.8929 173.589 30.5357 173.232 30.1786C173.232 30.5357 173.232 30.7143 173.054 31.0714" fill="#0F2350"/>
<path d="M173.232 32.1429C173.232 32.1429 173.232 31.7857 173.411 31.6071C173.292 31.7262 173.232 31.9048 173.232 32.1429Z" fill="#0F2350"/>
<path d="M178.768 14.6429C178.768 13.75 178.411 13.0357 178.054 12.3214C177.697 11.7857 177.518 11.25 177.34 10.5357C177.34 10.1786 176.982 9.82142 176.625 9.46428C176.268 9.10714 175.732 8.75 175.197 8.39285C175.197 8.39285 175.197 8.39285 175.018 8.39285C175.018 8.57142 174.84 8.92857 174.661 9.10714C174.661 9.46428 174.661 10 174.661 10.3571C174.661 11.25 174.125 12.1429 173.768 13.0357C173.768 13.2143 173.411 13.5714 173.768 13.9286C173.768 13.9286 173.768 14.1071 173.768 14.2857C173.768 14.6429 173.768 15 173.59 15.3571C173.59 15.5357 173.59 15.8929 173.59 16.0714C173.59 16.4286 173.232 16.9643 173.232 17.3214C173.232 18.0357 172.697 18.75 172.875 19.6429C172.875 19.6429 172.875 20 172.875 20.1786C172.875 20.1786 172.875 20.5357 172.875 20.7143C172.875 21.0714 172.875 21.25 172.875 21.6071C172.875 21.9643 172.875 22.3214 172.875 22.6786C172.875 22.6786 172.875 22.5 172.875 22.3214C172.875 21.7857 171.625 21.0714 171.625 20.5357C171.625 20.3571 169.84 18.5714 169.661 18.3929C169.304 17.8571 167.518 17.3214 167.34 16.7857C167.34 16.4286 165.732 16.4286 165.375 16.25C165.018 16.0714 163.411 15.1786 162.875 15C162.518 15 162.518 15 162.34 15C162.34 15 162.34 15 162.161 15.1786C161.804 15.3571 160.732 15.7143 160.911 16.0714C160.911 16.0714 160.554 16.7857 161.09 17.1429V39.2857H166.447V32.8571C166.447 32.8571 166.625 32.6786 166.447 32.5C166.447 32.5 166.447 32.3214 166.447 32.1429V26.4286C166.447 25.8929 166.447 25.3571 166.625 25C166.625 24.8214 166.625 24.6429 166.447 24.4643C166.447 24.4643 166.804 23.0357 166.982 22.6786C166.982 22.6786 166.804 20.8929 166.982 20.8929C166.982 21.0714 167.518 22.5 168.054 23.2143C168.59 23.9286 168.768 25 168.768 25.8929C168.768 26.6071 168.768 27.1429 168.947 27.8571C168.947 27.8571 168.947 28.0357 168.947 28.2143C168.947 28.5714 168.947 28.75 168.947 29.1071C168.947 29.2857 169.125 29.4643 168.947 29.6429C168.947 29.8214 168.947 30.1786 168.947 30.3571C169.125 30.7143 168.947 31.0714 169.125 31.4286C169.125 31.9643 169.125 32.5 169.125 33.0357C169.125 33.9286 169.125 34.8214 169.482 35.5357C169.482 36.0714 169.84 36.6071 169.482 37.1429C169.482 37.3214 169.661 37.6786 170.018 37.6786C170.018 37.6786 170.018 37.8571 170.018 38.0357C170.197 38.0357 170.375 38.2143 170.554 38.3929C170.554 38.3929 170.554 38.75 170.554 38.9286C170.554 38.9286 170.732 38.9286 170.911 38.75C170.911 38.75 170.911 38.9286 171.09 38.9286C171.09 38.9286 171.268 38.9286 171.447 38.9286C171.447 38.75 171.447 38.3929 171.982 38.2143C171.982 38.3929 171.982 38.75 172.34 38.75C172.34 38.75 172.34 38.3929 172.518 38.2143V38.5714C172.518 38.5714 172.518 38.2143 172.518 38.0357V37.6786C172.697 37.3214 172.518 36.4286 172.518 36.4286L172.875 36.0714V35.7143C173.232 35.3571 173.054 35 173.054 34.6429C173.054 34.4643 173.054 34.1071 173.054 33.9286C173.054 33.5714 173.054 33.2143 173.232 32.6786C173.232 32.3214 173.232 31.9643 173.232 31.4286C173.054 32.8571 172.697 34.2857 172.518 35.7143C172.34 35.7143 172.518 35.3571 172.518 35.1786C172.518 35 172.518 34.8214 172.518 34.4643C172.518 34.2857 172.518 33.9286 172.518 33.75C172.518 33.75 172.518 33.75 172.518 33.5714C172.161 33.9286 172.161 34.4643 171.982 35C171.982 35 171.982 35 171.982 35.1786C171.982 35.1786 171.982 35.1786 171.982 35C171.982 34.6429 171.982 34.2857 171.982 33.9286C171.982 33.0357 171.982 33.0357 172.34 32.3214C172.34 32.3214 172.34 32.3214 172.34 32.1429C172.34 32.1429 172.161 32.1429 171.982 32.1429C171.982 31.7857 171.982 31.6071 172.518 31.4286C172.875 31.4286 172.697 31.25 172.875 31.0714C172.875 31.0714 172.697 31.0714 172.697 31.25C172.697 31.25 172.518 31.25 172.518 31.0714V30.7143C172.518 30.7143 172.518 30.5357 172.518 30.3571C172.518 30.3571 172.518 30.3571 172.518 30.1786C172.518 30 172.697 29.8214 172.875 29.6429C173.232 29.6429 173.411 29.6429 173.411 29.2857C173.232 29.2857 172.875 29.2857 172.518 29.6429C172.697 29.1071 173.054 28.75 173.232 28.3929H173.411H173.59C173.59 28.2143 173.59 28.0357 173.59 27.8571C173.59 27.6786 173.59 27.5 173.59 27.3214L173.232 28.0357C173.232 28.0357 173.232 27.5 173.232 27.1429C173.232 27.1429 173.232 27.1429 173.232 27.3214C173.232 27.1429 173.59 26.9643 173.768 26.7857C173.947 26.6071 173.768 26.25 173.947 26.0714C173.947 25.5357 174.304 25.1786 174.125 24.6429C174.125 24.6429 174.125 24.4643 174.125 24.2857C174.482 23.9286 174.304 23.3929 174.482 22.8571C174.482 22.5 174.482 22.1429 174.661 21.9643C174.661 21.9643 174.661 21.6071 174.661 21.4286C174.661 22.1429 174.304 22.8571 174.482 23.5714C174.482 23.2143 174.84 22.8571 174.84 22.3214C174.84 22.3214 174.84 22.3214 174.84 22.1429C174.84 21.9643 175.018 21.7857 175.018 21.4286C175.018 21.4286 175.018 21.25 175.018 21.0714C175.018 21.0714 175.018 20.7143 175.018 20.5357C175.018 20 175.554 19.4643 175.732 18.9286C175.732 18.2143 176.268 17.8571 176.447 17.3214C176.447 16.7857 177.697 16.25 177.697 16.25C177.697 16.0714 177.697 15.8929 177.875 15.8929C178.232 15.7143 178.232 15.3571 178.232 15C178.232 14.4643 178.232 14.1071 178.232 13.5714M172.34 25.3571C172.518 26.4286 172.34 26.25 172.161 26.7857C171.982 26.7857 171.804 26.7857 171.804 26.4286C171.804 26.25 171.804 25.8929 172.161 25.8929V25.5357C171.625 24.6429 172.518 25.3571 172.518 25.5357" fill="#0F2350"/>
<path d="M233.947 24.2857C233.768 24.2857 233.589 24.2857 233.232 24.2857C232.697 24.2857 232.339 23.9286 232.161 23.5714C232.161 23.3929 231.982 23.0357 231.804 22.8571C231.447 23.0357 231.268 23.2143 231.089 23.3929C230.732 23.3929 230.554 23.0357 230.375 22.8571C230.375 23.5714 230.732 24.1071 230.732 24.6429C230.732 25 230.732 25.3571 230.732 25.5357C230.732 25.7143 230.732 26.0714 230.732 26.25C230.732 26.4286 230.732 26.6071 230.554 26.7857C230.197 27.1429 229.839 27.5 229.304 27.6786C228.411 28.2143 227.697 28.9286 226.804 29.4643C226.804 29.4643 226.447 29.6429 226.268 29.6429C225.732 29.6429 225.375 30 225.018 30.1786C224.482 30.3571 223.947 30.7143 223.411 30.8928C222.875 31.0714 222.339 31.25 221.804 31.4286C221.625 31.4286 221.447 31.0714 221.268 31.0714C220.554 30.8929 220.018 30.3571 219.304 29.8214C218.589 29.1071 218.411 28.3929 218.054 27.5C217.518 26.25 217.161 26.25 216.804 25C216.804 24.6429 216.625 23.3929 216.447 22.6786C216.447 22.3214 216.447 21.9643 216.447 21.7857C216.625 20.5357 216.982 19.4643 217.697 18.5714C218.411 17.6786 219.661 17.3214 221.268 17.3214C222.875 17.3214 223.232 17.5 223.947 17.8571C224.304 18.0357 224.482 18.2143 224.661 18.5714C224.661 18.5714 224.839 18.9286 225.018 18.9286C225.375 19.4643 225.375 19.8214 225.375 19.8214H225.911L230.732 19.4643C230.732 19.1071 230.554 17.3214 229.304 15.7143C228.054 14.1071 225.911 12.1429 221.447 12.1429C216.982 12.1429 215.911 13.0357 214.125 15C210.911 18.3929 211.089 23.75 211.268 26.25C211.268 26.6071 211.268 26.9643 211.268 27.1429C211.268 27.1429 211.268 27.1429 211.268 27.3214C211.268 28.0357 211.625 28.75 211.804 29.4643C211.804 29.4643 211.804 29.6429 211.982 29.8214C211.982 30.1786 212.339 30.3571 212.518 30.7143C212.875 31.0714 212.875 31.6071 213.054 31.9643C213.411 32.5 213.768 33.2143 213.947 33.75C214.125 34.1071 214.482 34.6429 214.661 35C214.661 35.3571 215.018 35.5357 215.197 35.7143C215.375 36.0714 215.732 36.4286 216.089 36.6071C216.447 36.6071 216.804 36.9643 216.982 37.1428C217.518 37.5 217.875 37.8571 218.589 37.8571C218.589 37.8571 218.947 37.8571 219.125 37.8571C219.661 38.2143 220.197 38.5714 220.732 38.5714C221.268 38.5714 221.625 39.1071 222.339 38.5714H222.697C223.054 38.5714 223.232 38.9286 223.589 38.9286C223.589 38.9286 223.589 39.2857 223.947 39.4643C223.947 39.2857 224.304 39.1071 224.304 38.9286C224.304 38.3928 224.661 37.8571 224.839 37.3214C224.839 37.1428 224.839 36.9643 225.018 36.7857C225.197 36.4286 225.554 36.0714 225.375 35.5357V35.1786C225.732 34.8214 226.268 34.2857 226.625 33.9286C226.804 33.75 226.982 33.5714 227.339 33.2143C226.982 33.2143 226.804 33.2143 226.625 33.3929C226.447 33.3929 226.268 33.3929 226.089 33.3929C226.089 33.3929 226.268 33.0357 226.447 32.8571C226.804 32.3214 226.982 31.7857 227.697 31.4286C227.697 31.25 228.054 31.0714 228.411 31.25C228.411 30.8929 228.411 30.7143 228.589 30.5357C228.589 30.5357 228.589 30.1786 228.947 30.3571C228.947 30.3571 228.947 30.1786 229.304 30C229.482 30 229.661 29.6429 230.018 29.6429C230.018 29.6429 230.197 29.4643 230.375 29.2857C230.554 29.2857 230.554 28.9286 230.732 28.75C230.732 28.3929 231.089 28.0357 231.447 27.8571C231.982 27.5 232.518 27.3214 232.518 26.6071C232.518 26.6071 232.518 26.6071 232.518 26.4286C232.339 26.4286 232.339 26.0714 232.518 25.8929C232.518 25.8929 232.697 25.8929 232.875 25.8929C232.875 26.0714 232.875 26.25 232.875 26.25C232.875 26.0714 232.875 25.7143 232.875 25.5357C233.054 25.5357 233.411 25.5357 233.411 25.3571C233.411 25.3571 233.768 25 233.768 24.8214C233.768 24.6429 233.411 24.1071 233.232 23.9286" fill="#0F2350"/>
<path d="M229.125 32.8571C229.304 32.8571 229.661 32.8571 229.661 32.3214C229.304 32.5 229.125 32.6786 228.947 32.8571H229.125Z" fill="#0F2350"/>
<path d="M230.018 32.3214C230.256 32.2024 230.375 32.0238 230.375 31.7857C230.375 31.7857 230.018 32.1429 229.839 32.1429" fill="#0F2350"/>
<path d="M229.661 31.0714C229.661 31.0714 229.482 31.4286 229.304 31.4286C229.482 31.4286 229.661 31.4286 229.661 31.0714Z" fill="#0F2350"/>
<path d="M228.411 31.7857C228.411 31.7857 228.411 31.9643 228.232 32.1429C228.232 32.1429 228.232 32.1429 228.411 31.7857Z" fill="#0F2350"/>
<path d="M228.768 31.9643C228.947 31.9643 229.125 31.9643 229.125 31.6071C229.125 31.6071 228.947 31.7857 228.768 31.9643Z" fill="#0F2350"/>
<path d="M102.34 29.8214V17.5H96.9824V23.2143V23.5714C96.2681 25.3571 95.3753 27.1429 94.1253 28.75C93.5896 29.6429 92.6967 30.1786 91.9824 30.8929C91.9824 30.8929 91.8039 30.8929 91.6253 30.8929C91.6253 30.8929 90.911 30.8929 90.5539 30.5357C90.5539 30.5357 90.3753 30.3571 90.1967 30.1786C89.8396 29.8214 89.8396 29.1071 89.3039 28.9286C89.3039 28.75 89.3039 28.3929 89.3039 28.2143C89.3039 27.6786 88.9467 27.1429 88.9467 26.6071C88.9467 25.8929 88.9467 25.1786 88.9467 24.6429C88.9467 24.4643 88.9467 24.2857 88.9467 24.1071C88.9467 23.9286 89.3039 23.75 89.4824 23.3929C90.0181 22.8571 90.5539 22.3214 90.3753 21.25C90.3753 20.8929 90.1967 20.7143 90.0181 20.3571C89.8396 20 89.4824 20 89.1253 20C88.411 20 87.8753 19.6429 87.8753 19.1071C87.8753 18.5714 87.6967 18.0357 87.5181 17.5C87.5181 17.5 87.5181 17.3214 87.3396 17.1429C86.9824 16.7857 86.6253 16.4286 86.4467 16.25C86.0896 16.6071 85.7324 16.9643 85.3753 17.3214C84.8396 17.6786 84.4824 18.3929 84.3039 18.9286C83.9467 19.8214 83.2324 20.3571 82.3396 20.3571C81.9824 20.3571 81.8039 20.3571 81.6253 20.7143C81.6253 20.7143 81.4467 20.8929 81.2681 21.0714C80.7324 21.25 80.7324 21.4286 80.911 21.9643C81.4467 21.7857 81.6253 21.9643 81.8039 22.3214C82.161 22.6786 82.3396 23.2143 82.6967 23.5714C82.6967 23.75 82.8753 23.9286 82.8753 24.1071C83.0539 25.1786 83.2324 26.0714 83.411 27.1429C83.411 27.5 83.411 27.6786 83.411 28.0357C83.411 28.3929 83.411 28.9286 83.411 29.2857C83.5896 30.1786 83.9467 30.8929 84.1253 31.7857C84.1253 32.3214 84.3039 32.6786 84.4824 33.2143C84.661 33.9286 84.661 34.8214 85.5539 35.3571C85.911 35.5357 86.0896 36.0714 86.2681 36.4286C86.2681 36.4286 86.6253 36.7857 86.6253 36.9643C87.161 38.0357 87.8753 38.75 88.7681 39.4643C88.9467 39.4643 89.1253 40 89.4824 40C90.0181 40 91.8039 40.7143 92.5181 40.5357C92.5181 40.5357 92.5181 40.5357 92.6967 40.5357C96.2681 40.5357 98.411 38.9286 99.661 37.6786C102.518 34.6429 102.518 30.5357 102.518 29.6429M94.4824 32.8571C95.0181 31.7857 95.5539 30.7143 95.911 29.6429C96.2681 28.3929 96.8039 27.1429 97.161 25.8929V29.6429C97.161 30.3571 97.161 32.5 95.7324 33.9286C95.5539 33.9286 95.1967 33.9286 95.0181 33.75C94.8396 33.75 94.661 33.5714 94.3039 33.3929C94.3039 33.0357 94.3039 32.8571 94.4824 32.5" fill="#0F2350"/>
<path d="M12.6966 26.0714V26.25C12.6966 26.25 12.6966 26.25 12.5181 26.4286C12.5181 26.4286 12.5181 26.7857 12.5181 26.9643C12.5181 26.6071 12.6966 26.25 12.8752 25.8929" fill="#E0E0DD"/>
<path d="M13.2322 24.6429C13.2322 24.6429 13.0536 24.6429 13.2322 25C13.2322 25 13.2322 24.8214 13.4108 24.6429" fill="#E0E0DD"/>
<path d="M13.7681 23.75C13.5896 23.9286 13.411 24.1071 13.2324 24.4643C13.7681 24.4643 13.5896 23.9286 13.7681 23.75Z" fill="#E0E0DD"/>
<path d="M12.6966 25.8929C12.6966 25.8929 12.6966 25.7143 12.6966 25.5357C12.6966 25.5357 12.6966 25.5357 12.5181 25.5357" fill="#E0E0DD"/>
<path d="M12.6968 25C12.6968 25 12.6968 25 12.6968 25.1786H13.0539C13.0539 25.1786 13.0539 24.8214 12.6968 25Z" fill="#E0E0DD"/>
<path d="M15.0183 20.7143C15.0183 20.8929 14.8397 21.0714 14.6611 21.4286C14.8397 21.4286 15.0183 21.4286 15.0183 20.7143Z" fill="#E0E0DD"/>
<path d="M15.3751 20C15.1966 20 15.1966 20.1786 15.3751 20.3571C15.5537 20.3571 15.7323 20.1786 15.3751 20Z" fill="#E0E0DD"/>
<path d="M17.3394 16.7857C17.3394 16.7857 17.3394 16.7857 17.5179 16.6071C17.5179 16.6071 17.5179 16.6071 17.3394 16.6071C17.3394 16.6071 17.3394 16.6071 17.3394 16.7857Z" fill="#E0E0DD"/>
<path d="M16.8036 18.0357C16.4465 18.0357 16.2679 18.0357 16.2679 18.3929C16.2679 18.5714 16.2679 18.75 16.0894 18.9286C16.2679 18.5714 16.4465 18.3929 16.8036 18.0357Z" fill="#E0E0DD"/>
<path d="M14.3041 22.5C14.185 22.5 14.1255 22.5595 14.1255 22.6786C14.1255 22.6786 14.1255 22.6786 14.3041 22.5Z" fill="#E0E0DD"/>
<path d="M12.3396 27.5C12.3396 27.5 12.161 27.6786 12.3396 27.8571C12.3396 27.8571 12.3396 27.8571 12.3396 27.6786" fill="#E0E0DD"/>
<path d="M26.8039 33.0357C26.4467 33.0357 26.0896 33.0357 25.7324 33.3928C25.7324 33.3928 26.0896 33.3928 26.0896 33.5714C26.0896 33.5714 26.0896 33.5714 26.0896 33.3928C26.2681 33.3928 26.4467 33.2143 26.6253 33.0357" fill="#E0E0DD"/>
<path d="M43.9465 23.0357C43.7679 22.5 43.5894 21.9643 43.0536 21.6071C42.6965 21.0714 42.1608 20.7143 41.6251 20.5357C41.6251 20.5357 41.6251 20.5357 41.4465 20.5357C41.2679 20.5357 41.0894 20.1786 40.9108 20C40.5536 19.6429 40.0179 19.4643 39.6608 19.2857C39.4822 19.2857 39.1251 19.1072 38.9465 18.9286C38.5894 18.75 38.4108 18.5714 38.0536 18.3929C37.6965 18.2143 37.3394 17.8571 36.9822 17.6786C36.6251 17.5 36.4465 17.3214 36.0894 17.1429C35.7322 17.1429 35.3751 17.1429 35.0179 17.3214C35.0179 17.3214 34.8394 17.6786 34.6608 17.8571C34.6608 17.8571 34.6608 17.8571 34.4822 17.8571C34.1251 17.8571 34.1251 17.8571 34.1251 18.2143C34.1251 18.3929 34.1251 18.5714 34.1251 18.75C34.1251 18.9286 34.1251 19.1071 33.7679 19.1071C33.5894 19.1071 33.4108 19.1071 33.2322 19.1071C33.2322 19.1071 33.0536 19.1071 32.8751 19.2857C32.6965 19.2857 32.5179 19.2857 32.3394 19.2857C31.9822 19.2857 31.6251 19.6429 31.0894 19.6429C31.0894 19.6429 31.0894 19.6429 30.9108 19.6429C30.9108 19.6429 30.9108 19.6429 30.7322 19.6429H30.5536C30.3751 19.8214 29.8394 19.6429 29.8394 20.1786C29.8394 20.1786 29.8394 20.1786 29.6608 20.1786C29.4822 20.1786 29.3036 20.1786 29.1251 20.5357V12.3214C29.1251 12.3214 29.1251 12.1429 29.3036 12.1429C29.1251 11.7857 29.1251 11.6071 29.3036 11.25C29.3036 10.8929 29.4822 10.3571 29.6608 9.82143C29.6608 9.46429 29.6608 9.28572 29.6608 8.92858C29.6608 8.75001 29.6608 8.39286 29.6608 8.21429C29.6608 7.67858 29.6608 7.14286 29.1251 6.78572C28.9465 6.42858 28.5894 6.25001 28.4108 5.71429C28.2322 5.53572 28.0536 5.35715 27.8751 5.17858C27.8751 5.17858 27.5179 5.00001 27.3394 5.00001C27.1608 5.00001 26.9822 5.00001 26.8036 5.00001C26.4465 5.00001 26.0894 5.00001 25.7322 5.00001C25.7322 5.00001 25.5536 5.00001 25.3751 5.00001C25.1965 5.00001 24.8394 5.00001 24.6608 5.00001C24.6608 5.00001 24.6608 5.00001 24.4822 5.00001C24.1251 4.82144 23.9465 4.64286 23.5894 4.46429C23.2322 4.28572 22.6965 4.10715 22.3394 4.64286C22.3394 4.82143 21.9822 5.00001 21.9822 5.17858C21.8036 5.35715 21.6251 5.71429 21.6251 6.07144C21.6251 6.60715 21.6251 7.32144 21.6251 7.85715C21.6251 7.85715 21.6251 8.03572 21.6251 8.21429C21.8036 8.75001 21.6251 9.46429 21.6251 10V10.3571C21.4465 10.5357 21.2679 10.8929 21.0894 11.25C21.0894 11.4286 20.7322 11.7857 20.5536 12.1429C20.5536 12.1429 20.5536 12.1429 20.3751 12.1429C20.3751 12.5 20.1965 12.6786 19.8394 13.0357C19.8394 13.0357 19.4822 13.3929 19.8394 13.5714C19.8394 13.5714 19.8394 13.5714 19.8394 13.75C19.6608 14.1071 19.3036 14.6429 19.1251 15C19.1251 15 18.9465 15.3571 19.1251 15.5357C19.4822 15.5357 19.4822 15.5357 19.4822 15.3571C19.4822 15.1786 19.6608 15 20.0179 14.8214C19.8394 15.1786 19.6608 15.5357 19.4822 16.0714C19.4822 16.4286 19.3036 16.6071 18.9465 16.9643C18.7679 17.1429 18.5894 17.5 18.4108 17.6786C18.4108 17.8571 18.2322 18.2143 18.0536 18.3929C17.8751 18.5714 17.6965 18.9286 17.5179 19.1071C17.3394 19.4643 17.1608 19.8214 16.9822 20.3571C16.9822 20.3571 16.9822 20.5357 16.9822 20.7143V21.0714C16.9822 21.25 16.6251 21.6071 16.6251 21.9643C16.6251 22.1429 16.4465 22.3214 16.2679 22.6786C16.0894 23.0357 15.9108 23.5714 15.7322 23.9286C15.7322 23.9286 15.7322 24.2857 15.5536 24.4643C15.5536 24.4643 15.5536 24.6429 15.5536 24.8214C15.5536 24.8214 15.5536 24.8214 15.5536 25C15.5536 25.1786 15.3751 25.3571 15.3751 25.5357C15.3751 25.8929 15.0179 26.0714 15.0179 26.4286C14.8394 26.4286 15.0179 26.7857 14.8394 26.9643C14.8394 26.9643 14.8394 26.9643 14.8394 27.1429C14.8394 27.3214 14.4822 27.6786 14.4822 27.8571C14.4822 28.0357 14.4822 28.2143 14.3036 28.2143C14.3036 28.2143 14.1251 28.2143 13.9465 28.0357C13.9465 28.0357 13.5894 28.0357 13.5894 28.3929C13.4108 28.75 13.2322 29.2857 13.0536 29.6429C12.8751 30.1786 12.6965 30.5357 12.3394 31.0714C12.3394 31.0714 12.1608 31.0714 11.9822 31.4286C11.9822 31.7857 11.8036 31.9643 11.4465 31.9643C11.4465 32.1429 11.4465 32.3214 11.4465 32.5C11.4465 32.8571 11.4465 33.2143 11.4465 33.5714C11.4465 33.5714 11.6251 33.75 11.6251 33.9286C11.6251 34.1071 11.8036 34.4643 11.9822 34.6429C12.3394 34.6429 12.5179 34.6429 12.6965 35C12.6965 35.3571 13.0536 35.5357 13.4108 35.7143C13.4108 36.0714 13.7679 36.0714 13.9465 36.0714C14.1251 36.0714 14.3036 36.0714 14.4822 36.0714C14.8394 36.0714 15.0179 36.0714 15.1965 35.7143C15.5536 35.7143 15.7322 35.7143 16.0894 35.3571C16.0894 35.1786 16.4465 34.8214 16.6251 34.6429C16.6251 34.6429 16.8036 34.2857 16.9822 34.2857C16.9822 34.2857 17.1608 33.9286 17.3394 33.9286C17.6965 33.2143 17.8751 32.5 18.2322 31.9643C18.4108 31.4286 18.7679 30.7143 18.9465 30.1786C18.9465 30.1786 19.1251 29.8214 19.1251 29.6429C19.1251 29.2857 19.3036 29.1071 19.6608 29.1071C19.8394 29.1071 20.0179 29.1071 20.1965 29.1071C20.5536 29.2857 20.9108 29.4643 21.2679 29.1071C21.4465 28.9286 21.8036 28.75 21.9822 28.5714C22.1608 28.3929 22.5179 28.2143 22.6965 28.2143C23.2322 28.2143 23.7679 28.2143 24.3036 28.2143C24.6608 28.2143 24.8394 28.2143 25.1965 28.5714C25.1965 28.5714 25.1965 28.5714 25.3751 28.5714V30.7143H30.3751V25H30.7322C30.7322 25 30.9108 25 31.0894 24.8214C31.0894 24.8214 31.2679 24.8214 31.4465 24.6429C31.4465 24.6429 31.6251 24.2857 31.9822 24.6429C31.9822 24.4643 31.9822 24.1071 32.3394 24.1071C32.3394 24.1071 32.3394 23.9286 32.5179 23.75C32.5179 23.75 32.5179 23.5714 32.8751 23.5714C33.0536 23.5714 33.2322 23.3929 33.4108 23.3929C33.4108 23.3929 33.5894 23.2143 33.9465 23.3929C33.9465 23.5714 33.9465 23.9286 33.9465 24.1071C33.7679 25 33.5894 25.7143 33.5894 26.6071C33.7679 26.9643 33.5894 27.1429 33.5894 27.3214C33.5894 27.3214 33.5894 27.3214 33.4108 27.3214C33.4108 27.3214 33.4108 27.3214 33.5894 27.3214V27.5C33.2322 27.5 33.4108 27.8571 33.4108 28.0357C33.4108 28.75 33.4108 29.2857 33.4108 30C33.4108 30 33.4108 30.1786 33.5894 30.1786V30.3571C33.7679 30.7143 33.5894 30.5357 33.5894 30.7143C33.5894 30.7143 33.7679 30.7143 33.9465 30.8929C33.9465 31.0714 33.5894 31.4286 33.9465 31.7857C33.9465 31.7857 33.9465 31.7857 33.9465 31.9643C33.9465 31.9643 33.9465 32.1429 33.9465 32.3214V32.6786C33.9465 32.6786 33.7679 32.6786 33.9465 33.0357C33.9465 33.2143 33.9465 33.5714 33.9465 33.75C33.9465 33.9286 33.9465 34.1071 33.7679 34.2857C33.7679 34.2857 33.7679 34.6429 33.7679 34.8214C33.7679 35.1786 33.5894 35.1786 33.4108 35.5357C33.4108 35.5357 33.4108 35.5357 33.5894 35.5357C33.5894 35.5357 33.5894 35.5357 33.5894 35.7143C33.2322 35.7143 33.4108 35.7143 33.2322 35.8929C33.2322 35.8929 33.2322 35.8929 33.4108 35.8929C33.4108 35.8929 33.4108 36.0714 33.4108 36.25C33.4108 36.25 33.4108 36.25 33.2322 36.25C33.2322 36.25 33.0536 36.25 32.8751 36.4286C32.8751 36.4286 33.0536 36.4286 33.2322 36.4286H33.0536C33.2322 36.7857 33.0536 36.4286 32.8751 36.6071C32.8751 36.6071 32.8751 36.9643 32.5179 36.9643C32.5179 37.3214 31.9822 37.5 31.8036 37.8571C31.6251 38.0357 31.2679 38.2143 31.0894 38.3929C30.9108 38.3929 30.7322 38.75 30.1965 38.75C30.1965 38.75 30.1965 38.75 30.1965 38.9286C29.7203 38.8095 29.4227 38.8095 29.3036 38.9286C29.3036 38.9286 29.3036 38.9286 29.3036 39.2857C28.7679 39.2857 28.4108 39.2857 27.8751 39.2857C27.8751 39.2857 27.8751 39.4643 28.0536 39.6429C27.8751 39.6429 27.5179 39.6429 27.3394 39.2857H27.1608H26.6251C26.2679 39.2857 25.7322 38.9286 25.3751 38.75C25.3751 38.75 25.0179 38.75 25.0179 38.3929C25.0179 38.3929 24.8394 38.0357 24.6608 38.0357C24.1251 37.8571 24.1251 37.5 24.1251 37.1429C24.1251 36.25 24.1251 35.5357 24.6608 35C24.6608 34.8214 25.0179 34.4643 25.1965 34.2857C25.3751 33.9286 25.7322 33.5714 26.0894 33.3929C26.0894 33.2143 26.4465 33.0357 26.6251 32.8571C26.8036 32.6786 26.9822 32.5 27.3394 32.5C27.3394 32.5 27.3394 32.5 27.5179 32.5C27.6965 32.5 27.6965 32.5 27.8751 32.5C28.2322 32.3214 28.4108 32.1429 28.7679 31.9643C28.9465 31.9643 29.3036 31.9643 29.4822 31.6071C30.0179 31.4286 30.3751 31.0714 30.7322 30.8929C30.3751 30.8929 30.0179 30.8929 29.8394 31.0714C29.8394 31.0714 29.6608 31.0714 29.4822 31.0714C29.3036 31.0714 29.1251 31.0714 28.7679 31.0714C28.5894 31.0714 28.2322 31.0714 28.0536 31.25C28.0536 31.25 27.8751 31.25 27.6965 31.25C27.6965 31.25 27.8751 31.0714 28.0536 31.0714C28.0536 31.0714 28.0536 30.8929 28.2322 30.7143H27.8751C27.8751 30.7143 27.6965 30.7143 27.5179 30.7143H27.3394C26.8036 30.7143 26.4465 31.0714 25.9108 31.25C25.9108 31.6071 25.3751 31.25 25.3751 31.6071C25.3751 31.6071 25.3751 31.6071 25.1965 31.6071C25.1965 31.6071 25.0179 31.7857 24.8394 31.9643C24.8394 31.9643 24.4822 31.9643 24.4822 32.3214C24.3036 32.3214 24.3036 32.3214 24.1251 32.3214C24.1251 32.3214 24.1251 32.3214 23.9465 32.5C23.9465 32.5 23.7679 32.6786 23.7679 32.8571C23.7679 33.0357 23.7679 33.2143 23.2322 33.2143C23.2322 33.3929 23.0536 33.75 22.8751 33.9286C22.8751 33.9286 22.6965 34.2857 22.5179 34.2857C22.3394 34.2857 22.1608 34.4643 22.1608 34.6429C21.8036 34.4643 21.8036 34.8214 21.4465 34.6429C21.4465 34.6429 21.4465 34.4643 21.4465 34.2857C21.4465 34.6429 21.0894 35 20.7322 35.3571C20.5536 35.3571 20.5536 35.3571 20.3751 35.5357C20.3751 35.5357 20.3751 35.5357 20.0179 35.5357C20.0179 35.5357 19.8394 35.5357 19.6608 35.5357C19.6608 35.5357 19.4822 35.8929 19.3036 35.8929C19.3036 35.8929 19.3036 35.8929 19.3036 36.0714C19.3036 36.4286 19.4822 36.7857 19.6608 37.1429C19.8394 37.5 20.1965 37.8571 20.3751 38.2143C20.7322 38.75 21.0894 39.1071 21.6251 39.4643C21.8036 39.4643 22.1608 39.8214 22.3394 40C22.6965 40.3571 23.0536 40.7143 23.2322 41.0714C23.2322 41.0714 23.4108 41.0714 23.5894 41.25C23.5894 41.25 23.9465 41.25 24.1251 41.4286C24.4822 41.6071 24.8394 41.7857 25.1965 41.9643C25.3751 41.9643 25.5536 42.1429 25.7322 42.3214C25.7322 42.3214 25.9108 42.3214 26.0894 42.3214C26.2679 42.3214 26.6251 42.3214 26.8036 42.5C26.9822 42.5 27.1608 42.5 27.3394 42.6786C27.3394 42.6786 27.5179 42.6786 27.6965 42.6786C28.0536 42.6786 28.2322 42.6786 28.5894 42.6786H28.9465H29.3036C29.6608 42.6786 29.8394 42.8571 30.0179 42.6786C30.3751 42.6786 30.5536 42.6786 30.9108 42.6786C30.9108 42.6786 30.9108 42.5 31.0894 42.5C31.2679 42.5 31.4465 42.5 31.4465 42.1429C31.4465 42.1429 31.6251 42.3214 31.8036 42.3214C31.8036 42.3214 31.8036 42.3214 31.6251 42.1429H31.8036C31.8036 41.9643 32.1608 42.1429 32.3394 42.1429C32.3394 42.1429 32.3394 42.1429 32.3394 41.9643C32.6965 41.9643 32.8751 41.9643 33.0536 41.9643V41.7857C33.4108 41.7857 33.5894 41.4286 33.7679 41.4286C33.9465 41.4286 34.1251 41.25 34.3036 41.0714C34.3036 41.0714 34.3036 40.7143 34.6608 40.7143C34.6608 40.3571 35.0179 40.1786 35.1965 39.8214C35.3751 39.4643 35.5536 39.1071 35.9108 38.75C35.9108 38.3929 36.0894 38.0357 36.2679 37.6786C36.2679 37.5 36.2679 37.3214 36.2679 37.1429C36.2679 36.4286 36.4465 35.8929 36.4465 35.1786C36.4465 34.8214 36.4465 34.4643 36.4465 33.9286C36.4465 33.5714 36.4465 33.0357 36.4465 32.6786C36.4465 32.3214 36.8036 31.7857 36.8036 31.4286C36.8036 31.0714 36.8036 30.8929 36.8036 30.5357C36.8036 30 36.9822 29.6429 37.1608 29.1071C37.1608 28.75 37.1608 28.5714 37.3394 28.2143C37.5179 27.6786 37.6965 27.3214 38.0536 26.9643C38.4108 26.4286 38.7679 25.8929 38.9465 25.1786C39.1251 24.4643 39.8394 24.1071 40.1965 23.5714C40.3751 23.5714 40.5536 23.2143 40.7322 23.0357C40.7322 23.0357 41.0894 22.8571 41.2679 22.6786C41.8036 22.6786 42.5179 22.5 43.0536 22.3214C43.4108 22.3214 43.7679 22.3214 44.1251 21.9643C44.1251 21.9643 44.1251 21.9643 44.3036 21.9643C44.6608 21.9643 45.0179 21.7857 45.1965 21.6071C45.3751 21.6071 45.5536 21.0714 45.1965 20.7143M11.8036 29.4643C11.4465 29.4643 11.4465 29.8214 11.4465 30.1786C11.2679 30.1786 11.2679 30.5357 11.0894 30.7143C11.0894 30.7143 11.0894 30.5357 11.0894 30.3571C11.2679 29.8214 11.4465 29.4643 11.6251 28.9286C11.6251 28.75 11.8036 28.5714 12.1608 28.3929C12.1608 28.75 12.1608 28.9286 11.9822 29.2857M23.5894 27.5C23.2322 27.5 22.6965 27.5 22.3394 27.5C21.9822 27.5 21.8036 27.5 21.4465 27.5C21.0894 27.5 20.9108 27.5 20.7322 27.1429C20.7322 27.1429 20.5536 27.1429 20.3751 26.9643C20.3751 26.6071 22.3394 25.7143 23.5894 25.7143V27.5ZM23.5894 21.6071C23.5894 21.6071 23.5894 21.6071 23.5894 21.7857V23.2143C23.2322 23.3929 22.8751 23.3929 22.3394 23.5714C21.9822 23.5714 21.6251 23.5714 21.4465 23.9286C21.4465 23.9286 21.4465 23.9286 21.2679 23.9286C20.7322 23.9286 20.1965 24.4643 19.6608 24.4643C19.6608 24.4643 19.4822 24.4643 19.3036 24.8214V24.6429C19.6608 24.4643 19.8394 23.9286 20.0179 23.5714C20.0179 23.5714 20.0179 23.3929 20.1965 23.2143C20.1965 23.2143 20.3751 22.8571 20.5536 22.8571C20.5536 22.6786 20.9108 22.5 21.0894 22.3214C21.4465 21.9643 21.6251 21.6071 21.9822 21.25C21.9822 21.0714 22.3394 20.8929 22.5179 20.7143C22.5179 21.0714 22.1608 21.25 21.9822 21.6071C21.9822 21.9643 21.6251 22.1429 21.6251 22.5C22.1608 21.6071 22.8751 20.7143 23.4108 19.6429C23.5894 19.6429 23.7679 19.8214 23.7679 20V21.6071H23.5894ZM25.5536 32.5V32.6786C25.5536 32.5 25.5536 32.5 25.5536 32.5Z" fill="#E0E0DD"/>
<path d="M23.2326 19.6429C22.6969 20.5357 21.9826 21.4286 21.4469 22.5C21.4469 22.1429 21.8041 21.7857 21.8041 21.6071C21.8041 21.25 22.1612 20.8929 22.3398 20.7143C22.3398 20.8929 21.9826 21.0714 21.8041 21.25C21.6255 21.6071 21.2683 21.9643 20.9112 22.3214C20.9112 22.5 20.5541 22.6786 20.3755 22.8571C20.3755 22.8571 20.3755 23.2143 20.0183 23.2143C20.0183 23.2143 20.0183 23.3929 19.8398 23.5714C19.6612 23.9286 19.4826 24.4643 19.1255 24.6429C19.1255 24.6429 19.1255 24.6429 19.1255 24.8214C19.3041 24.8214 19.4826 24.6429 19.4826 24.4643C20.0183 24.4643 20.3755 23.9286 21.0898 23.9286C21.0898 23.9286 21.0898 23.9286 21.2683 23.9286C21.6255 23.9286 21.8041 23.75 22.1612 23.5714C22.5183 23.5714 23.0541 23.5714 23.4112 23.2143V21.7857C23.4112 21.7857 23.4112 21.7857 23.4112 21.6071V20C23.4112 20 23.4112 19.8214 23.0541 19.6429" fill="#0F2350"/>
<path d="M11.6251 29.1071C11.4465 29.6429 11.2679 30 11.0894 30.5357C11.0894 30.5357 11.0894 30.7143 11.0894 30.8929C11.2679 30.8929 11.0894 30.5357 11.4465 30.3571C11.4465 30 11.4465 29.8214 11.8036 29.6429C11.8036 29.2857 12.1608 29.1071 11.9822 28.75C11.6251 28.75 11.6251 29.1071 11.4465 29.2857" fill="#0F2350"/>
<path d="M20.3755 27.1429C20.3755 27.1429 20.5541 27.3214 20.7326 27.3214C20.9112 27.3214 21.0898 27.6786 21.4469 27.6786C21.8041 27.6786 21.9826 27.6786 22.3398 27.6786C22.6969 27.6786 23.2326 27.6786 23.5898 27.6786V25.8929C22.5183 25.8929 20.5541 26.7857 20.3755 27.1429Z" fill="#0F2350"/>
<path d="M25.5539 32.5C25.3753 32.5 25.3753 32.5 25.5539 32.6786C25.5539 32.6786 25.5539 32.6786 25.5539 32.5Z" fill="#B7282E"/>
<path d="M25.7324 0C11.9824 0 0.732422 11.25 0.732422 25C0.732422 38.75 11.9824 50 25.7324 50C39.4824 50 50.7324 38.75 50.7324 25C50.7324 11.25 39.4824 0 25.7324 0ZM17.3396 16.4286C17.3396 16.4286 17.3396 16.4286 17.3396 16.6071C17.3396 16.6071 17.3396 16.6071 17.5181 16.6071C17.5181 16.6071 17.5181 16.7857 17.3396 16.7857C17.3396 16.7857 17.3396 16.7857 17.3396 16.6071V16.4286ZM16.2681 18.3929C16.2681 18.2143 16.4467 18.0357 16.8039 18.0357C16.6253 18.3929 16.2681 18.75 16.0896 18.9286C16.0896 18.9286 16.2681 18.5714 16.2681 18.3929ZM15.3753 20C15.3753 20.1786 15.3753 20.3571 15.3753 20.3571V20ZM15.0181 20.7143C15.0181 21.25 15.0181 21.25 14.661 21.4286C14.661 21.25 14.8396 21.0714 15.0181 20.7143ZM14.3039 22.5C14.3039 22.5 14.3039 22.6786 14.1253 22.6786C14.1253 22.5595 14.1848 22.5 14.3039 22.5ZM13.7681 23.75C13.7681 23.9286 13.7681 24.2857 13.2324 24.4643C13.411 24.2857 13.5896 23.9286 13.7681 23.75ZM13.0539 24.6429C13.0539 24.6429 13.0539 24.8214 12.8753 25C12.8753 24.8214 12.8753 24.8214 12.8753 24.6429M12.6967 25C12.6967 25 12.8753 25 13.0539 25.1786H12.6967C12.6967 25.1786 12.6967 25.1786 12.6967 25ZM12.6967 25.7143C12.6967 25.7143 12.6967 25.7143 12.8753 25.7143C12.8753 25.7143 12.8753 25.7143 12.8753 26.0714M12.161 26.6071C12.161 26.6071 12.3396 26.6071 12.3396 26.4286C12.3396 26.4286 12.3396 26.4286 12.3396 26.25C12.3396 26.6071 12.161 26.9643 11.9824 27.3214C11.8039 27.1429 11.8039 26.9643 11.9824 26.7857M12.161 27.3214C12.161 27.3214 12.161 27.3214 12.161 27.5C12.161 27.3214 12.161 27.1429 12.161 27.1429M43.7681 23.9286C43.411 24.1071 43.2324 24.4643 42.8753 24.2857C42.8753 24.2857 42.8753 24.2857 42.6967 24.2857C42.3396 24.4643 41.9824 24.6429 41.6253 24.6429C41.0896 24.6429 40.3753 24.8214 39.8396 25C39.661 25 39.4824 25 39.3039 25.3571C39.1253 25.5357 38.9467 25.7143 38.7681 25.8929C38.411 26.4286 37.6967 26.7857 37.5181 27.5C37.3396 28.2143 36.9824 28.75 36.6253 29.2857C36.4467 29.6429 36.0896 30.1786 35.911 30.5357C35.911 30.7143 35.911 31.0714 35.7324 31.4286C35.7324 31.9643 35.3753 32.3214 35.3753 32.8571C35.3753 33.2143 35.3753 33.3929 35.3753 33.75C35.3753 34.2857 35.1967 34.6429 35.0181 35C35.0181 35.3571 35.0181 35.8929 35.0181 36.25C35.0181 36.6071 35.0181 37.1429 35.0181 37.5C35.0181 38.2143 35.0181 38.75 34.8396 39.4643C34.8396 39.6429 34.8396 39.8214 34.8396 40C34.8396 40.3571 34.661 40.7143 34.4824 41.0714C34.1253 41.4286 34.1253 41.7857 33.7681 42.1429C33.5896 42.3214 33.411 42.6786 33.2324 43.0357C33.0539 43.0357 33.0538 43.2143 32.8753 43.3929C32.8753 43.3929 32.5181 43.5714 32.3396 43.75C32.161 43.75 31.9824 44.1071 31.6253 44.1071C31.6253 44.1071 31.6253 44.1071 31.6253 44.2857C31.6253 44.4643 31.0896 44.2857 30.911 44.2857C30.911 44.2857 30.911 44.2857 30.911 44.4643C30.7324 44.4643 30.5539 44.4643 30.3753 44.4643C30.3753 44.4643 30.3753 44.4643 30.1967 44.4643L30.3753 44.6429C30.3753 44.6429 30.1967 44.6429 30.0181 44.4643C30.0181 44.6429 29.8396 44.8214 29.661 44.8214C29.661 44.8214 29.661 44.8214 29.4824 45C29.1253 45 28.9467 45 28.5896 45C28.5896 45.3571 28.0539 45 27.8753 45H27.5181C27.5181 45 27.3396 45 27.161 45C26.8039 45 26.6253 45 26.2681 45C26.2681 45 26.0896 45 25.911 45C25.7324 44.8214 25.5539 44.8214 25.3753 44.8214C25.1967 44.8214 24.8396 44.8214 24.661 44.6429C24.661 44.6429 24.4824 44.6429 24.3039 44.6429C24.1253 44.6429 23.9467 44.4643 23.7681 44.2857C23.411 44.1071 23.0539 43.9286 22.6967 43.75C22.6967 43.75 22.3396 43.75 22.161 43.5714C22.161 43.5714 21.9824 43.5714 21.8039 43.3929C21.4467 43.0357 21.2681 42.6786 20.911 42.3214C20.7324 42.1429 20.5539 41.9643 20.1967 41.7857C19.661 41.4286 19.3039 40.8929 18.9467 40.5357C18.7681 40.1786 18.411 39.8214 18.2324 39.4643C18.2324 39.1071 18.0539 38.75 17.8753 38.3929C17.8753 38.3929 17.8753 38.3929 17.8753 38.2143C17.8753 38.2143 18.0539 37.8571 18.2324 37.8571C18.2324 37.8571 18.2324 37.8571 18.5896 37.8571C18.5896 37.8571 18.7681 37.8571 18.9467 37.8571C18.9467 37.8571 18.9467 37.6786 19.3039 37.6786C19.661 37.3214 19.8396 36.9643 20.0181 36.6071C20.0181 36.6071 20.0181 36.7857 20.0181 36.9643C20.3753 36.9643 20.3753 36.6071 20.7324 36.9643C20.7324 36.7857 20.911 36.6071 21.0896 36.6071C21.2681 36.6071 21.4467 36.4286 21.4467 36.25C21.4467 36.0714 21.6253 35.7143 21.8039 35.5357C22.161 35.5357 22.161 35.3571 22.3396 35.1786C22.3396 35.1786 22.3396 35 22.5181 34.8214C22.5181 34.8214 22.5181 34.8214 22.6967 34.6429C22.6967 34.6429 22.6967 34.2857 23.0539 34.6429C23.0539 34.4643 23.2324 34.4643 23.411 34.2857C23.411 34.2857 23.5896 34.1071 23.7681 33.9286C23.7681 33.9286 23.7681 33.9286 23.9467 33.9286C23.9467 33.75 24.4824 33.9286 24.4824 33.5714C25.0181 33.5714 25.3753 33.2143 25.911 33.0357C25.911 33.0357 25.911 33.0357 26.0896 33.0357C26.0896 33.0357 26.2681 33.0357 26.4467 33.0357C26.4467 33.0357 26.6253 33.0357 26.8039 33.0357C26.8039 33.0357 26.8039 33.2143 26.6253 33.3929C26.4467 33.3929 26.2681 33.3929 26.2681 33.5714C26.2681 33.5714 26.4467 33.5714 26.6253 33.5714C26.8039 33.5714 27.161 33.5714 27.3396 33.3929C27.6967 33.3929 27.8753 33.3929 28.0539 33.3929C28.0539 33.3929 28.2324 33.3929 28.411 33.3929C28.7681 33.3929 29.1253 33.3929 29.3039 33.2143C28.9467 33.3929 28.411 33.75 28.0539 33.9286C27.8753 33.9286 27.5181 33.9286 27.3396 34.2857C26.9824 34.2857 26.8039 34.6429 26.4467 34.8214C26.4467 34.8214 26.4467 35 26.0896 34.8214C26.0896 34.8214 26.0896 34.8214 25.911 34.8214C25.5539 34.8214 25.3753 35 25.1967 35.1786C25.1967 35.3571 24.661 35.3571 24.661 35.7143C24.1253 35.7143 23.9467 36.25 23.7681 36.6071C23.7681 36.7857 23.411 37.1429 23.2324 37.3214C22.8753 37.8571 22.5181 38.5714 22.6967 39.4643C22.6967 39.8214 22.6967 40.1786 23.2324 40.3571C23.2324 40.3571 23.411 40.5357 23.5896 40.7143C23.5896 40.8929 23.7681 40.8929 23.9467 41.0714C24.3039 41.0714 24.8396 41.4286 25.1967 41.6071H25.7324H25.911C26.0896 41.7857 26.2681 41.7857 26.6253 41.9643C26.6253 41.9643 26.6253 41.7857 26.4467 41.6071C26.9824 41.6071 27.3396 41.6071 27.8753 41.6071C27.8753 41.6071 27.8753 41.4286 27.8753 41.25C27.9943 41.131 28.2919 41.131 28.7681 41.25C28.7681 41.25 28.7681 41.25 28.7681 41.0714C29.1253 41.0714 29.3039 41.0714 29.661 40.7143C29.8396 40.7143 30.1967 40.3571 30.3753 40.1786C30.7324 40 30.911 39.8214 31.0896 39.2857C31.0896 39.2857 31.2681 39.1071 31.4467 38.9286C31.4467 38.9286 31.8038 38.9286 31.6253 38.75C31.6253 38.75 31.6253 38.75 31.8039 38.75C31.8039 38.75 31.6253 38.75 31.4467 38.75C31.4467 38.75 31.6253 38.75 31.8039 38.5714C31.8039 38.5714 31.8039 38.5714 31.9824 38.5714C31.9824 38.5714 31.9824 38.3929 31.9824 38.2143C31.9824 38.2143 31.9824 38.2143 31.8039 38.2143C31.8039 38.2143 31.8039 37.8571 32.161 38.0357C32.161 38.0357 32.161 38.0357 32.161 37.8571C32.161 37.8571 32.161 37.8571 31.9824 37.8571C31.9824 37.6786 32.3396 37.5 32.3396 37.1429C32.3396 36.9643 32.3396 36.6071 32.3396 36.6071C32.5181 36.6071 32.3396 36.25 32.5181 36.0714C32.5181 35.8929 32.5181 35.5357 32.5181 35.3571C32.161 35.3571 32.5181 35 32.5181 35C32.5181 35 32.5181 35 32.5181 34.6429C32.5181 34.6429 32.5181 34.4643 32.5181 34.2857V34.1071C32.3396 33.75 32.5181 33.5714 32.5181 33.2143C32.5181 33.2143 32.5181 33.2143 32.5181 33.0357C32.5181 33.0357 32.5181 33.0357 32.161 32.8571C32.161 32.8571 32.5181 32.8571 32.161 32.5C32.161 32.5 32.161 32.5 32.161 32.3214C32.161 32.3214 32.161 32.3214 31.9824 32.1429C31.9824 31.6071 31.9824 30.8929 31.9824 30.1786C31.9824 30 31.9824 29.6429 32.161 29.6429C32.161 29.6429 32.161 29.6429 32.161 29.4643C32.161 29.4643 32.161 29.4643 31.9824 29.4643C31.9824 29.4643 31.9824 29.4643 32.161 29.4643C32.161 29.2857 32.161 29.1071 32.161 28.75C32.161 27.8571 32.3396 26.9643 32.5181 26.25C32.5181 26.0714 32.5181 25.7143 32.5181 25.5357C32.3396 25.5357 32.161 25.5357 31.9824 25.5357C31.8039 25.5357 31.6253 25.7143 31.4467 25.7143C31.2681 25.7143 31.2681 25.7143 31.0896 25.8929C31.0896 25.8929 31.0896 26.0714 30.911 26.25C30.5538 26.25 30.5539 26.4286 30.5539 26.7857C30.1967 26.7857 30.1967 26.7857 30.0181 26.7857C30.0181 26.7857 29.8396 26.7857 29.661 26.9643C29.661 26.9643 29.4824 26.9643 29.3039 27.1429C29.3039 27.1429 29.1253 27.1429 28.9467 27.1429V32.8571H23.9467V30.7143C23.9467 30.7143 23.9467 30.7143 23.7681 30.7143C23.411 30.7143 23.2324 30.5357 22.8753 30.3571C22.3396 30.3571 21.8039 30.3571 21.2681 30.3571C20.911 30.3571 20.7324 30.3571 20.5539 30.7143C20.3753 30.8929 20.0181 31.0714 19.8396 31.25C19.4824 31.4286 19.1253 31.25 18.7681 31.25C18.5896 31.25 18.411 31.25 18.2324 31.25C17.8753 31.25 17.6967 31.25 17.6967 31.7857C17.6967 31.7857 17.6967 32.1429 17.5181 32.3214C17.3396 32.8571 17.161 33.5714 16.8039 34.1071C16.4467 34.8214 16.2681 35.5357 15.911 36.0714C15.911 36.0714 15.7324 36.4286 15.5539 36.4286C15.5539 36.4286 15.5539 36.7857 15.1967 36.7857C15.1967 36.9643 14.8396 37.3214 14.661 37.5C14.4824 37.8571 14.3039 38.0357 13.7681 37.8571C13.7681 38.0357 13.411 38.2143 13.0539 38.2143C13.0539 38.2143 12.6967 38.2143 12.5181 38.2143C12.5181 38.2143 11.9824 38.2143 11.9824 37.8571C11.6253 37.8571 11.4467 37.5 11.2681 37.1429C11.2681 36.7857 10.911 36.7857 10.5539 36.7857C10.5539 36.6071 10.3753 36.25 10.1967 36.0714C10.1967 36.0714 10.0181 35.8929 10.0181 35.7143C10.0181 35.3571 10.0181 35 10.0181 34.6429C10.0181 34.6429 10.0181 34.2857 10.0181 34.1071C10.1967 34.1071 10.5539 34.1071 10.5539 33.5714C10.5539 33.5714 10.911 33.5714 10.911 33.2143C11.0896 32.6786 11.4467 32.3214 11.6253 31.7857C11.6253 31.4286 11.9824 30.8929 12.161 30.5357C12.161 30.5357 12.3396 30.5357 12.5181 30.1786C12.5181 30.1786 12.6967 30.1786 12.8753 30.3571C12.8753 30.3571 12.8753 30.1786 13.0539 30C13.0539 29.6429 13.2324 29.4643 13.411 29.2857C13.411 29.2857 13.411 29.2857 13.411 29.1071C13.411 28.9286 13.411 28.75 13.5896 28.5714C13.5896 28.2143 13.7681 28.0357 13.9467 27.6786C13.9467 27.5 13.9467 27.3214 14.1253 27.1429C14.1253 27.1429 14.1253 27.1429 14.1253 26.9643V26.6071C14.1253 26.6071 14.3039 26.25 14.3039 26.0714C14.4824 25.7143 14.661 25.1786 14.8396 24.8214C14.8396 24.6429 15.0181 24.4643 15.1967 24.1071C15.1967 23.75 15.3753 23.5714 15.5539 23.2143V22.8571C15.5539 22.8571 15.5539 22.6786 15.5539 22.5C15.7324 22.1429 15.911 21.7857 16.0896 21.25C16.0896 20.8929 16.2681 20.7143 16.6253 20.5357C16.6253 20.5357 16.8039 20.1786 16.9824 19.8214C16.9824 19.6429 17.3396 19.2857 17.5181 19.1071C17.6967 18.9286 17.8753 18.5714 18.0539 18.2143C18.2324 17.8571 18.411 17.5 18.5896 16.9643C18.411 16.9643 18.2324 17.3214 18.0539 17.5C18.0539 17.5 18.0539 17.5 17.6967 17.6786C17.6967 17.5 17.6967 17.3214 17.6967 17.1429C17.8753 16.7857 18.2324 16.25 18.411 15.8929C18.411 15.8929 18.411 15.8929 18.411 15.7143C18.411 15.5357 18.411 15.3571 18.411 15.1786C18.7681 15 18.7681 14.6429 18.9467 14.2857C18.9467 14.2857 18.9467 14.2857 19.1253 14.2857C19.1253 13.9286 19.4824 13.75 19.661 13.3929C19.8396 13.0357 20.0181 12.8571 20.1967 12.5V12.1429C20.1967 11.6071 20.3753 10.8929 20.1967 10.3571C20.1967 10.3571 20.1967 10.1786 20.1967 10C20.1967 9.46429 20.1967 8.75 20.1967 8.21429C20.1967 7.85714 20.1967 7.5 20.5539 7.32143C20.5539 7.32143 20.911 6.96429 20.911 6.78571C21.2681 6.25 21.8039 6.25 22.161 6.60714C22.5181 6.78571 22.6967 6.96429 23.0539 7.14286C23.0539 7.14286 23.0539 7.14286 23.2324 7.14286C23.411 7.14286 23.7681 7.14286 23.9467 7.14286C23.9467 7.14286 24.1253 7.14286 24.3039 7.14286C24.661 7.14286 25.0181 7.14286 25.3753 7.14286C25.5539 7.14286 25.7324 7.14286 25.911 7.14286C26.0896 7.14286 26.2681 7.14286 26.4467 7.32143C26.6253 7.5 26.8039 7.67857 26.9824 7.85714C26.9824 8.21429 27.3396 8.57143 27.6967 8.92857C28.0539 9.28571 28.0539 9.82143 28.2324 10.3571C28.2324 10.5357 28.2324 10.8929 28.2324 11.0714C28.2324 11.4286 28.2324 11.6071 28.2324 11.9643C28.2324 12.5 28.2324 12.8571 27.8753 13.3929C27.8753 13.5714 27.8753 13.9286 27.8753 14.2857C27.8753 14.2857 27.6967 14.2857 27.6967 14.4643V22.6786C27.6967 22.6786 28.0539 22.3214 28.2324 22.3214C28.2324 22.3214 28.2324 22.3214 28.411 22.3214C28.411 21.9643 28.9467 22.1429 29.1253 21.7857H29.3039C29.3039 21.7857 29.3039 21.7857 29.4824 21.7857C29.4824 21.7857 29.4824 21.7857 29.661 21.7857C30.1967 21.7857 30.3753 21.4286 30.911 21.4286C31.0896 21.4286 31.2681 21.4286 31.4467 21.4286C31.4467 21.4286 31.6253 21.4286 31.8039 21.25C31.8039 21.25 32.161 21.25 32.3396 21.25C32.6967 21.25 32.6967 21.0714 32.6967 20.8929C32.6967 20.7143 32.6967 20.5357 32.6967 20.3571C32.6967 20.1786 32.6967 20 33.0539 20C33.0539 20 33.0539 20 33.2324 20C33.2324 20 33.5896 19.6429 33.5896 19.4643C33.7681 19.1071 34.1253 19.1071 34.661 19.2857C35.0181 19.2857 35.1967 19.4643 35.5538 19.8214C35.911 20.1786 36.2681 20.3571 36.6253 20.5357C36.9824 20.7143 37.161 20.8929 37.5181 21.0714C37.6967 21.0714 37.8753 21.25 38.2324 21.4286C38.5896 21.4286 39.1253 21.7857 39.4824 22.1429C39.661 22.3214 39.8396 22.5 40.0181 22.6786C40.0181 22.6786 40.0181 22.6786 40.1967 22.6786C40.7324 22.8571 41.0896 23.3929 41.6253 23.75C41.9824 24.2857 42.161 24.8214 42.5181 25.1786C42.5181 25.5357 42.5181 25.8929 42.5181 26.0714M26.2681 33.5714C26.2681 33.5714 26.0896 33.5714 25.911 33.3929C26.0896 33.0357 26.4467 33.0357 26.9824 33.0357C26.8039 33.0357 26.6253 33.2143 26.4467 33.3929C26.4467 33.3929 26.4467 33.3929 26.4467 33.5714" fill="#0F2350"/>
<path d="M275.375 33.5714C275.554 33.5714 275.911 33.75 276.089 33.9286C276.446 34.2857 276.804 34.2857 277.339 34.2857C277.696 34.2857 277.875 34.2857 278.232 34.2857C278.768 34.2857 279.125 35.5357 279.125 35.8929C279.125 36.25 279.482 38.2143 279.661 38.5714C279.661 38.9286 280.018 39.1071 280.375 39.1071H280.732C281.089 39.2857 281.446 39.2857 281.804 39.4643C281.982 39.4643 282.339 39.4643 282.518 39.8214C282.697 39.8214 283.054 39.8214 283.411 39.8214C283.411 39.8214 283.768 39.4643 283.768 39.2857C283.946 38.75 284.482 38.2143 284.661 37.5C284.661 37.1429 284.661 36.7857 284.661 36.6071C284.661 36.0714 283.768 33.3929 283.947 32.8571V32.5C283.768 31.9643 283.947 31.4286 283.947 31.0714C283.947 30.7143 283.947 30.3571 283.947 30C280.732 30.7143 277.696 31.7857 274.839 33.0357C275.018 33.2143 275.375 33.3929 275.732 33.5714M279.125 31.9643C279.304 31.7857 279.482 31.6071 279.661 31.4286C279.661 31.9643 279.661 32.3214 279.661 32.8571C279.661 32.8571 279.304 32.8571 279.125 32.8571C278.768 32.5 278.768 32.5 279.125 32.1429" fill="#B7282E"/>
<path d="M267.339 39.8214H270.018L272.518 34.1071C269.839 35.3571 267.339 36.9643 264.839 38.75L264.304 40H267.161L267.339 39.8214Z" fill="#B7282E"/>
<path d="M294.661 39.8214V35.5357C294.661 35.5357 294.661 35.3571 294.661 35.1786V29.4643C295.375 29.4643 296.089 29.1071 296.803 29.1071C297.161 29.1071 297.518 29.1071 297.696 29.4643C298.053 29.4643 298.411 29.4643 298.768 29.4643C299.125 29.4643 299.482 29.4643 299.839 29.6429C299.839 30 300.018 29.8214 300.196 30C300.196 30 300.196 30 300.375 30C300.911 30.3571 301.446 30.5357 302.161 30.5357C302.161 30.3571 302.161 30.1786 302.161 30C302.518 30 302.696 29.8214 302.875 29.6429C302.875 29.6429 303.053 29.6429 303.232 29.4643C303.589 29.4643 303.589 29.2857 303.589 29.1071H303.053C300.553 28.75 298.054 28.5714 295.554 28.5714C293.054 28.5714 290.732 28.5714 288.411 29.1071V40H293.768L294.661 39.8214Z" fill="#B7282E"/>
<path d="M308.054 31.0714C308.054 31.4286 307.696 31.7857 307.696 32.1429C307.696 32.5 307.696 32.8571 307.339 33.2143C307.339 33.75 306.982 34.1071 306.804 34.6429C306.625 35 306.446 35.5357 306.268 35.8929C306.268 36.25 306.089 36.6071 305.911 36.7857C305.911 36.9643 305.911 37.3214 305.911 37.5V37.8571C305.911 38.0357 305.911 38.3929 305.911 38.5714C305.911 39.1071 305.911 39.8214 306.268 40.3571C306.268 40.3571 306.446 40.3571 306.625 40.3571C306.625 40.3571 306.625 40.5357 306.625 40.7143C306.625 40.7143 306.625 41.0714 306.625 41.25C306.625 41.6071 306.268 41.7857 306.089 42.1429C306.089 42.1429 306.268 42.1429 306.446 42.1429C306.625 41.9643 306.982 41.7857 307.161 41.4286C307.339 41.0714 307.518 41.0714 307.875 41.25C308.054 41.0714 308.232 40.7143 308.589 40.5357C308.946 40.5357 309.304 40.3571 309.304 39.8214C309.304 39.6429 309.482 39.2857 309.482 39.1071C309.482 38.75 310.018 38.3929 309.839 38.0357C309.839 37.6786 310.196 37.3214 310.375 36.9643C310.554 36.4286 310.732 35.8929 311.089 35.3571C311.089 35.3571 311.268 35.1786 311.446 35C312.161 34.8214 312.518 34.4643 312.875 33.9286C312.875 33.9286 313.232 34.2857 313.411 33.9286C313.589 33.9286 313.946 33.5714 314.125 33.3929C314.125 33.3929 314.125 33.2143 314.304 33.0357C314.304 33.0357 314.661 32.8571 314.661 32.6786C314.661 32.3214 315.018 32.1429 315.375 31.9643C313.232 31.0714 310.911 30.5357 308.768 30C308.768 30.3571 308.411 30.7143 308.411 31.0714" fill="#B7282E"/>
<path d="M323.054 36.0714C323.054 36.6072 323.232 36.9643 323.589 37.1429C323.768 37.3214 323.946 37.6786 323.946 38.0357L324.482 39.8214H329.482C327.339 38.2143 325.196 36.7857 322.875 35.5357C322.875 35.7143 323.054 35.8929 323.054 36.0714Z" fill="#B7282E"/>
</g>
<defs>
<clipPath id="clip0_182_3206">
<rect width="350.536" height="50" fill="white" transform="translate(0.732422)"/>
</clipPath>
</defs>
</svg>
