<svg width="1196" height="195" viewBox="0 0 1196 195" fill="none" xmlns="http://www.w3.org/2000/svg">
<g clip-path="url(#clip0_449_135)">
<path d="M947.61 128.55C948.4 128.93 949.21 129.25 949.89 129.79C951.05 130.7 952.38 130.97 953.8 130.96C954.76 130.96 955.71 130.9 956.67 130.89C958.33 130.88 959.79 134.92 959.4 136.35C959.03 137.73 960.78 143.89 960.92 145.17C961.06 146.42 961.8 146.78 963.09 146.69C963.5 146.66 963.99 146.66 964.31 146.86C965.4 147.54 966.72 147.51 967.85 148.14C968.62 148.57 969.6 148.7 970.48 149.07C971.31 149.42 972.42 149.09 973.49 149.05C973.91 148.48 974.52 147.92 974.79 147.24C975.43 145.59 977.26 143.44 977.53 141.68C977.69 140.66 977.86 139.59 977.72 138.59C977.48 136.97 975.02 128.19 975.23 126.58C975.29 126.15 975.44 125.64 975.28 125.3C974.5 123.71 975.59 122.03 974.89 120.36C974.48 119.39 974.79 118.12 974.81 116.95C964.49 119.42 954.52 122.8 944.99 127C945.74 127.68 946.72 128.09 947.63 128.53M960.04 123.26C960.64 122.6 961.33 122.01 961.97 121.4C962.08 121.44 962.2 121.48 962.31 121.52C962.24 123.02 962.17 124.52 962.1 126.03C961.56 126.45 961.07 126.53 960.59 126C960.46 125.86 960.33 125.72 960.18 125.6C958.93 124.53 958.91 124.51 960.03 123.26" fill="#B7282E"/>
<path d="M921.18 149.06H929.96L938.37 130.09C929.6 134.39 921.24 139.4 913.36 145.04L911.59 149.06H921.17H921.18Z" fill="#B7282E"/>
<path d="M1010.81 149.06V135.07C1010.85 134.73 1010.87 134.4 1010.81 134.07V115.34C1013.2 114.76 1015.51 114.22 1018.03 114.36C1019.37 114.43 1020.48 114.5 1021.16 115.52C1022.37 115.33 1023.46 115.1 1024.57 114.98C1025.91 114.84 1027.09 115.27 1028.2 115.81C1027.97 116.7 1029 116.49 1029.49 116.75C1029.74 116.88 1030.02 116.98 1030.27 117.11C1032.1 118.01 1034.05 118.63 1036.35 118.9C1036.53 118.29 1036.68 117.75 1036.77 117.44C1037.69 117.03 1038.42 116.71 1039.15 116.37C1039.56 116.18 1039.93 115.86 1040.37 115.77C1041.32 115.58 1041.47 115.02 1041.72 114.33H1040.21C1040.36 114.1 1040.46 113.92 1040.56 113.78C1032.58 112.68 1024.44 112.09 1016.15 112.09C1008.32 112.09 1000.62 112.6 993.06 113.59V149.06H1010.81Z" fill="#B7282E"/>
<path d="M1054.81 120.7C1054.63 121.88 1053.81 123 1053.42 124.18C1053.02 125.37 1052.87 126.61 1052.48 127.8C1051.95 129.4 1051.35 130.99 1050.67 132.55C1050.07 133.92 1049.26 135.23 1048.64 136.59C1048.17 137.63 1047.79 138.7 1047.48 139.78C1047.24 140.6 1047.19 141.45 1047.05 142.28C1046.97 142.76 1046.7 143.28 1046.84 143.7C1047.13 144.55 1046.86 145.36 1046.83 146.19C1046.75 148.22 1046.94 150.23 1047.97 152.07C1048.19 152.03 1048.32 152.02 1048.43 151.98C1048.79 151.84 1049.15 151.7 1049.51 151.55C1049.66 151.86 1049.94 152.17 1049.93 152.49C1049.91 153.01 1049.8 153.56 1049.55 154.04C1049.08 154.97 1048.5 155.86 1047.87 156.91C1048.27 156.84 1048.63 156.86 1048.8 156.72C1049.64 156.05 1050.6 155.41 1051.18 154.61C1051.84 153.69 1052.5 153.33 1053.76 153.85C1054.48 153 1055.16 152.19 1055.93 151.28C1057.19 151.14 1058.09 150.45 1058.53 149.18C1058.78 148.44 1059.16 147.71 1059.32 146.96C1059.57 145.77 1061.21 144.8 1060.31 143.43C1060.27 143.38 1060.41 143.24 1060.46 143.14C1060.97 141.93 1061.49 140.72 1061.98 139.51C1062.72 137.7 1063.41 135.88 1064.2 134.08C1064.38 133.68 1064.85 133.22 1065.31 133.06C1067.37 132.33 1068.88 131.16 1069.77 129.4C1070.14 129.94 1070.72 130.36 1071.37 129.92C1072.21 129.36 1073.3 128.96 1073.66 127.95C1073.79 127.58 1074.17 127.24 1074.48 126.92C1074.88 126.5 1075.47 126.15 1075.73 125.68C1076.29 124.68 1077.16 123.95 1078.09 123.26C1071.03 120.62 1063.76 118.41 1056.3 116.68C1056.25 116.86 1056.18 117.03 1056.14 117.21C1055.83 118.41 1055 119.45 1054.81 120.71" fill="#B7282E"/>
<path d="M1103.58 136.83C1103.61 138.33 1104.38 139.47 1105.25 140.53C1105.95 141.38 1106.22 142.38 1106.57 143.34L1108.22 149.06H1124.33C1117.59 143.83 1110.45 139.09 1102.98 134.86C1103.29 135.51 1103.56 136.16 1103.58 136.82" fill="#B7282E"/>
<path d="M843.33 138.02C844.15 138.62 844.94 139.32 845.68 140.06C846.81 141.18 847.89 142.36 848.98 143.51C849.36 143.91 849.72 144.13 850.22 144.21C850.8 144.3 851.44 144.58 852.03 144.89C853.37 145.57 854.7 146.33 856.04 147.04C856.74 147.41 857.45 147.8 858.15 148.06C858.61 148.23 859.06 148.12 859.53 148.23C860.4 148.44 861.3 148.83 862.13 148.93C862.79 149.01 863.32 148.94 864.01 149.64C864.24 149.87 864.75 149.8 865.12 149.83C865.32 149.85 865.5 149.77 865.71 149.79C866.77 149.88 867.83 150.01 868.89 150.1C869.35 150.14 869.92 150.28 870.21 150.09C870.64 149.8 871.19 149.9 871.7 149.96C872.68 150.07 873.86 150.76 874.4 149.78C874.42 149.74 874.57 149.82 874.65 149.82C875.63 149.85 876.62 149.87 877.61 149.9C877.82 149.63 877.97 149.09 878.35 149.03C879.1 148.91 879.65 148.61 879.86 147.95C880.38 148.31 880.79 148.59 881.2 148.87C881.23 148.81 881.26 148.75 881.28 148.69C881.04 148.46 880.8 148.22 880.4 147.83C880.8 147.81 881.06 147.78 881.32 147.77C881.5 147.77 881.78 147.86 881.84 147.77C882.23 147.12 882.94 147.26 883.73 147.54C883.8 147.57 883.88 147.51 883.96 147.49C883.94 147.28 883.92 147.06 883.91 146.86C883.95 146.83 883.98 146.79 884.01 146.79C884.96 146.77 886.09 147.11 886.65 146.3C886.81 146.07 886.84 145.62 887.08 145.59C888.2 145.45 888.7 144.53 889.54 144.03C890.17 143.65 890.81 143.28 891.42 142.87C891.87 142.57 891.77 141.66 892.58 141.75C893.13 140.67 893.87 139.76 894.61 138.86C895.51 137.78 895.78 136.17 896.81 135.21C896.91 135.12 896.94 134.93 896.98 134.78C897.32 133.57 897.65 132.35 897.98 131.13C898.18 130.41 898.46 129.72 898.58 128.96C898.93 126.73 899.29 124.5 899.51 122.2C899.65 120.77 899.93 119.42 899.92 117.91C899.92 116.36 900.03 114.79 900.47 113.48C900.96 112.03 901.41 110.59 901.58 108.95C901.69 107.87 901.96 106.87 902.04 105.78C902.17 104.02 902.94 102.63 903.18 100.94C903.33 99.88 903.49 98.81 903.87 97.9C904.52 96.3 905.25 94.75 906.11 93.31C907.23 91.44 908.39 89.59 909.02 87.36C909.73 84.82 911.91 83.68 913.17 81.68C913.19 81.65 913.24 81.65 913.28 81.64C914.21 81.35 914.8 80.68 915.44 80.03C915.93 79.53 916.57 79.12 917.29 78.94C919.39 78.42 921.62 78.16 923.67 77.56C924.89 77.2 926.23 76.98 927.18 76.17C927.36 76.01 927.63 75.9 927.9 75.9C929.4 75.93 930.33 75.1 931.31 74.36C932.09 73.77 932.4 72.7 931.84 71.51C931.01 69.73 930.32 67.87 928.92 66.24C927.5 64.58 926.1 62.86 924.07 62.23C923.79 62.14 923.48 61.86 923.21 61.63C922.49 61.02 921.76 60.42 921.06 59.77C919.64 58.45 918.07 58 916.55 57.39C915.74 57.06 914.97 56.76 914.2 56.17C913.18 55.4 912.11 54.74 911.06 54.03C909.76 53.14 908.4 52.35 907.17 51.33C906.23 50.55 905.37 49.91 904.34 49.75C902.92 49.52 901.62 49.49 900.83 50.5C900.38 51.08 899.9 51.64 899.39 52.17C899.21 52.36 898.92 52.55 898.63 52.5C897.64 52.32 897.37 52.83 897.31 53.69C897.26 54.45 897.17 55.21 896.93 55.86C896.68 56.56 896.45 57.3 895.43 57.26C894.74 57.23 894.08 57.42 893.55 57.71C893.11 57.96 892.67 58.17 892.19 58.37C891.53 58.65 890.81 58.79 890.11 58.96C888.64 59.32 887.55 60.3 885.95 60.44C885.67 60.47 885.51 60.76 885.29 60.93C885.07 61.09 884.88 61.3 884.62 61.39C884.34 61.49 883.89 61.36 883.69 61.52C882.9 62.18 881.49 62 881.02 63.1C880.93 63.3 880.58 63.34 880.31 63.38C879.18 63.55 878.5 64.27 877.87 65.06C877.63 65.36 877.32 65.69 876.92 65.73C876.21 65.81 875.88 66.24 875.6 66.79C875.35 67.3 875.36 68.04 874.47 67.99C874.14 67.97 873.95 68.56 873.79 68.94C873.6 69.39 873.29 69.74 873.09 70.13C872.62 71.04 872.35 72.11 871.64 72.84C871.62 72.86 871.63 72.92 871.62 72.96C871.56 73.63 871.43 74.27 871.45 74.96C871.46 75.35 871.63 76.05 871.88 76.23C872.85 76.94 873.59 78.13 874.84 78.31C875.77 78.44 876.78 78.93 877.47 78.35C877.57 78.26 877.86 78.41 878.04 78.4C878.62 78.37 879.38 78.52 879.73 78.21C880.09 77.89 880.46 77.71 880.93 77.57C881.43 77.43 881.8 77.07 882.28 76.89C882.83 76.69 883.06 75.9 884.03 76.36C884.21 75.52 884.45 74.75 885.47 74.64C885.9 74.59 886.07 73.97 886.41 73.66C886.75 73.33 886.87 72.83 887.56 72.78C888.26 72.73 888.65 71.93 889.34 71.86C889.88 71.8 890.12 71.03 890.99 71.59C890.81 72.46 890.68 73.32 890.46 74.12C889.69 76.96 889.31 80.01 888.94 83.06C888.92 83.22 888.87 83.43 888.96 83.56C889.6 84.51 889.24 85.15 889.24 85.86C888.92 85.96 888.66 86.04 888.4 86.12C888.43 86.18 888.45 86.24 888.48 86.3C888.7 86.35 888.91 86.39 889.2 86.45C889.2 86.71 889.29 87.09 889.2 87.1C888.15 87.24 888.36 88.32 888.28 89.16C888.06 91.45 887.87 93.75 887.68 95.93C887.98 96.32 888.19 96.6 888.32 96.76C888.11 97.11 887.76 97.56 887.82 97.62C888.68 98.58 887.73 98.46 887.57 98.79C887.49 98.96 887.39 99.12 887.29 99.29C887.67 99.53 887.95 99.71 888.27 99.92C888.17 100.19 888.11 100.37 888.03 100.54C887.64 101.41 886.89 102.1 887.82 103.59C887.97 103.84 887.87 104.2 887.86 104.49C887.83 104.91 887.75 105.31 887.74 105.74C887.74 106.2 887.92 106.73 887.3 106.81C887.16 106.83 886.53 107.38 887.5 107.97C887.57 108.01 887.65 108.26 887.64 108.37C887.59 109.17 887.6 110.02 887.42 110.75C887.27 111.38 887.46 112.21 886.67 112.52C886.27 112.68 886.42 113.72 886.33 114.37C886.33 114.39 886.39 114.45 886.42 114.49C886.55 114.46 886.68 114.42 886.88 114.37C887.23 115.67 886.21 115.88 885.79 116.66C886.06 116.7 886.26 116.73 886.48 116.77C886.53 117.03 886.57 117.29 886.62 117.55C885.61 117.17 885.87 118.06 885.57 118.43C885.89 118.64 886.1 118.77 886.37 118.95C886.24 119.33 886.15 119.73 885.98 120.06C885.89 120.23 885.67 120.34 885.47 120.36C884.96 120.4 884.95 120.37 884.73 120.97C884.86 121.08 884.96 121.17 885.09 121.28C884.61 121.55 884.25 121.75 883.79 122.01C884.27 122.26 884.52 122.39 884.96 122.63C884.62 122.79 884.23 122.96 884.24 122.98C885 124.25 883.66 123.47 883.52 123.91C883.64 124.02 883.78 124.13 884.01 124.34C883.68 124.71 883.47 125.32 883.01 125.38C882.56 125.43 882.47 125.77 882.39 126C881.95 127.37 880.82 128.01 879.86 128.82C879.1 129.46 878.22 129.96 877.41 130.54C876.63 131.11 875.85 131.85 874.58 131.61C874.58 131.91 874.6 132.14 874.6 132.36C872.9 131.853 871.823 131.853 871.37 132.36C871.51 132.66 871.65 132.96 871.9 133.49C870.28 133.35 868.78 133.22 867.13 133.08C867.43 133.5 867.66 133.81 867.95 134.22C867.07 134.07 866.34 133.99 865.57 133.21C865.34 132.98 864.92 132.86 864.63 132.85C864.32 132.85 863.02 132.91 862.73 132.81C861.25 132.28 859.78 131.73 858.3 131.23C857.73 131.04 857.3 130.81 856.95 130.14C856.72 129.72 856.25 129.15 855.88 129C854.23 128.35 853.91 126.94 853.73 125.81C853.19 122.63 854.06 120.19 855.47 118.12C856.09 117.21 856.75 116.35 857.36 115.44C858.23 114.13 858.96 112.68 860.62 112.22C860.86 112.15 861.05 111.93 861.17 111.71C861.63 110.84 862.68 110.67 863.27 109.97C863.9 109.22 864.64 108.67 865.72 108.53C866 108.49 866.11 108.11 866.33 107.93C866.52 107.78 866.76 107.54 867 107.62C867.68 107.85 867.77 107.35 868.11 107.12C869.09 106.46 870.11 105.85 871.2 105.34C872.06 104.94 873.1 104.81 873.96 104.4C875.53 103.66 877.02 102.8 878.54 101.99C878.37 101.97 878.14 101.88 877.97 101.93C876.85 102.2 875.75 102.5 874.65 102.8C874.29 102.9 873.97 103.06 873.63 103.19C872.9 103.47 872.19 103.81 871.15 103.19C871.19 103.4 871.28 103.72 871.21 103.75C870.36 104.08 869.47 104.36 868.59 104.63C868.26 104.73 867.91 104.66 867.57 104.25C867.79 103.65 868.24 103.42 868.88 103.62C869.11 103.21 869.31 102.84 869.62 102.28C869.03 102.43 868.63 102.57 868.19 102.63C867.79 102.69 867.34 102.66 866.92 102.66C866.61 102.66 866.26 102.59 866 102.68C864.36 103.21 862.74 103.77 861.12 104.32C860.98 104.37 860.74 104.36 860.72 104.47C860.54 105.54 859.09 104.77 858.69 105.53C858.58 105.74 858.2 105.72 858 105.88C857.55 106.25 857.18 106.73 856.68 107.03C856.16 107.33 855.43 107.36 855.46 108.27C855.46 108.4 855.24 108.57 855.17 108.53C854.26 107.99 854.25 108.81 853.89 109.1C853.61 109.32 853.3 109.52 853.05 109.77C852.73 110.1 852.39 110.43 852.15 110.83C851.76 111.5 851.56 112.35 850.53 112.32C850.36 112.32 850.22 112.5 850.13 112.66C849.7 113.44 849.35 114.3 848.87 115.03C848.48 115.62 848.08 116.33 847.43 116.5C846.65 116.7 846.24 117.16 845.95 117.89C844.69 117.1 844.63 118.63 843.65 118.42C843.55 118.02 843.48 117.7 843.35 117.15C843.16 117.42 843.05 117.52 843 117.65C842.39 119.14 841.57 120.45 840.58 121.61C840.44 121.77 840.32 122.08 840.13 122.05C839.44 121.93 839.27 122.44 838.99 122.79C838.75 123.09 838.52 123.31 838.01 123.16C837.47 122.99 837.16 123.21 836.94 123.61C836.66 124.12 836.29 124.57 835.99 125.06C835.82 125.33 835.5 125.63 835.59 125.95C835.91 127.09 836.24 128.27 836.81 129.39C837.49 130.74 838.39 132.04 839.22 133.36C840.33 135.13 841.62 136.73 843.33 137.99M867.58 104.27C867.79 104.77 867.72 105.09 867.29 105.21C866.86 104.36 866.86 104.36 867.58 104.27Z" fill="#0F2350"/>
<path d="M872.3 105.94C870.95 105.93 869.76 106.14 868.84 107.12C869.36 107.39 869.78 107.62 870.2 107.84C870.25 107.53 870.3 107.22 870.34 106.97C871.02 106.61 871.66 106.28 872.29 105.94" fill="#16244B"/>
<path d="M879 129.03C879 128.96 878.86 128.86 878.69 128.68C878.6 128.87 878.55 128.99 878.49 129.11C878.6 129.16 878.73 129.27 878.82 129.26C878.91 129.24 879 129.13 879 129.04" fill="#16244B"/>
<path d="M951.01 101.58L958.22 85.31C958.71 88.54 959.67 95.32 959.85 95.72C960.05 96.16 960.31 96.63 960.68 96.93C961.17 97.34 961.39 97.85 961.09 98.37C960.93 98.64 960.63 98.92 960.64 99.2C960.68 101.83 960.56 104.46 960.97 107.09C961.28 109.12 961.36 111.19 961.48 113.25C961.5 113.62 961.33 114.15 961.06 114.36C960.32 114.96 959.5 115.46 958.68 115.94C957.28 116.77 955.87 117.57 954.45 118.37C953.79 118.74 953.17 119.15 952.34 119.16C951.01 119.17 949.67 119.25 948.36 119.46C947.08 119.66 945.66 119.72 944.94 121.13C944.88 121.24 944.75 121.37 944.63 121.4C943.61 121.62 943.44 122.53 943.02 123.26C943.32 123.89 943.73 124.47 943.86 125.11C944.04 125.94 944.45 126.54 944.96 127.01C954.49 122.81 964.46 119.43 974.78 116.96C974.78 116.92 974.78 116.87 974.78 116.83C975.43 116.29 976.11 115.73 975.69 114.63C975.25 114.77 974.84 114.9 974.39 115.04C974.39 113.72 974.76 112.81 975.14 112.92C975.31 113.25 975.46 113.54 975.65 113.9C975.8 113.69 975.92 113.59 975.91 113.54C975.52 112.25 976.35 111.64 977.26 111.06C978.23 110.44 979.23 109.87 980.14 109.17C980.79 108.68 981.3 108.02 981.93 107.39C982.61 107.77 983.06 106.99 983.66 106.66C983.4 106.74 983.14 106.82 982.69 106.95C982.64 106.39 982.59 105.94 982.55 105.48C982.65 105.47 983.45 106.09 983.67 106.04C983.52 105.6 983.38 105.17 983.19 104.59C980.67 105.38 978.16 106.18 975.55 107C975.5 106.55 975.43 106.22 975.43 105.89C975.43 103.77 975.45 101.64 975.44 99.52C975.44 98.72 975.31 97.91 975.31 97.1C975.31 96.2 975.44 95.29 975.44 94.39C975.45 91.09 975.07 87.8 975.32 84.5C975.33 84.31 975.32 84.1 975.26 83.93C974.93 83.08 975.14 82.24 975.27 81.38C975.5 79.9 976.29 78.54 976.17 76.98C976.15 76.76 976.26 76.49 976.4 76.31C977.25 75.22 977.45 73.88 977.87 72.63C978.31 71.31 978.74 69.99 978.19 68.57C978.03 68.14 978.03 67.61 978.08 67.14C978.19 66.09 978.27 65.03 978.56 64.02C979.12 62.05 978.05 60.88 976.71 59.77C976.28 59.42 975.85 59.02 975.57 58.55C975.16 57.86 974.69 57.6 973.91 57.82C973.36 57.98 972.79 58.06 972.5 58.12C971.75 57.76 971.21 57.5 970.67 57.24C969.98 56.9 969.31 56.99 968.58 57.13C967.88 57.27 967.24 57.42 966.59 57.77C966.05 58.07 965.19 57.77 964.6 58.02C963.68 58.42 962.84 58.5 961.87 58.29C959.73 57.82 957.73 58.56 955.72 59.15C954.87 59.4 950.85 59.77 950.52 60.32L931.77 103.04L920.14 129.53L913.34 145.02C921.22 139.38 929.58 134.38 938.35 130.07L950.99 101.56L951.01 101.58Z" fill="#0F2350"/>
<path d="M1040.56 113.77C1040.61 113.71 1040.65 113.63 1040.71 113.59C1042.34 112.52 1042.91 110.99 1043.46 109.48C1043.96 108.1 1044.78 106.96 1046.23 106.08C1046.74 105.77 1047.21 105.36 1047.54 104.92C1048.42 103.75 1049.22 102.54 1050.06 101.33C1050.23 101.31 1050.41 101.28 1050.59 101.28C1050.8 101.28 1051.01 101.3 1051.47 101.33C1051.27 100.76 1051.12 100.34 1050.97 99.92C1050.08 100.17 1050.44 99.56 1050.54 99.41C1050.72 99.14 1051.04 98.81 1051.38 98.74C1052.7 98.46 1053.12 97.64 1053.32 96.73C1053.97 93.78 1054.59 90.82 1055.16 87.86C1055.21 87.62 1054.89 87.33 1054.71 87.06C1054.69 87.07 1054.68 87.08 1054.67 87.09C1054.64 87.59 1054.6 88.09 1054.57 88.59C1054.43 88.57 1054.29 88.55 1054.15 88.53C1054.06 88.01 1054.14 87.51 1054.67 87.09C1054.67 87.06 1054.67 87.03 1054.67 87C1054.68 87.02 1054.69 87.04 1054.71 87.05C1054.71 87.05 1054.72 87.05 1054.73 87.04C1055.09 85.64 1055.54 84.25 1055.77 82.83C1056.01 81.4 1056.02 79.97 1055.26 78.58C1054.69 77.54 1054.28 76.43 1053.97 75.32C1053.37 73.2 1052.36 71.29 1050.6 69.59C1049.86 68.88 1049.45 67.92 1049 67.04C1048.36 65.78 1047.38 64.83 1045.77 64.32C1045.33 64.18 1044.91 63.99 1044.52 63.78C1042.91 62.91 1041.3 62.06 1039.41 61.6C1038.72 61.43 1038.06 61.19 1037.37 61.06C1036.17 60.84 1034.86 60.38 1033.75 60.57C1031.76 60.93 1029.81 61.18 1027.77 61.09C1027.32 61.07 1026.77 61.11 1026.4 61.3C1024.71 62.15 1023.07 61.98 1021.31 61.42C1020.32 61.1 1019.21 60.92 1018.15 61.48C1017.52 61.81 1017.16 61.56 1016.75 61.05C1016.02 60.14 1012.94 60.41 1010.82 60.38V60.3H993.67C993.79 60.95 993.86 61.64 993.07 62.14V65.8C993.24 66.11 993.42 66.42 993.58 66.74C993.38 66.76 993.21 66.8 993.07 66.85V113.55C1000.63 112.56 1008.33 112.05 1016.16 112.05C1024.44 112.05 1032.59 112.63 1040.57 113.74M1010.81 94.69C1010.98 94.43 1011.14 94.17 1011.31 93.91C1011.67 93.34 1011.93 92.73 1012.12 92.08C1012.35 91.28 1012.43 90.25 1013.59 89.74C1013.79 89.65 1013.86 89.35 1013.96 89.14C1014.22 88.63 1014.29 87.87 1014.76 87.63C1016.12 86.94 1016.19 85.76 1016.22 84.86C1016.26 83.74 1016.91 82.88 1017.18 81.88C1017.37 81.19 1017.47 80.48 1017.65 79.79C1017.78 79.3 1017.95 78.8 1018.18 78.33C1018.84 77.01 1019.44 75.65 1020.26 74.4C1021.18 72.98 1022.53 71.91 1024.58 71.42C1025.52 71.2 1026.31 70.51 1027.41 70.86C1027.83 70.99 1028.29 71.19 1028.55 71.46C1029.55 72.53 1030.12 73.77 1030.21 75.11C1030.33 76.97 1030.44 78.83 1030.45 80.68C1030.46 82.84 1029.33 84.75 1028.18 86.65C1027.48 87.79 1026.77 88.93 1026.13 90.09C1025.48 91.26 1024.52 92.22 1023.24 92.98C1022.19 93.6 1021.03 94.09 1020.39 95.08C1020.21 95.37 1019.61 95.48 1018.93 95.81C1019.66 95.98 1020.15 96.1 1020.65 96.21C1019.68 97.49 1018.1 98.22 1016.58 98.96C1014.62 99.91 1012.64 100.84 1010.8 101.92V94.69H1010.81Z" fill="#0F2350"/>
<path d="M1080.96 120.84C1081.09 120.92 1081.23 121 1081.37 121.07C1080.79 121.99 1080.21 122.91 1079.62 123.84C1080.06 124.01 1080.5 124.17 1080.94 124.34C1081.34 123.83 1081.7 123.28 1081.88 122.71C1082.16 121.87 1082.79 121.48 1083.66 121.16C1083.85 121.32 1084.06 121.48 1084.35 121.7C1084.46 120.45 1085.2 119.79 1086.62 119.62C1086.97 119.58 1087.3 119.34 1087.62 119.16C1088.6 118.6 1089.57 118.18 1090.81 117.98C1092.28 117.75 1094.06 117.86 1095.05 116.39C1096.15 117.34 1097.17 118.15 1097.01 119.55C1096.97 119.89 1097.24 120.25 1097.41 120.59C1098.15 122.02 1098.4 123.55 1098.8 125.26C1094.88 125.99 1091.09 126.4 1087.27 126.84C1088.37 127.09 1089.47 127.24 1090.59 127.31C1093.34 127.49 1096.11 127.6 1098.75 128.29C1099.94 128.6 1101.13 129.24 1101.23 130.16C1101.37 131.38 1101.89 132.41 1102.34 133.5C1102.53 133.95 1102.77 134.41 1102.99 134.86C1110.46 139.08 1117.59 143.83 1124.33 149.06H1127.32L1100.56 66.02C1100.99 64.11 1100.23 62.35 1099.79 60.55C1099.6 59.78 1099.11 59.27 1098.04 59.37C1097.76 58.44 1096.34 57.76 1097.36 56.54C1097.5 56.38 1097.45 56.04 1097.36 55.82C1096.71 54.13 1095.11 53.07 1093.36 52.45C1092.3 52.07 1091.71 51.56 1091.03 50.92C1089.28 49.29 1087.41 47.79 1084.37 48.24C1083.58 47.55 1082.64 46.94 1083.56 45.72C1083.8 45.4 1083.41 44.77 1083.27 44.13C1082.57 44.95 1082.23 45.94 1082.24 47.1C1080.1 47.44 1081.22 48.85 1081.02 49.93C1080.48 50 1080 50.06 1079.5 50.13C1079.34 50.66 1079.28 51.39 1078.26 51.13C1076.98 50.8 1076.09 51.63 1075.02 51.83C1073.89 52.05 1073.74 52.54 1073.65 53.27C1073.63 53.41 1073.47 53.54 1073.37 53.69C1072.37 53.36 1072.14 53.94 1072.02 54.53C1071.88 55.21 1071.85 55.89 1071.73 56.57C1071.32 58.91 1070.97 61.23 1073.13 63.02C1075.04 62.68 1076.95 62.34 1078.88 61.99C1079.24 61.92 1079.6 61.86 1079.96 61.8C1080.22 62.38 1080.54 62.9 1080.68 63.46C1080.76 63.77 1080.66 64.23 1080.43 64.47C1080.38 64.52 1080.33 64.58 1080.27 64.63C1079.7 65.21 1079.1 65.86 1078.35 66.15C1077.13 66.62 1076.53 67.52 1076.3 68.34C1075.97 69.5 1075.26 70.83 1076.53 71.94C1077.07 72.41 1076.89 73.02 1076.53 73.58C1076.03 74.34 1075.48 75.08 1075 75.85C1073.85 77.71 1072.74 79.6 1071.58 81.46C1070.22 83.64 1068.77 85.79 1067.43 87.99C1066.51 89.51 1065.7 91.09 1064.89 92.65C1064.21 93.97 1063.58 95.31 1062.98 96.65C1062.34 98.08 1061.96 99.62 1061.11 100.95C1060.21 102.36 1059.84 103.84 1059.43 105.32C1058.67 108.04 1058.02 110.77 1057.28 113.48C1056.99 114.55 1056.6 115.61 1056.29 116.67C1063.75 118.4 1071.02 120.61 1078.08 123.25C1079.1 122.49 1080.17 121.78 1080.95 120.83M1075.42 111.44C1074.53 111.84 1073.53 112.08 1072.14 112.52C1073.15 110.28 1074.05 108.28 1074.96 106.29C1076.01 104.01 1078.14 102.47 1080.23 100.89C1081.6 99.86 1082.97 98.84 1084.14 97.59C1085.11 96.56 1086.36 95.7 1087.18 94.51C1087.66 93.81 1088.3 93.89 1088.61 94.65C1089.07 95.77 1089.46 96.93 1089.8 98.09C1090.41 100.15 1090.96 102.23 1091.6 104.51C1090.28 104.95 1088.86 105.5 1087.39 105.87C1085.92 106.25 1084.48 106.55 1083.38 107.59C1083.03 107.92 1082.43 108.07 1081.93 108.28C1080.56 108.85 1079.1 109.31 1077.84 110.02C1077.33 110.31 1076.86 110.21 1076.49 110.39C1076.05 110.6 1075.86 111.23 1075.42 111.43" fill="#0F2350"/>
<path d="M1078.76 125.2C1079.76 125.68 1080.27 125.14 1080.65 124.7C1080.75 124.58 1080.85 124.46 1080.94 124.34C1080.5 124.17 1080.06 124.01 1079.62 123.84C1079.33 124.29 1079.05 124.74 1078.76 125.2Z" fill="#16244B"/>
<path d="M1195.42 74.27C1195.3 73.98 1195.17 73.65 1195.2 73.34C1195.4 70.92 1193.88 69.03 1192.84 67.09C1192.03 65.58 1191.1 64.09 1190.25 62.58C1189.2 60.7 1187.95 58.97 1186.33 57.46C1185.06 56.28 1183.92 54.98 1182.63 53.83C1181.51 52.83 1180.37 51.78 1179.04 51.05C1177.16 50.03 1174.63 51.06 1174.14 53C1173.84 54.18 1173.79 55.44 1173.85 56.66C1173.96 58.74 1174.03 58.73 1176.27 58.69C1176.39 58.69 1176.51 58.8 1176.7 58.88C1177.41 61.17 1176.53 63.45 1176.12 65.71C1175.59 68.63 1174.7 71.49 1174.12 74.4C1173.56 77.21 1173.2 80.05 1172.25 82.8C1172.02 83.46 1172.32 84.26 1172.08 84.91C1171 87.89 1170.6 90.98 1170.03 94.04C1169.36 97.65 1168.75 101.28 1168.5 104.92C1168.25 108.6 1167.22 112.24 1167.74 115.96C1167.98 117.66 1168.02 119.48 1166.14 120.95C1165.8 120.73 1165.16 120.54 1165.01 120.18C1164.6 119.15 1164.3 118.06 1164.12 116.96C1163.96 116 1164.16 114.96 1163.94 114.02C1163.23 111 1161.98 108.1 1161.84 104.95C1161.73 102.51 1160.96 100.16 1160.82 97.72C1160.78 96.94 1160.84 96.15 1160.82 95.37C1160.67 91.6 1161.29 88.04 1164.08 84.99C1164.36 84.68 1164.57 84.13 1164.49 83.75C1164.21 82.33 1164.53 81.02 1165.25 79.77C1165.63 79.12 1165.56 78.54 1165.3 77.91C1164.8 76.74 1164.36 75.54 1163.86 74.37C1163.71 74.03 1163.44 73.73 1163.18 73.45C1162.5 72.73 1161.82 72.01 1161.09 71.34C1160.51 70.81 1159.86 70.35 1159.24 69.88C1158.82 69.56 1158.35 69.29 1157.96 68.94C1156.46 67.59 1155.17 65.95 1153.45 64.9C1151.4 63.65 1149.38 62.41 1147.56 60.92C1147.33 60.73 1147.1 60.54 1146.88 60.34C1146.35 59.87 1145.83 59.37 1145.34 58.84C1144.45 57.86 1143.57 57.96 1142.3 58.58C1141.39 59.03 1140.71 59.64 1140.18 60.34C1139.68 61 1139.31 61.75 1139 62.54C1138.7 63.31 1138.31 63.87 1137.3 64.1C1136.11 64.37 1135.31 65.17 1134.71 66.26C1133.27 68.84 1131.79 71.36 1130.92 74.18V149.06H1147.56V109.94C1147.81 110.66 1148.03 111.32 1148.23 111.99C1148.77 113.79 1149.2 115.63 1149.81 117.41C1150.77 120.23 1151.84 123.01 1152.85 125.82C1153.15 126.67 1153.28 127.58 1153.68 128.38C1154.54 130.1 1155.63 131.72 1156.45 133.46C1157.69 136.1 1159.41 138.47 1161.05 140.89C1162.33 142.79 1164.15 144.37 1165.34 146.31C1166.85 148.78 1169.71 149.25 1171.95 150.62C1172.2 150.78 1172.69 150.85 1172.94 150.73C1174.35 150.03 1175.19 150.74 1176.08 151.86C1176.84 151.51 1177.75 151.33 1178.27 150.81C1179.18 149.9 1179.94 148.83 1180.59 147.75C1181.22 146.69 1181.63 145.51 1180.94 144.57C1181.76 143.95 1182.8 143.53 1183.03 142.88C1183.37 141.94 1183.43 140.7 1183.01 139.85C1182.56 138.94 1183.02 138.36 1183.19 137.63C1183.25 137.36 1183.22 136.82 1183.16 136.81C1181.71 136.61 1182.47 135.62 1182.56 135.04C1182.68 134.29 1183.11 133.57 1183.45 132.75C1182.61 132.18 1182.1 131.49 1182.6 130.45C1182.73 130.19 1182.54 129.81 1182.55 129.49C1182.57 128.41 1182.19 127.06 1182.75 126.3C1183.98 124.65 1182.2 123.04 1183.2 121.52C1182.16 119.39 1183.09 117.23 1183.7 115.27C1184.5 112.69 1185.38 110.2 1185.1 107.51C1185.08 107.34 1185.19 107.1 1185.32 106.97C1186.52 105.82 1185.42 104.32 1186.11 103.1C1185.16 102.23 1185.78 101.66 1186.56 101.07C1186.81 100.88 1187.04 100.54 1187.1 100.24C1187.48 98.39 1187.97 96.54 1188.13 94.67C1188.41 91.49 1188.99 88.39 1190.65 85.53C1191.72 83.68 1192.68 81.68 1194.16 80.13C1195.95 78.25 1196.37 76.45 1195.44 74.27" fill="#0F2350"/>
<path d="M563.37 135.31C563.45 135.08 563.49 134.93 563.56 134.79C563.987 133.897 563.757 133.183 562.87 132.65C562.64 132.51 562.4 132.37 562.23 132.18C561.71 131.57 561.16 131.06 560.53 130.62C559.95 130.22 559.3 129.89 558.54 129.63C557.02 129.11 555.5 128.57 553.96 128.08C551.85 127.42 549.71 126.81 547.94 125.33C546.52 124.15 545 123.08 543.52 121.98C543.36 121.86 543.16 121.69 542.98 121.69C541.86 121.69 541.33 120.91 540.71 120.16C539.98 119.28 539.23 118.37 538.01 118.04C537.74 118.86 537.61 119.52 538.29 120.22C539.77 121.73 541.19 123.31 542.58 124.9C543.82 126.32 544.85 127.9 546.09 129.72C541.43 129.95 537.11 130.05 532.81 130.41C532.09 130.47 531.38 130.54 530.67 130.61H519.68C519.68 130.61 519.66 130.59 519.64 130.58C519.55 129.93 518.89 129.04 519.1 128.48C519.61 127.12 519.46 125.7 519.47 124.36C519.47 123.35 519.57 122.6 520.33 122.02C520.94 121.55 521.62 121.1 522.34 120.84C523.62 120.38 524.96 120.07 526.27 119.68C526.46 119.62 526.67 119.5 526.77 119.34C527.68 117.92 529.25 117.42 530.63 116.76C532.84 115.71 534.79 114.1 537.28 113.66C537.38 113.64 537.46 113.55 537.56 113.5C539.19 112.78 540.4 111.34 542.16 110.85C542.39 110.79 542.59 110.55 542.78 110.37C543.82 109.37 545.03 108.84 546.5 108.85C546.88 108.85 547.5 108.69 547.62 108.43C548.21 107.08 549.4 106.11 549.78 104.61C550.32 102.47 549.73 101.15 547.71 100.31C545.05 99.2 542.21 98.6 539.66 97.17C536.58 95.44 533.4 95.82 530.26 97.08C528.59 97.75 526.96 98.64 525.04 98.21C524.86 98.17 524.62 98.37 524.4 98.46C522.94 99.12 522.53 100.49 522.15 101.83C521.14 102.19 521 101.43 520.87 100.85C520.6 99.64 520.41 98.4 520.23 97.17C520.2 96.96 520.37 96.71 520.47 96.41C521.85 97.03 523.15 96.33 524.46 96.56C524.72 96.61 525.1 96.28 525.33 96.04C526.54 94.79 527.67 93.43 528.95 92.25C530.11 91.18 531.33 90.11 532.68 89.34C535.23 87.88 537.93 86.68 540.88 86.32C542.39 86.13 543.56 84.81 545.18 85.13C547.82 84.09 550.62 83.7 553.38 83.19C555.56 82.79 557.4 81.73 559.26 80.45C559.83 80.06 559.93 79.25 559.48 78.72C558.95 78.1 558.45 77.51 557.95 76.92C558.16 76.69 558.33 76.51 558.4 76.44C557.86 75.69 557.43 75.11 557.02 74.52C556.81 74.22 556.71 73.82 556.44 73.6C555.93 73.17 555.75 72.7 555.9 72.06C556.11 71.19 555.6 70.72 554.7 70.47C554.32 70.37 553.97 70.18 553.62 70C553.11 69.73 552.43 69.62 552.01 69.23C551.09 68.37 549.91 68.07 548.83 67.58C547.86 67.14 546.88 66.74 545.87 66.39C544.56 65.94 543.31 65.23 541.97 64.92C540.61 64.61 539.18 64.61 537.8 64.38C536.18 64.12 534.65 64.12 533.28 65.18C533.16 65.27 532.98 65.28 532.82 65.32C530.11 65.99 527.4 66.69 524.68 67.31C523.09 67.68 521.47 67.96 519.86 68.2C519.44 68.26 518.9 68.17 518.56 67.94C517.7 67.35 516.93 66.63 516.12 65.97C514.75 64.84 514.64 64.85 513.52 65.67C513.28 65.85 512.91 65.85 512.62 65.97C511.55 66.42 510.45 66.82 509.44 67.38C508.97 67.64 508.56 68.16 508.34 68.66C506.98 71.76 507.82 74.89 508.99 77.88C509.56 79.33 510.25 80.72 510.93 82.12C512.17 84.66 511.63 87.28 511.16 89.8C510.78 91.81 510.43 93.83 510.16 95.86C509.82 98.42 509.72 101.02 509.47 103.59C509.39 104.47 508.93 104.8 508.06 104.7C505.64 104.42 503.22 104.09 500.8 103.82C500.1 103.74 499.36 103.62 498.7 103.78C497.14 104.17 495.97 105.27 494.69 106.2C494.93 106.73 495.26 107.19 495.31 107.67C495.39 108.41 495.75 108.86 496.24 109.4C497.15 110.4 498.19 111.39 498.54 112.78C498.94 114.37 499.35 115.96 499.62 117.58C499.74 118.29 500.06 118.79 500.58 119.13C502.34 120.28 503.94 121.79 506.23 121.9C506.6 121.92 506.95 122.25 507.32 122.44C507.77 122.67 508.21 122.89 508.73 123.15C509.04 124.44 509.15 125.81 508.75 127.25C508.47 128.25 508.59 129.35 508.42 130.39C508.25 131.42 508.02 132.46 507.66 133.45C507.31 134.4 506.91 135.27 507.16 136.35C507.41 137.42 507.43 138.55 507.55 139.65C507.66 140.69 507.7 141.75 507.91 142.77C508.28 144.52 509.22 145.89 510.56 147.15C511.29 147.84 512.22 148.22 513.14 148.24V148.33H565.45V137.13C564.74 136.5 564.05 135.89 563.37 135.28" fill="#0F2350"/>
<path d="M305.91 67.62C305.7 66.78 305.58 65.91 305.47 65.05C305.24 63.26 304.85 61.53 303.75 60.07C302.91 58.95 301.79 58.02 301.53 56.53C301.49 56.33 301.28 56.15 301.11 55.99C300.44 55.31 299.74 54.64 299.07 53.96C298.59 53.47 298.06 53.28 297.34 53.32C296.62 53.36 295.89 53.21 295.16 53.1C293.94 52.92 292.74 52.49 291.5 53.05C291.23 53.17 290.86 53.1 290.55 53.05C289.74 52.9 288.94 52.71 288.13 52.54C287.87 52.48 287.55 52.5 287.35 52.36C286.38 51.7 285.44 50.98 284.47 50.31C283.24 49.46 281.09 49.34 280.08 51.06C279.66 51.77 279.11 52.4 278.55 53.02C277.74 53.92 277.32 54.96 277.3 56.15C277.26 58.26 277.26 60.38 277.26 62.49C277.26 62.81 277.3 63.15 277.42 63.44C278.31 65.56 277.85 67.7 277.53 69.83C277.45 70.36 277.32 70.98 276.98 71.35C276.17 72.24 275.45 73.16 274.8 74.19C274.21 75.12 273.62 76.03 273.12 77.03C272.89 77.02 272.64 77.01 272.36 76.99C272.07 78.21 271.53 79.18 270.56 79.95C270.08 80.33 269.52 80.91 269.95 81.75C270.04 81.92 269.85 82.27 269.72 82.5C268.85 84.06 267.96 85.6 267.09 87.16C266.8 87.69 266.28 88.16 266.56 88.88C267.62 88.63 267.74 88.66 267.9 88.06C268.14 87.2 268.75 86.76 269.47 86.24C268.76 87.68 268.08 89.02 267.45 90.38C266.99 91.37 266.71 92.41 265.86 93.24C265.13 93.95 264.68 94.96 264.14 95.87C263.7 96.61 263.47 97.52 262.89 98.1C262.07 98.91 261.77 99.91 261.33 100.88C260.69 102.28 260.05 103.69 259.4 105.09C259.35 105.21 259.19 105.28 259.13 105.39C258.94 105.74 258.76 106.09 258.62 106.46C258.42 106.97 258.34 107.56 258.04 108C257.44 108.9 256.93 109.84 256.51 110.84C256.19 111.6 255.81 112.32 255.46 113.06C254.74 114.58 253.99 116.1 253.32 117.64C253.07 118.23 252.93 118.82 252.41 119.29C252.09 119.58 252.04 120.17 251.89 120.63C251.79 120.93 251.74 121.25 251.63 121.54C251.34 122.26 250.97 122.96 250.74 123.7C250.39 124.79 249.39 125.64 249.49 126.9C248.67 127.27 248.87 128.06 248.72 128.71C248.65 129.01 248.49 129.3 248.36 129.58C247.94 130.5 247.3 131.38 247.16 132.33C247.06 133.02 246.82 133.46 246.44 133.84C246.01 133.59 245.59 133.35 245.15 133.1C244.65 133.44 243.99 133.64 243.81 134.05C243.17 135.46 242.73 136.96 242.14 138.39C241.43 140.09 240.68 141.77 239.86 143.42C239.67 143.8 239.17 144.02 238.73 144.39C239.12 145.83 237.88 146.05 236.97 146.39C236.78 147.07 236.55 147.63 236.49 148.21C236.36 149.56 236.09 150.94 236.68 152.24C236.88 152.69 237.36 153 237.58 153.44C237.98 154.23 238.28 155.07 238.63 155.9C239.74 155.73 240.52 155.95 240.84 156.98C241.24 158.26 242.18 158.97 243.41 159.37C243.62 159.44 243.94 159.53 244 159.69C244.38 160.71 245.36 160.81 245.96 161.11C246.65 160.93 247.18 160.64 247.67 160.69C248.68 160.8 249.45 160.54 249.95 159.68C251.35 160.3 252.14 159.94 252.89 158.61C253.4 157.71 254.1 156.91 254.7 156.06C255.04 155.58 255.34 155.08 255.66 154.59C255.98 154.1 256.3 153.62 256.62 153.13C256.74 152.95 256.89 152.77 256.98 152.57C258.05 150.24 258.82 147.78 259.85 145.43C260.75 143.37 261.44 141.21 262.31 139.12C262.55 138.54 262.96 138.01 263.11 137.41C263.45 136.1 263.82 135.73 265.16 135.72C265.79 135.72 266.42 135.72 267.3 135.72C267.31 135.73 267.55 135.96 267.83 136.11C268.96 136.76 270.11 137.11 271.29 136.24C272.21 135.56 273.14 134.91 274.03 134.19C274.83 133.55 275.61 132.95 276.73 133.02C278.65 133.13 280.59 133.1 282.49 133.32C283.52 133.43 284.53 133.87 285.49 134.29C285.71 134.39 285.93 134.53 286.13 134.7V153.15H303.87V79.62C304.03 79.28 304.29 78.99 304.69 78.77C304.01 77.78 304.01 76.78 304.61 75.87C304.73 75.69 304.81 75.48 304.88 75.27C305.42 73.72 305.77 72.13 305.94 70.48C306.04 69.51 306.16 68.58 305.92 67.61M245.13 137.5C243.76 137.86 244.05 139.04 243.87 140C243.84 140.18 243.78 140.46 243.67 140.49C242.81 140.77 243.04 141.79 242.38 142.3C241.78 141.78 242.24 141.38 242.38 141.01C243.04 139.41 243.74 137.83 244.41 136.23C244.73 135.45 245.06 134.7 246 134.48C246.32 135.67 245.51 136.52 245.13 137.5ZM272.31 120.57C271.87 120.66 271.51 121.11 270.87 121.57C270.98 121.11 270.97 120.88 271.06 120.82C272.41 119.93 272.76 118.38 273.53 117.11C273.79 116.69 273.92 116.25 274.34 115.9C274.78 115.53 275.02 114.93 275.37 114.45C275.9 113.73 276.4 112.97 277.02 112.33C278.15 111.15 279.12 109.87 279.97 108.48C280.43 107.72 281.05 107.06 281.6 106.35L281.9 106.54C281.29 107.64 280.62 108.72 280.07 109.85C279.55 110.94 278.7 111.89 278.52 113.16C280.57 109.84 282.77 106.63 284.94 103.41C285.59 103.71 285.93 104.11 286.13 104.55V110.18C286.02 110.46 285.97 110.74 286.13 111.05V116.23C284.8 116.87 283.34 116.88 281.95 117.23C280.85 117.51 279.76 117.84 278.67 118.17C278.37 118.26 278.08 118.55 277.79 118.54C275.68 118.47 274.24 120.15 272.31 120.57ZM281.61 131.24C280.66 131.32 279.73 131.31 278.77 131.21C277.77 131.11 277.08 130.59 276.31 130.13C275.87 129.86 275.47 129.51 275.05 129.2C275.53 127.88 282.07 124.98 286.12 124.66V130.94C284.61 131.04 283.11 131.11 281.61 131.25" fill="#0F2350"/>
<path d="M248.16 125.74C248.07 125.71 247.99 125.67 247.9 125.64C247.74 125.95 247.62 126.3 247.41 126.57C247.16 126.89 246.79 127.12 246.52 127.43C246.03 127.99 246.19 128.51 246.96 129.23C247.41 127.92 247.78 126.83 248.16 125.73" fill="#16244B"/>
<path d="M262.43 97.4C261.49 97.74 260.85 97.93 260.64 98.77C260.48 99.41 260.11 99.99 259.83 100.6C259.92 100.64 260 100.68 260.08 100.72C260.81 99.68 261.55 98.64 262.42 97.4" fill="#16244B"/>
<path d="M251.72 117.28C251.08 117.95 250.71 118.82 249.93 119.74C251.54 119.43 251.13 118.01 251.72 117.28Z" fill="#16244B"/>
<path d="M256.39 107.11C255.93 108 255.61 108.63 255.27 109.3C256.2 109.03 256.37 108.73 256.39 107.11Z" fill="#16244B"/>
<path d="M257.66 104.53C256.82 104.86 257 105.4 257.15 105.98C257.8 105.66 258.11 105.27 257.66 104.53Z" fill="#16244B"/>
<path d="M246.23 131.03C246.37 130.91 246.55 130.84 246.72 130.74C246.62 130.58 246.52 130.44 246.36 130.2C245.98 130.52 245.69 130.85 245.77 131.67C246.02 131.31 246.1 131.14 246.23 131.03Z" fill="#16244B"/>
<path d="M248.53 122.14C248.39 122.25 248.36 122.51 248.25 122.77H249.6C249.29 122.19 249.12 121.68 248.53 122.14Z" fill="#16244B"/>
<path d="M248.44 124.79C248.59 124.48 248.73 124.16 248.88 123.85C248.81 123.78 248.74 123.71 248.66 123.64C248.44 123.79 248.16 123.9 248.02 124.11C247.94 124.23 248.1 124.51 248.18 124.7C248.2 124.74 248.31 124.74 248.44 124.78" fill="#16244B"/>
<path d="M249.88 120.7C249.78 120.62 249.68 120.54 249.59 120.45C249.41 120.85 248.85 120.93 249.07 121.65C249.34 121.33 249.62 121.02 249.89 120.7" fill="#16244B"/>
<path d="M264.5 93.38C264.69 93.15 264.88 92.92 265.21 92.51C264.78 92.55 264.6 92.57 264.44 92.58C264.4 92.82 264.35 93.05 264.31 93.29C264.37 93.32 264.44 93.35 264.5 93.38Z" fill="#16244B"/>
<path d="M264.4 92.59C264.4 92.59 264.42 92.59 264.43 92.59C264.43 92.59 264.43 92.57 264.43 92.56C264.42 92.57 264.41 92.58 264.4 92.59Z" fill="#16244B"/>
<path d="M253.84 113C253.253 113.173 252.99 113.47 253.05 113.89C253.26 113.66 253.45 113.44 253.84 113Z" fill="#16244B"/>
<path d="M265.02 91.9C264.87 91.82 264.66 91.65 264.6 91.69C264.27 91.9 264.15 92.2 264.43 92.55C264.61 92.35 264.79 92.15 265.02 91.9Z" fill="#16244B"/>
<path d="M466.02 42.22C465.21 42.08 464.4 42.15 463.61 42.09C461.53 41.93 461.55 41.83 459.3 42.39C459.1 42.44 458.87 42.36 458.65 42.34C458.02 42.28 457.18 41.95 456.8 42.23C456.13 42.72 455.56 41.99 454.96 42.38C454.42 42.73 453.74 42.51 453.13 42.54C451.34 42.61 449.56 43.05 447.78 43.37C446.58 43.59 445.45 44.46 444.15 43.72C444.08 43.68 443.94 43.77 443.82 43.78C442.66 43.94 441.51 44.16 440.34 44.25C437.57 44.46 434.88 45.21 432.1 45.35C430.95 45.41 429.82 45.78 428.66 45.91C424.11 46.41 419.57 47 415.05 47.81C412.1 48.34 409.17 49.1 406.15 49.26C405.93 49.27 405.68 49.31 405.5 49.42C404.22 50.19 402.73 50.26 401.36 50.72C399.04 51.51 396.58 51.72 394.25 52.55C392.79 53.07 391.02 52.69 389.51 53.13C388.04 53.56 386.87 53.66 385.5 52.82C384.4 52.14 383.11 53.51 381.87 52.91C381.87 52.91 381.82 53 381.8 53.05C381.6 53.53 381.32 53.53 380.86 53.33C380.56 53.2 380.15 53.31 379.8 53.31C379.3 53.31 378.77 53.41 378.3 53.28C376.6 52.8 375.31 53.6 374.15 54.61C373.14 55.49 372.27 56.53 371.27 57.56C371.88 58.79 371.18 59.77 370.56 60.78C370.37 61.09 370.09 61.41 370.08 61.74C370.01 63.51 370 65.29 370.08 67.07C370.11 67.62 370.21 68.17 370.3 68.71C370.41 69.35 370.41 70.04 370.63 70.65C371.71 73.53 374.04 74.89 376.73 75.64C377.49 76.36 378 77.22 378.69 77.4C380.52 77.89 381.76 79.17 382.91 80.43C384.02 81.64 385.23 82.69 386.51 83.69C387 84.07 387.6 84.31 388.21 84.4C389.46 84.58 390.73 84.65 391.99 84.71C392.3 84.72 392.76 84.62 392.91 84.4C393.65 83.31 394.7 82.43 394.88 80.97C394.97 80.23 395.28 79.39 395.76 78.85C397.22 77.22 398.74 75.64 400.47 74.35V149.89H418.22V64.82C418.77 64.62 419.17 64.45 419.29 64.37C420.23 63.76 421.11 63.06 421.95 62.45C422.17 62.52 422.45 62.71 422.7 62.67C423.23 62.59 423.74 62.4 424.25 62.23C425.11 61.96 425.99 61.71 426.83 61.38C428.55 60.69 429.91 59.3 431.85 58.96C432.56 58.84 433.16 58.15 433.81 57.71C433.77 57.57 433.77 57.58 433.72 57.44H431.37C431.68 56.83 431.98 56.24 432.26 55.69C433.94 55.88 434.69 55.69 435.56 54.61C435.95 54.13 436.32 53.65 436.9 53.9C437.29 54.07 437.53 54.61 437.9 55.06C438.35 54.55 438.8 54.03 439.26 53.51C439.38 53.38 439.5 53.24 439.62 53.1C439.66 53.35 439.7 53.59 439.74 53.83C440.39 53.22 441.03 53.85 441.67 53.83C442.49 53.8 443.67 54.05 444.07 53.61C444.98 52.61 446.15 52.44 447.22 51.91C448.14 51.46 448.94 51.38 449.9 51.54C450.4 51.62 450.98 51.45 451.49 51.29C452.22 51.06 452.92 50.55 453.64 50.52C454.45 50.49 455.05 50.21 455.46 49.64C455.93 48.99 456.55 48.83 457.2 48.59C457.35 49.06 457.38 49.5 457.61 49.75C457.83 49.99 458.32 50.19 458.6 50.11C459.13 49.95 459.61 49.6 460.08 49.27C461.24 48.45 462.6 48.51 463.91 48.37C464.15 48.34 464.43 48.68 464.91 48.99C464.23 49.67 463.71 50.33 463.06 50.82C460.22 52.99 456.97 54.41 453.76 55.92C451.94 56.77 450.16 57.7 448.36 58.59C449.88 58.4 451.33 58.02 452.77 57.6C453.89 57.27 455.03 56.96 456.11 56.52C458.01 55.74 459.82 54.71 461.97 54.78C462.24 54.78 462.51 54.64 462.78 54.56C465.14 53.85 466.84 52.26 468.35 50.4C469.27 49.27 469.69 47.93 469.72 46.5C469.76 44.33 468.2 42.6 466.01 42.22" fill="#0F2350"/>
<path d="M496.31 79.96C495.84 78.45 495.13 76.97 494.34 75.53C494 74.91 493.96 74.4 494.09 73.75C494.4 72.22 494.5 70.67 494.63 69.12C494.65 68.89 494.42 68.63 494.25 68.4C493.49 67.37 492.72 66.34 491.98 65.36C491.26 65.17 490.41 65.14 490 64.8C488.4 63.5 485.97 63.35 484.15 62.37C483.36 61.95 482.51 61.54 481.61 61.28C477.4 60.1 473.12 59.9 468.83 61.08C465.95 61.87 464.98 64.07 466.59 66.1C466.63 66.14 466.69 66.18 466.73 66.22C467.61 67.36 467.47 67.89 466.14 68.9C465.86 69.11 465.52 69.44 465.55 69.69C465.71 70.92 465.65 72.25 466.3 73.34C467.3 75.02 469.04 76.47 469.14 78.43C469.15 78.68 469.37 78.92 469.44 79.17C469.6 79.77 469.91 80.39 469.83 80.97C469.67 82.04 469.24 83.09 468.99 84.16C468.78 85.08 469.29 92.38 469.37 97.02H447.71C447.56 94.52 447.65 92.03 447.93 89.54C447.98 89.13 447.95 88.72 447.87 88.31C447.69 87.39 447.33 86.48 447.27 85.56C447.17 84.07 447.33 82.57 447.24 81.07C447.19 80.25 446.97 79.42 446.62 78.64C446.08 77.44 446.16 76.33 446.97 75.21C448.52 73.09 446.83 70.18 443.33 69.45C442.51 69.28 441.94 69.5 441.51 69.96C440.49 71.07 439.4 72.17 438.54 73.35C437.61 74.62 437.13 76.09 436.07 77.29C434.46 79.13 434.39 81.24 433.7 83.23C432.89 85.58 432.56 88.02 432.04 90.43C431.97 90.74 431.94 91.05 431.95 91.36C431.96 93.06 432.06 94.77 432 96.47C431.93 98.55 431.73 100.62 431.63 102.7C431.54 104.73 431.48 106.75 431.45 108.78C431.42 111.3 430.68 113.77 430.55 116.29C430.41 118.94 430.41 121.57 430.86 124.19C431.28 126.66 431.87 129.12 432.44 131.57C432.56 132.07 432.88 132.55 433.14 133.03C434.01 134.61 435.47 135.96 436.09 137.67C436.4 138.51 437.43 139.4 438.82 139.95C440.26 140.53 441.74 140.89 443.28 141.24C445.5 141.75 447.61 141.03 449.77 141C450.13 141 450.57 140.73 450.82 140.5C451.82 139.61 452.62 138.64 452.73 137.44C452.77 136.97 452.62 136.4 452.93 136.06C454.06 134.83 453.1 133.8 452.61 132.69C452.09 131.52 451.76 130.3 451.39 129.1C451.36 128.99 450.52 122.49 449.87 117.14H470.11C470.36 121.84 470.6 126.53 470.82 131.23C470.94 133.73 470.97 136.23 471.1 138.72C471.44 145.1 471.44 151.46 469.55 157.74C469.37 158.35 469.38 158.88 469.81 159.44C470.34 160.13 470.62 160.8 469.77 161.56C469.41 161.88 469.54 162.5 469.45 162.99C469.59 163.02 469.73 163.04 469.87 163.07C470.64 161.53 471.4 159.99 472.17 158.45C472.3 158.48 472.42 158.51 472.55 158.53C472.41 159.5 472.27 160.47 472.13 161.44C472.25 161.46 472.37 161.48 472.49 161.5C473.01 160.01 473.52 158.53 474.04 157.04C474.26 159.72 472.6 162.12 472.1 164.71C472.85 164.02 473.77 163.36 474.02 162.57C474.5 161.01 474.87 159.48 475.73 157.97C476.42 156.74 477.39 156.28 478.97 155.93V157.49C479.12 156.71 479.38 156.09 480.62 155.94C480.36 155.33 480.22 154.8 479.91 154.33C479.56 153.82 479.06 153.36 478.61 152.87C479.03 152.68 479.32 152.54 479.7 152.37C479.79 152.81 479.86 153.15 480 153.85C480.51 152.71 480.87 151.9 481.23 151.06C482.197 151.593 482.377 152.347 481.77 153.32C482.73 153.53 482.79 153.12 482.85 152.58C482.98 151.39 482.99 150.16 483.42 149.02C483.84 147.92 483.85 147.11 482.2 146.64C483.31 145.6 481.19 144.75 482.22 143.77C483.2 142.84 482.11 141.81 482.42 140.82C482.72 139.88 482.82 138.9 483.01 137.94C483.44 139.2 483.67 140.44 483.68 141.67C483.68 142.85 483.44 144.02 483.3 145.2C483.72 144.36 484.27 143.65 484.12 142.65C483.75 140.24 484.03 137.78 484.03 135.34C484.03 135.27 483.89 135.2 483.81 135.14C483.51 135.23 483.23 135.33 482.8 135.46C482.54 134.16 483.06 132.95 482.42 131.8C482.32 131.61 482.6 131.32 482.67 131.07C483.02 129.8 483.46 128.54 483.66 127.26C483.79 126.42 483.74 125.52 483.44 124.71C483.1 123.78 482.95 122.9 483.28 121.96C483.39 121.66 483.24 121.31 483.17 120.98C483.11 120.73 482.88 120.49 482.89 120.25C482.95 118.91 483.06 117.58 483.15 116.25C483.21 115.4 483.45 114.61 484.44 113.95C483.48 113.85 483.39 113.43 483.63 112.82C483.84 112.27 483.92 111.7 484.02 111.13C484.34 109.31 484.65 107.49 484.97 105.62C486.59 106.09 485.47 106.88 485.71 107.46C485.95 108.04 485.83 108.7 485.85 109.33C485.87 109.95 485.86 110.57 485.87 111.18C486.05 111.18 486.23 111.18 486.4 111.17C486.46 110.73 486.52 110.29 486.57 109.84C486.88 106.78 487.13 103.71 487.52 100.65C487.59 100.08 488.08 99.48 488.58 99.02C489.98 97.73 491.49 96.51 492.93 95.24C493.16 95.04 493.23 94.74 493.59 94.12C491.61 94.73 490.09 95.2 488.4 95.72C488.28 95.17 487.98 94.68 488.13 94.28C489.2 91.43 489.3 88.43 490.75 85.63C491.4 84.37 492.37 83.63 493.91 83.14C495.86 82.52 496.79 81.49 496.32 79.97M470.82 159.26H470.47C470.43 158.8 470.4 158.33 470.36 157.86C470.52 157.85 470.67 157.83 470.82 157.82V159.27V159.26ZM479.59 126.35C480.9 128.49 480.38 130.54 480.76 132.52C480.23 132.47 479.88 132.44 479.39 132.4C479.53 130.52 478.59 128.56 479.59 126.35ZM480.43 136.98C481.37 137.44 480.8 138.25 480.51 138.82C480.09 139.64 479.96 139.67 480.77 140.23C480.65 140.8 479.19 141.13 480.05 141.9C480.16 142 480.56 141.94 480.82 141.95C480.9 143.24 480.98 144.56 481.06 146C480.76 146.03 480.45 146.07 480.01 146.12C479.74 147.45 478.42 148.67 479.15 150.22C479.33 150.6 478.62 151.2 478.32 151.7C478.23 151.68 478.14 151.66 478.05 151.63C478.24 150.61 478.51 149.59 478.62 148.57C478.8 146.92 478.89 145.27 479.01 143.62C479.1 142.28 479.21 140.95 479.26 139.61C479.28 139.15 479.09 138.68 479.08 138.22C479.06 136.58 479.08 134.93 479.08 133.26C479.58 133.4 480 133.52 480.79 133.75C480.87 134.37 480.98 135.26 481.09 136.17C480.67 136.24 480.14 136.22 479.99 136.38C479.74 136.64 480.02 136.76 480.45 136.97" fill="#0F2350"/>
<path d="M740.58 125.73C740.19 125.78 739.71 125.7 739.44 125.91C734.73 129.53 729.54 132.03 723.85 133.36V80.64C723.97 80.46 724.11 80.33 724.26 80.27C726.11 79.56 727.1 77.97 728.51 76.85C728.97 76.49 729.41 76.08 729.93 75.82C731.9 74.82 732.37 73.16 730.77 71.69C728.9 69.97 727.92 67.79 726.83 65.62C726.65 65.26 726.38 64.88 726.04 64.67C722.12 62.26 718.27 59.73 714.23 57.54C712.02 56.34 709.6 55.25 706.88 56C706.12 56.21 705.35 56.37 704.58 56.53C701.52 57.15 700.38 59.29 701.66 62.09C701.94 62.71 702.41 63.25 702.73 63.86C703.13 64.62 703.63 65.37 703.81 66.19C704.49 69.3 705.01 72.45 705.68 75.57C705.86 76.39 706.03 77.2 706.18 78.02H706.11V93.48C705.7 97.39 705.19 101.3 705.12 105.24C705.06 108.66 703.68 111.94 704.03 115.39C704.3 118.14 703.67 120.76 703.08 123.4C702.8 124.65 702.55 125.9 702.32 127C700.21 127.35 698.45 127.64 696.82 127.91C696.62 128.65 696.65 129.62 696.2 129.95C695.2 130.69 694.61 131.49 694.45 132.73C694.41 133.07 693.72 133.34 693.33 133.64C693.2 133.53 693.08 133.43 692.95 133.32C693.08 132.7 693.2 132.09 693.32 131.52C692.15 130.69 691.14 131.3 690.91 132.17C690.69 133.03 691.07 134.19 691.53 135.04C692 135.91 692.87 136.56 693.57 137.3C693.39 137.35 693.21 137.39 693.02 137.43C692.82 140.53 692.51 143.63 692.45 146.73C692.38 150.12 695.63 151.92 696.41 154.7C698.29 155.49 699.53 154.92 700.85 153.76C701.91 152.84 702.62 151.28 704.38 151.28C704.55 151.28 704.85 150.94 704.86 150.75C704.94 149.23 707.03 149.12 707.11 147.59C707.11 147.57 707.72 147.59 708.2 147.59C707.44 148.54 706.91 149.39 708.08 150.48C708.94 149.32 709.75 148.23 710.4 147.35C711.22 147.42 711.93 147.62 712.57 147.5C715.38 146.95 718.14 146.09 720.97 145.77C722.9 145.56 723.65 144.76 724.19 143.02C724.79 141.08 725.43 139.17 727.31 137.76C731.38 134.73 735.22 131.39 739.13 128.15C739.81 127.59 740.32 126.83 740.91 126.17L740.59 125.74L740.58 125.73Z" fill="#0F2350"/>
<path d="M720.19 147.47L720.36 148.12C721.19 147.88 722.01 147.64 722.84 147.4C722.79 147.22 722.74 147.04 722.7 146.85C721.86 147.06 721.03 147.27 720.19 147.47Z" fill="#16244B"/>
<path d="M614.17 117.12C614.7 117.12 614.99 116.94 614.93 116.46C614.9 116.2 614.77 115.82 614.92 115.71C615.57 115.23 615.64 114.76 615.25 114.14C615.15 113.98 615.27 113.69 615.36 113.48C615.96 112.23 615.6 110.77 616.59 109.59C616.72 109.43 616.57 109.11 616.54 108.77C615.62 109.62 614.41 114.01 614.17 117.12Z" fill="#16244B"/>
<path d="M617.97 100.53C616.73 102.63 617.01 105.02 616.1 107.23C616.45 107.16 616.92 106.95 616.89 106.85C616.48 105.53 617.78 104.4 617.46 103.1C618.2 102.34 618 101.41 617.98 100.53" fill="#16244B"/>
<path d="M613.45 120.59C613.59 120.61 613.73 120.64 613.88 120.66C614.08 119.8 615.22 119.07 614.24 117.81C613.94 118.87 613.7 119.73 613.46 120.59" fill="#16244B"/>
<path d="M613.2 123.92C613.44 123.4 613.66 122.94 613.95 122.33C613.377 122.743 613.127 123.273 613.2 123.92Z" fill="#16244B"/>
<path d="M631.21 66.82C630.99 64.11 630.29 61.45 629.07 58.96C628.17 57.12 627.54 55.24 626.91 53.34C626.48 52.07 625.64 50.96 624.59 50.06C623.15 48.83 621.42 47.83 619.8 46.75C619.61 46.62 619.31 46.6 619.1 46.54C618.55 47.23 618.24 48.21 618.22 48.93C618.18 50.38 618.15 51.83 618.05 53.27C617.82 56.33 616.48 59.16 615.35 62.03C615.02 62.88 614.15 63.69 615.04 64.68C615.21 64.87 615.04 65.31 614.93 65.61C614.46 66.84 614.68 68.15 614.12 69.39C613.83 70.05 614.07 70.85 613.87 71.55C613.48 72.98 612.83 74.36 612.52 75.8C611.98 78.29 610.53 80.7 611.33 83.34C611.38 83.5 611.31 83.72 611.21 83.87C610.89 84.38 610.89 84.88 610.98 85.46C611.07 86.03 610.87 86.63 610.79 87.22C610.66 88.16 610.52 89.11 610.39 90.05C610.23 91.21 610.07 92.38 609.91 93.54C609.78 93.56 609.66 93.57 609.53 93.59C609.41 93.29 609.24 92.99 609.16 92.69C608.72 90.93 605.26 88.52 604.78 86.76C604.55 85.91 598.93 80.3 598.37 79.6C597.01 77.89 591.51 76.27 590.74 74.4C590.23 73.16 585.57 73.21 584.29 72.46C583.17 71.81 577.76 68.9 576.4 68.48C575.46 68.19 575.07 68.05 574.36 68.63C574.05 68.88 573.82 69.19 573.5 69.42C572.47 70.16 568.89 71.36 569.34 72.63C569.41 72.83 568.02 74.74 570.05 75.98H570V148.23H587.75V127.27C588.32 126.83 588.46 126.42 588.19 125.85C588.03 125.51 587.89 125.17 587.75 124.82V105.94C587.76 104.32 587.66 102.68 588.54 101.26C588.91 100.66 588.17 100.1 587.75 99.56C587.75 99.56 589.04 95.03 589.25 93.83C589.35 93.28 588.6 88.1 589.43 87.76C589.59 88.4 591.36 92.9 593.14 95.42C594.81 97.78 595.32 101.47 595.6 104.36C595.81 106.45 596.03 108.54 596.23 110.63C596.26 110.98 596.17 111.34 596.16 111.69C596.13 112.65 595.82 113.7 596.19 114.55C596.47 115.19 596.78 115.79 596.74 116.46C596.68 117.32 596.53 118.18 596.42 119.04C596.4 119.22 596.34 119.45 596.44 119.58C597.27 120.67 596.98 121.93 597.1 123.1C597.28 124.76 596.83 126.47 597.06 128.12C597.45 130.9 597.29 133.72 598.04 136.48C598.49 138.15 599.01 139.82 598.26 141.57C597.92 142.38 598.87 143.16 600.14 143.38C600.22 143.39 600.29 143.47 600.4 143.56C600.31 143.92 600.22 144.31 600.14 144.64C600.76 145.02 601.44 145.26 601.78 145.68C602.12 146.11 602.13 146.72 602.33 147.41C602.77 147.1 603 146.93 603.22 146.78C603.47 147.06 603.66 147.41 603.99 147.6C604.34 147.79 604.81 147.82 605.29 147.93C605.78 147.21 605.29 145.89 607.01 145.84C607.31 146.46 606.54 147.48 608.06 147.74C608.32 147.2 608.56 146.7 608.86 146.09C609.07 146.64 609.24 147.07 609.4 147.51C609.53 147.51 609.65 147.51 609.78 147.51C609.93 147 610.13 146.5 610.21 145.98C610.28 145.58 610.04 145.1 610.21 144.75C610.9 143.38 610.42 140.7 610.09 140.83C610.09 140.31 611.25 139.93 611.28 139.61C611.32 139.23 611.03 138.7 611.25 138.47C612.29 137.35 612 136.03 612.01 134.82C612.01 134 612.2 133.19 612.25 132.39C612.34 131.12 612.53 129.81 612.98 128.54C613.4 127.32 613.3 125.97 613.42 124.68C613.2 124.68 613.01 124.67 613 124.68C612.17 129.22 611.35 133.76 610.5 138.47C609.78 137.91 609.94 137.38 610.13 136.87C610.41 136.13 610.49 135.43 610.47 134.63C610.45 133.82 610.61 132.99 610.4 132.16C610.36 132 610.64 131.8 610.74 131.61C610.85 131.41 610.91 131.19 611 130.98C609.6 132.35 609.6 134.06 609.22 135.69C609.19 135.9 609.14 136.1 609.06 136.31C609.12 136.1 609.18 135.9 609.22 135.69C609.36 134.61 608.77 133.57 608.86 132.46C609.1 129.73 608.94 129.48 610.13 127.32C610.24 127.11 610.15 126.83 610.15 126.56C609.76 126.62 609.47 126.67 609.16 126.72C609.1 125.65 609.59 124.84 610.94 124.61C611.96 124.44 611.74 123.99 611.91 123.57C611.82 123.51 611.73 123.44 611.65 123.38C611.35 123.62 611.06 123.86 610.85 124.03C610.6 123.79 610.16 123.56 610.11 123.28C610.03 122.85 610.24 122.39 610.27 121.93C610.29 121.61 610.19 121.29 610.18 120.96C610.18 120.73 610.15 120.48 610.25 120.28C610.56 119.68 610.92 119.1 611.27 118.5C612.58 118.69 612.95 118.43 613.17 117.12C612.43 117.39 611.65 117.68 610.49 118.1C611.33 116.6 611.99 115.36 612.71 114.15C612.8 114 613.42 114.36 613.3 114.73C613.65 114.47 614.01 114.27 613.97 114.21C613.57 113.43 614.23 112.85 614.46 112.2C614.7 111.53 614.89 110.85 614.36 110.18L613.03 112.39C612.82 112.31 612.51 110.57 613.25 109.75C613.34 109.98 613.42 110.2 613.48 110.36C613.99 109.75 614.45 109.13 614.99 108.56C615.6 107.93 614.53 106.97 615.61 106.46C615.48 104.91 616.63 103.49 616.22 101.91C616.14 101.62 616.27 101.24 616.45 100.97C617.42 99.55 617.3 97.93 617.52 96.4C617.67 95.36 617.36 94.31 618.15 93.32C618.47 92.92 618.43 92.34 618.56 91.83C618.72 91.85 618.87 91.86 619.03 91.88C619.36 94.27 617.92 96.57 618.18 98.97C618.63 97.69 619.61 96.5 619.12 95.06C619.04 94.84 619.23 94.54 619.34 94.29C619.62 93.6 620.08 92.92 620.14 92.22C620.17 91.79 619.95 91.44 620.4 91C620.78 90.64 620.87 90.03 620.97 89.52C621.32 87.57 622.57 85.95 623.55 84.08C623.71 81.49 625.52 80.84 625.87 78.9C626.22 76.96 629.69 75.63 629.69 75.63C629.94 75.03 629.97 74.48 630.29 74.29C631.63 73.52 631.5 72.34 631.53 71.29C631.58 69.81 631.31 68.32 631.19 66.83M610.14 102.02C610.77 105.33 609.59 104.97 609.33 106.45C608.54 106.48 608.17 106.18 608.1 105.54C608.02 104.8 608.49 103.97 609.32 103.57C609.13 103.13 608.98 102.65 608.76 102.23C607.24 99.37 610.02 101.38 610.14 102.02Z" fill="#0F2350"/>
<path d="M811.74 98.55C811.03 98.31 810.3 98.05 809.57 97.99C807.84 97.85 806.81 96.97 806.22 95.37C805.93 94.59 805.44 93.89 805.02 93.14C804.02 93.87 803.17 94.49 802.59 94.92C801.65 94.36 801.03 93.98 800.14 93.45C800.65 95.57 801.14 97.3 801.45 99.06C801.63 100.08 801.55 101.15 801.54 102.2C801.53 102.94 801.31 103.7 801.38 104.43C801.45 105.26 801.33 105.77 800.56 106.28C799.21 107.19 798.02 108.35 796.7 109.3C793.98 111.24 791.23 113.12 788.47 115.01C787.99 115.34 787.44 115.76 786.91 115.76C785.27 115.76 784.13 116.83 782.79 117.46C780.99 118.31 779.22 119.25 777.39 120.01C775.63 120.74 773.79 121.28 772.31 121.79C771.51 121.22 771.07 120.7 770.51 120.53C767.96 119.77 766.15 117.97 764.37 116.19C762.31 114.14 761.32 111.39 760.37 108.74C758.9 104.64 757.18 104.56 756 100.37C755.69 99.27 755.22 95.08 754.85 92.72C754.93 91.67 755.05 90.62 755.21 89.57C755.82 85.6 757.07 81.83 759.51 79.28C762.03 76.65 765.87 75.37 771.25 75.37C774.82 75.37 777.7 76.01 779.85 77.28C780.87 77.88 781.73 78.62 782.42 79.49C782.77 79.94 783.06 80.4 783.3 80.84C784.21 82.51 784.4 83.99 784.4 84.01C784.39 83.9 784.39 83.84 784.39 83.84L785.86 83.73L801.59 82.51C801.51 81.43 800.89 75.76 796.86 70.01C793.06 64.58 785.53 58.11 771.25 58.11C761.05 58.11 752.9 61.22 747.04 67.35C736.45 78.42 737.22 95.77 737.59 104.11C737.64 105.25 737.68 106.24 737.68 106.89H737.79C737.79 107.14 737.79 107.4 737.82 107.65C738.09 110.01 738.85 112.31 739.44 114.63C739.54 115.01 739.84 115.34 740.05 115.69C740.61 116.6 741.11 117.56 741.77 118.4C742.77 119.69 742.98 121.29 743.65 122.69C744.64 124.73 745.72 126.73 746.81 128.72C747.6 130.15 748.46 131.55 749.34 132.93C749.9 133.81 750.52 134.65 751.16 135.47C752 136.55 752.66 137.78 754.08 138.34C755.21 138.79 756.3 139.43 757.28 140.16C758.88 141.34 760.34 142.68 762.57 142.43C763.04 142.38 763.58 142.68 764.05 142.91C765.86 143.8 767.48 145.05 769.57 145.36C771.24 145.61 772.77 146.89 774.61 145.86C774.92 145.68 775.59 146.07 776.06 146.27C777 146.69 777.91 147.17 778.88 147.65C779.12 148.12 779.41 148.71 779.89 149.66C780.43 148.8 780.88 148.32 781.06 147.76C781.61 146.04 782.04 144.27 782.56 142.54C782.74 141.94 783.01 141.37 783.32 140.82C784.03 139.56 784.89 138.38 784.69 136.78C784.64 136.34 784.92 135.73 785.25 135.4C786.66 134 788.14 132.68 789.59 131.32C790.26 130.7 790.92 130.07 791.84 129.21C790.77 129.52 790.09 129.66 789.46 129.9C788.75 130.18 788.14 130.19 787.57 129.44C787.85 128.94 788.19 128.41 788.45 127.84C789.33 125.92 790.34 124.11 792.25 123C792.34 122.94 792.43 122.83 792.47 122.73C792.76 121.87 793.36 121.58 794.54 122.04C794.18 120.82 794.76 120.25 795.41 119.78C795.79 119.51 795.86 118.54 796.73 119.12C796.79 119.16 797.31 118.32 797.73 118.07C798.48 117.61 798.9 116.69 799.97 116.63C800.39 116.61 800.73 115.94 801.18 115.75C801.98 115.42 801.88 114.71 802.06 114.1C802.45 112.79 803.49 112.04 804.54 111.35C806.13 110.31 807.9 109.47 808.27 107.31C808.31 107.1 808.47 106.91 808.58 106.69C807.83 106.29 807.72 105.74 808.26 105.19C808.49 104.95 808.93 104.9 809.32 104.75C809.39 105.34 809.44 105.77 809.49 106.2C809.6 106.2 809.72 106.21 809.83 106.22C809.93 105.35 810.03 104.48 810.12 103.66C810.86 103.39 811.58 103.25 812.15 102.87C812.69 102.51 813.27 101.99 813.48 101.41C813.76 100.63 812.57 98.87 811.73 98.58" fill="#0F2350"/>
<path d="M796.21 126.49C797.04 126.29 797.85 126.06 798.17 124.63C797.28 125.26 796.66 125.7 796.04 126.13L796.2 126.49H796.21Z" fill="#16244B"/>
<path d="M799.36 124.51C800.153 123.95 800.57 123.4 800.61 122.86C800.04 123.36 799.57 123.78 799.1 124.19C799.19 124.3 799.27 124.4 799.36 124.5" fill="#16244B"/>
<path d="M798.12 120.44C797.78 120.95 797.44 121.45 797.2 121.82C797.79 121.76 798.27 121.4 798.12 120.44Z" fill="#16244B"/>
<path d="M794.12 123.06C793.91 123.44 793.7 123.81 793.49 124.19L793.89 124.41C794.1 124.03 794.31 123.66 794.52 123.28C794.38 123.2 794.25 123.13 794.11 123.05" fill="#16244B"/>
<path d="M794.89 123.19C795.49 123.19 796.04 123.16 795.85 122.17C795.45 122.59 795.17 122.89 794.89 123.19Z" fill="#16244B"/>
<path d="M794.44 127.07C794.38 127.32 794.32 127.57 794.26 127.82C794.39 127.85 794.52 127.88 794.64 127.91C794.67 127.68 794.72 127.44 794.72 127.21C794.72 127.16 794.53 127.11 794.43 127.07" fill="#16244B"/>
<path d="M792.99 128.81C793.1 128.83 793.2 128.85 793.31 128.87C793.37 128.58 793.43 128.28 793.49 127.99C793.38 127.99 793.26 127.97 793.15 127.97L793 128.81H792.99Z" fill="#16244B"/>
<path d="M381.43 116.35V75.78H364.18V94.46C364.02 94.95 363.85 95.44 363.66 95.92C361.32 101.87 358.27 107.42 354.54 112.65C352.53 115.48 349.92 117.55 347.42 119.8C347.12 120.07 346.68 120.23 346.28 120.34C345.71 120.5 344.16 120.07 342.55 119.23C342.06 118.98 341.73 118.41 341.33 117.99C340.21 116.81 340.41 114.66 338.42 114.13C338.34 113.37 338.34 112.65 338.19 111.96C337.79 110.11 337.21 108.3 336.93 106.44C336.6 104.22 336.49 101.97 336.36 99.73C336.32 99.14 336.39 98.44 336.68 97.96C337.14 97.18 337.82 96.53 338.43 95.84C340.17 93.88 342.13 92.1 341.27 88.97C340.98 87.9 340.59 87.09 339.91 86.22C339.07 85.14 338.22 85.1 337.01 85.18C334.49 85.33 333.04 84.12 332.74 82.11C332.48 80.37 332.11 78.64 331.74 76.91C331.66 76.52 331.43 76.1 331.15 75.81C330.11 74.76 329.01 73.76 328.09 72.88C327 73.97 326.01 75.15 324.82 76.1C323.01 77.54 322.01 79.42 321.36 81.54C320.48 84.41 318.07 86.26 315.08 86C313.87 85.89 313.23 86.35 312.59 87.17C312.28 87.57 311.94 88.04 311.5 88.22C309.73 88.92 309.57 89.19 310.12 91.35C311.63 90.68 312.36 91.58 313.01 92.54C313.93 93.89 314.82 95.25 315.65 96.65C316.01 97.25 316.31 97.93 316.46 98.61C317.18 101.86 317.9 105.11 318.5 108.38C318.67 109.32 318.6 110.37 318.39 111.32C318.08 112.72 318.47 113.98 318.81 115.27C319.56 118.02 320.55 120.73 321.05 123.52C321.34 125.12 321.66 126.69 322.08 128.26C322.75 130.79 322.94 133.45 325.33 135.28C326.44 136.13 327.05 137.63 327.91 138.83C328.31 139.39 328.88 139.86 329.16 140.47C330.7 143.93 333.4 146.39 336.29 148.64C337.02 149.21 337.41 150.2 338.63 150.32C340.29 150.49 346.01 152.58 348.66 151.97C348.9 151.92 349.11 151.86 349.32 151.81C361.14 151.63 368.29 146.7 372.23 142.55C381.57 132.7 381.52 118.92 381.42 116.35M355.4 126.33C357.36 123.1 358.67 119.6 359.88 116.04C361.25 112 362.79 108.02 364.17 103.99V116.72L364.18 116.99C364.27 119.45 363.63 126.61 359.65 130.75C359.6 130.8 359.55 130.85 359.5 130.89C359.43 130.87 359.35 130.86 359.28 130.84C358.52 130.66 357.76 130.44 357.03 130.17C356.31 129.9 355.63 129.53 354.64 129.06C354.9 128.06 354.95 127.07 355.4 126.32" fill="#0F2350"/>
<path d="M671.99 79.64H692.94V61.89H635.23V79.64H656.38C656.51 83.69 657.15 89.48 656.41 91.49C656.06 92.45 656.46 93.54 656.47 94.57C656.47 95.34 656.46 96.12 656.41 96.89C656.35 97.9 656.2 98.91 656.2 99.92C656.2 102.26 656.3 104.6 656.29 106.94C656.28 110.11 656.2 113.27 656.14 116.44C656.14 116.85 656.01 117.27 655.97 117.68C655.92 118.18 655.88 118.68 655.88 119.18C655.86 121.48 655.92 123.78 655.82 126.08C655.72 128.32 655.5 130.57 655.26 132.81C655.08 134.53 654.79 136.25 654.52 137.97C654.38 138.93 653.97 139.91 654.07 140.83C654.4 143.92 654.87 147 656.36 149.86C656.86 150.82 657.66 151.2 658.93 151.15C659.52 151.13 660.12 151.25 660.71 151.24C661.47 151.22 662.43 151.36 662.94 151.03C663.79 150.48 664.83 150.1 665.24 148.97C665.61 147.95 665.91 146.94 666.18 145.91C666.45 144.88 667.04 143.86 667.1 142.84C667.16 141.88 668.27 140.84 667.15 139.91C667.11 139.88 667.22 139.74 667.24 139.65C667.44 138.81 668.58 138.02 667.61 137.1C667.61 137.1 667.67 137.03 667.69 136.99C668.59 135.73 668.79 134.3 669.11 132.93C669.4 131.67 669.24 130.34 669.55 129.09C670.36 125.89 670.25 122.66 670.56 119.45C670.92 115.67 671.21 111.9 672.1 108.16C672.56 106.26 673.18 104.37 673.52 102.46C674.13 99.01 674.41 95.57 673.53 92.16C673.1 90.48 672.34 88.88 672.31 87.09C672.3 86.35 671.81 85.64 672.41 84.95C671.39 83.52 671.33 82.07 671.8 80.52C671.89 80.24 671.93 79.95 671.96 79.65" fill="#0F2350"/>
<path d="M2.37001 77.06C3.50001 80.37 1.63001 83.44 0.300013 87.41C-1.02999 94.31 2.53001 101.58 2.21001 108.48C2.11001 110.58 2.45001 112.68 3.04001 114.69C7.49001 129.65 15.76 147.3 27.02 160.17C38.71 177.29 96.11 203.89 102.21 191.06C106.12 188.82 116.76 190.35 107.21 191.06C105.02 195.3 108.54 194.45 111.7 193.91C112.78 193.73 113.47 192.52 113.06 191.45C112.32 189.55 113.24 188.03 115.98 190.06C116.24 198.36 127.89 182.64 134.15 187.73C133.42 181.35 130.2 185.34 126.64 184.41C127.37 175.68 139.12 175.01 134.13 181.75C119.37 175.65 144.97 191.14 142.89 186.78C145.9 186.45 140.79 181.58 139.8 183.09C137.57 176.73 154.71 190.14 153.58 180.44C157.09 181.35 161.41 180.51 159.22 175.8C182.16 175.78 155.59 170.06 172.76 152.62C187.3 156.3 162.03 161.62 171.12 165.18C164.79 165.95 170.97 171.71 171.17 166.55C178.28 165.02 182.04 167.62 176.14 162.51C185.09 158.75 176.62 150.82 183.65 152.57C200.78 131.53 179.87 149.86 181.15 135.98C185.73 138.09 183.41 131.84 183.66 128.03C186.3 127.99 192.73 118.81 191.32 123.71C192.83 125.14 178.84 130.87 190.55 129.35C199.14 131.65 199.29 93.74 197.59 85.4C192.56 72.05 194.29 56.69 183.24 46.31C181.65 44.82 180.94 42.68 180.65 40.46C180.55 39.7 179.77 38.95 178.76 38.3C176.34 36.75 174.49 34.43 173.48 31.63C171.75 26.87 165.05 25.88 161.72 20.2C121.89 -12.04 44.43 -7.92 8.96001 48.76C8.07001 50.18 7.97001 51.92 8.35001 53.58C8.74001 55.3 7.05001 57.86 5.77001 59.98C4.97001 61.3 5.14001 63 6.09001 64.19C7.50001 65.96 5.63001 68.07 5.10001 68.6C4.20001 69.52 3.85001 70.84 4.46001 71.99C4.93001 72.87 4.71001 73.49 3.86001 73.71C2.52001 74.05 1.90001 75.68 2.37001 77.05M180.91 145.25C186.84 143.84 182.52 149.14 179.89 149.92C178.02 147.67 175.02 142.71 180.91 145.25ZM167.37 135.73C168.17 132.77 170.55 130.53 174.25 130.03C172.71 133.11 167.57 144.4 167.37 135.73ZM155.14 149.93C154.76 153.15 161.93 156.46 156.16 157.17C154.2 152.42 149.78 154.94 155.14 149.93ZM144.29 175.25C146.77 175.58 151.49 173.39 147.94 171.16C151.56 170.7 163.87 173.74 156.08 176.46C159.34 168.35 140.54 183.36 144.29 175.26" fill="#0F2350"/>
<path d="M185.54 134.66C182.57 141.03 192.1 137.58 189.91 134.01C188.93 135.56 186.94 135.24 185.54 134.66Z" fill="#16244B"/>
<path d="M166.72 89.85C165.79 87.86 165.02 85.78 163.46 83.96C161.87 82.11 160.31 80.19 158.04 79.48C157.73 79.38 157.38 79.07 157.08 78.81C156.27 78.13 155.45 77.45 154.68 76.73C153.09 75.25 151.34 74.75 149.64 74.07C148.73 73.7 147.88 73.36 147.01 72.71C145.87 71.86 144.67 71.11 143.5 70.32C142.04 69.33 140.53 68.44 139.16 67.3C138.11 66.42 137.15 65.71 136 65.53C134.42 65.28 132.96 65.24 132.08 66.37C131.57 67.02 131.04 67.65 130.47 68.23C130.26 68.44 129.94 68.65 129.62 68.6C128.51 68.4 128.21 68.97 128.15 69.93C128.09 70.78 127.99 71.63 127.73 72.36C127.45 73.14 127.19 73.97 126.05 73.92C125.28 73.89 124.54 74.1 123.95 74.43C123.46 74.7 122.96 74.95 122.43 75.17C121.7 75.48 120.89 75.64 120.1 75.83C118.46 76.23 117.24 77.32 115.45 77.49C115.14 77.52 114.96 77.85 114.71 78.04C114.47 78.22 114.25 78.45 113.96 78.56C113.65 78.67 113.15 78.52 112.92 78.71C112.03 79.45 110.46 79.24 109.94 80.48C109.84 80.71 109.44 80.75 109.15 80.79C108.16 80.94 107.48 81.47 106.9 82.12V50.02C107.08 49.64 107.36 49.31 107.82 49.06C107.06 47.96 107.06 46.84 107.73 45.82C107.86 45.62 107.95 45.38 108.03 45.15C108.64 43.41 109.03 41.64 109.21 39.8C109.32 38.71 109.46 37.68 109.18 36.59C108.94 35.65 108.81 34.68 108.69 33.72C108.43 31.73 108 29.79 106.76 28.15C105.82 26.9 104.57 25.86 104.28 24.19C104.24 23.97 104 23.76 103.82 23.58C103.06 22.82 102.29 22.08 101.54 21.31C101 20.76 100.41 20.55 99.6101 20.6C98.8101 20.65 97.9801 20.48 97.1801 20.36C95.8201 20.16 94.4801 19.68 93.0901 20.3C92.7901 20.43 92.3801 20.35 92.0301 20.3C91.1301 20.14 90.2301 19.92 89.3301 19.73C89.0401 19.67 88.6801 19.69 88.4501 19.53C87.3601 18.79 86.3201 17.99 85.2401 17.24C83.8701 16.29 81.4701 16.15 80.3301 18.08C79.8601 18.87 79.2401 19.58 78.6201 20.27C77.7201 21.27 77.2401 22.44 77.2201 23.77C77.1801 26.13 77.1801 28.49 77.1801 30.85C77.1801 31.2 77.2201 31.59 77.3501 31.91C78.3401 34.28 77.8301 36.67 77.4801 39.05C77.3901 39.64 77.2401 40.34 76.8601 40.75C75.9601 41.75 75.1601 42.77 74.4301 43.92C73.7701 44.96 73.1101 45.98 72.5601 47.09C72.3001 47.08 72.0201 47.07 71.7101 47.05C71.3901 48.42 70.7801 49.49 69.7001 50.36C69.1601 50.79 68.5401 51.43 69.0201 52.37C69.1201 52.56 68.9101 52.95 68.7701 53.21C67.8001 54.95 66.8001 56.68 65.8201 58.42C65.4901 59.01 64.9101 59.54 65.2301 60.35C66.4201 60.07 66.5401 60.11 66.7301 59.43C67.0001 58.46 67.6801 57.98 68.4901 57.4C67.7001 59.01 66.9401 60.51 66.2301 62.03C65.7201 63.14 65.4101 64.3 64.4601 65.23C63.6401 66.03 63.1401 67.16 62.5401 68.17C62.0501 68.99 61.8001 70.02 61.1501 70.66C60.2301 71.56 59.9001 72.69 59.4001 73.77C58.6901 75.34 57.9701 76.91 57.2401 78.47C57.1801 78.6 57.0001 78.68 56.9301 78.81C56.7201 79.2 56.5201 79.6 56.3601 80.01C56.1301 80.58 56.0501 81.23 55.7201 81.73C55.0401 82.74 54.4701 83.78 54.0101 84.9C53.6501 85.74 53.2301 86.56 52.8401 87.38C52.0401 89.08 51.2001 90.77 50.4501 92.5C50.1701 93.16 50.0201 93.82 49.4301 94.35C49.0801 94.67 49.0201 95.33 48.8501 95.84C48.7401 96.17 48.6901 96.53 48.5601 96.85C48.2401 97.66 47.8201 98.43 47.5601 99.26C47.1701 100.48 46.0501 101.42 46.1701 102.84C45.2501 103.25 45.4701 104.13 45.3101 104.86C45.2301 105.2 45.0601 105.52 44.9101 105.84C44.4401 106.86 43.7301 107.85 43.5701 108.92C43.4501 109.69 43.1801 110.18 42.7601 110.61C42.2801 110.33 41.8101 110.06 41.3101 109.78C40.7501 110.16 40.0201 110.38 39.8101 110.85C39.0901 112.42 38.6101 114.1 37.9401 115.7C37.1501 117.6 36.3001 119.47 35.3901 121.32C35.1801 121.74 34.6201 121.99 34.1201 122.4C34.5601 124.01 33.1701 124.25 32.1601 124.64C31.9501 125.4 31.6901 126.03 31.6201 126.68C31.4701 128.19 31.1701 129.73 31.8301 131.19C32.0601 131.69 32.5901 132.04 32.8401 132.54C33.2901 133.43 33.6301 134.37 34.0201 135.29C35.2601 135.1 36.1301 135.35 36.4901 136.5C36.9401 137.93 37.9801 138.73 39.3601 139.17C39.6001 139.25 39.9501 139.35 40.0101 139.53C40.4401 140.67 41.5301 140.78 42.2001 141.12C42.9701 140.92 43.5601 140.59 44.1101 140.65C45.2401 140.77 46.1001 140.49 46.6601 139.52C48.2301 140.21 49.1001 139.81 49.9401 138.32C50.5101 137.31 51.2901 136.42 51.9601 135.47C52.3401 134.94 52.6701 134.38 53.0301 133.83C53.3901 133.29 53.7401 132.74 54.1001 132.2C54.2401 131.99 54.4001 131.8 54.5001 131.58C55.7001 128.97 56.5601 126.23 57.7101 123.6C58.7201 121.29 59.4801 118.88 60.4601 116.55C60.7301 115.9 61.1801 115.3 61.3501 114.63C61.7301 113.17 62.1401 112.76 63.6401 112.74C64.3401 112.74 65.0401 112.74 66.0301 112.74C66.0501 112.75 66.3101 113 66.6201 113.18C67.8801 113.91 69.1601 114.3 70.4901 113.32C71.5101 112.56 72.5601 111.83 73.5501 111.03C74.4401 110.31 75.3201 109.65 76.5601 109.72C78.7101 109.84 80.8701 109.81 83.0001 110.05C84.1501 110.18 85.2801 110.67 86.3601 111.13C86.6101 111.24 86.8501 111.4 87.0701 111.59V120.08H106.9V97.61C107.5 97.61 108.19 97.7 108.52 97.4C108.92 97.04 109.34 96.84 109.86 96.69C110.41 96.53 110.83 96.13 111.37 95.93C111.99 95.7 112.24 94.82 113.32 95.33C113.53 94.39 113.79 93.53 114.93 93.41C115.41 93.36 115.61 92.66 115.98 92.31C116.36 91.95 116.5 91.38 117.26 91.33C118.04 91.27 118.48 90.39 119.25 90.3C119.86 90.23 120.12 89.37 121.1 89.99C120.9 90.97 120.75 91.92 120.51 92.82C119.64 95.99 119.22 99.4 118.81 102.81C118.79 102.99 118.73 103.23 118.83 103.37C119.55 104.43 119.15 105.15 119.14 105.94C118.79 106.05 118.49 106.14 118.2 106.23C118.23 106.3 118.26 106.36 118.29 106.43C118.53 106.48 118.78 106.53 119.09 106.59C119.09 106.88 119.19 107.31 119.09 107.32C117.91 107.48 118.15 108.68 118.06 109.62C117.81 112.17 117.6 114.75 117.39 117.19C117.72 117.62 117.96 117.94 118.1 118.12C117.87 118.51 117.47 119.01 117.54 119.08C118.5 120.15 117.44 120.01 117.26 120.39C117.17 120.58 117.06 120.76 116.95 120.95C117.38 121.22 117.68 121.42 118.05 121.65C117.93 121.96 117.87 122.16 117.78 122.35C117.35 123.32 116.51 124.1 117.55 125.76C117.72 126.03 117.61 126.44 117.59 126.77C117.56 127.24 117.46 127.69 117.46 128.17C117.46 128.68 117.66 129.28 116.97 129.37C116.81 129.39 116.11 130.01 117.2 130.66C117.28 130.71 117.36 130.98 117.35 131.11C117.29 132.01 117.3 132.95 117.11 133.77C116.94 134.48 117.15 135.4 116.27 135.75C115.82 135.92 115.99 137.09 115.89 137.81C115.89 137.84 115.96 137.9 115.99 137.95C116.14 137.91 116.28 137.88 116.5 137.82C116.89 139.28 115.76 139.51 115.29 140.38C115.59 140.43 115.81 140.46 116.07 140.5C116.12 140.79 116.17 141.08 116.22 141.38C115.09 140.95 115.38 141.95 115.04 142.36C115.4 142.6 115.63 142.75 115.93 142.94C115.79 143.37 115.69 143.81 115.49 144.18C115.39 144.37 115.15 144.49 114.92 144.51C114.35 144.55 114.33 144.52 114.09 145.19C114.23 145.31 114.35 145.41 114.49 145.54C113.96 145.84 113.55 146.06 113.03 146.35C113.57 146.63 113.84 146.78 114.34 147.04C113.96 147.22 113.52 147.41 113.54 147.43C114.39 148.85 112.89 147.97 112.74 148.47C112.88 148.59 113.03 148.72 113.29 148.95C112.93 149.37 112.69 150.05 112.18 150.11C111.68 150.17 111.58 150.55 111.49 150.8C111 152.33 109.74 153.05 108.66 153.95C107.81 154.67 106.82 155.23 105.92 155.88C105.04 156.51 104.18 157.34 102.76 157.07C102.76 157.41 102.78 157.67 102.78 157.91C100.88 157.343 99.6767 157.343 99.1701 157.91C99.3301 158.25 99.4801 158.58 99.7601 159.17C97.9501 159.01 96.2701 158.87 94.4301 158.71C94.7701 159.18 95.0201 159.53 95.3501 159.99C94.3701 159.82 93.5501 159.74 92.6901 158.87C92.4401 158.62 91.9601 158.48 91.6401 158.47C91.3001 158.47 89.8401 158.54 89.5101 158.42C87.8601 157.83 86.2101 157.22 84.5601 156.66C83.9201 156.44 83.4501 156.19 83.0501 155.44C82.8001 154.97 82.2701 154.33 81.8601 154.17C80.0201 153.44 79.6601 151.86 79.4501 150.61C78.8501 147.06 79.8201 144.33 81.4001 142.01C82.0901 141 82.8301 140.03 83.5201 139.01C84.4901 137.55 85.3101 135.93 87.1601 135.41C87.4301 135.33 87.6401 135.09 87.7701 134.84C88.2901 133.87 89.4601 133.68 90.1201 132.9C90.8301 132.07 91.6601 131.45 92.8601 131.29C93.1701 131.25 93.2901 130.82 93.5401 130.62C93.7501 130.45 94.0301 130.18 94.2801 130.27C95.0301 130.53 95.1401 129.97 95.5201 129.71C96.6101 128.97 97.7501 128.29 98.9701 127.72C99.9301 127.27 101.1 127.12 102.06 126.67C103.81 125.84 105.48 124.88 107.17 123.97C106.99 123.95 106.72 123.85 106.53 123.9C105.28 124.21 104.05 124.53 102.82 124.88C102.42 124.99 102.06 125.17 101.68 125.32C100.86 125.63 100.07 126.02 98.9101 125.32C98.9501 125.56 99.0601 125.91 98.9701 125.94C98.0101 126.3 97.0301 126.62 96.0401 126.93C95.6701 127.05 95.2801 126.96 94.9001 126.51C95.1401 125.84 95.6401 125.58 96.3701 125.8C96.6201 125.34 96.8501 124.92 97.1901 124.31C96.5401 124.47 96.0801 124.63 95.5901 124.7C95.1401 124.76 94.6401 124.73 94.1701 124.74C93.8201 124.74 93.4301 124.67 93.1401 124.76C91.3101 125.35 89.5001 125.98 87.6801 126.59C87.5301 126.64 87.2601 126.63 87.2301 126.75C87.0301 127.94 85.4101 127.09 84.9601 127.94C84.8301 128.18 84.4101 128.15 84.1901 128.33C83.6801 128.74 83.2801 129.29 82.7201 129.62C82.1401 129.96 81.3201 129.99 81.3601 131C81.3601 131.14 81.1101 131.34 81.0301 131.29C80.0101 130.69 80.0001 131.61 79.6001 131.93C79.2901 132.18 78.9401 132.4 78.6601 132.68C78.3001 133.04 77.9301 133.42 77.6601 133.87C77.2201 134.61 77.0001 135.57 75.8501 135.53C75.6601 135.53 75.5001 135.73 75.4001 135.91C74.9201 136.79 74.5301 137.74 73.9901 138.56C73.5601 139.22 73.1101 140.02 72.3801 140.21C71.5101 140.44 71.0601 140.95 70.7301 141.77C69.3301 140.89 69.2601 142.6 68.1601 142.36C68.0501 141.91 67.9701 141.55 67.8201 140.95C67.6001 141.25 67.4901 141.36 67.4301 141.51C66.7501 143.17 65.8401 144.64 64.7201 145.93C64.5601 146.11 64.4301 146.46 64.2101 146.42C63.4501 146.29 63.2501 146.86 62.9301 147.25C62.6601 147.58 62.4001 147.84 61.8301 147.66C61.2201 147.47 60.8801 147.72 60.6401 148.16C60.3201 148.73 59.9201 149.23 59.5701 149.79C59.3801 150.1 59.0201 150.43 59.1201 150.78C59.4701 152.06 59.8501 153.38 60.4801 154.63C61.2401 156.14 62.2501 157.59 63.1701 159.06C64.4101 161.04 65.8501 162.83 67.7601 164.23C68.6801 164.9 69.5601 165.69 70.3901 166.51C71.6501 167.76 72.8601 169.08 74.0801 170.37C74.5101 170.82 74.9101 171.06 75.4701 171.15C76.1101 171.25 76.8301 171.57 77.5001 171.91C79.0001 172.67 80.4801 173.52 81.9801 174.31C82.7601 174.72 83.5601 175.16 84.3401 175.45C84.8501 175.64 85.3601 175.52 85.8801 175.64C86.8501 175.87 87.8601 176.31 88.7901 176.42C89.5301 176.51 90.1201 176.43 90.8901 177.21C91.1501 177.47 91.7201 177.39 92.1401 177.42C92.3701 177.44 92.5701 177.35 92.7901 177.37C93.9701 177.48 95.1601 177.61 96.3401 177.71C96.8501 177.75 97.4901 177.91 97.8201 177.69C98.3001 177.37 98.9201 177.48 99.4801 177.54C100.57 177.66 101.89 178.43 102.49 177.34C102.51 177.3 102.68 177.39 102.77 177.39C103.87 177.42 104.97 177.45 106.08 177.48C106.31 177.18 106.48 176.58 106.91 176.51C107.75 176.38 108.36 176.04 108.59 175.3C109.17 175.7 109.63 176.01 110.09 176.33C110.12 176.26 110.15 176.2 110.18 176.13C109.91 175.87 109.65 175.61 109.2 175.17C109.65 175.14 109.94 175.12 110.23 175.11C110.43 175.11 110.74 175.21 110.81 175.11C111.25 174.39 112.04 174.54 112.92 174.85C113.01 174.88 113.09 174.81 113.18 174.79C113.16 174.55 113.14 174.31 113.12 174.08C113.17 174.04 113.19 174 113.23 174C114.29 173.98 115.55 174.35 116.18 173.45C116.36 173.2 116.4 172.69 116.66 172.66C117.91 172.5 118.47 171.47 119.4 170.92C120.11 170.5 120.82 170.08 121.5 169.63C122 169.29 121.89 168.28 122.79 168.37C123.4 167.16 124.23 166.15 125.06 165.14C126.06 163.93 126.36 162.13 127.52 161.06C127.63 160.96 127.66 160.75 127.71 160.58C128.09 159.22 128.46 157.86 128.83 156.5C129.05 155.69 129.37 154.93 129.5 154.08C129.89 151.59 130.29 149.09 130.54 146.53C130.69 144.94 131 143.42 131 141.74C131 140 131.13 138.25 131.62 136.79C132.16 135.17 132.67 133.56 132.86 131.73C132.98 130.53 133.28 129.4 133.37 128.19C133.52 126.22 134.37 124.68 134.64 122.78C134.81 121.6 134.99 120.4 135.41 119.38C136.14 117.6 136.95 115.86 137.91 114.25C139.16 112.16 140.46 110.09 141.16 107.6C141.96 104.76 144.39 103.49 145.8 101.25C145.82 101.22 145.88 101.22 145.92 101.21C146.96 100.89 147.62 100.14 148.34 99.41C148.89 98.85 149.61 98.39 150.41 98.19C152.75 97.61 155.25 97.32 157.54 96.65C158.9 96.25 160.4 96 161.46 95.09C161.66 94.91 161.96 94.79 162.27 94.79C163.94 94.82 164.99 93.9 166.08 93.07C166.96 92.41 167.3 91.21 166.67 89.89M41.2501 114.67C39.7201 115.07 40.0401 116.39 39.8501 117.46C39.8101 117.66 39.7501 117.97 39.6301 118.01C38.6701 118.32 38.9201 119.46 38.1901 120.03C37.5201 119.45 38.0301 119 38.2001 118.59C38.9301 116.8 39.7201 115.03 40.4701 113.25C40.8301 112.38 41.1901 111.54 42.2401 111.3C42.5901 112.63 41.6901 113.58 41.2601 114.67M87.0601 107.33C85.3801 107.44 83.6901 107.52 82.0201 107.67C80.9501 107.76 79.9201 107.75 78.8501 107.64C77.7301 107.53 76.9601 106.95 76.1001 106.43C75.6101 106.13 75.1701 105.74 74.6901 105.39C75.2301 103.92 82.5301 100.68 87.0601 100.31V107.32V107.33ZM87.0601 84.14C86.9401 84.45 86.8901 84.76 87.0601 85.11V90.89C85.5801 91.6 83.9401 91.62 82.3901 92.01C81.1601 92.32 79.9401 92.7 78.7201 93.07C78.3801 93.17 78.0601 93.5 77.7401 93.48C75.3901 93.4 73.7701 95.28 71.6201 95.75C71.1301 95.86 70.7301 96.35 70.0101 96.87C70.1301 96.36 70.1201 96.1 70.2301 96.03C71.7301 95.04 72.1301 93.3 72.9901 91.88C73.2701 91.41 73.4301 90.92 73.9001 90.53C74.3901 90.12 74.6601 89.45 75.0501 88.92C75.6501 88.12 76.2101 87.27 76.8901 86.55C78.1501 85.23 79.2301 83.8 80.1801 82.25C80.7001 81.4 81.3901 80.66 82.0101 79.87C82.1201 79.94 82.2301 80.01 82.3401 80.08C81.6501 81.31 80.9101 82.51 80.3001 83.78C79.7101 85 78.7701 86.06 78.5601 87.47C80.8501 83.76 83.3101 80.17 85.7401 76.57C86.4601 76.91 86.8501 77.35 87.0701 77.84V84.14H87.0601ZM94.8801 126.48C95.1201 127.04 95.0301 127.4 94.5601 127.53C94.0801 126.59 94.0801 126.58 94.8801 126.48ZM95.7201 176.05C95.6701 175.96 95.6301 175.87 95.5801 175.78C95.8501 175.71 96.1201 175.65 96.3801 175.58C96.4401 175.69 96.4901 175.8 96.5501 175.91C96.2701 175.96 95.9901 176 95.7201 176.05Z" fill="white"/>
<path d="M100.16 128.36C98.66 128.35 97.33 128.59 96.3 129.68C96.88 129.99 97.35 130.24 97.82 130.49C97.88 130.14 97.93 129.79 97.98 129.52C98.74 129.12 99.45 128.74 100.16 128.37" fill="white"/>
<path d="M97.8101 130.53C97.8101 130.53 97.8401 130.54 97.8501 130.55C97.8501 130.53 97.8501 130.52 97.8501 130.5C97.8501 130.5 97.8301 130.5 97.8201 130.49C97.8201 130.51 97.8201 130.52 97.8201 130.53H97.8101Z" fill="white"/>
<path d="M107.64 154.15C107.64 154.08 107.48 153.96 107.3 153.76C107.2 153.98 107.14 154.11 107.08 154.24C107.2 154.3 107.35 154.42 107.45 154.4C107.55 154.38 107.65 154.25 107.65 154.15" fill="white"/>
<path d="M44.6401 101.52C44.5401 101.48 44.4501 101.45 44.3501 101.41C44.1701 101.76 44.0401 102.15 43.8001 102.45C43.5101 102.81 43.1101 103.06 42.8001 103.41C42.2601 104.04 42.4301 104.61 43.2901 105.42C43.7901 103.96 44.2101 102.73 44.6301 101.51" fill="white"/>
<path d="M60.5799 69.86C59.5299 70.24 58.8199 70.45 58.5899 71.4C58.4099 72.11 57.9899 72.76 57.6799 73.44C57.7699 73.49 57.8699 73.53 57.9599 73.58C58.7799 72.42 59.5999 71.26 60.5799 69.87" fill="white"/>
<path d="M48.6101 92.07C47.8901 92.81 47.4801 93.79 46.6101 94.82C48.4101 94.48 47.9501 92.89 48.6101 92.07Z" fill="white"/>
<path d="M53.8401 80.71C53.3301 81.71 52.9701 82.41 52.5801 83.16C53.6201 82.86 53.8101 82.52 53.8401 80.71Z" fill="white"/>
<path d="M55.25 77.82C54.31 78.19 54.51 78.8 54.68 79.44C55.4 79.09 55.76 78.65 55.25 77.82Z" fill="white"/>
<path d="M43.0299 107.11C42.9099 106.94 42.7999 106.77 42.6199 106.51C42.1899 106.87 41.8799 107.23 41.9599 108.15C42.2399 107.75 42.3299 107.56 42.4699 107.43C42.6199 107.3 42.8299 107.22 43.0199 107.11" fill="white"/>
<path d="M45.05 97.5C44.89 97.63 44.86 97.91 44.74 98.2H46.24C45.89 97.55 45.7 96.97 45.05 97.5Z" fill="white"/>
<path d="M44.9499 100.47C45.1099 100.12 45.2699 99.77 45.4399 99.42C45.3599 99.34 45.2799 99.27 45.1999 99.19C44.9499 99.36 44.6399 99.48 44.4899 99.71C44.3999 99.84 44.5799 100.15 44.6599 100.37C44.6799 100.42 44.8099 100.42 44.9499 100.46" fill="white"/>
<path d="M46.5599 95.89C46.4499 95.8 46.3399 95.71 46.2299 95.61C46.0299 96.05 45.3999 96.14 45.6399 96.95C45.9499 96.59 46.2499 96.24 46.5599 95.89Z" fill="white"/>
<path d="M62.8899 65.37C63.0999 65.11 63.3099 64.85 63.6899 64.4C63.2099 64.45 63.0099 64.46 62.8199 64.48C62.7699 64.74 62.7299 65.01 62.6799 65.27C62.7499 65.3 62.8199 65.34 62.8899 65.37Z" fill="white"/>
<path d="M62.79 64.48C62.79 64.48 62.81 64.48 62.83 64.48C62.83 64.47 62.83 64.46 62.83 64.45C62.82 64.46 62.81 64.47 62.8 64.49" fill="white"/>
<path d="M50.9901 87.29C50.3368 87.4833 50.0434 87.8167 50.1101 88.29C50.3401 88.03 50.5601 87.78 50.9901 87.29Z" fill="white"/>
<path d="M63.48 63.71C63.31 63.62 63.08 63.43 63.01 63.48C62.64 63.72 62.5 64.05 62.82 64.44C63.02 64.21 63.23 63.99 63.47 63.71" fill="white"/>
</g>
<defs>
<clipPath id="clip0_449_135">
<rect width="1195.89" height="194.45" fill="white"/>
</clipPath>
</defs>
</svg>
