<svg width="540" height="516" viewBox="0 0 540 516" fill="none" xmlns="http://www.w3.org/2000/svg">
<g opacity="0.2">
<circle cx="268" cy="150.625" r="149.5" stroke="white"/>
<path d="M215.617 162.8C215.314 162.8 215.069 162.765 214.882 162.695C214.696 162.648 214.602 162.555 214.602 162.415C214.602 162.252 214.696 162.123 214.882 162.03C215.069 161.937 215.361 161.855 215.757 161.785C216.644 161.622 217.321 161.342 217.787 160.945C218.254 160.525 218.487 159.895 218.487 159.055V145.475C218.487 144.402 218.464 143.585 218.417 143.025C218.371 142.442 218.289 142.033 218.172 141.8C218.079 141.567 217.939 141.438 217.752 141.415C217.426 141.345 217.076 141.31 216.702 141.31C216.352 141.287 215.874 141.275 215.267 141.275H213.622C213.062 141.275 212.502 141.392 211.942 141.625C211.406 141.835 211.009 142.173 210.752 142.64C210.682 142.757 210.566 142.932 210.402 143.165C210.239 143.375 210.064 143.562 209.877 143.725C209.691 143.888 209.504 143.97 209.317 143.97C209.224 143.97 209.154 143.923 209.107 143.83C209.084 143.737 209.072 143.632 209.072 143.515C209.072 143.282 209.131 143.048 209.247 142.815C209.574 142.138 209.807 141.543 209.947 141.03C210.111 140.493 210.239 139.863 210.332 139.14C210.379 138.743 210.461 138.51 210.577 138.44C210.717 138.37 210.834 138.335 210.927 138.335C211.021 138.335 211.161 138.475 211.347 138.755C211.557 139.035 211.709 139.268 211.802 139.455C211.942 139.688 212.257 139.863 212.747 139.98C213.261 140.097 213.762 140.155 214.252 140.155H226.572C227.389 140.155 228.054 140.108 228.567 140.015C229.081 139.922 229.524 139.793 229.897 139.63C230.177 139.49 230.399 139.338 230.562 139.175C230.749 139.012 230.982 138.93 231.262 138.93C231.332 138.93 231.391 139.023 231.437 139.21C231.484 139.373 231.507 139.548 231.507 139.735C231.507 139.852 231.484 140.015 231.437 140.225C231.414 140.435 231.391 140.598 231.367 140.715C231.297 141.135 231.227 141.438 231.157 141.625C231.111 141.812 231.076 141.975 231.052 142.115C231.029 142.255 231.017 142.477 231.017 142.78V143.2C231.017 143.41 230.971 143.655 230.877 143.935C230.784 144.192 230.644 144.32 230.457 144.32C230.294 144.32 230.166 144.192 230.072 143.935C229.979 143.678 229.886 143.328 229.792 142.885C229.699 142.395 229.419 142.01 228.952 141.73C228.486 141.427 227.692 141.275 226.572 141.275H223.037C222.524 141.275 222.139 141.345 221.882 141.485C221.626 141.625 221.462 141.975 221.392 142.535C221.322 143.095 221.287 144.017 221.287 145.3V159.055C221.287 159.895 221.532 160.525 222.022 160.945C222.512 161.342 223.189 161.622 224.052 161.785C224.449 161.855 224.741 161.937 224.927 162.03C225.114 162.123 225.207 162.252 225.207 162.415C225.207 162.555 225.114 162.648 224.927 162.695C224.741 162.765 224.496 162.8 224.192 162.8C223.562 162.8 223.037 162.777 222.617 162.73C222.221 162.707 221.836 162.683 221.462 162.66C221.089 162.637 220.634 162.625 220.097 162.625C219.514 162.625 219.001 162.637 218.557 162.66C218.137 162.683 217.694 162.707 217.227 162.73C216.784 162.777 216.247 162.8 215.617 162.8ZM231.553 162.73C231.32 162.73 231.145 162.695 231.028 162.625C230.912 162.578 230.853 162.485 230.853 162.345C230.853 162.158 230.923 162.042 231.063 161.995C231.203 161.925 231.402 161.855 231.658 161.785C232.102 161.668 232.428 161.505 232.638 161.295C232.872 161.062 232.988 160.782 232.988 160.455V152.93C232.988 152.3 232.895 151.752 232.708 151.285C232.522 150.818 232.137 150.527 231.553 150.41C231.46 150.387 231.378 150.328 231.308 150.235C231.238 150.142 231.203 150.048 231.203 149.955C231.203 149.722 231.308 149.582 231.518 149.535C232.125 149.348 232.755 149.08 233.408 148.73C234.085 148.357 234.61 148.053 234.983 147.82C235.123 147.727 235.228 147.668 235.298 147.645C235.392 147.598 235.462 147.575 235.508 147.575C235.625 147.575 235.683 147.657 235.683 147.82C235.683 147.89 235.672 148.065 235.648 148.345C235.648 148.625 235.637 148.952 235.613 149.325C235.613 149.698 235.602 150.072 235.578 150.445C235.578 150.492 235.602 150.515 235.648 150.515C236.022 150.048 236.43 149.64 236.873 149.29C237.34 148.94 237.807 148.66 238.273 148.45C238.763 148.24 239.23 148.135 239.673 148.135C240.163 148.135 240.56 148.24 240.863 148.45C241.19 148.66 241.353 148.928 241.353 149.255C241.353 149.488 241.283 149.745 241.143 150.025C241.027 150.305 240.863 150.55 240.653 150.76C240.443 150.97 240.222 151.075 239.988 151.075C239.848 151.075 239.697 151.052 239.533 151.005C239.37 150.935 239.195 150.853 239.008 150.76C238.822 150.69 238.635 150.62 238.448 150.55C238.262 150.48 238.075 150.445 237.888 150.445C237.328 150.445 236.78 150.643 236.243 151.04C235.73 151.437 235.473 152.218 235.473 153.385V160.455C235.473 160.758 235.637 161.015 235.963 161.225C236.29 161.412 236.745 161.598 237.328 161.785C237.585 161.855 237.783 161.925 237.923 161.995C238.063 162.065 238.133 162.182 238.133 162.345C238.133 162.602 237.9 162.73 237.433 162.73C236.733 162.73 236.197 162.695 235.823 162.625C235.473 162.578 234.995 162.555 234.388 162.555C233.992 162.555 233.665 162.567 233.408 162.59C233.175 162.613 232.918 162.637 232.638 162.66C232.382 162.707 232.02 162.73 231.553 162.73ZM247.373 163.115C246.953 163.115 246.521 162.952 246.078 162.625C245.658 162.298 245.296 161.902 244.993 161.435C244.713 160.968 244.573 160.525 244.573 160.105C244.573 159.358 244.771 158.775 245.168 158.355C245.564 157.935 246.194 157.55 247.058 157.2L250.628 155.73C251.094 155.543 251.363 155.38 251.433 155.24C251.526 155.1 251.584 154.797 251.608 154.33L251.678 152.09C251.701 151.483 251.526 150.958 251.153 150.515C250.803 150.072 250.289 149.85 249.613 149.85C249.263 149.85 248.913 149.908 248.563 150.025C248.213 150.142 247.921 150.293 247.688 150.48C247.548 150.573 247.454 150.713 247.408 150.9C247.361 151.087 247.338 151.285 247.338 151.495C247.338 151.588 247.338 151.693 247.338 151.81C247.361 151.927 247.373 152.032 247.373 152.125C247.373 152.242 247.221 152.405 246.918 152.615C246.638 152.802 246.311 152.977 245.938 153.14C245.588 153.28 245.296 153.35 245.063 153.35C244.946 153.35 244.853 153.327 244.783 153.28C244.713 153.21 244.678 153.128 244.678 153.035C244.678 152.662 244.794 152.265 245.028 151.845C245.284 151.402 245.634 150.993 246.078 150.62C246.614 150.13 247.198 149.698 247.828 149.325C248.458 148.952 249.076 148.66 249.683 148.45C250.289 148.24 250.826 148.135 251.293 148.135C252.133 148.135 252.821 148.438 253.358 149.045C253.918 149.628 254.186 150.363 254.163 151.25L253.988 159.65C253.964 160.14 254.069 160.537 254.303 160.84C254.559 161.143 254.874 161.295 255.248 161.295C255.831 161.295 256.263 161.167 256.543 160.91C256.659 160.793 256.753 160.735 256.823 160.735C256.939 160.735 257.033 160.77 257.103 160.84C257.173 160.91 257.208 161.003 257.208 161.12C257.208 161.377 257.079 161.633 256.823 161.89C256.449 162.263 256.041 162.555 255.598 162.765C255.178 162.998 254.781 163.115 254.408 163.115C253.334 163.115 252.483 162.508 251.853 161.295H251.748C250.978 161.925 250.243 162.38 249.543 162.66C248.843 162.963 248.119 163.115 247.373 163.115ZM249.018 161.435C249.484 161.435 249.881 161.365 250.208 161.225C250.534 161.062 250.826 160.852 251.083 160.595C251.199 160.478 251.293 160.327 251.363 160.14C251.456 159.93 251.514 159.603 251.538 159.16L251.608 157.445C251.631 157.188 251.619 157.002 251.573 156.885C251.526 156.768 251.433 156.71 251.293 156.71C251.246 156.71 251.164 156.722 251.048 156.745C250.931 156.768 250.779 156.815 250.593 156.885C249.356 157.328 248.493 157.795 248.003 158.285C247.536 158.752 247.303 159.183 247.303 159.58C247.303 160.187 247.478 160.653 247.828 160.98C248.201 161.283 248.598 161.435 249.018 161.435ZM265.814 163.36C265.72 163.36 265.604 163.173 265.464 162.8C265.324 162.45 265.23 162.193 265.184 162.03C265.02 161.633 264.869 161.225 264.729 160.805C264.589 160.362 264.449 159.953 264.309 159.58C263.795 158.133 263.235 156.722 262.629 155.345C262.045 153.945 261.474 152.533 260.914 151.11C260.75 150.69 260.494 150.317 260.144 149.99C259.817 149.64 259.479 149.418 259.129 149.325C258.942 149.255 258.79 149.185 258.674 149.115C258.557 149.045 258.499 148.928 258.499 148.765C258.499 148.625 258.58 148.543 258.744 148.52C258.93 148.473 259.082 148.45 259.199 148.45C259.665 148.45 260.004 148.462 260.214 148.485C260.424 148.508 260.634 148.543 260.844 148.59C261.054 148.613 261.357 148.625 261.754 148.625C262.174 148.625 262.489 148.613 262.699 148.59C262.909 148.543 263.13 148.508 263.364 148.485C263.597 148.462 263.935 148.45 264.379 148.45C264.495 148.45 264.635 148.473 264.799 148.52C264.985 148.543 265.079 148.625 265.079 148.765C265.079 148.928 264.997 149.057 264.834 149.15C264.67 149.243 264.484 149.325 264.274 149.395C264.04 149.488 263.865 149.675 263.749 149.955C263.632 150.212 263.574 150.503 263.574 150.83C263.574 150.993 263.585 151.157 263.609 151.32C263.632 151.483 263.667 151.635 263.714 151.775L266.479 159.125C266.502 159.148 266.514 159.16 266.514 159.16C266.537 159.16 266.56 159.148 266.584 159.125L269.244 152.3C269.337 152.067 269.407 151.822 269.454 151.565C269.5 151.285 269.524 151.052 269.524 150.865C269.524 150.398 269.454 150.072 269.314 149.885C269.174 149.675 268.94 149.512 268.614 149.395C268.31 149.278 268.1 149.185 267.984 149.115C267.867 149.045 267.809 148.928 267.809 148.765C267.809 148.625 267.879 148.543 268.019 148.52C268.182 148.473 268.345 148.45 268.509 148.45C268.765 148.45 269.104 148.485 269.524 148.555C269.944 148.602 270.457 148.625 271.064 148.625C271.67 148.625 272.079 148.602 272.289 148.555C272.522 148.485 272.802 148.45 273.129 148.45C273.315 148.45 273.479 148.473 273.619 148.52C273.759 148.543 273.829 148.625 273.829 148.765C273.829 149.022 273.56 149.232 273.024 149.395C272.674 149.488 272.289 149.757 271.869 150.2C271.449 150.643 271.11 151.157 270.854 151.74L268.124 158.32C268.077 158.413 267.984 158.647 267.844 159.02C267.704 159.37 267.552 159.767 267.389 160.21C267.225 160.63 267.085 161.003 266.969 161.33C266.852 161.633 266.794 161.785 266.794 161.785C266.794 161.785 266.747 161.902 266.654 162.135C266.56 162.345 266.455 162.567 266.339 162.8C266.222 163.057 266.117 163.243 266.024 163.36H265.814ZM279.003 163.115C278.583 163.115 278.151 162.952 277.708 162.625C277.288 162.298 276.926 161.902 276.623 161.435C276.343 160.968 276.203 160.525 276.203 160.105C276.203 159.358 276.401 158.775 276.798 158.355C277.194 157.935 277.824 157.55 278.688 157.2L282.258 155.73C282.724 155.543 282.993 155.38 283.063 155.24C283.156 155.1 283.214 154.797 283.238 154.33L283.308 152.09C283.331 151.483 283.156 150.958 282.783 150.515C282.433 150.072 281.919 149.85 281.243 149.85C280.893 149.85 280.543 149.908 280.193 150.025C279.843 150.142 279.551 150.293 279.318 150.48C279.178 150.573 279.084 150.713 279.038 150.9C278.991 151.087 278.968 151.285 278.968 151.495C278.968 151.588 278.968 151.693 278.968 151.81C278.991 151.927 279.003 152.032 279.003 152.125C279.003 152.242 278.851 152.405 278.548 152.615C278.268 152.802 277.941 152.977 277.568 153.14C277.218 153.28 276.926 153.35 276.693 153.35C276.576 153.35 276.483 153.327 276.413 153.28C276.343 153.21 276.308 153.128 276.308 153.035C276.308 152.662 276.424 152.265 276.658 151.845C276.914 151.402 277.264 150.993 277.708 150.62C278.244 150.13 278.828 149.698 279.458 149.325C280.088 148.952 280.706 148.66 281.313 148.45C281.919 148.24 282.456 148.135 282.923 148.135C283.763 148.135 284.451 148.438 284.988 149.045C285.548 149.628 285.816 150.363 285.793 151.25L285.618 159.65C285.594 160.14 285.699 160.537 285.933 160.84C286.189 161.143 286.504 161.295 286.878 161.295C287.461 161.295 287.893 161.167 288.173 160.91C288.289 160.793 288.383 160.735 288.453 160.735C288.569 160.735 288.663 160.77 288.733 160.84C288.803 160.91 288.838 161.003 288.838 161.12C288.838 161.377 288.709 161.633 288.453 161.89C288.079 162.263 287.671 162.555 287.228 162.765C286.808 162.998 286.411 163.115 286.038 163.115C284.964 163.115 284.113 162.508 283.483 161.295H283.378C282.608 161.925 281.873 162.38 281.173 162.66C280.473 162.963 279.749 163.115 279.003 163.115ZM280.648 161.435C281.114 161.435 281.511 161.365 281.838 161.225C282.164 161.062 282.456 160.852 282.713 160.595C282.829 160.478 282.923 160.327 282.993 160.14C283.086 159.93 283.144 159.603 283.168 159.16L283.238 157.445C283.261 157.188 283.249 157.002 283.203 156.885C283.156 156.768 283.063 156.71 282.923 156.71C282.876 156.71 282.794 156.722 282.678 156.745C282.561 156.768 282.409 156.815 282.223 156.885C280.986 157.328 280.123 157.795 279.633 158.285C279.166 158.752 278.933 159.183 278.933 159.58C278.933 160.187 279.108 160.653 279.458 160.98C279.831 161.283 280.228 161.435 280.648 161.435ZM292.002 162.73C291.886 162.73 291.734 162.707 291.547 162.66C291.384 162.637 291.302 162.555 291.302 162.415C291.302 162.228 291.384 162.1 291.547 162.03C291.734 161.937 291.921 161.855 292.107 161.785C292.457 161.668 292.796 161.54 293.122 161.4C293.449 161.237 293.612 160.922 293.612 160.455V142.815C293.612 142.138 293.484 141.578 293.227 141.135C292.994 140.668 292.586 140.377 292.002 140.26C291.816 140.213 291.722 140.062 291.722 139.805C291.722 139.572 291.804 139.432 291.967 139.385C292.574 139.245 293.099 139.105 293.542 138.965C293.986 138.802 294.394 138.638 294.767 138.475C295.164 138.312 295.549 138.16 295.922 138.02C296.016 137.973 296.086 137.95 296.132 137.95C296.179 137.95 296.214 137.985 296.237 138.055C296.284 138.102 296.307 138.148 296.307 138.195C296.307 138.405 296.261 138.86 296.167 139.56C296.097 140.237 296.062 141.368 296.062 142.955V160.455C296.062 160.922 296.226 161.237 296.552 161.4C296.879 161.54 297.217 161.668 297.567 161.785C297.754 161.855 297.929 161.937 298.092 162.03C298.279 162.1 298.372 162.228 298.372 162.415C298.372 162.555 298.279 162.637 298.092 162.66C297.929 162.707 297.789 162.73 297.672 162.73C297.229 162.73 296.867 162.707 296.587 162.66C296.331 162.637 296.074 162.613 295.817 162.59C295.584 162.567 295.257 162.555 294.837 162.555C294.441 162.555 294.114 162.567 293.857 162.59C293.601 162.613 293.344 162.637 293.087 162.66C292.831 162.707 292.469 162.73 292.002 162.73ZM308.25 163.15C306.967 163.15 305.847 162.835 304.89 162.205C303.934 161.575 303.187 160.688 302.65 159.545C302.114 158.378 301.845 157.037 301.845 155.52C301.845 154.167 302.149 152.942 302.755 151.845C303.385 150.725 304.214 149.827 305.24 149.15C306.267 148.473 307.387 148.135 308.6 148.135C309.534 148.135 310.362 148.322 311.085 148.695C311.809 149.068 312.369 149.593 312.765 150.27C313.185 150.923 313.395 151.682 313.395 152.545C313.395 153.268 313.045 153.63 312.345 153.63H304.96C304.634 153.63 304.4 153.723 304.26 153.91C304.144 154.073 304.085 154.412 304.085 154.925C304.085 156.045 304.33 157.072 304.82 158.005C305.31 158.915 305.964 159.65 306.78 160.21C307.597 160.747 308.495 161.015 309.475 161.015C310.175 161.015 310.805 160.887 311.365 160.63C311.949 160.35 312.462 159.953 312.905 159.44C312.999 159.323 313.069 159.253 313.115 159.23C313.162 159.183 313.22 159.16 313.29 159.16C313.477 159.16 313.57 159.277 313.57 159.51C313.57 159.953 313.36 160.443 312.94 160.98C312.59 161.423 312.17 161.808 311.68 162.135C311.19 162.462 310.654 162.707 310.07 162.87C309.487 163.057 308.88 163.15 308.25 163.15ZM305.03 152.545H308.215C308.775 152.545 309.254 152.533 309.65 152.51C310.047 152.487 310.432 152.44 310.805 152.37C310.922 152.347 310.992 152.277 311.015 152.16C311.062 152.02 311.085 151.833 311.085 151.6C311.085 150.923 310.782 150.352 310.175 149.885C309.592 149.395 308.892 149.15 308.075 149.15C307.539 149.15 307.002 149.313 306.465 149.64C305.929 149.943 305.485 150.328 305.135 150.795C304.785 151.262 304.61 151.728 304.61 152.195C304.61 152.428 304.75 152.545 305.03 152.545ZM317.898 162.73C317.665 162.73 317.49 162.695 317.373 162.625C317.256 162.578 317.198 162.485 317.198 162.345C317.198 162.158 317.268 162.042 317.408 161.995C317.548 161.925 317.746 161.855 318.003 161.785C318.446 161.668 318.773 161.505 318.983 161.295C319.216 161.062 319.333 160.782 319.333 160.455V152.93C319.333 152.3 319.24 151.752 319.053 151.285C318.866 150.818 318.481 150.527 317.898 150.41C317.805 150.387 317.723 150.328 317.653 150.235C317.583 150.142 317.548 150.048 317.548 149.955C317.548 149.722 317.653 149.582 317.863 149.535C318.47 149.348 319.1 149.08 319.753 148.73C320.43 148.357 320.955 148.053 321.328 147.82C321.468 147.727 321.573 147.668 321.643 147.645C321.736 147.598 321.806 147.575 321.853 147.575C321.97 147.575 322.028 147.657 322.028 147.82C322.028 147.89 322.016 148.065 321.993 148.345C321.993 148.625 321.981 148.952 321.958 149.325C321.958 149.698 321.946 150.072 321.923 150.445C321.923 150.492 321.946 150.515 321.993 150.515C322.366 150.048 322.775 149.64 323.218 149.29C323.685 148.94 324.151 148.66 324.618 148.45C325.108 148.24 325.575 148.135 326.018 148.135C326.508 148.135 326.905 148.24 327.208 148.45C327.535 148.66 327.698 148.928 327.698 149.255C327.698 149.488 327.628 149.745 327.488 150.025C327.371 150.305 327.208 150.55 326.998 150.76C326.788 150.97 326.566 151.075 326.333 151.075C326.193 151.075 326.041 151.052 325.878 151.005C325.715 150.935 325.54 150.853 325.353 150.76C325.166 150.69 324.98 150.62 324.793 150.55C324.606 150.48 324.42 150.445 324.233 150.445C323.673 150.445 323.125 150.643 322.588 151.04C322.075 151.437 321.818 152.218 321.818 153.385V160.455C321.818 160.758 321.981 161.015 322.308 161.225C322.635 161.412 323.09 161.598 323.673 161.785C323.93 161.855 324.128 161.925 324.268 161.995C324.408 162.065 324.478 162.182 324.478 162.345C324.478 162.602 324.245 162.73 323.778 162.73C323.078 162.73 322.541 162.695 322.168 162.625C321.818 162.578 321.34 162.555 320.733 162.555C320.336 162.555 320.01 162.567 319.753 162.59C319.52 162.613 319.263 162.637 318.983 162.66C318.726 162.707 318.365 162.73 317.898 162.73Z" fill="white"/>
</g>
<g opacity="0.2">
<circle cx="150" cy="365.625" r="149.5" stroke="white"/>
<path d="M107.653 359.8C107.349 359.8 107.104 359.765 106.918 359.695C106.731 359.648 106.638 359.555 106.638 359.415C106.638 359.252 106.731 359.123 106.918 359.03C107.104 358.937 107.396 358.855 107.793 358.785C108.679 358.622 109.356 358.342 109.823 357.945C110.289 357.525 110.523 356.895 110.523 356.055V342.475C110.523 341.402 110.499 340.585 110.453 340.025C110.406 339.442 110.324 339.033 110.208 338.8C110.114 338.567 109.974 338.438 109.788 338.415C109.461 338.345 109.111 338.31 108.738 338.31C108.388 338.287 107.909 338.275 107.303 338.275H105.658C105.098 338.275 104.538 338.392 103.978 338.625C103.441 338.835 103.044 339.173 102.788 339.64C102.718 339.757 102.601 339.932 102.438 340.165C102.274 340.375 102.099 340.562 101.913 340.725C101.726 340.888 101.539 340.97 101.353 340.97C101.259 340.97 101.189 340.923 101.143 340.83C101.119 340.737 101.108 340.632 101.108 340.515C101.108 340.282 101.166 340.048 101.283 339.815C101.609 339.138 101.843 338.543 101.983 338.03C102.146 337.493 102.274 336.863 102.368 336.14C102.414 335.743 102.496 335.51 102.613 335.44C102.753 335.37 102.869 335.335 102.963 335.335C103.056 335.335 103.196 335.475 103.383 335.755C103.593 336.035 103.744 336.268 103.838 336.455C103.978 336.688 104.293 336.863 104.783 336.98C105.296 337.097 105.798 337.155 106.288 337.155H118.608C119.424 337.155 120.089 337.108 120.603 337.015C121.116 336.922 121.559 336.793 121.933 336.63C122.213 336.49 122.434 336.338 122.598 336.175C122.784 336.012 123.018 335.93 123.298 335.93C123.368 335.93 123.426 336.023 123.473 336.21C123.519 336.373 123.543 336.548 123.543 336.735C123.543 336.852 123.519 337.015 123.473 337.225C123.449 337.435 123.426 337.598 123.403 337.715C123.333 338.135 123.263 338.438 123.193 338.625C123.146 338.812 123.111 338.975 123.088 339.115C123.064 339.255 123.053 339.477 123.053 339.78V340.2C123.053 340.41 123.006 340.655 122.913 340.935C122.819 341.192 122.679 341.32 122.493 341.32C122.329 341.32 122.201 341.192 122.108 340.935C122.014 340.678 121.921 340.328 121.828 339.885C121.734 339.395 121.454 339.01 120.988 338.73C120.521 338.427 119.728 338.275 118.608 338.275H115.073C114.559 338.275 114.174 338.345 113.918 338.485C113.661 338.625 113.498 338.975 113.428 339.535C113.358 340.095 113.323 341.017 113.323 342.3V356.055C113.323 356.895 113.568 357.525 114.058 357.945C114.548 358.342 115.224 358.622 116.088 358.785C116.484 358.855 116.776 358.937 116.963 359.03C117.149 359.123 117.243 359.252 117.243 359.415C117.243 359.555 117.149 359.648 116.963 359.695C116.776 359.765 116.531 359.8 116.228 359.8C115.598 359.8 115.073 359.777 114.653 359.73C114.256 359.707 113.871 359.683 113.498 359.66C113.124 359.637 112.669 359.625 112.133 359.625C111.549 359.625 111.036 359.637 110.593 359.66C110.173 359.683 109.729 359.707 109.263 359.73C108.819 359.777 108.283 359.8 107.653 359.8ZM123.589 359.73C123.355 359.73 123.18 359.695 123.064 359.625C122.947 359.578 122.889 359.485 122.889 359.345C122.889 359.158 122.959 359.042 123.099 358.995C123.239 358.925 123.437 358.855 123.694 358.785C124.137 358.668 124.464 358.505 124.674 358.295C124.907 358.062 125.024 357.782 125.024 357.455V349.93C125.024 349.3 124.93 348.752 124.744 348.285C124.557 347.818 124.172 347.527 123.589 347.41C123.495 347.387 123.414 347.328 123.344 347.235C123.274 347.142 123.239 347.048 123.239 346.955C123.239 346.722 123.344 346.582 123.554 346.535C124.16 346.348 124.79 346.08 125.444 345.73C126.12 345.357 126.645 345.053 127.019 344.82C127.159 344.727 127.264 344.668 127.334 344.645C127.427 344.598 127.497 344.575 127.544 344.575C127.66 344.575 127.719 344.657 127.719 344.82C127.719 344.89 127.707 345.065 127.684 345.345C127.684 345.625 127.672 345.952 127.649 346.325C127.649 346.698 127.637 347.072 127.614 347.445C127.614 347.492 127.637 347.515 127.684 347.515C128.057 347.048 128.465 346.64 128.909 346.29C129.375 345.94 129.842 345.66 130.309 345.45C130.799 345.24 131.265 345.135 131.709 345.135C132.199 345.135 132.595 345.24 132.899 345.45C133.225 345.66 133.389 345.928 133.389 346.255C133.389 346.488 133.319 346.745 133.179 347.025C133.062 347.305 132.899 347.55 132.689 347.76C132.479 347.97 132.257 348.075 132.024 348.075C131.884 348.075 131.732 348.052 131.569 348.005C131.405 347.935 131.23 347.853 131.044 347.76C130.857 347.69 130.67 347.62 130.484 347.55C130.297 347.48 130.11 347.445 129.924 347.445C129.364 347.445 128.815 347.643 128.279 348.04C127.765 348.437 127.509 349.218 127.509 350.385V357.455C127.509 357.758 127.672 358.015 127.999 358.225C128.325 358.412 128.78 358.598 129.364 358.785C129.62 358.855 129.819 358.925 129.959 358.995C130.099 359.065 130.169 359.182 130.169 359.345C130.169 359.602 129.935 359.73 129.469 359.73C128.769 359.73 128.232 359.695 127.859 359.625C127.509 359.578 127.03 359.555 126.424 359.555C126.027 359.555 125.7 359.567 125.444 359.59C125.21 359.613 124.954 359.637 124.674 359.66C124.417 359.707 124.055 359.73 123.589 359.73ZM139.408 360.115C138.988 360.115 138.556 359.952 138.113 359.625C137.693 359.298 137.331 358.902 137.028 358.435C136.748 357.968 136.608 357.525 136.608 357.105C136.608 356.358 136.806 355.775 137.203 355.355C137.6 354.935 138.23 354.55 139.093 354.2L142.663 352.73C143.13 352.543 143.398 352.38 143.468 352.24C143.561 352.1 143.62 351.797 143.643 351.33L143.713 349.09C143.736 348.483 143.561 347.958 143.188 347.515C142.838 347.072 142.325 346.85 141.648 346.85C141.298 346.85 140.948 346.908 140.598 347.025C140.248 347.142 139.956 347.293 139.723 347.48C139.583 347.573 139.49 347.713 139.443 347.9C139.396 348.087 139.373 348.285 139.373 348.495C139.373 348.588 139.373 348.693 139.373 348.81C139.396 348.927 139.408 349.032 139.408 349.125C139.408 349.242 139.256 349.405 138.953 349.615C138.673 349.802 138.346 349.977 137.973 350.14C137.623 350.28 137.331 350.35 137.098 350.35C136.981 350.35 136.888 350.327 136.818 350.28C136.748 350.21 136.713 350.128 136.713 350.035C136.713 349.662 136.83 349.265 137.063 348.845C137.32 348.402 137.67 347.993 138.113 347.62C138.65 347.13 139.233 346.698 139.863 346.325C140.493 345.952 141.111 345.66 141.718 345.45C142.325 345.24 142.861 345.135 143.328 345.135C144.168 345.135 144.856 345.438 145.393 346.045C145.953 346.628 146.221 347.363 146.198 348.25L146.023 356.65C146 357.14 146.105 357.537 146.338 357.84C146.595 358.143 146.91 358.295 147.283 358.295C147.866 358.295 148.298 358.167 148.578 357.91C148.695 357.793 148.788 357.735 148.858 357.735C148.975 357.735 149.068 357.77 149.138 357.84C149.208 357.91 149.243 358.003 149.243 358.12C149.243 358.377 149.115 358.633 148.858 358.89C148.485 359.263 148.076 359.555 147.633 359.765C147.213 359.998 146.816 360.115 146.443 360.115C145.37 360.115 144.518 359.508 143.888 358.295H143.783C143.013 358.925 142.278 359.38 141.578 359.66C140.878 359.963 140.155 360.115 139.408 360.115ZM141.053 358.435C141.52 358.435 141.916 358.365 142.243 358.225C142.57 358.062 142.861 357.852 143.118 357.595C143.235 357.478 143.328 357.327 143.398 357.14C143.491 356.93 143.55 356.603 143.573 356.16L143.643 354.445C143.666 354.188 143.655 354.002 143.608 353.885C143.561 353.768 143.468 353.71 143.328 353.71C143.281 353.71 143.2 353.722 143.083 353.745C142.966 353.768 142.815 353.815 142.628 353.885C141.391 354.328 140.528 354.795 140.038 355.285C139.571 355.752 139.338 356.183 139.338 356.58C139.338 357.187 139.513 357.653 139.863 357.98C140.236 358.283 140.633 358.435 141.053 358.435ZM157.849 360.36C157.756 360.36 157.639 360.173 157.499 359.8C157.359 359.45 157.266 359.193 157.219 359.03C157.056 358.633 156.904 358.225 156.764 357.805C156.624 357.362 156.484 356.953 156.344 356.58C155.831 355.133 155.271 353.722 154.664 352.345C154.081 350.945 153.509 349.533 152.949 348.11C152.786 347.69 152.529 347.317 152.179 346.99C151.852 346.64 151.514 346.418 151.164 346.325C150.977 346.255 150.826 346.185 150.709 346.115C150.592 346.045 150.534 345.928 150.534 345.765C150.534 345.625 150.616 345.543 150.779 345.52C150.966 345.473 151.117 345.45 151.234 345.45C151.701 345.45 152.039 345.462 152.249 345.485C152.459 345.508 152.669 345.543 152.879 345.59C153.089 345.613 153.392 345.625 153.789 345.625C154.209 345.625 154.524 345.613 154.734 345.59C154.944 345.543 155.166 345.508 155.399 345.485C155.632 345.462 155.971 345.45 156.414 345.45C156.531 345.45 156.671 345.473 156.834 345.52C157.021 345.543 157.114 345.625 157.114 345.765C157.114 345.928 157.032 346.057 156.869 346.15C156.706 346.243 156.519 346.325 156.309 346.395C156.076 346.488 155.901 346.675 155.784 346.955C155.667 347.212 155.609 347.503 155.609 347.83C155.609 347.993 155.621 348.157 155.644 348.32C155.667 348.483 155.702 348.635 155.749 348.775L158.514 356.125C158.537 356.148 158.549 356.16 158.549 356.16C158.572 356.16 158.596 356.148 158.619 356.125L161.279 349.3C161.372 349.067 161.442 348.822 161.489 348.565C161.536 348.285 161.559 348.052 161.559 347.865C161.559 347.398 161.489 347.072 161.349 346.885C161.209 346.675 160.976 346.512 160.649 346.395C160.346 346.278 160.136 346.185 160.019 346.115C159.902 346.045 159.844 345.928 159.844 345.765C159.844 345.625 159.914 345.543 160.054 345.52C160.217 345.473 160.381 345.45 160.544 345.45C160.801 345.45 161.139 345.485 161.559 345.555C161.979 345.602 162.492 345.625 163.099 345.625C163.706 345.625 164.114 345.602 164.324 345.555C164.557 345.485 164.837 345.45 165.164 345.45C165.351 345.45 165.514 345.473 165.654 345.52C165.794 345.543 165.864 345.625 165.864 345.765C165.864 346.022 165.596 346.232 165.059 346.395C164.709 346.488 164.324 346.757 163.904 347.2C163.484 347.643 163.146 348.157 162.889 348.74L160.159 355.32C160.112 355.413 160.019 355.647 159.879 356.02C159.739 356.37 159.587 356.767 159.424 357.21C159.261 357.63 159.121 358.003 159.004 358.33C158.887 358.633 158.829 358.785 158.829 358.785C158.829 358.785 158.782 358.902 158.689 359.135C158.596 359.345 158.491 359.567 158.374 359.8C158.257 360.057 158.152 360.243 158.059 360.36H157.849ZM171.038 360.115C170.618 360.115 170.186 359.952 169.743 359.625C169.323 359.298 168.961 358.902 168.658 358.435C168.378 357.968 168.238 357.525 168.238 357.105C168.238 356.358 168.436 355.775 168.833 355.355C169.23 354.935 169.86 354.55 170.723 354.2L174.293 352.73C174.76 352.543 175.028 352.38 175.098 352.24C175.191 352.1 175.25 351.797 175.273 351.33L175.343 349.09C175.366 348.483 175.191 347.958 174.818 347.515C174.468 347.072 173.955 346.85 173.278 346.85C172.928 346.85 172.578 346.908 172.228 347.025C171.878 347.142 171.586 347.293 171.353 347.48C171.213 347.573 171.12 347.713 171.073 347.9C171.026 348.087 171.003 348.285 171.003 348.495C171.003 348.588 171.003 348.693 171.003 348.81C171.026 348.927 171.038 349.032 171.038 349.125C171.038 349.242 170.886 349.405 170.583 349.615C170.303 349.802 169.976 349.977 169.603 350.14C169.253 350.28 168.961 350.35 168.728 350.35C168.611 350.35 168.518 350.327 168.448 350.28C168.378 350.21 168.343 350.128 168.343 350.035C168.343 349.662 168.46 349.265 168.693 348.845C168.95 348.402 169.3 347.993 169.743 347.62C170.28 347.13 170.863 346.698 171.493 346.325C172.123 345.952 172.741 345.66 173.348 345.45C173.955 345.24 174.491 345.135 174.958 345.135C175.798 345.135 176.486 345.438 177.023 346.045C177.583 346.628 177.851 347.363 177.828 348.25L177.653 356.65C177.63 357.14 177.735 357.537 177.968 357.84C178.225 358.143 178.54 358.295 178.913 358.295C179.496 358.295 179.928 358.167 180.208 357.91C180.325 357.793 180.418 357.735 180.488 357.735C180.605 357.735 180.698 357.77 180.768 357.84C180.838 357.91 180.873 358.003 180.873 358.12C180.873 358.377 180.745 358.633 180.488 358.89C180.115 359.263 179.706 359.555 179.263 359.765C178.843 359.998 178.446 360.115 178.073 360.115C177 360.115 176.148 359.508 175.518 358.295H175.413C174.643 358.925 173.908 359.38 173.208 359.66C172.508 359.963 171.785 360.115 171.038 360.115ZM172.683 358.435C173.15 358.435 173.546 358.365 173.873 358.225C174.2 358.062 174.491 357.852 174.748 357.595C174.865 357.478 174.958 357.327 175.028 357.14C175.121 356.93 175.18 356.603 175.203 356.16L175.273 354.445C175.296 354.188 175.285 354.002 175.238 353.885C175.191 353.768 175.098 353.71 174.958 353.71C174.911 353.71 174.83 353.722 174.713 353.745C174.596 353.768 174.445 353.815 174.258 353.885C173.021 354.328 172.158 354.795 171.668 355.285C171.201 355.752 170.968 356.183 170.968 356.58C170.968 357.187 171.143 357.653 171.493 357.98C171.866 358.283 172.263 358.435 172.683 358.435ZM184.037 359.73C183.921 359.73 183.769 359.707 183.582 359.66C183.419 359.637 183.337 359.555 183.337 359.415C183.337 359.228 183.419 359.1 183.582 359.03C183.769 358.937 183.956 358.855 184.142 358.785C184.492 358.668 184.831 358.54 185.157 358.4C185.484 358.237 185.647 357.922 185.647 357.455V339.815C185.647 339.138 185.519 338.578 185.262 338.135C185.029 337.668 184.621 337.377 184.037 337.26C183.851 337.213 183.757 337.062 183.757 336.805C183.757 336.572 183.839 336.432 184.002 336.385C184.609 336.245 185.134 336.105 185.577 335.965C186.021 335.802 186.429 335.638 186.802 335.475C187.199 335.312 187.584 335.16 187.957 335.02C188.051 334.973 188.121 334.95 188.167 334.95C188.214 334.95 188.249 334.985 188.272 335.055C188.319 335.102 188.342 335.148 188.342 335.195C188.342 335.405 188.296 335.86 188.202 336.56C188.132 337.237 188.097 338.368 188.097 339.955V357.455C188.097 357.922 188.261 358.237 188.587 358.4C188.914 358.54 189.252 358.668 189.602 358.785C189.789 358.855 189.964 358.937 190.127 359.03C190.314 359.1 190.407 359.228 190.407 359.415C190.407 359.555 190.314 359.637 190.127 359.66C189.964 359.707 189.824 359.73 189.707 359.73C189.264 359.73 188.902 359.707 188.622 359.66C188.366 359.637 188.109 359.613 187.852 359.59C187.619 359.567 187.292 359.555 186.872 359.555C186.476 359.555 186.149 359.567 185.892 359.59C185.636 359.613 185.379 359.637 185.122 359.66C184.866 359.707 184.504 359.73 184.037 359.73ZM97.3873 394.87C97.154 394.87 96.629 394.847 95.8123 394.8C95.019 394.753 94.0973 394.707 93.0473 394.66C92.0207 394.637 91.0407 394.625 90.1073 394.625C89.6407 394.625 89.244 394.637 88.9173 394.66C88.614 394.683 88.2757 394.707 87.9023 394.73C87.5523 394.777 87.0623 394.8 86.4323 394.8C86.129 394.8 85.884 394.765 85.6973 394.695C85.5107 394.625 85.4173 394.508 85.4173 394.345C85.4173 394.158 85.5107 394.042 85.6973 393.995C85.884 393.925 86.1757 393.855 86.5723 393.785C87.459 393.622 88.0657 393.353 88.3923 392.98C88.7423 392.607 88.9173 392 88.9173 391.16V375.41C88.9173 374.57 88.7423 373.975 88.3923 373.625C88.0657 373.275 87.459 373.018 86.5723 372.855C86.1757 372.785 85.884 372.715 85.6973 372.645C85.5107 372.552 85.4173 372.412 85.4173 372.225C85.4173 372.062 85.5107 371.945 85.6973 371.875C85.884 371.805 86.129 371.77 86.4323 371.77C87.039 371.77 87.5173 371.782 87.8673 371.805C88.2407 371.805 88.6023 371.817 88.9523 371.84C89.3023 371.84 89.7573 371.84 90.3173 371.84C90.6907 371.84 91.1573 371.828 91.7173 371.805C92.3007 371.782 92.8957 371.747 93.5023 371.7C94.1323 371.653 94.6923 371.618 95.1823 371.595C95.6957 371.572 96.069 371.56 96.3023 371.56C98.6823 371.56 100.712 371.852 102.392 372.435C104.072 372.995 105.437 373.788 106.487 374.815C107.537 375.818 108.307 376.997 108.797 378.35C109.311 379.68 109.567 381.115 109.567 382.655C109.567 384.335 109.252 385.91 108.622 387.38C107.992 388.85 107.117 390.157 105.997 391.3C104.877 392.42 103.582 393.295 102.112 393.925C100.642 394.555 99.0673 394.87 97.3873 394.87ZM96.9673 393.645C98.7873 393.645 100.397 393.202 101.797 392.315C103.197 391.428 104.282 390.203 105.052 388.64C105.846 387.077 106.242 385.28 106.242 383.25C106.242 381.57 105.962 380.077 105.402 378.77C104.842 377.44 104.096 376.332 103.162 375.445C102.229 374.535 101.179 373.847 100.012 373.38C98.8457 372.89 97.6673 372.645 96.4773 372.645C95.474 372.645 94.6107 372.68 93.8873 372.75C93.1873 372.797 92.6507 372.972 92.2773 373.275C91.904 373.578 91.7173 374.08 91.7173 374.78V390.39C91.7173 391.323 91.974 392.023 92.4873 392.49C93.0007 392.957 93.654 393.272 94.4473 393.435C95.264 393.575 96.104 393.645 96.9673 393.645ZM119.994 395.15C118.711 395.15 117.591 394.835 116.634 394.205C115.677 393.575 114.931 392.688 114.394 391.545C113.857 390.378 113.589 389.037 113.589 387.52C113.589 386.167 113.892 384.942 114.499 383.845C115.129 382.725 115.957 381.827 116.984 381.15C118.011 380.473 119.131 380.135 120.344 380.135C121.277 380.135 122.106 380.322 122.829 380.695C123.552 381.068 124.112 381.593 124.509 382.27C124.929 382.923 125.139 383.682 125.139 384.545C125.139 385.268 124.789 385.63 124.089 385.63H116.704C116.377 385.63 116.144 385.723 116.004 385.91C115.887 386.073 115.829 386.412 115.829 386.925C115.829 388.045 116.074 389.072 116.564 390.005C117.054 390.915 117.707 391.65 118.524 392.21C119.341 392.747 120.239 393.015 121.219 393.015C121.919 393.015 122.549 392.887 123.109 392.63C123.692 392.35 124.206 391.953 124.649 391.44C124.742 391.323 124.812 391.253 124.859 391.23C124.906 391.183 124.964 391.16 125.034 391.16C125.221 391.16 125.314 391.277 125.314 391.51C125.314 391.953 125.104 392.443 124.684 392.98C124.334 393.423 123.914 393.808 123.424 394.135C122.934 394.462 122.397 394.707 121.814 394.87C121.231 395.057 120.624 395.15 119.994 395.15ZM116.774 384.545H119.959C120.519 384.545 120.997 384.533 121.394 384.51C121.791 384.487 122.176 384.44 122.549 384.37C122.666 384.347 122.736 384.277 122.759 384.16C122.806 384.02 122.829 383.833 122.829 383.6C122.829 382.923 122.526 382.352 121.919 381.885C121.336 381.395 120.636 381.15 119.819 381.15C119.282 381.15 118.746 381.313 118.209 381.64C117.672 381.943 117.229 382.328 116.879 382.795C116.529 383.262 116.354 383.728 116.354 384.195C116.354 384.428 116.494 384.545 116.774 384.545ZM132.967 395.115C132.243 395.115 131.567 394.998 130.937 394.765C130.307 394.555 129.77 394.252 129.327 393.855C129.21 393.598 129.117 393.167 129.047 392.56C129 391.953 128.965 391.452 128.942 391.055C128.942 390.845 129.093 390.74 129.397 390.74C129.49 390.74 129.572 390.763 129.642 390.81C129.735 390.833 129.793 390.892 129.817 390.985C130.12 392.128 130.598 392.945 131.252 393.435C131.928 393.925 132.605 394.17 133.282 394.17C133.958 394.17 134.53 393.948 134.997 393.505C135.487 393.038 135.732 392.467 135.732 391.79C135.732 391.16 135.522 390.623 135.102 390.18C134.682 389.713 133.947 389.153 132.897 388.5C132.103 388.01 131.462 387.543 130.972 387.1C130.482 386.657 130.12 386.202 129.887 385.735C129.677 385.268 129.572 384.743 129.572 384.16C129.572 383.413 129.747 382.737 130.097 382.13C130.447 381.523 130.972 381.045 131.672 380.695C132.372 380.322 133.247 380.135 134.297 380.135C134.997 380.135 135.58 380.205 136.047 380.345C136.513 380.485 136.863 380.637 137.097 380.8C137.283 381.057 137.435 381.465 137.552 382.025C137.692 382.562 137.762 383.075 137.762 383.565C137.762 383.728 137.645 383.81 137.412 383.81C137.272 383.81 137.132 383.787 136.992 383.74C136.875 383.67 136.793 383.588 136.747 383.495C136.443 382.725 136.058 382.142 135.592 381.745C135.148 381.325 134.588 381.115 133.912 381.115C133.328 381.115 132.803 381.29 132.337 381.64C131.893 381.99 131.672 382.503 131.672 383.18C131.672 383.717 131.835 384.195 132.162 384.615C132.512 385.035 133.153 385.513 134.087 386.05C135.44 386.82 136.443 387.543 137.097 388.22C137.773 388.873 138.112 389.748 138.112 390.845C138.112 392.105 137.633 393.132 136.677 393.925C135.72 394.718 134.483 395.115 132.967 395.115ZM142.53 394.73C142.32 394.73 142.145 394.695 142.005 394.625C141.889 394.578 141.83 394.485 141.83 394.345C141.83 394.158 141.912 394.03 142.075 393.96C142.262 393.89 142.449 393.832 142.635 393.785C143.125 393.668 143.499 393.528 143.755 393.365C144.012 393.178 144.14 392.875 144.14 392.455V384.86C144.14 384.23 144.024 383.67 143.79 383.18C143.58 382.69 143.172 382.398 142.565 382.305C142.449 382.282 142.355 382.235 142.285 382.165C142.239 382.095 142.215 381.99 142.215 381.85C142.215 381.593 142.32 381.453 142.53 381.43C143.464 381.22 144.234 380.94 144.84 380.59C145.447 380.217 145.902 379.913 146.205 379.68C146.415 379.517 146.579 379.435 146.695 379.435C146.835 379.435 146.905 379.493 146.905 379.61C146.905 379.797 146.87 380.17 146.8 380.73C146.754 381.267 146.707 381.873 146.66 382.55C146.614 383.203 146.59 383.798 146.59 384.335V392.455C146.59 392.852 146.719 393.143 146.975 393.33C147.255 393.517 147.629 393.668 148.095 393.785C148.282 393.832 148.457 393.89 148.62 393.96C148.807 394.03 148.9 394.158 148.9 394.345C148.9 394.602 148.667 394.73 148.2 394.73C147.757 394.73 147.395 394.707 147.115 394.66C146.859 394.637 146.602 394.613 146.345 394.59C146.112 394.567 145.785 394.555 145.365 394.555C144.969 394.555 144.642 394.567 144.385 394.59C144.129 394.613 143.872 394.637 143.615 394.66C143.359 394.707 142.997 394.73 142.53 394.73ZM145.33 376.565C144.84 376.565 144.42 376.402 144.07 376.075C143.744 375.725 143.58 375.305 143.58 374.815C143.58 374.302 143.744 373.882 144.07 373.555C144.42 373.205 144.84 373.03 145.33 373.03C145.844 373.03 146.264 373.205 146.59 373.555C146.94 373.882 147.115 374.302 147.115 374.815C147.115 375.305 146.94 375.725 146.59 376.075C146.264 376.402 145.844 376.565 145.33 376.565ZM158.144 404.775C156.161 404.775 154.586 404.39 153.419 403.62C152.276 402.873 151.704 401.858 151.704 400.575C151.704 399.968 151.798 399.455 151.984 399.035C152.171 398.615 152.463 398.253 152.859 397.95C153.186 397.67 153.618 397.308 154.154 396.865C154.714 396.445 155.286 396.002 155.869 395.535L157.339 395.605C156.219 396.328 155.438 397.017 154.994 397.67C154.551 398.323 154.329 399.117 154.329 400.05C154.329 400.983 154.738 401.765 155.554 402.395C156.394 403.048 157.421 403.375 158.634 403.375C160.011 403.375 161.119 403.06 161.959 402.43C162.543 401.987 162.998 401.403 163.324 400.68C163.651 399.98 163.814 399.233 163.814 398.44C163.814 397.927 163.628 397.495 163.254 397.145C162.904 396.818 162.344 396.55 161.574 396.34C160.804 396.13 159.801 395.99 158.564 395.92C156.371 395.757 154.843 395.465 153.979 395.045C153.139 394.625 152.719 393.972 152.719 393.085C152.719 392.852 152.778 392.642 152.894 392.455C153.034 392.245 153.244 392.023 153.524 391.79C154.061 391.37 154.458 391.067 154.714 390.88C154.971 390.67 155.158 390.495 155.274 390.355C155.414 390.215 155.543 390.04 155.659 389.83L156.849 390.425C156.336 390.612 155.904 390.868 155.554 391.195C155.204 391.498 155.029 391.778 155.029 392.035C155.029 392.362 155.204 392.653 155.554 392.91C155.904 393.143 156.418 393.33 157.094 393.47C157.771 393.61 158.599 393.715 159.579 393.785C161.726 393.902 163.324 394.252 164.374 394.835C165.424 395.418 165.949 396.247 165.949 397.32C165.949 398.23 165.716 399.117 165.249 399.98C164.806 400.867 164.211 401.672 163.464 402.395C162.718 403.118 161.878 403.69 160.944 404.11C160.034 404.553 159.101 404.775 158.144 404.775ZM158.564 389.69C159.451 389.69 160.186 389.247 160.769 388.36C161.353 387.45 161.644 386.33 161.644 385C161.644 384.323 161.481 383.693 161.154 383.11C160.851 382.503 160.443 382.025 159.929 381.675C159.439 381.302 158.903 381.115 158.319 381.115C157.783 381.115 157.269 381.313 156.779 381.71C156.313 382.083 155.928 382.573 155.624 383.18C155.344 383.787 155.204 384.452 155.204 385.175C155.204 385.992 155.356 386.75 155.659 387.45C155.963 388.127 156.371 388.675 156.884 389.095C157.398 389.492 157.958 389.69 158.564 389.69ZM158.354 390.915C157.398 390.915 156.488 390.67 155.624 390.18C154.761 389.69 154.049 389.048 153.489 388.255C152.953 387.438 152.684 386.552 152.684 385.595C152.684 384.498 152.964 383.542 153.524 382.725C154.108 381.885 154.866 381.232 155.799 380.765C156.733 380.298 157.724 380.065 158.774 380.065C159.451 380.065 160.034 380.158 160.524 380.345C161.038 380.508 161.539 380.66 162.029 380.8C162.589 380.963 163.033 381.068 163.359 381.115C163.686 381.138 164.024 381.15 164.374 381.15C164.654 381.15 165.004 381.138 165.424 381.115C165.844 381.068 166.136 381.045 166.299 381.045C166.603 381.045 166.754 381.22 166.754 381.57C166.754 381.78 166.638 382.002 166.404 382.235C166.288 382.352 166.194 382.41 166.124 382.41H165.179C164.549 382.41 164.199 382.503 164.129 382.69C164.106 382.783 164.071 382.923 164.024 383.11C164.001 383.273 163.978 383.46 163.954 383.67C163.931 383.88 163.919 384.09 163.919 384.3C163.919 385.49 163.663 386.587 163.149 387.59C162.636 388.593 161.959 389.398 161.119 390.005C160.279 390.612 159.358 390.915 158.354 390.915ZM169.819 394.73C169.609 394.73 169.434 394.695 169.294 394.625C169.178 394.578 169.119 394.485 169.119 394.345C169.119 394.158 169.189 394.042 169.329 393.995C169.469 393.925 169.668 393.855 169.924 393.785C170.274 393.692 170.613 393.563 170.939 393.4C171.266 393.237 171.429 392.922 171.429 392.455V384.93C171.429 384.3 171.359 383.763 171.219 383.32C171.103 382.877 170.741 382.573 170.134 382.41C170.041 382.363 169.959 382.317 169.889 382.27C169.819 382.2 169.784 382.095 169.784 381.955C169.784 381.698 169.889 381.558 170.099 381.535C170.916 381.325 171.581 381.068 172.094 380.765C172.608 380.462 173.109 380.123 173.599 379.75C173.669 379.703 173.728 379.668 173.774 379.645C173.844 379.598 173.914 379.575 173.984 379.575C174.031 379.575 174.066 379.598 174.089 379.645C174.136 379.692 174.159 379.75 174.159 379.82C174.159 379.983 174.124 380.322 174.054 380.835C174.008 381.325 173.984 381.733 173.984 382.06C173.984 382.153 173.984 382.247 173.984 382.34C174.008 382.41 174.031 382.457 174.054 382.48C174.871 381.71 175.734 381.127 176.644 380.73C177.578 380.333 178.593 380.135 179.689 380.135C180.833 380.135 181.778 380.602 182.524 381.535C183.271 382.468 183.644 383.623 183.644 385V392.455C183.644 392.922 183.808 393.237 184.134 393.4C184.461 393.54 184.799 393.668 185.149 393.785C185.336 393.855 185.511 393.937 185.674 394.03C185.861 394.1 185.954 394.228 185.954 394.415C185.954 394.555 185.873 394.637 185.709 394.66C185.546 394.707 185.394 394.73 185.254 394.73C184.788 394.73 184.426 394.707 184.169 394.66C183.913 394.637 183.668 394.613 183.434 394.59C183.201 394.567 182.874 394.555 182.454 394.555C182.058 394.555 181.731 394.567 181.474 394.59C181.218 394.613 180.949 394.637 180.669 394.66C180.413 394.707 180.051 394.73 179.584 394.73C179.468 394.73 179.316 394.707 179.129 394.66C178.966 394.637 178.884 394.555 178.884 394.415C178.884 394.228 178.966 394.1 179.129 394.03C179.316 393.937 179.503 393.855 179.689 393.785C180.039 393.668 180.378 393.54 180.704 393.4C181.031 393.237 181.194 392.922 181.194 392.455V385.105C181.194 384.078 180.903 383.285 180.319 382.725C179.759 382.142 179.001 381.838 178.044 381.815C177.204 381.815 176.469 381.955 175.839 382.235C175.209 382.492 174.649 382.818 174.159 383.215C174.066 383.308 173.996 383.437 173.949 383.6C173.903 383.74 173.879 383.88 173.879 384.02V392.455C173.879 392.922 174.043 393.237 174.369 393.4C174.696 393.563 175.034 393.692 175.384 393.785C175.921 393.925 176.189 394.112 176.189 394.345C176.189 394.485 176.131 394.578 176.014 394.625C175.898 394.695 175.723 394.73 175.489 394.73C175.023 394.73 174.649 394.707 174.369 394.66C174.113 394.637 173.868 394.613 173.634 394.59C173.401 394.567 173.074 394.555 172.654 394.555C172.258 394.555 171.931 394.567 171.674 394.59C171.441 394.613 171.184 394.637 170.904 394.66C170.648 394.707 170.286 394.73 169.819 394.73ZM195.976 395.15C194.692 395.15 193.572 394.835 192.616 394.205C191.659 393.575 190.912 392.688 190.376 391.545C189.839 390.378 189.571 389.037 189.571 387.52C189.571 386.167 189.874 384.942 190.481 383.845C191.111 382.725 191.939 381.827 192.966 381.15C193.992 380.473 195.112 380.135 196.326 380.135C197.259 380.135 198.087 380.322 198.811 380.695C199.534 381.068 200.094 381.593 200.491 382.27C200.911 382.923 201.121 383.682 201.121 384.545C201.121 385.268 200.771 385.63 200.071 385.63H192.686C192.359 385.63 192.126 385.723 191.986 385.91C191.869 386.073 191.811 386.412 191.811 386.925C191.811 388.045 192.056 389.072 192.546 390.005C193.036 390.915 193.689 391.65 194.506 392.21C195.322 392.747 196.221 393.015 197.201 393.015C197.901 393.015 198.531 392.887 199.091 392.63C199.674 392.35 200.187 391.953 200.631 391.44C200.724 391.323 200.794 391.253 200.841 391.23C200.887 391.183 200.946 391.16 201.016 391.16C201.202 391.16 201.296 391.277 201.296 391.51C201.296 391.953 201.086 392.443 200.666 392.98C200.316 393.423 199.896 393.808 199.406 394.135C198.916 394.462 198.379 394.707 197.796 394.87C197.212 395.057 196.606 395.15 195.976 395.15ZM192.756 384.545H195.941C196.501 384.545 196.979 384.533 197.376 384.51C197.772 384.487 198.157 384.44 198.531 384.37C198.647 384.347 198.717 384.277 198.741 384.16C198.787 384.02 198.811 383.833 198.811 383.6C198.811 382.923 198.507 382.352 197.901 381.885C197.317 381.395 196.617 381.15 195.801 381.15C195.264 381.15 194.727 381.313 194.191 381.64C193.654 381.943 193.211 382.328 192.861 382.795C192.511 383.262 192.336 383.728 192.336 384.195C192.336 384.428 192.476 384.545 192.756 384.545ZM205.623 394.73C205.39 394.73 205.215 394.695 205.098 394.625C204.982 394.578 204.923 394.485 204.923 394.345C204.923 394.158 204.993 394.042 205.133 393.995C205.273 393.925 205.472 393.855 205.728 393.785C206.172 393.668 206.498 393.505 206.708 393.295C206.942 393.062 207.058 392.782 207.058 392.455V384.93C207.058 384.3 206.965 383.752 206.778 383.285C206.592 382.818 206.207 382.527 205.623 382.41C205.53 382.387 205.448 382.328 205.378 382.235C205.308 382.142 205.273 382.048 205.273 381.955C205.273 381.722 205.378 381.582 205.588 381.535C206.195 381.348 206.825 381.08 207.478 380.73C208.155 380.357 208.68 380.053 209.053 379.82C209.193 379.727 209.298 379.668 209.368 379.645C209.462 379.598 209.532 379.575 209.578 379.575C209.695 379.575 209.753 379.657 209.753 379.82C209.753 379.89 209.742 380.065 209.718 380.345C209.718 380.625 209.707 380.952 209.683 381.325C209.683 381.698 209.672 382.072 209.648 382.445C209.648 382.492 209.672 382.515 209.718 382.515C210.092 382.048 210.5 381.64 210.943 381.29C211.41 380.94 211.877 380.66 212.343 380.45C212.833 380.24 213.3 380.135 213.743 380.135C214.233 380.135 214.63 380.24 214.933 380.45C215.26 380.66 215.423 380.928 215.423 381.255C215.423 381.488 215.353 381.745 215.213 382.025C215.097 382.305 214.933 382.55 214.723 382.76C214.513 382.97 214.292 383.075 214.058 383.075C213.918 383.075 213.767 383.052 213.603 383.005C213.44 382.935 213.265 382.853 213.078 382.76C212.892 382.69 212.705 382.62 212.518 382.55C212.332 382.48 212.145 382.445 211.958 382.445C211.398 382.445 210.85 382.643 210.313 383.04C209.8 383.437 209.543 384.218 209.543 385.385V392.455C209.543 392.758 209.707 393.015 210.033 393.225C210.36 393.412 210.815 393.598 211.398 393.785C211.655 393.855 211.853 393.925 211.993 393.995C212.133 394.065 212.203 394.182 212.203 394.345C212.203 394.602 211.97 394.73 211.503 394.73C210.803 394.73 210.267 394.695 209.893 394.625C209.543 394.578 209.065 394.555 208.458 394.555C208.062 394.555 207.735 394.567 207.478 394.59C207.245 394.613 206.988 394.637 206.708 394.66C206.452 394.707 206.09 394.73 205.623 394.73Z" fill="white"/>
</g>
<circle cx="390" cy="365.625" r="149.5" stroke="white"/>
<path d="M351.477 359.8C351.173 359.8 350.928 359.753 350.742 359.66C350.578 359.59 350.497 359.497 350.497 359.38C350.497 359.17 350.602 359.03 350.812 358.96C351.045 358.867 351.197 358.808 351.267 358.785C352.177 358.598 352.877 358.33 353.367 357.98C353.857 357.607 354.102 357.035 354.102 356.265V340.025C354.102 339.465 354.043 339.057 353.927 338.8C353.81 338.52 353.6 338.322 353.297 338.205C352.993 338.065 352.55 337.948 351.967 337.855C351.197 337.715 350.812 337.482 350.812 337.155C350.812 337.015 350.905 336.922 351.092 336.875C351.278 336.805 351.523 336.77 351.827 336.77C352.457 336.77 352.958 336.782 353.332 336.805C353.728 336.828 354.102 336.852 354.452 336.875C354.802 336.875 355.233 336.875 355.747 336.875C356.33 336.875 356.832 336.875 357.252 336.875C357.672 336.852 358.103 336.828 358.547 336.805C358.99 336.782 359.527 336.77 360.157 336.77C360.46 336.77 360.705 336.805 360.892 336.875C361.078 336.922 361.172 337.015 361.172 337.155C361.172 337.318 361.078 337.458 360.892 337.575C360.705 337.692 360.413 337.785 360.017 337.855C359.153 338.018 358.418 338.217 357.812 338.45C357.205 338.66 356.902 339.103 356.902 339.78V356.265C356.902 356.988 357.065 357.525 357.392 357.875C357.718 358.225 358.453 358.4 359.597 358.4H363.937C364.567 358.4 365.115 358.307 365.582 358.12C366.072 357.91 366.433 357.7 366.667 357.49C367.133 357.093 367.472 356.743 367.682 356.44C367.915 356.113 368.183 355.635 368.487 355.005C368.533 354.865 368.627 354.655 368.767 354.375C368.93 354.095 369.093 353.955 369.257 353.955C369.397 353.955 369.502 354.025 369.572 354.165C369.642 354.305 369.677 354.445 369.677 354.585C369.677 354.608 369.665 354.643 369.642 354.69C369.642 354.713 369.642 354.737 369.642 354.76C369.478 355.367 369.327 355.915 369.187 356.405C369.07 356.895 368.965 357.362 368.872 357.805C368.802 358.248 368.743 358.715 368.697 359.205C368.673 359.368 368.627 359.508 368.557 359.625C368.51 359.742 368.393 359.8 368.207 359.8C367.04 359.8 365.92 359.788 364.847 359.765C363.773 359.742 362.735 359.718 361.732 359.695C360.752 359.695 359.807 359.683 358.897 359.66C357.987 359.637 357.088 359.625 356.202 359.625C355.618 359.625 354.953 359.637 354.207 359.66C353.483 359.683 352.842 359.707 352.282 359.73C351.745 359.777 351.477 359.8 351.477 359.8ZM379.931 360.115C378.625 360.115 377.446 359.812 376.396 359.205C375.346 358.598 374.506 357.77 373.876 356.72C373.27 355.647 372.966 354.433 372.966 353.08C372.966 352.1 373.153 351.143 373.526 350.21C373.923 349.277 374.471 348.425 375.171 347.655C375.871 346.885 376.688 346.278 377.621 345.835C378.555 345.368 379.558 345.135 380.631 345.135C381.985 345.135 383.198 345.462 384.271 346.115C385.368 346.768 386.231 347.632 386.861 348.705C387.515 349.755 387.841 350.91 387.841 352.17C387.841 353.523 387.538 354.807 386.931 356.02C386.348 357.233 385.473 358.225 384.306 358.995C383.14 359.742 381.681 360.115 379.931 360.115ZM380.666 359.065C381.46 359.065 382.171 358.913 382.801 358.61C383.431 358.307 383.921 357.817 384.271 357.14C384.551 356.603 384.738 355.95 384.831 355.18C384.925 354.41 384.971 353.687 384.971 353.01C384.971 351.89 384.761 350.817 384.341 349.79C383.945 348.74 383.373 347.888 382.626 347.235C381.903 346.558 381.04 346.22 380.036 346.22C379.406 346.22 378.835 346.325 378.321 346.535C377.831 346.722 377.376 347.083 376.956 347.62C376.49 348.203 376.186 348.915 376.046 349.755C375.906 350.595 375.836 351.435 375.836 352.275C375.836 353.418 376.046 354.515 376.466 355.565C376.886 356.592 377.458 357.432 378.181 358.085C378.905 358.738 379.733 359.065 380.666 359.065ZM398.275 360.15C397.109 360.15 396.047 359.858 395.09 359.275C394.157 358.668 393.41 357.852 392.85 356.825C392.314 355.775 392.045 354.608 392.045 353.325C392.045 351.808 392.372 350.432 393.025 349.195C393.702 347.958 394.6 346.978 395.72 346.255C396.84 345.508 398.077 345.135 399.43 345.135C400.947 345.135 402.277 345.543 403.42 346.36C403.7 346.57 403.84 346.792 403.84 347.025C403.84 347.212 403.759 347.422 403.595 347.655C403.432 347.888 403.234 348.087 403 348.25C402.767 348.39 402.545 348.46 402.335 348.46C402.219 348.46 402.102 348.425 401.985 348.355C401.869 348.262 401.74 348.168 401.6 348.075C401.087 347.678 400.515 347.305 399.885 346.955C399.255 346.605 398.73 346.43 398.31 346.43C397.167 346.43 396.234 346.967 395.51 348.04C394.81 349.09 394.46 350.478 394.46 352.205C394.46 353.302 394.694 354.293 395.16 355.18C395.65 356.067 396.292 356.767 397.085 357.28C397.902 357.793 398.8 358.05 399.78 358.05C400.457 358.05 401.04 357.945 401.53 357.735C402.02 357.502 402.545 357.105 403.105 356.545C403.152 356.498 403.21 356.463 403.28 356.44C403.35 356.393 403.409 356.37 403.455 356.37C403.712 356.37 403.84 356.533 403.84 356.86C403.84 357 403.794 357.163 403.7 357.35C403.63 357.513 403.502 357.712 403.315 357.945C402.942 358.412 402.499 358.82 401.985 359.17C401.472 359.497 400.9 359.742 400.27 359.905C399.664 360.068 398.999 360.15 398.275 360.15ZM410.406 360.115C409.986 360.115 409.554 359.952 409.111 359.625C408.691 359.298 408.329 358.902 408.026 358.435C407.746 357.968 407.606 357.525 407.606 357.105C407.606 356.358 407.804 355.775 408.201 355.355C408.597 354.935 409.227 354.55 410.091 354.2L413.661 352.73C414.127 352.543 414.396 352.38 414.466 352.24C414.559 352.1 414.617 351.797 414.641 351.33L414.711 349.09C414.734 348.483 414.559 347.958 414.186 347.515C413.836 347.072 413.322 346.85 412.646 346.85C412.296 346.85 411.946 346.908 411.596 347.025C411.246 347.142 410.954 347.293 410.721 347.48C410.581 347.573 410.487 347.713 410.441 347.9C410.394 348.087 410.371 348.285 410.371 348.495C410.371 348.588 410.371 348.693 410.371 348.81C410.394 348.927 410.406 349.032 410.406 349.125C410.406 349.242 410.254 349.405 409.951 349.615C409.671 349.802 409.344 349.977 408.971 350.14C408.621 350.28 408.329 350.35 408.096 350.35C407.979 350.35 407.886 350.327 407.816 350.28C407.746 350.21 407.711 350.128 407.711 350.035C407.711 349.662 407.827 349.265 408.061 348.845C408.317 348.402 408.667 347.993 409.111 347.62C409.647 347.13 410.231 346.698 410.861 346.325C411.491 345.952 412.109 345.66 412.716 345.45C413.322 345.24 413.859 345.135 414.326 345.135C415.166 345.135 415.854 345.438 416.391 346.045C416.951 346.628 417.219 347.363 417.196 348.25L417.021 356.65C416.997 357.14 417.102 357.537 417.336 357.84C417.592 358.143 417.907 358.295 418.281 358.295C418.864 358.295 419.296 358.167 419.576 357.91C419.692 357.793 419.786 357.735 419.856 357.735C419.972 357.735 420.066 357.77 420.136 357.84C420.206 357.91 420.241 358.003 420.241 358.12C420.241 358.377 420.112 358.633 419.856 358.89C419.482 359.263 419.074 359.555 418.631 359.765C418.211 359.998 417.814 360.115 417.441 360.115C416.367 360.115 415.516 359.508 414.886 358.295H414.781C414.011 358.925 413.276 359.38 412.576 359.66C411.876 359.963 411.152 360.115 410.406 360.115ZM412.051 358.435C412.517 358.435 412.914 358.365 413.241 358.225C413.567 358.062 413.859 357.852 414.116 357.595C414.232 357.478 414.326 357.327 414.396 357.14C414.489 356.93 414.547 356.603 414.571 356.16L414.641 354.445C414.664 354.188 414.652 354.002 414.606 353.885C414.559 353.768 414.466 353.71 414.326 353.71C414.279 353.71 414.197 353.722 414.081 353.745C413.964 353.768 413.812 353.815 413.626 353.885C412.389 354.328 411.526 354.795 411.036 355.285C410.569 355.752 410.336 356.183 410.336 356.58C410.336 357.187 410.511 357.653 410.861 357.98C411.234 358.283 411.631 358.435 412.051 358.435ZM423.405 359.73C423.288 359.73 423.137 359.707 422.95 359.66C422.787 359.637 422.705 359.555 422.705 359.415C422.705 359.228 422.787 359.1 422.95 359.03C423.137 358.937 423.323 358.855 423.51 358.785C423.86 358.668 424.198 358.54 424.525 358.4C424.852 358.237 425.015 357.922 425.015 357.455V339.815C425.015 339.138 424.887 338.578 424.63 338.135C424.397 337.668 423.988 337.377 423.405 337.26C423.218 337.213 423.125 337.062 423.125 336.805C423.125 336.572 423.207 336.432 423.37 336.385C423.977 336.245 424.502 336.105 424.945 335.965C425.388 335.802 425.797 335.638 426.17 335.475C426.567 335.312 426.952 335.16 427.325 335.02C427.418 334.973 427.488 334.95 427.535 334.95C427.582 334.95 427.617 334.985 427.64 335.055C427.687 335.102 427.71 335.148 427.71 335.195C427.71 335.405 427.663 335.86 427.57 336.56C427.5 337.237 427.465 338.368 427.465 339.955V357.455C427.465 357.922 427.628 358.237 427.955 358.4C428.282 358.54 428.62 358.668 428.97 358.785C429.157 358.855 429.332 358.937 429.495 359.03C429.682 359.1 429.775 359.228 429.775 359.415C429.775 359.555 429.682 359.637 429.495 359.66C429.332 359.707 429.192 359.73 429.075 359.73C428.632 359.73 428.27 359.707 427.99 359.66C427.733 359.637 427.477 359.613 427.22 359.59C426.987 359.567 426.66 359.555 426.24 359.555C425.843 359.555 425.517 359.567 425.26 359.59C425.003 359.613 424.747 359.637 424.49 359.66C424.233 359.707 423.872 359.73 423.405 359.73ZM356.55 394.8C356.247 394.8 356.002 394.753 355.815 394.66C355.628 394.59 355.535 394.485 355.535 394.345C355.535 394.182 355.628 394.042 355.815 393.925C356.025 393.785 356.317 393.657 356.69 393.54C357.297 393.353 357.857 393.073 358.37 392.7C358.883 392.327 359.327 391.708 359.7 390.845C360.353 389.352 360.948 387.952 361.485 386.645C362.045 385.338 362.57 384.055 363.06 382.795C363.55 381.535 364.052 380.228 364.565 378.875C365.102 377.498 365.662 376.005 366.245 374.395C366.362 374.068 366.467 373.742 366.56 373.415C366.653 373.088 366.712 372.738 366.735 372.365C366.945 372.295 367.155 372.225 367.365 372.155C367.575 372.085 367.785 371.98 367.995 371.84C368.205 371.7 368.345 371.49 368.415 371.21C368.508 370.93 368.59 370.743 368.66 370.65C368.683 370.627 368.707 370.615 368.73 370.615C368.777 370.615 368.812 370.638 368.835 370.685C368.882 370.778 368.917 370.895 368.94 371.035C368.987 371.175 369.033 371.315 369.08 371.455C369.64 373.228 370.223 375.037 370.83 376.88C371.437 378.723 372.02 380.508 372.58 382.235C373.163 383.938 373.688 385.478 374.155 386.855C374.645 388.208 375.03 389.305 375.31 390.145C375.637 391.078 375.987 391.778 376.36 392.245C376.733 392.712 377.118 393.038 377.515 393.225C377.935 393.412 378.378 393.552 378.845 393.645C379.242 393.715 379.533 393.832 379.72 393.995C379.907 394.135 380 394.287 380 394.45C380 394.59 379.907 394.683 379.72 394.73C379.533 394.777 379.288 394.8 378.985 394.8C378.658 394.8 378.215 394.777 377.655 394.73C377.095 394.707 376.5 394.672 375.87 394.625C375.24 394.602 374.657 394.59 374.12 394.59C373.677 394.59 373.222 394.59 372.755 394.59C372.288 394.59 371.857 394.602 371.46 394.625C371.063 394.625 370.725 394.625 370.445 394.625C370.142 394.625 369.897 394.59 369.71 394.52C369.523 394.45 369.43 394.345 369.43 394.205C369.43 394.042 369.547 393.902 369.78 393.785C370.013 393.668 370.282 393.587 370.585 393.54C371.355 393.423 371.903 393.225 372.23 392.945C372.557 392.665 372.72 392.338 372.72 391.965C372.72 391.615 372.638 391.113 372.475 390.46C372.335 389.783 372.16 389.072 371.95 388.325C371.74 387.555 371.542 386.878 371.355 386.295C371.308 386.108 371.215 386.003 371.075 385.98C370.958 385.933 370.737 385.91 370.41 385.91H363.795C363.702 385.91 363.597 385.957 363.48 386.05C363.387 386.12 363.293 386.283 363.2 386.54C363.13 386.773 363.013 387.147 362.85 387.66C362.687 388.15 362.523 388.675 362.36 389.235C362.197 389.795 362.057 390.297 361.94 390.74C361.823 391.183 361.765 391.463 361.765 391.58C361.765 392.093 361.963 392.525 362.36 392.875C362.757 393.202 363.235 393.435 363.795 393.575C364.565 393.785 364.95 394.018 364.95 394.275C364.95 394.415 364.857 394.52 364.67 394.59C364.483 394.637 364.238 394.66 363.935 394.66C363.632 394.66 363.188 394.648 362.605 394.625C362.022 394.602 361.403 394.59 360.75 394.59C359.98 394.59 359.233 394.625 358.51 394.695C357.787 394.765 357.133 394.8 356.55 394.8ZM364.74 384.755H370.165C370.492 384.755 370.655 384.697 370.655 384.58C370.655 384.533 370.643 384.487 370.62 384.44C370.62 384.37 370.608 384.3 370.585 384.23L367.855 375.69C367.715 375.27 367.61 375.06 367.54 375.06C367.493 375.06 367.4 375.258 367.26 375.655L364.075 384.23C364.028 384.37 364.005 384.463 364.005 384.51C364.005 384.627 364.063 384.697 364.18 384.72C364.32 384.743 364.507 384.755 364.74 384.755ZM383.303 394.73C383.07 394.73 382.895 394.695 382.778 394.625C382.662 394.578 382.603 394.485 382.603 394.345C382.603 394.158 382.673 394.042 382.813 393.995C382.953 393.925 383.152 393.855 383.408 393.785C383.852 393.668 384.178 393.505 384.388 393.295C384.622 393.062 384.738 392.782 384.738 392.455V384.93C384.738 384.3 384.645 383.752 384.458 383.285C384.272 382.818 383.887 382.527 383.303 382.41C383.21 382.387 383.128 382.328 383.058 382.235C382.988 382.142 382.953 382.048 382.953 381.955C382.953 381.722 383.058 381.582 383.268 381.535C383.875 381.348 384.505 381.08 385.158 380.73C385.835 380.357 386.36 380.053 386.733 379.82C386.873 379.727 386.978 379.668 387.048 379.645C387.142 379.598 387.212 379.575 387.258 379.575C387.375 379.575 387.433 379.657 387.433 379.82C387.433 379.89 387.422 380.065 387.398 380.345C387.398 380.625 387.387 380.952 387.363 381.325C387.363 381.698 387.352 382.072 387.328 382.445C387.328 382.492 387.352 382.515 387.398 382.515C387.772 382.048 388.18 381.64 388.623 381.29C389.09 380.94 389.557 380.66 390.023 380.45C390.513 380.24 390.98 380.135 391.423 380.135C391.913 380.135 392.31 380.24 392.613 380.45C392.94 380.66 393.103 380.928 393.103 381.255C393.103 381.488 393.033 381.745 392.893 382.025C392.777 382.305 392.613 382.55 392.403 382.76C392.193 382.97 391.972 383.075 391.738 383.075C391.598 383.075 391.447 383.052 391.283 383.005C391.12 382.935 390.945 382.853 390.758 382.76C390.572 382.69 390.385 382.62 390.198 382.55C390.012 382.48 389.825 382.445 389.638 382.445C389.078 382.445 388.53 382.643 387.993 383.04C387.48 383.437 387.223 384.218 387.223 385.385V392.455C387.223 392.758 387.387 393.015 387.713 393.225C388.04 393.412 388.495 393.598 389.078 393.785C389.335 393.855 389.533 393.925 389.673 393.995C389.813 394.065 389.883 394.182 389.883 394.345C389.883 394.602 389.65 394.73 389.183 394.73C388.483 394.73 387.947 394.695 387.573 394.625C387.223 394.578 386.745 394.555 386.138 394.555C385.742 394.555 385.415 394.567 385.158 394.59C384.925 394.613 384.668 394.637 384.388 394.66C384.132 394.707 383.77 394.73 383.303 394.73ZM402.483 395.15C401.199 395.15 400.079 394.835 399.123 394.205C398.166 393.575 397.419 392.688 396.883 391.545C396.346 390.378 396.078 389.037 396.078 387.52C396.078 386.167 396.381 384.942 396.988 383.845C397.618 382.725 398.446 381.827 399.473 381.15C400.499 380.473 401.619 380.135 402.833 380.135C403.766 380.135 404.594 380.322 405.318 380.695C406.041 381.068 406.601 381.593 406.998 382.27C407.418 382.923 407.628 383.682 407.628 384.545C407.628 385.268 407.278 385.63 406.578 385.63H399.193C398.866 385.63 398.633 385.723 398.493 385.91C398.376 386.073 398.318 386.412 398.318 386.925C398.318 388.045 398.563 389.072 399.053 390.005C399.543 390.915 400.196 391.65 401.013 392.21C401.829 392.747 402.728 393.015 403.708 393.015C404.408 393.015 405.038 392.887 405.598 392.63C406.181 392.35 406.694 391.953 407.138 391.44C407.231 391.323 407.301 391.253 407.348 391.23C407.394 391.183 407.453 391.16 407.523 391.16C407.709 391.16 407.803 391.277 407.803 391.51C407.803 391.953 407.593 392.443 407.173 392.98C406.823 393.423 406.403 393.808 405.913 394.135C405.423 394.462 404.886 394.707 404.303 394.87C403.719 395.057 403.113 395.15 402.483 395.15ZM399.263 384.545H402.448C403.008 384.545 403.486 384.533 403.883 384.51C404.279 384.487 404.664 384.44 405.038 384.37C405.154 384.347 405.224 384.277 405.248 384.16C405.294 384.02 405.318 383.833 405.318 383.6C405.318 382.923 405.014 382.352 404.408 381.885C403.824 381.395 403.124 381.15 402.308 381.15C401.771 381.15 401.234 381.313 400.698 381.64C400.161 381.943 399.718 382.328 399.368 382.795C399.018 383.262 398.843 383.728 398.843 384.195C398.843 384.428 398.983 384.545 399.263 384.545ZM414.511 395.115C414.091 395.115 413.659 394.952 413.216 394.625C412.796 394.298 412.434 393.902 412.131 393.435C411.851 392.968 411.711 392.525 411.711 392.105C411.711 391.358 411.909 390.775 412.306 390.355C412.702 389.935 413.332 389.55 414.196 389.2L417.766 387.73C418.232 387.543 418.501 387.38 418.571 387.24C418.664 387.1 418.722 386.797 418.746 386.33L418.816 384.09C418.839 383.483 418.664 382.958 418.291 382.515C417.941 382.072 417.427 381.85 416.751 381.85C416.401 381.85 416.051 381.908 415.701 382.025C415.351 382.142 415.059 382.293 414.826 382.48C414.686 382.573 414.592 382.713 414.546 382.9C414.499 383.087 414.476 383.285 414.476 383.495C414.476 383.588 414.476 383.693 414.476 383.81C414.499 383.927 414.511 384.032 414.511 384.125C414.511 384.242 414.359 384.405 414.056 384.615C413.776 384.802 413.449 384.977 413.076 385.14C412.726 385.28 412.434 385.35 412.201 385.35C412.084 385.35 411.991 385.327 411.921 385.28C411.851 385.21 411.816 385.128 411.816 385.035C411.816 384.662 411.932 384.265 412.166 383.845C412.422 383.402 412.772 382.993 413.216 382.62C413.752 382.13 414.336 381.698 414.966 381.325C415.596 380.952 416.214 380.66 416.821 380.45C417.427 380.24 417.964 380.135 418.431 380.135C419.271 380.135 419.959 380.438 420.496 381.045C421.056 381.628 421.324 382.363 421.301 383.25L421.126 391.65C421.102 392.14 421.207 392.537 421.441 392.84C421.697 393.143 422.012 393.295 422.386 393.295C422.969 393.295 423.401 393.167 423.681 392.91C423.797 392.793 423.891 392.735 423.961 392.735C424.077 392.735 424.171 392.77 424.241 392.84C424.311 392.91 424.346 393.003 424.346 393.12C424.346 393.377 424.217 393.633 423.961 393.89C423.587 394.263 423.179 394.555 422.736 394.765C422.316 394.998 421.919 395.115 421.546 395.115C420.472 395.115 419.621 394.508 418.991 393.295H418.886C418.116 393.925 417.381 394.38 416.681 394.66C415.981 394.963 415.257 395.115 414.511 395.115ZM416.156 393.435C416.622 393.435 417.019 393.365 417.346 393.225C417.672 393.062 417.964 392.852 418.221 392.595C418.337 392.478 418.431 392.327 418.501 392.14C418.594 391.93 418.652 391.603 418.676 391.16L418.746 389.445C418.769 389.188 418.757 389.002 418.711 388.885C418.664 388.768 418.571 388.71 418.431 388.71C418.384 388.71 418.302 388.722 418.186 388.745C418.069 388.768 417.917 388.815 417.731 388.885C416.494 389.328 415.631 389.795 415.141 390.285C414.674 390.752 414.441 391.183 414.441 391.58C414.441 392.187 414.616 392.653 414.966 392.98C415.339 393.283 415.736 393.435 416.156 393.435Z" fill="white"/>
</svg>
