<svg width="560" height="519" viewBox="0 0 560 519" fill="none" xmlns="http://www.w3.org/2000/svg">
<circle cx="278" cy="150.625" r="148.5" fill="#00552E" fill-opacity="0.3" stroke="#00552E" stroke-width="3"/>
<path d="M216.656 162.765C216.4 162.765 216.178 162.73 215.991 162.66C215.805 162.613 215.711 162.508 215.711 162.345C215.711 162.182 215.805 162.053 215.991 161.96C216.178 161.843 216.435 161.75 216.761 161.68C217.648 161.517 218.313 161.248 218.756 160.875C219.2 160.502 219.421 159.907 219.421 159.09V145.23C219.421 144.203 219.398 143.433 219.351 142.92C219.305 142.383 219.235 142.022 219.141 141.835C219.048 141.625 218.92 141.497 218.756 141.45C218.476 141.38 218.161 141.345 217.811 141.345C217.461 141.322 217.053 141.31 216.586 141.31H215.221C214.615 141.31 214.008 141.45 213.401 141.73C212.818 141.987 212.375 142.36 212.071 142.85C211.978 142.99 211.838 143.188 211.651 143.445C211.488 143.678 211.301 143.888 211.091 144.075C210.881 144.238 210.671 144.32 210.461 144.32C210.345 144.32 210.251 144.273 210.181 144.18C210.135 144.087 210.111 143.97 210.111 143.83C210.111 143.573 210.181 143.317 210.321 143.06C210.695 142.313 210.963 141.66 211.126 141.1C211.29 140.54 211.418 139.875 211.511 139.105C211.558 138.732 211.651 138.498 211.791 138.405C211.931 138.312 212.071 138.265 212.211 138.265C212.328 138.265 212.48 138.417 212.666 138.72C212.876 139 213.04 139.233 213.156 139.42C213.343 139.63 213.693 139.793 214.206 139.91C214.72 140.027 215.198 140.085 215.641 140.085L228.276 140.05C229 140.05 229.595 140.003 230.061 139.91C230.551 139.817 230.948 139.7 231.251 139.56C231.578 139.397 231.835 139.222 232.021 139.035C232.208 138.825 232.453 138.72 232.756 138.72C232.85 138.72 232.92 138.802 232.966 138.965C233.013 139.105 233.036 139.268 233.036 139.455C233.036 139.548 233.025 139.688 233.001 139.875C232.978 140.062 232.955 140.213 232.931 140.33C232.838 140.773 232.745 141.123 232.651 141.38C232.581 141.637 232.523 141.882 232.476 142.115C232.453 142.325 232.441 142.605 232.441 142.955V143.445C232.441 143.725 232.395 143.993 232.301 144.25C232.208 144.507 232.068 144.635 231.881 144.635C231.695 144.635 231.543 144.518 231.426 144.285C231.31 144.028 231.193 143.667 231.076 143.2C230.936 142.593 230.621 142.127 230.131 141.8C229.665 141.473 228.883 141.31 227.786 141.31H224.846C224.38 141.31 224.018 141.392 223.761 141.555C223.505 141.695 223.33 142.045 223.236 142.605C223.166 143.142 223.131 144.017 223.131 145.23V159.09C223.131 159.883 223.353 160.467 223.796 160.84C224.263 161.213 224.94 161.493 225.826 161.68C226.153 161.75 226.398 161.832 226.561 161.925C226.748 162.018 226.841 162.158 226.841 162.345C226.841 162.485 226.76 162.59 226.596 162.66C226.433 162.73 226.211 162.765 225.931 162.765C225.348 162.765 224.811 162.742 224.321 162.695C223.831 162.672 223.353 162.648 222.886 162.625C222.42 162.602 221.93 162.59 221.416 162.59C220.856 162.59 220.331 162.602 219.841 162.625C219.351 162.648 218.85 162.672 218.336 162.695C217.823 162.742 217.263 162.765 216.656 162.765ZM233.379 162.73C233.169 162.73 232.994 162.695 232.854 162.625C232.737 162.555 232.679 162.45 232.679 162.31C232.679 162.123 232.749 161.995 232.889 161.925C233.052 161.832 233.25 161.75 233.484 161.68C233.974 161.563 234.312 161.4 234.499 161.19C234.709 160.98 234.814 160.7 234.814 160.35V152.65C234.814 152.067 234.732 151.577 234.569 151.18C234.405 150.76 234.055 150.492 233.519 150.375C233.425 150.352 233.332 150.293 233.239 150.2C233.169 150.107 233.134 149.99 233.134 149.85C233.134 149.593 233.25 149.43 233.484 149.36C234.137 149.173 234.837 148.917 235.584 148.59C236.33 148.24 236.937 147.937 237.404 147.68C237.544 147.587 237.672 147.517 237.789 147.47C237.905 147.423 237.987 147.4 238.034 147.4C238.197 147.4 238.279 147.493 238.279 147.68C238.279 147.773 238.267 147.972 238.244 148.275C238.244 148.578 238.232 148.917 238.209 149.29C238.185 149.663 238.174 150.025 238.174 150.375C238.174 150.468 238.197 150.515 238.244 150.515C238.617 150.048 239.025 149.617 239.469 149.22C239.935 148.823 240.425 148.508 240.939 148.275C241.452 148.018 241.942 147.89 242.409 147.89C243.015 147.89 243.482 148.018 243.809 148.275C244.135 148.508 244.299 148.823 244.299 149.22C244.299 149.477 244.217 149.78 244.054 150.13C243.914 150.457 243.715 150.748 243.459 151.005C243.225 151.238 242.969 151.355 242.689 151.355C242.525 151.355 242.35 151.32 242.164 151.25C241.977 151.157 241.779 151.063 241.569 150.97C241.382 150.877 241.184 150.795 240.974 150.725C240.787 150.632 240.6 150.585 240.414 150.585C239.83 150.585 239.294 150.795 238.804 151.215C238.314 151.635 238.069 152.452 238.069 153.665V160.245C238.069 160.618 238.22 160.91 238.524 161.12C238.827 161.33 239.282 161.528 239.889 161.715C240.145 161.785 240.344 161.867 240.484 161.96C240.624 162.03 240.694 162.147 240.694 162.31C240.694 162.59 240.472 162.73 240.029 162.73C239.329 162.73 238.722 162.695 238.209 162.625C237.719 162.578 237.17 162.555 236.564 162.555C236.167 162.555 235.817 162.567 235.514 162.59C235.21 162.613 234.895 162.637 234.569 162.66C234.242 162.707 233.845 162.73 233.379 162.73ZM250.434 163.115C249.944 163.115 249.466 162.952 248.999 162.625C248.533 162.322 248.148 161.937 247.844 161.47C247.541 160.98 247.389 160.502 247.389 160.035C247.389 159.265 247.599 158.647 248.019 158.18C248.463 157.713 249.139 157.293 250.049 156.92L253.444 155.485C253.911 155.298 254.191 155.135 254.284 154.995C254.378 154.832 254.436 154.517 254.459 154.05L254.529 151.915C254.553 151.285 254.401 150.76 254.074 150.34C253.748 149.92 253.269 149.71 252.639 149.71C252.313 149.71 251.974 149.78 251.624 149.92C251.298 150.037 251.029 150.177 250.819 150.34C250.703 150.433 250.621 150.562 250.574 150.725C250.551 150.888 250.539 151.063 250.539 151.25C250.539 151.367 250.539 151.507 250.539 151.67C250.563 151.81 250.574 151.927 250.574 152.02C250.574 152.16 250.411 152.335 250.084 152.545C249.781 152.732 249.419 152.907 248.999 153.07C248.603 153.233 248.264 153.315 247.984 153.315C247.844 153.315 247.728 153.28 247.634 153.21C247.564 153.117 247.529 153 247.529 152.86C247.529 152.487 247.646 152.102 247.879 151.705C248.136 151.285 248.509 150.865 248.999 150.445C249.559 149.955 250.166 149.523 250.819 149.15C251.496 148.753 252.149 148.45 252.779 148.24C253.433 148.03 254.004 147.925 254.494 147.925C255.474 147.925 256.268 148.263 256.874 148.94C257.504 149.593 257.796 150.445 257.749 151.495L257.574 159.405C257.551 159.918 257.656 160.338 257.889 160.665C258.123 160.992 258.414 161.155 258.764 161.155C259.301 161.155 259.721 161.015 260.024 160.735C260.118 160.642 260.199 160.595 260.269 160.595C260.386 160.595 260.479 160.63 260.549 160.7C260.643 160.77 260.689 160.863 260.689 160.98C260.689 161.26 260.526 161.552 260.199 161.855C259.803 162.252 259.371 162.555 258.904 162.765C258.461 162.998 258.029 163.115 257.609 163.115C256.443 163.115 255.509 162.485 254.809 161.225H254.704C253.934 161.878 253.211 162.357 252.534 162.66C251.858 162.963 251.158 163.115 250.434 163.115ZM252.254 161.225C252.651 161.225 252.978 161.167 253.234 161.05C253.514 160.91 253.759 160.723 253.969 160.49C254.086 160.373 254.168 160.233 254.214 160.07C254.284 159.883 254.331 159.603 254.354 159.23L254.424 157.235C254.448 157.002 254.436 156.838 254.389 156.745C254.343 156.628 254.249 156.57 254.109 156.57C254.063 156.57 253.993 156.582 253.899 156.605C253.806 156.628 253.678 156.675 253.514 156.745C252.464 157.142 251.729 157.562 251.309 158.005C250.889 158.425 250.679 158.892 250.679 159.405C250.679 160.035 250.843 160.502 251.169 160.805C251.519 161.085 251.881 161.225 252.254 161.225ZM269.46 163.36C269.344 163.36 269.215 163.185 269.075 162.835C268.935 162.508 268.819 162.217 268.725 161.96C268.562 161.563 268.387 161.132 268.2 160.665C268.037 160.198 267.885 159.767 267.745 159.37C267.209 157.947 266.637 156.558 266.03 155.205C265.424 153.852 264.829 152.475 264.245 151.075C264.059 150.608 263.802 150.212 263.475 149.885C263.172 149.535 262.834 149.302 262.46 149.185C262.25 149.092 262.087 149.01 261.97 148.94C261.877 148.847 261.83 148.718 261.83 148.555C261.83 148.392 261.924 148.298 262.11 148.275C262.297 148.228 262.449 148.205 262.565 148.205C263.079 148.205 263.452 148.217 263.685 148.24C263.942 148.263 264.187 148.298 264.42 148.345C264.677 148.368 265.015 148.38 265.435 148.38C265.902 148.38 266.264 148.368 266.52 148.345C266.8 148.298 267.08 148.263 267.36 148.24C267.664 148.217 268.06 148.205 268.55 148.205C268.667 148.205 268.819 148.228 269.005 148.275C269.192 148.322 269.285 148.415 269.285 148.555C269.285 148.742 269.204 148.882 269.04 148.975C268.877 149.045 268.69 149.127 268.48 149.22C268.247 149.313 268.06 149.488 267.92 149.745C267.804 150.002 267.745 150.305 267.745 150.655C267.745 150.842 267.745 151.028 267.745 151.215C267.769 151.378 267.815 151.53 267.885 151.67L270.51 158.46C270.534 158.483 270.545 158.495 270.545 158.495C270.569 158.495 270.592 158.483 270.615 158.46L273.065 152.09C273.159 151.88 273.217 151.658 273.24 151.425C273.287 151.168 273.31 150.947 273.31 150.76C273.31 150.317 273.229 149.978 273.065 149.745C272.925 149.512 272.68 149.337 272.33 149.22C272.05 149.127 271.84 149.045 271.7 148.975C271.584 148.882 271.525 148.753 271.525 148.59C271.525 148.427 271.607 148.322 271.77 148.275C271.934 148.228 272.097 148.205 272.26 148.205C272.657 148.228 273.042 148.263 273.415 148.31C273.812 148.333 274.267 148.345 274.78 148.345C275.294 148.345 275.679 148.333 275.935 148.31C276.192 148.263 276.53 148.228 276.95 148.205C277.137 148.205 277.312 148.228 277.475 148.275C277.639 148.322 277.72 148.415 277.72 148.555C277.72 148.835 277.464 149.057 276.95 149.22C276.577 149.337 276.192 149.605 275.795 150.025C275.399 150.445 275.084 150.947 274.85 151.53L272.12 158.215C272.05 158.332 271.945 158.553 271.805 158.88C271.689 159.183 271.56 159.522 271.42 159.895C271.28 160.245 271.152 160.56 271.035 160.84C270.942 161.12 270.884 161.283 270.86 161.33C270.814 161.4 270.732 161.575 270.615 161.855C270.499 162.112 270.37 162.38 270.23 162.66C270.114 162.963 269.997 163.197 269.88 163.36H269.46ZM285.933 163.15C284.673 163.15 283.553 162.835 282.573 162.205C281.616 161.552 280.858 160.653 280.298 159.51C279.738 158.343 279.458 157.002 279.458 155.485C279.458 154.108 279.773 152.848 280.403 151.705C281.056 150.562 281.919 149.652 282.993 148.975C284.066 148.275 285.244 147.925 286.528 147.925C287.484 147.925 288.336 148.123 289.083 148.52C289.853 148.893 290.448 149.43 290.868 150.13C291.311 150.807 291.533 151.588 291.533 152.475C291.533 153.245 291.171 153.63 290.448 153.63H283.203C282.876 153.63 282.643 153.723 282.503 153.91C282.363 154.097 282.293 154.435 282.293 154.925C282.293 155.952 282.526 156.897 282.993 157.76C283.459 158.6 284.078 159.277 284.848 159.79C285.618 160.303 286.469 160.56 287.403 160.56C288.103 160.56 288.733 160.432 289.293 160.175C289.876 159.895 290.413 159.51 290.903 159.02C290.973 158.927 291.031 158.857 291.078 158.81C291.148 158.763 291.218 158.74 291.288 158.74C291.498 158.74 291.603 158.868 291.603 159.125C291.603 159.498 291.439 159.942 291.113 160.455C290.786 160.945 290.366 161.4 289.853 161.82C289.363 162.217 288.779 162.532 288.103 162.765C287.449 163.022 286.726 163.15 285.933 163.15ZM283.238 152.44H286.038C286.644 152.44 287.123 152.428 287.473 152.405C287.823 152.382 288.149 152.335 288.453 152.265C288.569 152.218 288.651 152.125 288.698 151.985C288.744 151.822 288.768 151.623 288.768 151.39C288.768 150.737 288.499 150.188 287.963 149.745C287.426 149.278 286.784 149.045 286.038 149.045C285.524 149.045 285.011 149.197 284.498 149.5C284.008 149.803 283.599 150.188 283.273 150.655C282.946 151.098 282.794 151.553 282.818 152.02C282.818 152.3 282.958 152.44 283.238 152.44ZM295.606 162.73C295.443 162.73 295.28 162.707 295.116 162.66C294.976 162.613 294.906 162.508 294.906 162.345C294.906 162.158 294.988 162.03 295.151 161.96C295.315 161.867 295.501 161.773 295.711 161.68C296.061 161.563 296.388 161.435 296.691 161.295C296.995 161.155 297.146 160.84 297.146 160.35V143.025C297.146 142.348 297.03 141.788 296.796 141.345C296.586 140.878 296.19 140.587 295.606 140.47C295.42 140.423 295.326 140.26 295.326 139.98C295.326 139.723 295.408 139.572 295.571 139.525C296.178 139.408 296.75 139.257 297.286 139.07C297.823 138.883 298.325 138.697 298.791 138.51C299.258 138.323 299.678 138.16 300.051 138.02C300.191 137.973 300.296 137.95 300.366 137.95C300.436 137.95 300.483 137.985 300.506 138.055C300.553 138.125 300.576 138.195 300.576 138.265C300.576 138.452 300.541 138.848 300.471 139.455C300.401 140.062 300.366 140.972 300.366 142.185V160.35C300.366 160.817 300.518 161.132 300.821 161.295C301.125 161.435 301.451 161.563 301.801 161.68C302.011 161.75 302.198 161.832 302.361 161.925C302.525 162.018 302.606 162.158 302.606 162.345C302.606 162.485 302.525 162.578 302.361 162.625C302.221 162.672 302.07 162.695 301.906 162.695C301.463 162.695 301.078 162.683 300.751 162.66C300.425 162.637 300.11 162.613 299.806 162.59C299.503 162.567 299.141 162.555 298.721 162.555C298.325 162.555 297.975 162.567 297.671 162.59C297.368 162.613 297.065 162.637 296.761 162.66C296.458 162.707 296.073 162.73 295.606 162.73ZM312.196 163.15C310.936 163.15 309.816 162.835 308.836 162.205C307.88 161.552 307.121 160.653 306.561 159.51C306.001 158.343 305.721 157.002 305.721 155.485C305.721 154.108 306.036 152.848 306.666 151.705C307.32 150.562 308.183 149.652 309.256 148.975C310.33 148.275 311.508 147.925 312.791 147.925C313.748 147.925 314.6 148.123 315.346 148.52C316.116 148.893 316.711 149.43 317.131 150.13C317.575 150.807 317.796 151.588 317.796 152.475C317.796 153.245 317.435 153.63 316.711 153.63H309.466C309.14 153.63 308.906 153.723 308.766 153.91C308.626 154.097 308.556 154.435 308.556 154.925C308.556 155.952 308.79 156.897 309.256 157.76C309.723 158.6 310.341 159.277 311.111 159.79C311.881 160.303 312.733 160.56 313.666 160.56C314.366 160.56 314.996 160.432 315.556 160.175C316.14 159.895 316.676 159.51 317.166 159.02C317.236 158.927 317.295 158.857 317.341 158.81C317.411 158.763 317.481 158.74 317.551 158.74C317.761 158.74 317.866 158.868 317.866 159.125C317.866 159.498 317.703 159.942 317.376 160.455C317.05 160.945 316.63 161.4 316.116 161.82C315.626 162.217 315.043 162.532 314.366 162.765C313.713 163.022 312.99 163.15 312.196 163.15ZM309.501 152.44H312.301C312.908 152.44 313.386 152.428 313.736 152.405C314.086 152.382 314.413 152.335 314.716 152.265C314.833 152.218 314.915 152.125 314.961 151.985C315.008 151.822 315.031 151.623 315.031 151.39C315.031 150.737 314.763 150.188 314.226 149.745C313.69 149.278 313.048 149.045 312.301 149.045C311.788 149.045 311.275 149.197 310.761 149.5C310.271 149.803 309.863 150.188 309.536 150.655C309.21 151.098 309.058 151.553 309.081 152.02C309.081 152.3 309.221 152.44 309.501 152.44ZM322.15 162.73C321.94 162.73 321.765 162.695 321.625 162.625C321.508 162.555 321.45 162.45 321.45 162.31C321.45 162.123 321.52 161.995 321.66 161.925C321.823 161.832 322.022 161.75 322.255 161.68C322.745 161.563 323.083 161.4 323.27 161.19C323.48 160.98 323.585 160.7 323.585 160.35V152.65C323.585 152.067 323.503 151.577 323.34 151.18C323.177 150.76 322.827 150.492 322.29 150.375C322.197 150.352 322.103 150.293 322.01 150.2C321.94 150.107 321.905 149.99 321.905 149.85C321.905 149.593 322.022 149.43 322.255 149.36C322.908 149.173 323.608 148.917 324.355 148.59C325.102 148.24 325.708 147.937 326.175 147.68C326.315 147.587 326.443 147.517 326.56 147.47C326.677 147.423 326.758 147.4 326.805 147.4C326.968 147.4 327.05 147.493 327.05 147.68C327.05 147.773 327.038 147.972 327.015 148.275C327.015 148.578 327.003 148.917 326.98 149.29C326.957 149.663 326.945 150.025 326.945 150.375C326.945 150.468 326.968 150.515 327.015 150.515C327.388 150.048 327.797 149.617 328.24 149.22C328.707 148.823 329.197 148.508 329.71 148.275C330.223 148.018 330.713 147.89 331.18 147.89C331.787 147.89 332.253 148.018 332.58 148.275C332.907 148.508 333.07 148.823 333.07 149.22C333.07 149.477 332.988 149.78 332.825 150.13C332.685 150.457 332.487 150.748 332.23 151.005C331.997 151.238 331.74 151.355 331.46 151.355C331.297 151.355 331.122 151.32 330.935 151.25C330.748 151.157 330.55 151.063 330.34 150.97C330.153 150.877 329.955 150.795 329.745 150.725C329.558 150.632 329.372 150.585 329.185 150.585C328.602 150.585 328.065 150.795 327.575 151.215C327.085 151.635 326.84 152.452 326.84 153.665V160.245C326.84 160.618 326.992 160.91 327.295 161.12C327.598 161.33 328.053 161.528 328.66 161.715C328.917 161.785 329.115 161.867 329.255 161.96C329.395 162.03 329.465 162.147 329.465 162.31C329.465 162.59 329.243 162.73 328.8 162.73C328.1 162.73 327.493 162.695 326.98 162.625C326.49 162.578 325.942 162.555 325.335 162.555C324.938 162.555 324.588 162.567 324.285 162.59C323.982 162.613 323.667 162.637 323.34 162.66C323.013 162.707 322.617 162.73 322.15 162.73ZM340.291 163.115C339.544 163.115 338.832 163.01 338.156 162.8C337.502 162.59 336.931 162.287 336.441 161.89C336.277 161.587 336.161 161.108 336.091 160.455C336.021 159.802 335.986 159.207 335.986 158.67C335.986 158.437 336.161 158.32 336.511 158.32C336.651 158.32 336.767 158.355 336.861 158.425C336.977 158.472 337.047 158.542 337.071 158.635C337.421 159.732 337.911 160.56 338.541 161.12C339.171 161.68 339.859 161.96 340.606 161.96C341.259 161.96 341.796 161.75 342.216 161.33C342.636 160.887 342.846 160.362 342.846 159.755C342.846 159.125 342.624 158.6 342.181 158.18C341.737 157.737 341.061 157.235 340.151 156.675C339.404 156.232 338.762 155.8 338.226 155.38C337.689 154.937 337.281 154.458 337.001 153.945C336.721 153.408 336.581 152.802 336.581 152.125C336.581 151.308 336.779 150.585 337.176 149.955C337.596 149.325 338.179 148.823 338.926 148.45C339.672 148.077 340.571 147.89 341.621 147.89C342.367 147.89 342.997 147.972 343.511 148.135C344.047 148.275 344.432 148.427 344.666 148.59C344.852 148.847 345.004 149.267 345.121 149.85C345.261 150.433 345.331 151.017 345.331 151.6C345.331 151.787 345.179 151.88 344.876 151.88C344.736 151.88 344.584 151.845 344.421 151.775C344.281 151.705 344.187 151.612 344.141 151.495C343.837 150.678 343.452 150.06 342.986 149.64C342.542 149.22 341.994 149.01 341.341 149.01C340.781 149.01 340.279 149.185 339.836 149.535C339.392 149.862 339.171 150.34 339.171 150.97C339.171 151.507 339.357 151.985 339.731 152.405C340.127 152.802 340.746 153.233 341.586 153.7C342.986 154.47 344.012 155.205 344.666 155.905C345.342 156.582 345.681 157.492 345.681 158.635C345.681 159.988 345.191 161.073 344.211 161.89C343.254 162.707 341.947 163.115 340.291 163.115Z" fill="#00552E"/>
<g opacity="0.3">
<circle cx="150" cy="368.625" r="148.5" fill="#B7282E" fill-opacity="0.3" stroke="#B7282E" stroke-width="3"/>
<path d="M73.1568 350.42C72.8768 350.42 72.6435 350.373 72.4568 350.28C72.2702 350.21 72.1768 350.093 72.1768 349.93C72.1768 349.743 72.2702 349.592 72.4568 349.475C72.6435 349.358 72.9002 349.242 73.2268 349.125C73.8568 348.938 74.4285 348.658 74.9418 348.285C75.4552 347.912 75.8752 347.34 76.2018 346.57C76.8318 345.147 77.4152 343.793 77.9518 342.51C78.4885 341.203 79.0018 339.92 79.4918 338.66C79.9818 337.4 80.4835 336.105 80.9968 334.775C81.5102 333.422 82.0352 331.987 82.5718 330.47C82.7818 329.933 82.9335 329.49 83.0268 329.14C83.1202 328.767 83.1785 328.44 83.2018 328.16C83.5052 328.09 83.7852 328.02 84.0418 327.95C84.2985 327.857 84.5785 327.728 84.8818 327.565C85.1618 327.425 85.3718 327.227 85.5118 326.97C85.6752 326.69 85.8035 326.492 85.8968 326.375C85.9435 326.352 85.9902 326.34 86.0368 326.34C86.1068 326.317 86.1652 326.352 86.2118 326.445C86.2818 326.562 86.3285 326.69 86.3518 326.83C86.3985 326.97 86.4452 327.122 86.4918 327.285C87.0285 328.988 87.5768 330.727 88.1368 332.5C88.7202 334.25 89.2918 335.965 89.8518 337.645C90.4118 339.325 90.9368 340.888 91.4268 342.335C91.9168 343.758 92.3368 345.007 92.6868 346.08C92.9435 346.85 93.2468 347.445 93.5968 347.865C93.9468 348.262 94.3202 348.565 94.7168 348.775C95.1135 348.962 95.5452 349.102 96.0118 349.195C96.3618 349.265 96.6185 349.37 96.7818 349.51C96.9685 349.65 97.0618 349.813 97.0618 350C97.0618 350.14 96.9685 350.233 96.7818 350.28C96.6185 350.35 96.4085 350.385 96.1518 350.385C95.7785 350.385 95.2885 350.362 94.6818 350.315C94.0752 350.292 93.4452 350.268 92.7918 350.245C92.1385 350.222 91.5435 350.21 91.0068 350.21C90.5635 350.21 90.0735 350.21 89.5368 350.21C89.0002 350.21 88.4868 350.222 87.9968 350.245C87.5302 350.268 87.1218 350.28 86.7718 350.28C86.4918 350.28 86.2585 350.245 86.0718 350.175C85.9085 350.082 85.8268 349.965 85.8268 349.825C85.8268 349.638 85.9318 349.487 86.1418 349.37C86.3518 349.253 86.5968 349.172 86.8768 349.125C87.6702 348.985 88.2418 348.775 88.5918 348.495C88.9652 348.215 89.1168 347.842 89.0468 347.375C89.0235 346.978 88.9418 346.488 88.8018 345.905C88.6618 345.298 88.4985 344.668 88.3118 344.015C88.1252 343.338 87.9502 342.72 87.7868 342.16C87.7402 341.973 87.6585 341.857 87.5418 341.81C87.4252 341.763 87.2268 341.74 86.9468 341.74H80.4718C80.3552 341.74 80.2502 341.787 80.1568 341.88C80.0635 341.95 79.9702 342.102 79.8768 342.335C79.8068 342.615 79.6902 342.977 79.5268 343.42C79.3868 343.84 79.2468 344.295 79.1068 344.785C78.9668 345.252 78.8385 345.695 78.7218 346.115C78.6285 346.512 78.5702 346.803 78.5468 346.99C78.4768 347.573 78.6168 348.04 78.9668 348.39C79.3402 348.717 79.8885 348.973 80.6118 349.16C81.3118 349.347 81.6618 349.58 81.6618 349.86C81.6618 350.023 81.5685 350.14 81.3818 350.21C81.2185 350.257 80.9968 350.28 80.7168 350.28C80.2735 350.28 79.7602 350.268 79.1768 350.245C78.5935 350.222 77.9752 350.21 77.3218 350.21C76.5752 350.21 75.8518 350.245 75.1518 350.315C74.4518 350.385 73.7868 350.42 73.1568 350.42ZM81.4518 340.305H86.5618C86.8885 340.305 87.0518 340.247 87.0518 340.13C87.0518 340.06 87.0402 340.002 87.0168 339.955C87.0168 339.908 87.0052 339.838 86.9818 339.745L84.3918 331.45C84.2752 331.077 84.1818 330.89 84.1118 330.89C84.0652 330.89 83.9835 331.065 83.8668 331.415L80.8218 339.745C80.7752 339.885 80.7518 339.978 80.7518 340.025C80.7518 340.142 80.8102 340.223 80.9268 340.27C81.0668 340.293 81.2418 340.305 81.4518 340.305ZM111.035 350.945C110.849 350.945 110.755 350.84 110.755 350.63C110.755 350.373 110.779 350.023 110.825 349.58C110.895 349.113 110.93 348.74 110.93 348.46C110.93 348.39 110.93 348.332 110.93 348.285C110.93 348.238 110.93 348.203 110.93 348.18C110.114 349.02 109.227 349.662 108.27 350.105C107.337 350.525 106.322 350.735 105.225 350.735C104.502 350.735 103.837 350.56 103.23 350.21C102.624 349.86 102.145 349.358 101.795 348.705C101.469 348.028 101.305 347.235 101.305 346.325V339.395C101.305 338.882 101.189 338.473 100.955 338.17C100.745 337.843 100.372 337.598 99.8353 337.435C99.7187 337.388 99.602 337.33 99.4853 337.26C99.392 337.167 99.3453 337.027 99.3453 336.84C99.3453 336.63 99.392 336.49 99.4853 336.42C99.602 336.327 99.7303 336.268 99.8703 336.245C100.734 336.198 101.445 336.128 102.005 336.035C102.565 335.918 103.195 335.767 103.895 335.58C103.989 335.557 104.07 335.545 104.14 335.545C104.21 335.522 104.28 335.51 104.35 335.51C104.63 335.51 104.759 335.673 104.735 336C104.665 336.537 104.607 336.992 104.56 337.365C104.514 337.715 104.49 338.158 104.49 338.695V345.485C104.49 346.045 104.607 346.558 104.84 347.025C105.097 347.468 105.435 347.83 105.855 348.11C106.275 348.39 106.707 348.542 107.15 348.565C107.687 348.565 108.165 348.53 108.585 348.46C109.005 348.367 109.414 348.157 109.81 347.83C110.02 347.667 110.277 347.387 110.58 346.99C110.907 346.593 111.07 346.045 111.07 345.345V339.22C111.07 338.753 110.942 338.403 110.685 338.17C110.452 337.913 110.16 337.727 109.81 337.61C109.484 337.493 109.18 337.423 108.9 337.4C108.667 337.4 108.48 337.353 108.34 337.26C108.2 337.167 108.13 337.003 108.13 336.77C108.13 336.537 108.2 336.385 108.34 336.315C108.504 336.222 108.69 336.175 108.9 336.175C109.787 336.128 110.499 336.082 111.035 336.035C111.595 335.988 112.074 335.93 112.47 335.86C112.89 335.79 113.322 335.697 113.765 335.58C113.812 335.557 113.87 335.545 113.94 335.545C114.034 335.522 114.104 335.51 114.15 335.51C114.454 335.51 114.605 335.638 114.605 335.895C114.605 335.942 114.594 336 114.57 336.07C114.57 336.14 114.559 336.21 114.535 336.28C114.512 336.373 114.477 336.583 114.43 336.91C114.407 337.213 114.372 337.54 114.325 337.89C114.302 338.24 114.29 338.52 114.29 338.73V346.815C114.29 347.398 114.349 347.818 114.465 348.075C114.605 348.308 114.757 348.425 114.92 348.425C115.084 348.425 115.317 348.413 115.62 348.39C115.947 348.367 116.18 348.355 116.32 348.355C116.46 348.355 116.589 348.39 116.705 348.46C116.822 348.53 116.88 348.67 116.88 348.88C116.88 349.067 116.834 349.207 116.74 349.3C116.647 349.37 116.519 349.417 116.355 349.44C115.375 349.557 114.512 349.743 113.765 350C113.019 350.257 112.365 350.49 111.805 350.7C111.712 350.747 111.584 350.793 111.42 350.84C111.28 350.91 111.152 350.945 111.035 350.945ZM125.951 350.735C124.667 350.735 123.676 350.373 122.976 349.65C122.299 348.927 121.961 347.865 121.961 346.465V338.345C121.961 338.158 121.879 338.03 121.716 337.96C121.576 337.867 121.284 337.82 120.841 337.82H120.561C120.421 337.82 120.304 337.727 120.211 337.54C120.117 337.33 120.071 337.132 120.071 336.945C120.071 336.898 120.094 336.84 120.141 336.77C120.211 336.677 120.269 336.618 120.316 336.595C120.806 336.292 121.284 335.965 121.751 335.615C122.241 335.242 122.684 334.868 123.081 334.495C123.501 334.122 123.851 333.795 124.131 333.515C124.271 333.398 124.387 333.293 124.481 333.2C124.574 333.107 124.691 333.06 124.831 333.06C124.971 333.06 125.087 333.095 125.181 333.165C125.297 333.235 125.344 333.375 125.321 333.585L125.111 335.3C125.087 335.58 125.146 335.767 125.286 335.86C125.449 335.953 125.671 336 125.951 336H130.011C130.081 336 130.151 336.082 130.221 336.245C130.291 336.408 130.326 336.572 130.326 336.735C130.326 336.992 130.291 337.237 130.221 337.47C130.151 337.703 130.069 337.82 129.976 337.82H126.581C125.997 337.82 125.612 337.878 125.426 337.995C125.262 338.112 125.181 338.38 125.181 338.8V345.59C125.181 346.57 125.379 347.328 125.776 347.865C126.172 348.378 126.732 348.635 127.456 348.635C128.132 348.635 128.646 348.577 128.996 348.46C129.346 348.343 129.661 348.203 129.941 348.04C130.011 347.993 130.069 347.97 130.116 347.97C130.232 347.97 130.302 348.028 130.326 348.145C130.372 348.262 130.396 348.39 130.396 348.53C130.396 348.67 130.186 348.915 129.766 349.265C129.346 349.615 128.797 349.942 128.121 350.245C127.444 350.572 126.721 350.735 125.951 350.735ZM133.754 350.35C133.288 350.35 133.054 350.21 133.054 349.93C133.054 349.697 133.323 349.487 133.859 349.3C134.209 349.183 134.536 349.043 134.839 348.88C135.143 348.717 135.294 348.39 135.294 347.9V330.645C135.294 330.015 135.201 329.467 135.014 329C134.828 328.51 134.431 328.218 133.824 328.125C133.614 328.078 133.509 327.903 133.509 327.6C133.509 327.367 133.603 327.215 133.789 327.145C134.186 327.028 134.653 326.888 135.189 326.725C135.749 326.562 136.298 326.387 136.834 326.2C137.371 325.99 137.826 325.803 138.199 325.64C138.339 325.593 138.444 325.57 138.514 325.57C138.608 325.57 138.678 325.605 138.724 325.675C138.771 325.722 138.794 325.792 138.794 325.885C138.794 326.002 138.771 326.188 138.724 326.445C138.678 326.678 138.631 327.063 138.584 327.6C138.538 328.113 138.514 328.848 138.514 329.805V336.595C138.514 336.922 138.526 337.178 138.549 337.365C138.596 337.528 138.654 337.668 138.724 337.785C139.098 337.505 139.541 337.19 140.054 336.84C140.591 336.49 141.186 336.187 141.839 335.93C142.516 335.673 143.228 335.545 143.974 335.545C145.164 335.545 146.144 335.988 146.914 336.875C147.708 337.762 148.104 338.928 148.104 340.375V347.83C148.104 348.297 148.244 348.635 148.524 348.845C148.828 349.032 149.154 349.183 149.504 349.3C149.738 349.393 149.924 349.487 150.064 349.58C150.204 349.65 150.274 349.767 150.274 349.93C150.274 350.21 150.029 350.35 149.539 350.35C149.049 350.35 148.664 350.327 148.384 350.28C148.104 350.257 147.836 350.233 147.579 350.21C147.323 350.187 146.973 350.175 146.529 350.175C146.086 350.175 145.736 350.187 145.479 350.21C145.246 350.233 144.989 350.257 144.709 350.28C144.453 350.327 144.068 350.35 143.554 350.35C143.064 350.35 142.819 350.21 142.819 349.93C142.819 349.743 142.889 349.615 143.029 349.545C143.169 349.475 143.356 349.393 143.589 349.3C143.916 349.207 144.219 349.055 144.499 348.845C144.779 348.635 144.919 348.285 144.919 347.795V340.725C144.919 340.165 144.768 339.663 144.464 339.22C144.161 338.753 143.788 338.392 143.344 338.135C142.924 337.878 142.481 337.75 142.014 337.75C141.594 337.75 141.116 337.808 140.579 337.925C140.066 338.042 139.634 338.24 139.284 338.52C138.981 338.753 138.771 339.01 138.654 339.29C138.561 339.547 138.514 339.978 138.514 340.585V347.9C138.538 348.367 138.678 348.693 138.934 348.88C139.191 349.043 139.483 349.183 139.809 349.3C140.043 349.37 140.229 349.452 140.369 349.545C140.509 349.638 140.579 349.767 140.579 349.93C140.579 350.21 140.346 350.35 139.879 350.35C139.413 350.35 139.028 350.327 138.724 350.28C138.444 350.257 138.164 350.233 137.884 350.21C137.628 350.187 137.289 350.175 136.869 350.175C136.473 350.175 136.123 350.187 135.819 350.21C135.539 350.233 135.236 350.257 134.909 350.28C134.606 350.327 134.221 350.35 133.754 350.35ZM160.188 350.77C158.928 350.77 157.808 350.455 156.828 349.825C155.872 349.172 155.113 348.273 154.553 347.13C153.993 345.963 153.713 344.622 153.713 343.105C153.713 341.728 154.028 340.468 154.658 339.325C155.312 338.182 156.175 337.272 157.248 336.595C158.322 335.895 159.5 335.545 160.783 335.545C161.74 335.545 162.592 335.743 163.338 336.14C164.108 336.513 164.703 337.05 165.123 337.75C165.567 338.427 165.788 339.208 165.788 340.095C165.788 340.865 165.427 341.25 164.703 341.25H157.458C157.132 341.25 156.898 341.343 156.758 341.53C156.618 341.717 156.548 342.055 156.548 342.545C156.548 343.572 156.782 344.517 157.248 345.38C157.715 346.22 158.333 346.897 159.103 347.41C159.873 347.923 160.725 348.18 161.658 348.18C162.358 348.18 162.988 348.052 163.548 347.795C164.132 347.515 164.668 347.13 165.158 346.64C165.228 346.547 165.287 346.477 165.333 346.43C165.403 346.383 165.473 346.36 165.543 346.36C165.753 346.36 165.858 346.488 165.858 346.745C165.858 347.118 165.695 347.562 165.368 348.075C165.042 348.565 164.622 349.02 164.108 349.44C163.618 349.837 163.035 350.152 162.358 350.385C161.705 350.642 160.982 350.77 160.188 350.77ZM157.493 340.06H160.293C160.9 340.06 161.378 340.048 161.728 340.025C162.078 340.002 162.405 339.955 162.708 339.885C162.825 339.838 162.907 339.745 162.953 339.605C163 339.442 163.023 339.243 163.023 339.01C163.023 338.357 162.755 337.808 162.218 337.365C161.682 336.898 161.04 336.665 160.293 336.665C159.78 336.665 159.267 336.817 158.753 337.12C158.263 337.423 157.855 337.808 157.528 338.275C157.202 338.718 157.05 339.173 157.073 339.64C157.073 339.92 157.213 340.06 157.493 340.06ZM170.037 350.35C169.85 350.35 169.687 350.315 169.547 350.245C169.407 350.175 169.337 350.07 169.337 349.93C169.337 349.743 169.407 349.615 169.547 349.545C169.71 349.452 169.909 349.37 170.142 349.3C170.492 349.207 170.819 349.078 171.122 348.915C171.425 348.752 171.577 348.437 171.577 347.97V340.27C171.577 339.687 171.507 339.197 171.367 338.8C171.25 338.38 170.912 338.1 170.352 337.96C170.259 337.937 170.177 337.89 170.107 337.82C170.037 337.727 170.002 337.61 170.002 337.47C170.002 337.167 170.107 337.003 170.317 336.98C171.134 336.77 171.869 336.513 172.522 336.21C173.199 335.907 173.817 335.568 174.377 335.195C174.447 335.148 174.517 335.102 174.587 335.055C174.68 335.008 174.762 334.985 174.832 334.985C174.925 334.985 174.984 335.02 175.007 335.09C175.054 335.137 175.077 335.207 175.077 335.3C175.077 335.463 175.042 335.778 174.972 336.245C174.925 336.712 174.902 337.108 174.902 337.435C174.902 337.528 174.902 337.622 174.902 337.715C174.925 337.808 174.949 337.867 174.972 337.89C175.789 337.12 176.629 336.537 177.492 336.14C178.379 335.743 179.37 335.545 180.467 335.545C181.634 335.545 182.602 336 183.372 336.91C184.142 337.82 184.527 338.998 184.527 340.445V348.005C184.527 348.472 184.679 348.775 184.982 348.915C185.309 349.055 185.647 349.183 185.997 349.3C186.184 349.37 186.359 349.452 186.522 349.545C186.685 349.638 186.767 349.778 186.767 349.965C186.767 350.128 186.685 350.233 186.522 350.28C186.382 350.327 186.242 350.35 186.102 350.35C185.635 350.35 185.239 350.327 184.912 350.28C184.609 350.257 184.305 350.233 184.002 350.21C183.722 350.187 183.372 350.175 182.952 350.175C182.555 350.175 182.205 350.187 181.902 350.21C181.599 350.233 181.284 350.257 180.957 350.28C180.654 350.327 180.269 350.35 179.802 350.35C179.685 350.35 179.545 350.327 179.382 350.28C179.219 350.233 179.137 350.128 179.137 349.965C179.137 349.778 179.219 349.638 179.382 349.545C179.545 349.452 179.72 349.37 179.907 349.3C180.257 349.183 180.584 349.055 180.887 348.915C181.19 348.775 181.342 348.472 181.342 348.005V340.76C181.342 339.78 181.074 339.022 180.537 338.485C180.024 337.948 179.347 337.668 178.507 337.645C177.784 337.645 177.142 337.762 176.582 337.995C176.045 338.205 175.544 338.497 175.077 338.87C174.984 338.963 174.914 339.08 174.867 339.22C174.82 339.36 174.797 339.488 174.797 339.605V348.005C174.797 348.472 174.949 348.787 175.252 348.95C175.555 349.09 175.87 349.207 176.197 349.3C176.71 349.463 176.967 349.673 176.967 349.93C176.967 350.07 176.909 350.175 176.792 350.245C176.675 350.315 176.512 350.35 176.302 350.35C175.835 350.35 175.439 350.327 175.112 350.28C174.809 350.257 174.517 350.233 174.237 350.21C173.98 350.187 173.642 350.175 173.222 350.175C172.825 350.175 172.475 350.187 172.172 350.21C171.869 350.233 171.554 350.257 171.227 350.28C170.9 350.327 170.504 350.35 170.037 350.35ZM196.012 350.735C194.729 350.735 193.737 350.373 193.037 349.65C192.361 348.927 192.022 347.865 192.022 346.465V338.345C192.022 338.158 191.941 338.03 191.777 337.96C191.637 337.867 191.346 337.82 190.902 337.82H190.622C190.482 337.82 190.366 337.727 190.272 337.54C190.179 337.33 190.132 337.132 190.132 336.945C190.132 336.898 190.156 336.84 190.202 336.77C190.272 336.677 190.331 336.618 190.377 336.595C190.867 336.292 191.346 335.965 191.812 335.615C192.302 335.242 192.746 334.868 193.142 334.495C193.562 334.122 193.912 333.795 194.192 333.515C194.332 333.398 194.449 333.293 194.542 333.2C194.636 333.107 194.752 333.06 194.892 333.06C195.032 333.06 195.149 333.095 195.242 333.165C195.359 333.235 195.406 333.375 195.382 333.585L195.172 335.3C195.149 335.58 195.207 335.767 195.347 335.86C195.511 335.953 195.732 336 196.012 336H200.072C200.142 336 200.212 336.082 200.282 336.245C200.352 336.408 200.387 336.572 200.387 336.735C200.387 336.992 200.352 337.237 200.282 337.47C200.212 337.703 200.131 337.82 200.037 337.82H196.642C196.059 337.82 195.674 337.878 195.487 337.995C195.324 338.112 195.242 338.38 195.242 338.8V345.59C195.242 346.57 195.441 347.328 195.837 347.865C196.234 348.378 196.794 348.635 197.517 348.635C198.194 348.635 198.707 348.577 199.057 348.46C199.407 348.343 199.722 348.203 200.002 348.04C200.072 347.993 200.131 347.97 200.177 347.97C200.294 347.97 200.364 348.028 200.387 348.145C200.434 348.262 200.457 348.39 200.457 348.53C200.457 348.67 200.247 348.915 199.827 349.265C199.407 349.615 198.859 349.942 198.182 350.245C197.506 350.572 196.782 350.735 196.012 350.735ZM203.956 350.35C203.769 350.35 203.606 350.315 203.466 350.245C203.349 350.175 203.291 350.07 203.291 349.93C203.291 349.743 203.361 349.615 203.501 349.545C203.664 349.452 203.839 349.382 204.026 349.335C204.563 349.195 204.959 349.043 205.216 348.88C205.473 348.717 205.601 348.425 205.601 348.005V340.445C205.601 339.745 205.484 339.185 205.251 338.765C205.018 338.322 204.609 338.053 204.026 337.96C203.909 337.937 203.816 337.89 203.746 337.82C203.699 337.727 203.676 337.598 203.676 337.435C203.676 337.155 203.781 337.003 203.991 336.98C205.018 336.747 205.893 336.443 206.616 336.07C207.363 335.673 207.923 335.358 208.296 335.125C208.553 334.962 208.739 334.88 208.856 334.88C209.043 334.88 209.136 334.973 209.136 335.16C209.136 335.417 209.101 335.825 209.031 336.385C208.984 336.945 208.926 337.552 208.856 338.205C208.809 338.858 208.786 339.465 208.786 340.025V348.005C208.786 348.378 208.914 348.658 209.171 348.845C209.428 349.032 209.824 349.195 210.361 349.335C210.548 349.382 210.711 349.452 210.851 349.545C211.014 349.615 211.096 349.743 211.096 349.93C211.096 350.21 210.886 350.35 210.466 350.35C210.023 350.35 209.626 350.327 209.276 350.28C208.926 350.257 208.588 350.233 208.261 350.21C207.958 350.187 207.596 350.175 207.176 350.175C206.779 350.175 206.418 350.187 206.091 350.21C205.764 350.233 205.438 350.257 205.111 350.28C204.808 350.327 204.423 350.35 203.956 350.35ZM207.106 332.465C206.523 332.465 206.021 332.267 205.601 331.87C205.204 331.45 205.006 330.948 205.006 330.365C205.006 329.758 205.204 329.257 205.601 328.86C206.021 328.44 206.523 328.23 207.106 328.23C207.713 328.23 208.226 328.44 208.646 328.86C209.066 329.257 209.276 329.758 209.276 330.365C209.276 330.948 209.066 331.45 208.646 331.87C208.226 332.267 207.713 332.465 207.106 332.465ZM220.85 350.77C219.66 350.77 218.587 350.467 217.63 349.86C216.674 349.23 215.915 348.378 215.355 347.305C214.795 346.232 214.515 345.03 214.515 343.7C214.515 342.183 214.854 340.807 215.53 339.57C216.207 338.333 217.117 337.353 218.26 336.63C219.404 335.907 220.664 335.545 222.04 335.545C223.697 335.545 225.12 336.023 226.31 336.98C226.567 337.213 226.695 337.435 226.695 337.645C226.695 337.808 226.602 338.018 226.415 338.275C226.252 338.508 226.042 338.718 225.785 338.905C225.552 339.068 225.33 339.15 225.12 339.15C224.98 339.15 224.829 339.103 224.665 339.01C224.525 338.917 224.385 338.812 224.245 338.695C223.685 338.252 223.09 337.867 222.46 337.54C221.854 337.19 221.329 337.015 220.885 337.015C219.835 337.015 218.995 337.493 218.365 338.45C217.759 339.383 217.455 340.702 217.455 342.405C217.455 343.525 217.665 344.517 218.085 345.38C218.529 346.243 219.124 346.92 219.87 347.41C220.64 347.9 221.515 348.145 222.495 348.145C223.172 348.145 223.755 348.04 224.245 347.83C224.759 347.597 225.295 347.212 225.855 346.675C225.925 346.628 225.995 346.582 226.065 346.535C226.159 346.488 226.24 346.465 226.31 346.465C226.567 346.465 226.695 346.64 226.695 346.99C226.695 347.107 226.66 347.258 226.59 347.445C226.52 347.608 226.415 347.795 226.275 348.005C225.949 348.472 225.517 348.927 224.98 349.37C224.444 349.79 223.825 350.128 223.125 350.385C222.425 350.642 221.667 350.77 220.85 350.77ZM108.988 392.245C106.281 392.245 104.928 391.638 104.928 390.425C104.928 390.005 105.114 389.597 105.488 389.2C105.838 388.827 106.164 388.64 106.468 388.64C106.748 388.64 107.028 388.698 107.308 388.815C107.564 388.955 107.809 389.177 108.043 389.48C108.393 389.923 108.684 390.25 108.918 390.46C109.151 390.693 109.419 390.81 109.723 390.81C110.493 390.81 111.064 390.32 111.438 389.34C111.811 388.383 111.998 386.995 111.998 385.175V365.96C111.998 365.167 111.823 364.607 111.473 364.28C111.146 363.953 110.551 363.697 109.688 363.51C109.011 363.37 108.673 363.137 108.673 362.81C108.673 362.647 108.754 362.53 108.918 362.46C109.104 362.39 109.326 362.355 109.583 362.355C110.166 362.355 110.691 362.367 111.158 362.39C111.648 362.413 112.114 362.437 112.558 362.46C113.001 362.483 113.479 362.495 113.993 362.495C114.436 362.495 114.844 362.495 115.218 362.495C115.591 362.472 115.988 362.448 116.408 362.425C116.828 362.402 117.329 362.39 117.913 362.39C118.169 362.39 118.379 362.425 118.543 362.495C118.706 362.542 118.788 362.647 118.788 362.81C118.788 362.997 118.706 363.148 118.543 363.265C118.379 363.358 118.123 363.44 117.773 363.51C116.886 363.72 116.314 363.988 116.058 364.315C115.824 364.642 115.708 365.19 115.708 365.96V383.11C115.708 383.973 115.568 384.813 115.288 385.63C115.008 386.47 114.646 387.252 114.203 387.975C113.783 388.698 113.351 389.328 112.908 389.865C112.371 390.542 111.764 391.102 111.088 391.545C110.434 392.012 109.734 392.245 108.988 392.245ZM125.534 385.735C125.044 385.735 124.566 385.572 124.099 385.245C123.632 384.942 123.247 384.557 122.944 384.09C122.641 383.6 122.489 383.122 122.489 382.655C122.489 381.885 122.699 381.267 123.119 380.8C123.562 380.333 124.239 379.913 125.149 379.54L128.544 378.105C129.011 377.918 129.291 377.755 129.384 377.615C129.477 377.452 129.536 377.137 129.559 376.67L129.629 374.535C129.652 373.905 129.501 373.38 129.174 372.96C128.847 372.54 128.369 372.33 127.739 372.33C127.412 372.33 127.074 372.4 126.724 372.54C126.397 372.657 126.129 372.797 125.919 372.96C125.802 373.053 125.721 373.182 125.674 373.345C125.651 373.508 125.639 373.683 125.639 373.87C125.639 373.987 125.639 374.127 125.639 374.29C125.662 374.43 125.674 374.547 125.674 374.64C125.674 374.78 125.511 374.955 125.184 375.165C124.881 375.352 124.519 375.527 124.099 375.69C123.702 375.853 123.364 375.935 123.084 375.935C122.944 375.935 122.827 375.9 122.734 375.83C122.664 375.737 122.629 375.62 122.629 375.48C122.629 375.107 122.746 374.722 122.979 374.325C123.236 373.905 123.609 373.485 124.099 373.065C124.659 372.575 125.266 372.143 125.919 371.77C126.596 371.373 127.249 371.07 127.879 370.86C128.532 370.65 129.104 370.545 129.594 370.545C130.574 370.545 131.367 370.883 131.974 371.56C132.604 372.213 132.896 373.065 132.849 374.115L132.674 382.025C132.651 382.538 132.756 382.958 132.989 383.285C133.222 383.612 133.514 383.775 133.864 383.775C134.401 383.775 134.821 383.635 135.124 383.355C135.217 383.262 135.299 383.215 135.369 383.215C135.486 383.215 135.579 383.25 135.649 383.32C135.742 383.39 135.789 383.483 135.789 383.6C135.789 383.88 135.626 384.172 135.299 384.475C134.902 384.872 134.471 385.175 134.004 385.385C133.561 385.618 133.129 385.735 132.709 385.735C131.542 385.735 130.609 385.105 129.909 383.845H129.804C129.034 384.498 128.311 384.977 127.634 385.28C126.957 385.583 126.257 385.735 125.534 385.735ZM127.354 383.845C127.751 383.845 128.077 383.787 128.334 383.67C128.614 383.53 128.859 383.343 129.069 383.11C129.186 382.993 129.267 382.853 129.314 382.69C129.384 382.503 129.431 382.223 129.454 381.85L129.524 379.855C129.547 379.622 129.536 379.458 129.489 379.365C129.442 379.248 129.349 379.19 129.209 379.19C129.162 379.19 129.092 379.202 128.999 379.225C128.906 379.248 128.777 379.295 128.614 379.365C127.564 379.762 126.829 380.182 126.409 380.625C125.989 381.045 125.779 381.512 125.779 382.025C125.779 382.655 125.942 383.122 126.269 383.425C126.619 383.705 126.981 383.845 127.354 383.845ZM138.872 394.94C138.732 394.94 138.569 394.905 138.382 394.835C138.219 394.788 138.137 394.695 138.137 394.555C138.137 394.368 138.219 394.228 138.382 394.135C138.545 394.042 138.732 393.96 138.942 393.89C139.339 393.773 139.677 393.633 139.957 393.47C140.237 393.307 140.377 393.003 140.377 392.56V375.165C140.377 374.955 140.319 374.675 140.202 374.325C140.109 373.975 139.945 373.648 139.712 373.345C139.479 373.042 139.187 372.867 138.837 372.82C138.72 372.773 138.627 372.715 138.557 372.645C138.51 372.552 138.487 372.435 138.487 372.295C138.487 372.155 138.51 372.05 138.557 371.98C138.627 371.887 138.709 371.828 138.802 371.805C139.642 371.595 140.435 371.362 141.182 371.105C141.929 370.848 142.594 370.58 143.177 370.3C143.247 370.3 143.294 370.288 143.317 370.265C143.364 370.218 143.41 370.195 143.457 370.195C143.527 370.195 143.585 370.242 143.632 370.335C143.679 370.405 143.702 370.475 143.702 370.545C143.702 370.755 143.667 371.082 143.597 371.525C143.55 371.968 143.527 372.342 143.527 372.645C143.527 372.832 143.539 372.937 143.562 372.96C143.795 372.727 144.215 372.435 144.822 372.085C145.429 371.712 146.129 371.373 146.922 371.07C147.715 370.767 148.474 370.615 149.197 370.615C150.41 370.615 151.449 370.942 152.312 371.595C153.175 372.248 153.84 373.088 154.307 374.115C154.774 375.142 155.007 376.203 155.007 377.3C155.007 378.373 154.797 379.412 154.377 380.415C153.98 381.418 153.409 382.328 152.662 383.145C151.939 383.938 151.099 384.58 150.142 385.07C149.185 385.537 148.147 385.77 147.027 385.77C146.724 385.77 146.362 385.723 145.942 385.63C145.522 385.56 145.102 385.443 144.682 385.28C144.285 385.14 143.97 384.977 143.737 384.79C143.714 384.79 143.69 384.895 143.667 385.105C143.644 385.292 143.62 385.49 143.597 385.7C143.597 385.933 143.597 386.097 143.597 386.19V392.455C143.597 392.758 143.702 393.003 143.912 393.19C144.122 393.377 144.367 393.517 144.647 393.61C144.95 393.727 145.254 393.832 145.557 393.925C145.767 393.995 145.954 394.065 146.117 394.135C146.28 394.228 146.362 394.368 146.362 394.555C146.362 394.695 146.28 394.788 146.117 394.835C145.954 394.905 145.79 394.94 145.627 394.94C144.95 394.94 144.332 394.905 143.772 394.835C143.212 394.788 142.629 394.765 142.022 394.765C141.625 394.765 141.275 394.777 140.972 394.8C140.669 394.823 140.354 394.847 140.027 394.87C139.724 394.917 139.339 394.94 138.872 394.94ZM147.342 384.51C147.669 384.51 148.054 384.417 148.497 384.23C148.94 384.02 149.384 383.682 149.827 383.215C150.294 382.748 150.679 382.13 150.982 381.36C151.285 380.59 151.437 379.633 151.437 378.49C151.437 377.16 151.274 376.098 150.947 375.305C150.644 374.512 150.259 373.917 149.792 373.52C149.325 373.1 148.847 372.82 148.357 372.68C147.89 372.54 147.494 372.47 147.167 372.47C146.654 372.47 146.117 372.587 145.557 372.82C145.02 373.03 144.565 373.275 144.192 373.555C143.842 373.835 143.667 374.057 143.667 374.22C143.667 374.64 143.655 375.118 143.632 375.655C143.632 376.168 143.62 376.705 143.597 377.265C143.597 377.802 143.597 378.292 143.597 378.735C143.597 379.178 143.597 379.493 143.597 379.68C143.597 380.473 143.772 381.243 144.122 381.99C144.495 382.737 144.962 383.343 145.522 383.81C146.105 384.277 146.712 384.51 147.342 384.51ZM161.573 385.735C161.083 385.735 160.605 385.572 160.138 385.245C159.671 384.942 159.286 384.557 158.983 384.09C158.68 383.6 158.528 383.122 158.528 382.655C158.528 381.885 158.738 381.267 159.158 380.8C159.601 380.333 160.278 379.913 161.188 379.54L164.583 378.105C165.05 377.918 165.33 377.755 165.423 377.615C165.516 377.452 165.575 377.137 165.598 376.67L165.668 374.535C165.691 373.905 165.54 373.38 165.213 372.96C164.886 372.54 164.408 372.33 163.778 372.33C163.451 372.33 163.113 372.4 162.763 372.54C162.436 372.657 162.168 372.797 161.958 372.96C161.841 373.053 161.76 373.182 161.713 373.345C161.69 373.508 161.678 373.683 161.678 373.87C161.678 373.987 161.678 374.127 161.678 374.29C161.701 374.43 161.713 374.547 161.713 374.64C161.713 374.78 161.55 374.955 161.223 375.165C160.92 375.352 160.558 375.527 160.138 375.69C159.741 375.853 159.403 375.935 159.123 375.935C158.983 375.935 158.866 375.9 158.773 375.83C158.703 375.737 158.668 375.62 158.668 375.48C158.668 375.107 158.785 374.722 159.018 374.325C159.275 373.905 159.648 373.485 160.138 373.065C160.698 372.575 161.305 372.143 161.958 371.77C162.635 371.373 163.288 371.07 163.918 370.86C164.571 370.65 165.143 370.545 165.633 370.545C166.613 370.545 167.406 370.883 168.013 371.56C168.643 372.213 168.935 373.065 168.888 374.115L168.713 382.025C168.69 382.538 168.795 382.958 169.028 383.285C169.261 383.612 169.553 383.775 169.903 383.775C170.44 383.775 170.86 383.635 171.163 383.355C171.256 383.262 171.338 383.215 171.408 383.215C171.525 383.215 171.618 383.25 171.688 383.32C171.781 383.39 171.828 383.483 171.828 383.6C171.828 383.88 171.665 384.172 171.338 384.475C170.941 384.872 170.51 385.175 170.043 385.385C169.6 385.618 169.168 385.735 168.748 385.735C167.581 385.735 166.648 385.105 165.948 383.845H165.843C165.073 384.498 164.35 384.977 163.673 385.28C162.996 385.583 162.296 385.735 161.573 385.735ZM163.393 383.845C163.79 383.845 164.116 383.787 164.373 383.67C164.653 383.53 164.898 383.343 165.108 383.11C165.225 382.993 165.306 382.853 165.353 382.69C165.423 382.503 165.47 382.223 165.493 381.85L165.563 379.855C165.586 379.622 165.575 379.458 165.528 379.365C165.481 379.248 165.388 379.19 165.248 379.19C165.201 379.19 165.131 379.202 165.038 379.225C164.945 379.248 164.816 379.295 164.653 379.365C163.603 379.762 162.868 380.182 162.448 380.625C162.028 381.045 161.818 381.512 161.818 382.025C161.818 382.655 161.981 383.122 162.308 383.425C162.658 383.705 163.02 383.845 163.393 383.845ZM175.051 385.35C174.864 385.35 174.701 385.315 174.561 385.245C174.421 385.175 174.351 385.07 174.351 384.93C174.351 384.743 174.421 384.615 174.561 384.545C174.724 384.452 174.923 384.37 175.156 384.3C175.506 384.207 175.833 384.078 176.136 383.915C176.439 383.752 176.591 383.437 176.591 382.97V375.27C176.591 374.687 176.521 374.197 176.381 373.8C176.264 373.38 175.926 373.1 175.366 372.96C175.273 372.937 175.191 372.89 175.121 372.82C175.051 372.727 175.016 372.61 175.016 372.47C175.016 372.167 175.121 372.003 175.331 371.98C176.148 371.77 176.883 371.513 177.536 371.21C178.213 370.907 178.831 370.568 179.391 370.195C179.461 370.148 179.531 370.102 179.601 370.055C179.694 370.008 179.776 369.985 179.846 369.985C179.939 369.985 179.998 370.02 180.021 370.09C180.068 370.137 180.091 370.207 180.091 370.3C180.091 370.463 180.056 370.778 179.986 371.245C179.939 371.712 179.916 372.108 179.916 372.435C179.916 372.528 179.916 372.622 179.916 372.715C179.939 372.808 179.963 372.867 179.986 372.89C180.803 372.12 181.643 371.537 182.506 371.14C183.393 370.743 184.384 370.545 185.481 370.545C186.648 370.545 187.616 371 188.386 371.91C189.156 372.82 189.541 373.998 189.541 375.445V383.005C189.541 383.472 189.693 383.775 189.996 383.915C190.323 384.055 190.661 384.183 191.011 384.3C191.198 384.37 191.373 384.452 191.536 384.545C191.699 384.638 191.781 384.778 191.781 384.965C191.781 385.128 191.699 385.233 191.536 385.28C191.396 385.327 191.256 385.35 191.116 385.35C190.649 385.35 190.253 385.327 189.926 385.28C189.623 385.257 189.319 385.233 189.016 385.21C188.736 385.187 188.386 385.175 187.966 385.175C187.569 385.175 187.219 385.187 186.916 385.21C186.613 385.233 186.298 385.257 185.971 385.28C185.668 385.327 185.283 385.35 184.816 385.35C184.699 385.35 184.559 385.327 184.396 385.28C184.233 385.233 184.151 385.128 184.151 384.965C184.151 384.778 184.233 384.638 184.396 384.545C184.559 384.452 184.734 384.37 184.921 384.3C185.271 384.183 185.598 384.055 185.901 383.915C186.204 383.775 186.356 383.472 186.356 383.005V375.76C186.356 374.78 186.088 374.022 185.551 373.485C185.038 372.948 184.361 372.668 183.521 372.645C182.798 372.645 182.156 372.762 181.596 372.995C181.059 373.205 180.558 373.497 180.091 373.87C179.998 373.963 179.928 374.08 179.881 374.22C179.834 374.36 179.811 374.488 179.811 374.605V383.005C179.811 383.472 179.963 383.787 180.266 383.95C180.569 384.09 180.884 384.207 181.211 384.3C181.724 384.463 181.981 384.673 181.981 384.93C181.981 385.07 181.923 385.175 181.806 385.245C181.689 385.315 181.526 385.35 181.316 385.35C180.849 385.35 180.453 385.327 180.126 385.28C179.823 385.257 179.531 385.233 179.251 385.21C178.994 385.187 178.656 385.175 178.236 385.175C177.839 385.175 177.489 385.187 177.186 385.21C176.883 385.233 176.568 385.257 176.241 385.28C175.914 385.327 175.518 385.35 175.051 385.35ZM97.1007 420.875C96.8673 420.875 96.424 420.688 95.7707 420.315C95.1407 419.965 94.5223 419.382 93.9157 418.565C93.659 418.285 93.2623 417.842 92.7257 417.235C92.2123 416.605 91.594 415.882 90.8707 415.065C90.1707 414.248 89.4123 413.373 88.5957 412.44C87.8023 411.507 86.9973 410.585 86.1807 409.675C85.3873 408.742 84.629 407.867 83.9057 407.05C83.2057 406.233 82.5757 405.51 82.0157 404.88C81.479 404.25 81.0707 403.795 80.7907 403.515C80.674 403.352 80.5573 403.223 80.4407 403.13C80.3473 403.037 80.254 402.99 80.1607 402.99C80.0673 402.99 79.9973 403.083 79.9507 403.27C79.904 403.433 79.8807 403.585 79.8807 403.725C79.8573 404.845 79.8457 406.14 79.8457 407.61C79.8457 409.08 79.834 410.597 79.8107 412.16C79.8107 413.7 79.8107 415.147 79.8107 416.5C79.8107 417.177 79.9973 417.772 80.3707 418.285C80.744 418.775 81.374 419.113 82.2607 419.3C82.5873 419.37 82.844 419.452 83.0307 419.545C83.2407 419.638 83.3457 419.778 83.3457 419.965C83.3457 420.105 83.2523 420.21 83.0657 420.28C82.879 420.35 82.6457 420.385 82.3657 420.385C81.7357 420.385 81.2457 420.362 80.8957 420.315C80.569 420.292 80.2657 420.268 79.9857 420.245C79.7057 420.245 79.3323 420.245 78.8657 420.245C78.4223 420.245 78.0373 420.257 77.7107 420.28C77.4073 420.303 77.104 420.327 76.8007 420.35C76.4973 420.373 76.124 420.385 75.6807 420.385C75.424 420.385 75.1907 420.35 74.9807 420.28C74.794 420.233 74.7007 420.128 74.7007 419.965C74.7007 419.802 74.794 419.673 74.9807 419.58C75.1673 419.463 75.4357 419.358 75.7857 419.265C76.4157 419.078 76.8823 418.74 77.1857 418.25C77.489 417.737 77.664 417.13 77.7107 416.43C77.804 415.543 77.8973 414.377 77.9907 412.93C78.1073 411.483 78.2007 409.862 78.2707 408.065C78.3407 406.268 78.3757 404.413 78.3757 402.5C78.3757 401.263 78.0607 400.377 77.4307 399.84C76.8007 399.303 75.9957 398.872 75.0157 398.545C74.899 398.498 74.689 398.405 74.3857 398.265C74.1057 398.125 73.9657 397.95 73.9657 397.74C73.9657 397.53 74.0707 397.39 74.2807 397.32C74.4907 397.25 74.6657 397.215 74.8057 397.215C75.4123 397.238 75.9373 397.262 76.3807 397.285C76.8473 397.285 77.2907 397.297 77.7107 397.32C78.1307 397.343 78.574 397.367 79.0407 397.39C79.5073 397.39 80.0557 397.39 80.6857 397.39C80.8957 397.39 81.059 397.448 81.1757 397.565C81.2923 397.658 81.3973 397.775 81.4907 397.915C81.7473 398.218 82.144 398.697 82.6807 399.35C83.2407 400.003 83.8823 400.773 84.6057 401.66C85.3523 402.547 86.1457 403.492 86.9857 404.495C87.8257 405.475 88.6657 406.467 89.5057 407.47C90.3457 408.473 91.139 409.418 91.8857 410.305C92.6323 411.192 93.274 411.962 93.8107 412.615C94.3707 413.245 94.7673 413.7 95.0007 413.98C95.094 414.073 95.2107 414.202 95.3507 414.365C95.514 414.528 95.654 414.61 95.7707 414.61C95.9807 414.61 96.0973 414.388 96.1207 413.945C96.1207 413.478 96.1207 412.778 96.1207 411.845C96.1207 410.912 96.1207 409.827 96.1207 408.59C96.144 407.353 96.1557 406.058 96.1557 404.705C96.1557 403.328 96.144 401.963 96.1207 400.61C96.0973 400.097 95.8523 399.665 95.3857 399.315C94.919 398.942 94.4173 398.697 93.8807 398.58C93.554 398.533 93.2507 398.452 92.9707 398.335C92.6907 398.218 92.5507 398.067 92.5507 397.88C92.5507 397.74 92.6907 397.635 92.9707 397.565C93.2507 397.495 93.519 397.46 93.7757 397.46C94.1257 397.46 94.429 397.46 94.6857 397.46C94.9657 397.46 95.234 397.46 95.4907 397.46C95.7473 397.46 96.004 397.46 96.2607 397.46C96.7973 397.46 97.229 397.46 97.5557 397.46C97.8823 397.437 98.2323 397.413 98.6057 397.39C99.0023 397.367 99.539 397.355 100.216 397.355C100.496 397.355 100.717 397.39 100.881 397.46C101.067 397.53 101.161 397.647 101.161 397.81C101.161 398.137 100.799 398.37 100.076 398.51C99.2357 398.673 98.664 398.895 98.3607 399.175C98.0573 399.432 97.894 399.863 97.8707 400.47C97.8707 400.843 97.859 401.462 97.8357 402.325C97.8123 403.165 97.789 404.157 97.7657 405.3C97.7657 406.443 97.754 407.645 97.7307 408.905C97.7073 410.165 97.6957 411.402 97.6957 412.615C97.6957 413.828 97.6957 414.925 97.6957 415.905C97.6957 416.465 97.719 417.013 97.7657 417.55C97.8123 418.063 97.8473 418.518 97.8707 418.915C97.9173 419.288 97.9407 419.568 97.9407 419.755C97.9407 420.198 97.859 420.49 97.6957 420.63C97.5323 420.793 97.334 420.875 97.1007 420.875ZM107.285 420.735C106.795 420.735 106.317 420.572 105.85 420.245C105.384 419.942 104.999 419.557 104.695 419.09C104.392 418.6 104.24 418.122 104.24 417.655C104.24 416.885 104.45 416.267 104.87 415.8C105.314 415.333 105.99 414.913 106.9 414.54L110.295 413.105C110.762 412.918 111.042 412.755 111.135 412.615C111.229 412.452 111.287 412.137 111.31 411.67L111.38 409.535C111.404 408.905 111.252 408.38 110.925 407.96C110.599 407.54 110.12 407.33 109.49 407.33C109.164 407.33 108.825 407.4 108.475 407.54C108.149 407.657 107.88 407.797 107.67 407.96C107.554 408.053 107.472 408.182 107.425 408.345C107.402 408.508 107.39 408.683 107.39 408.87C107.39 408.987 107.39 409.127 107.39 409.29C107.414 409.43 107.425 409.547 107.425 409.64C107.425 409.78 107.262 409.955 106.935 410.165C106.632 410.352 106.27 410.527 105.85 410.69C105.454 410.853 105.115 410.935 104.835 410.935C104.695 410.935 104.579 410.9 104.485 410.83C104.415 410.737 104.38 410.62 104.38 410.48C104.38 410.107 104.497 409.722 104.73 409.325C104.987 408.905 105.36 408.485 105.85 408.065C106.41 407.575 107.017 407.143 107.67 406.77C108.347 406.373 109 406.07 109.63 405.86C110.284 405.65 110.855 405.545 111.345 405.545C112.325 405.545 113.119 405.883 113.725 406.56C114.355 407.213 114.647 408.065 114.6 409.115L114.425 417.025C114.402 417.538 114.507 417.958 114.74 418.285C114.974 418.612 115.265 418.775 115.615 418.775C116.152 418.775 116.572 418.635 116.875 418.355C116.969 418.262 117.05 418.215 117.12 418.215C117.237 418.215 117.33 418.25 117.4 418.32C117.494 418.39 117.54 418.483 117.54 418.6C117.54 418.88 117.377 419.172 117.05 419.475C116.654 419.872 116.222 420.175 115.755 420.385C115.312 420.618 114.88 420.735 114.46 420.735C113.294 420.735 112.36 420.105 111.66 418.845H111.555C110.785 419.498 110.062 419.977 109.385 420.28C108.709 420.583 108.009 420.735 107.285 420.735ZM109.105 418.845C109.502 418.845 109.829 418.787 110.085 418.67C110.365 418.53 110.61 418.343 110.82 418.11C110.937 417.993 111.019 417.853 111.065 417.69C111.135 417.503 111.182 417.223 111.205 416.85L111.275 414.855C111.299 414.622 111.287 414.458 111.24 414.365C111.194 414.248 111.1 414.19 110.96 414.19C110.914 414.19 110.844 414.202 110.75 414.225C110.657 414.248 110.529 414.295 110.365 414.365C109.315 414.762 108.58 415.182 108.16 415.625C107.74 416.045 107.53 416.512 107.53 417.025C107.53 417.655 107.694 418.122 108.02 418.425C108.37 418.705 108.732 418.845 109.105 418.845ZM126.311 420.98C126.195 420.98 126.066 420.805 125.926 420.455C125.786 420.128 125.67 419.837 125.576 419.58C125.413 419.183 125.238 418.752 125.051 418.285C124.888 417.818 124.736 417.387 124.596 416.99C124.06 415.567 123.488 414.178 122.881 412.825C122.275 411.472 121.68 410.095 121.096 408.695C120.91 408.228 120.653 407.832 120.326 407.505C120.023 407.155 119.685 406.922 119.311 406.805C119.101 406.712 118.938 406.63 118.821 406.56C118.728 406.467 118.681 406.338 118.681 406.175C118.681 406.012 118.775 405.918 118.961 405.895C119.148 405.848 119.3 405.825 119.416 405.825C119.93 405.825 120.303 405.837 120.536 405.86C120.793 405.883 121.038 405.918 121.271 405.965C121.528 405.988 121.866 406 122.286 406C122.753 406 123.115 405.988 123.371 405.965C123.651 405.918 123.931 405.883 124.211 405.86C124.515 405.837 124.911 405.825 125.401 405.825C125.518 405.825 125.67 405.848 125.856 405.895C126.043 405.942 126.136 406.035 126.136 406.175C126.136 406.362 126.055 406.502 125.891 406.595C125.728 406.665 125.541 406.747 125.331 406.84C125.098 406.933 124.911 407.108 124.771 407.365C124.655 407.622 124.596 407.925 124.596 408.275C124.596 408.462 124.596 408.648 124.596 408.835C124.62 408.998 124.666 409.15 124.736 409.29L127.361 416.08C127.385 416.103 127.396 416.115 127.396 416.115C127.42 416.115 127.443 416.103 127.466 416.08L129.916 409.71C130.01 409.5 130.068 409.278 130.091 409.045C130.138 408.788 130.161 408.567 130.161 408.38C130.161 407.937 130.08 407.598 129.916 407.365C129.776 407.132 129.531 406.957 129.181 406.84C128.901 406.747 128.691 406.665 128.551 406.595C128.435 406.502 128.376 406.373 128.376 406.21C128.376 406.047 128.458 405.942 128.621 405.895C128.785 405.848 128.948 405.825 129.111 405.825C129.508 405.848 129.893 405.883 130.266 405.93C130.663 405.953 131.118 405.965 131.631 405.965C132.145 405.965 132.53 405.953 132.786 405.93C133.043 405.883 133.381 405.848 133.801 405.825C133.988 405.825 134.163 405.848 134.326 405.895C134.49 405.942 134.571 406.035 134.571 406.175C134.571 406.455 134.315 406.677 133.801 406.84C133.428 406.957 133.043 407.225 132.646 407.645C132.25 408.065 131.935 408.567 131.701 409.15L128.971 415.835C128.901 415.952 128.796 416.173 128.656 416.5C128.54 416.803 128.411 417.142 128.271 417.515C128.131 417.865 128.003 418.18 127.886 418.46C127.793 418.74 127.735 418.903 127.711 418.95C127.665 419.02 127.583 419.195 127.466 419.475C127.35 419.732 127.221 420 127.081 420.28C126.965 420.583 126.848 420.817 126.731 420.98H126.311ZM137.62 420.35C137.433 420.35 137.27 420.315 137.13 420.245C137.013 420.175 136.955 420.07 136.955 419.93C136.955 419.743 137.025 419.615 137.165 419.545C137.328 419.452 137.503 419.382 137.69 419.335C138.227 419.195 138.623 419.043 138.88 418.88C139.137 418.717 139.265 418.425 139.265 418.005V410.445C139.265 409.745 139.148 409.185 138.915 408.765C138.682 408.322 138.273 408.053 137.69 407.96C137.573 407.937 137.48 407.89 137.41 407.82C137.363 407.727 137.34 407.598 137.34 407.435C137.34 407.155 137.445 407.003 137.655 406.98C138.682 406.747 139.557 406.443 140.28 406.07C141.027 405.673 141.587 405.358 141.96 405.125C142.217 404.962 142.403 404.88 142.52 404.88C142.707 404.88 142.8 404.973 142.8 405.16C142.8 405.417 142.765 405.825 142.695 406.385C142.648 406.945 142.59 407.552 142.52 408.205C142.473 408.858 142.45 409.465 142.45 410.025V418.005C142.45 418.378 142.578 418.658 142.835 418.845C143.092 419.032 143.488 419.195 144.025 419.335C144.212 419.382 144.375 419.452 144.515 419.545C144.678 419.615 144.76 419.743 144.76 419.93C144.76 420.21 144.55 420.35 144.13 420.35C143.687 420.35 143.29 420.327 142.94 420.28C142.59 420.257 142.252 420.233 141.925 420.21C141.622 420.187 141.26 420.175 140.84 420.175C140.443 420.175 140.082 420.187 139.755 420.21C139.428 420.233 139.102 420.257 138.775 420.28C138.472 420.327 138.087 420.35 137.62 420.35ZM140.77 402.465C140.187 402.465 139.685 402.267 139.265 401.87C138.868 401.45 138.67 400.948 138.67 400.365C138.67 399.758 138.868 399.257 139.265 398.86C139.685 398.44 140.187 398.23 140.77 398.23C141.377 398.23 141.89 398.44 142.31 398.86C142.73 399.257 142.94 399.758 142.94 400.365C142.94 400.948 142.73 401.45 142.31 401.87C141.89 402.267 141.377 402.465 140.77 402.465ZM154.164 430.395C152.088 430.395 150.443 430.022 149.229 429.275C148.039 428.528 147.444 427.525 147.444 426.265C147.444 425.612 147.538 425.075 147.724 424.655C147.911 424.235 148.226 423.85 148.669 423.5C149.043 423.22 149.474 422.882 149.964 422.485C150.478 422.088 150.979 421.703 151.469 421.33L153.044 421.575C152.041 422.182 151.329 422.777 150.909 423.36C150.489 423.967 150.279 424.69 150.279 425.53C150.279 426.487 150.688 427.28 151.504 427.91C152.321 428.54 153.336 428.855 154.549 428.855C156.019 428.855 157.139 428.54 157.909 427.91C158.446 427.49 158.854 426.953 159.134 426.3C159.438 425.647 159.589 424.97 159.589 424.27C159.589 423.803 159.426 423.418 159.099 423.115C158.773 422.812 158.248 422.567 157.524 422.38C156.801 422.193 155.821 422.053 154.584 421.96C152.321 421.773 150.734 421.423 149.824 420.91C148.914 420.397 148.459 419.662 148.459 418.705C148.459 418.472 148.518 418.25 148.634 418.04C148.774 417.83 148.996 417.608 149.299 417.375C149.766 417.002 150.139 416.71 150.419 416.5C150.699 416.29 150.909 416.115 151.049 415.975C151.213 415.812 151.353 415.625 151.469 415.415L152.834 416.01C152.344 416.197 151.936 416.442 151.609 416.745C151.283 417.048 151.119 417.317 151.119 417.55C151.119 417.853 151.283 418.122 151.609 418.355C151.936 418.565 152.449 418.728 153.149 418.845C153.849 418.962 154.736 419.067 155.809 419.16C158.096 419.3 159.776 419.662 160.849 420.245C161.923 420.828 162.459 421.657 162.459 422.73C162.459 423.663 162.214 424.573 161.724 425.46C161.258 426.37 160.628 427.198 159.834 427.945C159.041 428.692 158.154 429.287 157.174 429.73C156.194 430.173 155.191 430.395 154.164 430.395ZM154.619 415.31C155.459 415.31 156.136 414.878 156.649 414.015C157.186 413.152 157.454 412.043 157.454 410.69C157.454 409.943 157.314 409.267 157.034 408.66C156.754 408.053 156.381 407.575 155.914 407.225C155.471 406.852 154.969 406.665 154.409 406.665C153.896 406.665 153.418 406.852 152.974 407.225C152.531 407.598 152.181 408.1 151.924 408.73C151.668 409.337 151.539 410.013 151.539 410.76C151.539 411.6 151.668 412.37 151.924 413.07C152.204 413.747 152.578 414.295 153.044 414.715C153.534 415.112 154.059 415.31 154.619 415.31ZM154.339 416.64C153.359 416.64 152.414 416.395 151.504 415.905C150.594 415.415 149.848 414.762 149.264 413.945C148.681 413.105 148.389 412.183 148.389 411.18C148.389 410.037 148.693 409.045 149.299 408.205C149.906 407.342 150.699 406.677 151.679 406.21C152.683 405.72 153.733 405.475 154.829 405.475C155.529 405.475 156.148 405.568 156.684 405.755C157.244 405.918 157.816 406.058 158.399 406.175C158.936 406.315 159.379 406.408 159.729 406.455C160.103 406.478 160.499 406.49 160.919 406.49C161.223 406.49 161.573 406.478 161.969 406.455C162.366 406.408 162.658 406.385 162.844 406.385C163.171 406.385 163.334 406.595 163.334 407.015C163.334 407.318 163.206 407.61 162.949 407.89C162.809 408.03 162.693 408.1 162.599 408.1H161.654C161.048 408.1 160.686 408.193 160.569 408.38C160.523 408.45 160.476 408.555 160.429 408.695C160.406 408.812 160.383 408.975 160.359 409.185C160.359 409.395 160.359 409.663 160.359 409.99C160.359 411.203 160.079 412.312 159.519 413.315C158.959 414.318 158.224 415.123 157.314 415.73C156.428 416.337 155.436 416.64 154.339 416.64ZM169.11 420.735C168.62 420.735 168.141 420.572 167.675 420.245C167.208 419.942 166.823 419.557 166.52 419.09C166.216 418.6 166.065 418.122 166.065 417.655C166.065 416.885 166.275 416.267 166.695 415.8C167.138 415.333 167.815 414.913 168.725 414.54L172.12 413.105C172.586 412.918 172.866 412.755 172.96 412.615C173.053 412.452 173.111 412.137 173.135 411.67L173.205 409.535C173.228 408.905 173.076 408.38 172.75 407.96C172.423 407.54 171.945 407.33 171.315 407.33C170.988 407.33 170.65 407.4 170.3 407.54C169.973 407.657 169.705 407.797 169.495 407.96C169.378 408.053 169.296 408.182 169.25 408.345C169.226 408.508 169.215 408.683 169.215 408.87C169.215 408.987 169.215 409.127 169.215 409.29C169.238 409.43 169.25 409.547 169.25 409.64C169.25 409.78 169.086 409.955 168.76 410.165C168.456 410.352 168.095 410.527 167.675 410.69C167.278 410.853 166.94 410.935 166.66 410.935C166.52 410.935 166.403 410.9 166.31 410.83C166.24 410.737 166.205 410.62 166.205 410.48C166.205 410.107 166.321 409.722 166.555 409.325C166.811 408.905 167.185 408.485 167.675 408.065C168.235 407.575 168.841 407.143 169.495 406.77C170.171 406.373 170.825 406.07 171.455 405.86C172.108 405.65 172.68 405.545 173.17 405.545C174.15 405.545 174.943 405.883 175.55 406.56C176.18 407.213 176.471 408.065 176.425 409.115L176.25 417.025C176.226 417.538 176.331 417.958 176.565 418.285C176.798 418.612 177.09 418.775 177.44 418.775C177.976 418.775 178.396 418.635 178.7 418.355C178.793 418.262 178.875 418.215 178.945 418.215C179.061 418.215 179.155 418.25 179.225 418.32C179.318 418.39 179.365 418.483 179.365 418.6C179.365 418.88 179.201 419.172 178.875 419.475C178.478 419.872 178.046 420.175 177.58 420.385C177.136 420.618 176.705 420.735 176.285 420.735C175.118 420.735 174.185 420.105 173.485 418.845H173.38C172.61 419.498 171.886 419.977 171.21 420.28C170.533 420.583 169.833 420.735 169.11 420.735ZM170.93 418.845C171.326 418.845 171.653 418.787 171.91 418.67C172.19 418.53 172.435 418.343 172.645 418.11C172.761 417.993 172.843 417.853 172.89 417.69C172.96 417.503 173.006 417.223 173.03 416.85L173.1 414.855C173.123 414.622 173.111 414.458 173.065 414.365C173.018 414.248 172.925 414.19 172.785 414.19C172.738 414.19 172.668 414.202 172.575 414.225C172.481 414.248 172.353 414.295 172.19 414.365C171.14 414.762 170.405 415.182 169.985 415.625C169.565 416.045 169.355 416.512 169.355 417.025C169.355 417.655 169.518 418.122 169.845 418.425C170.195 418.705 170.556 418.845 170.93 418.845ZM188.083 420.735C186.799 420.735 185.808 420.373 185.108 419.65C184.431 418.927 184.093 417.865 184.093 416.465V408.345C184.093 408.158 184.011 408.03 183.848 407.96C183.708 407.867 183.416 407.82 182.973 407.82H182.693C182.553 407.82 182.436 407.727 182.343 407.54C182.249 407.33 182.203 407.132 182.203 406.945C182.203 406.898 182.226 406.84 182.273 406.77C182.343 406.677 182.401 406.618 182.448 406.595C182.938 406.292 183.416 405.965 183.883 405.615C184.373 405.242 184.816 404.868 185.213 404.495C185.633 404.122 185.983 403.795 186.263 403.515C186.403 403.398 186.519 403.293 186.613 403.2C186.706 403.107 186.823 403.06 186.963 403.06C187.103 403.06 187.219 403.095 187.313 403.165C187.429 403.235 187.476 403.375 187.453 403.585L187.243 405.3C187.219 405.58 187.278 405.767 187.418 405.86C187.581 405.953 187.803 406 188.083 406H192.143C192.213 406 192.283 406.082 192.353 406.245C192.423 406.408 192.458 406.572 192.458 406.735C192.458 406.992 192.423 407.237 192.353 407.47C192.283 407.703 192.201 407.82 192.108 407.82H188.713C188.129 407.82 187.744 407.878 187.558 407.995C187.394 408.112 187.313 408.38 187.313 408.8V415.59C187.313 416.57 187.511 417.328 187.908 417.865C188.304 418.378 188.864 418.635 189.588 418.635C190.264 418.635 190.778 418.577 191.128 418.46C191.478 418.343 191.793 418.203 192.073 418.04C192.143 417.993 192.201 417.97 192.248 417.97C192.364 417.97 192.434 418.028 192.458 418.145C192.504 418.262 192.528 418.39 192.528 418.53C192.528 418.67 192.318 418.915 191.898 419.265C191.478 419.615 190.929 419.942 190.253 420.245C189.576 420.572 188.853 420.735 188.083 420.735ZM202.781 420.735C201.451 420.735 200.238 420.432 199.141 419.825C198.068 419.195 197.216 418.343 196.586 417.27C195.956 416.197 195.641 414.972 195.641 413.595C195.641 412.568 195.84 411.577 196.236 410.62C196.633 409.663 197.193 408.8 197.916 408.03C198.64 407.26 199.48 406.653 200.436 406.21C201.393 405.743 202.42 405.51 203.516 405.51C204.893 405.51 206.141 405.848 207.261 406.525C208.381 407.178 209.268 408.042 209.921 409.115C210.575 410.188 210.901 411.367 210.901 412.65C210.901 414.05 210.598 415.368 209.991 416.605C209.385 417.842 208.475 418.845 207.261 419.615C206.071 420.362 204.578 420.735 202.781 420.735ZM203.516 419.51C204.193 419.51 204.8 419.382 205.336 419.125C205.873 418.845 206.293 418.425 206.596 417.865C206.876 417.328 207.063 416.675 207.156 415.905C207.273 415.112 207.331 414.307 207.331 413.49C207.331 412.323 207.145 411.227 206.771 410.2C206.398 409.173 205.885 408.345 205.231 407.715C204.578 407.085 203.808 406.77 202.921 406.77C202.385 406.77 201.895 406.863 201.451 407.05C201.031 407.213 200.646 407.505 200.296 407.925C199.853 408.462 199.561 409.162 199.421 410.025C199.281 410.865 199.211 411.787 199.211 412.79C199.211 413.91 199.398 414.983 199.771 416.01C200.145 417.037 200.646 417.877 201.276 418.53C201.93 419.183 202.676 419.51 203.516 419.51ZM215.348 420.35C215.138 420.35 214.963 420.315 214.823 420.245C214.706 420.175 214.648 420.07 214.648 419.93C214.648 419.743 214.718 419.615 214.858 419.545C215.021 419.452 215.22 419.37 215.453 419.3C215.943 419.183 216.281 419.02 216.468 418.81C216.678 418.6 216.783 418.32 216.783 417.97V410.27C216.783 409.687 216.701 409.197 216.538 408.8C216.375 408.38 216.025 408.112 215.488 407.995C215.395 407.972 215.301 407.913 215.208 407.82C215.138 407.727 215.103 407.61 215.103 407.47C215.103 407.213 215.22 407.05 215.453 406.98C216.106 406.793 216.806 406.537 217.553 406.21C218.3 405.86 218.906 405.557 219.373 405.3C219.513 405.207 219.641 405.137 219.758 405.09C219.875 405.043 219.956 405.02 220.003 405.02C220.166 405.02 220.248 405.113 220.248 405.3C220.248 405.393 220.236 405.592 220.213 405.895C220.213 406.198 220.201 406.537 220.178 406.91C220.155 407.283 220.143 407.645 220.143 407.995C220.143 408.088 220.166 408.135 220.213 408.135C220.586 407.668 220.995 407.237 221.438 406.84C221.905 406.443 222.395 406.128 222.908 405.895C223.421 405.638 223.911 405.51 224.378 405.51C224.985 405.51 225.451 405.638 225.778 405.895C226.105 406.128 226.268 406.443 226.268 406.84C226.268 407.097 226.186 407.4 226.023 407.75C225.883 408.077 225.685 408.368 225.428 408.625C225.195 408.858 224.938 408.975 224.658 408.975C224.495 408.975 224.32 408.94 224.133 408.87C223.946 408.777 223.748 408.683 223.538 408.59C223.351 408.497 223.153 408.415 222.943 408.345C222.756 408.252 222.57 408.205 222.383 408.205C221.8 408.205 221.263 408.415 220.773 408.835C220.283 409.255 220.038 410.072 220.038 411.285V417.865C220.038 418.238 220.19 418.53 220.493 418.74C220.796 418.95 221.251 419.148 221.858 419.335C222.115 419.405 222.313 419.487 222.453 419.58C222.593 419.65 222.663 419.767 222.663 419.93C222.663 420.21 222.441 420.35 221.998 420.35C221.298 420.35 220.691 420.315 220.178 420.245C219.688 420.198 219.14 420.175 218.533 420.175C218.136 420.175 217.786 420.187 217.483 420.21C217.18 420.233 216.865 420.257 216.538 420.28C216.211 420.327 215.815 420.35 215.348 420.35Z" fill="#B7282E"/>
</g>
<g opacity="0.3">
<circle cx="410" cy="368.625" r="148.5" fill="#0F2350" fill-opacity="0.3" stroke="#0F2350" stroke-width="3"/>
<path d="M370.601 362.8C370.344 362.8 370.134 362.753 369.971 362.66C369.808 362.567 369.726 362.462 369.726 362.345C369.726 362.158 369.819 362.018 370.006 361.925C370.193 361.808 370.344 361.738 370.461 361.715C371.348 361.505 372.001 361.237 372.421 360.91C372.864 360.583 373.086 360.035 373.086 359.265V343.13C373.086 342.57 373.028 342.162 372.911 341.905C372.794 341.625 372.573 341.415 372.246 341.275C371.943 341.135 371.499 341.007 370.916 340.89C370.239 340.75 369.901 340.517 369.901 340.19C369.901 340.027 369.983 339.91 370.146 339.84C370.333 339.77 370.554 339.735 370.811 339.735C371.394 339.735 371.919 339.747 372.386 339.77C372.853 339.793 373.296 339.817 373.716 339.84C374.136 339.863 374.603 339.875 375.116 339.875C375.653 339.875 376.166 339.875 376.656 339.875C377.146 339.852 377.648 339.828 378.161 339.805C378.674 339.782 379.223 339.77 379.806 339.77C380.086 339.77 380.296 339.805 380.436 339.875C380.599 339.922 380.681 340.027 380.681 340.19C380.681 340.377 380.599 340.528 380.436 340.645C380.273 340.738 380.016 340.82 379.666 340.89C378.779 341.1 378.079 341.333 377.566 341.59C377.053 341.823 376.796 342.278 376.796 342.955V359.16C376.796 359.883 376.948 360.408 377.251 360.735C377.578 361.038 378.231 361.19 379.211 361.19H383.271C383.878 361.19 384.403 361.097 384.846 360.91C385.313 360.723 385.674 360.513 385.931 360.28C386.374 359.883 386.713 359.51 386.946 359.16C387.203 358.787 387.471 358.297 387.751 357.69C387.868 357.433 387.996 357.188 388.136 356.955C388.276 356.722 388.428 356.605 388.591 356.605C388.754 356.605 388.871 356.687 388.941 356.85C389.011 356.99 389.046 357.13 389.046 357.27C389.046 357.317 389.034 357.375 389.011 357.445C388.988 357.515 388.976 357.585 388.976 357.655C388.813 358.285 388.661 358.845 388.521 359.335C388.381 359.825 388.264 360.292 388.171 360.735C388.101 361.178 388.043 361.657 387.996 362.17C387.973 362.333 387.926 362.485 387.856 362.625C387.786 362.742 387.658 362.8 387.471 362.8C386.561 362.8 385.593 362.788 384.566 362.765C383.539 362.742 382.501 362.718 381.451 362.695C380.401 362.695 379.363 362.683 378.336 362.66C377.333 362.637 376.364 362.625 375.431 362.625C374.871 362.625 374.241 362.637 373.541 362.66C372.864 362.683 372.234 362.707 371.651 362.73C371.091 362.777 370.741 362.8 370.601 362.8ZM399.505 363.115C398.175 363.115 396.961 362.812 395.865 362.205C394.791 361.575 393.94 360.723 393.31 359.65C392.68 358.577 392.365 357.352 392.365 355.975C392.365 354.948 392.563 353.957 392.96 353C393.356 352.043 393.916 351.18 394.64 350.41C395.363 349.64 396.203 349.033 397.16 348.59C398.116 348.123 399.143 347.89 400.24 347.89C401.616 347.89 402.865 348.228 403.985 348.905C405.105 349.558 405.991 350.422 406.645 351.495C407.298 352.568 407.625 353.747 407.625 355.03C407.625 356.43 407.321 357.748 406.715 358.985C406.108 360.222 405.198 361.225 403.985 361.995C402.795 362.742 401.301 363.115 399.505 363.115ZM400.24 361.89C400.916 361.89 401.523 361.762 402.06 361.505C402.596 361.225 403.016 360.805 403.32 360.245C403.6 359.708 403.786 359.055 403.88 358.285C403.996 357.492 404.055 356.687 404.055 355.87C404.055 354.703 403.868 353.607 403.495 352.58C403.121 351.553 402.608 350.725 401.955 350.095C401.301 349.465 400.531 349.15 399.645 349.15C399.108 349.15 398.618 349.243 398.175 349.43C397.755 349.593 397.37 349.885 397.02 350.305C396.576 350.842 396.285 351.542 396.145 352.405C396.005 353.245 395.935 354.167 395.935 355.17C395.935 356.29 396.121 357.363 396.495 358.39C396.868 359.417 397.37 360.257 398 360.91C398.653 361.563 399.4 361.89 400.24 361.89ZM417.881 363.15C416.691 363.15 415.618 362.847 414.661 362.24C413.705 361.61 412.946 360.758 412.386 359.685C411.826 358.612 411.546 357.41 411.546 356.08C411.546 354.563 411.885 353.187 412.561 351.95C413.238 350.713 414.148 349.733 415.291 349.01C416.435 348.287 417.695 347.925 419.071 347.925C420.728 347.925 422.151 348.403 423.341 349.36C423.598 349.593 423.726 349.815 423.726 350.025C423.726 350.188 423.633 350.398 423.446 350.655C423.283 350.888 423.073 351.098 422.816 351.285C422.583 351.448 422.361 351.53 422.151 351.53C422.011 351.53 421.86 351.483 421.696 351.39C421.556 351.297 421.416 351.192 421.276 351.075C420.716 350.632 420.121 350.247 419.491 349.92C418.885 349.57 418.36 349.395 417.916 349.395C416.866 349.395 416.026 349.873 415.396 350.83C414.79 351.763 414.486 353.082 414.486 354.785C414.486 355.905 414.696 356.897 415.116 357.76C415.56 358.623 416.155 359.3 416.901 359.79C417.671 360.28 418.546 360.525 419.526 360.525C420.203 360.525 420.786 360.42 421.276 360.21C421.79 359.977 422.326 359.592 422.886 359.055C422.956 359.008 423.026 358.962 423.096 358.915C423.19 358.868 423.271 358.845 423.341 358.845C423.598 358.845 423.726 359.02 423.726 359.37C423.726 359.487 423.691 359.638 423.621 359.825C423.551 359.988 423.446 360.175 423.306 360.385C422.98 360.852 422.548 361.307 422.011 361.75C421.475 362.17 420.856 362.508 420.156 362.765C419.456 363.022 418.698 363.15 417.881 363.15ZM430.221 363.115C429.731 363.115 429.253 362.952 428.786 362.625C428.319 362.322 427.934 361.937 427.631 361.47C427.328 360.98 427.176 360.502 427.176 360.035C427.176 359.265 427.386 358.647 427.806 358.18C428.249 357.713 428.926 357.293 429.836 356.92L433.231 355.485C433.698 355.298 433.978 355.135 434.071 354.995C434.164 354.832 434.223 354.517 434.246 354.05L434.316 351.915C434.339 351.285 434.188 350.76 433.861 350.34C433.534 349.92 433.056 349.71 432.426 349.71C432.099 349.71 431.761 349.78 431.411 349.92C431.084 350.037 430.816 350.177 430.606 350.34C430.489 350.433 430.408 350.562 430.361 350.725C430.338 350.888 430.326 351.063 430.326 351.25C430.326 351.367 430.326 351.507 430.326 351.67C430.349 351.81 430.361 351.927 430.361 352.02C430.361 352.16 430.198 352.335 429.871 352.545C429.568 352.732 429.206 352.907 428.786 353.07C428.389 353.233 428.051 353.315 427.771 353.315C427.631 353.315 427.514 353.28 427.421 353.21C427.351 353.117 427.316 353 427.316 352.86C427.316 352.487 427.433 352.102 427.666 351.705C427.923 351.285 428.296 350.865 428.786 350.445C429.346 349.955 429.953 349.523 430.606 349.15C431.283 348.753 431.936 348.45 432.566 348.24C433.219 348.03 433.791 347.925 434.281 347.925C435.261 347.925 436.054 348.263 436.661 348.94C437.291 349.593 437.583 350.445 437.536 351.495L437.361 359.405C437.338 359.918 437.443 360.338 437.676 360.665C437.909 360.992 438.201 361.155 438.551 361.155C439.088 361.155 439.508 361.015 439.811 360.735C439.904 360.642 439.986 360.595 440.056 360.595C440.173 360.595 440.266 360.63 440.336 360.7C440.429 360.77 440.476 360.863 440.476 360.98C440.476 361.26 440.313 361.552 439.986 361.855C439.589 362.252 439.158 362.555 438.691 362.765C438.248 362.998 437.816 363.115 437.396 363.115C436.229 363.115 435.296 362.485 434.596 361.225H434.491C433.721 361.878 432.998 362.357 432.321 362.66C431.644 362.963 430.944 363.115 430.221 363.115ZM432.041 361.225C432.438 361.225 432.764 361.167 433.021 361.05C433.301 360.91 433.546 360.723 433.756 360.49C433.873 360.373 433.954 360.233 434.001 360.07C434.071 359.883 434.118 359.603 434.141 359.23L434.211 357.235C434.234 357.002 434.223 356.838 434.176 356.745C434.129 356.628 434.036 356.57 433.896 356.57C433.849 356.57 433.779 356.582 433.686 356.605C433.593 356.628 433.464 356.675 433.301 356.745C432.251 357.142 431.516 357.562 431.096 358.005C430.676 358.425 430.466 358.892 430.466 359.405C430.466 360.035 430.629 360.502 430.956 360.805C431.306 361.085 431.668 361.225 432.041 361.225ZM443.524 362.73C443.361 362.73 443.197 362.707 443.034 362.66C442.894 362.613 442.824 362.508 442.824 362.345C442.824 362.158 442.906 362.03 443.069 361.96C443.232 361.867 443.419 361.773 443.629 361.68C443.979 361.563 444.306 361.435 444.609 361.295C444.912 361.155 445.064 360.84 445.064 360.35V343.025C445.064 342.348 444.947 341.788 444.714 341.345C444.504 340.878 444.107 340.587 443.524 340.47C443.337 340.423 443.244 340.26 443.244 339.98C443.244 339.723 443.326 339.572 443.489 339.525C444.096 339.408 444.667 339.257 445.204 339.07C445.741 338.883 446.242 338.697 446.709 338.51C447.176 338.323 447.596 338.16 447.969 338.02C448.109 337.973 448.214 337.95 448.284 337.95C448.354 337.95 448.401 337.985 448.424 338.055C448.471 338.125 448.494 338.195 448.494 338.265C448.494 338.452 448.459 338.848 448.389 339.455C448.319 340.062 448.284 340.972 448.284 342.185V360.35C448.284 360.817 448.436 361.132 448.739 361.295C449.042 361.435 449.369 361.563 449.719 361.68C449.929 361.75 450.116 361.832 450.279 361.925C450.442 362.018 450.524 362.158 450.524 362.345C450.524 362.485 450.442 362.578 450.279 362.625C450.139 362.672 449.987 362.695 449.824 362.695C449.381 362.695 448.996 362.683 448.669 362.66C448.342 362.637 448.027 362.613 447.724 362.59C447.421 362.567 447.059 362.555 446.639 362.555C446.242 362.555 445.892 362.567 445.589 362.59C445.286 362.613 444.982 362.637 444.679 362.66C444.376 362.707 443.991 362.73 443.524 362.73ZM375.455 397.8C375.175 397.8 374.941 397.753 374.755 397.66C374.568 397.59 374.475 397.473 374.475 397.31C374.475 397.123 374.568 396.972 374.755 396.855C374.941 396.738 375.198 396.622 375.525 396.505C376.155 396.318 376.726 396.038 377.24 395.665C377.753 395.292 378.173 394.72 378.5 393.95C379.13 392.527 379.713 391.173 380.25 389.89C380.786 388.583 381.3 387.3 381.79 386.04C382.28 384.78 382.781 383.485 383.295 382.155C383.808 380.802 384.333 379.367 384.87 377.85C385.08 377.313 385.231 376.87 385.325 376.52C385.418 376.147 385.476 375.82 385.5 375.54C385.803 375.47 386.083 375.4 386.34 375.33C386.596 375.237 386.876 375.108 387.18 374.945C387.46 374.805 387.67 374.607 387.81 374.35C387.973 374.07 388.101 373.872 388.195 373.755C388.241 373.732 388.288 373.72 388.335 373.72C388.405 373.697 388.463 373.732 388.51 373.825C388.58 373.942 388.626 374.07 388.65 374.21C388.696 374.35 388.743 374.502 388.79 374.665C389.326 376.368 389.875 378.107 390.435 379.88C391.018 381.63 391.59 383.345 392.15 385.025C392.71 386.705 393.235 388.268 393.725 389.715C394.215 391.138 394.635 392.387 394.985 393.46C395.241 394.23 395.545 394.825 395.895 395.245C396.245 395.642 396.618 395.945 397.015 396.155C397.411 396.342 397.843 396.482 398.31 396.575C398.66 396.645 398.916 396.75 399.08 396.89C399.266 397.03 399.36 397.193 399.36 397.38C399.36 397.52 399.266 397.613 399.08 397.66C398.916 397.73 398.706 397.765 398.45 397.765C398.076 397.765 397.586 397.742 396.98 397.695C396.373 397.672 395.743 397.648 395.09 397.625C394.436 397.602 393.841 397.59 393.305 397.59C392.861 397.59 392.371 397.59 391.835 397.59C391.298 397.59 390.785 397.602 390.295 397.625C389.828 397.648 389.42 397.66 389.07 397.66C388.79 397.66 388.556 397.625 388.37 397.555C388.206 397.462 388.125 397.345 388.125 397.205C388.125 397.018 388.23 396.867 388.44 396.75C388.65 396.633 388.895 396.552 389.175 396.505C389.968 396.365 390.54 396.155 390.89 395.875C391.263 395.595 391.415 395.222 391.345 394.755C391.321 394.358 391.24 393.868 391.1 393.285C390.96 392.678 390.796 392.048 390.61 391.395C390.423 390.718 390.248 390.1 390.085 389.54C390.038 389.353 389.956 389.237 389.84 389.19C389.723 389.143 389.525 389.12 389.245 389.12H382.77C382.653 389.12 382.548 389.167 382.455 389.26C382.361 389.33 382.268 389.482 382.175 389.715C382.105 389.995 381.988 390.357 381.825 390.8C381.685 391.22 381.545 391.675 381.405 392.165C381.265 392.632 381.136 393.075 381.02 393.495C380.926 393.892 380.868 394.183 380.845 394.37C380.775 394.953 380.915 395.42 381.265 395.77C381.638 396.097 382.186 396.353 382.91 396.54C383.61 396.727 383.96 396.96 383.96 397.24C383.96 397.403 383.866 397.52 383.68 397.59C383.516 397.637 383.295 397.66 383.015 397.66C382.571 397.66 382.058 397.648 381.475 397.625C380.891 397.602 380.273 397.59 379.62 397.59C378.873 397.59 378.15 397.625 377.45 397.695C376.75 397.765 376.085 397.8 375.455 397.8ZM383.75 387.685H388.86C389.186 387.685 389.35 387.627 389.35 387.51C389.35 387.44 389.338 387.382 389.315 387.335C389.315 387.288 389.303 387.218 389.28 387.125L386.69 378.83C386.573 378.457 386.48 378.27 386.41 378.27C386.363 378.27 386.281 378.445 386.165 378.795L383.12 387.125C383.073 387.265 383.05 387.358 383.05 387.405C383.05 387.522 383.108 387.603 383.225 387.65C383.365 387.673 383.54 387.685 383.75 387.685ZM402.515 397.73C402.305 397.73 402.13 397.695 401.99 397.625C401.873 397.555 401.815 397.45 401.815 397.31C401.815 397.123 401.885 396.995 402.025 396.925C402.188 396.832 402.386 396.75 402.62 396.68C403.11 396.563 403.448 396.4 403.635 396.19C403.845 395.98 403.95 395.7 403.95 395.35V387.65C403.95 387.067 403.868 386.577 403.705 386.18C403.541 385.76 403.191 385.492 402.655 385.375C402.561 385.352 402.468 385.293 402.375 385.2C402.305 385.107 402.27 384.99 402.27 384.85C402.27 384.593 402.386 384.43 402.62 384.36C403.273 384.173 403.973 383.917 404.72 383.59C405.466 383.24 406.073 382.937 406.54 382.68C406.68 382.587 406.808 382.517 406.925 382.47C407.041 382.423 407.123 382.4 407.17 382.4C407.333 382.4 407.415 382.493 407.415 382.68C407.415 382.773 407.403 382.972 407.38 383.275C407.38 383.578 407.368 383.917 407.345 384.29C407.321 384.663 407.31 385.025 407.31 385.375C407.31 385.468 407.333 385.515 407.38 385.515C407.753 385.048 408.161 384.617 408.605 384.22C409.071 383.823 409.561 383.508 410.075 383.275C410.588 383.018 411.078 382.89 411.545 382.89C412.151 382.89 412.618 383.018 412.945 383.275C413.271 383.508 413.435 383.823 413.435 384.22C413.435 384.477 413.353 384.78 413.19 385.13C413.05 385.457 412.851 385.748 412.595 386.005C412.361 386.238 412.105 386.355 411.825 386.355C411.661 386.355 411.486 386.32 411.3 386.25C411.113 386.157 410.915 386.063 410.705 385.97C410.518 385.877 410.32 385.795 410.11 385.725C409.923 385.632 409.736 385.585 409.55 385.585C408.966 385.585 408.43 385.795 407.94 386.215C407.45 386.635 407.205 387.452 407.205 388.665V395.245C407.205 395.618 407.356 395.91 407.66 396.12C407.963 396.33 408.418 396.528 409.025 396.715C409.281 396.785 409.48 396.867 409.62 396.96C409.76 397.03 409.83 397.147 409.83 397.31C409.83 397.59 409.608 397.73 409.165 397.73C408.465 397.73 407.858 397.695 407.345 397.625C406.855 397.578 406.306 397.555 405.7 397.555C405.303 397.555 404.953 397.567 404.65 397.59C404.346 397.613 404.031 397.637 403.705 397.66C403.378 397.707 402.981 397.73 402.515 397.73ZM422.619 398.15C421.359 398.15 420.239 397.835 419.259 397.205C418.302 396.552 417.544 395.653 416.984 394.51C416.424 393.343 416.144 392.002 416.144 390.485C416.144 389.108 416.459 387.848 417.089 386.705C417.742 385.562 418.605 384.652 419.679 383.975C420.752 383.275 421.93 382.925 423.214 382.925C424.17 382.925 425.022 383.123 425.769 383.52C426.539 383.893 427.134 384.43 427.554 385.13C427.997 385.807 428.219 386.588 428.219 387.475C428.219 388.245 427.857 388.63 427.134 388.63H419.889C419.562 388.63 419.329 388.723 419.189 388.91C419.049 389.097 418.979 389.435 418.979 389.925C418.979 390.952 419.212 391.897 419.679 392.76C420.145 393.6 420.764 394.277 421.534 394.79C422.304 395.303 423.155 395.56 424.089 395.56C424.789 395.56 425.419 395.432 425.979 395.175C426.562 394.895 427.099 394.51 427.589 394.02C427.659 393.927 427.717 393.857 427.764 393.81C427.834 393.763 427.904 393.74 427.974 393.74C428.184 393.74 428.289 393.868 428.289 394.125C428.289 394.498 428.125 394.942 427.799 395.455C427.472 395.945 427.052 396.4 426.539 396.82C426.049 397.217 425.465 397.532 424.789 397.765C424.135 398.022 423.412 398.15 422.619 398.15ZM419.924 387.44H422.724C423.33 387.44 423.809 387.428 424.159 387.405C424.509 387.382 424.835 387.335 425.139 387.265C425.255 387.218 425.337 387.125 425.384 386.985C425.43 386.822 425.454 386.623 425.454 386.39C425.454 385.737 425.185 385.188 424.649 384.745C424.112 384.278 423.47 384.045 422.724 384.045C422.21 384.045 421.697 384.197 421.184 384.5C420.694 384.803 420.285 385.188 419.959 385.655C419.632 386.098 419.48 386.553 419.504 387.02C419.504 387.3 419.644 387.44 419.924 387.44ZM435.197 398.115C434.707 398.115 434.229 397.952 433.762 397.625C433.296 397.322 432.911 396.937 432.607 396.47C432.304 395.98 432.152 395.502 432.152 395.035C432.152 394.265 432.362 393.647 432.782 393.18C433.226 392.713 433.902 392.293 434.812 391.92L438.207 390.485C438.674 390.298 438.954 390.135 439.047 389.995C439.141 389.832 439.199 389.517 439.222 389.05L439.292 386.915C439.316 386.285 439.164 385.76 438.837 385.34C438.511 384.92 438.032 384.71 437.402 384.71C437.076 384.71 436.737 384.78 436.387 384.92C436.061 385.037 435.792 385.177 435.582 385.34C435.466 385.433 435.384 385.562 435.337 385.725C435.314 385.888 435.302 386.063 435.302 386.25C435.302 386.367 435.302 386.507 435.302 386.67C435.326 386.81 435.337 386.927 435.337 387.02C435.337 387.16 435.174 387.335 434.847 387.545C434.544 387.732 434.182 387.907 433.762 388.07C433.366 388.233 433.027 388.315 432.747 388.315C432.607 388.315 432.491 388.28 432.397 388.21C432.327 388.117 432.292 388 432.292 387.86C432.292 387.487 432.409 387.102 432.642 386.705C432.899 386.285 433.272 385.865 433.762 385.445C434.322 384.955 434.929 384.523 435.582 384.15C436.259 383.753 436.912 383.45 437.542 383.24C438.196 383.03 438.767 382.925 439.257 382.925C440.237 382.925 441.031 383.263 441.637 383.94C442.267 384.593 442.559 385.445 442.512 386.495L442.337 394.405C442.314 394.918 442.419 395.338 442.652 395.665C442.886 395.992 443.177 396.155 443.527 396.155C444.064 396.155 444.484 396.015 444.787 395.735C444.881 395.642 444.962 395.595 445.032 395.595C445.149 395.595 445.242 395.63 445.312 395.7C445.406 395.77 445.452 395.863 445.452 395.98C445.452 396.26 445.289 396.552 444.962 396.855C444.566 397.252 444.134 397.555 443.667 397.765C443.224 397.998 442.792 398.115 442.372 398.115C441.206 398.115 440.272 397.485 439.572 396.225H439.467C438.697 396.878 437.974 397.357 437.297 397.66C436.621 397.963 435.921 398.115 435.197 398.115ZM437.017 396.225C437.414 396.225 437.741 396.167 437.997 396.05C438.277 395.91 438.522 395.723 438.732 395.49C438.849 395.373 438.931 395.233 438.977 395.07C439.047 394.883 439.094 394.603 439.117 394.23L439.187 392.235C439.211 392.002 439.199 391.838 439.152 391.745C439.106 391.628 439.012 391.57 438.872 391.57C438.826 391.57 438.756 391.582 438.662 391.605C438.569 391.628 438.441 391.675 438.277 391.745C437.227 392.142 436.492 392.562 436.072 393.005C435.652 393.425 435.442 393.892 435.442 394.405C435.442 395.035 435.606 395.502 435.932 395.805C436.282 396.085 436.644 396.225 437.017 396.225Z" fill="#0F2350"/>
</g>
</svg>
