<?xml version="1.0" encoding="UTF-8"?>
<svg id="_レイヤー_1" data-name="レイヤー_1" xmlns="http://www.w3.org/2000/svg" version="1.1" xmlns:xlink="http://www.w3.org/1999/xlink" viewBox="0 0 600 600">
  <!-- Generator: Adobe Illustrator 29.3.0, SVG Export Plug-In . SVG Version: 2.1.0 Build 146)  -->
  <defs>
    <style>
      .st0 {
        fill: #16244b;
      }

      .st1 {
        fill: url(#_名称未設定グラデーション_14);
      }

      .st1, .st2, .st3 {
        display: none;
      }

      .st4 {
        fill: #fff;
      }

      .st5 {
        fill: none;
      }

      .st6 {
        fill: url(#_名称未設定グラデーション_11);
      }

      .st6, .st7, .st8 {
        opacity: .2;
      }

      .st9 {
        fill: #122449;
      }

      .st10 {
        fill: #231815;
      }

      .st2 {
        fill: #f3f3f3;
      }

      .st8 {
        fill: url(#_名称未設定グラデーション_45);
      }

      .st11 {
        fill: #16254b;
      }

      .st12 {
        fill: url(#_名称未設定グラデーション_76);
      }

      .st13 {
        fill: url(#_名称未設定グラデーション_21);
      }

      .st14 {
        clip-path: url(#clippath);
      }
    </style>
    <radialGradient id="_名称未設定グラデーション_76" data-name="名称未設定グラデーション 76" cx="300" cy="300" fx="300" fy="300" r="300" gradientUnits="userSpaceOnUse">
      <stop offset=".7" stop-color="#fff" stop-opacity=".1"/>
      <stop offset="1" stop-color="#fff"/>
    </radialGradient>
    <clipPath id="clippath">
      <circle class="st5" cx="300" cy="300" r="300"/>
    </clipPath>
    <radialGradient id="_名称未設定グラデーション_21" data-name="名称未設定グラデーション 21" cx="469.8" cy="399.4" fx="469.8" fy="399.4" r="160" gradientUnits="userSpaceOnUse">
      <stop offset="0" stop-color="#1694b3"/>
      <stop offset=".4" stop-color="#1694b3" stop-opacity=".5"/>
      <stop offset=".6" stop-color="#44a8c0" stop-opacity=".4"/>
      <stop offset=".9" stop-color="#bbdce4" stop-opacity=".1"/>
      <stop offset="1" stop-color="#f6f6f6" stop-opacity="0"/>
    </radialGradient>
    <radialGradient id="_名称未設定グラデーション_45" data-name="名称未設定グラデーション 45" cx="150" cy="399.4" fx="150" fy="399.4" r="160" gradientUnits="userSpaceOnUse">
      <stop offset="0" stop-color="#f19caa"/>
      <stop offset=".4" stop-color="#e898a5" stop-opacity=".5"/>
      <stop offset="1" stop-color="#f6f6f6" stop-opacity="0"/>
    </radialGradient>
    <radialGradient id="_名称未設定グラデーション_11" data-name="名称未設定グラデーション 11" cx="300" cy="101.2" fx="300" fy="101.2" r="165" gradientUnits="userSpaceOnUse">
      <stop offset="0" stop-color="#4cb99a"/>
      <stop offset=".4" stop-color="#4cb99a" stop-opacity=".5"/>
      <stop offset="1" stop-color="#f6f6f6" stop-opacity="0"/>
    </radialGradient>
    <radialGradient id="_名称未設定グラデーション_14" data-name="名称未設定グラデーション 14" cx="300" cy="290" fx="300" fy="290" r="115" gradientUnits="userSpaceOnUse">
      <stop offset="0" stop-color="#fff"/>
      <stop offset="1" stop-color="#fff"/>
    </radialGradient>
  </defs>
  <rect class="st2" width="600" height="600"/>
  <circle class="st12" cx="300" cy="300" r="300"/>
  <g class="st14">
    <circle class="st13" cx="469.8" cy="399.4" r="160"/>
    <g>
      <path class="st10" d="M472.7,373c-.9,0-1.6-.2-2.3-.6s-1.2-1-1.6-1.6c-.4-.7-.8-1.4-1-2.3-.2-.8-.3-1.6-.3-2.4s.1-1.7.3-2.5c.2-.9.5-1.6,1-2.3.4-.7,1-1.3,1.7-1.7s1.5-.6,2.4-.6,1.6.2,2.3.6c.7.4,1.2,1,1.6,1.6.4.7.7,1.4.9,2.2.2.8.3,1.6.3,2.4s-.1,1.7-.3,2.5-.5,1.6-1,2.4c-.4.7-1,1.3-1.7,1.7-.7.4-1.5.7-2.5.7ZM473,372c.5,0,.8-.3,1.1-.8.3-.5.5-1.3.6-2.2.1-.9.2-1.9.2-2.9s0-1.5-.2-2.3c-.1-.7-.3-1.4-.5-2-.2-.6-.5-1.1-.7-1.5-.3-.4-.6-.5-1-.5s-.8.3-1.1.8c-.3.5-.5,1.3-.6,2.2-.1.9-.2,1.9-.2,2.9s0,1.5.1,2.3c0,.7.2,1.4.4,2,.2.6.4,1.1.7,1.5.3.4.6.5,1,.5Z"/>
      <path class="st10" d="M484.6,373.5c-.3,0-.7,0-1-.1-.3,0-.6-.2-.9-.4-.2-.2-.4-.3-.4-.5s0-.4,0-.6c0-.2.2-.4.3-.5s.2-.2.4-.2.2,0,.3,0c0,0,.2.1.3.3.2.2.4.5.7.7s.6.4.9.4.9-.1,1.3-.4c.4-.3.7-.6.9-1.1.2-.5.3-1,.3-1.7s0-1.1-.2-1.6c-.2-.5-.4-.8-.7-1.1-.3-.3-.7-.4-1.2-.4s-.7,0-.9.2c-.2.1-.4.2-.5.3-.1,0-.2,0-.4,0-.1,0-.2-.2-.2-.3,0-.3.2-.5.4-.7.2-.2.4-.3.6-.4.4-.2.8-.4,1.1-.7.3-.2.6-.5.8-.7.2-.2.4-.5.5-.8.1-.3.2-.6.2-1s-.2-.9-.5-1.2c-.3-.3-.7-.5-1.2-.5s-.8,0-1.1.3-.6.4-.8.6-.4.4-.5.6c-.1.2-.2.3-.3.3s-.2,0-.3-.2-.2-.2-.2-.4,0-.4.2-.7c.2-.3.4-.6.8-1,.4-.3.8-.6,1.4-.8.6-.2,1.2-.3,2-.3s1.1.1,1.6.3c.5.2.9.5,1.2.9.3.4.4.9.4,1.4s0,.7-.3,1.1c-.2.4-.5.8-1,1.2-.4.4-1,.6-1.7.8,0,0,0,0,0,0s0,0,0,0c.8,0,1.4.1,2,.4.6.3,1.1.7,1.4,1.2.3.5.5,1.1.5,1.8s-.2,1.5-.5,2.2c-.4.6-.9,1.2-1.5,1.7-.6.5-1.3.8-2.1,1.1-.8.2-1.6.4-2.4.4Z"/>
      <path class="st10" d="M415.9,408.5c-.2,0-.4,0-.5-.1s-.2-.2-.2-.3c0-.2,0-.3.2-.4.1,0,.3-.2.4-.2.7-.2,1.2-.4,1.6-.7.3-.3.5-.7.5-1.3v-13.8c0-.5,0-.8-.2-1-.1-.2-.3-.4-.6-.6-.3-.1-.7-.2-1.2-.3-.5,0-.8-.3-.8-.6s0-.2.2-.3c.1,0,.3-.1.5-.1.5,0,1,0,1.4,0,.5,0,.9,0,1.3,0,.4,0,.8,0,1.3,0s.9,0,1.4,0c.5,0,1,0,1.4,0,.5,0,1,0,1.4,0s.4,0,.5.1c.1,0,.2.2.2.3s0,.3-.2.4-.3.2-.6.2c-.8.2-1.4.4-1.7.6-.4.2-.6.6-.6,1.2v13.7c0,.6.1,1,.4,1.3.3.3.8.4,1.5.4h3.3c.5,0,.9,0,1.3-.2.4-.2.7-.4.9-.6.4-.3.7-.7.9-1,.2-.4.5-.8.7-1.3.1-.3.3-.5.4-.7.1-.2.2-.2.4-.2s.2,0,.3.2c0,.1,0,.3,0,.4s0,0,0,.2c0,.1,0,.2,0,.2-.2.6-.3,1.1-.4,1.5s-.2.8-.3,1.2c0,.4-.1.8-.2,1.3,0,.1,0,.3-.1.4,0,.1-.2.2-.4.2-.6,0-1.3,0-2.2,0-.8,0-1.7,0-2.7,0-.9,0-1.9,0-2.8,0-1,0-1.8,0-2.7,0s-.9,0-1.5,0c-.6,0-1.1,0-1.6,0-.5,0-.9,0-1.1,0Z"/>
      <path class="st10" d="M439.1,408.7c-1.2,0-2.2-.3-3.2-.8-.9-.5-1.7-1.3-2.2-2.2-.6-.9-.8-2-.8-3.2s.2-1.8.5-2.6c.4-.8.8-1.6,1.5-2.2.6-.7,1.3-1.2,2.2-1.6.8-.4,1.7-.6,2.7-.6s2.3.3,3.3.9,1.7,1.3,2.3,2.3c.6.9.9,2,.9,3.1s-.3,2.4-.8,3.5c-.5,1.1-1.3,1.9-2.4,2.6-1,.7-2.4,1-3.9,1ZM439.7,407.6c.5,0,.9,0,1.3-.3.4-.2.7-.5.9-.9.2-.4.4-1,.5-1.7,0-.7.1-1.4.1-2.2s-.1-2-.4-2.9c-.3-.9-.7-1.5-1.2-2.1-.5-.5-1.1-.8-1.8-.8s-.7,0-1,.2c-.3.1-.6.3-.9.6-.4.4-.6,1-.7,1.7-.1.7-.2,1.6-.2,2.5s.1,1.9.4,2.8c.3.9.7,1.6,1.2,2.2.5.6,1,.8,1.7.8Z"/>
      <path class="st10" d="M453.4,408.7c-1,0-2-.3-2.8-.8s-1.5-1.3-2-2.2-.7-2-.7-3.2.3-2.5.9-3.5c.6-1,1.4-1.9,2.4-2.5,1-.6,2.1-.9,3.3-.9s2.8.5,3.8,1.4c.2.2.3.4.3.5s0,.3-.2.5c-.2.2-.4.4-.6.6-.2.2-.4.2-.6.2s-.3,0-.4-.2c-.1,0-.3-.2-.4-.3-.5-.4-1-.7-1.6-1s-1-.4-1.4-.4c-.8,0-1.5.4-1.9,1.1-.5.7-.7,1.8-.7,3.2s.2,1.8.5,2.5c.3.7.8,1.3,1.4,1.7.6.4,1.3.6,2.2.6s1.1,0,1.5-.3c.4-.2.9-.5,1.4-.9,0,0,.2-.1.2-.2s.1,0,.2,0c.2,0,.3.2.3.5s0,.2,0,.3c0,.1-.1.3-.2.5-.2.4-.6.8-1.1,1.3-.5.4-1.1.8-1.7,1.1-.6.3-1.3.4-2.1.4Z"/>
      <path class="st10" d="M463.1,408.7c-.5,0-.9-.1-1.4-.4-.4-.3-.8-.6-1-1-.3-.4-.4-.8-.4-1.3,0-.7.2-1.2.6-1.7.4-.4,1-.8,1.8-1.2l2.8-1.2c.4-.2.6-.3.7-.5,0-.1.1-.4.1-.8v-1.8c0-.6,0-1-.3-1.4-.2-.3-.6-.5-1.1-.5s-.5,0-.8.2c-.3,0-.5.2-.7.4,0,0-.1.2-.2.3,0,.1,0,.3,0,.4s0,.2,0,.4c0,.2,0,.3,0,.4s-.1.3-.5.5c-.3.2-.6.3-1,.5-.4.1-.7.2-1,.2s-.2,0-.3-.2c0,0-.1-.2-.1-.4,0-.3.1-.6.3-1s.5-.7,1-1.1c.5-.4,1-.8,1.6-1.1.6-.3,1.2-.6,1.8-.8.6-.2,1.1-.3,1.5-.3,1,0,1.7.3,2.3.9.6.6.9,1.5.8,2.5l-.2,6.4c0,.4,0,.8.3,1.1s.4.5.7.5c.4,0,.8-.1,1-.4,0,0,.1-.1.2-.1,0,0,.2,0,.3.1,0,0,.1.2.1.3,0,.2-.2.5-.5.8s-.7.6-1.2.8-.8.3-1.2.3c-1.1,0-1.9-.5-2.6-1.7h0c-.7.6-1.3,1-1.8,1.3-.5.3-1.1.4-1.8.4ZM464.7,406.9c.3,0,.5,0,.7-.1.2,0,.4-.2.5-.4,0,0,.1-.2.2-.4s0-.3.1-.6v-1.9c0-.2,0-.3,0-.4,0,0-.1-.1-.2-.1s-.1,0-.2,0c0,0-.2,0-.3.1-.7.3-1.3.6-1.6,1-.3.3-.5.8-.5,1.3s.1.9.4,1.2c.3.2.5.3.8.3Z"/>
      <path class="st10" d="M473.2,408.4c-.2,0-.3,0-.4,0-.1,0-.2-.2-.2-.3s0-.3.2-.4c.1,0,.3-.2.5-.2.3,0,.6-.2.8-.3.2-.1.4-.4.4-.8v-14.6c0-.6,0-1-.3-1.4s-.5-.6-1-.7c-.2,0-.3-.2-.3-.4s0-.4.3-.4c.5,0,1-.2,1.5-.4.5-.2,1-.4,1.5-.5.5-.2.9-.3,1.2-.4.1,0,.2,0,.3,0,.1,0,.2,0,.2.1s0,.1,0,.2c0,.2,0,.5,0,.9,0,.5,0,1.1,0,1.8v16.1c0,.4.1.7.4.8s.5.2.8.3c.2,0,.4.2.5.2s.2.2.2.4,0,.2-.2.3-.3,0-.4,0c-.4,0-.7,0-1,0-.3,0-.6,0-.9,0-.3,0-.6,0-1,0s-.7,0-.9,0c-.3,0-.6,0-.9,0s-.7,0-1,0Z"/>
      <path class="st10" d="M487.7,408.5c-.2,0-.4,0-.6-.1-.2,0-.2-.2-.2-.3s0-.3.2-.4c.1,0,.3-.2.6-.3.6-.2,1.1-.4,1.5-.7.4-.3.8-.8,1-1.4.5-1.2,1-2.3,1.4-3.4s.9-2.2,1.3-3.3.8-2.2,1.3-3.3c.4-1.1.9-2.3,1.3-3.5.2-.6.4-1.1.5-1.4,0-.3.1-.6.2-.8.3,0,.6-.2.8-.2.3,0,.5-.2.9-.3.3-.1.5-.3.7-.5.2-.2.3-.4.5-.5,0,0,.1,0,.2,0,0,0,.1,0,.2.1,0,.1.1.2.1.4s0,.2.1.4c.4,1.4.9,2.9,1.4,4.3.5,1.5.9,2.9,1.4,4.3.5,1.4.9,2.8,1.3,4s.8,2.5,1.2,3.6c.2.5.4,1,.7,1.3.3.3.6.6.9.7.3.2.7.3,1.1.4.3,0,.5.1.6.2.1.1.2.2.2.4s0,.2-.2.3c-.1,0-.3,0-.5,0-.4,0-.8,0-1.4,0-.6,0-1.1,0-1.7,0-.6,0-1.1,0-1.6,0s-.8,0-1.3,0c-.5,0-1,0-1.5,0-.5,0-.9,0-1.2,0s-.4,0-.5-.1c-.2,0-.2-.2-.2-.3s0-.3.2-.4c.2-.1.3-.2.6-.2.7-.1,1.2-.3,1.6-.6.3-.2.4-.6.4-1.1,0-.3-.1-.7-.3-1.2-.1-.5-.2-1-.4-1.5-.1-.5-.3-1-.4-1.4,0-.2-.1-.3-.2-.3,0,0-.2-.1-.5-.1h-5.4c-.1,0-.2,0-.3.1s-.1.2-.2.4c0,.3-.2.6-.3.9-.1.3-.2.7-.3,1-.1.4-.2.7-.3,1s-.2.6-.2.8c0,.5,0,1,.3,1.3.3.3.8.6,1.5.7.5.1.8.3.8.6s0,.2-.2.3c-.1,0-.3.1-.6.1-.5,0-.9,0-1.4,0s-1,0-1.6,0-1.2,0-1.8,0c-.6,0-1.1,0-1.7,0ZM494.8,399.8h4.2c.3,0,.4,0,.4-.2s0-.1,0-.1c0,0,0-.1,0-.2l-2.1-6.9c0-.3-.2-.4-.2-.4s-.1.1-.2.4l-2.5,7c0,.1,0,.2,0,.2,0,.1,0,.2.2.2.1,0,.2,0,.4,0Z"/>
      <path class="st10" d="M509.6,408.4c-.2,0-.3,0-.4-.1-.1,0-.2-.2-.2-.3s0-.3.2-.4.3-.2.5-.2c.4-.1.7-.3.9-.4.2-.2.3-.4.3-.7v-6.8c0-.5,0-.8-.2-1.2-.1-.3-.4-.5-.8-.6,0,0-.2,0-.2-.2,0,0-.1-.2-.1-.3,0-.3.1-.4.3-.5.6-.2,1.2-.4,2-.6.7-.3,1.3-.5,1.8-.8.1,0,.2-.1.3-.2.1,0,.2,0,.3,0,.2,0,.2.1.2.3s0,.3,0,.5c0,.3,0,.6,0,.9s0,.6,0,.9c0,.1,0,.2,0,.2.3-.4.7-.8,1.1-1.2.4-.4.8-.7,1.3-.9s.9-.4,1.4-.4,1,.1,1.3.4.4.5.4.9,0,.6-.2.9c-.2.3-.3.6-.6.8-.2.2-.5.3-.8.3s-.3,0-.5-.1c-.2,0-.4-.2-.5-.3-.2,0-.4-.2-.6-.2-.2,0-.4-.1-.5-.1-.5,0-1,.2-1.3.6-.4.4-.6,1.1-.6,2.2v5.3c0,.4.1.6.4.8.3.2.7.4,1.2.5.2,0,.4.1.5.2.1,0,.2.2.2.3,0,.3-.2.4-.5.4-.6,0-1.2,0-1.7,0-.5,0-1.1,0-1.6,0s-.7,0-1,0c-.3,0-.6,0-.9,0-.3,0-.7,0-1.1,0Z"/>
      <path class="st10" d="M526.3,408.7c-1.1,0-2.1-.3-2.9-.8s-1.5-1.3-2-2.3c-.5-1-.7-2.1-.7-3.4s.3-2.3.9-3.3c.6-1,1.3-1.8,2.3-2.4,1-.6,2-.9,3.1-.9s1.6.2,2.2.5,1.2.8,1.6,1.4c.4.6.6,1.3.6,2.1s-.3,1.1-.9,1.1h-6.1c-.3,0-.5,0-.6.2-.1.1-.2.4-.2.8,0,.8.2,1.6.6,2.3.4.7.9,1.2,1.5,1.6.6.4,1.3.6,2.1.6s1.1-.1,1.6-.3c.5-.2,1-.5,1.4-.9,0,0,.2-.1.2-.2,0,0,.1,0,.2,0,.2,0,.3.1.3.4s-.1.6-.4,1c-.2.5-.6.9-1,1.3s-1,.8-1.6,1c-.6.2-1.3.4-2.1.4ZM524.3,399.5h2.1c.5,0,.9,0,1.2,0,.3,0,.5,0,.8-.1,0,0,.2-.1.2-.3,0-.2,0-.3,0-.5,0-.5-.2-1-.6-1.4-.4-.4-.9-.6-1.5-.6s-.8.1-1.2.4c-.4.2-.7.6-1,.9-.3.4-.4.8-.4,1.2,0,.2.1.4.4.4Z"/>
      <path class="st10" d="M535.9,408.7c-.5,0-.9-.1-1.4-.4-.4-.3-.8-.6-1-1s-.4-.8-.4-1.3c0-.7.2-1.2.6-1.7.4-.4,1-.8,1.8-1.2l2.8-1.2c.4-.2.6-.3.7-.5s.1-.4.1-.8v-1.8c0-.6,0-1-.3-1.4-.3-.3-.6-.5-1.1-.5s-.5,0-.8.2c-.3,0-.5.2-.7.4s-.1.2-.2.3c0,.1,0,.3,0,.4s0,.2,0,.4c0,.2,0,.3,0,.4s-.2.3-.5.5-.6.3-1,.5c-.4.1-.7.2-1,.2s-.3,0-.3-.2c0,0-.1-.2-.1-.4,0-.3.1-.6.3-1,.2-.3.5-.7,1-1.1.5-.4,1-.8,1.6-1.1.6-.3,1.2-.6,1.8-.8.6-.2,1.1-.3,1.5-.3,1,0,1.7.3,2.3.9s.9,1.5.8,2.5l-.2,6.4c0,.4,0,.8.3,1.1.2.3.4.5.7.5.4,0,.8-.1,1-.4,0,0,.2-.1.2-.1,0,0,.2,0,.3.1,0,0,.1.2.1.3,0,.2-.2.5-.5.8s-.7.6-1.2.8c-.4.2-.8.3-1.2.3-1.1,0-1.9-.5-2.6-1.7h0c-.7.6-1.3,1-1.8,1.3-.5.3-1.1.4-1.8.4ZM537.5,406.9c.3,0,.5,0,.7-.1.2,0,.4-.2.5-.4,0,0,.1-.2.2-.4,0-.1,0-.3.1-.6v-1.9c0-.2,0-.3,0-.4,0,0-.1-.1-.2-.1s0,0-.2,0c0,0-.2,0-.3.1-.7.3-1.3.6-1.6,1s-.5.8-.5,1.3.1.9.4,1.2c.3.2.5.3.8.3Z"/>
    </g>
    <circle class="st8" cx="150" cy="399.4" r="160"/>
    <g class="st7">
      <path class="st10" d="M133.9,373c-.9,0-1.6-.2-2.3-.6-.6-.4-1.2-1-1.6-1.6-.4-.7-.8-1.4-1-2.3-.2-.8-.3-1.6-.3-2.4s.1-1.7.3-2.5.5-1.6,1-2.3,1-1.3,1.7-1.7,1.5-.6,2.4-.6,1.6.2,2.3.6c.7.4,1.2,1,1.6,1.6.4.7.7,1.4.9,2.2.2.8.3,1.6.3,2.4s-.1,1.7-.3,2.5-.5,1.6-1,2.4c-.4.7-1,1.3-1.7,1.7-.7.4-1.5.7-2.5.7ZM134.2,372c.5,0,.8-.3,1.1-.8.3-.5.5-1.3.6-2.2.1-.9.2-1.9.2-2.9s0-1.5-.2-2.3c-.1-.7-.3-1.4-.5-2-.2-.6-.5-1.1-.7-1.5-.3-.4-.6-.5-1-.5s-.8.3-1.1.8c-.3.5-.5,1.3-.6,2.2-.1.9-.2,1.9-.2,2.9s0,1.5.1,2.3.2,1.4.4,2c.2.6.4,1.1.7,1.5.3.4.6.5,1,.5Z"/>
      <path class="st10" d="M151.9,372.8c0,0-.3,0-.6,0-.3,0-.7,0-1.2,0s-.9,0-1.4,0-.9,0-1.3,0-.7,0-1.1,0c-.4,0-.8,0-1.1,0-.4,0-.7,0-.9,0-.2,0-.4,0-.4,0s-.1,0-.3-.1-.2-.2-.2-.3,0-.2,0-.3.1-.1.2-.2l3.2-3.6c.8-.9,1.4-1.7,1.7-2.6.4-.9.6-1.8.6-2.8s-.2-1.1-.5-1.6-.8-.6-1.3-.6-1,.1-1.5.4c-.5.3-.8.6-1.2.9,0,0-.2.2-.3.3s-.3.2-.4.2-.2,0-.2-.1c0,0,0-.2,0-.4,0-.2.1-.6.4-.9s.6-.7,1-1.1.9-.7,1.5-.9c.6-.2,1.2-.4,1.8-.4s1.4.2,1.9.5c.5.3.9.8,1.2,1.3s.4,1.2.4,1.8,0,.9-.3,1.4c-.2.5-.4,1-.7,1.4-.3.4-.5.8-.8,1.2-.2.2-.5.5-.8.9s-.7.7-1,1c-.4.3-.7.7-1,.9-.3.3-.6.5-.8.7-.2.2-.3.3-.3.3,0,0,.1.1.3.1.3,0,.6,0,1,0,.4,0,.7,0,1,0s.7,0,1,0c.3,0,.6,0,1,0s.6,0,.8-.2c.2,0,.5-.2.6-.4.2-.2.3-.4.5-.7,0-.1.1-.2.2-.3s.2-.2.4-.2.2,0,.2.1,0,.2,0,.3c-.1.4-.3.8-.4,1.2-.1.4-.3.9-.4,1.2s-.2.6-.2.8c0,.2,0,.3-.2.4-.1,0-.2.1-.2.1Z"/>
      <path class="st10" d="M79.2,408.5c-.2,0-.4,0-.6-.1-.2,0-.2-.2-.2-.3s0-.3.2-.4c.1,0,.3-.2.6-.3.6-.2,1.1-.4,1.5-.7.4-.3.8-.8,1-1.4.5-1.2,1-2.3,1.4-3.4.5-1.1.9-2.2,1.3-3.3s.8-2.2,1.3-3.3.9-2.3,1.3-3.5c.2-.6.4-1.1.4-1.4,0-.3.2-.6.2-.8.3,0,.6-.2.8-.2.3,0,.5-.2.9-.3.3-.1.5-.3.7-.5.2-.2.3-.4.5-.5,0,0,.1,0,.2,0,0,0,.1,0,.2.1,0,.1.1.2.1.4s0,.2.1.4c.4,1.4.9,2.9,1.4,4.3.5,1.5.9,2.9,1.4,4.3.5,1.4.9,2.8,1.3,4,.4,1.3.8,2.5,1.2,3.6.2.5.4,1,.7,1.3.3.3.6.6.9.7s.7.3,1.1.4c.3,0,.5.1.6.2.1.1.2.2.2.4s0,.2-.2.3c-.1,0-.3,0-.5,0-.4,0-.8,0-1.4,0-.6,0-1.1,0-1.7,0-.6,0-1.1,0-1.6,0s-.8,0-1.3,0c-.5,0-1,0-1.5,0-.5,0-.9,0-1.2,0s-.4,0-.5-.1c-.1,0-.2-.2-.2-.3s0-.3.2-.4c.2-.1.3-.2.6-.2.7-.1,1.2-.3,1.6-.6.3-.2.4-.6.4-1.1,0-.3-.1-.7-.3-1.2-.1-.5-.2-1-.4-1.5-.1-.5-.3-1-.4-1.4,0-.2-.1-.3-.2-.3,0,0-.2-.1-.4-.1h-5.4c-.1,0-.2,0-.3.1,0,0-.1.2-.2.4,0,.3-.2.6-.3.9s-.2.7-.3,1c-.1.4-.2.7-.3,1s-.2.6-.2.8c-.1.5,0,1,.3,1.3.3.3.8.6,1.5.7.5.1.8.3.8.6s0,.2-.2.3c-.1,0-.3.1-.6.1-.5,0-.9,0-1.4,0-.5,0-1.1,0-1.6,0s-1.2,0-1.8,0c-.6,0-1.1,0-1.7,0ZM86.4,399.8h4.2c.3,0,.4,0,.4-.2s0-.1,0-.1c0,0,0-.1,0-.2l-2.1-6.9c0-.3-.1-.4-.2-.4s-.1.1-.2.4l-2.5,7c0,.1,0,.2,0,.2,0,.1,0,.2.2.2.1,0,.2,0,.4,0Z"/>
      <path class="st10" d="M110.4,408.9c-.2,0-.2,0-.2-.3s0-.5,0-.9c0-.4,0-.7,0-1s0-.1,0-.2c0,0,0,0,0-.1-.6.7-1.3,1.2-2.2,1.6-.8.4-1.7.6-2.6.6s-1.2-.2-1.7-.5c-.5-.3-.9-.8-1.2-1.4-.3-.6-.4-1.3-.4-2.1v-5.8c0-.5,0-.8-.3-1.1-.2-.3-.5-.5-1-.6-.1,0-.2,0-.3-.2,0,0-.1-.2-.1-.4s0-.3.1-.4c0,0,.2-.1.3-.2.8,0,1.5-.1,2.1-.2.6-.1,1.2-.2,1.9-.4,0,0,.2,0,.2,0,0,0,.2,0,.2,0,.3,0,.4.1.4.4,0,.5-.1.8-.1,1.2,0,.3,0,.7,0,1.2v5.8c0,.5,0,.9.3,1.3.2.4.4.7.8.9.3.2.7.3,1,.4.4,0,.7,0,1.1-.1.3,0,.7-.3,1-.5.2-.1.3-.3.5-.7.2-.3.3-.8.3-1.3v-5c0-.4,0-.7-.3-.9s-.4-.4-.7-.5-.5-.2-.8-.2c-.2,0-.4,0-.5-.2-.1,0-.2-.2-.2-.5s0-.3.2-.4c.1,0,.3-.1.5-.1.9,0,1.6-.1,2.1-.2s1,0,1.4-.1c.4,0,.7-.1,1.1-.2,0,0,.1,0,.2,0s.1,0,.2,0c.3,0,.4.1.4.3s0,.1,0,.2c0,0,0,.1,0,.2,0,0,0,.2,0,.5,0,.3,0,.6,0,.9,0,.3,0,.5,0,.7v7c0,.5,0,.8.2,1,.1.2.2.3.4.3s.3,0,.5,0,.4,0,.5,0c.2,0,.3,0,.4.1,0,0,.1.2.1.4s0,.3-.1.4c0,0-.2.1-.4.2-.9,0-1.7.2-2.4.5-.7.2-1.3.5-1.8.7-.1,0-.2,0-.4.1-.1,0-.2,0-.3,0Z"/>
      <path class="st10" d="M122.4,408.7c-1.2,0-2.1-.3-2.7-1-.6-.6-.9-1.6-.9-2.8v-6.9c0-.2,0-.3-.2-.4-.1,0-.4-.1-.8-.2h-.3c-.1,0-.2,0-.3-.3,0-.2-.1-.4-.1-.6s0,0,0-.2c0,0,0-.1.1-.1.5-.2.9-.5,1.4-.8.5-.3.9-.7,1.3-1.1s.8-.7,1.1-.9c.1-.1.3-.2.3-.3,0,0,.2-.1.3-.1s.3,0,.4.1c0,0,.1.2,0,.4l-.2,1.7c0,.2,0,.4.2.5.1,0,.3.1.6.1h3.5c0,0,.1,0,.2.2,0,.1,0,.3,0,.4,0,.3,0,.5-.1.7,0,.2-.2.3-.3.3h-2.9c-.5,0-.8,0-.9.1-.2.1-.3.3-.3.6v5.8c0,.9.2,1.5.5,2,.3.4.8.7,1.4.7s1,0,1.3-.2c.3,0,.6-.2.8-.4,0,0,.1,0,.1,0,.1,0,.2,0,.2.2,0,.1,0,.3,0,.4s-.2.3-.6.6c-.4.3-.9.6-1.5.9-.6.3-1.3.4-2,.4Z"/>
      <path class="st10" d="M127.9,408.4c-.4,0-.6-.1-.6-.4s.2-.4.7-.6c.3,0,.6-.2.8-.3s.4-.4.4-.8v-14.6c0-.5,0-1-.2-1.4-.1-.4-.5-.6-1-.8-.2,0-.3-.2-.3-.4s0-.4.3-.4c.4,0,.9-.2,1.4-.4.5-.2,1-.3,1.6-.5.5-.2.9-.3,1.2-.4.1,0,.2,0,.3,0,.1,0,.2,0,.2,0,0,0,0,.1,0,.2,0,.1,0,.3,0,.5s0,.5-.1.8c0,.3,0,.8,0,1.4v6.4c0,.2,0,.4,0,.6,0,.2,0,.3.2.3.3-.2.7-.5,1.1-.8.4-.3.9-.6,1.5-.8.6-.2,1.2-.3,1.8-.3,1,0,1.9.4,2.6,1.1.7.8,1,1.8,1,3.1v6.5c0,.4.1.7.4.9s.5.3.8.4c.2,0,.4.2.5.2.1,0,.2.2.2.3,0,.3-.2.4-.6.4s-.8,0-1.1,0c-.3,0-.5,0-.8,0-.2,0-.6,0-1,0s-.7,0-.9,0c-.2,0-.5,0-.7,0-.2,0-.6,0-1.1,0s-.7-.1-.7-.4,0-.2.2-.3.3-.2.5-.2c.3,0,.5-.2.8-.4.2-.2.3-.5.3-.9v-6c0-.5-.1-.9-.3-1.2-.2-.4-.5-.7-.8-.9-.3-.2-.7-.3-1.1-.3s-.7,0-1.1.1c-.4.1-.8.3-1.1.5-.2.2-.4.3-.4.5,0,.2-.1.5-.1.9v6.4c0,.4.1.7.3.8.2.1.4.3.7.4.2,0,.4.1.5.2.1,0,.2.2.2.3,0,.3-.2.4-.5.4s-.8,0-1.1,0c-.3,0-.6,0-.9,0-.3,0-.6,0-.9,0s-.7,0-.9,0c-.3,0-.6,0-.9,0s-.7,0-1.1,0Z"/>
      <path class="st10" d="M149.5,408.7c-1.1,0-2.1-.3-2.9-.8s-1.5-1.3-2-2.3c-.5-1-.7-2.1-.7-3.4s.3-2.3.9-3.3c.6-1,1.3-1.8,2.3-2.4,1-.6,2-.9,3.1-.9s1.6.2,2.2.5,1.2.8,1.6,1.4c.4.6.6,1.3.6,2.1s-.3,1.1-.9,1.1h-6.1c-.3,0-.5,0-.6.2-.1.1-.2.4-.2.8,0,.8.2,1.6.6,2.3.4.7.9,1.2,1.5,1.6.6.4,1.3.6,2.1.6s1.1-.1,1.6-.3c.5-.2,1-.5,1.4-.9,0,0,.2-.1.2-.2,0,0,.1,0,.2,0,.2,0,.3.1.3.4s-.1.6-.4,1c-.2.5-.6.9-1,1.3s-1,.8-1.6,1c-.6.2-1.3.4-2.1.4ZM147.6,399.5h2.1c.5,0,.9,0,1.2,0,.3,0,.5,0,.8-.1,0,0,.2-.1.2-.3,0-.2,0-.3,0-.5,0-.5-.2-1-.6-1.4-.4-.4-.9-.6-1.5-.6s-.8.1-1.2.4c-.4.2-.7.6-1,.9-.3.4-.4.8-.4,1.2,0,.2.1.4.4.4Z"/>
      <path class="st10" d="M156.6,408.4c-.2,0-.3,0-.4-.1-.1,0-.2-.2-.2-.3s0-.3.2-.4c.1,0,.3-.2.5-.2.3,0,.6-.2.8-.3s.4-.4.4-.8v-6.7c0-.5,0-.9-.2-1.2-.1-.3-.4-.5-.8-.6,0,0-.2,0-.2-.2,0,0,0-.2,0-.3,0-.3,0-.4.3-.5.7-.2,1.4-.4,2.1-.6.7-.3,1.3-.6,1.8-.9,0,0,.2,0,.2-.1,0,0,.2,0,.2,0s.2,0,.2.1c0,0,0,.1,0,.2,0,.1,0,.4,0,.8s0,.7,0,1,0,.2,0,.3c0,0,0,.1,0,.2.7-.6,1.4-1.1,2.1-1.5.7-.4,1.6-.5,2.5-.5s1.9.4,2.6,1.2c.7.8,1,1.8,1,3.1v6.5c0,.4.1.7.4.8s.5.2.8.3c.2,0,.3.1.5.2s.2.2.2.4,0,.2-.2.3c-.1,0-.3,0-.4,0-.4,0-.8,0-1.1,0-.3,0-.6,0-.9,0-.3,0-.6,0-1,0s-.7,0-1,0c-.3,0-.6,0-.9,0-.3,0-.7,0-1.1,0s-.2,0-.3,0c-.1,0-.2-.2-.2-.3s0-.3.2-.4.3-.2.4-.2c.3,0,.6-.2.8-.3.2-.1.3-.4.3-.8v-6.1c0-.8-.2-1.4-.6-1.9-.4-.5-.9-.7-1.6-.7s-1,0-1.4.2c-.4.2-.8.4-1.2.7,0,0-.1.1-.2.3,0,.1,0,.2,0,.3v7.1c0,.4.1.7.3.8.2.1.5.2.8.3.4.1.6.3.6.6s0,.2-.2.3c-.1,0-.2.1-.4.1-.4,0-.8,0-1.1,0-.3,0-.6,0-.9,0-.3,0-.6,0-1,0s-.7,0-1,0c-.3,0-.6,0-.9,0s-.7,0-1.1,0Z"/>
      <path class="st10" d="M178.2,408.7c-1.2,0-2.1-.3-2.7-1s-.9-1.6-.9-2.8v-6.9c0-.2,0-.3-.2-.4s-.4-.1-.8-.2h-.3c-.1,0-.2,0-.3-.3,0-.2-.1-.4-.1-.6s0,0,0-.2c0,0,0-.1.1-.1.5-.2.9-.5,1.4-.8.5-.3.9-.7,1.3-1.1s.8-.7,1-.9c.1-.1.3-.2.3-.3,0,0,.2-.1.3-.1s.3,0,.4.1.1.2,0,.4l-.2,1.7c0,.2,0,.4.2.5.1,0,.3.1.6.1h3.5c0,0,.1,0,.2.2,0,.1,0,.3,0,.4,0,.3,0,.5-.1.7,0,.2-.2.3-.3.3h-2.9c-.5,0-.8,0-.9.1-.2.1-.3.3-.3.6v5.8c0,.9.2,1.5.5,2,.3.4.8.7,1.4.7s1,0,1.3-.2c.3,0,.6-.2.8-.4,0,0,.1,0,.2,0,0,0,.2,0,.2.2,0,.1,0,.3,0,.4s-.2.3-.6.6c-.4.3-.9.6-1.5.9-.6.3-1.3.4-2,.4Z"/>
      <path class="st10" d="M183.8,408.4c-.2,0-.3,0-.4-.1,0,0-.1-.2-.1-.3s0-.3.2-.4.3-.1.4-.2c.5-.1.8-.2,1-.4.2-.1.3-.4.3-.7v-6.5c0-.6-.1-1.1-.3-1.4-.2-.3-.5-.5-1-.6-.1,0-.2,0-.2-.2,0,0,0-.2,0-.3,0-.3.1-.4.3-.5,1-.2,1.8-.5,2.5-.8s1.3-.6,1.6-.8c.3-.1.5-.2.5-.2.2,0,.3.1.3.3,0,.3,0,.7-.1,1.2,0,.5-.1,1-.2,1.6,0,.6,0,1.1,0,1.5v6.8c0,.3.1.5.3.7.2.2.6.3,1.1.5.2,0,.3.1.4.2.1,0,.2.2.2.3,0,.2-.2.4-.5.4s-.7,0-1.1,0c-.4,0-.7,0-1,0-.3,0-.7,0-1,0s-.7,0-1,0c-.3,0-.6,0-1,0s-.7,0-1.1,0ZM186.8,393.3c-.6,0-1.1-.2-1.5-.6-.4-.4-.6-.9-.6-1.4s.2-1.1.6-1.5.9-.6,1.5-.6,1.1.2,1.5.6c.4.4.6.9.6,1.5s-.2,1-.6,1.4c-.4.4-.9.6-1.5.6Z"/>
      <path class="st10" d="M197.3,408.7c-1,0-2-.3-2.8-.8s-1.5-1.3-2-2.2-.7-2-.7-3.2.3-2.5.9-3.5c.6-1,1.4-1.9,2.4-2.5,1-.6,2.1-.9,3.3-.9s2.8.5,3.8,1.4c.2.2.3.4.3.5s0,.3-.2.5c-.2.2-.3.4-.6.6-.2.2-.4.2-.6.2s-.3,0-.5-.2c-.1,0-.3-.2-.4-.3-.5-.4-1-.7-1.6-1s-1-.4-1.4-.4c-.8,0-1.5.4-1.9,1.1-.5.7-.7,1.8-.7,3.2s.2,1.8.5,2.5c.3.7.8,1.3,1.4,1.7.6.4,1.3.6,2.2.6s1.1,0,1.5-.3c.4-.2.9-.5,1.4-.9,0,0,.2-.1.2-.2,0,0,.1,0,.2,0,.2,0,.3.2.3.5s0,.2,0,.3c0,.1-.1.3-.2.5-.2.4-.6.8-1.1,1.3-.5.4-1.1.8-1.7,1.1-.6.3-1.4.4-2.1.4Z"/>
      <path class="st10" d="M107.8,440.3c-2.5,0-3.8-.6-3.8-1.7s.2-.7.5-1.1c.3-.4.6-.5.9-.5s.5,0,.7.2c.2.1.4.3.6.6.3.4.6.7.8.9.2.2.4.3.7.3.6,0,1.1-.4,1.4-1.2.3-.8.5-2,.5-3.7v-16.4c0-.7-.1-1.1-.4-1.4-.3-.3-.8-.5-1.6-.7-.5,0-.8-.3-.8-.6s0-.2.2-.3c.1,0,.3-.1.5-.1.5,0,1,0,1.4,0,.5,0,.9,0,1.3,0,.4,0,.9,0,1.3,0s.8,0,1.2,0c.4,0,.8,0,1.3,0,.4,0,.9,0,1.4,0s.4,0,.5.1c.1,0,.2.2.2.3s0,.3-.2.4c-.1,0-.3.2-.6.2-.8.2-1.3.4-1.5.7-.2.3-.3.7-.3,1.4v14.3c0,.6-.1,1.3-.3,2-.2.7-.5,1.4-.9,2-.4.7-.8,1.2-1.2,1.8-.5.7-1.1,1.3-1.8,1.7-.6.5-1.3.7-2,.7Z"/>
      <path class="st10" d="M120.9,434.7c-.5,0-.9-.1-1.4-.4-.4-.3-.8-.6-1-1-.3-.4-.4-.8-.4-1.3,0-.7.2-1.2.6-1.7.4-.4,1-.8,1.8-1.2l2.8-1.2c.4-.2.6-.3.7-.5,0-.1.1-.4.1-.8v-1.8c0-.6,0-1-.3-1.4-.2-.3-.6-.5-1.1-.5s-.5,0-.8.2c-.3,0-.5.2-.7.4,0,0-.1.2-.2.3,0,.1,0,.3,0,.4s0,.2,0,.4c0,.2,0,.3,0,.4s-.1.3-.5.5c-.3.2-.6.3-1,.5-.4.1-.7.2-1,.2s-.2,0-.3-.2c0,0-.1-.2-.1-.4,0-.3.1-.6.3-1s.5-.7,1-1.1c.5-.4,1.1-.8,1.6-1.1.6-.3,1.2-.6,1.8-.8.6-.2,1.1-.3,1.5-.3,1,0,1.7.3,2.3.9.6.6.9,1.5.8,2.5v6.4c-.2.4,0,.8.1,1.1.2.3.4.5.7.5.4,0,.8-.1,1-.4,0,0,.1-.1.2-.1.1,0,.2,0,.3.1,0,0,.1.2.1.3,0,.2-.2.5-.5.8-.4.4-.7.6-1.2.8-.4.2-.8.3-1.2.3-1.1,0-1.9-.5-2.6-1.7h0c-.7.6-1.3,1-1.8,1.3-.6.3-1.1.4-1.8.4ZM122.5,432.9c.3,0,.5,0,.7-.1.2,0,.4-.2.5-.4,0,0,.1-.2.2-.4,0-.1,0-.3.1-.6v-1.9c0-.2,0-.3,0-.4s-.1-.1-.2-.1-.1,0-.2,0c0,0-.2,0-.3.1-.7.3-1.3.6-1.6,1-.3.3-.5.8-.5,1.3s.1.9.4,1.2c.3.2.5.3.8.3Z"/>
      <path class="st10" d="M131,442.4c-.1,0-.2,0-.4,0-.1,0-.2-.2-.2-.3s0-.3.2-.4c.1,0,.3-.1.5-.2.4-.1.7-.3.9-.4.2-.1.3-.4.3-.7v-14.7c0-.2,0-.4-.1-.7-.1-.3-.2-.5-.4-.8-.2-.2-.4-.4-.7-.4-.1,0-.2,0-.2-.2,0,0,0-.2,0-.3s0-.2,0-.3c0,0,.1-.1.2-.1.7-.2,1.4-.4,2.2-.6.7-.2,1.3-.5,1.9-.7,0,0,.1,0,.2-.1s.1,0,.2,0c0,0,.2,0,.2.1s0,.2,0,.3c0,.2,0,.4,0,.8,0,.4,0,.7,0,.9s0,.3,0,.3c.2-.2.6-.5,1.1-.8.5-.3,1.1-.6,1.8-.9.7-.3,1.3-.4,1.9-.4,1.1,0,2,.3,2.7.9.8.6,1.3,1.3,1.7,2.2.4.9.6,1.8.6,2.8s-.2,1.8-.5,2.7-.8,1.7-1.5,2.4c-.6.7-1.4,1.3-2.2,1.7s-1.7.6-2.7.6-.5,0-.9-.1-.7-.2-1-.3c-.3-.1-.6-.2-.9-.4,0,0,0,0,0,.2s0,.2,0,.4c0,.1,0,.2,0,.3v5.2c0,.3,0,.5.2.6s.4.3.6.4c.2,0,.5.2.8.3.2,0,.4.1.5.2.1,0,.2.2.2.4s0,.2-.2.3c-.1,0-.2.1-.4.1-.6,0-1.2,0-1.8,0s-1.1,0-1.6,0-.7,0-1,0c-.3,0-.6,0-.9,0-.3,0-.7,0-1.1,0ZM138.5,433.6c.2,0,.5,0,.9-.3s.7-.4,1.1-.8.6-.9.9-1.6c.2-.7.3-1.5.3-2.4s-.1-2-.4-2.7c-.2-.7-.5-1.2-.9-1.5s-.7-.6-1.1-.7c-.4-.1-.7-.2-1-.2-.4,0-.8,0-1.2.3-.4.2-.8.4-1.1.6-.3.2-.4.4-.4.6v1.1c0,.4,0,.9,0,1.4s0,1,0,1.4,0,.7,0,.9c0,.6.1,1.2.4,1.8.3.6.6,1.1,1,1.5.4.4.9.6,1.5.6Z"/>
      <path class="st10" d="M149.8,434.7c-.5,0-.9-.1-1.4-.4-.4-.3-.8-.6-1-1s-.4-.8-.4-1.3c0-.7.2-1.2.6-1.7.4-.4,1-.8,1.8-1.2l2.8-1.2c.4-.2.6-.3.7-.5s.1-.4.1-.8v-1.8c0-.6,0-1-.3-1.4-.3-.3-.6-.5-1.1-.5s-.5,0-.8.2c-.3,0-.5.2-.7.4s-.1.2-.2.3c0,.1,0,.3,0,.4s0,.2,0,.4c0,.2,0,.3,0,.4s-.2.3-.5.5-.6.3-1,.5c-.4.1-.7.2-1,.2s-.3,0-.3-.2c0,0-.1-.2-.1-.4,0-.3.1-.6.3-1,.2-.3.5-.7,1-1.1.5-.4,1-.8,1.6-1.1.6-.3,1.2-.6,1.8-.8.6-.2,1.1-.3,1.5-.3,1,0,1.7.3,2.3.9s.9,1.5.8,2.5l-.2,6.4c0,.4,0,.8.3,1.1.2.3.4.5.7.5.4,0,.8-.1,1-.4,0,0,.2-.1.2-.1,0,0,.2,0,.3.1,0,0,.1.2.1.3,0,.2-.2.5-.5.8s-.7.6-1.2.8c-.4.2-.8.3-1.2.3-1.1,0-1.9-.5-2.6-1.7h0c-.7.6-1.3,1-1.8,1.3-.5.3-1.1.4-1.8.4ZM151.5,432.9c.3,0,.5,0,.7-.1.2,0,.4-.2.5-.4,0,0,.1-.2.2-.4,0-.1,0-.3.1-.6v-1.9c0-.2,0-.3,0-.4,0,0-.1-.1-.2-.1s0,0-.2,0c0,0-.2,0-.3.1-.7.3-1.3.6-1.6,1s-.5.8-.5,1.3.1.9.4,1.2c.3.2.5.3.8.3Z"/>
      <path class="st10" d="M160.1,434.4c-.2,0-.3,0-.4-.1-.1,0-.2-.2-.2-.3s0-.3.2-.4c.1,0,.3-.2.5-.2.3,0,.6-.2.8-.3s.4-.4.4-.8v-6.7c0-.5,0-.9-.2-1.2-.1-.3-.4-.5-.8-.6,0,0-.2,0-.2-.2,0,0,0-.2,0-.3,0-.3,0-.4.3-.5.7-.2,1.4-.4,2.1-.6.7-.3,1.3-.6,1.8-.9,0,0,.2,0,.2-.1,0,0,.2,0,.2,0s.2,0,.2.1c0,0,0,.1,0,.2,0,.1,0,.4,0,.8s0,.7,0,1,0,.2,0,.3c0,0,0,.1,0,.2.7-.6,1.4-1.1,2.1-1.5.7-.4,1.6-.5,2.5-.5s1.9.4,2.6,1.2c.7.8,1,1.8,1,3.1v6.5c0,.4.1.7.4.8s.5.2.8.3c.2,0,.3.1.5.2s.2.2.2.4,0,.2-.2.3c-.1,0-.3,0-.4,0-.4,0-.8,0-1.1,0-.3,0-.6,0-.9,0-.3,0-.6,0-1,0s-.7,0-1,0c-.3,0-.6,0-.9,0-.3,0-.7,0-1.1,0s-.2,0-.3,0c-.1,0-.2-.2-.2-.3s0-.3.2-.4.3-.2.4-.2c.3,0,.6-.2.8-.3.2-.1.3-.4.3-.8v-6.1c0-.8-.2-1.4-.6-1.9-.4-.5-.9-.7-1.6-.7s-1,0-1.4.2c-.4.2-.8.4-1.2.7,0,0-.1.1-.2.3,0,.1,0,.2,0,.3v7.1c0,.4.1.7.3.8.2.1.5.2.8.3.4.1.6.3.6.6s0,.2-.2.3c-.1,0-.2.1-.4.1-.4,0-.8,0-1.1,0-.3,0-.6,0-.9,0-.3,0-.6,0-1,0s-.7,0-1,0c-.3,0-.6,0-.9,0s-.7,0-1.1,0Z"/>
      <path class="st10" d="M99.3,465.8c-.2,0-.6-.2-1.2-.5-.6-.3-1.1-.8-1.7-1.6-.3-.4-.8-.8-1.2-1.4-.5-.5-1-1.2-1.6-1.8-.6-.7-1.2-1.3-1.8-2.1-.6-.7-1.3-1.4-1.9-2.2s-1.2-1.4-1.8-2.1c-.6-.7-1.2-1.3-1.7-1.8s-.9-1-1.3-1.4c0,0-.2-.2-.3-.3,0,0-.2-.1-.2-.1s-.1,0-.2.2,0,.3,0,.4c0,.9,0,2,0,3.3,0,1.3,0,2.5,0,3.8v3.6c0,.6.2,1.1.5,1.5.4.4.9.7,1.7.9.2,0,.4.1.6.2.2,0,.3.2.3.4s0,.2-.2.3c-.2,0-.3,0-.5,0-.5,0-1,0-1.3,0s-.6,0-.9,0c-.3,0-.6,0-1,0s-.8,0-1.1,0-.6,0-.9,0c-.3,0-.5,0-.8,0s-.4,0-.5-.1c-.2,0-.2-.2-.2-.3s0-.3.2-.4.4-.2.6-.3c.5-.2.9-.5,1.2-.9.2-.4.4-.9.5-1.5,0-.8.2-1.8.2-3,0-1.2.2-2.6.2-4.2,0-1.5.1-3.1.1-4.8s-.3-1.8-.8-2.2-1.2-.8-2-1.1c-.1,0-.3-.1-.5-.2-.2-.1-.3-.3-.3-.5s0-.3.2-.4c.2,0,.3,0,.5,0,.4,0,.8,0,1.3,0s.8,0,1.3,0c.4,0,.9,0,1.3,0,.5,0,1,0,1.5,0s.3,0,.4.1c0,0,.2.2.3.3.3.4.7.9,1.2,1.4.5.6,1,1.2,1.6,1.9.6.7,1.2,1.4,1.9,2.2.6.8,1.3,1.5,1.9,2.3.6.8,1.3,1.5,1.9,2.2.6.7,1.1,1.3,1.6,1.9.5.6.9,1,1.2,1.4,0,0,.2.2.3.3.1.1.2.2.3.2.2,0,.2-.2.3-.5v-2c0-.8,0-1.7,0-2.7,0-1,0-2,0-3,0-1,0-2,0-3,0-.5-.2-.9-.6-1.2-.4-.3-.9-.5-1.5-.6-.2,0-.5-.1-.7-.2-.2,0-.3-.2-.3-.4s.1-.2.3-.3c.2,0,.4,0,.6,0h1c.3,0,.5,0,.8,0,.2,0,.5,0,.8,0,.4,0,.8,0,1.1,0,.3,0,.6,0,.9,0,.3,0,.8,0,1.3,0s.4,0,.6.1c.1,0,.2.2.2.3,0,.3-.3.5-.9.6-.7.1-1.2.3-1.5.6s-.4.6-.5,1.2c0,.5,0,1.1,0,1.9,0,.8,0,1.6,0,2.5,0,.9,0,1.9,0,2.8,0,1,0,1.9,0,2.8,0,.9,0,1.8,0,2.5s0,1,0,1.5c0,.5,0,.9.1,1.3,0,.4,0,.7,0,.8,0,.4,0,.7-.2.9-.1.2-.3.2-.6.2Z"/>
      <path class="st10" d="M106.9,465.7c-.5,0-.9-.1-1.4-.4-.4-.3-.8-.6-1-1-.3-.4-.4-.8-.4-1.3,0-.7.2-1.2.6-1.7.4-.4,1-.8,1.8-1.2l2.8-1.2c.4-.2.6-.3.7-.5,0-.1.1-.4.1-.8v-1.8c0-.6,0-1-.3-1.4-.2-.3-.6-.5-1.1-.5s-.5,0-.8.2c-.3,0-.5.2-.7.4,0,0-.1.2-.2.3,0,.1,0,.3,0,.4s0,.2,0,.4c0,.2,0,.3,0,.4s-.1.3-.5.5c-.3.2-.6.3-1,.5-.4.1-.7.2-1,.2s-.2,0-.3-.2c0,0-.1-.2-.1-.4,0-.3.1-.6.3-1s.5-.7,1-1.1c.5-.4,1.1-.8,1.6-1.1.6-.3,1.2-.6,1.8-.8.6-.2,1.1-.3,1.5-.3,1,0,1.7.3,2.3.9.6.6.9,1.5.8,2.5v6.4c-.2.4,0,.8.1,1.1.2.3.4.5.7.5.4,0,.8-.1,1-.4,0,0,.1-.1.2-.1.1,0,.2,0,.3.1,0,0,.1.2.1.3,0,.2-.2.5-.5.8-.4.4-.7.6-1.2.8-.4.2-.8.3-1.2.3-1.1,0-1.9-.5-2.6-1.7h0c-.7.6-1.3,1-1.8,1.3-.6.3-1.1.4-1.8.4ZM108.6,463.9c.3,0,.5,0,.7-.1.2,0,.4-.2.5-.4,0,0,.1-.2.2-.4,0-.1,0-.3.1-.6v-1.9c0-.2,0-.3,0-.4s-.1-.1-.2-.1-.1,0-.2,0c0,0-.2,0-.3.1-.7.3-1.3.6-1.6,1-.3.3-.5.8-.5,1.3s.1.9.4,1.2c.3.2.5.3.8.3Z"/>
      <path class="st10" d="M122.9,465.9c-.1,0-.2-.1-.4-.4-.1-.3-.2-.6-.3-.8-.2-.3-.3-.7-.5-1.2-.2-.4-.3-.8-.5-1.2-.5-1.2-1-2.3-1.5-3.5s-1-2.3-1.6-3.5c-.2-.4-.4-.8-.6-1.1-.3-.3-.5-.5-.9-.6-.2,0-.3-.2-.4-.2,0,0-.1-.2-.1-.4s0-.2.3-.3.3,0,.4,0c.4,0,.8,0,1,0,.2,0,.5,0,.7,0,.2,0,.5,0,.9,0s.7,0,1,0c.3,0,.6,0,.9,0,.3,0,.7,0,1.1,0s.3,0,.4,0c.2,0,.2.1.2.3s0,.3-.2.3c-.1,0-.3.1-.5.2-.2,0-.4.2-.5.5-.1.2-.2.5-.2.8s0,.3,0,.5c0,.1,0,.3.1.5l2.1,5.4s0,0,0,0,0,0,0,0l2-5.1c0-.2.1-.4.2-.5,0-.2,0-.3,0-.5,0-.4,0-.7-.2-.9-.1-.2-.4-.4-.7-.5-.2,0-.4-.2-.5-.2-.1,0-.2-.2-.2-.3s0-.2.2-.3c.2,0,.3,0,.5,0,.4,0,.8,0,1.1,0,.3,0,.6,0,1,0s.7,0,.9,0c.2,0,.6,0,1,0,.2,0,.3,0,.5,0,.2,0,.2.1.2.3,0,.3-.2.5-.6.6-.3.1-.7.4-1,.7s-.6.8-.8,1.2l-2.3,5.8c0,.1-.1.3-.2.6-.1.2-.2.5-.3.7-.1.3-.2.5-.3.7s-.2.4-.2.5c0,.1-.1.3-.2.6-.1.3-.2.5-.4.8-.1.3-.2.5-.3.7h-.5Z"/>
      <path class="st10" d="M131.2,465.4c-.2,0-.3,0-.4-.1-.1,0-.1-.2-.1-.3s0-.3.2-.4c.1,0,.3-.1.4-.2.5-.1.8-.2,1-.4.2-.1.3-.4.3-.7v-6.5c0-.6-.1-1.1-.3-1.4-.2-.3-.5-.5-1-.6-.1,0-.2,0-.2-.2,0,0,0-.2,0-.3,0-.3.1-.4.3-.5,1-.2,1.8-.5,2.5-.8s1.3-.6,1.6-.8c.3-.1.5-.2.5-.2.2,0,.3.1.3.3,0,.3,0,.7-.1,1.2,0,.5-.1,1-.2,1.6,0,.6,0,1.1,0,1.5v6.8c0,.3.1.5.3.7.2.2.6.3,1.1.5.2,0,.3.1.4.2.1,0,.2.2.2.3,0,.2-.2.4-.5.4s-.7,0-1.1,0c-.4,0-.7,0-1,0-.3,0-.7,0-1,0s-.7,0-1,0c-.3,0-.6,0-1,0s-.7,0-1.1,0ZM134.2,450.3c-.6,0-1.1-.2-1.5-.6-.4-.4-.6-.9-.6-1.4s.2-1.1.6-1.5c.4-.4.9-.6,1.5-.6s1.1.2,1.5.6c.4.4.6.9.6,1.5s-.2,1-.6,1.4c-.4.4-.9.6-1.5.6Z"/>
      <path class="st10" d="M144.6,474c-1.9,0-3.3-.3-4.4-.9-1.1-.6-1.6-1.5-1.6-2.6s0-1,.2-1.4c.1-.4.5-.7.9-1,.3-.3.7-.5,1.1-.9.4-.3.8-.6,1.1-.9l1.4.4c-.7.4-1.3.9-1.7,1.4-.4.5-.5,1-.5,1.7s.3,1.5,1,2c.7.5,1.6.8,2.6.8s2.3-.3,2.9-.8c.4-.4.8-.8,1-1.3.2-.5.4-1,.4-1.5s-.1-.7-.4-.9c-.3-.2-.7-.4-1.3-.6-.6-.1-1.4-.3-2.5-.3-2-.2-3.4-.5-4.3-1-.8-.5-1.2-1.2-1.2-2.1s0-.4.2-.6c.1-.2.3-.4.6-.6.4-.3.7-.5.9-.7.2-.2.5-.3.6-.5.2-.2.3-.3.4-.5l1.3.5c-.4.1-.8.3-1,.6-.3.2-.4.5-.4.7s.1.4.4.6c.3.2.7.3,1.3.4.6,0,1.4.2,2.4.3,2.1.1,3.6.5,4.5.9,1,.5,1.4,1.2,1.4,2.1s-.2,1.6-.7,2.4c-.4.8-1,1.5-1.7,2.2-.7.6-1.5,1.2-2.4,1.5s-1.8.6-2.7.6ZM144.7,462.3c-.9,0-1.7-.2-2.5-.6-.8-.4-1.5-1-2-1.7-.5-.7-.8-1.6-.8-2.5s.3-1.8.8-2.6,1.2-1.3,2.1-1.8c.9-.4,1.8-.6,2.8-.6s1.2,0,1.7.2c.5.2,1.1.3,1.7.4.4.1.8.2,1.1.2s.7,0,1.1,0,.6,0,.9,0c.3,0,.6,0,.7,0,.3,0,.4.2.4.6s-.1.6-.4.9c-.1.1-.2.2-.3.2h-.8c-.5,0-.8,0-1,.2,0,0,0,.1,0,.2,0,0,0,.2,0,.4,0,.2,0,.5,0,.8,0,1-.3,2-.8,2.9s-1.2,1.6-2,2.1c-.8.5-1.7.8-2.7.8ZM145,461.1c.7,0,1.2-.4,1.6-1.1s.6-1.7.6-2.8-.1-1.3-.3-1.8-.5-1-.9-1.3c-.4-.3-.8-.5-1.2-.5s-.8.2-1.2.5c-.4.3-.6.7-.8,1.3-.2.5-.3,1.1-.3,1.8s.1,1.4.3,2c.2.6.5,1.1.9,1.4.4.4.8.5,1.2.5Z"/>
      <path class="st10" d="M156.4,465.7c-.5,0-.9-.1-1.4-.4-.4-.3-.8-.6-1-1s-.4-.8-.4-1.3c0-.7.2-1.2.6-1.7.4-.4,1-.8,1.8-1.2l2.8-1.2c.4-.2.6-.3.7-.5s.1-.4.1-.8v-1.8c0-.6,0-1-.3-1.4-.3-.3-.6-.5-1.1-.5s-.5,0-.8.2c-.3,0-.5.2-.7.4s-.1.2-.2.3c0,.1,0,.3,0,.4s0,.2,0,.4c0,.2,0,.3,0,.4s-.2.3-.5.5-.6.3-1,.5c-.4.1-.7.2-1,.2s-.3,0-.3-.2c0,0-.1-.2-.1-.4,0-.3.1-.6.3-1,.2-.3.5-.7,1-1.1.5-.4,1-.8,1.6-1.1.6-.3,1.2-.6,1.8-.8.6-.2,1.1-.3,1.5-.3,1,0,1.7.3,2.3.9s.9,1.5.8,2.5l-.2,6.4c0,.4,0,.8.3,1.1.2.3.4.5.7.5.4,0,.8-.1,1-.4,0,0,.2-.1.2-.1,0,0,.2,0,.3.1,0,0,.1.2.1.3,0,.2-.2.5-.5.8s-.7.6-1.2.8c-.4.2-.8.3-1.2.3-1.1,0-1.9-.5-2.6-1.7h0c-.7.6-1.3,1-1.8,1.3-.5.3-1.1.4-1.8.4ZM158.1,463.9c.3,0,.5,0,.7-.1.2,0,.4-.2.5-.4,0,0,.1-.2.2-.4,0-.1,0-.3.1-.6v-1.9c0-.2,0-.3,0-.4,0,0-.1-.1-.2-.1s0,0-.2,0c0,0-.2,0-.3.1-.7.3-1.3.6-1.6,1s-.5.8-.5,1.3.1.9.4,1.2c.3.2.5.3.8.3Z"/>
      <path class="st10" d="M171.7,465.7c-1.2,0-2.1-.3-2.7-1s-.9-1.6-.9-2.8v-6.9c0-.2,0-.3-.2-.4s-.4-.1-.8-.2h-.3c-.1,0-.2,0-.3-.3,0-.2-.1-.4-.1-.6s0,0,0-.2c0,0,0-.1.1-.1.5-.2.9-.5,1.4-.8.5-.3.9-.7,1.3-1.1s.8-.7,1-.9c.1-.1.3-.2.3-.3,0,0,.2-.1.3-.1s.3,0,.4.1.1.2,0,.4l-.2,1.7c0,.2,0,.4.2.5.1,0,.3.1.6.1h3.5c0,0,.1,0,.2.2,0,.1,0,.3,0,.4,0,.3,0,.5-.1.7,0,.2-.2.3-.3.3h-2.9c-.5,0-.8,0-.9.1-.2.1-.3.3-.3.6v5.8c0,.9.2,1.5.5,2,.3.4.8.7,1.4.7s1,0,1.3-.2c.3,0,.6-.2.8-.4,0,0,.1,0,.2,0,0,0,.2,0,.2.2,0,.1,0,.3,0,.4s-.2.3-.6.6c-.4.3-.9.6-1.5.9-.6.3-1.3.4-2,.4Z"/>
      <path class="st10" d="M183.1,465.7c-1.2,0-2.2-.3-3.2-.8-.9-.5-1.7-1.3-2.2-2.2-.6-.9-.8-2-.8-3.2s.2-1.8.5-2.6c.4-.8.9-1.6,1.5-2.2.6-.7,1.3-1.2,2.2-1.6.8-.4,1.7-.6,2.7-.6s2.3.3,3.3.9c1,.6,1.7,1.3,2.3,2.3.6.9.9,2,.9,3.1s-.3,2.4-.8,3.5c-.5,1.1-1.3,1.9-2.4,2.6-1.1.7-2.4,1-3.9,1ZM183.7,464.6c.5,0,.9,0,1.3-.3.4-.2.7-.5.9-.9s.4-1,.5-1.7c0-.7.1-1.4.1-2.2s-.1-2-.4-2.9c-.3-.9-.7-1.5-1.2-2.1-.5-.5-1.1-.8-1.8-.8s-.7,0-1,.2c-.3.1-.6.3-.9.6-.4.4-.6,1-.7,1.7-.1.7-.2,1.6-.2,2.5s.1,1.9.4,2.8.7,1.6,1.2,2.2c.5.6,1,.8,1.7.8Z"/>
      <path class="st10" d="M192.4,465.4c-.2,0-.3,0-.4-.1-.1,0-.2-.2-.2-.3s0-.3.2-.4.3-.2.5-.2c.4-.1.7-.3.9-.4.2-.2.3-.4.3-.7v-6.8c0-.5,0-.8-.2-1.2-.1-.3-.4-.5-.8-.6,0,0-.2,0-.2-.2,0,0-.1-.2-.1-.3,0-.3.1-.4.3-.5.6-.2,1.2-.4,2-.6.7-.3,1.3-.5,1.8-.8.1,0,.2-.1.3-.2.1,0,.2,0,.3,0,.2,0,.2.1.2.3s0,.3,0,.5c0,.3,0,.6,0,.9s0,.6,0,.9c0,.1,0,.2,0,.2.3-.4.7-.8,1.1-1.2.4-.4.8-.7,1.3-.9s.9-.4,1.4-.4,1,.1,1.3.4.4.5.4.9,0,.6-.2.9c-.2.3-.3.6-.6.8-.2.2-.5.3-.8.3s-.3,0-.5-.1c-.2,0-.4-.2-.5-.3-.2,0-.4-.2-.6-.2-.2,0-.4-.1-.5-.1-.5,0-1,.2-1.3.6-.4.4-.6,1.1-.6,2.2v5.3c0,.4.1.6.4.8.3.2.7.4,1.2.5.2,0,.4.1.5.2.1,0,.2.2.2.3,0,.3-.2.4-.5.4-.6,0-1.2,0-1.7,0-.5,0-1.1,0-1.6,0s-.7,0-1,0c-.3,0-.6,0-.9,0-.3,0-.7,0-1.1,0Z"/>
    </g>
    <circle class="st6" cx="300" cy="101.2" r="165"/>
    <g class="st7">
      <path class="st10" d="M293,92.4c-.9,0-1.6-.2-2.3-.6-.6-.4-1.2-1-1.6-1.6-.4-.7-.8-1.4-1-2.3-.2-.8-.3-1.6-.3-2.4s.1-1.7.3-2.5.5-1.6,1-2.3c.4-.7,1-1.3,1.7-1.7s1.5-.6,2.4-.6,1.6.2,2.3.6c.7.4,1.2,1,1.6,1.6s.7,1.4.9,2.2.3,1.6.3,2.4-.1,1.7-.3,2.5-.5,1.6-1,2.4c-.4.7-1,1.3-1.7,1.7s-1.5.7-2.5.7ZM293.3,91.4c.5,0,.8-.3,1.1-.8.3-.6.5-1.3.6-2.2.1-.9.2-1.9.2-2.9s0-1.5-.2-2.3c-.1-.7-.3-1.4-.5-2-.2-.6-.5-1.1-.7-1.5-.3-.4-.6-.5-1-.5s-.8.3-1.1.8c-.3.5-.5,1.3-.6,2.2-.1.9-.2,1.9-.2,2.9s0,1.5.1,2.3.2,1.4.4,2c.2.6.4,1.1.7,1.5s.6.5,1,.5Z"/>
      <path class="st10" d="M303.7,92.1c0,0-.2,0-.3,0,0,0-.1-.1-.1-.2,0-.2.1-.4.4-.5.4-.1.8-.2,1.1-.3.3-.1.5-.2.7-.4.2-.2.2-.4.2-.7v-8c0-.4,0-.6-.3-.8s-.4-.3-.7-.4-.6-.2-.9-.2c-.1,0-.2,0-.4-.2-.1,0-.2-.2-.2-.4s0-.3.2-.4c.1,0,.3-.1.5-.1.9,0,1.6-.2,2.3-.4.7-.2,1.4-.5,2-.9,0,0,0,0,.1,0,0,0,0,0,.1,0,.1,0,.2,0,.3,0,0,0,.1,0,.1.2,0,.2,0,.4,0,.6s0,.6,0,1v10c0,.3,0,.5.3.7.2.2.4.3.7.4s.7.2,1.1.3c.1,0,.2,0,.3.2s.1.2.1.3c0,.2-.1.3-.3.3-.3,0-.7,0-1.2,0s-.9,0-1.4,0-.8,0-1.2,0-.7,0-1.1,0c-.4,0-.9,0-1.3,0-.5,0-.9,0-1.2,0Z"/>
      <path class="st10" d="M249.4,127.8c-.2,0-.4,0-.5-.1s-.2-.2-.2-.3,0-.3.2-.4c.1,0,.3-.2.6-.2.8-.2,1.3-.4,1.7-.7.4-.3.5-.8.5-1.4v-12.1c0-.8,0-1.4,0-1.9,0-.4,0-.7-.2-.9,0-.1-.2-.2-.3-.3-.2,0-.4-.1-.8-.2-.3,0-.6,0-.9,0h-.9c-.6,0-1.1.1-1.7.4-.5.3-1,.6-1.3,1.1,0,.1-.2.3-.4.5-.2.2-.4.4-.5.6-.2.2-.4.3-.6.3s-.2,0-.3-.1c0,0,0-.2,0-.3,0-.2,0-.5.2-.7.3-.7.6-1.3.8-1.8s.3-1.1.3-1.8c0-.3.1-.5.3-.6.1,0,.3-.1.4-.1s.3.1.4.4c.2.3.3.5.5.6.2.2.5.3,1,.4.5,0,.8.1,1.2.1h11.1c.6,0,1,0,1.4-.2.4,0,.7-.2.9-.3.3-.2.5-.4.7-.6.2-.2.4-.3.6-.3s.2,0,.2.2c0,.1,0,.2,0,.4s0,.2,0,.3c0,.1,0,.2,0,.3,0,.4-.2.7-.2,1s-.1.6-.2.8c0,.3,0,.5,0,.9v.5c0,.3,0,.5-.1.7,0,.2-.2.3-.4.3s-.3,0-.4-.3c-.1-.2-.2-.5-.3-.9-.2-.6-.5-1.1-.9-1.4-.4-.3-1.1-.5-2-.5h-2c-.4,0-.7,0-.9.2-.2.1-.4.4-.4.9,0,.5-.1,1.2-.1,2.2v12c0,.6.2,1.1.5,1.4.4.3.9.5,1.7.7.2,0,.4.1.6.2.1,0,.2.2.2.4s0,.2-.2.3c-.1,0-.3,0-.5,0-.5,0-1,0-1.4,0-.5,0-1,0-1.4,0-.5,0-.9,0-1.4,0s-.9,0-1.4,0c-.5,0-1,0-1.4,0-.5,0-1,0-1.5,0Z"/>
      <path class="st10" d="M265.1,127.8c-.2,0-.3,0-.4-.1s-.2-.2-.2-.3,0-.3.2-.4c.1,0,.3-.1.5-.2.4-.1.7-.3.9-.4.2-.2.3-.4.3-.7v-6.8c0-.5,0-.8-.2-1.2-.1-.3-.4-.5-.8-.6,0,0-.2,0-.2-.2,0,0-.1-.2-.1-.3,0-.3.1-.4.3-.5.6-.2,1.2-.4,2-.6.7-.3,1.3-.5,1.8-.8,0,0,.2-.1.3-.2.1,0,.2,0,.3,0,.2,0,.2.1.2.3s0,.3,0,.5c0,.3,0,.6,0,.9,0,.3,0,.6,0,.9,0,.1,0,.2,0,.2.3-.4.7-.8,1.1-1.2.4-.4.8-.7,1.3-.9.5-.2.9-.4,1.4-.4s1,.1,1.3.4c.3.2.4.5.4.9s0,.6-.2.9-.3.6-.6.8-.5.3-.8.3-.3,0-.5-.1c-.2,0-.4-.2-.5-.3-.2,0-.4-.2-.6-.2-.2,0-.4-.1-.5-.1-.5,0-1,.2-1.4.6-.4.4-.6,1.1-.6,2.2v5.3c0,.4.1.6.4.8.3.2.7.4,1.2.5.2,0,.4.1.5.2.1,0,.2.2.2.3,0,.3-.2.4-.5.4-.6,0-1.2,0-1.7,0-.5,0-1.1,0-1.6,0s-.7,0-1,0c-.3,0-.6,0-.9,0-.3,0-.7,0-1.1,0Z"/>
      <path class="st10" d="M279.2,128.1c-.5,0-.9-.1-1.4-.4-.4-.3-.8-.6-1-1-.3-.4-.4-.8-.4-1.3,0-.7.2-1.2.6-1.7.4-.4,1-.8,1.8-1.2l2.8-1.2c.4-.2.6-.3.7-.5,0-.1.1-.4.1-.8v-1.8c0-.6,0-1-.3-1.4-.2-.3-.6-.5-1.1-.5s-.5,0-.8.2-.5.2-.7.4-.1.2-.2.3c0,.1,0,.3,0,.4s0,.2,0,.4c0,.2,0,.3,0,.4s-.1.3-.5.4c-.3.2-.6.3-1,.5-.4.1-.7.2-1,.2s-.2,0-.3-.2c0,0-.1-.2-.1-.4,0-.3.1-.6.3-1s.5-.7,1-1.1c.5-.4,1.1-.8,1.6-1.1.6-.3,1.2-.6,1.8-.8.6-.2,1.1-.3,1.5-.3,1,0,1.7.3,2.3.9.6.6.9,1.5.8,2.5v6.4c-.2.4,0,.8.1,1.1.2.3.4.5.7.5.4,0,.8-.1,1-.4,0,0,.1-.1.2-.1.1,0,.2,0,.3.1,0,0,.1.2.1.3,0,.2-.2.5-.5.8s-.7.6-1.2.8c-.4.2-.8.3-1.2.3-1.1,0-1.9-.5-2.6-1.6h0c-.7.6-1.3,1-1.8,1.3-.6.3-1.1.4-1.8.4ZM280.8,126.3c.3,0,.5,0,.7-.1.2,0,.4-.2.5-.4,0,0,.1-.2.2-.4,0-.1,0-.3.1-.6v-1.9c0-.2,0-.3,0-.4,0,0-.1-.1-.2-.1s-.1,0-.2,0c0,0-.2,0-.3.1-.7.3-1.3.6-1.6,1-.3.3-.5.8-.5,1.3s.1.9.4,1.2c.3.2.5.3.8.3Z"/>
      <path class="st10" d="M295.1,128.3c-.1,0-.2-.1-.4-.4s-.2-.6-.3-.8c-.2-.3-.3-.7-.5-1.2-.2-.4-.3-.8-.5-1.2-.5-1.2-1-2.3-1.5-3.5-.5-1.1-1-2.3-1.6-3.5-.2-.4-.4-.8-.6-1.1-.3-.3-.5-.5-.9-.6-.2,0-.3-.2-.4-.2,0,0-.1-.2-.1-.4s0-.2.3-.3c.2,0,.3,0,.4,0,.4,0,.8,0,1,0,.2,0,.5,0,.7,0,.2,0,.5,0,.9,0s.7,0,1,0c.3,0,.6,0,.9,0,.3,0,.7,0,1.1,0s.3,0,.4,0c.2,0,.2.1.2.3s0,.3-.2.3-.3.1-.5.2c-.2,0-.4.2-.5.5-.1.2-.2.5-.2.8s0,.3,0,.5c0,.1,0,.3.1.5l2.1,5.4s0,0,0,0,0,0,0,0l1.9-5.1c0-.2.1-.4.2-.5,0-.2,0-.3,0-.5,0-.4,0-.7-.2-.9-.1-.2-.4-.4-.7-.5-.2,0-.4-.2-.5-.2-.1,0-.2-.2-.2-.3s0-.2.2-.3.3,0,.5,0c.4,0,.8,0,1.1,0,.3,0,.6,0,1,0s.7,0,.9,0c.2,0,.6,0,1,0,.2,0,.3,0,.5,0,.2,0,.2.1.2.3,0,.3-.2.5-.6.6-.3.1-.7.4-1,.7-.3.3-.6.8-.8,1.2l-2.3,5.8c0,.1-.1.3-.2.6-.1.2-.2.5-.3.7-.1.3-.2.5-.3.7,0,.2-.2.4-.2.5s-.1.3-.2.6c-.1.3-.2.6-.4.8-.1.3-.2.5-.3.7h-.5Z"/>
      <path class="st10" d="M308.6,128.1c-1.1,0-2.1-.3-2.9-.8s-1.5-1.3-2-2.3c-.5-1-.7-2.1-.7-3.4s.3-2.3.9-3.3c.6-1,1.3-1.8,2.3-2.4s2-.9,3.1-.9,1.6.2,2.2.5c.7.4,1.2.8,1.6,1.4.4.6.6,1.3.6,2.1s-.3,1.1-.9,1.1h-6.1c-.3,0-.5,0-.6.2-.1.1-.2.4-.2.8,0,.8.2,1.6.6,2.3.4.7.9,1.2,1.5,1.6.6.4,1.3.6,2.1.6s1.1-.1,1.6-.3c.5-.2,1-.5,1.4-.9,0,0,.2-.1.2-.2,0,0,.1,0,.2,0,.2,0,.3.1.3.4s-.1.6-.4,1c-.2.5-.6.9-1,1.3s-1,.8-1.6,1c-.6.2-1.3.4-2.1.4ZM306.6,118.8h2.1c.5,0,.9,0,1.2,0,.3,0,.5,0,.8-.1,0,0,.2-.1.2-.3s0-.3,0-.5c0-.5-.2-1-.6-1.4-.4-.4-.9-.6-1.5-.6s-.8.1-1.2.4c-.4.3-.7.6-1,.9-.3.4-.4.8-.4,1.2,0,.2.1.4.4.4Z"/>
      <path class="st10" d="M315.5,127.8c-.2,0-.3,0-.4,0-.1,0-.2-.1-.2-.3s0-.3.2-.4c.1,0,.3-.2.5-.2.3,0,.6-.2.8-.3.2-.1.4-.4.4-.8v-14.6c0-.6,0-1-.3-1.4-.2-.4-.5-.6-1-.7-.2,0-.3-.2-.3-.4s0-.4.3-.4c.5,0,1-.2,1.5-.4.5-.2,1-.4,1.5-.5.5-.2.9-.3,1.2-.4.1,0,.2,0,.3,0,.1,0,.2,0,.2.1,0,0,0,.1,0,.2,0,.2,0,.5,0,.9,0,.5,0,1.1,0,1.8v16.1c0,.4.1.7.4.8s.5.2.8.3c.2,0,.4.2.5.2.1,0,.2.2.2.4s0,.2-.2.3c-.1,0-.3,0-.4,0-.4,0-.7,0-1,0-.3,0-.6,0-.9,0-.3,0-.6,0-1,0s-.7,0-.9,0-.6,0-.9,0c-.3,0-.7,0-1,0Z"/>
      <path class="st10" d="M328.9,128.1c-1.1,0-2.1-.3-2.9-.8s-1.5-1.3-2-2.3c-.5-1-.7-2.1-.7-3.4s.3-2.3.9-3.3c.6-1,1.3-1.8,2.3-2.4s2-.9,3.1-.9,1.6.2,2.2.5c.7.4,1.2.8,1.6,1.4.4.6.6,1.3.6,2.1s-.3,1.1-.9,1.1h-6.1c-.3,0-.5,0-.6.2-.1.1-.2.4-.2.8,0,.8.2,1.6.6,2.3.4.7.9,1.2,1.5,1.6.6.4,1.3.6,2.1.6s1.1-.1,1.6-.3c.5-.2,1-.5,1.4-.9,0,0,.2-.1.2-.2,0,0,.1,0,.2,0,.2,0,.3.1.3.4s-.1.6-.4,1c-.2.5-.6.9-1,1.3s-1,.8-1.6,1c-.6.2-1.3.4-2.1.4ZM327,118.8h2.1c.5,0,.9,0,1.2,0,.3,0,.5,0,.8-.1,0,0,.2-.1.2-.3s0-.3,0-.5c0-.5-.2-1-.6-1.4-.4-.4-.9-.6-1.5-.6s-.8.1-1.2.4c-.4.3-.7.6-1,.9-.3.4-.4.8-.4,1.2,0,.2.1.4.4.4Z"/>
      <path class="st10" d="M336.1,127.8c-.2,0-.3,0-.4-.1-.1,0-.2-.2-.2-.3s0-.3.2-.4c.1,0,.3-.1.5-.2.4-.1.7-.3.9-.4.2-.2.3-.4.3-.7v-6.8c0-.5,0-.8-.2-1.2-.1-.3-.4-.5-.8-.6,0,0-.2,0-.2-.2,0,0-.1-.2-.1-.3,0-.3.1-.4.3-.5.6-.2,1.2-.4,2-.6.7-.3,1.3-.5,1.8-.8.1,0,.2-.1.3-.2s.2,0,.3,0c.2,0,.2.1.2.3s0,.3,0,.5c0,.3,0,.6,0,.9,0,.3,0,.6,0,.9,0,.1,0,.2,0,.2.3-.4.7-.8,1.1-1.2.4-.4.8-.7,1.3-.9.5-.2.9-.4,1.4-.4s1,.1,1.3.4c.3.2.4.5.4.9s0,.6-.2.9-.3.6-.6.8c-.2.2-.5.3-.8.3s-.3,0-.5-.1c-.2,0-.4-.2-.5-.3-.2,0-.4-.2-.6-.2-.2,0-.4-.1-.5-.1-.5,0-1,.2-1.3.6-.4.4-.6,1.1-.6,2.2v5.3c0,.4.1.6.4.8.3.2.7.4,1.2.5.2,0,.4.1.5.2.1,0,.2.2.2.3,0,.3-.2.4-.5.4-.6,0-1.2,0-1.7,0-.5,0-1.1,0-1.6,0s-.7,0-1,0c-.3,0-.6,0-.9,0-.3,0-.7,0-1.1,0Z"/>
      <path class="st10" d="M351.1,128.1c-.6,0-1.3,0-1.8-.3-.6-.2-1.1-.4-1.6-.8-.1-.3-.2-.7-.3-1.3s-.1-1.2-.1-1.8.2-.4.5-.4.3,0,.4.1c0,0,.2.2.2.3.3.9.8,1.6,1.3,2.1.5.5,1.1.8,1.8.8s1-.2,1.3-.5c.3-.3.5-.8.5-1.2s-.2-1-.6-1.3c-.4-.4-.9-.7-1.6-1.1-.6-.3-1.2-.7-1.7-1.1s-.9-.8-1.2-1.3c-.3-.5-.4-1.1-.4-1.7s.2-1.4.6-1.9.9-1,1.6-1.3c.7-.3,1.5-.5,2.4-.5s1.2,0,1.7.2c.5.1.9.3,1.1.4.2.2.3.6.4,1.1,0,.5.1,1.1.1,1.7s-.1.3-.4.3-.3,0-.4-.1c-.1,0-.2-.2-.3-.2-.3-.7-.6-1.3-1-1.7s-.9-.6-1.4-.6-.9.1-1.2.4c-.4.3-.6.7-.6,1.2s.2.8.5,1.1c.3.3.9.7,1.5,1.1,1.3.7,2.2,1.3,2.7,1.9.6.6.8,1.4.8,2.4s-.4,2.2-1.3,2.9c-.8.7-2,1.1-3.6,1.1Z"/>
    </g>
  </g>
  <circle class="st1" cx="300" cy="290" r="115"/>
  <g class="st3">
    <rect class="st5" x="206.9" y="248.5" width="186.2" height="83.3"/>
    <path class="st0" d="M214.6,285c-.4,0-.7,0-.9-.2-.2-.1-.4-.2-.4-.4s.1-.4.4-.5c.2-.2.6-.3,1.1-.5.8-.2,1.5-.6,2.1-1.1.6-.5,1.2-1.2,1.7-2.3.8-1.9,1.6-3.6,2.3-5.3.7-1.6,1.3-3.3,2-4.8.6-1.6,1.3-3.2,1.9-4.9.7-1.7,1.4-3.6,2.1-5.6.1-.4.3-.8.4-1.2.1-.4.2-.9.2-1.3.3,0,.5-.2.8-.3.3,0,.5-.2.8-.4.3-.2.4-.4.5-.8.1-.4.2-.6.3-.7,0,0,0,0,.1,0s0,0,.1,0c0,.1.1.3.2.4,0,.2,0,.4.2.5.7,2.2,1.4,4.5,2.2,6.8.8,2.3,1.5,4.6,2.2,6.7.7,2.2,1.4,4.1,2,5.8.6,1.7,1.1,3.1,1.4,4.2.4,1.2.9,2.1,1.3,2.6.5.6,1,1,1.5,1.2.5.2,1.1.4,1.6.5.5,0,.9.2,1.1.4.2.2.4.4.4.6s-.1.3-.4.4c-.2,0-.5,0-.9,0s-1,0-1.7,0c-.7,0-1.5,0-2.2-.1s-1.5,0-2.2,0h-1.7c-.6,0-1.1,0-1.6,0-.5,0-.9,0-1.3,0s-.7,0-.9-.1c-.2,0-.4-.2-.4-.4s.1-.4.4-.5c.3-.1.6-.2,1-.3,1-.1,1.7-.4,2.1-.7.4-.4.6-.8.6-1.2s0-1.1-.3-1.9c-.2-.8-.4-1.7-.7-2.7-.3-1-.5-1.8-.7-2.5,0-.2-.2-.4-.3-.4-.2,0-.4,0-.9,0h-8.3c-.1,0-.2,0-.4.2-.1.1-.3.3-.4.6,0,.3-.2.8-.4,1.4-.2.6-.4,1.3-.6,2-.2.7-.4,1.3-.5,1.9-.1.6-.2.9-.2,1.1,0,.6.2,1.2.7,1.6.5.4,1.1.7,1.8.9,1,.3,1.5.6,1.5.9s-.1.3-.4.4c-.2,0-.5.1-.9.1s-.9,0-1.7,0c-.7,0-1.5,0-2.3,0s-1.9,0-2.8.1-1.7.1-2.5.1ZM224.9,272.4h6.8c.4,0,.6,0,.6-.2s0-.1,0-.2c0,0,0-.2,0-.2l-3.4-10.7c-.2-.5-.3-.8-.4-.8s-.2.2-.4.7l-4,10.8c0,.2,0,.3,0,.4,0,.1,0,.2.2.3.2,0,.4,0,.7,0Z"/>
    <path class="st0" d="M260,285.6c-.2,0-.3-.1-.3-.4s0-.7.1-1.3c0-.6.1-1,.1-1.4v-.2h0c-1.1,1-2.3,1.8-3.5,2.3-1.2.5-2.4.7-3.8.7s-1.8-.2-2.6-.6c-.8-.4-1.4-1-1.8-1.8-.4-.8-.7-1.7-.7-2.9v-8.9c0-.6-.1-1.2-.4-1.5-.3-.4-.8-.7-1.5-1-.1,0-.3-.1-.4-.2-.1,0-.2-.2-.2-.5s0-.4.2-.5c.1,0,.3-.1.5-.2,1,0,1.8-.1,2.3-.2.5-.1,1.2-.3,2-.5,0,0,.2,0,.2,0h.2c.3,0,.5.2.4.6,0,.7-.2,1.2-.2,1.7,0,.5,0,1,0,1.7v8.6c0,.7.2,1.4.5,2,.4.6.8,1.1,1.4,1.5.6.4,1.2.6,1.8.6s1.4,0,2-.1c.6,0,1.1-.3,1.7-.7.3-.2.7-.6,1.2-1.1.5-.5.7-1.2.7-2.2v-8.1c0-.6-.2-1.1-.5-1.4-.4-.3-.8-.5-1.3-.6-.5-.1-.9-.2-1.1-.2s-.5,0-.7-.2c-.2-.1-.3-.3-.3-.6s0-.4.3-.5c.2,0,.4-.1.6-.1.9,0,1.7,0,2.3-.1.6,0,1.1-.1,1.6-.2.5-.1,1-.2,1.5-.4,0,0,.1,0,.2,0,0,0,.2,0,.2,0,.4,0,.6.2.6.5s0,0,0,.2c0,0,0,.2,0,.2,0,0,0,.3-.1.7,0,.4,0,.8-.1,1.3s0,.8,0,1v10.2c0,.8,0,1.4.2,1.7.2.3.3.5.5.5s.6,0,1,0c.5,0,.8,0,1,0s.3,0,.4,0c.1,0,.2.2.2.5s0,.4-.2.5c-.1,0-.3.1-.4.2-1.1.1-2.1.4-2.9.7-.8.3-1.6.6-2.2.8,0,0-.2,0-.4.2-.2,0-.3.1-.5.1Z"/>
    <path class="st0" d="M275.4,285.4c-1.4,0-2.6-.4-3.4-1.3-.8-.9-1.2-2.2-1.2-3.9v-10.2c0-.2,0-.4-.3-.5-.2-.1-.6-.2-1.1-.2h-.3c-.1,0-.3,0-.4-.3-.1-.2-.2-.4-.2-.6s0-.1.1-.3.1-.2.2-.2c.6-.4,1.1-.8,1.6-1.2.5-.4.9-.8,1.3-1.2s.7-.8,1-1.1c.1-.1.3-.3.4-.4.1-.1.2-.2.4-.2s.3,0,.4,0c.1,0,.2.2.2.4l-.2,2c0,.3,0,.5.2.7.2.1.5.2.8.2h5c.1,0,.2,0,.3.3,0,.2.1.4.1.7s0,.5-.1.8c0,.2-.2.4-.3.4h-4.4c-.7,0-1.2,0-1.4.2-.2.1-.3.5-.3,1.1v8.7c0,1.2.2,2.1.7,2.8.5.7,1.2,1,2.2,1s1.5,0,2-.2c.5-.1.9-.3,1.3-.6,0,0,.1,0,.2,0,.1,0,.2,0,.2.2,0,.1,0,.3,0,.4s-.2.4-.7.9c-.5.4-1.1.9-1.9,1.2-.8.4-1.6.6-2.5.6Z"/>
    <path class="st0" d="M282.6,284.9c-.6,0-.9-.2-.9-.5s.3-.5,1-.7c.4-.1.9-.3,1.3-.6.4-.2.6-.6.6-1.2v-22c0-.8-.1-1.5-.4-2.1-.3-.6-.8-1-1.5-1.1-.3,0-.4-.3-.4-.6s.1-.4.4-.5c.4-.1.9-.3,1.5-.5.6-.2,1.2-.4,1.8-.6.6-.2,1.2-.4,1.6-.6.1,0,.2,0,.3,0,0,0,.2,0,.2,0,0,0,0,.1,0,.2,0,.2,0,.4-.1.7,0,.3-.1.9-.2,1.7,0,.8,0,2,0,3.6v7.7c0,.5,0,.8,0,1,0,.2.1.4.2.6.5-.4,1-.7,1.7-1.2.7-.4,1.5-.8,2.3-1.1.9-.3,1.7-.5,2.6-.5,1.4,0,2.6.6,3.6,1.7,1,1.1,1.4,2.6,1.4,4.3v9.2c0,.6.2,1,.6,1.3.4.3.8.5,1.2.6.3,0,.6.2.7.3.2.1.3.2.3.4,0,.3-.3.5-.9.5s-1,0-1.3,0c-.3,0-.6,0-.9-.1-.3,0-.7,0-1.2,0s-.9,0-1.2,0c-.3,0-.6,0-.9.1s-.8,0-1.3,0-.9-.2-.9-.5,0-.3.3-.4c.2,0,.4-.2.7-.3.4-.1.8-.4,1.2-.6.4-.3.5-.7.5-1.3v-9c0-.7-.2-1.4-.6-2-.4-.6-.9-1.1-1.6-1.4s-1.2-.5-1.9-.5-1.2,0-1.9.2c-.7.2-1.3.4-1.7.7-.5.4-.8.8-.9,1.2-.2.4-.2,1.1-.2,2v8.9c0,.6.2,1,.6,1.2.3.2.7.4,1.2.6.3,0,.6.2.7.3.2.1.2.2.2.4,0,.3-.3.5-.9.5s-1,0-1.3,0c-.3,0-.6,0-.8-.1-.3,0-.7,0-1.2,0s-.9,0-1.2,0c-.3,0-.6,0-1,.1-.3,0-.8,0-1.4,0Z"/>
    <path class="st0" d="M312.9,285.4c-1.6,0-3-.4-4.2-1.2-1.2-.8-2.1-1.9-2.8-3.4s-1-3.1-1-5,.4-3.2,1.2-4.6c.8-1.4,1.8-2.5,3.1-3.4,1.3-.9,2.7-1.3,4.2-1.3s2.2.2,3.1.7c.9.5,1.6,1.1,2.1,2,.5.8.8,1.8.8,2.9s-.4,1.4-1.3,1.4h-9.3c-.4,0-.7.1-.9.3s-.2.7-.2,1.3c0,1.4.3,2.7.9,3.9.6,1.2,1.4,2.1,2.5,2.8,1,.7,2.2,1,3.4,1s1.7-.2,2.4-.5c.7-.3,1.4-.8,1.9-1.5.1-.1.2-.2.3-.3,0,0,.1,0,.2,0,.2,0,.4.1.4.4,0,.6-.3,1.2-.8,1.8-.4.6-1,1-1.6,1.5-.6.4-1.3.7-2,.9-.7.2-1.5.3-2.3.3ZM308.9,272.1h4c.7,0,1.3,0,1.8,0s1,0,1.5-.2c.1,0,.2-.1.3-.3,0-.2,0-.4,0-.7,0-.9-.4-1.6-1.1-2.2-.7-.6-1.6-.9-2.7-.9s-1.3.2-2,.6-1.2.9-1.7,1.5c-.4.6-.7,1.2-.7,1.8s.2.4.5.4Z"/>
    <path class="st0" d="M322.7,284.9c-.3,0-.5,0-.6-.1s-.2-.2-.2-.4,0-.4.3-.5c.2,0,.4-.2.7-.2.4-.1.9-.3,1.3-.5.4-.2.6-.6.6-1.2v-9.5c0-.8,0-1.5-.2-2-.2-.6-.6-.9-1.4-1.1-.1,0-.2-.1-.3-.2,0,0-.1-.2-.1-.4,0-.3.1-.5.4-.5,1-.3,1.9-.6,2.5-1,.6-.4,1.3-.8,1.9-1.3,0,0,.2-.1.2-.2s.2,0,.2,0,.1,0,.2,0c0,0,0,.1,0,.2,0,.2,0,.6-.1,1.3,0,.6-.1,1.2-.1,1.6s0,.2,0,.3c0,.1,0,.2,0,.2,1-1,2.1-1.7,3.3-2.2,1.2-.5,2.4-.7,3.8-.7s2.6.6,3.6,1.8c.9,1.2,1.4,2.6,1.4,4.4v9.4c0,.6.2,1,.6,1.2.4.2.8.4,1.3.5.2,0,.5.2.7.3.2.1.3.3.3.5s-.1.3-.3.3c-.2,0-.4,0-.6,0-.6,0-1,0-1.4,0-.3,0-.6,0-.9-.1-.3,0-.7,0-1.2,0s-.9,0-1.2,0c-.3,0-.7,0-1,.1s-.8,0-1.4,0-.3,0-.5,0-.3-.2-.3-.3.1-.4.3-.5c.2-.1.4-.2.7-.3.4-.1.9-.3,1.3-.5.4-.2.6-.6.6-1.2v-9.2c0-1.3-.4-2.3-1.1-3-.7-.7-1.7-1.1-2.9-1.1-1.1,0-2,.2-2.8.5-.8.3-1.5.8-2.1,1.3-.1.1-.2.3-.3.5,0,.2,0,.4,0,.5v10.6c0,.6.2,1,.6,1.2.4.2.8.4,1.3.5.7.2,1,.4,1,.7s0,.3-.2.4-.4.1-.7.1c-.6,0-1,0-1.4,0s-.7,0-.9-.1c-.3,0-.7,0-1.2,0s-.9,0-1.2,0c-.3,0-.6,0-1,.1-.3,0-.8,0-1.4,0Z"/>
    <path class="st0" d="M352.3,285.4c-1.4,0-2.6-.4-3.4-1.3-.8-.9-1.2-2.2-1.2-3.9v-10.2c0-.2,0-.4-.3-.5-.2-.1-.6-.2-1.1-.2h-.3c-.1,0-.3,0-.4-.3-.1-.2-.2-.4-.2-.6s0-.1.1-.3.1-.2.2-.2c.6-.4,1.1-.8,1.6-1.2.5-.4.9-.8,1.3-1.2.4-.4.7-.8,1-1.1.1-.1.3-.3.4-.4.1-.1.2-.2.4-.2s.3,0,.4,0c.1,0,.2.2.2.4l-.2,2c0,.3,0,.5.2.7.2.1.5.2.8.2h5c.1,0,.2,0,.3.3,0,.2.1.4.1.7s0,.5-.1.8c0,.2-.2.4-.3.4h-4.4c-.7,0-1.2,0-1.4.2-.2.1-.3.5-.3,1.1v8.7c0,1.2.2,2.1.7,2.8.5.7,1.2,1,2.2,1s1.5,0,2-.2c.5-.1.9-.3,1.3-.6,0,0,.1,0,.2,0,.1,0,.2,0,.2.2,0,.1,0,.3,0,.4s-.2.4-.7.9c-.5.4-1.1.9-1.9,1.2s-1.6.6-2.5.6Z"/>
    <path class="st0" d="M359.7,284.9c-.3,0-.5,0-.6-.1s-.2-.2-.2-.4.1-.4.3-.5c.2,0,.4-.2.7-.2.6-.1,1.1-.3,1.4-.5.3-.2.5-.6.5-1.1v-9.5c0-.8-.1-1.5-.4-2.1-.3-.6-.8-1-1.6-1.1-.1,0-.3,0-.3-.2,0,0-.1-.2-.1-.4,0-.3.1-.5.4-.5,1.2-.3,2.1-.6,2.9-1.1.8-.5,1.3-.8,1.7-1.1.3-.2.5-.3.6-.3s.3,0,.3.2c0,.2,0,.7-.1,1.4,0,.7-.1,1.5-.2,2.3s0,1.6,0,2.3v10.2c0,.5.2.9.5,1.1.3.2.8.4,1.4.6.2,0,.5.1.7.2.2,0,.3.2.3.5s-.3.5-.9.5-1,0-1.3,0-.7,0-1-.1c-.3,0-.7,0-1.3,0s-.9,0-1.2,0c-.3,0-.6,0-1,.1-.3,0-.8,0-1.4,0ZM363.2,262.1c-.6,0-1.1-.2-1.6-.6-.4-.4-.6-.9-.6-1.6s.2-1.2.6-1.6c.4-.4.9-.6,1.6-.6s1.2.2,1.6.6c.4.4.6,1,.6,1.6s-.2,1.1-.6,1.6c-.4.4-1,.6-1.6.6Z"/>
    <path class="st0" d="M377.9,285.4c-1.5,0-2.8-.4-4-1.1-1.2-.7-2.1-1.8-2.8-3.1-.7-1.3-1-2.8-1-4.4s.4-3.6,1.3-5.2c.8-1.6,2-2.8,3.4-3.7,1.4-.9,3-1.4,4.7-1.4s3.6.5,5,1.5c.4.3.5.5.5.8s-.1.5-.3.8c-.2.3-.5.5-.7.7-.3.2-.6.3-.8.3s-.3,0-.4-.2c-.1-.1-.3-.2-.5-.3-.6-.5-1.4-1-2.2-1.4-.8-.4-1.5-.7-2-.7-1.4,0-2.6.7-3.5,2-.9,1.3-1.3,3.1-1.3,5.3s.3,2.6.9,3.7c.6,1.1,1.4,2,2.4,2.6,1,.6,2.1,1,3.4,1s1.6-.1,2.2-.4c.6-.3,1.3-.8,2-1.5,0,0,.1-.1.2-.2s.2,0,.2,0c.3,0,.5.2.5.6s0,.4-.2.6c-.1.2-.3.5-.5.8-.5.6-1,1.1-1.7,1.5-.6.4-1.4.7-2.1.9-.8.2-1.6.3-2.5.3Z"/>
    <path class="st0" d="M257.8,330.6c-3,0-4.5-.7-4.5-2.2s.2-1,.6-1.4c.4-.4.8-.7,1.1-.7s.7,0,1.1.2c.4.2.7.4,1,.9.4.5.7.8,1,1,.3.2.7.3,1,.3,1,0,1.8-.6,2.2-1.9.5-1.2.7-2.9.7-5.1v-24.3c0-1-.2-1.8-.7-2.2-.4-.4-1.2-.7-2.2-.9-1-.2-1.5-.5-1.5-.9s.1-.3.4-.4c.2,0,.5-.1.9-.1.8,0,1.4,0,2,0,.5,0,1,0,1.5,0,.5,0,1,0,1.7,0s1,0,1.3,0c.3,0,.7,0,1.1,0,.4,0,1,0,1.8,0s.7,0,.9.1c.2,0,.4.2.4.4s-.1.4-.4.5c-.2.1-.6.3-1.1.4-1.1.2-1.8.5-2.1.9-.3.4-.4,1.2-.4,2.2v22.2c0,1.2-.2,2.4-.6,3.5-.4,1.1-.8,2.1-1.4,2.9-.5.9-1,1.6-1.5,2.1-.6.7-1.2,1.3-1.9,1.7-.7.4-1.5.7-2.3.7Z"/>
    <path class="st0" d="M276.4,322.4c-.5,0-1.1-.2-1.6-.6-.5-.4-1-.9-1.4-1.5-.4-.6-.6-1.1-.6-1.7,0-.9.2-1.7.7-2.2.5-.5,1.3-1,2.4-1.5l4.5-1.8c.6-.2.9-.4,1-.6.1-.2.2-.6.2-1.1v-2.8c.1-.8,0-1.4-.6-2-.5-.6-1.1-.8-2-.8s-.9,0-1.3.2-.8.3-1.1.6c-.2.1-.3.3-.4.5,0,.2,0,.5,0,.7s0,.2,0,.4c0,.1,0,.3,0,.4s-.2.3-.5.6c-.4.2-.8.5-1.2.7-.5.2-.8.3-1.1.3s-.3,0-.4-.1-.1-.2-.1-.3c0-.5.2-1,.5-1.5.3-.5.7-1,1.3-1.5.7-.6,1.4-1.2,2.2-1.6.8-.5,1.6-.8,2.3-1.1.8-.3,1.4-.4,2-.4,1.1,0,1.9.4,2.6,1.1.7.7,1,1.7,1,2.8l-.2,10.6c0,.6.1,1.1.4,1.5.3.4.7.6,1.2.6.7,0,1.3-.2,1.6-.5.1-.1.3-.2.4-.2.1,0,.3,0,.4.1s.1.2.1.4c0,.3-.2.6-.5,1-.5.5-1,.8-1.5,1.1-.5.3-1,.4-1.5.4-1.3,0-2.4-.8-3.2-2.3h-.1c-1,.8-1.9,1.4-2.8,1.7-.9.4-1.8.5-2.7.5ZM278.5,320.3c.6,0,1.1,0,1.5-.3.4-.2.8-.4,1.1-.8s.3-.3.4-.6c.1-.2.2-.7.2-1.2v-2.2c.1-.3.1-.6,0-.7,0-.1-.2-.2-.4-.2s-.2,0-.3,0c-.1,0-.3,0-.6.2-1.6.6-2.6,1.1-3.2,1.7-.6.6-.9,1.2-.9,1.6,0,.8.2,1.3.7,1.7.5.4.9.6,1.5.6Z"/>
    <path class="st0" d="M290.6,334.3c-.1,0-.3,0-.6,0-.2,0-.4-.2-.4-.3s.1-.4.3-.5.4-.2.7-.3c.4-.1.9-.3,1.3-.5s.6-.6.6-1.2v-22.3c0-.2,0-.6-.2-1.1-.1-.5-.3-.9-.6-1.4-.3-.4-.7-.7-1.2-.8-.1,0-.2-.1-.3-.2,0-.1,0-.2,0-.4s0-.3,0-.4c0,0,.1-.1.2-.2,1.1-.3,2.1-.5,2.9-.9.8-.3,1.5-.6,2.2-.9,0,0,0,0,0,0s0,0,0,0c0,0,.1,0,.2.1,0,0,0,.2,0,.3,0,.3,0,.7-.1,1.3,0,.6-.1,1-.1,1.4s0,.4,0,.4c.3-.3.8-.7,1.6-1.1s1.7-.9,2.7-1.2c1-.4,2-.5,2.9-.5,1.5,0,2.8.4,3.9,1.2,1.1.8,1.9,1.8,2.5,3.1.6,1.3.9,2.6.9,4s-.2,2.6-.7,3.9-1.2,2.4-2.1,3.4-2,1.8-3.2,2.4-2.5.9-3.9.9-.9,0-1.5-.2-1.1-.3-1.7-.5c-.5-.2-1-.4-1.3-.7,0,0,0,.2,0,.5,0,.3,0,.7,0,1.1,0,.4,0,.6,0,.7v8.2c0,.4.2.7.5.9.3.2.7.4,1.1.5.4.1.7.2,1,.3.2,0,.5.2.7.3.2.1.3.3.3.5s-.1.3-.4.3c-.2,0-.4,0-.6,0-.9,0-1.6,0-2.1-.1-.6,0-1.2-.1-2-.1s-.9,0-1.2,0c-.3,0-.6,0-.9.1-.3,0-.8,0-1.4,0ZM300.9,321c.4,0,1-.1,1.6-.4.6-.3,1.3-.7,1.9-1.3s1.2-1.4,1.6-2.4.6-2.2.6-3.7-.2-3.1-.7-4.1c-.4-1-1-1.8-1.6-2.3-.6-.5-1.3-.9-2-1.1-.7-.2-1.2-.3-1.7-.3-.7,0-1.4.1-2.2.4-.7.3-1.4.6-1.9,1s-.8.7-.8.9c0,.6,0,1.3,0,2s0,1.3,0,1.9,0,1.2,0,1.7c0,.5,0,.9,0,1.1,0,1.2.3,2.3.8,3.3s1.2,1.8,2,2.4c.8.6,1.6.9,2.4.9Z"/>
    <path class="st0" d="M316.8,322.4c-.5,0-1.1-.2-1.6-.6-.5-.4-1-.9-1.4-1.5-.4-.6-.5-1.1-.5-1.7,0-.9.2-1.7.7-2.2.5-.5,1.3-1,2.4-1.5l4.5-1.8c.6-.2.9-.4,1-.6.1-.2.2-.6.2-1.1v-2.8c.1-.8,0-1.4-.5-2-.5-.6-1.1-.8-2-.8s-.9,0-1.3.2c-.4.1-.8.3-1.1.6-.2.1-.3.3-.4.5,0,.2,0,.5,0,.7s0,.2,0,.4,0,.3,0,.4-.2.3-.6.6c-.4.2-.8.5-1.2.7-.5.2-.8.3-1.1.3s-.3,0-.4-.1c0,0-.1-.2-.1-.3,0-.5.2-1,.5-1.5.3-.5.7-1,1.3-1.5.7-.6,1.4-1.2,2.2-1.6.8-.5,1.6-.8,2.3-1.1.8-.3,1.4-.4,2-.4,1.1,0,1.9.4,2.6,1.1.7.7,1,1.7,1,2.8l-.2,10.6c0,.6.1,1.1.4,1.5.3.4.7.6,1.2.6.7,0,1.3-.2,1.6-.5.1-.1.3-.2.4-.2.1,0,.3,0,.4.1s.1.2.1.4c0,.3-.2.6-.5,1-.5.5-1,.8-1.5,1.1s-1,.4-1.5.4c-1.3,0-2.4-.8-3.2-2.3h-.1c-1,.8-1.9,1.4-2.8,1.7-.9.4-1.8.5-2.7.5ZM318.9,320.3c.6,0,1.1,0,1.5-.3.4-.2.8-.4,1.1-.8.1-.1.3-.3.4-.6.1-.2.2-.7.2-1.2v-2.2c.1-.3.1-.6,0-.7s-.2-.2-.4-.2-.2,0-.3,0-.3,0-.6.2c-1.6.6-2.6,1.1-3.2,1.7-.6.6-.9,1.2-.9,1.6,0,.8.2,1.3.7,1.7.5.4.9.6,1.5.6Z"/>
    <path class="st0" d="M331.1,321.9c-.3,0-.5,0-.6-.1-.2,0-.2-.2-.2-.4s0-.4.3-.5c.2,0,.4-.2.7-.2.4-.1.9-.3,1.3-.5.4-.2.6-.6.6-1.2v-9.5c0-.8,0-1.5-.2-2-.2-.6-.6-.9-1.4-1.1-.1,0-.2-.1-.3-.2,0,0-.1-.2-.1-.4,0-.3.1-.5.4-.5,1-.3,1.9-.6,2.5-1,.6-.4,1.3-.8,1.9-1.3,0,0,.2-.1.2-.2,0,0,.2,0,.2,0s.1,0,.2,0c0,0,0,.1,0,.2,0,.2,0,.6-.1,1.3,0,.6-.1,1.2-.1,1.6s0,.2,0,.3c0,.1,0,.2,0,.2,1-1,2.1-1.7,3.3-2.2,1.2-.5,2.4-.7,3.8-.7s2.6.6,3.6,1.8c.9,1.2,1.4,2.6,1.4,4.4v9.4c0,.6.2,1,.6,1.2s.8.4,1.3.5c.2,0,.5.2.7.3.2.1.3.3.3.5s-.1.3-.3.3c-.2,0-.4,0-.6,0-.6,0-1,0-1.4,0-.3,0-.6,0-.9-.1s-.7,0-1.2,0-.9,0-1.2,0c-.3,0-.7,0-1,.1s-.8,0-1.4,0-.3,0-.5,0-.3-.2-.3-.3.1-.4.3-.5.4-.2.7-.3c.4-.1.9-.3,1.3-.5.4-.2.6-.6.6-1.2v-9.2c0-1.3-.4-2.3-1.1-3-.7-.7-1.7-1.1-2.9-1.1-1.1,0-2,.2-2.8.5s-1.5.8-2.1,1.3c-.1.1-.2.3-.3.5,0,.2,0,.4,0,.5v10.6c0,.6.2,1,.6,1.2.4.2.8.4,1.3.5.7.2,1,.4,1,.7s0,.3-.2.4c-.1,0-.4.1-.7.1-.6,0-1,0-1.4,0s-.7,0-.9-.1c-.3,0-.7,0-1.2,0s-.9,0-1.2,0-.6,0-1,.1c-.3,0-.8,0-1.4,0Z"/>
  </g>
  <g>
    <path class="st11" d="M190.3,278c-1.5,7.6,2.5,15.7,2.1,23.4-.1,2.3.3,4.7.9,6.9,4.9,16.6,14.1,36.2,26.6,50.4,13,19,76.6,48.5,83.4,34.2,4.3-2.5,16.1-.8,5.5,0-2.4,4.7,1.5,3.8,5,3.2,1.2-.2,2-1.5,1.5-2.7-.8-2.1.2-3.8,3.2-1.5.3,9.2,13.2-8.2,20.1-2.6-.8-7.1-4.4-2.6-8.3-3.7.8-9.7,13.8-10.4,8.3-2.9-16.4-6.8,12,10.4,9.7,5.6,3.3-.4-2.3-5.8-3.4-4.1-2.5-7.1,16.5,7.8,15.3-2.9,3.9,1,8.7,0,6.3-5.1,25.4,0-4-6.4,15-25.7,16.1,4.1-11.9,10-1.8,13.9-7,.9-.2,7.2,0,1.5,7.9-1.7,12.1,1.2,5.5-4.5,9.9-4.2.5-13,8.3-11,19-23.3-4.2-3-2.8-18.4,5.1,2.3,2.5-4.6,2.8-8.8,2.9,0,10.1-10.2,8.5-4.8,1.7,1.6-13.8,7.9-.9,6.3,9.5,2.5,9.7-39.5,7.8-48.7-5.6-14.8-3.7-31.8-15.9-43.3-1.8-1.7-2.5-4-2.9-6.5-.1-.8-1-1.7-2.1-2.4-2.7-1.7-4.7-4.3-5.9-7.4-1.9-5.3-9.3-6.4-13-12.7-44.2-35.7-130-31.2-169.4,31.7-1,1.6-1.1,3.5-.7,5.3.4,1.9-1.4,4.7-2.9,7.1-.9,1.5-.7,3.3.4,4.7,1.6,2-.5,4.3-1.1,4.9-1,1-1.4,2.5-.7,3.8.5,1,.3,1.7-.7,1.9-1.5.4-2.2,2.2-1.7,3.7"/>
    <path class="st11" d="M192.6,266.5c1.3,3.7-.8,7.1-2.3,11.5"/>
    <path class="st11" d="M390.6,342.1c6.6-1.6,1.8,4.3-1.1,5.2-2.1-2.5-5.4-8,1.1-5.2Z"/>
    <path class="st11" d="M375.6,331.6c.9-3.3,3.5-5.8,7.6-6.3-1.7,3.4-7.4,15.9-7.6,6.3Z"/>
    <path class="st11" d="M362,347.3c-.4,3.6,7.5,7.2,1.1,8-2.2-5.3-7.1-2.5-1.1-8Z"/>
    <path class="st11" d="M350,375.4c2.7.4,8-2.1,4-4.5,4-.5,17.7,2.9,9,5.9,3.6-9-17.2,7.6-13.1-1.3"/>
    <path class="st9" d="M395.7,330.4c-3.3,7.1,7.3,3.2,4.8-.7-1.1,1.7-3.3,1.4-4.8.7Z"/>
    <path class="st4" d="M374.8,280.7c-1-2.2-1.9-4.5-3.6-6.5-1.8-2.1-3.5-4.2-6-5-.3-.1-.7-.5-1.1-.7-.9-.8-1.8-1.5-2.7-2.3-1.8-1.6-3.7-2.2-5.6-2.9-1-.4-2-.8-2.9-1.5-1.3-.9-2.6-1.8-3.9-2.6-1.6-1.1-3.3-2.1-4.8-3.3-1.2-1-2.2-1.8-3.5-2-1.8-.3-3.4-.3-4.3.9-.6.7-1.2,1.4-1.8,2.1-.2.2-.6.5-.9.4-1.2-.2-1.6.4-1.6,1.5,0,.9-.2,1.9-.5,2.7-.3.9-.6,1.8-1.9,1.7-.9,0-1.7.2-2.3.6-.5.3-1.1.6-1.7.8-.8.3-1.7.5-2.6.7-1.8.4-3.2,1.7-5.2,1.8-.3,0-.5.4-.8.6-.3.2-.5.5-.8.6-.3.1-.9,0-1.2.2-1,.8-2.7.6-3.3,2-.1.3-.6.3-.9.3-1.1.2-1.9.8-2.5,1.5v-35.6c.2-.4.5-.8,1-1.1-.8-1.2-.8-2.5,0-3.6.1-.2.2-.5.3-.7.7-1.9,1.1-3.9,1.3-5.9.1-1.2.3-2.4,0-3.6-.3-1-.4-2.1-.5-3.2-.3-2.2-.8-4.4-2.1-6.2-1-1.4-2.4-2.5-2.7-4.4,0-.2-.3-.5-.5-.7-.8-.8-1.7-1.7-2.5-2.5-.6-.6-1.3-.8-2.1-.8-.9,0-1.8-.1-2.7-.3-1.5-.2-3-.8-4.5,0-.3.1-.8,0-1.2,0-1-.2-2-.4-3-.6-.3,0-.7,0-1-.2-1.2-.8-2.4-1.7-3.6-2.5-1.5-1.1-4.2-1.2-5.4.9-.5.9-1.2,1.7-1.9,2.4-1,1.1-1.5,2.4-1.6,3.9,0,2.6,0,5.2,0,7.8s0,.8.2,1.2c1.1,2.6.5,5.3.1,7.9,0,.7-.3,1.4-.7,1.9-1,1.1-1.9,2.2-2.7,3.5-.7,1.2-1.5,2.3-2.1,3.5-.3,0-.6,0-.9,0-.4,1.5-1,2.7-2.2,3.7-.6.5-1.3,1.2-.8,2.2.1.2-.1.6-.3.9-1.1,1.9-2.2,3.8-3.3,5.8-.4.7-1,1.2-.7,2.1,1.3-.3,1.5-.3,1.7-1,.3-1.1,1.1-1.6,2-2.3-.9,1.8-1.7,3.4-2.5,5.1-.6,1.2-.9,2.5-2,3.5-.9.9-1.5,2.1-2.1,3.3-.5.9-.8,2.1-1.5,2.8-1,1-1.4,2.3-1.9,3.4-.8,1.7-1.6,3.5-2.4,5.2,0,.1-.3.2-.3.4-.2.4-.5.9-.6,1.3-.3.6-.3,1.4-.7,1.9-.8,1.1-1.4,2.3-1.9,3.5-.4.9-.9,1.8-1.3,2.7-.9,1.9-1.8,3.8-2.6,5.7-.3.7-.5,1.5-1.1,2.1-.4.4-.5,1.1-.6,1.7s-.2.8-.3,1.1c-.4.9-.8,1.8-1.1,2.7-.4,1.4-1.7,2.4-1.5,4-1,.5-.8,1.4-1,2.2,0,.4-.3.7-.4,1.1-.5,1.1-1.3,2.2-1.5,3.4-.1.9-.4,1.4-.9,1.9-.5-.3-1.1-.6-1.6-.9-.6.4-1.4.7-1.7,1.2-.8,1.7-1.3,3.6-2.1,5.4-.9,2.1-1.8,4.2-2.8,6.2-.2.5-.9.7-1.4,1.2.5,1.8-1.1,2.1-2.2,2.5-.2.8-.5,1.5-.6,2.3-.2,1.7-.5,3.4.2,5,.3.6.8.9,1.1,1.5.5,1,.9,2,1.3,3,1.4-.2,2.3,0,2.7,1.3.5,1.6,1.7,2.5,3.2,3,.3,0,.7.2.7.4.5,1.3,1.7,1.4,2.4,1.8.9-.2,1.5-.6,2.1-.5,1.3.1,2.2-.2,2.8-1.3,1.7.8,2.7.3,3.6-1.3.6-1.1,1.5-2.1,2.2-3.2.4-.6.8-1.2,1.2-1.8.4-.6.8-1.2,1.2-1.8.2-.2.3-.4.4-.7,1.3-2.9,2.3-5.9,3.6-8.8,1.1-2.6,2-5.2,3-7.8.3-.7.8-1.4,1-2.1.4-1.6.9-2.1,2.5-2.1h2.6s.3.3.7.5c1.4.8,2.8,1.2,4.3.2,1.1-.8,2.3-1.7,3.4-2.5,1-.8,2-1.5,3.3-1.5,2.4.1,4.8,0,7.1.4,1.3.1,2.5.7,3.7,1.2.3.1.5.3.8.5v9.4h22v-24.9c.7,0,1.4,0,1.8-.2.4-.4.9-.6,1.5-.8.6-.2,1.1-.6,1.7-.8.7-.3,1-1.2,2.2-.7.2-1,.5-2,1.8-2.1.5,0,.8-.8,1.2-1.2.4-.4.6-1,1.4-1.1.9,0,1.4-1,2.2-1.1.7,0,1-1,2.1-.3-.2,1.1-.4,2.1-.7,3.1-1,3.5-1.4,7.3-1.9,11.1,0,.2,0,.5,0,.6.8,1.2.4,2,.3,2.8-.4.1-.7.2-1,.3,0,0,0,.1,0,.2.3,0,.5.1.9.2,0,.3.1.8,0,.8-1.3.2-1,1.5-1.1,2.5-.3,2.8-.5,5.7-.7,8.4.4.5.6.8.8,1-.3.4-.7,1-.6,1.1,1.1,1.2-.1,1-.3,1.5,0,.2-.2.4-.3.6.5.3.8.5,1.2.8-.1.3-.2.6-.3.8-.5,1.1-1.4,1.9-.3,3.8.2.3,0,.8,0,1.1,0,.5-.1,1-.1,1.6s.2,1.2-.5,1.3c-.2,0-1,.7.3,1.4,0,0,.2.4.2.5,0,1,0,2-.3,2.9-.2.8,0,1.8-.9,2.2-.5.2-.3,1.5-.4,2.3,0,0,0,0,.1.2.2,0,.3,0,.6-.1.4,1.6-.8,1.9-1.3,2.8.3,0,.6,0,.9.1,0,.3.1.6.2,1-1.3-.5-.9.6-1.3,1.1.4.3.7.4,1,.6-.2.5-.3,1-.5,1.4-.1.2-.4.3-.6.4-.6,0-.7,0-.9.8.2.1.3.2.4.4-.6.3-1,.6-1.6.9.6.3.9.5,1.5.8-.4.2-.9.4-.9.4.9,1.6-.7.6-.9,1.2.2.1.3.3.6.5-.4.5-.7,1.2-1.2,1.3-.6,0-.7.5-.8.8-.5,1.7-1.9,2.5-3.1,3.5-.9.8-2,1.4-3,2.1-1,.7-1.9,1.6-3.5,1.3,0,.4,0,.7,0,.9-2.1-.6-3.4-.6-4,0,.2.4.3.7.7,1.4-2-.2-3.9-.3-5.9-.5.4.5.7.9,1,1.4-1.1-.2-2-.3-2.9-1.2-.3-.3-.8-.4-1.2-.4-.4,0-2,0-2.4,0-1.8-.7-3.7-1.3-5.5-2-.7-.2-1.2-.5-1.7-1.4-.3-.5-.9-1.2-1.3-1.4-2-.8-2.4-2.6-2.7-3.9-.7-3.9.4-7,2.2-9.5.8-1.1,1.6-2.2,2.4-3.3,1.1-1.6,2-3.4,4-4,.3,0,.5-.4.7-.6.6-1.1,1.9-1.3,2.6-2.2.8-.9,1.7-1.6,3-1.8.3,0,.5-.5.8-.7.2-.2.5-.5.8-.4.8.3,1-.3,1.4-.6,1.2-.8,2.5-1.6,3.8-2.2,1.1-.5,2.4-.7,3.4-1.2,1.9-.9,3.8-2,5.7-3-.2,0-.5-.1-.7,0-1.4.3-2.7.7-4.1,1.1-.4.1-.8.3-1.3.5-.9.3-1.8.8-3.1,0,0,.3.2.7,0,.7-1.1.4-2.2.8-3.2,1.1-.4.1-.8,0-1.3-.5.3-.7.8-1,1.6-.8.3-.5.5-1,.9-1.7-.7.2-1.2.4-1.8.4-.5,0-1.1,0-1.6,0-.4,0-.8,0-1.1,0-2,.7-4,1.4-6.1,2-.2,0-.5,0-.5.2-.2,1.3-2,.4-2.5,1.3-.1.3-.6.2-.9.4-.6.5-1,1.1-1.6,1.4-.6.4-1.6.4-1.5,1.5,0,.2-.3.4-.4.3-1.1-.7-1.1.4-1.6.7-.3.3-.7.5-1,.8s-.8.8-1.1,1.3c-.5.8-.7,1.9-2,1.8-.2,0-.4.2-.5.4-.5,1-1,2-1.6,2.9-.5.7-1,1.6-1.8,1.8-1,.3-1.5.8-1.8,1.7-1.6-1-1.6.9-2.8.7-.1-.5-.2-.9-.4-1.6-.2.3-.4.5-.4.6-.8,1.8-1.8,3.5-3,4.9-.2.2-.3.6-.6.5-.8-.1-1.1.5-1.4.9-.3.4-.6.7-1.2.5-.7-.2-1.1,0-1.3.6-.4.6-.8,1.2-1.2,1.8-.2.3-.6.7-.5,1.1.4,1.4.8,2.9,1.5,4.3.8,1.7,2,3.3,3,4.9,1.4,2.2,3,4.2,5.1,5.7,1,.7,2,1.6,2.9,2.5,1.4,1.4,2.7,2.8,4.1,4.3.5.5.9.8,1.5.9.7.1,1.5.5,2.3.8,1.7.8,3.3,1.8,5,2.7.9.5,1.8.9,2.6,1.3.6.2,1.1,0,1.7.2,1.1.3,2.2.7,3.2.9.8,0,1.5,0,2.3.9.3.3.9.2,1.4.2.3,0,.5,0,.7,0,1.3.1,2.6.3,3.9.4.6,0,1.3.2,1.6,0,.5-.4,1.2-.2,1.8-.2,1.2.1,2.7,1,3.3-.2,0,0,.2,0,.3,0,1.2,0,2.4,0,3.7,0,.3-.3.4-1,.9-1.1.9-.1,1.6-.5,1.9-1.3.6.4,1.2.8,1.7,1.1,0,0,0-.1,0-.2-.3-.3-.6-.6-1.1-1.1.5,0,.8,0,1.1,0,.2,0,.6.1.6,0,.5-.8,1.4-.6,2.3-.3,0,0,.2,0,.3,0,0-.3,0-.5,0-.8,0,0,0,0,.1,0,1.2,0,2.6.4,3.3-.6.2-.3.2-.8.5-.9,1.4-.2,2-1.3,3-1.9.8-.5,1.6-.9,2.3-1.4.6-.4.4-1.5,1.4-1.4.7-1.3,1.6-2.5,2.5-3.6,1.1-1.3,1.4-3.3,2.7-4.5.1-.1.2-.3.2-.5.4-1.5.8-3,1.2-4.5.2-.9.6-1.7.7-2.7.4-2.8.9-5.5,1.2-8.4.2-1.8.5-3.4.5-5.3s.1-3.9.7-5.5c.6-1.8,1.2-3.6,1.4-5.6.1-1.3.5-2.6.6-3.9.2-2.2,1.1-3.9,1.4-6,.2-1.3.4-2.6.9-3.8.8-2,1.7-3.9,2.8-5.7,1.4-2.3,2.8-4.6,3.6-7.4.9-3.1,3.6-4.6,5.1-7,0,0,0,0,.1,0,1.2-.4,1.9-1.2,2.7-2,.6-.6,1.4-1.1,2.3-1.4,2.6-.6,5.4-1,7.9-1.7,1.5-.4,3.2-.7,4.3-1.7.2-.2.6-.3.9-.3,1.9,0,3-1,4.2-1.9,1-.7,1.4-2.1.7-3.5M235.7,308.2c-1.7.4-1.3,1.9-1.6,3.1,0,.2-.1.6-.2.6-1.1.3-.8,1.6-1.6,2.2-.7-.6-.2-1.1,0-1.6.8-2,1.7-3.9,2.5-5.9.4-1,.8-1.9,2-2.2.4,1.5-.6,2.5-1.1,3.7M286.5,300.1c-1.9.1-3.7.2-5.6.4-1.2,0-2.3,0-3.5,0-1.2-.1-2.1-.8-3-1.3-.5-.3-1-.8-1.6-1.2.6-1.6,8.7-5.2,13.7-5.6v7.8h0ZM286.5,274.4c-.1.3-.2.7,0,1.1v6.4c-1.6.8-3.5.8-5.2,1.2-1.4.3-2.7.8-4.1,1.2-.4.1-.7.5-1.1.5-2.6,0-4.4,2-6.8,2.5-.5.1-1,.7-1.8,1.2.1-.6.1-.9.2-.9,1.7-1.1,2.1-3,3.1-4.6.3-.5.5-1.1,1-1.5.5-.5.8-1.2,1.3-1.8.7-.9,1.3-1.8,2-2.6,1.4-1.5,2.6-3,3.6-4.8.6-.9,1.3-1.8,2-2.6l.4.2c-.8,1.4-1.6,2.7-2.3,4.1-.7,1.4-1.7,2.5-1.9,4.1,2.5-4.1,5.3-8.1,8-12.1.8.4,1.2.9,1.5,1.4v7h0ZM295.2,321.3c.3.6.2,1-.4,1.2-.5-1-.5-1.1.4-1.2ZM296.1,376.3c0,0,0-.2-.2-.3.3,0,.6-.1.9-.2,0,.1.1.2.2.4-.3,0-.6,0-.9.2Z"/>
    <path class="st4" d="M301,323.4c-1.7,0-3.1.3-4.3,1.5.6.3,1.2.6,1.7.9,0-.4.1-.8.2-1.1.8-.4,1.6-.9,2.4-1.3"/>
    <path class="st4" d="M298.4,325.8s0,0,0,0h0c0,0,0,0,0,0h0s0,0,0,0Z"/>
    <path class="st4" d="M309.3,352c0,0-.2-.2-.4-.4-.1.2-.2.4-.2.5.1,0,.3.2.4.2.1,0,.2-.2.2-.3"/>
    <path class="st4" d="M239.5,293.6c-.1,0-.2,0-.3-.1-.2.4-.3.8-.6,1.2-.3.4-.8.7-1.1,1.1-.6.7-.4,1.3.5,2.2.6-1.6,1-3,1.5-4.3"/>
    <path class="st4" d="M257.2,258.5c-1.2.4-2,.7-2.2,1.7-.2.8-.7,1.5-1,2.3,0,0,.2,0,.3.2.9-1.3,1.8-2.6,2.9-4.1"/>
    <path class="st4" d="M243.9,283.2c-.8.8-1.3,1.9-2.2,3,2-.4,1.5-2.1,2.2-3Z"/>
    <path class="st4" d="M249.7,270.6c-.6,1.1-1,1.9-1.4,2.7,1.2-.3,1.4-.7,1.4-2.7Z"/>
    <path class="st4" d="M251.3,267.4c-1,.4-.8,1.1-.6,1.8.8-.4,1.2-.9.6-1.8Z"/>
    <path class="st4" d="M237.7,299.8c-.1-.2-.3-.4-.5-.7-.5.4-.8.8-.7,1.8.3-.4.4-.7.6-.8.2-.1.4-.2.6-.4"/>
    <path class="st4" d="M239.9,289.2c-.2.1-.2.5-.3.8h1.7c-.4-.7-.6-1.4-1.3-.8Z"/>
    <path class="st4" d="M239.8,292.5c.2-.4.4-.8.5-1.2,0,0-.2-.2-.3-.3-.3.2-.6.3-.8.6,0,.1,0,.5.2.7,0,0,.2,0,.3,0"/>
    <path class="st4" d="M241.6,287.4c-.1,0-.2-.2-.4-.3-.2.5-.9.6-.7,1.5.3-.4.7-.8,1-1.2Z"/>
    <path class="st4" d="M259.7,253.6c.2-.3.5-.6.9-1.1-.5,0-.8,0-1,0,0,.3,0,.6-.2.9,0,0,.2,0,.2.1Z"/>
    <path class="st4" d="M259.6,252.6h0s0,0,0,0"/>
    <path class="st4" d="M246.5,277.9c-.7.2-1,.6-1,1.1.3-.3.5-.6,1-1.1Z"/>
    <path class="st4" d="M260.4,251.7c-.2,0-.4-.3-.5-.3-.4.3-.6.6-.2,1.1.2-.3.5-.5.7-.8"/>
  </g>
</svg>